<svg width="96" height="96" viewBox="0 0 96 96" fill="none" xmlns="http://www.w3.org/2000/svg">
<path d="M48 95.5C21.8084 95.5 0.5 74.1916 0.5 48C0.5 21.8084 21.8084 0.5 48 0.5C74.1916 0.5 95.5 21.8084 95.5 48C95.5 74.1916 74.1916 95.5 48 95.5ZM48 5.02381C24.303 5.02381 5.02381 24.303 5.02381 48C5.02381 71.697 24.303 90.9762 48 90.9762C71.697 90.9762 90.9762 71.697 90.9762 48C90.9762 24.303 71.697 5.02381 48 5.02381Z" fill="#41B212"/>
<path d="M37.9545 68.3569C37.3758 68.3569 36.7966 68.136 36.3553 67.6942L20.2559 51.5948C19.3724 50.7117 19.3724 49.2794 20.2559 48.3963C21.1385 47.5128 22.5718 47.5128 23.4544 48.3963L37.9545 62.896L72.5458 28.3052C73.4284 27.4217 74.8617 27.4217 75.7443 28.3052C76.6278 29.1883 76.6278 30.6207 75.7443 31.5037L39.5538 67.6942C39.1125 68.136 38.5333 68.3569 37.9545 68.3569Z" fill="#41B212"/>
</svg>
