<svg width="20" height="20" viewBox="0 0 20 20" fill="none" xmlns="http://www.w3.org/2000/svg">
<path d="M0.577789 19.4223C0.641639 19.4863 0.717462 19.537 0.800923 19.5716C0.884384 19.6062 0.973847 19.624 1.06419 19.624C1.15454 19.624 1.24401 19.6062 1.32747 19.5716C1.41093 19.537 1.48675 19.4863 1.5506 19.4223L9.99998 10.973L18.4528 19.4223C18.5818 19.5513 18.7568 19.6238 18.9392 19.6238C19.1216 19.6238 19.2966 19.5513 19.4256 19.4223C19.5546 19.2933 19.6271 19.1184 19.6271 18.9359C19.6271 18.7535 19.5546 18.5785 19.4256 18.4495L10.9728 10.0001L19.4222 1.54734C19.5512 1.41833 19.6236 1.24337 19.6236 1.06093C19.6236 0.878491 19.5512 0.703526 19.4222 0.574523C19.2932 0.44552 19.1182 0.373047 18.9358 0.373047C18.7533 0.373047 18.5784 0.44552 18.4494 0.574523L9.99998 9.02734L1.54716 0.57796C1.41564 0.46533 1.24647 0.406476 1.07344 0.413159C0.900412 0.419842 0.736279 0.491571 0.613839 0.614011C0.491399 0.736451 0.41967 0.900584 0.412987 1.07361C0.406304 1.24664 0.465158 1.41582 0.577789 1.54734L9.02716 10.0001L0.577789 18.453C0.449741 18.5818 0.377869 18.756 0.377869 18.9376C0.377869 19.1193 0.449741 19.2935 0.577789 19.4223Z" fill="white"/>
</svg>
