<svg width="22" height="22" viewBox="0 0 22 22" fill="none" xmlns="http://www.w3.org/2000/svg">
<g id="gift-card 1" clip-path="url(#clip0_1014_81)">
<g id="XMLID_246_">
<path id="XMLID_304_" d="M9.05337 6.48047C8.73667 6.48047 8.3905 6.59423 8.15156 6.86382C7.83862 7.21686 7.74052 8.27187 7.75213 8.80429C8.2805 8.81708 9.29072 8.80307 9.69997 8.39611C10.1279 7.97055 10.245 7.22692 9.78995 6.77437C9.5919 6.5774 9.32748 6.48047 9.05337 6.48047Z" fill="#58CC8C"/>
<path id="XMLID_861_" d="M5.0203 6.48047C5.337 6.48047 5.68317 6.59423 5.92212 6.86382C6.23505 7.21686 6.33316 8.27187 6.32155 8.80429C5.79317 8.81708 4.78291 8.80307 4.3737 8.39611C3.94578 7.97055 3.82869 7.22692 4.28373 6.77437C4.48177 6.5774 4.7462 6.48047 5.0203 6.48047Z" fill="#58CC8C"/>
<path id="XMLID_366_" d="M10.7871 5.7748C11.5906 6.57376 11.6976 7.83302 11.1471 8.80379H22V5.25879C22 4.14614 21.0963 3.24414 19.9817 3.24414H7.74225V5.41937C8.7314 4.86123 9.98127 4.97354 10.7871 5.7748C11.2449 6.22998 9.98127 4.97354 10.7871 5.7748Z" fill="#58CC8C"/>
<path id="XMLID_370_" d="M4.78166 12.7698L3.78033 11.7749L5.33599 10.2148H0V16.7431C0 17.8558 0.903645 18.7578 2.01831 18.7578H6.32942V11.2176L4.78166 12.7698Z" fill="#58CC8C"/>
<path id="XMLID_371_" d="M8.72947 10.2148L10.2644 11.762L9.26048 12.7543L7.74225 11.2239V18.7578H19.9817C21.0963 18.7578 22 17.8558 22 16.7431V10.2148H8.72947Z" fill="#58CC8C"/>
<path id="XMLID_425_" d="M2.92454 8.80379C2.37393 7.83288 2.48116 6.57371 3.28458 5.7748C4.09036 4.97354 5.34022 4.86128 6.32942 5.41937V3.24414H2.01831C0.903645 3.24414 0 4.14614 0 5.25879V8.80379H2.92454Z" fill="#58CC8C"/>
</g>
</g>
<defs>
<clipPath id="clip0_1014_81">
<rect width="22" height="22" fill="white"/>
</clipPath>
</defs>
</svg>
