<svg width="24" height="25" viewBox="0 0 24 25" fill="none" xmlns="http://www.w3.org/2000/svg">
<path d="M23.7683 10.4228C23.5614 9.80207 23.2055 9.28069 22.7255 8.84207C20.0938 6.45862 17.4621 4.07517 14.8386 1.68345C14.16 1.07103 13.3986 0.648966 12.48 0.533103C12.4552 0.533103 12.4386 0.516552 12.4221 0.5H11.5779C11.1972 0.607586 10.8 0.673793 10.4441 0.83931C10.0386 1.03793 9.6331 1.27793 9.29379 1.58414C6.63724 3.96759 4.00552 6.36759 1.36552 8.76759C0.637241 9.42966 0.182069 10.2241 0.0413793 11.2007C0.0413793 11.2421 0.0165517 11.2917 0 11.3331V20.9414C0.0413793 21.1317 0.0744828 21.3221 0.132414 21.5041C0.637241 23.151 1.72138 24.1524 3.42621 24.4669C3.46759 24.4669 3.51724 24.4917 3.55862 24.5083H20.4828C20.7972 24.4255 21.12 24.3759 21.4179 24.2517C22.891 23.6559 23.6772 22.5138 23.9503 20.9828C23.9669 20.9083 23.9834 20.8338 24 20.7593V11.3248C23.9255 11.0269 23.8676 10.7207 23.7683 10.4228Z" fill="white"/>
</svg>
