<svg width="20" height="21" viewBox="0 0 20 21" fill="none" xmlns="http://www.w3.org/2000/svg">
<path d="M11.3364 14.3972C11.1319 14.4162 10.9267 14.3701 10.75 14.2653C10.621 14.1328 10.5591 13.9489 10.5819 13.7653C10.5866 13.6125 10.6049 13.4604 10.6364 13.3108C10.6669 13.1392 10.7063 12.9693 10.7546 12.8017L11.2909 10.9562C11.3462 10.7741 11.3828 10.5868 11.4 10.3971C11.4 10.1926 11.4273 10.0517 11.4273 9.96988C11.4387 9.60531 11.283 9.25546 11.0046 9.01988C10.662 8.75691 10.2355 8.62765 9.80456 8.65625C9.49577 8.66089 9.18937 8.71144 8.89546 8.80625C8.57425 8.90625 8.23636 9.02593 7.88183 9.16535L7.72729 9.76535C7.83183 9.72898 7.95913 9.68808 8.10456 9.64261C8.24331 9.60152 8.38714 9.58007 8.53183 9.57898C8.7348 9.55699 8.93909 9.60683 9.10909 9.71988C9.22456 9.85765 9.27874 10.0366 9.25909 10.2153C9.25858 10.3682 9.24183 10.5206 9.20909 10.6699C9.17726 10.829 9.13636 10.9971 9.08636 11.1744L8.54546 13.0289C8.50187 13.2013 8.46698 13.3758 8.44093 13.5517C8.41968 13.7023 8.40905 13.8541 8.40909 14.0062C8.40687 14.3733 8.57472 14.7207 8.86362 14.9471C9.21144 15.2142 9.64409 15.3466 10.0818 15.3198C10.39 15.3262 10.6971 15.2816 10.9909 15.188C11.2485 15.1001 11.5924 14.9744 12.0227 14.8107L12.1682 14.238C12.0516 14.2864 11.9316 14.3259 11.8091 14.3562C11.6542 14.3916 11.4951 14.4053 11.3364 14.3972Z" fill="#FBB040"/>
<path d="M11.9045 5.64796C11.6571 5.42077 11.3312 5.29854 10.9954 5.30706C10.6598 5.29948 10.3342 5.42159 10.0863 5.64796C9.63192 6.03975 9.58118 6.72573 9.97302 7.18014C10.0079 7.22065 10.0458 7.2585 10.0863 7.29342C10.604 7.75643 11.3868 7.75643 11.9045 7.29342C12.3588 6.89776 12.4065 6.2087 12.0108 5.75432C11.9779 5.71647 11.9424 5.68092 11.9045 5.64796Z" fill="#FBB040"/>
<path d="M10 0.306641C4.47715 0.306641 0 4.78379 0 10.3066C0 15.8295 4.47715 20.3066 10 20.3066C15.5229 20.3066 20 15.8295 20 10.3066C20 4.78379 15.5229 0.306641 10 0.306641ZM10 19.3975C4.97922 19.3975 0.909102 15.3274 0.909102 10.3066C0.909102 5.28586 4.97922 1.21574 10 1.21574C15.0208 1.21574 19.0909 5.28586 19.0909 10.3066C19.0909 15.3274 15.0208 19.3975 10 19.3975Z" fill="#FBB040"/>
</svg>
