<svg width="30" height="30" viewBox="0 0 30 30" fill="none" xmlns="http://www.w3.org/2000/svg">
<g id="list 1">
<g id="Layer 2">
<path id="Vector" d="M23.75 1.5625H6.24999C5.67003 1.56316 5.11402 1.79384 4.70392 2.20393C4.29383 2.61403 4.06315 3.17004 4.06249 3.75V25.5725C4.05973 25.9827 4.17397 26.3852 4.39182 26.7328C4.60968 27.0804 4.92211 27.3587 5.29249 27.535C5.6695 27.7163 6.09029 27.7865 6.50573 27.7376C6.92118 27.6887 7.31414 27.5226 7.63874 27.2587C7.83128 27.0886 8.08195 26.999 8.33874 27.0088C8.77874 27.0088 8.96374 27.1637 9.35874 27.5475C9.64588 27.8804 10.0014 28.1475 10.4011 28.3306C10.8008 28.5137 11.2353 28.6085 11.675 28.6085C12.1146 28.6085 12.5491 28.5137 12.9488 28.3306C13.3485 28.1475 13.7041 27.8804 13.9912 27.5475C14.3912 27.1637 14.57 27.0088 15.0087 27.0088C15.4475 27.0088 15.6262 27.1637 16.025 27.5475C16.3118 27.8797 16.6668 28.1462 17.0658 28.3289C17.4649 28.5116 17.8986 28.6062 18.3375 28.6062C18.7764 28.6062 19.2101 28.5116 19.6091 28.3289C20.0082 28.1462 20.3632 27.8797 20.65 27.5475C21.05 27.1637 21.2287 27.0088 21.6675 27.0088C21.919 26.9986 22.165 27.0849 22.355 27.25C22.6808 27.5136 23.0748 27.6791 23.4911 27.7273C23.9074 27.7756 24.3288 27.7045 24.7062 27.5225C25.0756 27.3463 25.3871 27.0684 25.6043 26.7215C25.8215 26.3746 25.9353 25.973 25.9325 25.5638V3.75C25.9318 3.17091 25.7018 2.61565 25.2928 2.2057C24.8838 1.79575 24.3291 1.56448 23.75 1.5625ZM9.99999 21.25C9.75276 21.25 9.51109 21.1767 9.30553 21.0393C9.09996 20.902 8.93975 20.7068 8.84514 20.4784C8.75053 20.2499 8.72578 19.9986 8.77401 19.7561C8.82224 19.5137 8.94129 19.2909 9.11611 19.1161C9.29092 18.9413 9.51365 18.8223 9.75613 18.774C9.9986 18.7258 10.2499 18.7505 10.4783 18.8451C10.7068 18.9398 10.902 19.1 11.0393 19.3055C11.1767 19.5111 11.25 19.7528 11.25 20C11.25 20.3315 11.1183 20.6495 10.8839 20.8839C10.6495 21.1183 10.3315 21.25 9.99999 21.25ZM9.99999 15C9.75276 15 9.51109 14.9267 9.30553 14.7893C9.09996 14.652 8.93975 14.4568 8.84514 14.2284C8.75053 13.9999 8.72578 13.7486 8.77401 13.5061C8.82224 13.2637 8.94129 13.0409 9.11611 12.8661C9.29092 12.6913 9.51365 12.5722 9.75613 12.524C9.9986 12.4758 10.2499 12.5005 10.4783 12.5951C10.7068 12.6898 10.902 12.85 11.0393 13.0555C11.1767 13.2611 11.25 13.5028 11.25 13.75C11.25 14.0815 11.1183 14.3995 10.8839 14.6339C10.6495 14.8683 10.3315 15 9.99999 15ZM9.99999 8.75C9.75276 8.75 9.51109 8.67669 9.30553 8.53934C9.09996 8.40199 8.93975 8.20676 8.84514 7.97835C8.75053 7.74995 8.72578 7.49861 8.77401 7.25614C8.82224 7.01366 8.94129 6.79093 9.11611 6.61612C9.29092 6.4413 9.51365 6.32225 9.75613 6.27402C9.9986 6.22579 10.2499 6.25054 10.4783 6.34515C10.7068 6.43976 10.902 6.59998 11.0393 6.80554C11.1767 7.0111 11.25 7.25277 11.25 7.5C11.25 7.83152 11.1183 8.14946 10.8839 8.38388C10.6495 8.6183 10.3315 8.75 9.99999 8.75ZM20 20.9375H13.125C12.8763 20.9375 12.6379 20.8387 12.4621 20.6629C12.2863 20.4871 12.1875 20.2486 12.1875 20C12.1875 19.7514 12.2863 19.5129 12.4621 19.3371C12.6379 19.1613 12.8763 19.0625 13.125 19.0625H20C20.2486 19.0625 20.4871 19.1613 20.6629 19.3371C20.8387 19.5129 20.9375 19.7514 20.9375 20C20.9375 20.2486 20.8387 20.4871 20.6629 20.6629C20.4871 20.8387 20.2486 20.9375 20 20.9375ZM20 14.6875H13.125C12.8763 14.6875 12.6379 14.5887 12.4621 14.4129C12.2863 14.2371 12.1875 13.9986 12.1875 13.75C12.1875 13.5014 12.2863 13.2629 12.4621 13.0871C12.6379 12.9113 12.8763 12.8125 13.125 12.8125H20C20.2486 12.8125 20.4871 12.9113 20.6629 13.0871C20.8387 13.2629 20.9375 13.5014 20.9375 13.75C20.9375 13.9986 20.8387 14.2371 20.6629 14.4129C20.4871 14.5887 20.2486 14.6875 20 14.6875ZM20 8.4375H13.125C12.8763 8.4375 12.6379 8.33873 12.4621 8.16291C12.2863 7.9871 12.1875 7.74864 12.1875 7.5C12.1875 7.25136 12.2863 7.0129 12.4621 6.83709C12.6379 6.66127 12.8763 6.5625 13.125 6.5625H20C20.2486 6.5625 20.4871 6.66127 20.6629 6.83709C20.8387 7.0129 20.9375 7.25136 20.9375 7.5C20.9375 7.74864 20.8387 7.9871 20.6629 8.16291C20.4871 8.33873 20.2486 8.4375 20 8.4375Z" fill="url(#paint0_linear_1006_7544)"/>
</g>
</g>
<defs>
<linearGradient id="paint0_linear_1006_7544" x1="14.9975" y1="1.5625" x2="14.9975" y2="28.6085" gradientUnits="userSpaceOnUse">
<stop stop-color="#CC3B39"/>
<stop offset="1" stop-color="#FFDD54"/>
</linearGradient>
</defs>
</svg>
