<svg width="18" height="23" viewBox="0 0 18 23" fill="none" xmlns="http://www.w3.org/2000/svg">
<path d="M15 8.1775H14.6025V5.8525C14.6025 4.36662 14.0122 2.94161 12.9616 1.89093C11.9109 0.840262 10.4859 0.25 9 0.25C7.51412 0.25 6.08911 0.840262 5.03843 1.89093C3.98776 2.94161 3.3975 4.36662 3.3975 5.8525V8.1775H3C2.20435 8.1775 1.44129 8.49357 0.87868 9.05618C0.31607 9.61879 0 10.3819 0 11.1775V19.75C0 20.5456 0.31607 21.3087 0.87868 21.8713C1.44129 22.4339 2.20435 22.75 3 22.75H15C15.7956 22.75 16.5587 22.4339 17.1213 21.8713C17.6839 21.3087 18 20.5456 18 19.75V11.1775C18 10.3819 17.6839 9.61879 17.1213 9.05618C16.5587 8.49357 15.7956 8.1775 15 8.1775ZM4.8975 5.8525C4.8975 5.31375 5.00361 4.78028 5.20978 4.28254C5.41595 3.7848 5.71814 3.33255 6.09909 2.95159C6.48005 2.57064 6.9323 2.26845 7.43004 2.06228C7.92778 1.85611 8.46125 1.75 9 1.75C9.53875 1.75 10.0722 1.85611 10.57 2.06228C11.0677 2.26845 11.52 2.57064 11.9009 2.95159C12.2819 3.33255 12.584 3.7848 12.7902 4.28254C12.9964 4.78028 13.1025 5.31375 13.1025 5.8525V8.1775H4.8975V5.8525ZM16.5 19.75C16.5 20.1478 16.342 20.5294 16.0607 20.8107C15.7794 21.092 15.3978 21.25 15 21.25H3C2.60218 21.25 2.22064 21.092 1.93934 20.8107C1.65804 20.5294 1.5 20.1478 1.5 19.75V11.1775C1.5 10.7797 1.65804 10.3981 1.93934 10.1168C2.22064 9.83554 2.60218 9.6775 3 9.6775H15C15.3978 9.6775 15.7794 9.83554 16.0607 10.1168C16.342 10.3981 16.5 10.7797 16.5 11.1775V19.75Z" fill="#1970AE"/>
<path d="M8.99998 12.9453C8.709 12.9454 8.42467 13.0324 8.18343 13.1951C7.94219 13.3578 7.75503 13.5888 7.64594 13.8586C7.53684 14.1283 7.51078 14.4245 7.5711 14.7092C7.63142 14.9938 7.77536 15.254 7.98448 15.4563V17.2346C7.98448 17.4335 8.0635 17.6242 8.20415 17.7649C8.34481 17.9055 8.53557 17.9846 8.73448 17.9846H9.26548C9.4644 17.9846 9.65516 17.9055 9.79581 17.7649C9.93647 17.6242 10.0155 17.4335 10.0155 17.2346V15.4563C10.2246 15.254 10.3686 14.9938 10.4289 14.7092C10.4892 14.4245 10.4631 14.1283 10.354 13.8586C10.2449 13.5888 10.0578 13.3578 9.81653 13.1951C9.57529 13.0324 9.29096 12.9454 8.99998 12.9453Z" fill="#1970AE"/>
</svg>
