<svg width="30" height="30" viewBox="0 0 30 30" fill="none" xmlns="http://www.w3.org/2000/svg">
<g id="marketing 1">
<g id="Group">
<path id="Vector" fill-rule="evenodd" clip-rule="evenodd" d="M24.7233 8.4495C24.3741 8.65013 23.9283 8.52978 23.7277 8.18056C23.527 7.83134 23.6474 7.38562 23.9966 7.18493L26.6799 5.63571C27.0291 5.43503 27.4748 5.55544 27.6755 5.90466C27.8762 6.25382 27.7558 6.6996 27.4066 6.90028L24.7233 8.4495ZM21.876 4.87112C21.6738 5.22034 21.2267 5.33946 20.8775 5.1372C20.5283 4.93493 20.4092 4.48792 20.6115 4.1387L22.1241 1.51886C22.3263 1.1697 22.7733 1.05058 23.1226 1.25278C23.4718 1.45505 23.5909 1.90212 23.3886 2.25128L21.876 4.87112ZM25.6704 12.9017C25.2674 12.9017 24.9408 12.575 24.9408 12.1721C24.9408 11.7692 25.2675 11.4426 25.6704 11.4426H28.6956C29.0985 11.4426 29.4251 11.7692 29.4251 12.1721C29.4251 12.5751 29.0985 12.9017 28.6956 12.9017H25.6704Z" fill="#FD5BA6"/>
<path id="Vector_2" fill-rule="evenodd" clip-rule="evenodd" d="M10.5701 19.9297L6.98706 21.9983L10.345 27.8145C10.9139 28.7998 12.1855 29.1405 13.1709 28.5716C14.1562 28.0027 14.4969 26.7311 13.928 25.7458L10.5701 19.9297Z" fill="#2A93FC"/>
<path id="Vector_3" fill-rule="evenodd" clip-rule="evenodd" d="M10.5701 19.9297L8.14679 21.3287L11.5047 27.1449C11.9566 27.9275 12.8518 28.3034 13.6947 28.1398C14.2578 27.4916 14.3798 26.5284 13.928 25.7458L10.5701 19.9297Z" fill="#4EB1FC"/>
<path id="Vector_4" fill-rule="evenodd" clip-rule="evenodd" d="M14.0508 10.465L18.3434 7.98675C19.7067 7.1996 21.4662 7.67105 22.2533 9.03441C23.0404 10.3978 22.569 12.1572 21.2056 12.9443L16.9131 15.4226L14.0508 10.4651V10.465Z" fill="#FD5BA6"/>
<path id="Vector_5" fill-rule="evenodd" clip-rule="evenodd" d="M14.0508 10.4639L18.3434 7.98555C18.5753 7.85166 18.8187 7.75422 19.0669 7.69141L21.8221 12.4637C21.6436 12.6471 21.4376 12.8092 21.2057 12.9431L16.9131 15.4214L14.0508 10.4639Z" fill="#FF3C98"/>
<path id="Vector_6" fill-rule="evenodd" clip-rule="evenodd" d="M8.14878 11.8438L12.7673 19.8432L7.49915 22.8848C5.29936 24.1548 2.46026 23.3942 1.19018 21.1943C-0.079953 18.9944 0.68077 16.1554 2.88061 14.8853L8.14878 11.8438Z" fill="#FF3C98"/>
<path id="Vector_7" fill-rule="evenodd" clip-rule="evenodd" d="M8.14876 11.8438L12.0255 18.5584C11.8239 18.6571 11.6227 18.7636 11.422 18.8795L7.83903 20.9482C5.63925 22.2182 2.80021 21.4576 1.53007 19.2577C1.14493 18.5906 0.946885 17.8648 0.918701 17.1417C1.29188 16.2228 1.96015 15.4167 2.88054 14.8853L8.14876 11.8438Z" fill="#FD5BA6"/>
<path id="Vector_8" fill-rule="evenodd" clip-rule="evenodd" d="M15.5519 4.12879L23.1501 17.2892C23.4455 17.8009 23.4401 18.3895 23.1354 18.8956C22.8307 19.4019 22.3131 19.6821 21.7227 19.6605C18.596 19.5462 14.7537 18.6962 11.0822 20.816L6.46362 12.8164C10.1351 10.6967 11.3203 6.94422 12.7845 4.17924C13.0611 3.65711 13.5626 3.34902 14.1533 3.33818C14.7441 3.3274 15.2565 3.61709 15.5519 4.12879Z" fill="#FDC72E"/>
<path id="Vector_9" fill-rule="evenodd" clip-rule="evenodd" d="M15.5519 4.12867L23.1501 17.2891C23.1577 17.3024 23.1652 17.3158 23.1725 17.3292C22.8751 17.5983 22.4878 17.7393 22.0626 17.7238C18.9359 17.6093 15.0936 16.7595 11.4221 18.8792L10.3286 19.5106L6.46368 12.8164C10.1352 10.6966 11.3203 6.94416 12.7846 4.17924C13.0612 3.65705 13.5627 3.34896 14.1534 3.33818C14.7442 3.3274 15.2566 3.61703 15.552 4.12873L15.5519 4.12867Z" fill="#FCDB35"/>
</g>
</g>
</svg>
