<svg width="18" height="31" viewBox="0 0 18 31" fill="none" xmlns="http://www.w3.org/2000/svg">
<path d="M16.25 0.8125H1.75C1.36889 0.812963 1.00353 0.964562 0.734046 1.23405C0.464562 1.50353 0.312963 1.86889 0.3125 2.25V28.75C0.312963 29.1311 0.464562 29.4965 0.734046 29.766C1.00353 30.0354 1.36889 30.187 1.75 30.1875H16.25C16.6311 30.187 16.9965 30.0354 17.266 29.766C17.5354 29.4965 17.687 29.1311 17.6875 28.75V2.25C17.687 1.86889 17.5354 1.50353 17.266 1.23405C16.9965 0.964562 16.6311 0.812963 16.25 0.8125ZM12.0165 1.6875L11.8542 3.3125H6.14575L5.9835 1.6875H12.0165ZM16.8125 28.75C16.8123 28.8991 16.753 29.0421 16.6475 29.1475C16.5421 29.253 16.3991 29.3123 16.25 29.3125H1.75C1.60088 29.3123 1.45792 29.253 1.35247 29.1475C1.24703 29.0421 1.1877 28.8991 1.1875 28.75V2.25C1.1877 2.10088 1.24703 1.95792 1.35247 1.85247C1.45792 1.74703 1.60088 1.6877 1.75 1.6875H5.104L5.31475 3.7935C5.32554 3.90145 5.37605 4.00154 5.45647 4.07435C5.5369 4.14715 5.64151 4.18748 5.75 4.1875H12.25C12.3585 4.18748 12.4631 4.14715 12.5435 4.07435C12.624 4.00154 12.6745 3.90145 12.6852 3.7935L12.896 1.6875H16.25C16.3991 1.6877 16.5421 1.74703 16.6475 1.85247C16.753 1.95792 16.8123 2.10088 16.8125 2.25V28.75Z" fill="#26B5E2"/>
<path d="M10.419 26.8125H7.581C7.46497 26.8125 7.35369 26.8586 7.27164 26.9406C7.18959 27.0227 7.1435 27.134 7.1435 27.25C7.1435 27.366 7.18959 27.4773 7.27164 27.5594C7.35369 27.6414 7.46497 27.6875 7.581 27.6875H10.419C10.535 27.6875 10.6463 27.6414 10.7284 27.5594C10.8104 27.4773 10.8565 27.366 10.8565 27.25C10.8565 27.134 10.8104 27.0227 10.7284 26.9406C10.6463 26.8586 10.535 26.8125 10.419 26.8125Z" fill="#26B5E2"/>
</svg>
