<svg width="19" height="14" viewBox="0 0 19 14" fill="none" xmlns="http://www.w3.org/2000/svg">
<path d="M0.577488 6.41101L6.41082 0.577677C6.56799 0.425878 6.77849 0.341883 6.99699 0.343782C7.21549 0.34568 7.4245 0.433321 7.579 0.587828C7.73351 0.742335 7.82115 0.951345 7.82305 1.16984C7.82495 1.38834 7.74095 1.59884 7.58916 1.75601L3.17832 6.16684H17.8333C18.0543 6.16684 18.2663 6.25464 18.4226 6.41092C18.5789 6.5672 18.6667 6.77916 18.6667 7.00018C18.6667 7.22119 18.5789 7.43315 18.4226 7.58943C18.2663 7.74571 18.0543 7.83351 17.8333 7.83351H3.17832L7.58916 12.2443C7.66875 12.3212 7.73223 12.4132 7.77591 12.5148C7.81958 12.6165 7.84257 12.7259 7.84353 12.8365C7.84449 12.9472 7.82341 13.0569 7.78151 13.1593C7.73961 13.2617 7.67773 13.3548 7.59948 13.433C7.52124 13.5113 7.4282 13.5731 7.32578 13.615C7.22337 13.6569 7.11364 13.678 7.00299 13.6771C6.89234 13.6761 6.78299 13.6531 6.68132 13.6094C6.57965 13.5658 6.48769 13.5023 6.41082 13.4227L0.577488 7.58934C0.421263 7.43307 0.3335 7.22115 0.3335 7.00018C0.3335 6.77921 0.421263 6.56728 0.577488 6.41101Z" fill="white" fill-opacity="0.5"/>
</svg>
