<svg width="13" height="12" viewBox="0 0 13 12" fill="none" xmlns="http://www.w3.org/2000/svg">
<path fill-rule="evenodd" clip-rule="evenodd" d="M10.156 2.34437C10.7632 2.95063 11.21 3.69846 11.4562 4.52046C11.7023 5.34246 11.74 6.21278 11.5659 7.05299C11.3918 7.8932 11.0114 8.67688 10.4589 9.3334C9.90645 9.98993 9.19929 10.4987 8.40118 10.8137C7.60307 11.1288 6.7391 11.2404 5.88714 11.1383C5.03517 11.0362 4.222 10.7238 3.5209 10.2291C2.81981 9.73438 2.25283 9.073 1.87107 8.30455C1.48931 7.5361 1.30476 6.68473 1.33407 5.82718L1.34555 5.48179L0.655437 5.45882L0.643952 5.80351C0.600871 7.10547 0.993093 8.38463 1.75858 9.43867C2.52407 10.4927 3.61912 11.2614 4.87053 11.6233C6.12194 11.9851 7.45827 11.9194 8.66815 11.4366C9.87803 10.9537 10.8924 10.0813 11.5508 8.95721C12.2092 7.83317 12.474 6.5217 12.3034 5.23024C12.1328 3.93879 11.5365 2.74107 10.6089 1.82654C9.68119 0.912002 8.47508 0.33286 7.18132 0.180715C5.88757 0.02857 4.58001 0.312107 3.46548 0.986478C3.43619 1.00547 3.40209 1.01569 3.36719 1.01595C3.33229 1.0162 3.29804 1.00647 3.26848 0.987909C3.23893 0.969345 3.21529 0.94272 3.20036 0.911171C3.18543 0.879622 3.17984 0.844462 3.18423 0.809837L3.24204 0.353978L2.5568 0.267142L2.29657 2.31999L4.10126 2.54409L4.18622 1.85992L4.02567 1.83999V1.83956C3.9874 1.83488 3.95158 1.81825 3.9233 1.79204C3.89502 1.76583 3.87573 1.73136 3.86817 1.69355C3.86061 1.65575 3.86516 1.61652 3.88118 1.58144C3.89719 1.54637 3.92386 1.51724 3.95739 1.4982C4.94126 0.943094 6.07979 0.725307 7.19907 0.878101C8.31836 1.0309 9.35686 1.54587 10.1559 2.34437H10.156Z" fill="white"/>
</svg>
