<svg width="30" height="30" viewBox="0 0 30 30" fill="none" xmlns="http://www.w3.org/2000/svg">
<rect x="1" y="1" width="28" height="28" rx="14" fill="#021831"/>
<path d="M12.2656 10.8984L10.7031 8.55469L9.14062 10.8984L11.0938 12.2656L12.2656 10.8984Z" fill="#FBBC05"/>
<path d="M20.8594 10.8984L19.2969 8.55469L17.7344 10.8984L18.9062 12.4609L20.8594 10.8984Z" fill="#FBBC05"/>
<path d="M18.125 10.3115L17.7344 10.8975L18.9062 12.46L20.8594 10.8975L20.3834 10.1836C20.3834 10.1836 19.3939 11.3521 18.9062 11.2881C18.5572 11.2422 18.125 10.3115 18.125 10.3115Z" fill="#F4950C"/>
<path d="M11.875 10.3115L12.2656 10.8975L11.0938 12.46L9.14062 10.8975L9.6166 10.1836C9.6166 10.1836 10.6061 11.3521 11.0938 11.2881C11.4428 11.2422 11.875 10.3115 11.875 10.3115Z" fill="#F4950C"/>
<path d="M8.75 15.3906H21.25L23.7891 7.77344L18.9062 12.0703L15 6.21094L11.0938 12.0703L6.21094 7.77344L8.75 15.3906Z" fill="#FFE161"/>
<path d="M8.75 15.3906H21.25C21.6814 15.3906 22.0312 15.7404 22.0312 16.1719C22.0312 16.6033 21.6814 16.9531 21.25 16.9531H8.75C8.31855 16.9531 7.96875 16.6033 7.96875 16.1719C7.96875 15.7404 8.31855 15.3906 8.75 15.3906Z" fill="#FFE161"/>
<path d="M21.25 15.3906L23.7891 7.77344L18.9062 12.0703L15 6.21094L14.4824 6.9873C14.6244 7.11563 14.8086 7.18691 15 7.1875C15 7.1875 17.5391 11.4844 18.3203 12.6562C19.1016 13.8281 19.5039 14.2188 19.1074 15.3906H17.5391L19.8223 15.5104C20.1166 15.5598 20.3152 15.8383 20.2658 16.1326C20.2234 16.385 20.0102 16.573 19.7545 16.5832L10.5078 16.9531H21.2059C21.6547 16.9596 22.0238 16.601 22.0303 16.1521C22.0303 16.1463 22.0305 16.1402 22.0303 16.1344C22.0109 15.7178 21.6672 15.39 21.25 15.3906Z" fill="#FBBC05"/>
<path d="M6.21094 8.55469C6.64241 8.55469 6.99219 8.20491 6.99219 7.77344C6.99219 7.34197 6.64241 6.99219 6.21094 6.99219C5.77947 6.99219 5.42969 7.34197 5.42969 7.77344C5.42969 8.20491 5.77947 8.55469 6.21094 8.55469Z" fill="#FF1849"/>
<path d="M23.7891 8.55469C24.2205 8.55469 24.5703 8.20491 24.5703 7.77344C24.5703 7.34197 24.2205 6.99219 23.7891 6.99219C23.3576 6.99219 23.0078 7.34197 23.0078 7.77344C23.0078 8.20491 23.3576 8.55469 23.7891 8.55469Z" fill="#FF1849"/>
<path d="M15 6.99219C15.4315 6.99219 15.7812 6.64241 15.7812 6.21094C15.7812 5.77947 15.4315 5.42969 15 5.42969C14.5685 5.42969 14.2188 5.77947 14.2188 6.21094C14.2188 6.64241 14.5685 6.99219 15 6.99219Z" fill="#FF1849"/>
<path d="M10.7031 9.14062C11.0267 9.14062 11.2891 8.87829 11.2891 8.55469C11.2891 8.23108 11.0267 7.96875 10.7031 7.96875C10.3795 7.96875 10.1172 8.23108 10.1172 8.55469C10.1172 8.87829 10.3795 9.14062 10.7031 9.14062Z" fill="#E00E45"/>
<path d="M19.2969 9.14062C19.6205 9.14062 19.8828 8.87829 19.8828 8.55469C19.8828 8.23108 19.6205 7.96875 19.2969 7.96875C18.9733 7.96875 18.7109 8.23108 18.7109 8.55469C18.7109 8.87829 18.9733 9.14062 19.2969 9.14062Z" fill="#E00E45"/>
<path d="M14.5963 18.125H15.3775C15.5933 18.125 15.7681 18.2998 15.7681 18.5156V24.1797C15.7681 24.3955 15.5933 24.5703 15.3775 24.5703H14.5963C14.3804 24.5703 14.2056 24.3955 14.2056 24.1797V18.5156C14.2056 18.2998 14.3806 18.125 14.5963 18.125Z" fill="white"/>
<path d="M12.8773 18.6154L11.3789 24.2795C11.3336 24.4508 11.1785 24.5703 11.0013 24.5703H10.0402C9.86287 24.5703 9.70799 24.451 9.66268 24.2795L8.16424 18.6154C8.10916 18.4068 8.23338 18.1932 8.44197 18.1379C8.47459 18.1293 8.50819 18.125 8.54178 18.125H9.33319C9.51756 18.125 9.67694 18.2541 9.71522 18.4346L10.5209 22.2266L11.3262 18.4346C11.3644 18.2541 11.5238 18.125 11.7082 18.125H12.4996C12.7154 18.125 12.8902 18.2998 12.8902 18.5156C12.8904 18.5494 12.8859 18.583 12.8773 18.6154Z" fill="white"/>
<path d="M16.94 18.5156V24.1797C16.94 24.3955 17.1148 24.5703 17.3306 24.5703H18.1119C18.3277 24.5703 18.5025 24.3955 18.5025 24.1797V22.8125H19.505C20.7994 22.8125 21.8488 21.7631 21.8488 20.4688C21.8488 19.1744 20.7994 18.125 19.505 18.125H17.3306C17.115 18.125 16.94 18.2998 16.94 18.5156ZM19.4791 21.25H18.5025V19.6875H19.4791C19.9105 19.6875 20.2603 20.0373 20.2603 20.4688C20.2603 20.9002 19.9107 21.25 19.4791 21.25Z" fill="white"/>
<path d="M15.5468 19.8828C15.5468 20.8594 15.7422 23.7891 14.7656 23.9844C14.5644 24.0139 14.3603 23.9553 14.2056 23.8232V24.1797C14.2056 24.3955 14.3804 24.5703 14.5963 24.5703H15.3775C15.5933 24.5703 15.7681 24.3955 15.7681 24.1797V18.5156C15.7681 18.2998 15.5933 18.125 15.3775 18.125H15.1562C15.5468 18.125 15.5468 18.9062 15.5468 19.8828Z" fill="white"/>
<path d="M12.2526 19.4922C12.0572 20.4688 11.276 23.7891 10.4947 23.9844C10.1658 24.0789 9.81173 24.0137 9.5379 23.8084L9.66251 24.2795C9.70782 24.4508 9.8629 24.5703 10.0402 24.5703H11.0014C11.1787 24.5703 11.3336 24.451 11.3789 24.2795L12.8774 18.6154C12.9324 18.4068 12.8082 18.1932 12.5996 18.1379C12.567 18.1293 12.5334 18.125 12.4998 18.125H12.0574C12.4479 18.125 12.4479 18.5156 12.2526 19.4922Z" fill="white"/>
<path d="M19.4791 22.4227H18.5459C18.414 22.4232 18.3074 22.5299 18.3066 22.6617C18.3013 23.465 18.3072 23.9852 17.5 23.9852C17.3011 23.9908 17.1054 23.9346 16.94 23.824V24.1805C16.94 24.3963 17.1148 24.5711 17.3306 24.5711H18.1119C18.3277 24.5711 18.5025 24.3963 18.5025 24.1805V22.8133H19.505C20.7287 22.8129 21.7459 21.8705 21.8398 20.6504C21.3447 21.9023 20.2603 22.4227 19.4791 22.4227Z" fill="white"/>
<path d="M8.61975 15L8.75002 15.3906H21.25L21.3803 15H8.61975Z" fill="#FBBC05"/>
<rect x="1" y="1" width="28" height="28" rx="14" stroke="#FBB040" stroke-width="2"/>
</svg>
