<svg width="40" height="40" viewBox="0 0 40 40" fill="none" xmlns="http://www.w3.org/2000/svg">
<rect width="40" height="40" rx="20" fill="#E2FFE9"/>
<path d="M28.0303 19.4698L22.7803 14.2198C22.6388 14.0832 22.4493 14.0076 22.2527 14.0093C22.0561 14.011 21.8679 14.0899 21.7289 14.2289C21.5898 14.368 21.511 14.5561 21.5092 14.7528C21.5075 14.9494 21.5831 15.1389 21.7198 15.2803L25.6895 19.2501H12.5C12.3011 19.2501 12.1103 19.3291 11.9697 19.4697C11.829 19.6104 11.75 19.8011 11.75 20.0001C11.75 20.199 11.829 20.3897 11.9697 20.5304C12.1103 20.671 12.3011 20.7501 12.5 20.7501H25.6895L21.7198 24.7198C21.6481 24.789 21.591 24.8718 21.5517 24.9633C21.5124 25.0548 21.4917 25.1532 21.4908 25.2528C21.4899 25.3523 21.5089 25.4511 21.5466 25.5433C21.5843 25.6354 21.64 25.7192 21.7105 25.7896C21.7809 25.86 21.8646 25.9157 21.9568 25.9534C22.049 25.9911 22.1477 26.0101 22.2473 26.0093C22.3469 26.0084 22.4453 25.9877 22.5368 25.9484C22.6283 25.9091 22.7111 25.8519 22.7803 25.7803L28.0303 20.5303C28.1709 20.3897 28.2498 20.1989 28.2498 20.0001C28.2498 19.8012 28.1709 19.6105 28.0303 19.4698Z" fill="black"/>
</svg>
