<svg width="30" height="30" viewBox="0 0 30 30" fill="none" xmlns="http://www.w3.org/2000/svg">
<g id="bell 1" clip-path="url(#clip0_1006_7547)">
<g id="Group">
<path id="Vector" d="M26.7238 21.1413C24.8338 19.5438 23.75 17.2088 23.75 14.735V11.25C23.75 6.85125 20.4825 3.21 16.25 2.6V1.25C16.25 0.55875 15.69 0 15 0C14.31 0 13.75 0.55875 13.75 1.25V2.6C9.51625 3.21 6.25 6.85125 6.25 11.25V14.735C6.25 17.2088 5.16625 19.5438 3.265 21.1513C2.77875 21.5675 2.5 22.1725 2.5 22.8125C2.5 24.0188 3.48125 25 4.6875 25H25.3125C26.5188 25 27.5 24.0188 27.5 22.8125C27.5 22.1725 27.2213 21.5675 26.7238 21.1413Z" fill="url(#paint0_linear_1006_7547)"/>
<path id="Vector_2" d="M15 30C17.2637 30 19.1575 28.3863 19.5925 26.25H10.4075C10.8425 28.3863 12.7362 30 15 30Z" fill="url(#paint1_linear_1006_7547)"/>
</g>
</g>
<defs>
<linearGradient id="paint0_linear_1006_7547" x1="15" y1="0" x2="15" y2="25" gradientUnits="userSpaceOnUse">
<stop stop-color="#CC3B39"/>
<stop offset="1" stop-color="#FFDD54"/>
</linearGradient>
<linearGradient id="paint1_linear_1006_7547" x1="15" y1="26.25" x2="15" y2="30" gradientUnits="userSpaceOnUse">
<stop stop-color="#CC3B39"/>
<stop offset="1" stop-color="#FFDD54"/>
</linearGradient>
<clipPath id="clip0_1006_7547">
<rect width="30" height="30" fill="white"/>
</clipPath>
</defs>
</svg>
