<svg width="180" height="120" viewBox="0 0 180 120" fill="none" xmlns="http://www.w3.org/2000/svg">
<rect width="180" height="120" rx="10" fill="url(#paint0_radial_1018_3430)"/>
<g clip-path="url(#clip0_1018_3430)">
<g filter="url(#filter0_d_1018_3430)">
<path d="M89.7096 36.4133C90.3896 36.3566 91.013 36.1158 91.6364 35.8466C92.6139 35.4216 93.4922 34.8691 94.2714 34.1607C96.0565 32.5315 97.0907 30.5339 97.4165 28.1397C97.629 26.553 97.459 25.023 96.779 23.5779C95.929 21.7504 94.5123 20.617 92.5714 20.0786C92.5147 20.0645 92.4722 20.0361 92.4155 20.0078C94.1581 20.2487 95.759 20.8437 97.2465 21.7787C98.1674 22.3595 99.0174 22.9971 99.7541 23.7904C100.902 25.023 101.681 26.468 101.978 28.1539C102.262 29.6981 102.29 31.2281 101.766 32.7298C101.171 34.4724 100.08 35.8324 98.5782 36.9233C97.6432 37.6033 96.5948 38.0142 95.4756 38.4675C96.4673 38.7367 97.3599 39.0484 98.1957 39.5017C101.043 41.0459 103.069 43.2843 104.033 46.4011C104.642 48.3703 104.599 50.382 104.174 52.4079C103.848 53.9663 103.211 55.3972 102.304 56.7005C100.505 59.2931 98.0257 60.7381 94.8948 61.0923C94.6823 61.1207 94.4839 61.0923 94.2714 61.1065C94.4131 60.7948 94.6823 60.9648 94.8948 60.9506C95.2065 60.9365 95.3198 60.8515 95.1498 60.554C95.0648 60.4123 95.0506 60.2848 95.1923 60.1573C95.3198 60.0298 95.4473 60.044 95.589 60.1573C95.6315 60.1998 95.6881 60.214 95.7448 60.2281C96.3115 60.469 96.2123 60.4406 96.354 59.8739C96.5665 59.0239 96.0706 58.4431 95.7448 57.7914C95.3198 56.8989 94.8806 56.0205 94.4698 55.1138C94.2998 54.7455 94.3281 54.3346 94.4414 53.9379C94.8239 53.4846 95.2631 53.0879 95.5465 52.5496C96.7082 50.2828 96.5948 47.9453 95.7873 45.636C94.9939 43.3835 93.3931 41.7401 91.4663 40.3801C89.738 39.1475 87.8396 38.2125 85.9979 37.1783C85.7853 37.065 85.5445 36.9941 85.3887 36.7391C86.8479 36.6683 88.2788 36.81 89.6671 36.4416C89.6671 36.4416 89.6955 36.4416 89.7096 36.4416V36.4133Z" fill="url(#paint1_linear_1018_3430)"/>
<path d="M90.1204 36.256C89.9787 36.2985 89.8371 36.3552 89.7096 36.4118C90.3896 36.3552 91.0129 36.1143 91.6363 35.8452C92.6138 35.4202 93.4922 34.8676 94.2714 34.1593C96.0564 32.5301 97.0906 30.5325 97.4165 28.1383C97.629 26.5516 97.459 25.0215 96.7789 23.5765C95.9289 21.7489 94.5122 20.6156 92.5713 20.0772C92.5147 20.063 92.4722 20.0347 92.4155 20.0064C90.6446 19.6522 88.8737 19.6805 87.1028 19.9214C85.2894 20.1622 83.5752 20.7431 81.9744 21.6073C80.5293 22.3864 79.1409 23.2648 78.1351 24.6248C76.0525 27.4158 75.5992 30.6742 75.5142 34.0318C75.5 34.1168 75.5 34.2159 75.5 34.301C75.5 39.6561 75.5 45.0113 75.5 50.3664C75.5 51.0464 75.5 51.7264 75.5992 52.4065C75.6558 54.6024 75.8825 56.7983 76.4209 58.9375C76.7184 60.0992 77.1575 61.2042 77.8092 62.2243C79.1126 64.2501 81.0818 65.3552 83.2352 66.2194C83.4477 66.3044 83.5044 66.2477 83.4902 66.0352C83.4902 65.8652 83.4902 65.7094 83.4902 65.5394C83.4619 62.6493 83.4336 59.7592 83.4052 56.8691C83.4052 56.7274 83.3486 56.5574 83.5044 56.3874C86.3378 59.7308 89.8796 61.3742 94.2714 61.0625C94.413 60.7509 94.6822 60.9209 94.8947 60.9067C95.2064 60.8925 95.3197 60.8075 95.1497 60.51C95.0647 60.3684 95.0506 60.2409 95.1922 60.1134C95.3197 59.9859 95.4472 60 95.5889 60.1134C95.6314 60.1559 95.6881 60.17 95.7447 60.1842C96.3114 60.425 96.2123 60.3967 96.3539 59.83C96.5664 58.98 96.0706 58.3991 95.7447 57.7475C95.3197 56.8549 94.8806 55.9766 94.4697 55.0699C94.2997 54.7015 94.328 54.2907 94.4414 53.894C91.9196 55.9482 88.3779 55.1832 86.0403 52.8173C84.7086 51.4714 84.0286 49.8422 83.7311 48.0005C83.3627 45.6913 83.3911 43.3679 83.4052 41.0445C83.4194 38.3102 83.3486 35.5618 83.4761 32.8276C83.5469 31.34 83.6886 29.8667 84.3828 28.5491C85.1053 27.2032 86.2386 26.2257 87.7829 25.914C89.6104 25.5315 91.3105 25.829 92.798 27.0049C95.2064 28.9033 95.2489 32.6151 92.9113 34.726C92.1038 35.4485 91.1688 35.9443 90.1204 36.2418V36.256Z" fill="url(#paint2_linear_1018_3430)"/>
</g>
</g>
<g filter="url(#filter1_d_1018_3430)">
<path d="M70.9178 92.264C72.7898 92.864 73.9898 94.304 73.9898 96.416C73.9898 99.32 71.6858 101 67.2698 101H58.5818V84.2H66.7898C70.9898 84.2 73.1498 85.952 73.1498 88.568C73.1498 90.248 72.2858 91.544 70.9178 92.264ZM66.3098 87.128H62.4458V91.088H66.3098C68.2058 91.088 69.2378 90.416 69.2378 89.096C69.2378 87.776 68.2058 87.128 66.3098 87.128ZM66.9818 98.072C68.9978 98.072 70.0778 97.448 70.0778 96.008C70.0778 94.592 68.9978 93.92 66.9818 93.92H62.4458V98.072H66.9818ZM80.7974 97.88H89.9414V101H76.9334V84.2H89.6294V87.32H80.7974V90.968H88.5974V93.992H80.7974V97.88ZM96.515 101V87.368H91.139V84.2H105.779V87.368H100.403V101H96.515ZM119.579 101L118.091 97.4H110.291L108.803 101H104.819L112.307 84.2H116.147L123.659 101H119.579ZM111.539 94.448H116.867L114.203 88.016L111.539 94.448Z" fill="white"/>
</g>
<rect x="1" y="1" width="178" height="118" rx="9" stroke="white" stroke-opacity="0.2" stroke-width="2"/>
<defs>
<filter id="filter0_d_1018_3430" x="71.5" y="19.7383" width="37" height="54.5254" filterUnits="userSpaceOnUse" color-interpolation-filters="sRGB">
<feFlood flood-opacity="0" result="BackgroundImageFix"/>
<feColorMatrix in="SourceAlpha" type="matrix" values="0 0 0 0 0 0 0 0 0 0 0 0 0 0 0 0 0 0 127 0" result="hardAlpha"/>
<feOffset dy="4"/>
<feGaussianBlur stdDeviation="2"/>
<feComposite in2="hardAlpha" operator="out"/>
<feColorMatrix type="matrix" values="0 0 0 0 0 0 0 0 0 0 0 0 0 0 0 0 0 0 0.25 0"/>
<feBlend mode="normal" in2="BackgroundImageFix" result="effect1_dropShadow_1018_3430"/>
<feBlend mode="normal" in="SourceGraphic" in2="effect1_dropShadow_1018_3430" result="shape"/>
</filter>
<filter id="filter1_d_1018_3430" x="54.582" y="82.1992" width="73.0771" height="24.8008" filterUnits="userSpaceOnUse" color-interpolation-filters="sRGB">
<feFlood flood-opacity="0" result="BackgroundImageFix"/>
<feColorMatrix in="SourceAlpha" type="matrix" values="0 0 0 0 0 0 0 0 0 0 0 0 0 0 0 0 0 0 127 0" result="hardAlpha"/>
<feOffset dy="2"/>
<feGaussianBlur stdDeviation="2"/>
<feComposite in2="hardAlpha" operator="out"/>
<feColorMatrix type="matrix" values="0 0 0 0 0 0 0 0 0 0 0 0 0 0 0 0 0 0 0.25 0"/>
<feBlend mode="normal" in2="BackgroundImageFix" result="effect1_dropShadow_1018_3430"/>
<feBlend mode="normal" in="SourceGraphic" in2="effect1_dropShadow_1018_3430" result="shape"/>
</filter>
<radialGradient id="paint0_radial_1018_3430" cx="0" cy="0" r="1" gradientUnits="userSpaceOnUse" gradientTransform="translate(90 60) rotate(90) scale(60 90)">
<stop stop-color="#2DE075"/>
<stop offset="1" stop-color="#0D9132"/>
</radialGradient>
<linearGradient id="paint1_linear_1018_3430" x1="94.9373" y1="61.0782" x2="94.9373" y2="20.0078" gradientUnits="userSpaceOnUse">
<stop offset="0.29" stop-color="#ED2024"/>
<stop offset="0.567708" stop-color="#F9E214"/>
</linearGradient>
<linearGradient id="paint2_linear_1018_3430" x1="75.4575" y1="62.6918" x2="97.9831" y2="23.6615" gradientUnits="userSpaceOnUse">
<stop stop-color="#FFF626"/>
<stop offset="0.223958" stop-color="#ED2125"/>
<stop offset="0.520833" stop-color="#ED2125"/>
<stop offset="0.6875" stop-color="#ECC024"/>
<stop offset="0.833333" stop-color="#D22026"/>
<stop offset="1" stop-color="#C44044"/>
</linearGradient>
<clipPath id="clip0_1018_3430">
<rect width="70" height="60" fill="white" transform="translate(55 13)"/>
</clipPath>
</defs>
</svg>
