<svg width="30" height="30" viewBox="0 0 30 30" fill="none" xmlns="http://www.w3.org/2000/svg">
<g id="check-bill 1">
<g id="Group">
<path id="Vector" fill-rule="evenodd" clip-rule="evenodd" d="M2.8125 5.625C2.8125 4.0717 4.0717 2.8125 5.625 2.8125H24.375C25.9284 2.8125 27.1875 4.07171 27.1875 5.625V24.375C27.1875 25.9284 25.9284 27.1875 24.375 27.1875H5.625C4.07171 27.1875 2.8125 25.9284 2.8125 24.375V5.625ZM5.625 4.6875C5.10724 4.6875 4.6875 5.10724 4.6875 5.625V24.375C4.6875 24.8927 5.10722 25.3125 5.625 25.3125H24.375C24.8927 25.3125 25.3125 24.8927 25.3125 24.375V5.625C25.3125 5.10722 24.8927 4.6875 24.375 4.6875H5.625Z" fill="white"/>
<path id="Vector_2" fill-rule="evenodd" clip-rule="evenodd" d="M21.8356 14.893C22.24 15.2164 22.3055 15.8064 21.9821 16.2106L16.9821 22.4606C16.6586 22.865 16.0687 22.9305 15.6644 22.6071L12.5394 20.1071C12.1351 19.7836 12.0695 19.1937 12.393 18.7894C12.7164 18.3851 13.3064 18.3195 13.7106 18.643L16.1036 20.5574L20.518 15.0394C20.8414 14.6351 21.4314 14.5695 21.8356 14.893Z" fill="white"/>
<path id="Vector_3" fill-rule="evenodd" clip-rule="evenodd" d="M7.8125 9.375C7.8125 8.85724 8.23224 8.4375 8.75 8.4375H21.25C21.7678 8.4375 22.1875 8.85724 22.1875 9.375C22.1875 9.89276 21.7678 10.3125 21.25 10.3125H8.75C8.23224 10.3125 7.8125 9.89276 7.8125 9.375Z" fill="white"/>
<path id="Vector_4" fill-rule="evenodd" clip-rule="evenodd" d="M7.8125 14.375C7.8125 13.8572 8.23224 13.4375 8.75 13.4375H13.75C14.2677 13.4375 14.6875 13.8572 14.6875 14.375C14.6875 14.8928 14.2677 15.3125 13.75 15.3125H8.75C8.23224 15.3125 7.8125 14.8928 7.8125 14.375Z" fill="white"/>
</g>
</g>
</svg>
