<svg width="20" height="22" viewBox="0 0 20 22" fill="none" xmlns="http://www.w3.org/2000/svg">
<g id="calendar 1">
<g id="Group">
<path id="Vector" d="M16.2837 2.31445H18.6478C19.3098 2.31445 19.8478 2.8525 19.8478 3.51445V6.07097V6.07424V19.6721C19.8478 20.334 19.3098 20.8721 18.6478 20.8721H16.9717H15.2044H13.6294H12.5794H1.35544C0.693485 20.8721 0.155441 20.334 0.155441 19.6721V6.07424V6.07097V3.51445C0.155441 2.85576 0.693485 2.31445 1.35544 2.31445H3.71957" fill="#F2F2F2"/>
<g id="Group_2">
<path id="Vector_2" d="M2.15761 12.2832H4.86087V14.693H2.15761V12.2832Z" fill="#FFBE18"/>
<g id="Group_3">
<path id="Vector_3" d="M6.48479 12.2832H9.18805V14.693H6.48479V12.2832Z" fill="#CDD6E0"/>
<path id="Vector_4" d="M10.8152 12.2832H13.5185V14.693H10.8152V12.2832Z" fill="#CDD6E0"/>
<path id="Vector_5" d="M10.8152 16.1855H13.5185V18.5953H10.8152V16.1855Z" fill="#CDD6E0"/>
<path id="Vector_6" d="M15.1424 12.2832H17.8457V14.693H15.1424V12.2832Z" fill="#CDD6E0"/>
</g>
<path id="Vector_7" d="M2.15761 16.1875H4.86087V18.5973H2.15761V16.1875Z" fill="#FFBE18"/>
<g id="Group_4">
<path id="Vector_8" d="M6.48479 16.1875H9.18805V18.5973H6.48479V16.1875Z" fill="#CDD6E0"/>
<path id="Vector_9" d="M6.48479 8.38086H9.18805V10.7906H6.48479V8.38086Z" fill="#CDD6E0"/>
<path id="Vector_10" d="M10.8152 8.38086H13.5185V10.7906H10.8152V8.38086Z" fill="#CDD6E0"/>
<path id="Vector_11" d="M15.1424 8.38086H17.8457V10.7906H15.1424V8.38086Z" fill="#CDD6E0"/>
</g>
</g>
<path id="Vector_12" d="M19.8478 6.53859H0.152176V3.5875C0.152176 2.88315 0.722828 2.3125 1.42718 2.3125H18.5728C19.2772 2.3125 19.8478 2.88315 19.8478 3.5875V6.53859Z" fill="#DD2F36"/>
<g id="Group_5">
<path id="Vector_13" d="M4.49565 5.20831C5.21602 5.20831 5.8 4.62433 5.8 3.90396C5.8 3.18359 5.21602 2.59961 4.49565 2.59961C3.77528 2.59961 3.1913 3.18359 3.1913 3.90396C3.1913 4.62433 3.77528 5.20831 4.49565 5.20831Z" fill="#F15440"/>
<path id="Vector_14" d="M5.59455 3.9036C5.59455 4.51012 5.10216 5.00251 4.49564 5.00251C3.88912 5.00251 3.39673 4.51012 3.39673 3.9036C3.39673 3.29708 3.88912 2.80469 4.49564 2.80469C5.10216 2.80469 5.59455 3.29708 5.59455 3.9036Z" fill="#F4F4F4"/>
</g>
<g id="Group_6">
<path id="Vector_15" d="M15.5076 5.20831C16.228 5.20831 16.812 4.62433 16.812 3.90396C16.812 3.18359 16.228 2.59961 15.5076 2.59961C14.7872 2.59961 14.2033 3.18359 14.2033 3.90396C14.2033 4.62433 14.7872 5.20831 15.5076 5.20831Z" fill="#F15440"/>
<path id="Vector_16" d="M16.6065 3.9036C16.6065 4.51012 16.1141 5.00251 15.5076 5.00251C14.9011 5.00251 14.4087 4.51012 14.4087 3.9036C14.4087 3.29708 14.9011 2.80469 15.5076 2.80469C16.1141 2.80469 16.6065 3.29708 16.6065 3.9036Z" fill="#F4F4F4"/>
</g>
<g id="Group_7">
<path id="Vector_17" d="M4.49566 4.00435C4.06849 4.00435 3.71957 3.65544 3.71957 3.22826V0.776087C3.71957 0.348913 4.06849 0 4.49566 0C4.92283 0 5.27175 0.348913 5.27175 0.776087V3.22826C5.27175 3.6587 4.92283 4.00435 4.49566 4.00435Z" fill="#FBB040"/>
<path id="Vector_18" d="M15.5076 4.22896C15.0804 4.22896 14.7315 3.88005 14.7315 3.45287V1.0007C14.7315 0.573522 15.0804 0.224609 15.5076 0.224609C15.9348 0.224609 16.2837 0.573522 16.2837 1.0007V3.45287C16.2837 3.88331 15.9348 4.22896 15.5076 4.22896Z" fill="#FBB040"/>
</g>
</g>
</g>
</svg>
