<svg width="31" height="30" viewBox="0 0 31 30" fill="none" xmlns="http://www.w3.org/2000/svg">
<g id="clock 1" clip-path="url(#clip0_1018_112)">
<g id="Group">
<path id="Vector" d="M15.5 30C23.7843 30 30.5 23.2843 30.5 15C30.5 6.71573 23.7843 0 15.5 0C7.21573 0 0.5 6.71573 0.5 15C0.5 23.2843 7.21573 30 15.5 30Z" fill="#EAB14D"/>
<path id="Vector_2" d="M15.4998 0C15.2321 0 14.966 0.00732422 14.7017 0.0211523C22.6149 0.436113 28.9036 6.9835 28.9036 15C28.9036 23.0165 22.6149 29.5639 14.7017 29.9788C14.966 29.9927 15.2321 30 15.4998 30C23.7841 30 30.4998 23.2843 30.4998 15C30.4998 6.71572 23.7841 0 15.4998 0Z" fill="#E49542"/>
<path id="Vector_3" d="M15.5002 26.6879C21.9557 26.6879 27.1889 21.4547 27.1889 14.9992C27.1889 8.54375 21.9557 3.31055 15.5002 3.31055C9.04473 3.31055 3.81152 8.54375 3.81152 14.9992C3.81152 21.4547 9.04473 26.6879 15.5002 26.6879Z" fill="#F4FBFF"/>
<path id="Vector_4" d="M15.4998 3.31055C15.1761 3.31055 14.8556 3.32432 14.5386 3.3501C20.5444 3.839 25.2661 8.86746 25.2661 14.9992C25.2661 21.131 20.5444 26.1594 14.5386 26.6484C14.8556 26.6742 15.1761 26.688 15.4998 26.688C21.9553 26.688 27.1885 21.4547 27.1885 14.9993C27.1885 8.54385 21.9553 3.31055 15.4998 3.31055Z" fill="#DAF1F4"/>
<g id="Group_2">
<g id="Group_3">
<path id="Vector_5" d="M15.5001 6.90969C15.25 6.90969 15.0474 6.70701 15.0474 6.45699V5.79254C15.0474 5.54252 15.25 5.33984 15.5001 5.33984C15.7501 5.33984 15.9528 5.54252 15.9528 5.79254V6.45699C15.9528 6.70701 15.7501 6.90969 15.5001 6.90969Z" fill="#2B4D66"/>
</g>
<g id="Group_4">
<path id="Vector_6" d="M21.5167 9.42214C21.4008 9.42214 21.285 9.3779 21.1965 9.28954C21.0198 9.1127 21.0198 8.82612 21.1966 8.64929L21.6665 8.17948C21.8432 8.00264 22.1299 8.0027 22.3067 8.17948C22.4835 8.35632 22.4835 8.6429 22.3067 8.81973L21.8368 9.2896C21.7484 9.3779 21.6325 9.42214 21.5167 9.42214Z" fill="#2B4D66"/>
</g>
<g id="Group_5">
<path id="Vector_7" d="M24.6591 15.4542H23.9947C23.7446 15.4542 23.542 15.2515 23.542 15.0015C23.542 14.7515 23.7447 14.5488 23.9947 14.5488H24.6591C24.9092 14.5488 25.1118 14.7515 25.1118 15.0015C25.1118 15.2515 24.9092 15.4542 24.6591 15.4542Z" fill="#2B4D66"/>
</g>
<g id="Group_6">
<path id="Vector_8" d="M21.9518 21.9397C21.836 21.9397 21.7201 21.8955 21.6317 21.8071L21.1619 21.3373C20.9851 21.1605 20.9851 20.8739 21.1619 20.697C21.3387 20.5203 21.6253 20.5203 21.8022 20.697L22.272 21.1668C22.4488 21.3436 22.4488 21.6302 22.272 21.8071C22.1836 21.8955 22.0677 21.9397 21.9518 21.9397Z" fill="#2B4D66"/>
</g>
<g id="Group_7">
<path id="Vector_9" d="M15.4507 24.6128C15.2007 24.6128 14.998 24.4101 14.998 24.1601V23.4957C14.998 23.2456 15.2007 23.043 15.4507 23.043C15.7008 23.043 15.9034 23.2456 15.9034 23.4957V24.1601C15.9034 24.4101 15.7008 24.6128 15.4507 24.6128Z" fill="#2B4D66"/>
</g>
<g id="Group_8">
<path id="Vector_10" d="M8.96393 21.9046C8.84809 21.9046 8.73219 21.8603 8.64384 21.7719C8.467 21.5951 8.46706 21.3085 8.64384 21.1317L9.1137 20.6619C9.29053 20.4851 9.57712 20.4851 9.75395 20.6619C9.93073 20.8387 9.93073 21.1253 9.75389 21.3022L9.28403 21.772C9.19567 21.8604 9.07977 21.9046 8.96393 21.9046Z" fill="#2B4D66"/>
</g>
<g id="Group_9">
<path id="Vector_11" d="M6.95602 15.4034H6.29156C6.04154 15.4034 5.83887 15.2008 5.83887 14.9507C5.83887 14.7007 6.04154 14.498 6.29156 14.498H6.95602C7.20604 14.498 7.40871 14.7007 7.40871 14.9507C7.40877 15.2008 7.20604 15.4034 6.95602 15.4034Z" fill="#2B4D66"/>
</g>
<g id="Group_10">
<path id="Vector_12" d="M9.46896 9.38699C9.35312 9.38699 9.23728 9.34281 9.14886 9.25439L8.679 8.78458C8.50222 8.60775 8.50216 8.32117 8.67894 8.14433C8.85578 7.96755 9.14236 7.9675 9.31919 8.14427L9.78906 8.61414C9.96583 8.79091 9.96589 9.07755 9.78912 9.25439C9.70064 9.34275 9.5848 9.38699 9.46896 9.38699Z" fill="#2B4D66"/>
</g>
</g>
<g id="Group_11">
<path id="Vector_13" d="M15.4998 15.4537H11.6548C11.4048 15.4537 11.2021 15.2509 11.2021 15.0009C11.2021 14.7509 11.4048 14.5482 11.6548 14.5482H15.047V8.78863C15.047 8.53861 15.2497 8.33594 15.4997 8.33594C15.7497 8.33594 15.9524 8.53861 15.9524 8.78863V15.0009C15.9525 15.2509 15.7498 15.4537 15.4998 15.4537Z" fill="#2B4D66"/>
</g>
<g id="Group_12">
<path id="Vector_14" d="M20.1446 17.841C20.0749 17.841 20.0043 17.8249 19.938 17.7908L15.2931 15.4023C15.0708 15.288 14.9832 15.015 15.0976 14.7927C15.2119 14.5703 15.4848 14.4827 15.7072 14.5971L20.3521 16.9856C20.5744 17.0999 20.662 17.3729 20.5477 17.5952C20.4673 17.7513 20.3089 17.841 20.1446 17.841Z" fill="#DA4A54"/>
</g>
<path id="Vector_15" d="M15.4998 16.2077C16.1672 16.2077 16.7081 15.6667 16.7081 14.9993C16.7081 14.332 16.1672 13.791 15.4998 13.791C14.8325 13.791 14.2915 14.332 14.2915 14.9993C14.2915 15.6667 14.8325 16.2077 15.4998 16.2077Z" fill="#365E7D"/>
</g>
</g>
<defs>
<clipPath id="clip0_1018_112">
<rect width="30" height="30" fill="white" transform="translate(0.5)"/>
</clipPath>
</defs>
</svg>
