<svg width="24" height="24" viewBox="0 0 24 24" fill="none" xmlns="http://www.w3.org/2000/svg">
<g id="coins 1">
<path id="path542" fill-rule="evenodd" clip-rule="evenodd" d="M15.3541 2.89648C13.8227 2.89648 12.4676 3.24053 11.6257 3.75084C10.9281 4.17394 10.5625 4.72834 10.5625 5.29232V7.68815C10.5625 7.95265 10.7771 8.16732 11.0416 8.16732C11.3061 8.16732 11.5208 7.95265 11.5208 7.68815V6.76719C11.5553 6.78971 11.5893 6.81176 11.6257 6.8338C12.4676 7.34411 13.8227 7.68815 15.3541 7.68815C16.8855 7.68815 18.2406 7.34411 19.0825 6.8338C19.1189 6.81176 19.153 6.78971 19.1875 6.76719V8.16732C19.1875 8.45051 18.9359 8.67763 18.5856 8.8899C17.8573 9.33121 16.679 9.60482 15.3541 9.60482C15.0412 9.60482 14.7365 9.58901 14.4437 9.55978C14.1806 9.53294 13.9463 9.72557 13.9195 9.98863C13.8931 10.2517 14.0843 10.4865 14.3479 10.5133C14.6713 10.5459 15.0082 10.5632 15.3541 10.5632C16.8855 10.5632 18.2406 10.2191 19.0825 9.7088C19.1189 9.68676 19.153 9.66471 19.1875 9.64219V11.0423C19.1875 11.3255 18.9359 11.5526 18.5856 11.7649C17.8573 12.2062 16.679 12.4798 15.3541 12.4798C15.0412 12.4798 14.7365 12.464 14.4437 12.4348C14.1806 12.4079 13.9463 12.6006 13.9195 12.8636C13.8931 13.1267 14.0843 13.3615 14.3479 13.3883C14.6713 13.4209 15.0082 13.4382 15.3541 13.4382C16.8855 13.4382 18.2406 13.0941 19.0825 12.5838C19.1189 12.5618 19.153 12.5397 19.1875 12.5172V13.9173C19.1875 14.2005 18.9359 14.4276 18.5856 14.6399C17.8573 15.0812 16.679 15.3548 15.3541 15.3548C15.0412 15.3548 14.7365 15.339 14.4437 15.3098C14.1806 15.2829 13.9463 15.4756 13.9195 15.7386C13.8931 16.0017 14.0843 16.2365 14.3479 16.2633C14.6713 16.2959 15.0082 16.3132 15.3541 16.3132C16.8855 16.3132 18.2406 15.9691 19.0825 15.4588C19.1189 15.4368 19.153 15.4147 19.1875 15.3922V16.7923C19.1875 17.0755 18.9359 17.3026 18.5856 17.5149C17.8573 17.9562 16.679 18.2298 15.3541 18.2298C15.0412 18.2298 14.7365 18.214 14.4437 18.1848C14.1806 18.1579 13.9463 18.3506 13.9195 18.6136C13.8931 18.8767 14.0843 19.1115 14.3479 19.1383C14.6713 19.1709 15.0082 19.1882 15.3541 19.1882C16.8855 19.1882 18.2406 18.8441 19.0825 18.3338C19.1189 18.3118 19.153 18.2897 19.1875 18.2672V19.6673C19.1875 19.9505 18.9359 20.1776 18.5856 20.3899C17.8573 20.8312 16.679 21.1048 15.3541 21.1048C14.8764 21.1048 14.4169 21.0679 13.9904 21.0008C13.7293 20.9596 13.4844 21.1388 13.4432 21.4005C13.402 21.6616 13.5812 21.9069 13.8428 21.9482C14.3158 22.0224 14.8242 22.0632 15.3541 22.0632C16.8855 22.0632 18.2406 21.7191 19.0825 21.2088C19.7802 20.7857 20.1458 20.2313 20.1458 19.6673V5.29232C20.1458 4.72834 19.7802 4.17394 19.0825 3.75084C18.2406 3.24053 16.8855 2.89648 15.3541 2.89648ZM15.3541 3.85482C16.679 3.85482 17.8573 4.12842 18.5856 4.56973C18.9359 4.78201 19.1875 5.00913 19.1875 5.29232C19.1875 5.57551 18.9359 5.80263 18.5856 6.0149C17.8573 6.45621 16.679 6.72982 15.3541 6.72982C14.0292 6.72982 12.851 6.45621 12.1226 6.0149C11.7724 5.80263 11.5208 5.57551 11.5208 5.29232C11.5208 5.00913 11.7724 4.78201 12.1226 4.56973C12.851 4.12842 14.0292 3.85482 15.3541 3.85482ZM8.64579 8.64648C7.11438 8.64648 5.75929 8.99053 4.9174 9.50084C4.21973 9.92394 3.85413 10.4783 3.85413 11.0423V19.6673C3.85413 20.2313 4.21973 20.7857 4.9174 21.2088C5.75929 21.7191 7.11438 22.0632 8.64579 22.0632C10.1772 22.0632 11.5323 21.7191 12.3742 21.2088C13.0719 20.7857 13.4375 20.2313 13.4375 19.6673V11.0423C13.4375 10.4783 13.0719 9.92394 12.3742 9.50084C11.5323 8.99053 10.1772 8.64648 8.64579 8.64648ZM8.64579 9.60482C9.97069 9.60482 11.149 9.87842 11.8773 10.3197C12.2276 10.532 12.4791 10.7591 12.4791 11.0423C12.4791 11.3255 12.2276 11.5526 11.8773 11.7649C11.149 12.2062 9.97069 12.4798 8.64579 12.4798C7.3209 12.4798 6.14263 12.2062 5.41429 11.7649C5.06402 11.5526 4.81246 11.3255 4.81246 11.0423C4.81246 10.7591 5.06402 10.532 5.41429 10.3197C6.14263 9.87842 7.3209 9.60482 8.64579 9.60482ZM4.81246 12.5172C4.84696 12.5397 4.88098 12.5618 4.9174 12.5838C5.75929 13.0941 7.11438 13.4382 8.64579 13.4382C10.1772 13.4382 11.5323 13.0941 12.3742 12.5838C12.4106 12.5618 12.4446 12.5397 12.4791 12.5172V13.9173C12.4791 14.2005 12.2276 14.4276 11.8773 14.6399C11.149 15.0812 9.97069 15.3548 8.64579 15.3548C7.3209 15.3548 6.14263 15.0812 5.41429 14.6399C5.06402 14.4276 4.81246 14.2005 4.81246 13.9173V12.5172ZM4.81246 15.3922C4.84696 15.4147 4.88098 15.4368 4.9174 15.4588C5.75929 15.9691 7.11438 16.3132 8.64579 16.3132C10.1772 16.3132 11.5323 15.9691 12.3742 15.4588C12.4106 15.4368 12.4446 15.4147 12.4791 15.3922V16.7923C12.4791 17.0755 12.2276 17.3026 11.8773 17.5149C11.149 17.9562 9.97069 18.2298 8.64579 18.2298C7.3209 18.2298 6.14263 17.9562 5.41429 17.5149C5.06402 17.3026 4.81246 17.0755 4.81246 16.7923V15.3922ZM4.81246 18.2672C4.84696 18.2897 4.88098 18.3118 4.9174 18.3338C5.75929 18.8441 7.11438 19.1882 8.64579 19.1882C10.1772 19.1882 11.5323 18.8441 12.3742 18.3338C12.4106 18.3118 12.4446 18.2897 12.4791 18.2672V19.6673C12.4791 19.9505 12.2276 20.1776 11.8773 20.3899C11.149 20.8312 9.97069 21.1048 8.64579 21.1048C7.3209 21.1048 6.14263 20.8312 5.41429 20.3899C5.06402 20.1776 4.81246 19.9505 4.81246 19.6673V18.2672Z" fill="#41BCD7"/>
</g>
</svg>
