<svg width="172" height="89" viewBox="0 0 172 89" fill="none" xmlns="http://www.w3.org/2000/svg">
<g id="Logo" filter="url(#filter0_d_876_7)">
<path id="Vector" d="M140.001 20.7441V24.7439H145.206L129.996 39.9542L123.991 33.9489L111.98 45.9594L114.786 48.7649L123.991 39.5598L129.996 45.5651L148 27.5606V32.7659H152V20.7441H139.99H140.001Z" fill="#ED1C24"/>
<path id="Vector_2" d="M36.8639 43.6269C35.8386 44.2353 34.6556 44.5282 33.3148 44.5282C31.8727 44.5282 30.5995 44.1902 29.4728 43.5142C28.3574 42.8382 27.4786 41.8805 26.8589 40.6411C26.2392 39.4018 25.9238 37.9709 25.9238 36.3372C25.9238 34.7035 26.2392 33.2501 26.8589 32.022C27.4899 30.7939 28.3574 29.8475 29.4728 29.1715C30.5995 28.5067 31.8727 28.1574 33.3148 28.1574C34.6556 28.1574 35.8499 28.4504 36.8639 29.0475C37.8892 29.6334 38.6891 30.5235 39.2525 31.6952H44.9535C44.131 29.194 42.6776 27.2336 40.5932 25.8252C38.5201 24.4168 36.0977 23.707 33.3374 23.707C30.9826 23.707 28.8531 24.2366 26.949 25.3182C25.0449 26.3885 23.5465 27.887 22.4536 29.8137C21.3494 31.7403 20.8086 33.9148 20.8086 36.3372C20.8086 38.7596 21.3607 40.9341 22.4536 42.8495C23.5465 44.7648 25.0449 46.2521 26.949 47.3224C28.8419 48.3928 30.9713 48.9336 33.3374 48.9336C36.1203 48.9336 38.5426 48.235 40.6045 46.8267C42.6663 45.4183 44.1197 43.4579 44.9422 40.9341H39.2412C38.6779 42.1171 37.8779 43.0072 36.8526 43.6043L36.8639 43.6269Z" fill="#ED1C24"/>
<path id="Vector_3" d="M68.0731 29.8377C66.9465 27.9223 65.4254 26.4126 63.5101 25.331C61.5947 24.2493 59.4653 23.6973 57.1217 23.6973C54.7782 23.6973 52.6826 24.2381 50.756 25.331C48.8181 26.4126 47.297 27.9223 46.1591 29.8377C45.0211 31.7643 44.4578 33.9276 44.4578 36.3274C44.4578 38.7273 45.0211 40.9356 46.1591 42.851C47.297 44.7776 48.8181 46.2873 50.756 47.3577C52.6939 48.4393 54.812 48.9914 57.1217 48.9914C59.4315 48.9914 61.5609 48.4506 63.4875 47.3577C65.4254 46.2761 66.9465 44.7663 68.0731 42.851C69.1886 40.9356 69.7519 38.7498 69.7519 36.3274C69.7519 33.9051 69.1886 31.7643 68.0731 29.8377ZM63.7016 40.6877C63.0594 41.9383 62.1806 42.896 61.0426 43.572C59.9047 44.248 58.5977 44.5861 57.1217 44.5861C55.6458 44.5861 54.3163 44.248 53.1783 43.572C52.0291 42.9073 51.139 41.9383 50.5081 40.6877C49.8659 39.4371 49.5504 37.9837 49.5504 36.3387C49.5504 34.6937 49.8659 33.2403 50.5081 32.001C51.1503 30.7616 52.0291 29.8152 53.1783 29.1504C54.3163 28.4857 55.6345 28.1589 57.1217 28.1589C58.609 28.1589 59.9159 28.4857 61.0426 29.1504C62.1806 29.8152 63.0594 30.7616 63.7016 32.001C64.3438 33.2403 64.6593 34.6825 64.6593 36.3387C64.6593 37.9949 64.3438 39.4371 63.7016 40.6877Z" fill="#ED1C24"/>
<path id="Vector_4" d="M86.0663 37.8822C85.334 36.9358 84.4551 36.226 83.4524 35.7641C82.4384 35.2909 81.1314 34.8177 79.5203 34.3445C78.3372 33.9952 77.4246 33.6797 76.7824 33.4093C76.1402 33.1389 75.5881 32.7896 75.1487 32.3502C74.7093 31.9108 74.4952 31.37 74.4952 30.7053C74.4952 29.7588 74.7882 29.0378 75.3628 28.542C75.9487 28.0463 76.7148 27.7984 77.6838 27.7984C78.7879 27.7984 79.6893 28.0801 80.354 28.6322C81.0187 29.1842 81.3793 29.8828 81.4244 30.7391H86.8775C86.7085 28.5195 85.8297 26.7957 84.2411 25.5563C82.6524 24.3169 80.5793 23.6973 78.033 23.6973C76.3317 23.6973 74.822 23.9902 73.5038 24.5648C72.1855 25.1394 71.149 25.9732 70.4166 27.0548C69.6843 28.1364 69.3237 29.4096 69.3237 30.8743C69.3237 32.4291 69.6843 33.6797 70.4054 34.6036C71.1264 35.5387 71.9827 36.2373 72.9855 36.6992C73.9882 37.1612 75.2839 37.6231 76.8951 38.0963C78.0668 38.4231 79.002 38.7273 79.6667 38.9977C80.3427 39.2681 80.8948 39.6399 81.3455 40.1131C81.7962 40.5863 82.0215 41.1834 82.0215 41.9158C82.0215 42.8171 81.6948 43.5382 81.03 44.0903C80.3653 44.6424 79.4639 44.924 78.3034 44.924C77.1429 44.924 76.2867 44.6311 75.6332 44.0452C74.991 43.4594 74.6304 42.6481 74.5628 41.6341H69.2561C69.2787 43.1439 69.6956 44.4508 70.4955 45.555C71.2954 46.6591 72.3883 47.5154 73.7742 48.1013C75.1487 48.6872 76.7035 48.9801 78.4274 48.9801C80.2413 48.9801 81.8074 48.6421 83.1369 47.9774C84.4551 47.3013 85.4579 46.4 86.1452 45.2733C86.8212 44.1354 87.1705 42.9185 87.1705 41.589C87.1705 40.0568 86.7986 38.8174 86.0776 37.871L86.0663 37.8822Z" fill="#ED1C24"/>
<path id="Vector_5" d="M109.242 24.0449L101.389 42.4099L93.5362 24.0449H87.9028V48.7419H92.8602V32.6753L99.5189 48.7419H103.271L109.884 32.6753V48.7419H114.842V24.0449H109.253H109.242Z" fill="#ED1C24"/>
<path id="Vector_6" d="M140.26 35.6167C140.181 33.8929 139.798 32.293 139.122 30.8283L135.088 34.8618C135.088 34.8618 135.088 34.8956 135.088 34.9069C135.145 35.3576 135.179 35.8421 135.179 36.3265C135.179 37.9828 134.863 39.4249 134.221 40.6755C133.59 41.9262 132.7 42.8839 131.573 43.5599C130.435 44.2359 129.128 44.5739 127.652 44.5739C126.176 44.5739 124.847 44.2359 123.709 43.5599C123.191 43.2557 122.672 42.7825 122.255 42.3543L118.966 45.7118C119.687 46.3879 120.396 46.8611 121.275 47.3568C123.213 48.4384 125.331 48.9905 127.641 48.9905C129.951 48.9905 132.08 48.4497 134.007 47.3568C135.945 46.2752 137.466 44.7654 138.592 42.8501C139.708 40.9347 140.271 38.7489 140.271 36.3265C140.271 36.0899 140.271 35.8533 140.249 35.628L140.26 35.6167ZM120.07 36.3153C120.07 34.659 120.385 33.2169 121.027 31.9775C121.67 30.7382 122.548 29.7917 123.698 29.127C124.836 28.4623 126.154 28.1355 127.641 28.1355C129.128 28.1355 130.435 28.4623 131.562 29.127C132.7 29.7917 133.579 30.7382 134.21 31.9775C134.548 32.631 134.773 33.0366 134.931 33.814L138.705 30.0621C138.637 29.9269 138.66 29.9495 138.581 29.8143C137.454 27.8989 135.933 26.3891 134.018 25.3075C132.103 24.2259 129.973 23.6738 127.63 23.6738C125.286 23.6738 123.191 24.2146 121.264 25.3075C119.326 26.3891 117.794 27.8989 116.667 29.8143C115.529 31.7409 114.966 33.9042 114.966 36.304C114.966 37.9152 115.293 39.6615 115.8 41.0586L120.104 36.811C120.104 36.6983 120.07 36.4167 120.07 36.3153Z" fill="#ED1C24"/>
<path id="Vector_7" d="M63.3523 53.2949V56.2581H59.3413V68.4601H55.6458V56.2581H51.6348V53.2949H63.3523Z" fill="white"/>
<path id="Vector_8" d="M77.2556 68.4489L74.1009 62.7253H73.2108V68.4489H69.5153V53.2949H75.7121C76.9063 53.2949 77.9204 53.509 78.7654 53.9259C79.6104 54.3427 80.2413 54.9174 80.6582 55.6384C81.0751 56.3708 81.2891 57.1707 81.2891 58.0721C81.2891 59.0748 81.0075 59.9762 80.4329 60.7761C79.8695 61.5648 79.0245 62.1282 77.9204 62.4549L81.4131 68.4601H77.2443L77.2556 68.4489ZM73.2221 60.1114H75.5092C76.1853 60.1114 76.6923 59.9424 77.0303 59.6156C77.3683 59.2889 77.5373 58.8157 77.5373 58.2073C77.5373 57.5989 77.3683 57.182 77.0303 56.844C76.6923 56.5172 76.1853 56.3482 75.5092 56.3482H73.2221V60.1001V60.1114Z" fill="white"/>
<path id="Vector_9" d="M97.3556 65.7673H91.6997L90.7983 68.4489H86.9338L92.4208 53.2949H96.6909L102.178 68.4489H98.2683L97.3669 65.7673H97.3556ZM96.4092 62.9168L94.5277 57.3735L92.6686 62.9168H96.398H96.4092Z" fill="white"/>
<path id="Vector_10" d="M118.019 54.2418C119.213 54.8727 120.137 55.7628 120.791 56.912C121.444 58.0613 121.771 59.3795 121.771 60.878C121.771 62.3765 121.444 63.6722 120.791 64.8326C120.137 65.9819 119.202 66.872 118.008 67.5142C116.802 68.1451 115.416 68.4606 113.828 68.4606H108.149V53.3066H113.828C115.428 53.3066 116.825 53.6221 118.019 54.2531V54.2418ZM116.859 64.1116C117.636 63.3454 118.019 62.2751 118.019 60.878C118.019 59.4809 117.625 58.3993 116.859 57.6219C116.081 56.8444 115 56.4501 113.603 56.4501H111.856V65.2608H113.603C115 65.2608 116.081 64.8777 116.859 64.1116Z" fill="white"/>
<path id="Vector_11" d="M131.855 56.2464V59.311H136.801V62.1615H131.855V65.4852H137.443V68.4371H128.159V53.2832H137.443V56.2464H131.855Z" fill="white"/>
</g>
<defs>
<filter id="filter0_d_876_7" x="0" y="0" width="172" height="89.1934" filterUnits="userSpaceOnUse" color-interpolation-filters="sRGB">
<feFlood flood-opacity="0" result="BackgroundImageFix"/>
<feColorMatrix in="SourceAlpha" type="matrix" values="0 0 0 0 0 0 0 0 0 0 0 0 0 0 0 0 0 0 127 0" result="hardAlpha"/>
<feOffset/>
<feGaussianBlur stdDeviation="10"/>
<feComposite in2="hardAlpha" operator="out"/>
<feColorMatrix type="matrix" values="0 0 0 0 0.133333 0 0 0 0 0.858824 0 0 0 0 0.976471 0 0 0 0.5 0"/>
<feBlend mode="normal" in2="BackgroundImageFix" result="effect1_dropShadow_876_7"/>
<feBlend mode="normal" in="SourceGraphic" in2="effect1_dropShadow_876_7" result="shape"/>
</filter>
</defs>
</svg>
