<svg width="126" height="47" viewBox="0 0 126 47" fill="none" xmlns="http://www.w3.org/2000/svg">
<path d="M114.546 0.710938V4.52887H119.515L104.996 19.0478L99.2637 13.3155L87.7992 24.7801L90.4771 27.458L99.2637 18.6714L104.996 24.4036L122.182 7.21756V12.1863H126V0.710938H114.535H114.546Z" fill="#ED1C24"/>
<path d="M16.0973 22.5535C15.1187 23.1342 13.9894 23.4138 12.7096 23.4138C11.333 23.4138 10.1177 23.0912 9.04224 22.4459C7.97752 21.8006 7.13865 20.8865 6.54714 19.7035C5.95563 18.5204 5.6545 17.1546 5.6545 15.5951C5.6545 14.0357 5.95563 12.6483 6.54714 11.4761C7.14941 10.3038 7.97752 9.4004 9.04224 8.75512C10.1177 8.12059 11.333 7.78719 12.7096 7.78719C13.9894 7.78719 15.1294 8.06681 16.0973 8.63681C17.076 9.19606 17.8396 10.0457 18.3773 11.1642H23.8192C23.0341 8.77663 21.6468 6.9053 19.6572 5.56096C17.6783 4.21661 15.366 3.53906 12.7311 3.53906C10.4834 3.53906 8.45073 4.04454 6.63318 5.07699C4.81563 6.09869 3.38525 7.52908 2.34204 9.36814C1.28808 11.2072 0.771851 13.2829 0.771851 15.5951C0.771851 17.9074 1.29883 19.9831 2.34204 21.8114C3.38525 23.6397 4.81563 25.0593 6.63318 26.081C8.43997 27.1027 10.4726 27.6189 12.7311 27.6189C15.3875 27.6189 17.6998 26.9522 19.6679 25.6078C21.636 24.2635 23.0234 22.3921 23.8085 19.9831H18.3666C17.8288 21.1123 17.0653 21.962 16.0866 22.532L16.0973 22.5535Z" fill="#ED1C24"/>
<path d="M45.888 9.39063C44.8125 7.56233 43.3606 6.12119 41.5323 5.08873C39.704 4.05628 37.6714 3.5293 35.4344 3.5293C33.1974 3.5293 31.197 4.04552 29.358 5.08873C27.5082 6.12119 26.0563 7.56233 24.97 9.39063C23.8838 11.2297 23.3461 13.2946 23.3461 15.5854C23.3461 17.8761 23.8838 19.9841 24.97 21.8124C26.0563 23.6514 27.5082 25.0926 29.358 26.1143C31.2078 27.1467 33.2297 27.6737 35.4344 27.6737C37.6391 27.6737 39.6718 27.1575 41.5108 26.1143C43.3606 25.0818 44.8125 23.6407 45.888 21.8124C46.9527 19.9841 47.4905 17.8976 47.4905 15.5854C47.4905 13.2731 46.9527 11.2297 45.888 9.39063ZM41.7152 19.7475C41.1022 20.9412 40.2633 21.8554 39.1771 22.5007C38.0908 23.1459 36.8433 23.4686 35.4344 23.4686C34.0255 23.4686 32.7565 23.1459 31.6702 22.5007C30.5733 21.8661 29.7236 20.9412 29.1214 19.7475C28.5083 18.5537 28.2072 17.1663 28.2072 15.5961C28.2072 14.0259 28.5083 12.6386 29.1214 11.4555C29.7344 10.2725 30.5733 9.36912 31.6702 8.73459C32.7565 8.10006 34.0148 7.78818 35.4344 7.78818C36.854 7.78818 38.1016 8.10006 39.1771 8.73459C40.2633 9.36912 41.1022 10.2725 41.7152 11.4555C42.3282 12.6386 42.6293 14.0152 42.6293 15.5961C42.6293 17.1771 42.3282 18.5537 41.7152 19.7475Z" fill="#ED1C24"/>
<path d="M63.0633 17.0695C62.3642 16.1661 61.5253 15.4886 60.5682 15.0476C59.6002 14.5959 58.3527 14.1442 56.8148 13.6925C55.6855 13.3591 54.8144 13.058 54.2014 12.7999C53.5884 12.5418 53.0614 12.2084 52.6419 11.7889C52.2225 11.3695 52.0182 10.8533 52.0182 10.2187C52.0182 9.31535 52.2978 8.62704 52.8463 8.15383C53.4055 7.68063 54.1368 7.44402 55.0618 7.44402C56.1157 7.44402 56.9761 7.71289 57.6106 8.23987C58.2452 8.76685 58.5893 9.43365 58.6323 10.251H63.8376C63.6763 8.13232 62.8374 6.48685 61.321 5.30383C59.8046 4.12081 57.8257 3.5293 55.3951 3.5293C53.7712 3.5293 52.33 3.80892 51.0717 4.35741C49.8134 4.9059 48.824 5.70175 48.1249 6.73421C47.4259 7.76666 47.0817 8.98195 47.0817 10.3801C47.0817 11.8642 47.4259 13.058 48.1142 13.9399C48.8025 14.8325 49.6199 15.4993 50.577 15.9403C51.5342 16.3812 52.771 16.8222 54.3089 17.2739C55.4274 17.5857 56.3201 17.8761 56.9546 18.1342C57.5999 18.3923 58.1269 18.7472 58.557 19.1989C58.9872 19.6506 59.2023 20.2206 59.2023 20.9197C59.2023 21.7801 58.8904 22.4684 58.2559 22.9954C57.6214 23.5224 56.761 23.7912 55.6533 23.7912C54.5455 23.7912 53.7282 23.5116 53.1044 22.9524C52.4914 22.3931 52.1472 21.6188 52.0827 20.6508H47.0172C47.0387 22.092 47.4366 23.3395 48.2002 24.3935C48.9638 25.4475 50.007 26.2648 51.3299 26.8241C52.6419 27.3833 54.1261 27.6629 55.7716 27.6629C57.5031 27.6629 58.998 27.3403 60.267 26.7058C61.5253 26.0605 62.4825 25.2001 63.1386 24.1246C63.7838 23.0384 64.1172 21.8769 64.1172 20.6078C64.1172 19.1452 63.7623 17.9622 63.074 17.0588L63.0633 17.0695Z" fill="#ED1C24"/>
<path d="M85.1858 3.86133L77.6898 21.3916L70.1937 3.86133H64.8163V27.4357H69.5484V12.0995L75.9045 27.4357H79.4858L85.7988 12.0995V27.4357H90.5309V3.86133H85.1965H85.1858Z" fill="#ED1C24"/>
<path d="M114.794 14.9078C114.718 13.2624 114.353 11.7352 113.707 10.3371L109.857 14.1873C109.857 14.1873 109.857 14.2195 109.857 14.2303C109.911 14.6605 109.943 15.1229 109.943 15.5854C109.943 17.1663 109.642 18.543 109.029 19.7367C108.427 20.9305 107.577 21.8447 106.502 22.4899C105.415 23.1352 104.168 23.4579 102.759 23.4579C101.35 23.4579 100.081 23.1352 98.9948 22.4899C98.5001 22.1996 98.0054 21.7479 97.6075 21.3392L94.4671 24.5441C95.1554 25.1894 95.833 25.6411 96.6718 26.1143C98.5216 27.1468 100.544 27.6737 102.748 27.6737C104.953 27.6737 106.986 27.1575 108.825 26.1143C110.674 25.0818 112.126 23.6407 113.202 21.8124C114.267 19.9841 114.804 17.8977 114.804 15.5854C114.804 15.3595 114.804 15.1337 114.783 14.9186L114.794 14.9078ZM95.5211 15.5746C95.5211 13.9937 95.8222 12.6171 96.4352 11.4341C97.0482 10.251 97.8871 9.34764 98.9841 8.71311C100.07 8.07858 101.329 7.76669 102.748 7.76669C104.168 7.76669 105.415 8.07858 106.491 8.71311C107.577 9.34764 108.416 10.251 109.018 11.4341C109.341 12.0578 109.556 12.445 109.707 13.1871L113.309 9.60576C113.245 9.4767 113.266 9.49821 113.191 9.36915C112.116 7.54084 110.664 6.09971 108.835 5.06725C107.007 4.0348 104.974 3.50781 102.737 3.50781C100.501 3.50781 98.5001 4.02404 96.6611 5.06725C94.8113 6.09971 93.3486 7.54084 92.2731 9.36915C91.1869 11.2082 90.6492 13.2731 90.6492 15.5639C90.6492 17.1018 90.9611 18.7688 91.445 20.1024L95.5533 16.0479C95.5533 15.9403 95.5211 15.6714 95.5211 15.5746Z" fill="#ED1C24"/>
<path d="M41.3818 31.7812V34.6097H37.5531V46.2571H34.0255V34.6097H30.1968V31.7812H41.3818Z" fill="white"/>
<path d="M54.6531 46.2464L51.6418 40.783H50.7921V46.2464H47.2646V31.7812H53.1797C54.3197 31.7812 55.2876 31.9856 56.0942 32.3835C56.9008 32.7814 57.5031 33.3299 57.901 34.0182C58.2989 34.7173 58.5033 35.4809 58.5033 36.3413C58.5033 37.2984 58.2344 38.1588 57.6859 38.9224C57.1482 39.6752 56.3416 40.213 55.2876 40.5249L58.6216 46.2571H54.6423L54.6531 46.2464ZM50.8029 38.2879H52.9861C53.6314 38.2879 54.1154 38.1265 54.438 37.8147C54.7606 37.5028 54.922 37.0511 54.922 36.4703C54.922 35.8896 54.7606 35.4916 54.438 35.169C54.1154 34.8571 53.6314 34.6958 52.9861 34.6958H50.8029V38.2771V38.2879Z" fill="white"/>
<path d="M73.8395 43.6867H68.4406L67.5802 46.2464H63.8914L69.1289 31.7812H73.205L78.4425 46.2464H74.7106L73.8503 43.6867H73.8395ZM72.9361 40.9658L71.1401 35.6745L69.3655 40.9658H72.9253H72.9361Z" fill="white"/>
<path d="M93.5637 32.6856C94.7037 33.2879 95.5856 34.1375 96.2093 35.2345C96.8331 36.3315 97.145 37.5898 97.145 39.0202C97.145 40.4505 96.8331 41.6873 96.2093 42.7951C95.5856 43.8921 94.6929 44.7417 93.5529 45.3547C92.4021 45.957 91.0793 46.2581 89.5629 46.2581H84.1425V31.793H89.5629C91.0901 31.793 92.4237 32.0941 93.5637 32.6964V32.6856ZM92.4559 42.1068C93.198 41.3754 93.5637 40.3537 93.5637 39.0202C93.5637 37.6866 93.1872 36.6541 92.4559 35.912C91.7138 35.17 90.6814 34.7935 89.3478 34.7935H87.6808V43.2037H89.3478C90.6814 43.2037 91.7138 42.8381 92.4559 42.1068Z" fill="white"/>
<path d="M106.77 34.598V37.5233H111.492V40.2443H106.77V43.4169H112.105V46.2347H103.243V31.7695H112.105V34.598H106.77Z" fill="white"/>
</svg>
