<svg width="200" height="200" viewBox="0 0 200 200" fill="none" xmlns="http://www.w3.org/2000/svg">
<g clip-path="url(#clip0_2171_2)">
<rect width="200" height="200" fill="white"/>
<g clip-path="url(#clip1_2171_2)">
<path d="M100.003 200.006C155.233 200.006 200.006 155.233 200.006 100.003C200.006 44.7729 155.233 0 100.003 0C44.7729 0 0 44.7729 0 100.003C0 155.233 44.7729 200.006 100.003 200.006Z" fill="#EA0707"/>
<path d="M149.184 49.1269V60.2544H163.648L121.359 102.544L104.667 85.8526L80.789 109.731V74.5983C80.789 67.5561 82.4545 62.3061 85.7976 58.8484C89.1347 55.3906 93.9019 53.6587 100.093 53.6587C104.462 53.6587 107.89 54.3286 110.382 55.6622C112.868 57.0018 114.721 58.6372 115.934 60.5803C117.147 62.5234 117.967 64.4966 118.39 66.5001C118.812 68.5035 119.029 70.2354 119.029 71.6897C119.15 74.363 120.333 76.2759 122.578 77.4285C124.822 78.5811 127.586 79.1604 130.863 79.1604C134.87 79.1604 137.845 78.4061 139.788 76.8854C141.731 75.3707 142.703 72.2388 142.703 67.5078C142.703 60.3449 140.85 54.2139 137.151 49.1148C133.446 44.0157 128.347 40.039 121.853 37.1847C115.36 34.3364 107.86 32.9062 99.3631 32.9062C91.7174 32.9062 84.6752 34.27 78.2364 37.0036C71.7977 39.7373 66.7046 44.1665 62.9391 50.2976C59.1736 56.4286 57.2969 64.5328 57.2969 74.6104V125.414C57.2969 135.492 59.1796 143.596 62.9391 149.727C66.6986 155.858 71.7977 160.288 78.2364 163.021C84.6692 165.755 91.651 167.119 99.176 167.119C107.673 167.119 115.204 165.664 121.757 162.75C128.31 159.835 133.44 155.647 137.145 150.186C140.844 144.725 142.697 138.352 142.697 131.069C142.697 126.458 141.725 123.363 139.782 121.782C137.839 120.207 134.803 119.416 130.676 119.416C127.52 119.416 124.847 119.959 122.662 121.058C120.478 122.15 119.259 124.093 119.023 126.887C118.776 128.83 118.444 130.894 118.022 133.078C117.593 135.263 116.809 137.357 115.656 139.36C114.504 141.364 112.711 143.035 110.285 144.369C107.854 145.708 104.577 146.372 100.455 146.372C94.1433 146.372 89.2855 144.676 85.8881 141.273C82.4847 137.876 80.789 132.595 80.789 125.433V125.342L104.667 101.464L121.359 118.155L171.439 68.0751V82.5397H182.566V49.151H149.178L149.184 49.1269Z" fill="white"/>
</g>
</g>
<defs>
<clipPath id="clip0_2171_2">
<rect width="200" height="200" fill="white"/>
</clipPath>
<clipPath id="clip1_2171_2">
<rect width="200" height="200" fill="white"/>
</clipPath>
</defs>
</svg>
