<svg width="36" height="40" viewBox="0 0 36 40" fill="none" xmlns="http://www.w3.org/2000/svg">
<g id="user-3 1">
<g id="Group">
<path id="Vector" d="M18.0001 38.9704C16.7648 38.9704 15.5118 38.4939 14.5765 37.5586L11.5589 34.5763C10.8177 33.8351 9.79421 33.4292 8.75303 33.4292H7.41184C3.7589 33.4292 0.794189 30.4821 0.794189 26.8645V7.61153C0.794189 3.99388 3.7589 1.04688 7.41184 1.04688H28.5883C32.2412 1.04688 35.206 3.99388 35.206 7.61153V26.8645C35.206 30.4821 32.2412 33.4292 28.5883 33.4292H27.2471C26.206 33.4292 25.1824 33.8527 24.4412 34.5763L21.4236 37.5586C20.4883 38.4939 19.2354 38.9704 18.0001 38.9704ZM7.41184 3.67627C5.2236 3.67627 3.44125 5.44092 3.44125 7.59386V26.8469C3.44125 29.0174 5.2236 30.7645 7.41184 30.7645H8.75303C10.5001 30.7645 12.1941 31.4704 13.4294 32.688L16.4471 35.6704C17.3118 36.5174 18.706 36.5174 19.5707 35.6704L22.5883 32.688C23.8236 31.4704 25.5177 30.7645 27.2648 30.7645H28.5883C30.7765 30.7645 32.5589 28.9998 32.5589 26.8469V7.59386C32.5589 5.42327 30.7765 3.67627 28.5883 3.67627H7.41184Z" fill="url(#paint0_linear_953_1052)"/>
<path id="Vector_2" d="M18 17.7944C15 17.7944 12.5647 15.359 12.5647 12.359C12.5647 9.35903 15 6.92383 18 6.92383C21 6.92383 23.4354 9.35903 23.4354 12.359C23.4354 15.359 21 17.7944 18 17.7944ZM18 9.57089C16.4647 9.57089 15.2117 10.8237 15.2117 12.359C15.2117 13.8943 16.4647 15.1473 18 15.1473C19.5353 15.1473 20.7884 13.8943 20.7884 12.359C20.7884 10.8237 19.5353 9.57089 18 9.57089Z" fill="url(#paint1_linear_953_1052)"/>
<path id="Vector_3" d="M25.0589 27.7828C24.3353 27.7828 23.7353 27.1828 23.7353 26.4593C23.7353 24.024 21.1589 22.0299 18 22.0299C14.8412 22.0299 12.2647 24.024 12.2647 26.4593C12.2647 27.1828 11.6647 27.7828 10.9412 27.7828C10.2177 27.7828 9.61768 27.1828 9.61768 26.4593C9.61768 22.5593 13.3765 19.3828 18 19.3828C22.6236 19.3828 26.3824 22.5593 26.3824 26.4593C26.3824 27.1828 25.7824 27.7828 25.0589 27.7828Z" fill="url(#paint2_linear_953_1052)"/>
</g>
</g>
<defs>
<linearGradient id="paint0_linear_953_1052" x1="18.0001" y1="1.04687" x2="18.0001" y2="38.9704" gradientUnits="userSpaceOnUse">
<stop stop-color="#FA6626"/>
<stop offset="1" stop-color="#E3B820"/>
</linearGradient>
<linearGradient id="paint1_linear_953_1052" x1="18.0001" y1="6.92383" x2="18.0001" y2="17.7944" gradientUnits="userSpaceOnUse">
<stop stop-color="#FA6626"/>
<stop offset="1" stop-color="#E3B820"/>
</linearGradient>
<linearGradient id="paint2_linear_953_1052" x1="18" y1="19.3828" x2="18" y2="27.7828" gradientUnits="userSpaceOnUse">
<stop stop-color="#FA6626"/>
<stop offset="1" stop-color="#E3B820"/>
</linearGradient>
</defs>
</svg>
