<svg width="36" height="36" viewBox="0 0 36 36" fill="none" xmlns="http://www.w3.org/2000/svg">
<g id="user-2 1" clip-path="url(#clip0_953_1032)">
<path id="Vector" d="M18.4922 33.1875H4.33771C3.73731 33.1875 3.37531 32.8524 3.21271 32.6527C2.93229 32.3078 2.8238 31.859 2.91498 31.4209C4.37534 24.4061 10.5659 19.2838 17.7125 19.1176C17.8311 19.122 17.9503 19.125 18.0703 19.125C23.343 19.125 27.6328 14.8354 27.6328 9.5625C27.6328 4.28961 23.343 0 18.0703 0C12.7975 0 8.50785 4.28961 8.50785 9.5625C8.50785 12.692 10.019 15.4753 12.35 17.2208C10.2146 17.9236 8.21039 19.0171 6.4567 20.4596C3.24128 23.1045 1.00556 26.7937 0.161533 30.8477C-0.102963 32.118 0.213993 33.4226 1.03083 34.4273C1.84354 35.4268 3.04901 36 4.33771 36H18.4922C19.2687 36 19.8985 35.3705 19.8985 34.5938C19.8985 33.817 19.2687 33.1875 18.4922 33.1875ZM11.3203 9.5625C11.3203 5.84061 14.3482 2.8125 18.0703 2.8125C21.7922 2.8125 24.8203 5.84061 24.8203 9.5625C24.8203 13.2311 21.8785 16.2254 18.2299 16.3106C18.1775 16.3045 18.1245 16.3007 18.0703 16.3007C17.9605 16.3007 17.8509 16.3023 17.7413 16.3043C14.1716 16.1323 11.3203 13.1743 11.3203 9.5625ZM36.0703 28.9674C36.0703 29.7441 35.4406 30.3736 34.6641 30.3736H24.1172C23.3405 30.3736 22.711 29.7441 22.711 28.9674C22.711 28.1909 23.3405 27.5611 24.1172 27.5611H34.6641C35.4406 27.5611 36.0703 28.1909 36.0703 28.9674ZM24.1172 21.9375H34.6641C35.4406 21.9375 36.0703 22.567 36.0703 23.3438C36.0703 24.1205 35.4406 24.75 34.6641 24.75H24.1172C23.3405 24.75 22.711 24.1205 22.711 23.3438C22.711 22.567 23.3405 21.9375 24.1172 21.9375ZM36.0703 34.5938C36.0703 35.3705 35.4406 36 34.6641 36H24.1172C23.3405 36 22.711 35.3705 22.711 34.5938C22.711 33.817 23.3405 33.1875 24.1172 33.1875H34.6641C35.4406 33.1875 36.0703 33.817 36.0703 34.5938Z" fill="url(#paint0_linear_953_1032)"/>
</g>
<defs>
<linearGradient id="paint0_linear_953_1032" x1="18.0703" y1="0" x2="18.0703" y2="36" gradientUnits="userSpaceOnUse">
<stop stop-color="#FA6626"/>
<stop offset="1" stop-color="#E3B820"/>
</linearGradient>
<clipPath id="clip0_953_1032">
<rect width="36" height="36" fill="white"/>
</clipPath>
</defs>
</svg>
