<svg width="36" height="36" viewBox="0 0 36 36" fill="none" xmlns="http://www.w3.org/2000/svg">
<g id="svg1929" clip-path="url(#clip0_953_1039)">
<path id="Vector" d="M28.1582 26.7168H26.967C22.6426 26.7168 19.1252 30.249 19.1252 34.5912C19.1252 35.3685 19.7542 35.9975 20.5316 35.9975C21.3089 35.9975 21.938 35.3685 21.938 34.5912C21.938 31.7993 24.1943 29.528 26.967 29.528H28.1582C30.9309 29.528 33.1873 31.7993 33.1873 34.5912C33.1873 35.3685 33.8163 35.9975 34.5937 35.9975C35.371 35.9975 36 35.3685 36 34.5912C36 30.249 32.4826 26.7168 28.1582 26.7168Z" fill="url(#paint0_linear_953_1039)"/>
<path id="Vector_2" d="M21.5151 18.6333C21.5151 21.9281 24.1958 24.6103 27.4921 24.6103C30.7885 24.6103 33.4691 21.9296 33.4691 18.6333C33.4691 15.3369 30.7885 12.6562 27.4921 12.6562C24.1958 12.6562 21.5151 15.3369 21.5151 18.6333ZM30.655 18.6333C30.655 20.3778 29.2352 21.7976 27.4907 21.7976C25.7461 21.7976 24.3264 20.3778 24.3264 18.6333C24.3264 16.8887 25.7461 15.469 27.4907 15.469C29.2352 15.469 30.655 16.8887 30.655 18.6333Z" fill="url(#paint1_linear_953_1039)"/>
<path id="Vector_3" d="M14.9062 33.1873H8.43664C5.33614 33.1873 2.81271 30.6653 2.81271 27.5634V8.43516C2.81271 5.33465 5.33614 2.81123 8.43664 2.81123H21.3787C24.4792 2.81123 27.0026 5.33317 27.0026 8.43516C27.0026 9.21251 27.6316 9.84151 28.409 9.84151C29.1863 9.84151 29.8153 9.21251 29.8153 8.43516C29.8153 3.78292 26.0309 0 21.3772 0H8.43664C3.7844 0 0 3.7844 0 8.43516V27.5634C0 32.2156 3.7844 36 8.43664 36H14.9062C15.6835 36 16.3125 35.371 16.3125 34.5936C16.3125 33.8163 15.6835 33.1873 14.9062 33.1873Z" fill="url(#paint2_linear_953_1039)"/>
<path id="Vector_4" d="M17.2264 14.5547H9.63243C8.85508 14.5547 8.22607 15.1837 8.22607 15.961C8.22607 16.7384 8.85508 17.3674 9.63243 17.3674H17.2264C18.0038 17.3674 18.6328 16.7384 18.6328 15.961C18.6328 15.1837 18.0038 14.5547 17.2264 14.5547Z" fill="url(#paint3_linear_953_1039)"/>
<path id="Vector_5" d="M20.0392 9.14062H9.63243C8.85508 9.14062 8.22607 9.76963 8.22607 10.547C8.22607 11.3243 8.85508 11.9533 9.63243 11.9533H20.0392C20.8165 11.9533 21.4455 11.3243 21.4455 10.547C21.4455 9.76963 20.8165 9.14062 20.0392 9.14062Z" fill="url(#paint4_linear_953_1039)"/>
<path id="Vector_6" d="M17.2264 25.3105H9.63243C8.85508 25.3105 8.22607 25.9396 8.22607 26.7169C8.22607 27.4943 8.85508 28.1233 9.63243 28.1233H17.2264C18.0038 28.1233 18.6328 27.4943 18.6328 26.7169C18.6328 25.9396 18.0038 25.3105 17.2264 25.3105Z" fill="url(#paint5_linear_953_1039)"/>
<path id="Vector_7" d="M17.2264 19.8984H9.63243C8.85508 19.8984 8.22607 20.5274 8.22607 21.3048C8.22607 22.0821 8.85508 22.7111 9.63243 22.7111H17.2264C18.0038 22.7111 18.6328 22.0821 18.6328 21.3048C18.6328 20.5274 18.0038 19.8984 17.2264 19.8984Z" fill="url(#paint6_linear_953_1039)"/>
</g>
<defs>
<linearGradient id="paint0_linear_953_1039" x1="27.5626" y1="26.7168" x2="27.5626" y2="35.9975" gradientUnits="userSpaceOnUse">
<stop stop-color="#FA6626"/>
<stop offset="1" stop-color="#E3B820"/>
</linearGradient>
<linearGradient id="paint1_linear_953_1039" x1="27.4921" y1="12.6562" x2="27.4921" y2="24.6103" gradientUnits="userSpaceOnUse">
<stop stop-color="#FA6626"/>
<stop offset="1" stop-color="#E3B820"/>
</linearGradient>
<linearGradient id="paint2_linear_953_1039" x1="14.9077" y1="0" x2="14.9077" y2="36" gradientUnits="userSpaceOnUse">
<stop stop-color="#FA6626"/>
<stop offset="1" stop-color="#E3B820"/>
</linearGradient>
<linearGradient id="paint3_linear_953_1039" x1="13.4294" y1="14.5547" x2="13.4294" y2="17.3674" gradientUnits="userSpaceOnUse">
<stop stop-color="#FA6626"/>
<stop offset="1" stop-color="#E3B820"/>
</linearGradient>
<linearGradient id="paint4_linear_953_1039" x1="14.8358" y1="9.14062" x2="14.8358" y2="11.9533" gradientUnits="userSpaceOnUse">
<stop stop-color="#FA6626"/>
<stop offset="1" stop-color="#E3B820"/>
</linearGradient>
<linearGradient id="paint5_linear_953_1039" x1="13.4294" y1="25.3105" x2="13.4294" y2="28.1233" gradientUnits="userSpaceOnUse">
<stop stop-color="#FA6626"/>
<stop offset="1" stop-color="#E3B820"/>
</linearGradient>
<linearGradient id="paint6_linear_953_1039" x1="13.4294" y1="19.8984" x2="13.4294" y2="22.7111" gradientUnits="userSpaceOnUse">
<stop stop-color="#FA6626"/>
<stop offset="1" stop-color="#E3B820"/>
</linearGradient>
<clipPath id="clip0_953_1039">
<rect width="36" height="36" fill="white"/>
</clipPath>
</defs>
</svg>
