<svg width="30" height="30" viewBox="0 0 30 30" fill="none" xmlns="http://www.w3.org/2000/svg">
<g id="diamond 1">
<g id="Layer 4">
<path id="Vector" d="M28.204 9.24914L23.0248 3.21805C22.9606 3.14409 22.8812 3.08478 22.7921 3.04413C22.703 3.00348 22.6062 2.98243 22.5082 2.98242H7.49167C7.39372 2.98243 7.29691 3.00348 7.20779 3.04413C7.11868 3.08478 7.03933 3.14409 6.97511 3.21805L1.79589 9.24914C1.69765 9.37023 1.64404 9.52142 1.64404 9.67734C1.64404 9.83327 1.69765 9.98446 1.79589 10.1055L14.4834 26.7398C14.5478 26.8226 14.6302 26.8896 14.7245 26.9357C14.8187 26.9818 14.9222 27.0058 15.0271 27.0058C15.132 27.0058 15.2356 26.9818 15.3298 26.9357C15.424 26.8896 15.5065 26.8226 15.5709 26.7398L28.2584 10.1146C28.3515 9.9866 28.3971 9.83008 28.3872 9.67208C28.3772 9.51407 28.3125 9.36449 28.204 9.24914ZM8.94167 10.3729L13.056 22.6571L3.67183 10.3729H8.94167ZM19.6218 10.3729L15 24.1841L10.3781 10.3729H19.6218ZM10.9853 9.01352L15 4.67258L19.0146 9.01352H10.9853ZM21.0582 10.3729H26.3281L16.9439 22.6571L21.0582 10.3729ZM26.2057 9.01352H20.8634L16.5542 4.35086H22.1956L26.2057 9.01352ZM7.80433 4.35086H13.4457L9.13651 9.01352H3.79417L7.80433 4.35086Z" fill="#8BBCDF"/>
</g>
</g>
</svg>
