<svg width="30" height="30" viewBox="0 0 30 30" fill="none" xmlns="http://www.w3.org/2000/svg">
<g id="document 1">
<g id="Layer_13">
<g id="Group">
<path id="Vector" d="M21.5718 17.9688C18.7668 17.9688 16.4934 20.2422 16.4934 23.0472C16.4934 25.8522 18.7668 28.1256 21.5718 28.1256C24.3768 28.1256 26.6503 25.8522 26.6503 23.0472C26.6503 20.2422 24.3768 17.9688 21.5718 17.9688ZM23.3015 24.775C23.1365 24.94 22.9209 25.0225 22.7043 25.0225C22.4878 25.0225 22.2731 24.94 22.1081 24.7759L20.9756 23.6434C20.8172 23.485 20.7281 23.2703 20.7281 23.0463V20.6594C20.7281 20.1934 21.1059 19.8156 21.5718 19.8156C22.0378 19.8156 22.4156 20.1934 22.4156 20.6594V22.6966L23.3006 23.5816C23.6306 23.9116 23.6306 24.4459 23.3015 24.775Z" fill="url(#paint0_linear_1006_7523)"/>
<path id="Vector_2" d="M20.3634 1.875H6.68717C4.84405 1.875 3.34967 3.36937 3.34967 5.2125V24.7875C3.34967 26.6306 4.84405 28.125 6.68717 28.125H17.5519C16.0537 26.9363 15.0881 25.1034 15.0881 23.0466C15.0881 19.4709 17.9972 16.5619 21.5728 16.5619C22.319 16.5619 23.0334 16.695 23.7019 16.9284V5.2125C23.7009 3.36937 22.2065 1.875 20.3634 1.875ZM12.5259 21.7406H7.63217C7.16623 21.7406 6.78842 21.3628 6.78842 20.8969C6.78842 20.4309 7.16623 20.0531 7.63217 20.0531H12.5259C12.9919 20.0531 13.3697 20.4309 13.3697 20.8969C13.3697 21.3628 12.9919 21.7406 12.5259 21.7406ZM16.9331 15.8438H7.63311C7.16717 15.8438 6.78936 15.4659 6.78936 15C6.78936 14.5341 7.16717 14.1562 7.63311 14.1562H16.9331C17.399 14.1562 17.7769 14.5341 17.7769 15C17.7769 15.4659 17.399 15.8438 16.9331 15.8438ZM19.425 9.945H7.62842C7.16248 9.945 6.78467 9.56719 6.78467 9.10125C6.78467 8.63531 7.16248 8.2575 7.62842 8.2575H19.425C19.8909 8.2575 20.2687 8.63531 20.2687 9.10125C20.2687 9.56719 19.8909 9.945 19.425 9.945Z" fill="url(#paint1_linear_1006_7523)"/>
</g>
</g>
</g>
<defs>
<linearGradient id="paint0_linear_1006_7523" x1="21.5718" y1="17.9688" x2="21.5718" y2="28.1256" gradientUnits="userSpaceOnUse">
<stop stop-color="#C82F36"/>
<stop offset="1" stop-color="#FFDD54"/>
</linearGradient>
<linearGradient id="paint1_linear_1006_7523" x1="13.5258" y1="1.875" x2="13.5258" y2="28.125" gradientUnits="userSpaceOnUse">
<stop stop-color="#C82F36"/>
<stop offset="1" stop-color="#FFDD54"/>
</linearGradient>
</defs>
</svg>
