<svg width="30" height="30" viewBox="0 0 30 30" fill="none" xmlns="http://www.w3.org/2000/svg">
<g id="eye 1">
<g id="Group">
<path id="Vector" d="M15 22.5489C7.28756 22.5489 1.17658 15.7385 0.920196 15.4485C0.693268 15.1918 0.693268 14.8063 0.920196 14.5496C1.17658 14.2597 7.28756 7.44922 15 7.44922C22.7124 7.44922 28.8234 14.2597 29.0798 14.5496C29.3067 14.8063 29.3067 15.1918 29.0798 15.4485C28.8234 15.7385 22.7124 22.5489 15 22.5489ZM2.36643 14.9986C3.85155 16.492 9.00299 21.1918 15 21.1918C21.0078 21.1918 26.1505 16.4936 27.6336 14.9995C26.1485 13.5062 20.997 8.80636 15 8.80636C8.99224 8.80636 3.84949 13.5045 2.36643 14.9986Z" fill="#445D9D"/>
<path id="Vector_2" d="M15 20.0165C12.233 20.0165 9.98198 17.7655 9.98198 14.9985C9.98198 12.2315 12.233 9.98047 15 9.98047C17.767 9.98047 20.018 12.2315 20.018 14.9985C20.018 17.7655 17.767 20.0165 15 20.0165ZM15 11.3376C12.9814 11.3376 11.3391 12.9799 11.3391 14.9985C11.3391 17.0171 12.9814 18.6594 15 18.6594C17.0186 18.6594 18.6609 17.0171 18.6609 14.9985C18.6609 12.9799 17.0186 11.3376 15 11.3376Z" fill="#445D9D"/>
</g>
</g>
</svg>
