<svg width="213" height="177" viewBox="0 0 213 177" fill="none" xmlns="http://www.w3.org/2000/svg">
<g clip-path="url(#clip0_104_415)">
<path d="M148.363 71.9027L112.069 66.6857L101.577 139.674L137.871 144.891L148.363 71.9027Z" fill="#B5D9CF"/>
<path d="M144.685 75.3029L114.64 70.9841L105.255 136.273L135.3 140.592L144.685 75.3029Z" fill="#77AC9C"/>
<path d="M138.122 107.678C138.898 102.275 133.642 97.0483 126.381 96.0046C119.12 94.9608 112.604 98.4952 111.828 103.899C111.051 109.302 116.307 114.529 123.568 115.572C130.829 116.616 137.345 113.082 138.122 107.678Z" fill="#B5D9CF"/>
<path d="M128.03 90.7985C131.499 90.7985 134.312 87.986 134.312 84.5166C134.312 81.0472 131.499 78.2347 128.03 78.2347C124.56 78.2347 121.748 81.0472 121.748 84.5166C121.748 87.986 124.56 90.7985 128.03 90.7985Z" fill="#B5D9CF"/>
<path d="M145.754 80.5578C147.855 78.4569 147.855 75.0506 145.754 72.9497C143.653 70.8488 140.247 70.8488 138.146 72.9497C136.045 75.0506 136.045 78.4569 138.146 80.5578C140.247 82.6587 143.653 82.6587 145.754 80.5578Z" fill="#B5D9CF"/>
<path d="M136.784 142.197C138.885 140.096 138.885 136.69 136.784 134.589C134.683 132.488 131.277 132.488 129.176 134.589C127.075 136.69 127.075 140.096 129.176 142.197C131.277 144.298 134.683 144.298 136.784 142.197Z" fill="#B5D9CF"/>
<path d="M111.803 138.712C113.904 136.611 113.904 133.205 111.803 131.104C109.702 129.003 106.296 129.003 104.195 131.104C102.094 133.205 102.094 136.611 104.195 138.712C106.296 140.813 109.702 140.813 111.803 138.712Z" fill="#B5D9CF"/>
<path d="M120.639 76.8978C122.74 74.7969 122.74 71.3907 120.639 69.2898C118.538 67.1889 115.132 67.1889 113.031 69.2898C110.93 71.3907 110.93 74.7969 113.031 76.8978C115.132 78.9987 118.538 78.9987 120.639 76.8978Z" fill="#B5D9CF"/>
<path d="M121.928 133.249C125.398 133.249 128.21 130.437 128.21 126.967C128.21 123.498 125.398 120.685 121.928 120.685C118.459 120.685 115.646 123.498 115.646 126.967C115.646 130.437 118.459 133.249 121.928 133.249Z" fill="#B5D9CF"/>
<path d="M108.601 51.5997L72.3486 57.0953L83.4007 130.001L119.653 124.506L108.601 51.5997Z" fill="#B5D9CF"/>
<path d="M106.063 55.9177L76.0525 60.4671L85.9387 125.682L115.949 121.133L106.063 55.9177Z" fill="#77AC9C"/>
<path d="M97.4824 100.573C104.735 99.4733 109.951 94.2065 109.133 88.8091C108.315 83.4117 101.772 79.9276 94.5194 81.027C87.2667 82.1265 82.0505 87.3932 82.8687 92.7906C83.6869 98.188 90.2297 101.672 97.4824 100.573Z" fill="#B5D9CF"/>
<path d="M97.2224 73.9951C99.6757 71.5419 99.6757 67.5644 97.2224 65.1111C94.7692 62.6579 90.7917 62.6579 88.3385 65.1111C85.8852 67.5644 85.8852 71.5419 88.3385 73.9951C90.7917 76.4484 94.7692 76.4483 97.2224 73.9951Z" fill="#B5D9CF"/>
<path d="M107.668 61.902C109.769 59.8011 109.769 56.3948 107.668 54.2939C105.568 52.193 102.161 52.193 100.06 54.2939C97.9595 56.3948 97.9595 59.8011 100.06 61.902C102.161 64.0029 105.568 64.0029 107.668 61.902Z" fill="#B5D9CF"/>
<path d="M118.248 121.24C119.098 118.393 117.478 115.396 114.631 114.547C111.784 113.698 108.787 115.317 107.938 118.165C107.089 121.012 108.708 124.008 111.555 124.858C114.403 125.707 117.399 124.087 118.248 121.24Z" fill="#B5D9CF"/>
<path d="M93.4459 124.637C94.0271 121.723 92.1362 118.89 89.2224 118.309C86.3087 117.728 83.4755 119.619 82.8943 122.532C82.3132 125.446 84.2041 128.279 87.1178 128.86C90.0316 129.442 92.8648 127.551 93.4459 124.637Z" fill="#B5D9CF"/>
<path d="M82.5666 65.6575C84.6675 63.5566 84.6675 60.1504 82.5666 58.0495C80.4657 55.9485 77.0595 55.9485 74.9586 58.0495C72.8577 60.1504 72.8577 63.5566 74.9586 65.6575C77.0595 67.7584 80.4657 67.7584 82.5666 65.6575Z" fill="#B5D9CF"/>
<path d="M103.651 116.398C106.104 113.944 106.104 109.967 103.651 107.514C101.198 105.061 97.2202 105.061 94.7669 107.514C92.3137 109.967 92.3137 113.944 94.7669 116.398C97.2202 118.851 101.198 118.851 103.651 116.398Z" fill="#B5D9CF"/>
<path opacity="0.16" d="M110.31 176.228C147.639 176.228 177.901 171.676 177.901 166.062C177.901 160.447 147.639 155.896 110.31 155.896C72.981 155.896 42.7197 160.447 42.7197 166.062C42.7197 171.676 72.981 176.228 110.31 176.228Z" fill="black"/>
<path d="M45.7654 77.9925C38.5869 76.3903 13.9605 70.52 13.9365 62.6258C13.9326 61.3744 14.5469 59.9365 15.6908 59.1758C17.9535 57.6721 24.3457 57.451 45.7654 77.9925Z" fill="url(#paint0_linear_104_415)"/>
<path d="M158.306 38.935C159.664 35.2889 169.534 9.30033 181.532 1.77152C182.363 1.2497 183.536 0.526832 183.956 0.892163C185.732 2.43758 171.757 21.4348 158.305 38.935H158.306Z" fill="url(#paint1_linear_104_415)"/>
<path d="M100.375 37.2314C95.7004 21.589 91.1533 3.57645 94.8985 1.8712C96.0173 1.36163 97.5126 2.47266 98.2377 3.01119C108.064 10.3089 100.887 35.495 100.375 37.2314Z" fill="url(#paint2_linear_104_415)"/>
<path d="M45.7653 35.1681C45.7653 35.1681 29.5727 14.0257 32.7766 12.424C35.9805 10.8224 45.4746 30.2968 45.7653 35.1681Z" fill="url(#paint3_linear_104_415)"/>
<path d="M173.021 80.9407C177.877 75.1628 189.174 62.3706 193.462 64.7146C193.662 64.8238 194.301 65.2142 194.499 65.9493C195.476 69.5848 184.069 75.7876 173.021 80.9407Z" fill="url(#paint4_linear_104_415)"/>
<path d="M165.733 62.4592C180.538 39.415 190.121 29.7505 195.484 25.3014C197.301 23.7933 201.532 20.0425 202.759 20.9725C203.874 21.8185 202.19 26.2854 200.371 29.3133C198.749 32.0132 196.955 33.6755 196.646 33.9612C191.995 38.2711 180.777 48.6881 165.734 62.4587L165.733 62.4592Z" fill="#FBB03B"/>
<path d="M50.9858 60.5908C40.4419 54.163 15.536 38.4298 13.9321 30.7111C13.7934 30.044 13.0277 26.36 14.2902 25.6845C15.2286 25.1822 17.1661 26.4074 18.0794 26.9849C18.9576 27.5401 19.5513 28.0569 19.6125 28.1371C20.1934 28.8951 50.9858 60.5908 50.9858 60.5908Z" fill="#FBB03B"/>
<path d="M81.3422 50.3722C70.2358 29.9883 64.8772 22.4846 62.1417 20.0637C61.5531 19.543 59.9559 18.2576 60.261 17.5342C60.6537 16.6042 64.1984 16.5852 66.005 18.4097C66.5296 18.9398 66.7774 19.4789 66.8197 19.6037C67.0508 20.2853 81.3422 50.3717 81.3422 50.3717V50.3722Z" fill="#FBB03B"/>
<path d="M122.841 50.3722C124.624 39.7264 128.076 22.3575 132.178 21.3863C132.535 21.3017 133.72 21.0215 134.183 21.5773C135.108 22.6861 132.464 26.2798 131.811 27.2038C129.389 30.6293 126.231 37.0955 122.841 50.3722H122.841Z" fill="#FBB03B"/>
<path d="M64.3649 45.9804C61.0335 45.9804 58.3325 48.6814 58.3325 52.0128C58.3325 55.3442 61.033 58.0452 64.3649 58.0452C67.6969 58.0452 70.3973 55.3448 70.3973 52.0128C70.3973 48.6808 67.6963 45.9804 64.3649 45.9804ZM64.3649 57.7044C61.2218 57.7044 58.6734 55.156 58.6734 52.0128C58.6734 48.8696 61.2218 46.3212 64.3649 46.3212C67.5081 46.3212 70.0565 48.8696 70.0565 52.0128C70.0565 55.156 67.5081 57.7044 64.3649 57.7044Z" fill="url(#paint5_linear_104_415)"/>
<path d="M116.003 14.9045C112.671 14.9045 109.97 17.6049 109.97 20.9369C109.97 24.2689 112.671 26.9693 116.003 26.9693C119.335 26.9693 122.035 24.2689 122.035 20.9369C122.035 17.6049 119.335 14.9045 116.003 14.9045ZM116.003 26.6285C112.859 26.6285 110.311 24.0801 110.311 20.9369C110.311 17.7937 112.859 15.2453 116.003 15.2453C119.146 15.2453 121.694 17.7937 121.694 20.9369C121.694 24.0801 119.146 26.6285 116.003 26.6285Z" fill="#FBB03B"/>
<path d="M206.967 45.9804C203.636 45.9804 200.935 48.6814 200.935 52.0128C200.935 55.3442 203.635 58.0452 206.967 58.0452C210.299 58.0452 213 55.3448 213 52.0128C213 48.6808 210.299 45.9804 206.967 45.9804ZM206.967 57.7044C203.824 57.7044 201.276 55.156 201.276 52.0128C201.276 48.8696 203.824 46.3212 206.967 46.3212C210.111 46.3212 212.659 48.8696 212.659 52.0128C212.659 55.156 210.111 57.7044 206.967 57.7044Z" fill="#FBB03B"/>
<path d="M6.03241 39.9485C2.70099 39.9485 0 42.6489 0 45.9809C0 49.3129 2.70044 52.0133 6.03241 52.0133C9.36437 52.0133 12.0648 49.3123 12.0648 45.9809C12.0648 42.6495 9.36437 39.9485 6.03241 39.9485ZM6.03241 51.6725C2.88923 51.6725 0.340826 49.1241 0.340826 45.9809C0.340826 42.8377 2.88923 40.2893 6.03241 40.2893C9.17558 40.2893 11.724 42.8377 11.724 45.9809C11.724 49.1241 9.17558 51.6725 6.03241 51.6725Z" fill="#FBB03B"/>
<path d="M150.703 1.66236C146.156 1.66236 142.471 5.34852 142.471 9.89511C142.471 14.4417 146.157 18.1279 150.703 18.1279C155.25 18.1279 158.936 14.4417 158.936 9.89511C158.936 5.34852 155.25 1.66236 150.703 1.66236ZM150.703 17.6634C146.413 17.6634 142.935 14.1855 142.935 9.89511C142.935 5.6047 146.413 2.12682 150.703 2.12682C154.994 2.12682 158.472 5.6047 158.472 9.89511C158.472 14.1855 154.994 17.6634 150.703 17.6634Z" fill="url(#paint6_linear_104_415)"/>
<path d="M188.063 86.6606C184.799 86.6606 182.152 89.3071 182.152 92.5716C182.152 95.8362 184.799 98.4826 188.063 98.4826C191.328 98.4826 193.974 95.8362 193.974 92.5716C193.974 89.3071 191.328 86.6606 188.063 86.6606ZM188.063 98.1485C184.983 98.1485 182.486 95.6513 182.486 92.5716C182.486 89.492 184.984 86.9948 188.063 86.9948C191.143 86.9948 193.64 89.492 193.64 92.5716C193.64 95.6513 191.143 98.1485 188.063 98.1485Z" fill="url(#paint7_linear_104_415)"/>
<path d="M41.0552 84.5356C36.5081 84.5356 32.8225 88.2218 32.8225 92.7684C32.8225 97.315 36.5087 101.001 41.0552 101.001C45.6018 101.001 49.288 97.315 49.288 92.7684C49.288 88.2218 45.6018 84.5356 41.0552 84.5356ZM41.0552 100.537C36.7648 100.537 33.287 97.0588 33.287 92.7684C33.287 88.478 36.7648 85.0001 41.0552 85.0001C45.3457 85.0001 48.8235 88.478 48.8235 92.7684C48.8235 97.0588 45.3457 100.537 41.0552 100.537Z" fill="url(#paint8_linear_104_415)"/>
<path d="M155.612 59.3071C156.563 59.3071 157.333 58.5365 157.333 57.5857C157.333 56.635 156.563 55.8643 155.612 55.8643C154.661 55.8643 153.891 56.635 153.891 57.5857C153.891 58.5365 154.661 59.3071 155.612 59.3071Z" fill="#FFEE9C"/>
<path d="M92.4916 37.2314C93.2944 37.2314 93.9451 36.5806 93.9451 35.7779C93.9451 34.9751 93.2944 34.3244 92.4916 34.3244C91.6889 34.3244 91.0381 34.9751 91.0381 35.7779C91.0381 36.5806 91.6889 37.2314 92.4916 37.2314Z" fill="#FFEE9C"/>
<path d="M53.9064 10.4893C54.7092 10.4893 55.3599 9.83856 55.3599 9.0358C55.3599 8.23304 54.7092 7.58228 53.9064 7.58228C53.1036 7.58228 52.4529 8.23304 52.4529 9.0358C52.4529 9.83856 53.1036 10.4893 53.9064 10.4893Z" fill="#FFEE9C"/>
<path d="M44.2042 65.806C44.3101 64.9395 43.6936 64.1513 42.8272 64.0454C41.9607 63.9394 41.1725 64.556 41.0665 65.4224C40.9606 66.2888 41.5771 67.0771 42.4436 67.183C43.31 67.2889 44.0983 66.6724 44.2042 65.806Z" fill="#FFEE9C"/>
<path d="M8.56465 91.9761C8.85919 91.3083 8.5566 90.5282 7.8888 90.2337C7.221 89.9391 6.44087 90.2417 6.14634 90.9095C5.8518 91.5773 6.1544 92.3575 6.8222 92.652C7.49 92.9465 8.27012 92.6439 8.56465 91.9761Z" fill="#FFEE9C"/>
<path d="M126.871 5.12759C127.136 4.25332 126.642 3.32994 125.767 3.06515C124.893 2.80036 123.97 3.29443 123.705 4.1687C123.44 5.04297 123.934 5.96636 124.809 6.23115C125.683 6.49594 126.606 6.00186 126.871 5.12759Z" fill="#FFEE9C"/>
<path d="M209.189 29.189C209.697 28.6809 209.697 27.8572 209.189 27.3491C208.681 26.8411 207.857 26.8411 207.349 27.3492C206.841 27.8572 206.841 28.6809 207.349 29.189C207.857 29.697 208.681 29.697 209.189 29.189Z" fill="#FFEE9C"/>
<path d="M176.406 109.681C176.499 108.745 175.815 107.911 174.879 107.818C173.942 107.726 173.108 108.409 173.016 109.346C172.923 110.282 173.607 111.116 174.543 111.209C175.479 111.301 176.314 110.617 176.406 109.681Z" fill="#D3D3D3"/>
<path d="M148.988 104.417C152.517 100.889 152.517 95.1676 148.988 91.6389C145.459 88.1102 139.738 88.1102 136.21 91.6389C132.681 95.1676 132.681 100.889 136.21 104.417C139.738 107.946 145.459 107.946 148.988 104.417Z" fill="#FF932B"/>
<path d="M148.576 94.2396L142.323 91.5554L141.973 92.3712L143.442 93.0016C144.532 93.4694 145.078 94.679 144.748 95.789L141.166 94.2508L140.874 94.9302L144.429 96.4561C143.813 97.3394 142.641 97.7008 141.614 97.2603L140.144 96.6299L139.794 97.4458L139.81 97.4524L141.256 104.325L142.404 104.818L140.958 97.9453L141.263 98.0762C142.741 98.7105 144.437 98.143 145.256 96.812L147.126 97.6151L147.418 96.9356L145.568 96.1415C145.823 95.378 145.771 94.5738 145.472 93.8738L148.225 95.0555L148.576 94.2396H148.576Z" fill="white"/>
<path d="M119.29 110.017C122.819 106.489 122.819 100.767 119.29 97.2387C115.762 93.71 110.041 93.71 106.512 97.2387C102.983 100.767 102.983 106.489 106.512 110.017C110.041 113.546 115.762 113.546 119.29 110.017Z" fill="#FF932B"/>
<path d="M114.925 97.3277L108.403 99.2679L108.655 100.119L110.187 99.6633C111.324 99.3253 112.518 99.9045 112.975 100.969L109.239 102.08L109.45 102.789L113.157 101.687C113.25 102.759 112.58 103.788 111.509 104.106L109.977 104.562L110.23 105.413L110.247 105.408L115.755 109.762L116.953 109.406L111.444 105.051L111.762 104.957C113.303 104.498 114.243 102.976 114.021 101.429L115.971 100.849L115.76 100.14L113.831 100.714C113.537 99.9646 112.983 99.3799 112.306 99.0329L115.177 98.1786L114.925 97.3277H114.925Z" fill="white"/>
<path d="M86.2641 103.898C90.1355 100.027 90.1355 93.7498 86.2641 89.8783C82.3926 86.0069 76.1157 86.0069 72.2443 89.8783C68.3728 93.7498 68.3728 100.027 72.2443 103.898C76.1157 107.77 82.3926 107.77 86.2641 103.898Z" fill="#FF932B"/>
<path d="M81.1876 89.702L74.801 92.051L75.1073 92.8842L76.6076 92.3323C77.7209 91.9229 78.9489 92.4258 79.4729 93.4583L75.8135 94.8044L76.0685 95.4983L79.699 94.1628C79.8588 95.2271 79.2557 96.2963 78.2071 96.6823L76.7068 97.2341L77.0131 98.0673L77.0298 98.0612L82.8038 102.058L83.976 101.627L78.202 97.6301L78.5134 97.5154C80.0226 96.9602 80.8646 95.3819 80.5444 93.8521L82.4546 93.1492L82.1995 92.4553L80.3099 93.1504C79.9697 92.4208 79.3799 91.8723 78.6815 91.5693L81.4928 90.5351L81.1865 89.702H81.1876Z" fill="white"/>
<path d="M140.678 167.413L73.9895 165.951L69.1272 99.9871H144.973L140.678 167.413Z" fill="url(#paint9_linear_104_415)"/>
<path d="M144.973 99.9871L156.39 102.902L151.741 160.73L140.678 167.413L144.973 99.9871Z" fill="url(#paint10_linear_104_415)"/>
<path opacity="0.1" d="M156.391 102.903L151.742 160.729L148.373 162.764L145.708 164.375L140.679 167.412L144.974 99.9871L150.321 101.353L153.413 102.143L156.391 102.903Z" fill="black"/>
<path opacity="0.1" d="M144.902 101.101L156.317 103.976L156.39 102.902L144.973 99.9871L144.902 101.101Z" fill="black"/>
<path opacity="0.07" d="M101.086 100.067L114.645 99.9871L114.638 166.83L100.944 166.574L101.086 100.067Z" fill="black"/>
<path d="M114.082 99.9871V166.83L100.528 166.573V99.9871H114.082Z" fill="#FBB03B"/>
<path d="M153.413 102.143L148.373 162.764L148.363 162.89L145.708 164.375L150.321 101.352L153.413 102.143Z" fill="#FBB03B"/>
<path opacity="0.69" d="M102.592 100.441V165.923C102.592 166.002 102.517 166.065 102.427 166.062L101.708 166.037C101.623 166.035 101.556 165.974 101.556 165.9L101.088 100.443C101.101 100.315 101.123 100.161 101.16 99.9871H102.575C102.574 100.158 102.581 100.31 102.592 100.44V100.441Z" fill="white"/>
<path d="M183.473 158.765L173.879 161.605L162.782 132.239L158.718 121.487L158.262 120.28L157.989 119.557L146.888 90.1814L155.275 85.6477L166.939 115.891L167.192 116.548L167.681 117.817L171.816 128.539L183.473 158.765Z" fill="url(#paint11_linear_104_415)"/>
<path d="M200.955 131.269C200.907 122.834 172.568 123.523 172.568 123.523C172.568 123.523 170.519 124.538 171.414 126.856C172.309 129.175 187.672 147.277 191.893 146.889C196.115 146.501 201.003 139.703 200.955 131.269V131.269ZM179.421 131.799C174.761 128.024 174.909 127.84 173.924 127.477C173.461 127.306 172.139 126.866 172.103 126.172C172.08 125.736 172.576 125.381 172.729 125.273C172.993 125.083 173.298 124.963 173.636 124.898C175.133 124.612 177.29 125.415 179.625 126.107C183.764 127.335 183.369 126.707 188.323 128.193C193.084 129.623 193.818 130.312 194.279 131.014C195.719 133.206 194.916 135.994 194.749 136.572C194.462 137.568 193.844 139.711 192.266 140.227C191.265 140.555 190.243 140.106 186.19 137.09C183.346 134.973 180.946 133.036 179.751 132.066C179.628 131.967 179.518 131.877 179.421 131.799Z" fill="#FBB03B"/>
<path d="M191.024 104.352C192.23 100.515 184.558 91.9045 177.522 91.9468C169.406 91.9947 167.216 116.61 167.216 116.61C167.216 116.61 170.035 121.34 171.529 120.776C173.024 120.211 189.818 108.19 191.024 104.352ZM171.384 118.838C170.693 118.83 169.922 118.468 169.504 117.858C169.043 117.185 169.117 116.409 169.508 115.325C169.983 114.005 170.93 112.228 171.949 109.629C173.783 104.954 173.534 103.534 175.576 101.014C176.647 99.6917 177.787 98.3267 179.541 98.2471C181.578 98.1546 183.687 99.8287 184.058 101.733C184.217 102.546 184.056 103.435 181.942 106.517C180.159 109.117 179.236 109.994 178.047 111.353C177.506 111.972 176.909 112.69 176.15 113.716C173.771 116.934 172.995 118.858 171.385 118.838H171.384Z" fill="#FBB03B"/>
<path opacity="0.07" d="M169.508 115.325C169.268 114.298 169.933 112.095 171.028 108.468C171.74 106.108 172.426 103.792 174.009 101.183C175.617 98.5349 176.987 96.2789 179.205 96.0801C181.004 95.9191 182.527 97.1833 183.573 98.0515C184.679 98.9693 186.147 100.188 186.266 101.984C186.372 103.578 185.364 104.844 183.76 106.856C182.88 107.96 182.025 108.698 181.716 108.956C181.127 109.449 180.62 109.792 180.206 110.071C179.361 110.638 178.612 111.059 178.047 111.353C179.237 109.994 180.159 109.117 181.942 106.517C184.055 103.435 184.216 102.546 184.058 101.733C183.686 99.8286 181.577 98.1551 179.541 98.247C177.786 98.3266 176.646 99.6916 175.575 101.014C173.533 103.534 173.783 104.954 171.948 109.629C170.929 112.228 169.983 114.005 169.507 115.325H169.508Z" fill="black"/>
<path opacity="0.07" d="M190.805 142.591C187.883 142.608 185.727 140.088 183.395 137.362C182.394 136.192 181.046 134.437 179.751 132.066C180.946 133.036 183.346 134.974 186.191 137.09C190.244 140.106 191.265 140.555 192.266 140.227C193.844 139.712 194.462 137.568 194.749 136.572C194.916 135.994 195.72 133.206 194.279 131.015C193.818 130.312 193.084 129.623 188.323 128.194C183.37 126.707 183.765 127.336 179.626 126.108C177.291 125.415 175.133 124.612 173.636 124.899C173.488 124.564 173.498 124.37 173.583 124.256C173.935 123.784 175.521 124.437 177.471 124.959C178.442 125.219 179.535 125.392 181.72 125.738C185.709 126.371 186.828 126.128 189.925 126.932C191.406 127.317 192.096 127.622 192.381 127.747C193.693 128.325 195.264 129.015 196.394 130.698C197.92 132.971 198.128 136.434 196.554 139.029C195.659 140.506 194.441 141.321 193.762 141.705C193.116 142.094 192.082 142.583 190.806 142.59L190.805 142.591Z" fill="black"/>
<path d="M167.216 116.61C167.216 116.61 173.191 116.112 174.501 122.137C175.812 128.161 173.005 128.911 172.007 129.289L167.216 116.61Z" fill="#FBB03B"/>
<path opacity="0.69" d="M184.98 95.017C185.028 94.9329 183.367 93.6431 181.097 92.9425C179.931 92.5828 178.938 92.4814 178.491 92.438C177.722 92.3634 177.337 92.326 176.869 92.4068C175.71 92.6073 174.953 93.3457 174.265 94.0352C173.212 95.0894 172.683 96.1314 171.974 97.5576C171.317 98.8775 170.95 99.9289 170.984 99.944C171.032 99.9651 171.636 97.806 173.379 95.7382C174.185 94.7826 175.467 93.3045 177.473 92.9787C178.251 92.8523 178.822 92.9503 179.842 93.1352C182.958 93.6999 184.929 95.1078 184.98 95.017Z" fill="white"/>
<path opacity="0.69" d="M185.963 124.349C185.976 124.273 188.687 124.576 191.791 125.286C193.069 125.579 194.114 125.931 196.206 126.637C197.166 126.961 197.919 127.236 198.734 127.87C199.17 128.208 199.867 128.764 200.321 129.751C200.715 130.609 200.73 131.369 200.74 131.926C200.76 132.937 200.558 133.982 200.429 133.976C200.334 133.972 200.62 132.704 200.184 131.09C200.061 130.638 199.857 129.909 199.305 129.179C198.682 128.353 197.927 127.939 197.403 127.674C195.011 126.462 192.543 125.878 192.23 125.805C187.455 124.701 185.955 124.406 185.964 124.35L185.963 124.349Z" fill="white"/>
<path d="M166.938 115.891L157.988 119.557L158.261 120.28L158.718 121.487L162.781 132.24L171.816 128.539L167.68 117.816L167.191 116.548L166.938 115.891Z" fill="#FBB03B"/>
<path opacity="0.69" d="M167.681 117.817L158.718 121.487L158.262 120.28L167.192 116.548L167.681 117.817Z" fill="white"/>
<path d="M153.277 49.431C156.806 45.9023 156.806 40.1811 153.277 36.6524C149.748 33.1237 144.027 33.1237 140.498 36.6524C136.97 40.1811 136.97 45.9023 140.498 49.431C144.027 52.9597 149.748 52.9597 153.277 49.431Z" fill="#FF932B"/>
<path d="M149.976 37.7761L143.248 38.7963L143.381 39.674L144.962 39.4345C146.134 39.2569 147.237 39.9959 147.542 41.113L143.687 41.6972L143.798 42.4284L147.623 41.8487C147.566 42.9235 146.761 43.8497 145.656 44.0173L144.076 44.2568L144.209 45.1345L144.226 45.1317L149.081 50.2056L150.316 50.0185L145.461 44.9445L145.789 44.895C147.379 44.6538 148.521 43.2766 148.514 41.7139L150.526 41.4088L150.415 40.6775L148.425 40.9794C148.238 40.1964 147.77 39.5403 147.147 39.1037L150.109 38.6549L149.975 37.7772L149.976 37.7761Z" fill="white"/>
<path d="M66.612 83.1431C70.1407 79.6144 70.1407 73.8932 66.612 70.3645C63.0832 66.8358 57.3621 66.8358 53.8334 70.3645C50.3047 73.8932 50.3047 79.6144 53.8334 83.1431C57.3621 86.6718 63.0832 86.6718 66.612 83.1431Z" fill="#FF932B"/>
<path d="M65.8491 72.4451L59.4481 70.1368L59.1468 70.9716L60.6504 71.514C61.7659 71.9161 62.3835 73.0911 62.1201 74.2189L58.4523 72.8962L58.2011 73.5918L61.84 74.9044C61.2781 75.8222 60.1286 76.2533 59.0772 75.874L57.5735 75.3316L57.2722 76.1664L57.2889 76.1725L59.1395 82.9467L60.3146 83.3705L58.464 76.5963L58.7759 76.7088C60.289 77.2546 61.9486 76.5868 62.687 75.2096L64.6017 75.9002L64.8528 75.2046L62.9588 74.5218C63.1671 73.7444 63.0685 72.9447 62.7288 72.2636L65.5467 73.2799L65.848 72.4451H65.8491Z" fill="white"/>
<path d="M74.2328 18.0716C79.2232 18.0716 83.2687 14.0261 83.2687 9.03581C83.2687 4.04547 79.2232 0 74.2328 0C69.2425 0 65.197 4.04547 65.197 9.03581C65.197 14.0261 69.2425 18.0716 74.2328 18.0716Z" fill="#FF932B"/>
<path d="M78.1819 3.8176H71.377V4.70531H72.9759C74.1621 4.70531 75.1412 5.60137 75.2759 6.75138H71.377V7.49095H75.2453C75.0281 8.54518 74.0931 9.34044 72.9753 9.34044H71.3765V10.2281H71.3943L75.4335 15.9726H76.6827L72.6434 10.2281H72.9753C74.5837 10.2281 75.9186 9.03748 76.1458 7.49151H78.1813V6.75194H76.1681C76.1007 5.94999 75.7365 5.23103 75.1857 4.70586H78.1813V3.81815L78.1819 3.8176Z" fill="white"/>
</g>
<defs>
<linearGradient id="paint0_linear_104_415" x1="16.9339" y1="72.7229" x2="41.569" y2="64.9414" gradientUnits="userSpaceOnUse">
<stop stop-color="#D33C3C"/>
<stop offset="1" stop-color="#A32424"/>
</linearGradient>
<linearGradient id="paint1_linear_104_415" x1="167.875" y1="4.26465" x2="174.737" y2="35.3178" gradientUnits="userSpaceOnUse">
<stop stop-color="#D33C3C"/>
<stop offset="1" stop-color="#A32424"/>
</linearGradient>
<linearGradient id="paint2_linear_104_415" x1="88.8801" y1="9.09405" x2="109.648" y2="28.3322" gradientUnits="userSpaceOnUse">
<stop stop-color="#D33C3C"/>
<stop offset="1" stop-color="#A32424"/>
</linearGradient>
<linearGradient id="paint3_linear_104_415" x1="29.0689" y1="20.1786" x2="48.1529" y2="27.8271" gradientUnits="userSpaceOnUse">
<stop stop-color="#D33C3C"/>
<stop offset="1" stop-color="#A32424"/>
</linearGradient>
<linearGradient id="paint4_linear_104_415" x1="187.118" y1="61.1603" x2="181.011" y2="81.5802" gradientUnits="userSpaceOnUse">
<stop stop-color="#D33C3C"/>
<stop offset="1" stop-color="#A32424"/>
</linearGradient>
<linearGradient id="paint5_linear_104_415" x1="58.3325" y1="52.0128" x2="70.3968" y2="52.0128" gradientUnits="userSpaceOnUse">
<stop stop-color="#D33C3C"/>
<stop offset="1" stop-color="#A32424"/>
</linearGradient>
<linearGradient id="paint6_linear_104_415" x1="142.471" y1="9.89511" x2="158.937" y2="9.89511" gradientUnits="userSpaceOnUse">
<stop stop-color="#D33C3C"/>
<stop offset="1" stop-color="#A32424"/>
</linearGradient>
<linearGradient id="paint7_linear_104_415" x1="182.152" y1="92.5716" x2="193.974" y2="92.5716" gradientUnits="userSpaceOnUse">
<stop stop-color="#D33C3C"/>
<stop offset="1" stop-color="#A32424"/>
</linearGradient>
<linearGradient id="paint8_linear_104_415" x1="32.822" y1="92.7684" x2="49.288" y2="92.7684" gradientUnits="userSpaceOnUse">
<stop stop-color="#D33C3C"/>
<stop offset="1" stop-color="#A32424"/>
</linearGradient>
<linearGradient id="paint9_linear_104_415" x1="69.1272" y1="133.7" x2="144.973" y2="133.7" gradientUnits="userSpaceOnUse">
<stop stop-color="#D33C3C"/>
<stop offset="1" stop-color="#A32424"/>
</linearGradient>
<linearGradient id="paint10_linear_104_415" x1="140.678" y1="133.7" x2="156.39" y2="133.7" gradientUnits="userSpaceOnUse">
<stop stop-color="#AA251F"/>
<stop offset="1" stop-color="#931C1C"/>
</linearGradient>
<linearGradient id="paint11_linear_104_415" x1="146.888" y1="123.626" x2="183.473" y2="123.626" gradientUnits="userSpaceOnUse">
<stop stop-color="#D33C3C"/>
<stop offset="1" stop-color="#A32424"/>
</linearGradient>
<clipPath id="clip0_104_415">
<rect width="213" height="176.227" fill="white"/>
</clipPath>
</defs>
</svg>
