<svg width="50" height="50" viewBox="0 0 50 50" fill="none" xmlns="http://www.w3.org/2000/svg">
<g id="wallet-filled-money">
<g id="Group">
<g id="Group_2">
<path id="Vector" d="M11.6844 10.1384L31.617 4.69761L30.5614 2.56397C29.8708 1.17711 28.1863 0.6044 26.7995 1.29502L8.95557 10.1384H11.6844Z" fill="url(#paint0_linear_1018_64)"/>
<path id="Vector_2" d="M37.8045 4.85547C37.5575 4.85547 37.3104 4.88916 37.0633 4.95654L32.3806 6.23672L18.0796 10.139H34.312H41.3867L40.5108 6.92734C40.1739 5.67523 39.0397 4.85547 37.8045 4.85547Z" fill="url(#paint1_linear_1018_64)"/>
<path id="Vector_3" d="M44.3122 12.1035H43.6721H42.8018H41.9315H35.2892H10.8815H7.68108H4.98596H4.48624H2.81303C1.92588 12.1035 1.13419 12.5134 0.617631 13.1591C0.381808 13.4567 0.202134 13.7992 0.101067 14.1754C0.0393038 14.4112 0 14.6583 0 14.9109V15.2478V18.4483V46.1911C0 47.7409 1.25772 48.9985 2.80741 48.9985H44.3066C45.8563 48.9985 47.114 47.7409 47.114 46.1911V38.3584H30.4548C27.8215 38.3584 25.6822 36.2192 25.6822 33.5858V31.0142V30.1439V29.2736V27.3421C25.6822 26.0507 26.1987 24.8773 27.0354 24.0182C27.7765 23.2546 28.7704 22.738 29.8821 22.6088C30.0674 22.5864 30.2583 22.5752 30.4492 22.5752H44.7782H45.6485H46.5188H47.114V14.9109C47.1196 13.3612 45.8619 12.1035 44.3122 12.1035Z" fill="url(#paint2_linear_1018_64)"/>
<path id="Vector_4" d="M49.0849 25.2589C48.8041 25.0006 48.4728 24.8041 48.1023 24.675C47.8159 24.5796 47.5127 24.5234 47.1927 24.5234H47.1197H47.0635H46.1932H43.0545H30.4549C28.9051 24.5234 27.6475 25.7811 27.6475 27.3308V28.7289V29.5992V30.4695V33.5801C27.6475 35.1298 28.9051 36.3875 30.4549 36.3875H47.1197H47.1927C47.5127 36.3875 47.8159 36.3314 48.1023 36.2359C48.4728 36.1124 48.8041 35.9102 49.0849 35.652C49.6463 35.141 50.0001 34.3999 50.0001 33.5801V27.3308C50.0001 26.511 49.6463 25.7698 49.0849 25.2589ZM36.3167 31.0141C36.3167 31.789 35.6879 32.4178 34.913 32.4178H33.981C33.2061 32.4178 32.5773 31.789 32.5773 31.0141V30.0821C32.5773 29.6329 32.785 29.2342 33.1163 28.9815C33.3577 28.7962 33.6554 28.6784 33.981 28.6784H34.2168H34.913C35.6879 28.6784 36.3167 29.3072 36.3167 30.0821V31.0141Z" fill="url(#paint3_linear_1018_64)"/>
</g>
</g>
</g>
<defs>
<linearGradient id="paint0_linear_1018_64" x1="20.2863" y1="1.00195" x2="20.2863" y2="10.1384" gradientUnits="userSpaceOnUse">
<stop stop-color="#41B212"/>
<stop offset="1" stop-color="#95D979"/>
</linearGradient>
<linearGradient id="paint1_linear_1018_64" x1="29.7332" y1="4.85547" x2="29.7332" y2="10.139" gradientUnits="userSpaceOnUse">
<stop stop-color="#41B212"/>
<stop offset="1" stop-color="#95D979"/>
</linearGradient>
<linearGradient id="paint2_linear_1018_64" x1="23.557" y1="12.1035" x2="23.557" y2="48.9985" gradientUnits="userSpaceOnUse">
<stop stop-color="#41B212"/>
<stop offset="1" stop-color="#95D979"/>
</linearGradient>
<linearGradient id="paint3_linear_1018_64" x1="38.8238" y1="24.5234" x2="38.8238" y2="36.3875" gradientUnits="userSpaceOnUse">
<stop stop-color="#41B212"/>
<stop offset="1" stop-color="#95D979"/>
</linearGradient>
</defs>
</svg>
