<svg width="24" height="24" viewBox="0 0 24 24" fill="none" xmlns="http://www.w3.org/2000/svg">
<g id="Frame" clip-path="url(#clip0_953_6)">
<path id="Vector" d="M23.7683 9.92276C23.5614 9.30207 23.2055 8.78069 22.7255 8.34207C20.0938 5.95862 17.4621 3.57517 14.8386 1.18345C14.16 0.571034 13.3986 0.148966 12.48 0.0331034C12.4552 0.0331034 12.4386 0.0165517 12.4221 0H11.5779C11.1972 0.107586 10.8 0.173793 10.4441 0.33931C10.0386 0.537931 9.6331 0.777931 9.29379 1.08414C6.63724 3.46759 4.00552 5.86759 1.36552 8.26759C0.637241 8.92966 0.182069 9.72414 0.0413793 10.7007C0.0413793 10.7421 0.0165517 10.7917 0 10.8331V20.4414C0.0413793 20.6317 0.0744828 20.8221 0.132414 21.0041C0.637241 22.651 1.72138 23.6524 3.42621 23.9669C3.46759 23.9669 3.51724 23.9917 3.55862 24.0083H20.4828C20.7972 23.9255 21.12 23.8759 21.4179 23.7517C22.891 23.1559 23.6772 22.0138 23.9503 20.4828C23.9669 20.4083 23.9834 20.3338 24 20.2593V10.8248C23.9255 10.5269 23.8676 10.2207 23.7683 9.92276Z" fill="white"/>
</g>
<defs>
<clipPath id="clip0_953_6">
<rect width="24" height="24" fill="white"/>
</clipPath>
</defs>
</svg>
