<svg width="41" height="41" viewBox="0 0 41 41" fill="none" xmlns="http://www.w3.org/2000/svg">
<g clip-path="url(#clip0_963_18633)">
<rect width="26" height="26" transform="translate(7.5 7.5)" fill="#54D6FF"/>
<path d="M9.02344 9.02344H13.5938V7.5H7.5V13.5938H9.02344V9.02344Z" fill="white"/>
<path d="M27.4062 7.5V9.02344H31.9766V13.5938H33.5V7.5H27.4062Z" fill="white"/>
<path d="M31.9766 31.9766H27.4062V33.5H33.5V27.4062H31.9766V31.9766Z" fill="white"/>
<path d="M9.02344 27.4062H7.5V33.5H13.5938V31.9766H9.02344V27.4062Z" fill="white"/>
<path d="M10.5977 10.5469V18.1641H18.2148V13.5938H19.7383V12.0703H18.2148V10.5469H10.5977ZM16.6914 16.6406H12.1211V12.0703H16.6914V16.6406Z" fill="white"/>
<path d="M30.4023 30.3516V22.7344H27.3555V21.2109H25.832V22.7344H21.2617V24.2578H22.7852V25.7812H21.2617V27.3047H22.7852V30.3516H30.4023ZM24.3086 24.2578H28.8789V28.8281H24.3086V24.2578Z" fill="white"/>
<path d="M15.168 21.2109H18.2148V19.6875H10.5977V21.2109H13.6445V22.7344H12.1211V24.2578H13.6445V27.3047H12.1211V28.8281H13.6445V30.3516H21.2617V28.8281H19.7383V27.3047H18.2148V28.8281H15.168V27.3047H16.6914V25.7812H15.168V21.2109Z" fill="white"/>
<path d="M13.6445 13.5938H15.168V15.1172H13.6445V13.5938Z" fill="white"/>
<path d="M25.832 13.5938H27.3555V15.1172H25.832V13.5938Z" fill="white"/>
<path d="M27.3555 18.1641H30.4023V10.5469H22.7852V18.1641H25.832V19.6875H27.3555V18.1641ZM24.3086 16.6406V12.0703H28.8789V16.6406H24.3086Z" fill="white"/>
<path d="M30.4023 21.2109V19.6875C30.0338 19.6875 27.7266 19.6875 27.3555 19.6875V21.2109H30.4023Z" fill="white"/>
<path d="M25.832 25.7812H27.3555V27.3047H25.832V25.7812Z" fill="white"/>
<path d="M19.7383 24.2578H21.2617V25.7812H19.7383V24.2578Z" fill="white"/>
<path d="M16.6914 25.7812H18.2148C18.2148 25.4127 18.2148 23.1055 18.2148 22.7344H16.6914V25.7812Z" fill="white"/>
<path d="M18.2148 21.2109H19.7383V22.7344H18.2148V21.2109Z" fill="white"/>
<path d="M12.1211 24.2578H10.5977V27.3047H12.1211C12.1211 26.9361 12.1211 24.629 12.1211 24.2578Z" fill="white"/>
<path d="M10.5977 28.8281H12.1211V30.3516H10.5977V28.8281Z" fill="white"/>
<path d="M19.7383 10.5469H21.2617V12.0703H19.7383V10.5469Z" fill="white"/>
<path d="M19.7383 16.6406H21.2617C21.2617 16.2721 21.2617 13.9649 21.2617 13.5938H19.7383V16.6406Z" fill="white"/>
<path d="M21.2617 19.6875V18.1641H19.7383V21.2109H25.832V19.6875H21.2617Z" fill="white"/>
</g>
<defs>
<clipPath id="clip0_963_18633">
<rect width="26" height="26" fill="white" transform="translate(7.5 7.5)"/>
</clipPath>
</defs>
</svg>
