<svg width="20" height="20" viewBox="0 0 20 20" fill="none" xmlns="http://www.w3.org/2000/svg">
<g clip-path="url(#clip0_969_25988)">
<rect width="20" height="20" rx="10" fill="url(#paint0_radial_969_25988)"/>
<g filter="url(#filter0_d_969_25988)">
<path d="M14.7483 11.8841C14.6687 11.8045 14.5742 11.7413 14.4702 11.6982C14.3662 11.6551 14.2547 11.633 14.1421 11.633C14.0295 11.633 13.918 11.6551 13.814 11.6982C13.71 11.7413 13.6155 11.8045 13.5359 11.8841L13.0926 12.3278L12.6733 12.2774L12.1451 11.4027C12.0574 11.2574 12.0033 11.0942 11.9868 10.9253C11.9704 10.7563 11.992 10.5858 12.05 10.4262L13.3357 6.88754C13.4134 6.67374 13.403 6.43784 13.3067 6.23173C13.2105 6.02562 13.0363 5.86618 12.8225 5.78848C12.6088 5.71079 12.3729 5.7212 12.1667 5.81744C11.9606 5.91367 11.8012 6.08784 11.7235 6.30163L11.4292 7.1112C11.4177 7.14143 11.3978 7.16773 11.3718 7.18701C11.3459 7.20628 11.3149 7.21774 11.2827 7.22001C11.2504 7.22228 11.2182 7.21528 11.1897 7.19984C11.1613 7.18439 11.1379 7.16114 11.1223 7.13283C11.0582 7.0142 10.9902 6.89964 10.9182 6.78917C10.6184 6.33265 10.2615 5.96919 9.85701 5.70879C9.40274 5.41594 8.91337 5.26758 8.40277 5.26758C7.89217 5.26758 7.40279 5.41594 6.94832 5.70879C6.54404 5.96919 6.18711 6.33265 5.88712 6.78917C5.31448 7.65915 5 8.79912 5 9.99929C5 11.1995 5.31448 12.3394 5.88569 13.2092C6.18548 13.6659 6.54241 14.0294 6.94689 14.2898C7.40116 14.5824 7.89054 14.7308 8.40134 14.7308C8.91214 14.7308 9.40131 14.5824 9.85559 14.2898C10.2599 14.0294 10.6168 13.6659 10.9168 13.2092C10.9723 13.125 11.0253 13.0381 11.0758 12.9484L11.4106 13.5033C11.667 13.9276 12.1116 14.2069 12.6312 14.2702C12.702 14.2787 12.7732 14.283 12.8445 14.2831C13.2994 14.2831 13.739 14.108 14.0514 13.7951L14.7493 13.0966C14.8289 13.0169 14.892 12.9223 14.935 12.8183C14.978 12.7142 15.0001 12.6027 15 12.4901C14.9999 12.3775 14.9776 12.2661 14.9344 12.1621C14.8913 12.0581 14.828 11.9637 14.7483 11.8841ZM8.40154 13.0161C7.6034 13.0161 6.71424 11.7772 6.71424 9.99929C6.71424 8.22138 7.60299 6.98223 8.40073 6.98223C9.19846 6.98223 10.0874 8.22138 10.0874 9.99929C10.0874 11.7772 9.19866 13.0161 8.40113 13.0161H8.40154Z" fill="white"/>
</g>
</g>
<defs>
<filter id="filter0_d_969_25988" x="0" y="2.26758" width="20" height="19.4629" filterUnits="userSpaceOnUse" color-interpolation-filters="sRGB">
<feFlood flood-opacity="0" result="BackgroundImageFix"/>
<feColorMatrix in="SourceAlpha" type="matrix" values="0 0 0 0 0 0 0 0 0 0 0 0 0 0 0 0 0 0 127 0" result="hardAlpha"/>
<feOffset dy="2"/>
<feGaussianBlur stdDeviation="2.5"/>
<feComposite in2="hardAlpha" operator="out"/>
<feColorMatrix type="matrix" values="0 0 0 0 0.0123611 0 0 0 0 0.370833 0 0 0 0 0.0482083 0 0 0 0.2 0"/>
<feBlend mode="normal" in2="BackgroundImageFix" result="effect1_dropShadow_969_25988"/>
<feBlend mode="normal" in="SourceGraphic" in2="effect1_dropShadow_969_25988" result="shape"/>
</filter>
<radialGradient id="paint0_radial_969_25988" cx="0" cy="0" r="1" gradientUnits="userSpaceOnUse" gradientTransform="translate(-2.26749e-08 8.73048) rotate(48.4158) scale(15.0666)">
<stop stop-color="#EF833F"/>
<stop offset="0.677083" stop-color="#B83A10"/>
<stop offset="1" stop-color="#A92A0E"/>
</radialGradient>
<clipPath id="clip0_969_25988">
<rect width="20" height="20" rx="10" fill="white"/>
</clipPath>
</defs>
</svg>
