<svg width="20" height="20" viewBox="0 0 20 20" fill="none" xmlns="http://www.w3.org/2000/svg">
<g clip-path="url(#clip0_883_123)">
<path d="M10.001 18.8803L13.963 17.8797C16.2246 16.0018 17.665 13.1693 17.665 10.0001C17.665 5.11164 14.2388 1.02348 9.65676 0.00585938C4.29285 0.186758 0 4.59207 0 10C0 12.7779 1.13281 15.2909 2.96141 17.103L10.001 18.8803Z" fill="#CBE2FF"/>
<path d="M17.4575 10C17.4575 13.2779 15.8802 16.1871 13.4433 18.0109L17.0383 17.103C18.867 15.2909 20 12.7779 20 10C20 4.47715 15.5228 0 9.99997 0C9.56935 0 9.14505 0.0272656 8.72876 0.0800781C13.6514 0.704609 17.4575 4.90781 17.4575 10Z" fill="#BED8FB"/>
<path d="M12.4852 3.78805C12.4852 3.2773 12.0712 2.86328 11.5604 2.86328H8.37362C7.19819 2.86328 6.2453 3.81617 6.2453 4.9916V7.35461H13.7535V5.02512C13.7535 4.51438 13.3394 4.10035 12.8287 4.10035H12.7975C12.625 4.10035 12.4852 3.96055 12.4852 3.78805Z" fill="#365E7D"/>
<path d="M12.8287 4.10039H12.7975C12.625 4.10039 12.4852 3.96055 12.4852 3.78805C12.4852 3.2773 12.0712 2.86328 11.5604 2.86328H11.211V7.35461H13.7534V5.02512C13.7535 4.51445 13.3394 4.10039 12.8287 4.10039Z" fill="#2B4D66"/>
<path d="M16.6033 14.5452C16.3588 14.3037 16.0564 14.1169 15.7131 14.0082L12.9829 13.1439L10.0006 13.0391L7.017 13.1439L4.28689 14.0082C3.36329 14.3007 2.7356 15.1578 2.7356 16.1266V16.8724C4.48517 18.7212 6.9329 19.9024 9.65681 19.9943C12.7087 19.3164 15.2478 17.2765 16.6033 14.5452Z" fill="#4A80AA"/>
<path d="M17.2643 16.8733V16.1275C17.2643 15.4425 16.9503 14.8136 16.4399 14.4004C14.9903 17.3545 12.1265 19.489 8.73108 19.9206C9.14092 19.9725 9.55834 20.0002 9.98209 20.0009C10.3892 20.0003 10.791 19.9767 11.1862 19.9313C13.5702 19.6496 15.6973 18.5292 17.2643 16.8733Z" fill="#407093"/>
<path d="M10.2264 19.8519C10.8314 18.6507 12.4069 15.2399 11.9577 13.1093L10.0006 12.3477L8.04168 13.1094C7.57855 15.3057 9.26707 18.8624 9.82609 19.9566C9.96055 19.9244 10.094 19.8894 10.2264 19.8519Z" fill="#E4F6FF"/>
<path d="M11.2577 18.8991L10.4642 15.7773H9.53576L8.7442 18.8906L9.72303 19.9803C9.97151 19.9234 10.2165 19.8574 10.4578 19.7828L11.2577 18.8991Z" fill="#E28086"/>
<path d="M9.73834 19.9971C9.81939 19.9993 9.90061 20.0007 9.98213 20.0009C10.0765 20.0007 10.1705 19.9991 10.2642 19.9964L10.7684 19.4395C10.3716 19.5787 9.96334 19.6936 9.54541 19.7824L9.73834 19.9971Z" fill="#DD636E"/>
<path d="M11.6708 12.8209V11.0605H8.32788V12.8209C8.32788 13.7441 9.99936 14.7524 9.99936 14.7524C9.99936 14.7524 11.6708 13.7441 11.6708 12.8209Z" fill="#FFDDCE"/>
<path d="M13.7535 7.04468H13.1144C12.7591 7.04468 12.471 6.75659 12.471 6.4012V6.04906C12.471 5.58613 12.018 5.25882 11.5785 5.40409C10.5534 5.74292 9.44651 5.743 8.42136 5.40433L8.42014 5.40394C7.98061 5.25874 7.52776 5.58605 7.52776 6.04894V6.40124C7.52776 6.75663 7.23968 7.04472 6.88428 7.04472H6.2453V8.09699C6.2453 8.36585 6.46327 8.58386 6.73217 8.58386C6.81702 8.58386 6.88604 8.65031 6.89139 8.73499C6.99405 10.3626 8.34589 11.6512 9.9994 11.6512C11.6529 11.6512 13.0048 10.3626 13.1074 8.73499C13.1128 8.65034 13.1818 8.58386 13.2666 8.58386C13.5355 8.58386 13.7535 8.36589 13.7535 8.09699V7.04468H13.7535Z" fill="#FFDDCE"/>
<path d="M13.1145 7.04456C12.7591 7.04456 12.471 6.75647 12.471 6.40108V6.04893C12.471 5.586 12.0181 5.2587 11.5785 5.40397C11.4571 5.44409 11.3345 5.47909 11.2111 5.50971V8.98518C11.1939 10.116 10.5743 11.1001 9.6593 11.632C9.77106 11.6441 9.88442 11.651 9.99938 11.651C11.6529 11.651 13.0047 10.3624 13.1074 8.73479C13.1127 8.65014 13.1818 8.58366 13.2666 8.58366C13.5355 8.58366 13.7535 8.36569 13.7535 8.09678V7.04452L13.1145 7.04456Z" fill="#FFCBBE"/>
<path d="M8.32789 12.3477L7.01703 13.4128L8.39172 15.1125C8.55894 15.2753 8.82215 15.2853 9.00129 15.1357L10.0351 14.2721L8.32789 12.3477Z" fill="#F4FBFF"/>
<path d="M11.6715 12.3477L10.0351 14.2721L11.0067 15.1029C11.1847 15.2551 11.4492 15.2475 11.6181 15.0852L12.9829 13.4128L11.6715 12.3477Z" fill="#F4FBFF"/>
<path d="M8.32788 12.3477L6.40382 13.2929C6.25734 13.3649 6.19851 13.5431 6.27331 13.6881L6.65026 14.419C6.74796 14.6084 6.71191 14.8391 6.56112 14.9897C6.48351 15.0671 6.39944 15.1511 6.32659 15.2238C6.1962 15.3539 6.14937 15.5462 6.20679 15.7213C6.66191 17.1087 8.8523 19.2302 9.68124 19.9978C9.73698 19.9993 9.79284 20.0003 9.84882 20.0009C9.24769 18.8317 7.11749 14.3894 8.32788 12.3477Z" fill="#365E7D"/>
<path d="M13.4382 14.9896C13.2874 14.8391 13.2514 14.6083 13.349 14.4189L13.726 13.6881C13.8008 13.543 13.742 13.3648 13.5955 13.2929L11.6714 12.3477C12.8815 14.3889 10.7528 18.8293 10.151 20C10.2076 19.999 10.264 19.9976 10.3203 19.9957C11.151 19.2264 13.3378 17.1075 13.7925 15.7214C13.8499 15.5463 13.8031 15.354 13.6727 15.2238C13.5999 15.1511 13.5158 15.0671 13.4382 14.9896Z" fill="#365E7D"/>
<path d="M10.0351 14.2715L9.01709 15.1216L9.53576 15.7771H10.4642L10.9829 15.083L10.0351 14.2715Z" fill="#DD636E"/>
</g>
<defs>
<clipPath id="clip0_883_123">
<rect width="20" height="20" fill="white"/>
</clipPath>
</defs>
</svg>
