<svg width="24" height="24" viewBox="0 0 24 24" fill="none" xmlns="http://www.w3.org/2000/svg">
<g id="information-button 1" clip-path="url(#clip0_1014_95)">
<g id="Group">
<path id="Vector" d="M11.9995 0.5C5.64908 0.5 0.5 5.64908 0.5 11.9995C0.5 18.3499 5.64908 23.5 11.9995 23.5C18.3499 23.5 23.5 18.3499 23.5 11.9995C23.5 5.64908 18.3499 0.5 11.9995 0.5ZM14.3935 18.3227C13.8015 18.5563 13.3303 18.7335 12.977 18.8562C12.6245 18.9789 12.2147 19.0402 11.7483 19.0402C11.0318 19.0402 10.474 18.865 10.0768 18.5154C9.67955 18.1659 9.48193 17.723 9.48193 17.1846C9.48193 16.9753 9.49653 16.7611 9.52573 16.543C9.55591 16.325 9.60362 16.0796 9.66885 15.8041L10.4097 13.1872C10.4749 12.9361 10.5314 12.6975 10.5762 12.4756C10.621 12.2517 10.6424 12.0462 10.6424 11.8593C10.6424 11.5264 10.5733 11.2927 10.436 11.1613C10.2968 11.0299 10.0349 10.9656 9.64451 10.9656C9.45369 10.9656 9.25704 10.9938 9.05551 11.0532C8.85594 11.1146 8.68264 11.1701 8.54051 11.2246L8.73619 10.4185C9.22102 10.2208 9.6854 10.0514 10.1284 9.91126C10.5713 9.76912 10.9899 9.69903 11.3842 9.69903C12.0959 9.69903 12.645 9.87232 13.0315 10.215C13.416 10.5587 13.6098 11.0055 13.6098 11.5546C13.6098 11.6685 13.5961 11.8691 13.5698 12.1553C13.5436 12.4425 13.4939 12.7044 13.4219 12.9448L12.6849 15.5539C12.6245 15.7632 12.571 16.0027 12.5223 16.2705C12.4746 16.5382 12.4512 16.7426 12.4512 16.8799C12.4512 17.2265 12.5281 17.463 12.6839 17.5886C12.8377 17.7142 13.1074 17.7775 13.489 17.7775C13.6691 17.7775 13.8707 17.7454 14.0985 17.6831C14.3243 17.6208 14.4879 17.5653 14.5911 17.5176L14.3935 18.3227ZM14.263 7.73247C13.9193 8.05179 13.5056 8.21145 13.0217 8.21145C12.5389 8.21145 12.1222 8.05179 11.7756 7.73247C11.431 7.41314 11.2567 7.0247 11.2567 6.57103C11.2567 6.11833 11.4319 5.72891 11.7756 5.40667C12.1222 5.08345 12.5389 4.92281 13.0217 4.92281C13.5056 4.92281 13.9203 5.08345 14.263 5.40667C14.6067 5.72891 14.779 6.11833 14.779 6.57103C14.779 7.02567 14.6067 7.41314 14.263 7.73247Z" fill="#58CC8C"/>
</g>
</g>
<defs>
<clipPath id="clip0_1014_95">
<rect width="23" height="23" fill="white" transform="translate(0.5 0.5)"/>
</clipPath>
</defs>
</svg>
