<svg width="24" height="24" viewBox="0 0 24 24" fill="none" xmlns="http://www.w3.org/2000/svg">
<g id="locked-computer 1">
<g id="Layer 11">
<path id="Vector" d="M18 8.6775H17.6025V6.3525C17.6025 4.86662 17.0122 3.44161 15.9616 2.39093C14.9109 1.34026 13.4859 0.75 12 0.75C10.5141 0.75 9.08911 1.34026 8.03843 2.39093C6.98776 3.44161 6.3975 4.86662 6.3975 6.3525V8.6775H6C5.20435 8.6775 4.44129 8.99357 3.87868 9.55618C3.31607 10.1188 3 10.8819 3 11.6775V20.25C3 21.0456 3.31607 21.8087 3.87868 22.3713C4.44129 22.9339 5.20435 23.25 6 23.25H18C18.7956 23.25 19.5587 22.9339 20.1213 22.3713C20.6839 21.8087 21 21.0456 21 20.25V11.6775C21 10.8819 20.6839 10.1188 20.1213 9.55618C19.5587 8.99357 18.7956 8.6775 18 8.6775ZM7.8975 6.3525C7.8975 5.81375 8.00361 5.28028 8.20978 4.78254C8.41595 4.2848 8.71814 3.83255 9.09909 3.45159C9.48005 3.07064 9.9323 2.76845 10.43 2.56228C10.9278 2.35611 11.4613 2.25 12 2.25C12.5387 2.25 13.0722 2.35611 13.57 2.56228C14.0677 2.76845 14.52 3.07064 14.9009 3.45159C15.2819 3.83255 15.584 4.2848 15.7902 4.78254C15.9964 5.28028 16.1025 5.81375 16.1025 6.3525V8.6775H7.8975V6.3525ZM19.5 20.25C19.5 20.6478 19.342 21.0294 19.0607 21.3107C18.7794 21.592 18.3978 21.75 18 21.75H6C5.60218 21.75 5.22064 21.592 4.93934 21.3107C4.65804 21.0294 4.5 20.6478 4.5 20.25V11.6775C4.5 11.2797 4.65804 10.8981 4.93934 10.6168C5.22064 10.3355 5.60218 10.1775 6 10.1775H18C18.3978 10.1775 18.7794 10.3355 19.0607 10.6168C19.342 10.8981 19.5 11.2797 19.5 11.6775V20.25Z" fill="#405691"/>
<path id="Vector_2" d="M12 13.4453C11.709 13.4454 11.4247 13.5324 11.1834 13.6951C10.9422 13.8578 10.755 14.0888 10.6459 14.3586C10.5368 14.6283 10.5108 14.9245 10.5711 15.2092C10.6314 15.4938 10.7754 15.754 10.9845 15.9563V17.7346C10.9845 17.9335 11.0635 18.1242 11.2042 18.2649C11.3448 18.4055 11.5356 18.4846 11.7345 18.4846H12.2655C12.4644 18.4846 12.6552 18.4055 12.7958 18.2649C12.9365 18.1242 13.0155 17.9335 13.0155 17.7346V15.9563C13.2246 15.754 13.3686 15.4938 13.4289 15.2092C13.4892 14.9245 13.4631 14.6283 13.354 14.3586C13.2449 14.0888 13.0578 13.8578 12.8165 13.6951C12.5753 13.5324 12.291 13.4454 12 13.4453Z" fill="#405691"/>
</g>
</g>
</svg>
