<svg width="126" height="67" viewBox="0 0 126 67" fill="none" xmlns="http://www.w3.org/2000/svg">
<path d="M114.546 0.710938V4.52887H119.515L104.996 19.0478L99.2636 13.3155L87.7991 24.7801L90.477 27.458L99.2636 18.6714L104.996 24.4036L122.182 7.21756V12.1863H126V0.710938H114.535H114.546Z" fill="#ED1C24"/>
<path d="M16.0975 22.5535C15.1188 23.1342 13.9895 23.4138 12.7097 23.4138C11.3331 23.4138 10.1178 23.0912 9.04236 22.4459C7.97764 21.8006 7.13877 20.8865 6.54726 19.7035C5.95575 18.5204 5.65462 17.1546 5.65462 15.5951C5.65462 14.0357 5.95575 12.6483 6.54726 11.4761C7.14953 10.3038 7.97764 9.4004 9.04236 8.75512C10.1178 8.12059 11.3331 7.78719 12.7097 7.78719C13.9895 7.78719 15.1295 8.06681 16.0975 8.63681C17.0761 9.19606 17.8397 10.0457 18.3775 11.1642H23.8194C23.0343 8.77663 21.6469 6.9053 19.6573 5.56096C17.6784 4.21661 15.3661 3.53906 12.7312 3.53906C10.4835 3.53906 8.45085 4.04454 6.6333 5.07699C4.81575 6.09869 3.38537 7.52908 2.34216 9.36814C1.2882 11.2072 0.771973 13.2829 0.771973 15.5951C0.771973 17.9074 1.29895 19.9831 2.34216 21.8114C3.38537 23.6397 4.81575 25.0593 6.6333 26.081C8.44009 27.1027 10.4727 27.6189 12.7312 27.6189C15.3876 27.6189 17.6999 26.9522 19.668 25.6078C21.6361 24.2635 23.0235 22.3921 23.8086 19.9831H18.3667C17.829 21.1123 17.0654 21.962 16.0867 22.532L16.0975 22.5535Z" fill="#ED1C24"/>
<path d="M45.8879 9.39063C44.8124 7.56233 43.3605 6.12119 41.5322 5.08873C39.7039 4.05628 37.6713 3.5293 35.4343 3.5293C33.1973 3.5293 31.1969 4.04552 29.3579 5.08873C27.508 6.12119 26.0561 7.56233 24.9699 9.39063C23.8837 11.2297 23.3459 13.2946 23.3459 15.5854C23.3459 17.8761 23.8837 19.9841 24.9699 21.8124C26.0561 23.6514 27.508 25.0926 29.3579 26.1143C31.2077 27.1467 33.2296 27.6737 35.4343 27.6737C37.639 27.6737 39.6716 27.1575 41.5107 26.1143C43.3605 25.0818 44.8124 23.6407 45.8879 21.8124C46.9526 19.9841 47.4904 17.8976 47.4904 15.5854C47.4904 13.2731 46.9526 11.2297 45.8879 9.39063ZM41.7151 19.7475C41.102 20.9412 40.2632 21.8554 39.1769 22.5007C38.0907 23.1459 36.8432 23.4686 35.4343 23.4686C34.0254 23.4686 32.7563 23.1459 31.6701 22.5007C30.5731 21.8661 29.7235 20.9412 29.1212 19.7475C28.5082 18.5537 28.2071 17.1663 28.2071 15.5961C28.2071 14.0259 28.5082 12.6386 29.1212 11.4555C29.7343 10.2725 30.5731 9.36912 31.6701 8.73459C32.7563 8.10006 34.0147 7.78818 35.4343 7.78818C36.8539 7.78818 38.1015 8.10006 39.1769 8.73459C40.2632 9.36912 41.102 10.2725 41.7151 11.4555C42.3281 12.6386 42.6292 14.0152 42.6292 15.5961C42.6292 17.1771 42.3281 18.5537 41.7151 19.7475Z" fill="#ED1C24"/>
<path d="M63.0634 17.0695C62.3643 16.1661 61.5255 15.4886 60.5683 15.0476C59.6004 14.5959 58.3528 14.1442 56.8149 13.6925C55.6856 13.3591 54.8145 13.058 54.2015 12.7999C53.5885 12.5418 53.0615 12.2084 52.6421 11.7889C52.2226 11.3695 52.0183 10.8533 52.0183 10.2187C52.0183 9.31535 52.2979 8.62704 52.8464 8.15383C53.4056 7.68063 54.137 7.44402 55.0619 7.44402C56.1158 7.44402 56.9762 7.71289 57.6107 8.23987C58.2453 8.76685 58.5894 9.43365 58.6324 10.251H63.8377C63.6764 8.13232 62.8375 6.48685 61.3211 5.30383C59.8047 4.12081 57.8258 3.5293 55.3953 3.5293C53.7713 3.5293 52.3302 3.80892 51.0719 4.35741C49.8136 4.9059 48.8241 5.70175 48.1251 6.73421C47.426 7.76666 47.0819 8.98195 47.0819 10.3801C47.0819 11.8642 47.426 13.058 48.1143 13.9399C48.8026 14.8325 49.62 15.4993 50.5771 15.9403C51.5343 16.3812 52.7711 16.8222 54.309 17.2739C55.4275 17.5857 56.3202 17.8761 56.9547 18.1342C57.6 18.3923 58.127 18.7472 58.5572 19.1989C58.9874 19.6506 59.2024 20.2206 59.2024 20.9197C59.2024 21.7801 58.8906 22.4684 58.256 22.9954C57.6215 23.5224 56.7611 23.7912 55.6534 23.7912C54.5456 23.7912 53.7283 23.5116 53.1045 22.9524C52.4915 22.3931 52.1473 21.6188 52.0828 20.6508H47.0173C47.0388 22.092 47.4368 23.3395 48.2004 24.3935C48.9639 25.4475 50.0071 26.2648 51.33 26.8241C52.6421 27.3833 54.1262 27.6629 55.7717 27.6629C57.5032 27.6629 58.9981 27.3403 60.2672 26.7058C61.5255 26.0605 62.4826 25.2001 63.1387 24.1246C63.784 23.0384 64.1174 21.8769 64.1174 20.6078C64.1174 19.1452 63.7624 17.9622 63.0741 17.0588L63.0634 17.0695Z" fill="#ED1C24"/>
<path d="M85.1859 3.86133L77.6898 21.3916L70.1938 3.86133H64.8164V27.4357H69.5485V12.0995L75.9045 27.4357H79.4858L85.7989 12.0995V27.4357H90.5309V3.86133H85.1966H85.1859Z" fill="#ED1C24"/>
<path d="M114.794 14.9078C114.718 13.2624 114.353 11.7352 113.707 10.3371L109.857 14.1873C109.857 14.1873 109.857 14.2195 109.857 14.2303C109.911 14.6605 109.943 15.1229 109.943 15.5854C109.943 17.1663 109.642 18.543 109.029 19.7367C108.427 20.9305 107.577 21.8447 106.502 22.4899C105.415 23.1352 104.168 23.4579 102.759 23.4579C101.35 23.4579 100.081 23.1352 98.9948 22.4899C98.5001 22.1996 98.0054 21.7479 97.6075 21.3392L94.4671 24.5441C95.1554 25.1894 95.833 25.6411 96.6718 26.1143C98.5216 27.1468 100.544 27.6737 102.748 27.6737C104.953 27.6737 106.986 27.1575 108.825 26.1143C110.674 25.0818 112.126 23.6407 113.202 21.8124C114.267 19.9841 114.804 17.8977 114.804 15.5854C114.804 15.3595 114.804 15.1337 114.783 14.9186L114.794 14.9078ZM95.5211 15.5746C95.5211 13.9937 95.8222 12.6171 96.4352 11.4341C97.0482 10.251 97.8871 9.34764 98.9841 8.71311C100.07 8.07858 101.329 7.76669 102.748 7.76669C104.168 7.76669 105.415 8.07858 106.491 8.71311C107.577 9.34764 108.416 10.251 109.018 11.4341C109.341 12.0578 109.556 12.445 109.707 13.1871L113.309 9.60576C113.245 9.4767 113.266 9.49821 113.191 9.36915C112.116 7.54084 110.664 6.09971 108.835 5.06725C107.007 4.0348 104.974 3.50781 102.737 3.50781C100.501 3.50781 98.5001 4.02404 96.6611 5.06725C94.8113 6.09971 93.3486 7.54084 92.2731 9.36915C91.1869 11.2082 90.6492 13.2731 90.6492 15.5639C90.6492 17.1018 90.9611 18.7688 91.445 20.1024L95.5533 16.0479C95.5533 15.9403 95.5211 15.6714 95.5211 15.5746Z" fill="#ED1C24"/>
<path d="M41.3817 31.7812V34.6097H37.553V46.2571H34.0255V34.6097H30.1968V31.7812H41.3817Z" fill="white"/>
<path d="M54.6532 46.2464L51.6418 40.783H50.7922V46.2464H47.2646V31.7812H53.1798C54.3198 31.7812 55.2877 31.9856 56.0943 32.3835C56.9009 32.7814 57.5032 33.3299 57.9011 34.0182C58.299 34.7173 58.5033 35.4809 58.5033 36.3413C58.5033 37.2984 58.2345 38.1588 57.686 38.9224C57.1483 39.6752 56.3416 40.213 55.2877 40.5249L58.6217 46.2571H54.6424L54.6532 46.2464ZM50.803 38.2879H52.9862C53.6315 38.2879 54.1154 38.1265 54.4381 37.8147C54.7607 37.5028 54.922 37.0511 54.922 36.4703C54.922 35.8896 54.7607 35.4916 54.4381 35.169C54.1154 34.8571 53.6315 34.6958 52.9862 34.6958H50.803V38.2771V38.2879Z" fill="white"/>
<path d="M73.8395 43.6867H68.4406L67.5802 46.2464H63.8914L69.1289 31.7812H73.205L78.4425 46.2464H74.7106L73.8503 43.6867H73.8395ZM72.9361 40.9658L71.1401 35.6745L69.3655 40.9658H72.9253H72.9361Z" fill="white"/>
<path d="M93.5637 32.6856C94.7037 33.2879 95.5856 34.1375 96.2094 35.2345C96.8332 36.3315 97.145 37.5898 97.145 39.0202C97.145 40.4505 96.8332 41.6873 96.2094 42.7951C95.5856 43.8921 94.693 44.7417 93.553 45.3547C92.4022 45.957 91.0794 46.2581 89.563 46.2581H84.1426V31.793H89.563C91.0901 31.793 92.4237 32.0941 93.5637 32.6964V32.6856ZM92.456 42.1068C93.1981 41.3754 93.5637 40.3537 93.5637 39.0202C93.5637 37.6866 93.1873 36.6541 92.456 35.912C91.7139 35.17 90.6814 34.7935 89.3479 34.7935H87.6809V43.2037H89.3479C90.6814 43.2037 91.7139 42.8381 92.456 42.1068Z" fill="white"/>
<path d="M106.77 34.598V37.5233H111.492V40.2443H106.77V43.4169H112.105V46.2347H103.243V31.7695H112.105V34.598H106.77Z" fill="white"/>
</svg>
