<svg width="126" height="48" viewBox="0 0 126 48" fill="none" xmlns="http://www.w3.org/2000/svg">
<path d="M114.546 1.23242V5.05036H119.515L104.996 19.5693L99.2637 13.837L87.7992 25.3015L90.4771 27.9795L99.2637 19.1929L104.996 24.9251L122.182 7.73904V12.7077H126V1.23242H114.535H114.546Z" fill="#ED1C24"/>
<path d="M16.0973 23.0749C15.1187 23.6557 13.9894 23.9353 12.7096 23.9353C11.333 23.9353 10.1177 23.6127 9.04224 22.9674C7.97752 22.3221 7.13865 21.408 6.54714 20.2249C5.95563 19.0419 5.6545 17.6761 5.6545 16.1166C5.6545 14.5572 5.95563 13.1698 6.54714 11.9976C7.14941 10.8253 7.97752 9.92189 9.04224 9.2766C10.1177 8.64207 11.333 8.30867 12.7096 8.30867C13.9894 8.30867 15.1294 8.5883 16.0973 9.1583C17.076 9.71755 17.8396 10.5672 18.3773 11.6857H23.8192C23.0341 9.29811 21.6468 7.42678 19.6572 6.08244C17.6783 4.7381 15.366 4.06055 12.7311 4.06055C10.4834 4.06055 8.45073 4.56602 6.63318 5.59848C4.81563 6.62018 3.38525 8.05056 2.34204 9.88962C1.28808 11.7287 0.771851 13.8044 0.771851 16.1166C0.771851 18.4289 1.29883 20.5046 2.34204 22.3329C3.38525 24.1612 4.81563 25.5808 6.63318 26.6025C8.43997 27.6242 10.4726 28.1404 12.7311 28.1404C15.3875 28.1404 17.6998 27.4736 19.6679 26.1293C21.636 24.785 23.0234 22.9136 23.8085 20.5046H18.3666C17.8288 21.6338 17.0653 22.4834 16.0866 23.0534L16.0973 23.0749Z" fill="#ED1C24"/>
<path d="M45.888 9.91212C44.8125 8.08381 43.3606 6.64267 41.5323 5.61022C39.704 4.57776 37.6714 4.05078 35.4344 4.05078C33.1974 4.05078 31.197 4.56701 29.358 5.61022C27.5082 6.64267 26.0563 8.08381 24.97 9.91212C23.8838 11.7512 23.3461 13.8161 23.3461 16.1068C23.3461 18.3976 23.8838 20.5055 24.97 22.3338C26.0563 24.1729 27.5082 25.614 29.358 26.6357C31.2078 27.6682 33.2297 28.1952 35.4344 28.1952C37.6391 28.1952 39.6718 27.679 41.5108 26.6357C43.3606 25.6033 44.8125 24.1622 45.888 22.3338C46.9527 20.5055 47.4905 18.4191 47.4905 16.1068C47.4905 13.7946 46.9527 11.7512 45.888 9.91212ZM41.7152 20.2689C41.1022 21.4627 40.2633 22.3769 39.1771 23.0221C38.0908 23.6674 36.8433 23.9901 35.4344 23.9901C34.0255 23.9901 32.7565 23.6674 31.6702 23.0221C30.5733 22.3876 29.7236 21.4627 29.1214 20.2689C28.5083 19.0752 28.2072 17.6878 28.2072 16.1176C28.2072 14.5474 28.5083 13.16 29.1214 11.977C29.7344 10.794 30.5733 9.89061 31.6702 9.25608C32.7565 8.62155 34.0148 8.30966 35.4344 8.30966C36.854 8.30966 38.1016 8.62155 39.1771 9.25608C40.2633 9.89061 41.1022 10.794 41.7152 11.977C42.3282 13.16 42.6293 14.5367 42.6293 16.1176C42.6293 17.6986 42.3282 19.0752 41.7152 20.2689Z" fill="#ED1C24"/>
<path d="M63.0633 17.591C62.3642 16.6876 61.5254 16.01 60.5682 15.5691C59.6003 15.1174 58.3527 14.6657 56.8148 14.214C55.6855 13.8806 54.8144 13.5795 54.2014 13.3214C53.5884 13.0633 53.0614 12.7299 52.642 12.3104C52.2225 11.891 52.0182 11.3748 52.0182 10.7402C52.0182 9.83683 52.2978 9.14853 52.8463 8.67532C53.4055 8.20211 54.1369 7.96551 55.0618 7.96551C56.1157 7.96551 56.9761 8.23437 57.6106 8.76136C58.2452 9.28834 58.5893 9.95513 58.6323 10.7725H63.8376C63.6763 8.65381 62.8374 7.00833 61.321 5.82531C59.8046 4.64229 57.8257 4.05078 55.3952 4.05078C53.7712 4.05078 52.3301 4.3304 51.0718 4.8789C49.8135 5.42739 48.824 6.22324 48.125 7.25569C47.4259 8.28815 47.0818 9.50343 47.0818 10.9015C47.0818 12.3857 47.4259 13.5795 48.1142 14.4614C48.8025 15.354 49.6199 16.0208 50.577 16.4617C51.5342 16.9027 52.771 17.3436 54.3089 17.7953C55.4274 18.1072 56.3201 18.3976 56.9546 18.6557C57.5999 18.9138 58.1269 19.2687 58.5571 19.7204C58.9872 20.1721 59.2023 20.7421 59.2023 21.4412C59.2023 22.3016 58.8904 22.9899 58.2559 23.5169C57.6214 24.0438 56.761 24.3127 55.6533 24.3127C54.5455 24.3127 53.7282 24.0331 53.1044 23.4738C52.4914 22.9146 52.1472 22.1402 52.0827 21.1723H47.0172C47.0387 22.6135 47.4367 23.861 48.2002 24.915C48.9638 25.9689 50.007 26.7863 51.3299 27.3455C52.642 27.9048 54.1261 28.1844 55.7716 28.1844C57.5031 28.1844 58.998 27.8618 60.2671 27.2272C61.5254 26.582 62.4825 25.7216 63.1386 24.6461C63.7839 23.5599 64.1173 22.3984 64.1173 21.1293C64.1173 19.6667 63.7623 18.4836 63.074 17.5802L63.0633 17.591Z" fill="#ED1C24"/>
<path d="M85.1858 4.38281L77.6898 21.913L70.1937 4.38281H64.8163V27.9572H69.5484V12.6209L75.9045 27.9572H79.4858L85.7988 12.6209V27.9572H90.5309V4.38281H85.1965H85.1858Z" fill="#ED1C24"/>
<path d="M114.794 15.4293C114.718 13.7839 114.353 12.2567 113.707 10.8586L109.857 14.7088C109.857 14.7088 109.857 14.741 109.857 14.7518C109.911 15.182 109.943 15.6444 109.943 16.1069C109.943 17.6878 109.642 19.0644 109.029 20.2582C108.427 21.452 107.577 22.3661 106.502 23.0114C105.415 23.6567 104.168 23.9794 102.759 23.9794C101.35 23.9794 100.081 23.6567 98.9949 23.0114C98.5002 22.7211 98.0054 22.2694 97.6075 21.8607L94.4671 25.0656C95.1554 25.7109 95.833 26.1626 96.6719 26.6358C98.5217 27.6682 100.544 28.1952 102.748 28.1952C104.953 28.1952 106.986 27.679 108.825 26.6358C110.675 25.6033 112.126 24.1622 113.202 22.3339C114.267 20.5056 114.804 18.4192 114.804 16.1069C114.804 15.881 114.804 15.6552 114.783 15.4401L114.794 15.4293ZM95.5211 16.0961C95.5211 14.5152 95.8222 13.1386 96.4353 11.9555C97.0483 10.7725 97.8871 9.86913 98.9841 9.2346C100.07 8.60007 101.329 8.28818 102.748 8.28818C104.168 8.28818 105.415 8.60007 106.491 9.2346C107.577 9.86913 108.416 10.7725 109.018 11.9555C109.341 12.5793 109.556 12.9665 109.707 13.7086L113.309 10.1272C113.245 9.99818 113.266 10.0197 113.191 9.89064C112.116 8.06233 110.664 6.62119 108.835 5.58874C107.007 4.55628 104.975 4.0293 102.738 4.0293C100.501 4.0293 98.5002 4.54553 96.6611 5.58874C94.8113 6.62119 93.3486 8.06233 92.2732 9.89064C91.1869 11.7297 90.6492 13.7946 90.6492 16.0854C90.6492 17.6233 90.9611 19.2903 91.4451 20.6239L95.5534 16.5693C95.5534 16.4618 95.5211 16.1929 95.5211 16.0961Z" fill="#ED1C24"/>
<path d="M41.3818 32.3027V35.1312H37.5531V46.7786H34.0255V35.1312H30.1968V32.3027H41.3818Z" fill="white"/>
<path d="M54.6531 46.7679L51.6418 41.3045H50.7921V46.7679H47.2646V32.3027H53.1797C54.3197 32.3027 55.2876 32.5071 56.0942 32.905C56.9008 33.3029 57.5031 33.8514 57.901 34.5397C58.2989 35.2388 58.5033 36.0024 58.5033 36.8627C58.5033 37.8199 58.2344 38.6803 57.6859 39.4439C57.1482 40.1967 56.3416 40.7345 55.2876 41.0463L58.6216 46.7786H54.6423L54.6531 46.7679ZM50.8029 38.8094H52.9861C53.6314 38.8094 54.1154 38.648 54.438 38.3361C54.7606 38.0243 54.922 37.5726 54.922 36.9918C54.922 36.411 54.7606 36.0131 54.438 35.6905C54.1154 35.3786 53.6314 35.2173 52.9861 35.2173H50.8029V38.7986V38.8094Z" fill="white"/>
<path d="M73.8395 44.2082H68.4406L67.5802 46.7679H63.8914L69.1289 32.3027H73.205L78.4425 46.7679H74.7106L73.8503 44.2082H73.8395ZM72.9361 41.4873L71.1401 36.1959L69.3655 41.4873H72.9253H72.9361Z" fill="white"/>
<path d="M93.5637 33.2071C94.7037 33.8094 95.5856 34.659 96.2093 35.756C96.8331 36.853 97.145 38.1113 97.145 39.5416C97.145 40.972 96.8331 42.2088 96.2093 43.3166C95.5856 44.4135 94.6929 45.2632 93.5529 45.8762C92.4021 46.4784 91.0793 46.7796 89.5629 46.7796H84.1425V32.3145H89.5629C91.0901 32.3145 92.4237 32.6156 93.5637 33.2179V33.2071ZM92.4559 42.6283C93.198 41.8969 93.5637 40.8752 93.5637 39.5416C93.5637 38.208 93.1872 37.1756 92.4559 36.4335C91.7138 35.6914 90.6814 35.315 89.3478 35.315H87.6808V43.7252H89.3478C90.6814 43.7252 91.7138 43.3596 92.4559 42.6283Z" fill="white"/>
<path d="M106.77 35.1195V38.0448H111.492V40.7657H106.77V43.9384H112.105V46.7561H103.243V32.291H112.105V35.1195H106.77Z" fill="white"/>
</svg>
