<svg width="24" height="24" viewBox="0 0 24 24" fill="none" xmlns="http://www.w3.org/2000/svg">
<g id="marketing-2 1">
<path id="Vector" fill-rule="evenodd" clip-rule="evenodd" d="M15.9702 7.01725C16.4118 7.13542 16.7797 7.41653 17.0061 7.80883C17.4431 8.56581 17.2312 9.52216 16.5449 10.0303L14.8512 7.09745C15.202 6.94534 15.5924 6.916 15.9702 7.0172V7.01725ZM5.41263 18.0937L7.77607 16.7293L4.6624 11.3437L2.30234 12.7066C1.58646 13.1199 1.07327 13.791 0.857696 14.5961C0.64165 15.4015 0.750353 16.2394 1.16365 16.955C1.73942 17.9518 2.78702 18.5097 3.86285 18.5097C4.39006 18.5097 4.92406 18.3757 5.41263 18.0937ZM10.3433 21.1832L8.35859 17.746L6.50609 18.8155L8.49035 22.2529C8.78571 22.7636 9.44102 22.9392 9.95196 22.6443C10.1976 22.5025 10.3738 22.2715 10.4484 21.9945C10.5225 21.7172 10.4853 21.4293 10.3433 21.1833V21.1832ZM17.7237 14.416L11.6427 3.88375C11.5161 3.66409 11.308 3.54367 11.0563 3.54367C11.0516 3.54367 11.0466 3.54391 11.0419 3.54391C10.7836 3.54864 10.5746 3.67699 10.4534 3.90545C10.2397 4.30881 10.0336 4.73927 9.81551 5.19508C8.89784 7.11175 7.86607 9.26641 5.66759 10.7404L8.80067 16.1608C11.174 14.9957 13.5553 15.1792 15.6729 15.3428C16.1775 15.3819 16.6536 15.4185 17.1103 15.4352C17.3691 15.4451 17.5842 15.3281 17.7173 15.1067C17.8509 14.8852 17.8529 14.6398 17.7239 14.4161L17.7237 14.416ZM16.1951 3.60175C16.0335 3.88197 16.1295 4.24033 16.4097 4.40214C16.5017 4.45549 16.6025 4.4808 16.7019 4.4808C16.9044 4.4808 17.1017 4.3757 17.2099 4.18774L18.4204 2.09186C18.582 1.81164 18.486 1.45328 18.2058 1.29147C17.9253 1.1297 17.5672 1.2257 17.4056 1.50592L16.1951 3.60175ZM23.2508 10.0284C23.2508 9.70502 22.9887 9.44242 22.6632 9.44242L20.2438 9.44266C19.9204 9.44266 19.6579 9.70502 19.6579 10.0286C19.6579 10.3522 19.9204 10.6145 20.2438 10.6145L22.6632 10.6143C22.9887 10.6143 23.2508 10.3522 23.2508 10.0284ZM21.8497 5.01227C21.687 4.73205 21.33 4.63605 21.0498 4.79781L18.9027 6.03705C18.6222 6.19909 18.5262 6.55722 18.688 6.83767C18.7967 7.02569 18.9935 7.13078 19.1959 7.13078C19.2954 7.13078 19.3962 7.10524 19.4886 7.05213L21.6351 5.81266C21.9153 5.65085 22.0124 5.29249 21.8497 5.01227Z" fill="#58CC8C"/>
</g>
</svg>
