<svg width="20" height="21" viewBox="0 0 20 21" fill="none" xmlns="http://www.w3.org/2000/svg">
<g id="promotion 1" clip-path="url(#clip0_953_75)">
<path id="Vector" fill-rule="evenodd" clip-rule="evenodd" d="M3.95298 10.356L6.64898 15.0256L13.7818 14.0944L12.1706 11.3036L11.0538 9.36917L8.32578 4.64397L3.95298 10.356ZM4.58418 16.1232C4.57978 16.1256 4.57578 16.1284 4.57178 16.1312L3.93938 16.4964C3.92618 16.5024 3.91338 16.51 3.90098 16.5184C3.28338 16.8684 2.57778 16.9368 1.93618 16.7652C1.29338 16.5932 0.71578 16.1792 0.35618 15.5644C0.35058 15.5532 0.34458 15.5428 0.33738 15.5324C-0.01262 14.9148 -0.08102 14.2092 0.09098 13.5676C0.26458 12.9196 0.68298 12.338 1.30458 11.9792L3.56898 10.672L6.18338 15.2004L4.58418 16.1232ZM6.42898 15.6248L5.04218 16.4256L7.04498 19.8944L8.43178 19.0936L6.42898 15.6248ZM13.2454 6.27317C13.795 6.42037 14.2886 6.77557 14.599 7.30397C14.6046 7.31517 14.611 7.32597 14.6182 7.33637C14.9182 7.86797 14.9778 8.47157 14.831 9.01997C14.7022 9.50077 14.415 9.93877 13.9922 10.2484L12.1538 7.06437L11.7626 6.38637C12.2422 6.17437 12.765 6.14437 13.2454 6.27317ZM13.7086 10.736L15.4458 13.7452C15.523 13.8788 15.5382 14.0324 15.5006 14.1724C15.4634 14.312 15.3734 14.4372 15.2394 14.514L15.229 14.5204C15.0982 14.592 14.9494 14.6052 14.813 14.5688C14.673 14.5312 14.5478 14.4416 14.4714 14.3088L14.471 14.308L14.4714 14.3076L14.3906 14.1676L14.3902 14.1672L11.4786 9.12397L8.56938 4.08557C8.56778 4.08237 8.56578 4.07917 8.56378 4.07637L8.49418 3.95597C8.48938 3.94637 8.48418 3.93717 8.47818 3.92797C8.40738 3.79757 8.39418 3.64917 8.43018 3.51397C8.46618 3.37917 8.55178 3.25757 8.67858 3.17997C8.68738 3.17557 8.69578 3.17077 8.70378 3.16557C8.83418 3.09477 8.98258 3.08117 9.11778 3.11757C9.25778 3.15517 9.38298 3.24477 9.45938 3.37757L11.2082 6.40677L13.685 10.6968C13.6918 10.71 13.6994 10.7236 13.7086 10.736ZM17.0438 6.15077C16.9266 6.21877 16.7766 6.17877 16.7086 6.06157C16.6406 5.94437 16.6806 5.79437 16.7978 5.72637L18.8706 4.52957C18.9878 4.46157 19.1378 4.50157 19.2058 4.61877C19.2738 4.73597 19.2338 4.88597 19.1166 4.95397L17.0438 6.15077ZM17.3794 9.91757C17.2482 9.88237 17.1706 9.74797 17.2054 9.61677C17.2406 9.48557 17.375 9.40797 17.5062 9.44277L19.8182 10.0624C19.9494 10.0976 20.027 10.232 19.9922 10.3632C19.957 10.4944 19.8226 10.572 19.6914 10.5372L17.3794 9.91757ZM14.1434 3.72477L14.763 1.41277C14.7982 1.28157 14.7202 1.14717 14.589 1.11197C14.4578 1.07677 14.3234 1.15477 14.2882 1.28597L13.6686 3.59797C13.6334 3.72917 13.7114 3.86357 13.8426 3.89877C13.9738 3.93357 14.1086 3.85597 14.1434 3.72477Z" fill="#F7BA1D"/>
</g>
<defs>
<clipPath id="clip0_953_75">
<rect width="20" height="20" fill="white" transform="translate(0 0.5)"/>
</clipPath>
</defs>
</svg>
