<svg width="31" height="31" viewBox="0 0 31 31" fill="none" xmlns="http://www.w3.org/2000/svg">
<g id="money-3 1">
<g id="Group 15">
<path id="Vector" d="M1.06934 25.8279H24.4737V12.4316H1.06934V25.8279ZM3.22246 16.2029C3.46932 16.2029 3.71375 16.1543 3.94181 16.0598C4.16987 15.9653 4.37708 15.8268 4.5516 15.6522C4.72613 15.4776 4.86455 15.2704 4.95896 15.0423C5.05337 14.8142 5.10192 14.5697 5.10184 14.3229H20.4406C20.4406 14.8215 20.6387 15.2997 20.9912 15.6523C21.3438 16.0048 21.822 16.2029 22.3206 16.2029V22.0516C21.822 22.0516 21.3438 22.2497 20.9912 22.6023C20.6387 22.9548 20.4406 23.433 20.4406 23.9316H5.10184C5.10192 23.6848 5.05337 23.4403 4.95896 23.2122C4.86455 22.9842 4.72613 22.7769 4.5516 22.6023C4.37708 22.4277 4.16987 22.2892 3.94181 22.1948C3.71375 22.1003 3.46932 22.0516 3.22246 22.0516V16.2029Z" fill="#54D6FF"/>
<path id="Vector_2" d="M12.7713 21.9505C14.3287 21.9505 15.5913 20.688 15.5913 19.1305C15.5913 17.5731 14.3287 16.3105 12.7713 16.3105C11.2139 16.3105 9.95129 17.5731 9.95129 19.1305C9.95129 20.688 11.2139 21.9505 12.7713 21.9505Z" fill="#54D6FF"/>
<path id="Vector_3" d="M2.29871 11.4934H25.4131V22.3059L27.3006 22.1059L25.9006 8.78711L2.29871 11.4934Z" fill="#54D6FF"/>
<path id="Vector_4" d="M27.2944 5.18164L3.56689 10.1904L26.7319 7.75664L27.8944 18.8066L29.8194 18.3441L27.2944 5.18164Z" fill="#54D6FF"/>
</g>
</g>
</svg>
