<svg width="19" height="14" viewBox="0 0 19 14" fill="none" xmlns="http://www.w3.org/2000/svg">
<path d="M18.4225 6.41101L12.5892 0.577677C12.432 0.425878 12.2215 0.341883 12.003 0.343782C11.7845 0.34568 11.5755 0.433321 11.421 0.587828C11.2665 0.742335 11.1788 0.951345 11.1769 1.16984C11.175 1.38834 11.259 1.59884 11.4108 1.75601L15.8217 6.16684H1.16666C0.945648 6.16684 0.733686 6.25464 0.577406 6.41092C0.421126 6.5672 0.333328 6.77916 0.333328 7.00018C0.333328 7.22119 0.421126 7.43315 0.577406 7.58943C0.733686 7.74571 0.945648 7.83351 1.16666 7.83351H15.8217L11.4108 12.2443C11.3312 12.3212 11.2678 12.4132 11.2241 12.5148C11.1804 12.6165 11.1574 12.7259 11.1565 12.8365C11.1555 12.9472 11.1766 13.0569 11.2185 13.1593C11.2604 13.2617 11.3223 13.3548 11.4005 13.433C11.4787 13.5113 11.5718 13.5731 11.6742 13.615C11.7766 13.6569 11.8863 13.678 11.997 13.6771C12.1076 13.6761 12.217 13.6531 12.3187 13.6094C12.4203 13.5658 12.5123 13.5023 12.5892 13.4227L18.4225 7.58934C18.5787 7.43307 18.6665 7.22115 18.6665 7.00018C18.6665 6.77921 18.5787 6.56728 18.4225 6.41101Z" fill="white"/>
</svg>
