<svg width="20" height="20" viewBox="0 0 20 20" fill="none" xmlns="http://www.w3.org/2000/svg">
<g id="notification-2 1">
<g id="Group">
<path id="Vector" fill-rule="evenodd" clip-rule="evenodd" d="M9.85512 2.29102C7.39885 2.29102 5.40766 4.28222 5.40766 6.73848V8.48227C5.40766 9.07627 5.21597 9.60585 4.9877 10.0632C4.82775 10.3836 4.62744 10.7083 4.44844 10.9983C4.38116 11.1074 4.31687 11.2116 4.25889 11.3088C4.06813 11.6287 3.95837 12.0024 3.95837 12.4036C3.95837 13.4421 4.69695 14.3112 5.69664 14.4498C7.00547 14.6313 8.61179 14.8093 9.85512 14.8093C11.0985 14.8093 12.7048 14.6313 14.0136 14.4498C15.0133 14.3112 15.7519 13.4421 15.7519 12.4036C15.7519 12.0024 15.6421 11.6287 15.4514 11.3088C15.3934 11.2116 15.329 11.1074 15.2618 10.9983C15.0828 10.7083 14.8825 10.3836 14.7225 10.0632C14.4943 9.60585 14.3026 9.07635 14.3026 8.48227V6.73848C14.3026 4.28222 12.3114 2.29102 9.85512 2.29102ZM4.15766 6.73848C4.15766 3.59186 6.7085 1.04102 9.85512 1.04102C13.0017 1.04102 15.5526 3.59186 15.5526 6.73848V8.48227C15.5526 8.80518 15.6564 9.1351 15.841 9.50485C15.9744 9.77218 16.1275 10.0201 16.2944 10.2905C16.3686 10.4108 16.4456 10.5357 16.525 10.6686C16.828 11.1767 17.0019 11.7708 17.0019 12.4036C17.0019 14.0367 15.8318 15.4597 14.1853 15.6879C12.8663 15.8708 11.189 16.0593 9.85512 16.0593C8.52121 16.0593 6.84394 15.8708 5.52496 15.6879C3.87847 15.4597 2.70837 14.0367 2.70837 12.4036C2.70837 11.7708 2.88229 11.1767 3.1853 10.6686C3.26457 10.5357 3.3416 10.4108 3.41588 10.2905C3.58282 10.0201 3.73587 9.77218 3.8693 9.50485C4.05389 9.1351 4.15766 8.80518 4.15766 8.48227V6.73848Z" fill="#41BCD7"/>
<path id="Vector_2" fill-rule="evenodd" clip-rule="evenodd" d="M12.0127 16.8409C11.7252 16.6498 11.3372 16.7279 11.1462 17.0153C10.8676 17.4342 10.3932 17.7082 9.85499 17.7082C9.31682 17.7082 8.8424 17.4342 8.56382 17.0153C8.37274 16.7279 7.9848 16.6498 7.69735 16.8409C7.40991 17.0321 7.33183 17.42 7.52295 17.7074C8.02333 18.46 8.88082 18.9582 9.85499 18.9582C10.8292 18.9582 11.6867 18.46 12.1871 17.7074C12.3782 17.42 12.3001 17.0321 12.0127 16.8409Z" fill="#41BCD7"/>
</g>
</g>
</svg>
