<svg width="24" height="25" viewBox="0 0 24 25" fill="none" xmlns="http://www.w3.org/2000/svg">
<rect y="0.5" width="24" height="24" rx="12" fill="#25A9C6"/>
<path d="M4.49886 14.2411C4.68636 14.2411 4.87198 14.1573 4.99448 13.9973L5.26636 13.6442C5.67323 16.0579 7.36386 18.1229 9.76386 18.9561C10.5026 19.2123 11.2607 19.3354 12.0089 19.3354C14.2489 19.3354 16.4045 18.2304 17.6951 16.2848C17.8857 15.9973 17.807 15.6092 17.5195 15.4186C17.2307 15.2267 16.8445 15.3067 16.6526 15.5942C15.247 17.7154 12.5826 18.6129 10.1745 17.7754C8.17636 17.0817 6.78261 15.3423 6.48511 13.3223L7.02011 13.7342C7.29448 13.9436 7.68636 13.8936 7.89636 13.6198C8.10698 13.3461 8.05636 12.9542 7.78261 12.7436C7.78261 12.7436 6.30448 11.6054 6.30073 11.6029C5.99011 11.3636 5.54823 11.2292 5.26698 11.5961L4.00448 13.2354C3.79386 13.5092 3.84448 13.9011 4.11823 14.1117C4.23136 14.1986 4.36573 14.2411 4.49886 14.2411Z" fill="white"/>
<path d="M6.48034 9.58127C6.76722 9.7719 7.15534 9.69315 7.34722 9.40565C8.75284 7.28502 11.4197 6.38752 13.8253 7.2244C15.8235 7.91815 17.2172 9.65752 17.5147 11.6775L16.9797 11.2656C16.7053 11.0556 16.3135 11.1056 16.1035 11.38C15.8928 11.6538 15.9435 12.0456 16.2172 12.2563C16.2172 12.2563 17.6953 13.3938 17.6991 13.3969C18.0153 13.64 18.4472 13.7763 18.7328 13.4038L19.9953 11.7644C20.206 11.4906 20.1553 11.0988 19.8816 10.8881C19.6078 10.6775 19.2153 10.7288 19.0053 11.0025L18.7335 11.3556C18.3266 8.9419 16.636 6.8769 14.236 6.04377C11.286 5.02002 8.02597 6.11815 6.30472 8.7144C6.11409 9.00252 6.19284 9.39002 6.48034 9.58127Z" fill="white"/>
</svg>
