<svg width="21" height="20" viewBox="0 0 21 20" fill="none" xmlns="http://www.w3.org/2000/svg">
<g id="next-2 1">
<path id="Vector" d="M1.57734 9.41101L7.41067 3.57768C7.56784 3.42588 7.77834 3.34188 7.99684 3.34378C8.21533 3.34568 8.42435 3.43332 8.57885 3.58783C8.73336 3.74233 8.821 3.95134 8.8229 4.16984C8.8248 4.38834 8.7408 4.59884 8.589 4.75601L4.17817 9.16684H18.8332C19.0542 9.16684 19.2661 9.25464 19.4224 9.41092C19.5787 9.5672 19.6665 9.77916 19.6665 10.0002C19.6665 10.2212 19.5787 10.4332 19.4224 10.5894C19.2661 10.7457 19.0542 10.8335 18.8332 10.8335H4.17817L8.589 15.2443C8.6686 15.3212 8.73208 15.4132 8.77575 15.5148C8.81943 15.6165 8.84242 15.7259 8.84338 15.8365C8.84434 15.9472 8.82326 16.0569 8.78135 16.1593C8.73945 16.2617 8.67758 16.3548 8.59933 16.433C8.52109 16.5113 8.42805 16.5731 8.32563 16.615C8.22322 16.6569 8.11349 16.678 8.00284 16.6771C7.89219 16.6761 7.78284 16.6531 7.68117 16.6094C7.5795 16.5658 7.48754 16.5023 7.41067 16.4227L1.57734 10.5893C1.42111 10.4331 1.33335 10.2211 1.33335 10.0002C1.33335 9.77921 1.42111 9.56728 1.57734 9.41101Z" fill="white" fill-opacity="0.5"/>
</g>
</svg>
