<svg width="450" height="233" viewBox="0 0 450 233" fill="none" xmlns="http://www.w3.org/2000/svg">
<g clip-path="url(#clip0_1024_1028)">
<g opacity="0.6">
<path d="M363.23 91.2816C367.635 94.3728 367.272 98.719 362.424 100.991L262.441 147.815C257.593 150.087 250.09 149.42 245.684 146.329L210.697 121.771C206.291 118.68 206.654 114.334 211.502 112.061L311.485 65.2374C316.333 62.9652 323.836 63.6323 328.242 66.7236L363.23 91.2816Z" fill="url(#paint0_linear_1024_1028)"/>
</g>
<g opacity="0.6">
<path d="M295.15 84.372C300.124 87.8661 299.721 92.7738 294.239 95.3432L181.304 148.231C175.821 150.794 167.347 150.041 162.373 146.553L122.854 118.811C117.881 115.317 118.284 110.41 123.766 107.84L236.708 54.9526C242.183 52.3898 250.658 53.1362 255.632 56.6303L295.15 84.372Z" fill="url(#paint1_linear_1024_1028)"/>
</g>
<g opacity="0.6">
<path d="M302.713 162.121C307.119 165.213 306.755 169.559 301.907 171.831L201.925 218.655C197.077 220.927 189.573 220.26 185.168 217.169L150.18 192.611C145.774 189.52 146.138 185.173 150.986 182.901L250.968 136.077C255.816 133.805 263.32 134.472 267.726 137.563L302.713 162.121Z" fill="url(#paint2_linear_1024_1028)"/>
</g>
<path d="M297.858 60.5216C297.924 60.4952 321.914 49.2598 321.914 49.2598" stroke="#0CDBE6" stroke-width="0.73" stroke-miterlimit="10"/>
<path style="mix-blend-mode:screen" d="M319.668 50.3428C319.939 50.9174 316.637 53.0443 312.29 55.0985C307.944 57.1527 304.206 58.3549 303.935 57.7802C303.664 57.2056 306.967 55.0787 311.313 53.0245C315.659 50.9703 319.398 49.7681 319.668 50.3428Z" fill="url(#paint3_radial_1024_1028)"/>
<path d="M350.521 40.5066C353.705 42.7391 353.447 45.8832 349.94 47.5279L337.932 53.0828C334.424 54.7275 329.002 54.2453 325.818 52.0062L318.499 46.8476C315.316 44.615 315.573 41.471 319.081 39.8263L331.089 34.2713C334.596 32.6266 340.019 33.1088 343.203 35.348L350.521 40.5066Z" stroke="url(#paint4_linear_1024_1028)" stroke-width="0.98" stroke-miterlimit="10"/>
<path d="M350.118 40.5066C353.302 42.7391 353.044 45.8832 349.537 47.5279L337.529 53.0828C334.022 54.7275 328.599 54.2453 325.415 52.0062L318.097 46.8476C314.913 44.615 315.17 41.471 318.678 39.8263L330.686 34.2713C334.193 32.6266 339.616 33.1088 342.8 35.348L350.118 40.5066Z" fill="url(#paint5_linear_1024_1028)"/>
<path style="mix-blend-mode:multiply" opacity="0.5" d="M340.409 39.9457C333.414 35.0777 326.802 48.4796 326.802 48.4796C326.802 48.4796 350.415 46.9141 340.409 39.9457ZM334.689 43.8692C333.183 42.0924 336.617 39.1729 338.678 41.2073C340.712 43.2086 336.201 45.6592 334.689 43.8692Z" fill="url(#paint6_linear_1024_1028)"/>
<path d="M340.409 38.0707C333.414 33.2027 326.802 46.6046 326.802 46.6046C326.802 46.6046 350.415 45.0391 340.409 38.0707ZM334.689 41.9942C333.183 40.2174 336.617 37.2979 338.678 39.3323C340.712 41.3336 336.201 43.7842 334.689 41.9942Z" fill="#0CDBE6"/>
<path d="M226.45 167.102L246.959 182.26C249.74 184.315 253.425 184.685 256.549 183.212L286.96 168.951" stroke="#0CDBE6" stroke-width="0.73" stroke-miterlimit="10"/>
<path d="M315.567 160.246C318.75 162.478 318.493 165.623 314.985 167.267L302.977 172.822C299.47 174.467 294.047 173.985 290.863 171.746L283.545 166.587C280.361 164.354 280.619 161.21 284.126 159.566L296.134 154.011C299.642 152.373 305.064 152.848 308.248 155.087L315.567 160.246Z" stroke="url(#paint7_linear_1024_1028)" stroke-width="0.98" stroke-miterlimit="10"/>
<path d="M315.752 160.246C318.935 162.478 318.671 165.623 315.17 167.267L303.162 172.822C299.655 174.467 294.232 173.985 291.048 171.746L283.73 166.587C280.546 164.354 280.804 161.21 284.311 159.566L296.319 154.011C299.827 152.373 305.249 152.848 308.433 155.087L315.752 160.246Z" fill="url(#paint8_linear_1024_1028)"/>
<g opacity="0.4">
<path d="M298.268 167.585L298.321 168.16C298.34 168.371 298.671 168.516 299.054 168.483L301.471 168.272C301.861 168.239 302.158 168.041 302.138 167.829L302.092 167.334C302.072 167.129 302.284 166.924 302.62 166.819C302.68 166.799 302.739 166.779 302.799 166.766C303.136 166.654 303.539 166.667 303.809 166.786L304.477 167.083C304.761 167.208 305.21 167.169 305.467 166.997L307.105 165.914C307.363 165.742 307.35 165.498 307.059 165.372L306.293 165.035C306.075 164.936 305.989 164.771 306.101 164.613C306.161 164.527 306.22 164.441 306.267 164.355C306.352 164.196 306.59 164.078 306.874 164.051L307.951 163.959C308.341 163.926 308.638 163.727 308.618 163.516L308.499 162.195C308.479 161.984 308.149 161.838 307.766 161.871L306.716 161.964C306.418 161.99 306.148 161.904 306.029 161.759C305.956 161.667 305.87 161.581 305.778 161.488C305.632 161.35 305.652 161.171 305.85 161.033L306.544 160.55C306.795 160.372 306.762 160.134 306.465 160.009L304.635 159.249C304.344 159.13 303.902 159.176 303.644 159.348L302.62 160.055C302.383 160.009 302.145 159.976 301.894 159.943C301.616 159.91 301.432 159.784 301.418 159.626L301.365 159.051C301.346 158.84 301.022 158.694 300.632 158.727L298.215 158.939C297.825 158.972 297.528 159.17 297.548 159.381L297.587 159.877C297.607 160.081 297.396 160.286 297.059 160.392C296.999 160.412 296.94 160.431 296.887 160.445C296.55 160.557 296.154 160.544 295.877 160.425L295.209 160.128C294.925 160.002 294.476 160.042 294.219 160.213L292.587 161.297C292.33 161.468 292.349 161.713 292.633 161.838L293.4 162.175C293.618 162.274 293.704 162.439 293.591 162.598C293.532 162.684 293.479 162.77 293.433 162.856C293.347 163.014 293.109 163.133 292.825 163.159L291.748 163.252C291.359 163.285 291.061 163.483 291.081 163.694L291.194 165.015C291.213 165.227 291.544 165.372 291.927 165.339L292.977 165.247C293.281 165.22 293.545 165.306 293.664 165.451C293.737 165.544 293.822 165.63 293.915 165.722C294.06 165.861 294.04 166.039 293.842 166.178L293.155 166.66C292.904 166.838 292.937 167.076 293.228 167.202L295.058 167.955C295.348 168.074 295.797 168.034 296.048 167.856L297.066 167.149C297.303 167.195 297.548 167.228 297.799 167.255C298.07 167.288 298.254 167.413 298.268 167.572V167.585ZM299.668 161.587C301.722 161.409 303.473 162.169 303.572 163.285C303.671 164.401 302.079 165.451 300.025 165.636C297.97 165.815 296.227 165.055 296.128 163.939C296.029 162.823 297.62 161.772 299.675 161.587H299.668Z" fill="url(#paint9_linear_1024_1028)"/>
</g>
<path d="M297.68 165.537L297.733 166.111C297.752 166.323 298.083 166.468 298.466 166.435L300.883 166.224C301.273 166.191 301.57 165.993 301.55 165.781L301.504 165.286C301.484 165.081 301.696 164.876 302.033 164.771C302.092 164.751 302.151 164.731 302.211 164.711C302.548 164.599 302.951 164.612 303.222 164.731L303.889 165.028C304.179 165.154 304.622 165.114 304.879 164.942L306.518 163.859C306.775 163.687 306.762 163.443 306.471 163.317L305.705 162.981C305.487 162.882 305.401 162.716 305.514 162.558C305.573 162.472 305.632 162.386 305.679 162.3C305.765 162.142 306.002 162.023 306.286 161.996L307.363 161.904C307.753 161.871 308.05 161.673 308.03 161.461L307.918 160.14C307.898 159.929 307.568 159.784 307.185 159.817L306.134 159.909C305.837 159.936 305.566 159.85 305.447 159.704C305.368 159.612 305.289 159.526 305.196 159.434C305.051 159.295 305.071 159.117 305.269 158.978L305.963 158.496C306.214 158.317 306.181 158.08 305.883 157.954L304.054 157.194C303.763 157.076 303.321 157.115 303.063 157.294L302.039 158C301.801 157.954 301.564 157.921 301.313 157.888C301.042 157.855 300.85 157.729 300.837 157.571L300.784 156.996C300.764 156.785 300.441 156.64 300.051 156.673L297.634 156.884C297.244 156.917 296.947 157.115 296.966 157.327L297.006 157.822C297.026 158.027 296.815 158.231 296.471 158.337C296.412 158.357 296.352 158.377 296.299 158.39C295.962 158.502 295.566 158.489 295.289 158.37L294.622 158.073C294.338 157.947 293.888 157.987 293.631 158.159L291.993 159.242C291.735 159.414 291.755 159.658 292.039 159.784L292.805 160.121C293.023 160.22 293.109 160.385 292.997 160.543C292.937 160.629 292.884 160.715 292.838 160.801C292.752 160.959 292.515 161.078 292.231 161.105L291.154 161.197C290.764 161.23 290.467 161.428 290.487 161.64L290.599 162.961C290.619 163.172 290.949 163.317 291.332 163.284L292.382 163.192C292.686 163.166 292.951 163.251 293.069 163.397C293.142 163.489 293.228 163.575 293.32 163.668C293.466 163.806 293.446 163.985 293.248 164.123L292.561 164.605C292.31 164.784 292.343 165.022 292.633 165.147L294.463 165.9C294.754 166.026 295.196 165.979 295.454 165.801L296.471 165.094C296.709 165.14 296.947 165.173 297.204 165.207C297.475 165.24 297.66 165.365 297.673 165.524L297.68 165.537ZM299.08 159.539C301.134 159.361 302.885 160.121 302.984 161.237C303.083 162.353 301.491 163.41 299.437 163.588C297.383 163.767 295.639 163.007 295.54 161.891C295.441 160.774 297.033 159.724 299.087 159.539H299.08Z" fill="#0CDBE6"/>
<path style="mix-blend-mode:screen" d="M281.035 171.838C281.391 172.591 277.045 175.391 271.319 178.099C265.599 180.801 260.671 182.386 260.314 181.633C259.958 180.88 264.304 178.08 270.031 175.371C275.751 172.67 280.678 171.085 281.035 171.838Z" fill="url(#paint10_radial_1024_1028)"/>
<path d="M204.164 78.0242L186.944 66.0292C183.41 63.5655 183.866 58.1955 187.77 56.3725L210.842 45.5664" stroke="#0CDBE6" stroke-width="0.73" stroke-miterlimit="10"/>
<path d="M239.257 36.6687C242.441 38.9013 242.183 42.0453 238.676 43.69L226.668 49.2449C223.16 50.8896 217.738 50.4075 214.554 48.1683L207.235 43.0097C204.052 40.7771 204.309 37.6331 207.817 35.9884L219.825 30.4334C223.332 28.7887 228.755 29.2709 231.939 31.5101L239.257 36.6687Z" stroke="url(#paint11_linear_1024_1028)" stroke-width="0.98" stroke-miterlimit="10"/>
<path d="M238.854 36.6687C242.038 38.9013 241.78 42.0453 238.273 43.69L226.265 49.2449C222.757 50.8896 217.335 50.4075 214.151 48.1683L206.832 43.0097C203.649 40.7771 203.906 37.6331 207.414 35.9884L219.422 30.4334C222.929 28.7887 228.352 29.2709 231.536 31.5101L238.854 36.6687Z" fill="url(#paint12_linear_1024_1028)"/>
<g opacity="0.4">
<path opacity="0.9" d="M212.632 38.3335C212.559 38.2608 224.911 32.5605 224.911 32.5605L227.374 34.0269L215.003 39.9914L212.632 38.3335Z" fill="#170056"/>
<path opacity="0.9" d="M215.789 40.4672C215.716 40.3946 222.539 37.3496 222.539 37.3496L225.003 38.816L218.16 42.1251L215.789 40.4672Z" fill="#170056"/>
<path opacity="0.9" d="M218.728 42.468C218.656 42.3953 228.59 37.8906 228.59 37.8906L231.053 39.357L221.099 44.1259L218.728 42.468Z" fill="#170056"/>
<path opacity="0.9" d="M221.701 44.5887C221.628 44.5161 227.044 42.125 227.044 42.125L229.508 43.5913L224.072 46.2466L221.701 44.5887Z" fill="#170056"/>
</g>
<path opacity="0.9" d="M212.632 36.9604C212.559 36.8878 224.911 31.1875 224.911 31.1875L227.374 32.6538L215.003 38.6183L212.632 36.9604Z" fill="#0CDBE6"/>
<path opacity="0.9" d="M215.789 39.0942C215.716 39.0215 222.54 35.9766 222.54 35.9766L225.003 37.4429L218.16 40.7521L215.789 39.0942Z" fill="#0CDBE6"/>
<path opacity="0.9" d="M218.728 41.095C218.656 41.0157 228.59 36.5176 228.59 36.5176L231.054 37.9839L221.1 42.7529L218.728 41.095Z" fill="#0CDBE6"/>
<path opacity="0.9" d="M221.701 43.2157C221.628 43.143 227.044 40.752 227.044 40.752L229.508 42.2183L224.072 44.8736L221.701 43.2157Z" fill="#0CDBE6"/>
<path style="mix-blend-mode:screen" d="M206.965 47.2967C207.321 48.0497 202.975 50.8503 197.248 53.5584C191.528 56.2599 186.601 57.8451 186.244 57.0922C185.887 56.3392 190.234 53.5386 195.96 50.8305C201.68 48.1289 206.608 46.5437 206.965 47.2967Z" fill="url(#paint13_radial_1024_1028)"/>
<path d="M320.89 111.936C325.864 115.431 325.461 120.338 319.979 122.908L207.044 175.795C201.562 178.358 193.087 177.605 188.113 174.117L148.595 146.376C143.621 142.882 144.024 137.974 149.506 135.405L262.441 82.517C267.917 79.9542 276.391 80.7006 281.372 84.1947L320.89 111.936Z" stroke="#0CDBE6" stroke-width="0.73" stroke-miterlimit="10"/>
<path d="M327.575 81.4918L321.492 82.2977L283.888 55.8968C278.915 52.4027 270.44 51.6497 264.958 54.2191L159.236 103.725L148.278 105.171L147.67 112.021C147.65 112.146 147.644 112.279 147.637 112.411C147.551 114.346 148.694 116.38 151.111 118.078L190.63 145.82C195.604 149.314 204.078 150.067 209.56 147.497L322.496 94.6097C324.926 93.4736 326.353 91.8751 326.763 90.138L326.815 90.1182L327.582 81.4984L327.575 81.4918Z" fill="url(#paint14_linear_1024_1028)"/>
<path opacity="0.8" d="M327.575 81.4918L321.492 82.2977L283.888 55.8968C278.915 52.4027 270.44 51.6497 264.958 54.2191L159.236 103.725L148.278 105.171L147.67 112.021C147.65 112.146 147.644 112.279 147.637 112.411C147.551 114.346 148.694 116.38 151.111 118.078L190.63 145.82C195.604 149.314 204.078 150.067 209.56 147.497L322.496 94.6097C324.926 93.4736 326.353 91.8751 326.763 90.138L326.815 90.1182L327.582 81.4984L327.575 81.4918Z" fill="url(#paint15_linear_1024_1028)"/>
<path d="M324.048 76.4002C329.021 79.8944 328.618 84.802 323.136 87.3714L210.201 140.259C204.725 142.822 196.244 142.069 191.271 138.581L151.752 110.84C146.778 107.345 147.181 102.438 152.663 99.8684L265.599 46.9808C271.074 44.4114 279.549 45.1644 284.529 48.6585L324.048 76.4002Z" fill="url(#paint16_linear_1024_1028)"/>
<path d="M319.999 77.133L314.087 72.9784C313.678 72.6877 313.189 72.5358 312.687 72.5358H305.646C304.979 72.5358 304.325 72.3244 303.783 71.9347L282.396 56.2871C281.834 55.8776 281.623 55.1444 281.88 54.4971L282.904 51.8947C283.05 51.5248 282.924 51.1021 282.6 50.8775C277.891 47.5683 269.872 46.8615 264.687 49.2856L166.455 94.564C161.27 96.9947 160.88 101.638 165.59 104.947L202.995 131.203C207.704 134.505 215.723 135.219 220.908 132.788L319.14 87.5097C324.325 85.079 324.708 80.429 320.005 77.1264L319.999 77.133Z" fill="url(#paint17_linear_1024_1028)"/>
<path d="M298.182 63.8688C298.07 63.8556 297.957 63.8159 297.858 63.7433L292.165 59.615C291.867 59.4037 291.808 58.9942 292.019 58.6969C292.231 58.4063 292.64 58.3402 292.937 58.5516L298.631 62.6798C298.922 62.8912 298.988 63.3007 298.776 63.598C298.638 63.7895 298.407 63.8886 298.189 63.8688H298.182Z" fill="url(#paint18_linear_1024_1028)"/>
<path d="M300.441 64.3529C300.408 64.7161 300.091 64.9804 299.728 64.9473C299.364 64.9143 299.1 64.5973 299.133 64.234C299.166 63.8707 299.483 63.6065 299.847 63.6395C300.21 63.6725 300.474 63.9896 300.441 64.3529Z" fill="url(#paint19_linear_1024_1028)"/>
<path d="M182.136 124.327C180.399 126.712 176.548 126.87 173.529 124.677C170.511 122.484 169.474 118.772 171.211 116.381C172.948 113.997 176.799 113.838 179.817 116.031C182.836 118.224 183.873 121.936 182.136 124.327Z" fill="url(#paint20_linear_1024_1028)"/>
<path style="mix-blend-mode:screen" opacity="0.5" d="M181.759 123.765C180.148 125.977 176.581 126.123 173.78 124.088C170.98 122.054 170.022 118.613 171.627 116.4C173.239 114.187 176.805 114.042 179.606 116.076C182.407 118.111 183.364 121.552 181.759 123.765Z" fill="url(#paint21_linear_1024_1028)"/>
<path d="M293.809 104.703L285.817 108.343" stroke="white" stroke-width="4.32" stroke-linecap="round" stroke-linejoin="round"/>
<path d="M283.102 109.465L275.104 113.104" stroke="white" stroke-width="4.32" stroke-linecap="round" stroke-linejoin="round"/>
<path d="M203.081 115.053C204.851 116.295 204.355 117.933 202.149 119.28C199.362 120.833 196.905 120.066 195.135 118.825L181.046 108.937C179.513 107.854 180.28 105.674 182.023 104.597C183.767 103.521 186.079 103.038 188.992 105.165L203.081 115.053Z" fill="url(#paint22_linear_1024_1028)"/>
<g style="mix-blend-mode:multiply" opacity="0.8">
<path d="M200.148 113.877C201.568 114.874 201.165 116.182 199.402 117.259C197.169 118.5 195.207 117.886 193.787 116.895L182.512 108.976C181.284 108.111 181.898 106.36 183.292 105.501C184.685 104.636 186.535 104.253 188.873 105.957L200.148 113.877Z" fill="url(#paint23_linear_1024_1028)"/>
</g>
<path d="M186.971 104.868C190.214 106.936 185.419 111.183 182.149 108.93C178.88 106.678 183.814 102.854 186.971 104.868Z" fill="url(#paint24_linear_1024_1028)"/>
<g opacity="0.6">
<g style="mix-blend-mode:screen" opacity="0.4">
<path d="M306.973 78.9819C310.884 81.7297 310.567 85.5937 306.253 87.6083L291.491 94.438C287.184 96.4592 280.513 95.8647 276.603 93.117L245.519 71.3001C241.602 68.5524 241.926 64.6883 246.232 62.6738L260.995 55.844C265.301 53.8229 271.966 54.4173 275.883 57.1651L306.967 78.9819H306.973Z" fill="url(#paint25_linear_1024_1028)"/>
</g>
<g style="mix-blend-mode:screen" opacity="0.4">
<path d="M270.341 95.4099C274.166 98.0982 273.855 101.876 269.641 103.851L266.867 105.205C262.653 107.18 256.127 106.599 252.302 103.911L221.892 82.5629C218.061 79.8746 218.378 76.0964 222.592 74.1215L225.367 72.7674C229.581 70.7925 236.107 71.3737 239.931 74.062L270.341 95.4099Z" fill="url(#paint26_linear_1024_1028)"/>
</g>
<g style="mix-blend-mode:screen" opacity="0.3">
<path d="M228.55 90.6205C232.375 93.3088 232.064 97.087 227.85 99.0619L225.076 100.416C220.862 102.391 214.336 101.81 210.512 99.1214L201.568 92.7738C197.737 90.0855 198.054 86.3073 202.268 84.3324L205.043 82.9783C209.257 81.0034 215.783 81.5847 219.607 84.273L228.55 90.6205Z" fill="url(#paint27_linear_1024_1028)"/>
</g>
<path style="mix-blend-mode:screen" opacity="0.4" d="M237.223 98.7188L256.332 112.055" stroke="url(#paint28_linear_1024_1028)" stroke-width="1.83" stroke-linecap="round" stroke-linejoin="round"/>
<path style="mix-blend-mode:screen" opacity="0.4" d="M232.058 100.363L251.166 113.706" stroke="url(#paint29_linear_1024_1028)" stroke-width="1.83" stroke-linecap="round" stroke-linejoin="round"/>
<path style="mix-blend-mode:screen" opacity="0.4" d="M227.665 102.793L246.774 116.135" stroke="url(#paint30_linear_1024_1028)" stroke-width="1.83" stroke-linecap="round" stroke-linejoin="round"/>
<path style="mix-blend-mode:screen" opacity="0.4" d="M223.603 105.383L242.712 118.725" stroke="url(#paint31_linear_1024_1028)" stroke-width="1.83" stroke-linecap="round" stroke-linejoin="round"/>
<path style="mix-blend-mode:screen" opacity="0.3" d="M229.832 116.539C231.688 117.84 231.166 119.557 228.854 120.964C225.935 122.596 223.365 121.79 221.509 120.482L187.915 97.3178C186.31 96.1884 187.11 93.903 188.939 92.7735C190.762 91.644 193.186 91.1354 196.238 93.3746L229.832 116.539Z" fill="url(#paint32_linear_1024_1028)"/>
</g>
<path d="M346.611 88.764C349.154 90.5474 348.943 93.0574 346.149 94.3652L324.735 104.015C321.934 105.323 317.608 104.94 315.065 103.157L294.879 88.9886C292.336 87.2052 292.548 84.6953 295.342 83.3874L316.756 73.7373C319.556 72.4295 323.882 72.8126 326.425 74.596L346.611 88.764Z" fill="url(#paint33_linear_1024_1028)"/>
<g opacity="0.5">
<path d="M344.748 87.5696C347.093 89.2143 346.902 91.5327 344.319 92.7481L324.537 101.665C321.954 102.874 317.951 102.517 315.606 100.872L296.953 87.781C294.609 86.1297 294.8 83.8179 297.383 82.6025L317.165 73.6855C319.748 72.4768 323.751 72.8269 326.095 74.4782L344.742 87.5696H344.748Z" fill="url(#paint34_linear_1024_1028)"/>
</g>
<g style="mix-blend-mode:multiply" opacity="0.38">
<path d="M315.428 94.1343C314.028 94.1343 312.627 93.7116 311.452 92.8793L307.925 90.4024C306.709 89.5503 306.055 88.1566 306.187 86.6771C306.313 85.1975 307.191 83.9359 308.539 83.3018L319.16 78.2885C319.834 77.9715 320.64 78.2621 320.963 78.9358C321.28 79.6096 320.99 80.4154 320.316 80.739L309.695 85.7524C309.028 86.0694 308.909 86.6705 308.889 86.9149C308.869 87.1593 308.889 87.7735 309.49 88.1963L313.017 90.6732C314.239 91.5319 315.838 91.6772 317.192 91.0497L329.781 85.2636C330.461 84.9531 331.261 85.2504 331.578 85.9307C331.888 86.611 331.591 87.4103 330.911 87.7273L318.321 93.5134C317.403 93.9362 316.419 94.1409 315.441 94.1409L315.428 94.1343Z" fill="url(#paint35_linear_1024_1028)"/>
<path d="M319.193 98.7321C318.684 98.7321 318.196 98.4415 317.964 97.9527C317.647 97.279 317.938 96.4732 318.618 96.1561L334.451 88.765C335.131 88.4479 335.93 88.7385 336.248 89.4189C336.565 90.0926 336.274 90.8984 335.594 91.2155L319.761 98.6066C319.576 98.6925 319.385 98.7321 319.186 98.7321H319.193Z" fill="url(#paint36_linear_1024_1028)"/>
</g>
<path d="M315.428 92.2788C314.028 92.2788 312.627 91.8561 311.452 91.0239L307.925 88.5469C306.709 87.6949 306.055 86.3012 306.187 84.8216C306.313 83.3421 307.191 82.0805 308.539 81.4464L319.16 76.4331C319.834 76.116 320.64 76.4066 320.963 77.0804C321.28 77.7541 320.99 78.5599 320.316 78.8836L309.695 83.8969C309.028 84.2139 308.909 84.815 308.889 85.0594C308.869 85.3038 308.889 85.9181 309.49 86.3408L313.017 88.8177C314.239 89.6764 315.838 89.8217 317.192 89.1942L329.781 83.4081C330.461 83.0977 331.261 83.3949 331.578 84.0752C331.888 84.7556 331.591 85.5548 330.911 85.8718L318.321 91.658C317.403 92.0807 316.419 92.2855 315.441 92.2855L315.428 92.2788Z" fill="white"/>
<path d="M319.193 96.8767C318.684 96.8767 318.196 96.5861 317.964 96.0973C317.647 95.4235 317.938 94.6177 318.618 94.3007L334.451 86.9095C335.131 86.5924 335.93 86.8831 336.248 87.5634C336.565 88.2371 336.274 89.043 335.594 89.36L319.761 96.7512C319.576 96.837 319.385 96.8767 319.186 96.8767H319.193Z" fill="white"/>
<path d="M349.161 116.071C351.697 117.854 351.492 120.364 348.698 121.672L327.284 131.322C324.484 132.63 320.157 132.247 317.614 130.463L297.429 116.295C294.886 114.512 295.097 112.002 297.891 110.694L319.305 101.044C322.106 99.7361 326.432 100.119 328.975 101.903L349.161 116.071Z" fill="url(#paint37_linear_1024_1028)"/>
<path d="M347.298 114.874C349.643 116.519 349.451 118.837 346.869 120.053L327.086 128.97C324.503 130.178 320.501 129.828 318.156 128.177L299.51 115.086C297.158 113.434 297.356 111.123 299.939 109.907L319.721 100.99C322.304 99.7815 326.307 100.132 328.652 101.783L347.298 114.874Z" fill="url(#paint38_linear_1024_1028)"/>
<g style="mix-blend-mode:multiply" opacity="0.35">
<path d="M330.54 113.401C331.181 113.104 331.459 112.351 331.168 111.711C330.871 111.07 330.118 110.792 329.477 111.083L317.608 116.539C316.333 117.127 314.82 116.988 313.671 116.182L310.342 113.844C309.774 113.448 309.761 112.866 309.78 112.635C309.8 112.404 309.913 111.836 310.54 111.539L320.553 106.81C321.194 106.506 321.465 105.746 321.161 105.112C320.857 104.478 320.098 104.2 319.464 104.504L309.45 109.234C308.182 109.828 307.356 111.024 307.237 112.417C307.119 113.811 307.733 115.125 308.876 115.931L312.205 118.269C313.321 119.049 314.635 119.452 315.956 119.452C316.881 119.452 317.812 119.254 318.671 118.857L330.54 113.401Z" fill="#5217CB"/>
<path d="M339.147 118.264L331.346 118.997L333.731 114.168C334.041 113.534 333.784 112.775 333.156 112.458C332.522 112.147 331.756 112.405 331.445 113.039L328.361 119.281L319.133 120.146C318.433 120.212 317.918 120.833 317.984 121.533C318.043 122.194 318.605 122.689 319.252 122.689C319.292 122.689 319.331 122.689 319.371 122.689L327.033 121.969L324.642 126.811C324.332 127.445 324.589 128.204 325.223 128.521C325.402 128.614 325.6 128.653 325.785 128.653C326.254 128.653 326.709 128.396 326.927 127.94L330.019 121.692L339.385 120.813C340.085 120.747 340.6 120.126 340.534 119.426C340.468 118.726 339.847 118.204 339.147 118.277V118.264Z" fill="#5217CB"/>
</g>
<path d="M315.956 117.59C314.635 117.59 313.321 117.193 312.205 116.407L308.876 114.069C307.726 113.263 307.112 111.949 307.238 110.555C307.356 109.161 308.189 107.972 309.45 107.371L319.464 102.642C320.098 102.345 320.864 102.616 321.161 103.25C321.465 103.89 321.188 104.65 320.554 104.947L310.54 109.67C309.913 109.967 309.8 110.535 309.781 110.766C309.761 110.998 309.781 111.579 310.342 111.975L313.671 114.313C314.82 115.119 316.333 115.258 317.608 114.67L329.477 109.214C330.118 108.924 330.877 109.201 331.168 109.842C331.465 110.482 331.181 111.242 330.541 111.533L318.671 116.989C317.806 117.385 316.881 117.583 315.956 117.583V117.59Z" fill="white"/>
<path d="M325.785 126.784C325.593 126.784 325.402 126.744 325.223 126.651C324.589 126.341 324.332 125.575 324.642 124.941L331.446 111.176C331.756 110.541 332.522 110.284 333.156 110.594C333.79 110.905 334.048 111.671 333.731 112.305L326.928 126.07C326.703 126.519 326.254 126.784 325.785 126.784Z" fill="white"/>
<path d="M319.252 120.833C318.605 120.833 318.044 120.337 317.984 119.677C317.918 118.977 318.433 118.356 319.134 118.29L339.147 116.414C339.847 116.348 340.468 116.863 340.534 117.563C340.6 118.263 340.085 118.884 339.385 118.95L319.371 120.826C319.332 120.826 319.292 120.826 319.252 120.826V120.833Z" fill="white"/>
<path d="M280.262 73.9294C284.093 76.6177 283.776 80.3959 279.562 82.3708L265.116 89.0553C260.902 91.0302 254.376 90.449 250.552 87.7607L220.142 66.4128C216.311 63.7245 216.628 59.9463 220.842 57.9714L235.281 51.2869C239.495 49.312 246.021 49.8933 249.845 52.5816L280.255 73.9294H280.262Z" fill="url(#paint39_linear_1024_1028)"/>
<g style="mix-blend-mode:screen" opacity="0.2">
<path d="M278.307 72.7338C281.94 75.2834 281.649 78.8766 277.64 80.7525L263.921 87.1C259.918 88.9759 253.723 88.4277 250.083 85.8715L221.199 65.5936C217.559 63.0374 217.857 59.4508 221.866 57.575L235.585 51.2274C239.587 49.3515 245.783 49.8998 249.423 52.456L278.307 72.7338Z" fill="url(#paint40_linear_1024_1028)"/>
</g>
<g style="mix-blend-mode:screen">
<path d="M255.836 59.1466C258.994 61.3593 258.736 64.4769 255.255 66.1018L243.353 71.6105C239.878 73.2354 234.502 72.7598 231.344 70.5471L224.085 65.4347C220.928 63.222 221.186 60.1043 224.66 58.4795L236.562 52.9707C240.037 51.3459 245.413 51.8214 248.571 54.0342L255.83 59.1466H255.836Z" stroke="url(#paint41_linear_1024_1028)" stroke-width="0.98" stroke-miterlimit="10"/>
</g>
<g style="mix-blend-mode:screen" opacity="0.9">
<path d="M252.91 59.7277C255.48 61.5309 255.275 64.0739 252.441 65.4015L242.738 69.893C239.905 71.2207 235.525 70.831 232.949 69.0277L227.031 64.8599C224.455 63.0567 224.667 60.5137 227.5 59.1861L237.203 54.6945C240.037 53.3669 244.416 53.7566 246.992 55.5598L252.91 59.7277Z" fill="url(#paint42_linear_1024_1028)"/>
</g>
<path style="mix-blend-mode:screen" opacity="0.9" d="M235.142 64.1613L238.24 57.3184L229.422 58.2959L227.5 59.1876C224.667 60.5153 224.455 63.0516 227.031 64.8615L232.949 69.0293C235.519 70.8325 239.905 71.2222 242.738 69.8946L244.832 68.9236L249.766 60.8719L235.149 64.1547L235.142 64.1613Z" fill="url(#paint43_linear_1024_1028)"/>
<path style="mix-blend-mode:screen" opacity="0.9" d="M245.585 58.9497C245.968 59.6828 245.374 60.7529 244.257 61.3341C243.141 61.9154 241.926 61.7965 241.543 61.0633C241.159 60.3301 241.754 59.2601 242.87 58.6788C243.986 58.0976 245.202 58.2165 245.585 58.9497Z" fill="url(#paint44_linear_1024_1028)"/>
<g style="mix-blend-mode:screen">
<path d="M260.605 66.9883L275.995 77.7349" stroke="url(#paint45_linear_1024_1028)" stroke-width="0.98" stroke-miterlimit="10"/>
<path d="M256.444 68.3164L271.84 79.063" stroke="url(#paint46_linear_1024_1028)" stroke-width="0.98" stroke-miterlimit="10"/>
<path d="M252.91 70.2773L268.3 81.0173" stroke="url(#paint47_linear_1024_1028)" stroke-width="0.98" stroke-miterlimit="10"/>
<path d="M249.64 72.3574L265.03 83.104" stroke="url(#paint48_linear_1024_1028)" stroke-width="0.98" stroke-miterlimit="10"/>
<path d="M246.001 75.3711L255.017 81.6592" stroke="url(#paint49_linear_1024_1028)" stroke-width="0.98" stroke-miterlimit="10"/>
</g>
<path d="M295.018 36.3064C297.178 37.8256 297.006 39.959 294.622 41.0753L276.411 49.2855C274.033 50.4018 270.348 50.0715 268.188 48.559L251.021 36.5045C248.861 34.9853 249.033 32.8519 251.417 31.7356L269.634 23.5254C272.012 22.4091 275.698 22.7394 277.858 24.252L295.025 36.3064H295.018Z" fill="url(#paint50_linear_1024_1028)"/>
<g opacity="0.5">
<path d="M292.871 34.9256C294.807 36.2862 294.648 38.2017 292.515 39.1991L276.187 46.5573C274.053 47.5546 270.751 47.264 268.815 45.9034L253.425 35.0973C251.49 33.7366 251.649 31.8211 253.782 30.8238L270.11 23.4656C272.243 22.4682 275.546 22.7589 277.481 24.1195L292.878 34.9256H292.871Z" fill="url(#paint51_linear_1024_1028)"/>
</g>
<g style="mix-blend-mode:multiply" opacity="0.6">
<path d="M279.423 31.5444C282.461 33.4798 277.97 37.4627 274.905 35.349C271.84 33.2354 276.47 29.6554 279.423 31.5444Z" fill="#FF0376"/>
<path d="M272.877 34.8867C269.502 32.7334 265.308 33.275 262.283 35.0386C261.787 35.3292 261.761 36.0294 262.23 36.3596L272.455 43.5394C272.765 43.7574 273.188 43.7244 273.459 43.4536C276.021 40.8974 276.649 37.291 272.877 34.8867Z" fill="#FF0376"/>
</g>
<path d="M279.423 29.6616C282.462 31.6035 277.97 35.5799 274.905 33.4662C271.841 31.3526 276.471 27.7726 279.423 29.6616Z" fill="white"/>
<path d="M272.877 33.0039C269.502 30.8506 265.308 31.3922 262.283 33.1558C261.787 33.4464 261.761 34.1466 262.23 34.4768L272.455 41.6566C272.765 41.8746 273.188 41.8416 273.459 41.5708C276.021 39.0146 276.649 35.4081 272.877 33.0039Z" fill="white"/>
<path d="M148.667 85.6599C150.827 87.1791 150.656 89.3125 148.271 90.4288L130.061 98.639C127.683 99.7553 123.997 99.4251 121.837 97.9125L104.67 85.858C102.51 84.3389 102.682 82.2054 105.067 81.0891L123.284 72.8789C125.662 71.7626 129.347 72.0929 131.507 73.6055L148.674 85.6599H148.667Z" fill="url(#paint52_linear_1024_1028)"/>
<g opacity="0.5">
<path d="M146.514 84.2732C148.45 85.6339 148.291 87.5494 146.158 88.5468L129.83 95.9049C127.696 96.9023 124.394 96.6117 122.458 95.251L107.068 84.445C105.133 83.0843 105.291 81.1688 107.425 80.1714L123.753 72.8133C125.886 71.8159 129.189 72.1065 131.124 73.4672L146.521 84.2732H146.514Z" fill="url(#paint53_linear_1024_1028)"/>
</g>
<g style="mix-blend-mode:multiply" opacity="0.4">
<path d="M127.742 91.612C126.798 91.612 125.879 91.3676 125.199 90.9317L120.575 90.3702C120.331 90.3372 120.126 90.1588 120.067 89.9145C120.007 89.6701 120.113 89.4191 120.318 89.2804L121.52 88.4877L114.215 83.6395C113.534 83.164 113.184 82.5233 113.237 81.8892C113.29 81.2551 113.746 80.6936 114.479 80.3502L123.125 76.4531C123.634 76.2153 124.261 76.0898 124.935 76.0898C125.939 76.0898 126.91 76.3673 127.61 76.856L138.469 84.0557C139.149 84.5312 139.499 85.1719 139.446 85.806C139.394 86.4401 138.938 87.0016 138.205 87.345L129.559 91.2421C129.05 91.4799 128.422 91.6054 127.749 91.6054L127.742 91.612ZM122.326 89.386L125.483 89.7691C125.582 89.7824 125.675 89.8154 125.754 89.8748C126.249 90.2183 126.989 90.4297 127.742 90.4297C128.237 90.4297 128.7 90.3372 129.057 90.1721L137.703 86.275C138.026 86.1231 138.238 85.9117 138.258 85.7136C138.277 85.5088 138.099 85.2644 137.795 85.0464L126.936 77.8468C126.428 77.4901 125.688 77.2854 124.935 77.2854C124.44 77.2854 123.977 77.3778 123.62 77.543L114.974 81.44C114.651 81.5919 114.439 81.8033 114.419 82.0015C114.4 82.2062 114.578 82.4506 114.882 82.6686L122.927 88.0056C123.092 88.1179 123.191 88.3028 123.191 88.501C123.191 88.6991 123.092 88.8841 122.927 88.9963L122.326 89.3926V89.386Z" fill="#FF0376"/>
</g>
<g style="mix-blend-mode:multiply" opacity="0.4">
<path d="M124.063 80.5739C125.259 81.3401 123.489 82.9055 122.28 82.0733C121.071 81.241 122.894 79.8275 124.063 80.5739Z" fill="#FF0376"/>
</g>
<g style="mix-blend-mode:multiply" opacity="0.4">
<path d="M127.346 82.8727C128.541 83.6389 126.771 85.2043 125.563 84.3721C124.354 83.5398 126.177 82.1263 127.346 82.8727Z" fill="#FF0376"/>
</g>
<g style="mix-blend-mode:multiply" opacity="0.4">
<path d="M131.065 84.986C132.26 85.7522 130.49 87.3176 129.281 86.4854C128.073 85.6531 129.896 84.2396 131.065 84.986Z" fill="#FF0376"/>
</g>
<path d="M139.011 84.5507C140.034 85.2707 139.955 86.2813 138.826 86.8097L130.186 90.7001C129.057 91.2285 127.313 91.0766 126.289 90.3567L121.527 89.7754L123.482 88.4874L115.424 83.1438C114.4 82.4239 114.479 81.4133 115.609 80.8849L124.248 76.9944C125.378 76.466 127.121 76.6179 128.145 77.3379L139.017 84.5507H139.011Z" stroke="white" stroke-width="2.5" stroke-linecap="round" stroke-linejoin="round"/>
<path d="M124.935 80.5739C126.131 81.3401 124.36 82.9055 123.152 82.0733C121.943 81.241 123.766 79.8275 124.935 80.5739Z" fill="white"/>
<path d="M128.218 82.8727C129.413 83.6389 127.643 85.2043 126.434 84.3721C125.226 83.5398 127.049 82.1263 128.218 82.8727Z" fill="white"/>
<path d="M131.937 84.986C133.132 85.7522 131.362 87.3176 130.153 86.4854C128.944 85.6531 130.767 84.2396 131.937 84.986Z" fill="white"/>
<path d="M277.792 128.832C280.394 130.662 280.183 133.231 277.316 134.579L273.393 136.276C270.526 137.617 266.087 137.227 263.478 135.398L233.504 114.136C230.902 112.306 231.113 109.737 233.98 108.389L237.903 106.692C241.727 105.08 245.208 105.741 247.817 107.57L277.792 128.832Z" fill="url(#paint54_linear_1024_1028)"/>
<g style="mix-blend-mode:screen" opacity="0.4">
<path d="M276.464 128.197C278.934 129.934 278.736 132.378 276.008 133.653L272.58 135.125C269.852 136.4 265.638 136.024 263.168 134.287L234.237 113.751C231.76 112.014 231.965 109.57 234.693 108.295L238.121 106.822C241.615 105.237 245.056 105.917 247.533 107.655L276.464 128.19V128.197Z" fill="url(#paint55_linear_1024_1028)"/>
</g>
<path style="mix-blend-mode:screen" opacity="0.9" d="M244.878 116.599L243.273 113.085C244.488 112.471 244.997 111.103 244.396 109.796C244.066 109.069 243.451 108.474 242.665 108.111C241.873 107.748 241.014 107.662 240.235 107.873C239.455 108.085 238.848 108.567 238.531 109.227C238.213 109.888 238.22 110.654 238.55 111.374C238.947 112.239 239.733 112.887 240.638 113.204C241.107 113.369 241.609 113.428 242.097 113.395L243.702 116.916C243.782 117.088 243.94 117.22 244.119 117.279C244.251 117.325 244.396 117.332 244.535 117.299C244.858 117.213 245.01 116.896 244.871 116.599H244.878ZM239.719 111.064C239.521 110.628 239.515 110.172 239.706 109.776C239.898 109.379 240.261 109.089 240.73 108.963C241.126 108.858 241.562 108.877 241.972 109.016C242.044 109.043 242.117 109.069 242.19 109.102C242.659 109.32 243.029 109.677 243.227 110.113C243.636 111.011 243.187 111.949 242.216 112.213C241.252 112.471 240.129 111.955 239.719 111.057V111.064Z" fill="url(#paint56_linear_1024_1028)"/>
<path style="mix-blend-mode:screen" opacity="0.6" d="M245.803 117.59L267.052 132.663" stroke="url(#paint57_linear_1024_1028)" stroke-width="0.98" stroke-miterlimit="10"/>
<path style="mix-blend-mode:screen" d="M297.317 133.323C297.673 134.076 293.327 136.877 287.6 139.585C281.88 142.286 276.953 143.871 276.596 143.112C276.239 142.359 280.586 139.558 286.312 136.85C292.032 134.149 296.96 132.563 297.317 133.323Z" fill="url(#paint58_radial_1024_1028)"/>
<path style="mix-blend-mode:screen" d="M183.305 170.979C182.803 171.647 178.291 169.11 173.232 165.319C168.166 161.527 164.467 157.914 164.962 157.247C165.464 156.58 169.976 159.11 175.035 162.908C180.101 166.699 183.8 170.312 183.305 170.979Z" fill="url(#paint59_radial_1024_1028)"/>
<path style="mix-blend-mode:screen" d="M135.84 163.232C135.338 163.899 130.827 161.363 125.767 157.571C120.701 153.78 117.002 150.167 117.498 149.493C118 148.826 122.511 151.362 127.57 155.154C132.637 158.945 136.336 162.558 135.84 163.232Z" fill="url(#paint60_radial_1024_1028)"/>
<path d="M192.975 75.5024C194.382 76.4932 194.269 77.8802 192.717 78.6068L180.861 83.9504C179.309 84.677 176.911 84.4656 175.504 83.4748L164.328 75.6279C162.921 74.6371 163.034 73.25 164.586 72.5234L176.442 67.1799C177.994 66.4533 180.392 66.6647 181.799 67.6554L192.975 75.5024Z" fill="url(#paint61_linear_1024_1028)"/>
<g opacity="0.5">
<path d="M191.944 74.8405C193.246 75.752 193.14 77.0334 191.707 77.7071L180.749 82.6412C179.315 83.3149 177.103 83.1168 175.801 82.2052L165.471 74.9528C164.17 74.0413 164.275 72.7532 165.709 72.0861L176.667 67.1521C178.1 66.4783 180.313 66.6765 181.614 67.588L191.938 74.8405H191.944Z" fill="url(#paint62_linear_1024_1028)"/>
</g>
<g style="mix-blend-mode:multiply" opacity="0.4">
<path d="M182.889 79.0607C182.77 78.8097 182.466 78.6974 182.208 78.8163L180.689 79.5363L172.142 73.5586L172.776 73.2614C173.034 73.1425 173.14 72.8386 173.021 72.581C172.902 72.33 172.598 72.2177 172.34 72.3366L170.914 73.0104C170.749 73.0896 170.636 73.2481 170.623 73.4265C170.61 73.6048 170.689 73.7832 170.841 73.8888L180.346 80.5402C180.432 80.5997 180.537 80.6327 180.636 80.6327C180.709 80.6327 180.788 80.6195 180.854 80.5865L182.644 79.741C182.895 79.6221 183.008 79.3183 182.889 79.0607Z" fill="url(#paint63_linear_1024_1028)"/>
<path d="M176.647 76.4384C176.647 76.4384 176.693 76.4384 176.72 76.4384L180.782 75.8637C181.059 75.8241 181.257 75.5665 181.218 75.2891C181.178 75.0117 180.921 74.8201 180.643 74.8532L178.807 75.1108L182.526 72.9905C182.77 72.8518 182.856 72.5413 182.717 72.297C182.578 72.0526 182.268 71.9667 182.024 72.1054L177.763 74.5361L178.193 73.4529C178.298 73.1887 178.166 72.898 177.909 72.7923C177.644 72.6867 177.354 72.8188 177.248 73.0764L176.191 75.7383C176.125 75.91 176.152 76.1015 176.264 76.2402C176.363 76.3657 176.508 76.4318 176.667 76.4318L176.647 76.4384Z" fill="url(#paint64_linear_1024_1028)"/>
</g>
<path d="M182.889 78.0451C182.77 77.7941 182.466 77.6818 182.208 77.8007L180.689 78.5206L172.142 72.543L172.776 72.2457C173.034 72.1268 173.14 71.823 173.021 71.5654C172.902 71.3144 172.598 71.2021 172.34 71.321L170.914 71.9947C170.749 72.074 170.636 72.2325 170.623 72.4109C170.61 72.5892 170.689 72.7675 170.841 72.8732L180.346 79.5246C180.432 79.5841 180.537 79.6171 180.636 79.6171C180.709 79.6171 180.788 79.6039 180.854 79.5709L182.644 78.7254C182.895 78.6065 183.008 78.3027 182.889 78.0451Z" fill="white"/>
<path d="M176.647 75.4228C176.647 75.4228 176.693 75.4228 176.72 75.4228L180.782 74.8481C181.059 74.8085 181.257 74.5509 181.218 74.2735C181.178 73.9961 180.921 73.8045 180.643 73.8375L178.807 74.0951L182.526 71.9749C182.77 71.8362 182.856 71.5257 182.717 71.2813C182.578 71.0369 182.268 70.9511 182.024 71.0898L177.763 73.5205L178.193 72.4372C178.298 72.173 178.166 71.8824 177.909 71.7767C177.644 71.671 177.354 71.8031 177.248 72.0607L176.191 74.7226C176.125 74.8878 176.152 75.0859 176.264 75.2246C176.363 75.3501 176.508 75.4162 176.667 75.4162L176.647 75.4228Z" fill="white"/>
<path d="M215.406 89.7953C216.813 90.7861 216.701 92.1732 215.148 92.8998L203.292 98.2433C201.74 98.9699 199.342 98.7586 197.935 97.7678L186.759 89.9208C185.352 88.9301 185.465 87.543 187.017 86.8164L198.873 81.4728C200.425 80.7463 202.823 80.9576 204.23 81.9484L215.406 89.7953Z" fill="url(#paint65_linear_1024_1028)"/>
<g opacity="0.5">
<path d="M214.369 89.1354C215.67 90.0469 215.565 91.3349 214.131 92.002L203.173 96.9361C201.74 97.6098 199.527 97.4117 198.226 96.5002L187.895 89.2477C186.594 88.3362 186.7 87.0482 188.133 86.3811L199.091 81.447C200.525 80.7733 202.737 80.9714 204.038 81.8829L214.369 89.1354Z" fill="url(#paint66_linear_1024_1028)"/>
</g>
<path style="mix-blend-mode:multiply" opacity="0.5" d="M202.988 86.3477L195.188 89.8682L204.151 91.5393L202.988 86.3477Z" fill="url(#paint67_linear_1024_1028)"/>
<path d="M202.988 85.2773L195.188 88.7913L204.151 90.469L202.988 85.2773Z" fill="white"/>
<g opacity="0.7">
<path d="M358.302 180.637C361.829 183.114 361.545 186.601 357.655 188.424L344.339 194.587C340.448 196.41 334.431 195.875 330.904 193.398L322.786 187.671C319.252 185.194 319.543 181.707 323.434 179.884L336.75 173.721C340.64 171.898 346.651 172.433 350.184 174.91L358.302 180.637Z" fill="url(#paint68_linear_1024_1028)"/>
</g>
<path d="M358.302 175.959C361.829 178.436 361.545 181.923 357.655 183.746L344.339 189.909C340.448 191.732 334.431 191.197 330.904 188.72L322.786 182.993C319.252 180.517 319.543 177.029 323.434 175.206L336.75 169.043C340.64 167.22 346.651 167.755 350.184 170.232L358.302 175.952V175.959Z" stroke="url(#paint69_linear_1024_1028)" stroke-width="0.7" stroke-miterlimit="10"/>
<g opacity="0.7">
<path d="M149.037 49.2257C151.745 51.128 151.528 53.8031 148.542 55.1968L138.324 59.9261C135.338 61.3264 130.728 60.9103 128.02 59.0146L121.791 54.6222C119.083 52.7199 119.301 50.0448 122.286 48.6511L132.505 43.9218C135.49 42.5215 140.101 42.931 142.809 44.8333L149.037 49.2257Z" fill="url(#paint70_linear_1024_1028)"/>
</g>
<path d="M149.037 46.6906C151.745 48.5929 151.528 51.268 148.542 52.6616L138.324 57.3909C135.338 58.7912 130.728 58.3751 128.02 56.4794L121.791 52.087C119.083 50.1847 119.301 47.5096 122.286 46.1159L132.505 41.3866C135.49 39.9863 140.101 40.3958 142.809 42.2981L149.037 46.6906Z" stroke="url(#paint71_linear_1024_1028)" stroke-width="0.54" stroke-miterlimit="10"/>
<g opacity="0.7">
<path d="M191.555 32.8122C193.484 34.1662 193.325 36.0685 191.205 37.0659L183.932 40.4345C181.806 41.4319 178.523 41.1347 176.594 39.7806L172.155 36.6564C170.227 35.3023 170.385 33.4 172.506 32.4027L179.784 29.034C181.911 28.0366 185.194 28.3339 187.123 29.6879L191.555 32.8122Z" fill="url(#paint72_linear_1024_1028)"/>
</g>
<path d="M191.555 31.0094C193.484 32.3635 193.325 34.2658 191.205 35.2632L183.932 38.6318C181.806 39.6292 178.523 39.3319 176.594 37.9779L172.155 34.8536C170.227 33.4996 170.385 31.5973 172.506 30.5999L179.784 27.2313C181.911 26.2339 185.194 26.5311 187.123 27.8852L191.555 31.0094Z" stroke="url(#paint73_linear_1024_1028)" stroke-width="0.38" stroke-miterlimit="10"/>
<g opacity="0.7">
<path d="M358.639 60.6794C360.568 62.0334 360.409 63.9357 358.289 64.9331L351.01 68.3017C348.883 69.2991 345.6 69.0019 343.672 67.6478L339.24 64.5236C337.311 63.1695 337.47 61.2672 339.59 60.2698L346.862 56.9012C348.989 55.9038 352.272 56.2011 354.2 57.5551L358.632 60.6794H358.639Z" fill="url(#paint74_linear_1024_1028)"/>
</g>
<path d="M358.639 58.8766C360.568 60.2307 360.409 62.133 358.289 63.1304L351.01 66.499C348.883 67.4964 345.6 67.1991 343.672 65.8451L339.24 62.7208C337.311 61.3668 337.47 59.4645 339.59 58.4671L346.862 55.0985C348.989 54.1011 352.272 54.3983 354.2 55.7524L358.632 58.8766H358.639Z" stroke="url(#paint75_linear_1024_1028)" stroke-width="0.38" stroke-miterlimit="10"/>
<g opacity="0.5">
<path d="M274.575 187.083C279.417 190.484 279.027 195.266 273.69 197.77L255.414 206.231C250.077 208.728 241.82 207.995 236.979 204.593L225.836 196.739C220.987 193.338 221.384 188.556 226.721 186.052L244.997 177.591C250.334 175.094 258.591 175.821 263.432 179.229L274.575 187.083Z" fill="url(#paint76_linear_1024_1028)"/>
</g>
<path d="M274.575 182.856C279.417 186.258 279.027 191.04 273.69 193.543L255.414 202.004C250.077 204.501 241.82 203.768 236.979 200.366L225.836 192.513C220.987 189.111 221.384 184.329 226.721 181.826L244.997 173.364C250.334 170.868 258.591 171.601 263.432 175.003L274.575 182.856Z" stroke="url(#paint77_linear_1024_1028)" stroke-width="1.33" stroke-miterlimit="10"/>
<g opacity="0.5">
<path d="M111.692 186.046C114.611 188.093 114.373 190.98 111.157 192.486L100.139 197.585C96.9226 199.091 91.9423 198.648 89.0228 196.601L82.3054 191.865C79.3859 189.811 79.6237 186.931 82.8404 185.425L93.8578 180.326C97.0745 178.82 102.048 179.262 104.974 181.31L111.692 186.046Z" fill="url(#paint78_linear_1024_1028)"/>
</g>
<path d="M111.692 183.497C114.611 185.551 114.373 188.431 111.157 189.937L100.139 195.036C96.9226 196.542 91.9423 196.099 89.0228 194.052L82.3054 189.316C79.3859 187.262 79.6237 184.382 82.8404 182.876L93.8578 177.777C97.0745 176.271 102.048 176.713 104.974 178.761L111.692 183.497Z" stroke="url(#paint79_linear_1024_1028)" stroke-width="0.8" stroke-miterlimit="10"/>
<path d="M246.807 128.482C248.161 129.433 248.049 130.774 246.556 131.474L235.129 136.626C233.636 137.326 231.324 137.121 229.97 136.17L219.197 128.607C217.843 127.656 217.949 126.315 219.448 125.615L230.875 120.463C232.368 119.763 234.68 119.967 236.034 120.919L246.807 128.482Z" fill="url(#paint80_linear_1024_1028)"/>
<g opacity="0.5">
<path d="M245.809 127.848C247.064 128.726 246.959 129.961 245.578 130.609L235.023 135.364C233.643 136.012 231.509 135.82 230.254 134.942L220.3 127.953C219.045 127.075 219.151 125.84 220.532 125.192L231.087 120.437C232.467 119.789 234.601 119.981 235.855 120.859L245.809 127.848Z" fill="url(#paint81_linear_1024_1028)"/>
</g>
<path style="mix-blend-mode:multiply" opacity="0.6" d="M238.742 130.06L233.121 126.13L234.376 125.522L228.669 124.789L228.207 128.508L229.323 127.966L234.792 131.81L238.742 130.06Z" fill="url(#paint82_linear_1024_1028)"/>
<path d="M238.584 128.865L232.956 124.935L234.211 124.327L228.511 123.594L228.042 127.312L229.165 126.771L234.634 130.608L238.584 128.865Z" fill="white"/>
<path d="M267.897 156.282C269.879 157.669 269.714 159.624 267.534 160.648L250.856 168.165C248.676 169.182 245.308 168.885 243.326 167.498L227.606 156.46C225.624 155.073 225.789 153.118 227.969 152.094L244.647 144.578C246.827 143.554 250.195 143.858 252.177 145.245L267.897 156.282Z" fill="url(#paint83_linear_1024_1028)"/>
<g opacity="0.5">
<path d="M266.367 155.344C268.196 156.626 268.044 158.435 266.03 159.373L250.62 166.315C248.605 167.26 245.494 166.983 243.665 165.701L229.14 155.503C227.31 154.221 227.462 152.412 229.477 151.474L244.887 144.532C246.901 143.587 250.012 143.864 251.842 145.146L266.367 155.344Z" fill="url(#paint84_linear_1024_1028)"/>
</g>
<g style="mix-blend-mode:multiply" opacity="0.3">
<path d="M257.461 158.337L247.283 151.144L247.672 150.543C247.824 150.311 247.791 150.001 247.6 149.803L245.664 147.821C245.433 147.59 245.063 147.583 244.825 147.815C244.588 148.046 244.588 148.422 244.812 148.654L246.417 150.298L242.289 156.679C242.117 156.943 242.183 157.293 242.434 157.478L250.618 163.462C250.724 163.542 250.849 163.575 250.968 163.575C251.153 163.575 251.332 163.489 251.45 163.33C251.642 163.066 251.589 162.696 251.325 162.498L250.499 161.897L257.329 159.38C257.534 159.301 257.686 159.123 257.712 158.898C257.739 158.68 257.646 158.462 257.468 158.337H257.461ZM249.343 161.058L243.59 156.851L246.635 152.141L255.849 158.66L249.343 161.058Z" fill="#170056"/>
<path d="M241.655 158.389C241.292 158.838 241.305 159.459 241.695 159.776C242.084 160.093 242.692 159.987 243.062 159.545C243.425 159.096 243.412 158.475 243.022 158.158C242.633 157.841 242.025 157.946 241.655 158.389Z" fill="#170056"/>
<path d="M245.777 161.678C245.413 162.127 245.427 162.748 245.816 163.065C246.206 163.382 246.814 163.276 247.183 162.834C247.547 162.385 247.534 161.764 247.144 161.447C246.754 161.13 246.146 161.235 245.777 161.678Z" fill="#170056"/>
</g>
<path d="M257.461 157.227L247.283 150.027L247.672 149.426C247.824 149.195 247.791 148.885 247.6 148.686L245.664 146.698C245.433 146.467 245.063 146.46 244.825 146.692C244.588 146.923 244.588 147.293 244.812 147.53L246.417 149.175L242.289 155.549C242.117 155.813 242.183 156.163 242.434 156.348L250.618 162.333C250.724 162.412 250.849 162.445 250.968 162.445C251.153 162.445 251.332 162.359 251.45 162.201C251.642 161.936 251.589 161.566 251.325 161.368L250.499 160.767L257.329 158.251C257.534 158.171 257.686 157.993 257.712 157.768C257.739 157.55 257.646 157.333 257.468 157.207L257.461 157.227ZM249.343 159.942L243.59 155.734L246.635 151.025L255.849 157.544L249.343 159.942Z" fill="white"/>
<path d="M241.655 157.287C241.292 157.736 241.305 158.35 241.695 158.674C242.084 158.991 242.692 158.885 243.062 158.443C243.425 157.994 243.412 157.373 243.022 157.056C242.633 156.739 242.025 156.844 241.655 157.294V157.287Z" fill="white"/>
<path d="M245.777 160.576C245.413 161.026 245.427 161.64 245.816 161.964C246.206 162.281 246.814 162.175 247.183 161.732C247.547 161.283 247.534 160.669 247.144 160.345C246.754 160.028 246.146 160.134 245.777 160.576Z" fill="white"/>
<path d="M166.429 158.792L150.114 167.484C147.069 169.109 143.363 168.819 140.602 166.745L111.738 145.066" stroke="#0CDBE6" stroke-width="0.73" stroke-miterlimit="10"/>
<g opacity="0.7">
<path d="M120.701 131.93C124.922 134.895 124.578 139.063 119.928 141.243L104.003 148.614C99.3532 150.794 92.1602 150.153 87.9395 147.188L78.2299 140.345C74.0092 137.379 74.3527 133.211 79.0027 131.038L94.9278 123.667C99.5778 121.487 106.771 122.128 110.992 125.093L120.701 131.936V131.93Z" fill="url(#paint85_linear_1024_1028)"/>
</g>
<path d="M120.701 131.93C124.922 134.895 124.578 139.063 119.928 141.243L104.003 148.614C99.3532 150.794 92.1602 150.153 87.9395 147.188L78.2299 140.345C74.0092 137.379 74.3527 133.211 79.0027 131.038L94.9278 123.667C99.5778 121.487 106.771 122.128 110.992 125.093L120.701 131.936V131.93Z" stroke="url(#paint86_linear_1024_1028)" stroke-width="0.82" stroke-miterlimit="10"/>
<g opacity="0.9">
<path d="M87.5167 137.055C87.5167 137.603 87.0742 138.046 86.5259 138.046C85.9777 138.046 85.5352 137.603 85.5352 137.055C85.5352 136.507 85.9777 136.064 86.5259 136.064C87.0742 136.064 87.5167 136.507 87.5167 137.055Z" fill="#170056"/>
<path d="M90.6739 139.499C90.6739 140.047 90.2314 140.489 89.6832 140.489C89.1349 140.489 88.6924 140.047 88.6924 139.499C88.6924 138.95 89.1349 138.508 89.6832 138.508C90.2314 138.508 90.6739 138.95 90.6739 139.499Z" fill="#170056"/>
<path d="M93.8246 141.944C93.8246 142.492 93.382 142.935 92.8338 142.935C92.2856 142.935 91.843 142.492 91.843 141.944C91.843 141.396 92.2856 140.953 92.8338 140.953C93.382 140.953 93.8246 141.396 93.8246 141.944Z" fill="#170056"/>
<path d="M110.661 130.391L109.254 129.4C108.554 128.911 107.405 128.812 106.639 129.169L104.71 130.06C103.012 129.195 100.582 129.076 98.9437 129.849L92.6358 132.768C90.7929 133.634 90.6542 135.285 92.3319 136.461L96.1762 139.175C97.8473 140.351 100.701 140.602 102.544 139.737L108.851 136.817C110.694 135.952 110.833 134.301 109.155 133.125L108.937 132.973L110.503 132.247C110.925 132.048 111.176 131.738 111.21 131.375C111.243 131.011 111.044 130.661 110.661 130.391ZM102.213 134.122L101.203 134.591C101.163 134.611 101.11 134.618 101.071 134.631H101.077L99.9015 136.216L97.0084 134.222L99.4853 133.581C99.525 133.548 99.5646 133.515 99.624 133.488L100.635 133.019C100.932 132.881 101.388 132.92 101.652 133.112L102.266 133.548C102.537 133.739 102.511 133.997 102.22 134.136L102.213 134.122ZM110.258 131.712L108.382 132.577L105.324 130.424L106.883 129.704C107.114 129.598 107.398 129.545 107.689 129.545C108.132 129.545 108.594 129.664 108.911 129.882L110.318 130.873C110.523 131.018 110.628 131.183 110.622 131.322C110.608 131.467 110.476 131.606 110.252 131.712H110.258Z" fill="#170056"/>
</g>
<path d="M87.5167 135.417C87.5167 135.965 87.0742 136.407 86.5259 136.407C85.9777 136.407 85.5352 135.965 85.5352 135.417C85.5352 134.868 85.9777 134.426 86.5259 134.426C87.0742 134.426 87.5167 134.868 87.5167 135.417Z" fill="#0CDBE6"/>
<path d="M90.6739 137.86C90.6739 138.408 90.2314 138.851 89.6832 138.851C89.1349 138.851 88.6924 138.408 88.6924 137.86C88.6924 137.312 89.1349 136.869 89.6832 136.869C90.2314 136.869 90.6739 137.312 90.6739 137.86Z" fill="#0CDBE6"/>
<path d="M93.8248 140.305C93.8248 140.853 93.3823 141.296 92.834 141.296C92.2858 141.296 91.8433 140.853 91.8433 140.305C91.8433 139.757 92.2858 139.314 92.834 139.314C93.3823 139.314 93.8248 139.757 93.8248 140.305Z" fill="#0CDBE6"/>
<path d="M110.661 128.76L109.254 127.769C108.554 127.28 107.405 127.181 106.639 127.538L104.71 128.429C103.012 127.571 100.582 127.445 98.9437 128.218L92.6358 131.138C90.7929 132.003 90.6542 133.654 92.3319 134.823L96.1762 137.538C97.8473 138.714 100.701 138.965 102.544 138.106L108.851 135.186C110.694 134.321 110.833 132.67 109.155 131.501L108.937 131.349L110.503 130.622C110.925 130.424 111.176 130.114 111.21 129.75C111.243 129.387 111.044 129.037 110.661 128.766V128.76ZM102.213 132.492L101.203 132.961C101.163 132.98 101.11 132.987 101.071 133H101.077L99.9015 134.579L97.0084 132.584L99.4853 131.937C99.525 131.904 99.5646 131.871 99.624 131.844L100.635 131.375C100.932 131.237 101.388 131.276 101.652 131.468L102.266 131.904C102.537 132.089 102.511 132.353 102.22 132.492H102.213ZM110.258 130.081L108.382 130.946L105.324 128.793L106.883 128.073C107.114 127.967 107.398 127.914 107.689 127.914C108.132 127.914 108.594 128.033 108.911 128.251L110.318 129.242C110.523 129.387 110.628 129.552 110.622 129.691C110.608 129.836 110.476 129.975 110.252 130.074L110.258 130.081Z" fill="#0CDBE6"/>
</g>
<defs>
<linearGradient id="paint0_linear_1024_1028" x1="293.023" y1="-5.67566" x2="286.808" y2="109.32" gradientUnits="userSpaceOnUse">
<stop offset="0.01" stop-color="#0CDBE6"/>
<stop offset="1" stop-color="#0CDBE6" stop-opacity="0"/>
</linearGradient>
<linearGradient id="paint1_linear_1024_1028" x1="154.117" y1="8.06912" x2="217.051" y2="115.297" gradientUnits="userSpaceOnUse">
<stop offset="0.01" stop-color="#0CDBE6"/>
<stop offset="1" stop-color="#0CDBE6" stop-opacity="0"/>
</linearGradient>
<linearGradient id="paint2_linear_1024_1028" x1="177.849" y1="94.5638" x2="233.57" y2="189.5" gradientUnits="userSpaceOnUse">
<stop offset="0.01" stop-color="#0CDBE6"/>
<stop offset="1" stop-color="#0CDBE6" stop-opacity="0"/>
</linearGradient>
<radialGradient id="paint3_radial_1024_1028" cx="0" cy="0" r="1" gradientUnits="userSpaceOnUse" gradientTransform="translate(311.52 53.2937) rotate(-25.3) scale(8.70013 1.13833)">
<stop offset="0.01" stop-color="#0CDBE6"/>
<stop offset="1" stop-color="#0CDBE6" stop-opacity="0"/>
</radialGradient>
<linearGradient id="paint4_linear_1024_1028" x1="315.95" y1="43.6771" x2="353.071" y2="43.6771" gradientUnits="userSpaceOnUse">
<stop offset="0.01" stop-color="#0CDBE6"/>
<stop offset="1" stop-color="#0CDBE6" stop-opacity="0"/>
</linearGradient>
<linearGradient id="paint5_linear_1024_1028" x1="333.969" y1="29.5751" x2="334.226" y2="56.3458" gradientUnits="userSpaceOnUse">
<stop offset="0.01" stop-color="#0CDBE6"/>
<stop offset="1" stop-color="#0CDBE6" stop-opacity="0"/>
</linearGradient>
<linearGradient id="paint6_linear_1024_1028" x1="326.802" y1="43.6776" x2="342.879" y2="43.6776" gradientUnits="userSpaceOnUse">
<stop stop-color="#5217CB"/>
<stop offset="1" stop-color="#170056"/>
</linearGradient>
<linearGradient id="paint7_linear_1024_1028" x1="280.989" y1="163.416" x2="318.11" y2="163.416" gradientUnits="userSpaceOnUse">
<stop offset="0.01" stop-color="#0CDBE6"/>
<stop offset="1" stop-color="#0CDBE6" stop-opacity="0"/>
</linearGradient>
<linearGradient id="paint8_linear_1024_1028" x1="299.569" y1="148.423" x2="299.906" y2="178.225" gradientUnits="userSpaceOnUse">
<stop offset="0.01" stop-color="#0CDBE6"/>
<stop offset="1" stop-color="#0CDBE6" stop-opacity="0"/>
</linearGradient>
<linearGradient id="paint9_linear_1024_1028" x1="299.722" y1="163.533" x2="317.295" y2="163.889" gradientUnits="userSpaceOnUse">
<stop stop-color="#5217CB"/>
<stop offset="1" stop-color="#170056"/>
</linearGradient>
<radialGradient id="paint10_radial_1024_1028" cx="0" cy="0" r="1" gradientUnits="userSpaceOnUse" gradientTransform="translate(270.134 175.423) rotate(-25.3) scale(11.4565 1.49898)">
<stop offset="0.01" stop-color="#0CDBE6"/>
<stop offset="1" stop-color="#0CDBE6" stop-opacity="0"/>
</radialGradient>
<linearGradient id="paint11_linear_1024_1028" x1="204.686" y1="39.8392" x2="241.807" y2="39.8392" gradientUnits="userSpaceOnUse">
<stop offset="0.01" stop-color="#0CDBE6"/>
<stop offset="1" stop-color="#0CDBE6" stop-opacity="0"/>
</linearGradient>
<linearGradient id="paint12_linear_1024_1028" x1="222.843" y1="27.5536" x2="222.843" y2="51.5435" gradientUnits="userSpaceOnUse">
<stop offset="0.01" stop-color="#0CDBE6"/>
<stop offset="1" stop-color="#0CDBE6" stop-opacity="0"/>
</linearGradient>
<radialGradient id="paint13_radial_1024_1028" cx="0" cy="0" r="1" gradientUnits="userSpaceOnUse" gradientTransform="translate(196.447 51.7336) rotate(-25.3) scale(11.4565 1.49898)">
<stop offset="0.01" stop-color="#0CDBE6"/>
<stop offset="1" stop-color="#0CDBE6" stop-opacity="0"/>
</radialGradient>
<linearGradient id="paint14_linear_1024_1028" x1="184.279" y1="150.698" x2="331.635" y2="5.40766" gradientUnits="userSpaceOnUse">
<stop stop-color="#5217CB"/>
<stop offset="0.17" stop-color="#4340D0"/>
<stop offset="0.46" stop-color="#2B82D9"/>
<stop offset="0.71" stop-color="#1AB2E0"/>
<stop offset="0.89" stop-color="#0FCFE4"/>
<stop offset="1" stop-color="#0CDBE6"/>
</linearGradient>
<linearGradient id="paint15_linear_1024_1028" x1="182.484" y1="98.8828" x2="230.976" y2="100.619" gradientUnits="userSpaceOnUse">
<stop offset="0.08" stop-color="#0CDBE6" stop-opacity="0"/>
<stop offset="0.38" stop-color="#0CDBE6"/>
<stop offset="0.69" stop-color="#0CDBE6" stop-opacity="0"/>
</linearGradient>
<linearGradient id="paint16_linear_1024_1028" x1="161.324" y1="244.031" x2="284.788" y2="1.50433" gradientUnits="userSpaceOnUse">
<stop stop-color="white"/>
<stop offset="0.47" stop-color="#F1F1F1"/>
<stop offset="1" stop-color="#E6E6E6"/>
</linearGradient>
<linearGradient id="paint17_linear_1024_1028" x1="163.671" y1="84.0184" x2="321.91" y2="98.0573" gradientUnits="userSpaceOnUse">
<stop stop-color="#5217CB"/>
<stop offset="0.17" stop-color="#4340D0"/>
<stop offset="0.46" stop-color="#2B82D9"/>
<stop offset="0.71" stop-color="#1AB2E0"/>
<stop offset="0.89" stop-color="#0FCFE4"/>
<stop offset="1" stop-color="#0CDBE6"/>
</linearGradient>
<linearGradient id="paint18_linear_1024_1028" x1="289.539" y1="54.834" x2="305.16" y2="71.6704" gradientUnits="userSpaceOnUse">
<stop stop-color="#5217CB"/>
<stop offset="0.17" stop-color="#4340D0"/>
<stop offset="0.46" stop-color="#2B82D9"/>
<stop offset="0.71" stop-color="#1AB2E0"/>
<stop offset="0.89" stop-color="#0FCFE4"/>
<stop offset="1" stop-color="#0CDBE6"/>
</linearGradient>
<linearGradient id="paint19_linear_1024_1028" x1="290.333" y1="54.104" x2="305.955" y2="70.9339" gradientUnits="userSpaceOnUse">
<stop stop-color="#5217CB"/>
<stop offset="0.17" stop-color="#4340D0"/>
<stop offset="0.46" stop-color="#2B82D9"/>
<stop offset="0.71" stop-color="#1AB2E0"/>
<stop offset="0.89" stop-color="#0FCFE4"/>
<stop offset="1" stop-color="#0CDBE6"/>
</linearGradient>
<linearGradient id="paint20_linear_1024_1028" x1="187.103" y1="111.823" x2="193.645" y2="137.555" gradientUnits="userSpaceOnUse">
<stop stop-color="#5217CB"/>
<stop offset="0.17" stop-color="#4340D0"/>
<stop offset="0.46" stop-color="#2B82D9"/>
<stop offset="0.71" stop-color="#1AB2E0"/>
<stop offset="0.89" stop-color="#0FCFE4"/>
<stop offset="1" stop-color="#0CDBE6"/>
</linearGradient>
<linearGradient id="paint21_linear_1024_1028" x1="187.242" y1="112.168" x2="193.304" y2="136.036" gradientUnits="userSpaceOnUse">
<stop stop-color="#5217CB"/>
<stop offset="0.17" stop-color="#4340D0"/>
<stop offset="0.46" stop-color="#2B82D9"/>
<stop offset="0.71" stop-color="#1AB2E0"/>
<stop offset="0.89" stop-color="#0FCFE4"/>
<stop offset="1" stop-color="#0CDBE6"/>
</linearGradient>
<linearGradient id="paint22_linear_1024_1028" x1="180.22" y1="111.916" x2="204.151" y2="111.916" gradientUnits="userSpaceOnUse">
<stop stop-color="#FF0376"/>
<stop offset="0.16" stop-color="#FF2973"/>
<stop offset="0.74" stop-color="#FFAF6B"/>
<stop offset="1" stop-color="#FFE568"/>
</linearGradient>
<linearGradient id="paint23_linear_1024_1028" x1="181.852" y1="111.367" x2="201.013" y2="111.367" gradientUnits="userSpaceOnUse">
<stop stop-color="#FF0376"/>
<stop offset="0.16" stop-color="#FF2973"/>
<stop offset="0.74" stop-color="#FFAF6B"/>
<stop offset="1" stop-color="#FFE568"/>
</linearGradient>
<linearGradient id="paint24_linear_1024_1028" x1="181.072" y1="106.936" x2="188.047" y2="106.936" gradientUnits="userSpaceOnUse">
<stop stop-color="white"/>
<stop offset="0.47" stop-color="#F1F1F1"/>
<stop offset="1" stop-color="#E6E6E6"/>
</linearGradient>
<linearGradient id="paint25_linear_1024_1028" x1="258.626" y1="37.477" x2="285.667" y2="95.2591" gradientUnits="userSpaceOnUse">
<stop stop-color="#5217CB"/>
<stop offset="0.17" stop-color="#4340D0"/>
<stop offset="0.46" stop-color="#2B82D9"/>
<stop offset="0.71" stop-color="#1AB2E0"/>
<stop offset="0.89" stop-color="#0FCFE4"/>
<stop offset="1" stop-color="#0CDBE6"/>
</linearGradient>
<linearGradient id="paint26_linear_1024_1028" x1="228.877" y1="52.1524" x2="255.327" y2="108.675" gradientUnits="userSpaceOnUse">
<stop stop-color="#5217CB"/>
<stop offset="0.17" stop-color="#4340D0"/>
<stop offset="0.46" stop-color="#2B82D9"/>
<stop offset="0.71" stop-color="#1AB2E0"/>
<stop offset="0.89" stop-color="#0FCFE4"/>
<stop offset="1" stop-color="#0CDBE6"/>
</linearGradient>
<linearGradient id="paint27_linear_1024_1028" x1="206.151" y1="72.6481" x2="219.824" y2="101.871" gradientUnits="userSpaceOnUse">
<stop stop-color="#5217CB"/>
<stop offset="0.17" stop-color="#4340D0"/>
<stop offset="0.46" stop-color="#2B82D9"/>
<stop offset="0.71" stop-color="#1AB2E0"/>
<stop offset="0.89" stop-color="#0FCFE4"/>
<stop offset="1" stop-color="#0CDBE6"/>
</linearGradient>
<linearGradient id="paint28_linear_1024_1028" x1="236.615" y1="105.383" x2="256.933" y2="105.383" gradientUnits="userSpaceOnUse">
<stop stop-color="#5217CB"/>
<stop offset="0.17" stop-color="#4340D0"/>
<stop offset="0.46" stop-color="#2B82D9"/>
<stop offset="0.71" stop-color="#1AB2E0"/>
<stop offset="0.89" stop-color="#0FCFE4"/>
<stop offset="1" stop-color="#0CDBE6"/>
</linearGradient>
<linearGradient id="paint29_linear_1024_1028" x1="231.45" y1="107.034" x2="251.767" y2="107.034" gradientUnits="userSpaceOnUse">
<stop stop-color="#5217CB"/>
<stop offset="0.17" stop-color="#4340D0"/>
<stop offset="0.46" stop-color="#2B82D9"/>
<stop offset="0.71" stop-color="#1AB2E0"/>
<stop offset="0.89" stop-color="#0FCFE4"/>
<stop offset="1" stop-color="#0CDBE6"/>
</linearGradient>
<linearGradient id="paint30_linear_1024_1028" x1="227.064" y1="109.464" x2="247.382" y2="109.464" gradientUnits="userSpaceOnUse">
<stop stop-color="#5217CB"/>
<stop offset="0.17" stop-color="#4340D0"/>
<stop offset="0.46" stop-color="#2B82D9"/>
<stop offset="0.71" stop-color="#1AB2E0"/>
<stop offset="0.89" stop-color="#0FCFE4"/>
<stop offset="1" stop-color="#0CDBE6"/>
</linearGradient>
<linearGradient id="paint31_linear_1024_1028" x1="223.002" y1="112.054" x2="243.319" y2="112.054" gradientUnits="userSpaceOnUse">
<stop stop-color="#5217CB"/>
<stop offset="0.17" stop-color="#4340D0"/>
<stop offset="0.46" stop-color="#2B82D9"/>
<stop offset="0.71" stop-color="#1AB2E0"/>
<stop offset="0.89" stop-color="#0FCFE4"/>
<stop offset="1" stop-color="#0CDBE6"/>
</linearGradient>
<linearGradient id="paint32_linear_1024_1028" x1="187.057" y1="106.849" x2="230.961" y2="106.849" gradientUnits="userSpaceOnUse">
<stop stop-color="#5217CB"/>
<stop offset="0.17" stop-color="#4340D0"/>
<stop offset="0.46" stop-color="#2B82D9"/>
<stop offset="0.71" stop-color="#1AB2E0"/>
<stop offset="0.89" stop-color="#0FCFE4"/>
<stop offset="1" stop-color="#0CDBE6"/>
</linearGradient>
<linearGradient id="paint33_linear_1024_1028" x1="322.535" y1="130.099" x2="320.144" y2="74.9857" gradientUnits="userSpaceOnUse">
<stop stop-color="#FF0376"/>
<stop offset="0.16" stop-color="#FF2973"/>
<stop offset="0.74" stop-color="#FFAF6B"/>
<stop offset="1" stop-color="#FFE568"/>
</linearGradient>
<linearGradient id="paint34_linear_1024_1028" x1="322.509" y1="125.754" x2="320.296" y2="74.8348" gradientUnits="userSpaceOnUse">
<stop offset="0.01" stop-color="white"/>
<stop offset="1" stop-color="white" stop-opacity="0"/>
</linearGradient>
<linearGradient id="paint35_linear_1024_1028" x1="306.168" y1="86.1487" x2="331.683" y2="86.1487" gradientUnits="userSpaceOnUse">
<stop stop-color="#FF0376"/>
<stop offset="0.16" stop-color="#FF2973"/>
<stop offset="0.74" stop-color="#FFAF6B"/>
<stop offset="1" stop-color="#FFE568"/>
</linearGradient>
<linearGradient id="paint36_linear_1024_1028" x1="317.839" y1="93.6858" x2="336.38" y2="93.6858" gradientUnits="userSpaceOnUse">
<stop stop-color="#FF0376"/>
<stop offset="0.16" stop-color="#FF2973"/>
<stop offset="0.74" stop-color="#FFAF6B"/>
<stop offset="1" stop-color="#FFE568"/>
</linearGradient>
<linearGradient id="paint37_linear_1024_1028" x1="325.085" y1="157.406" x2="322.687" y2="102.292" gradientUnits="userSpaceOnUse">
<stop stop-color="#5217CB"/>
<stop offset="0.67" stop-color="#C90990"/>
<stop offset="1" stop-color="#FF0376"/>
</linearGradient>
<linearGradient id="paint38_linear_1024_1028" x1="291.24" y1="88.5395" x2="322.542" y2="114.273" gradientUnits="userSpaceOnUse">
<stop offset="0.01" stop-color="white"/>
<stop offset="1" stop-color="white" stop-opacity="0"/>
</linearGradient>
<linearGradient id="paint39_linear_1024_1028" x1="250.396" y1="94.743" x2="249.876" y2="29.7517" gradientUnits="userSpaceOnUse">
<stop stop-color="#5217CB"/>
<stop offset="0.17" stop-color="#4340D0"/>
<stop offset="0.46" stop-color="#2B82D9"/>
<stop offset="0.71" stop-color="#1AB2E0"/>
<stop offset="0.89" stop-color="#0FCFE4"/>
<stop offset="1" stop-color="#0CDBE6"/>
</linearGradient>
<linearGradient id="paint40_linear_1024_1028" x1="248" y1="40.2746" x2="252.676" y2="117.179" gradientUnits="userSpaceOnUse">
<stop stop-color="#5217CB"/>
<stop offset="0.17" stop-color="#4340D0"/>
<stop offset="0.46" stop-color="#2B82D9"/>
<stop offset="0.71" stop-color="#1AB2E0"/>
<stop offset="0.89" stop-color="#0FCFE4"/>
<stop offset="1" stop-color="#0CDBE6"/>
</linearGradient>
<linearGradient id="paint41_linear_1024_1028" x1="221.569" y1="62.2906" x2="258.366" y2="62.2906" gradientUnits="userSpaceOnUse">
<stop stop-color="#5217CB"/>
<stop offset="0.17" stop-color="#4340D0"/>
<stop offset="0.46" stop-color="#2B82D9"/>
<stop offset="0.71" stop-color="#1AB2E0"/>
<stop offset="0.89" stop-color="#0FCFE4"/>
<stop offset="1" stop-color="#0CDBE6"/>
</linearGradient>
<linearGradient id="paint42_linear_1024_1028" x1="225.228" y1="62.2905" x2="254.707" y2="62.2905" gradientUnits="userSpaceOnUse">
<stop stop-color="#5217CB"/>
<stop offset="0.17" stop-color="#4340D0"/>
<stop offset="0.46" stop-color="#2B82D9"/>
<stop offset="0.71" stop-color="#1AB2E0"/>
<stop offset="0.89" stop-color="#0FCFE4"/>
<stop offset="1" stop-color="#0CDBE6"/>
</linearGradient>
<linearGradient id="paint43_linear_1024_1028" x1="225.228" y1="63.9962" x2="254.707" y2="63.9962" gradientUnits="userSpaceOnUse">
<stop stop-color="#5217CB"/>
<stop offset="0.17" stop-color="#4340D0"/>
<stop offset="0.46" stop-color="#2B82D9"/>
<stop offset="0.71" stop-color="#1AB2E0"/>
<stop offset="0.89" stop-color="#0FCFE4"/>
<stop offset="1" stop-color="#0CDBE6"/>
</linearGradient>
<linearGradient id="paint44_linear_1024_1028" x1="241.63" y1="61.0207" x2="246.501" y2="58.4772" gradientUnits="userSpaceOnUse">
<stop stop-color="#5217CB"/>
<stop offset="0.17" stop-color="#4340D0"/>
<stop offset="0.46" stop-color="#2B82D9"/>
<stop offset="0.71" stop-color="#1AB2E0"/>
<stop offset="0.89" stop-color="#0FCFE4"/>
<stop offset="1" stop-color="#0CDBE6"/>
</linearGradient>
<linearGradient id="paint45_linear_1024_1028" x1="260.42" y1="72.3583" x2="276.18" y2="72.3583" gradientUnits="userSpaceOnUse">
<stop stop-color="#5217CB"/>
<stop offset="0.17" stop-color="#4340D0"/>
<stop offset="0.46" stop-color="#2B82D9"/>
<stop offset="0.71" stop-color="#1AB2E0"/>
<stop offset="0.89" stop-color="#0FCFE4"/>
<stop offset="1" stop-color="#0CDBE6"/>
</linearGradient>
<linearGradient id="paint46_linear_1024_1028" x1="256.259" y1="73.6864" x2="272.025" y2="73.6864" gradientUnits="userSpaceOnUse">
<stop stop-color="#5217CB"/>
<stop offset="0.17" stop-color="#4340D0"/>
<stop offset="0.46" stop-color="#2B82D9"/>
<stop offset="0.71" stop-color="#1AB2E0"/>
<stop offset="0.89" stop-color="#0FCFE4"/>
<stop offset="1" stop-color="#0CDBE6"/>
</linearGradient>
<linearGradient id="paint47_linear_1024_1028" x1="252.725" y1="75.6473" x2="268.485" y2="75.6473" gradientUnits="userSpaceOnUse">
<stop stop-color="#5217CB"/>
<stop offset="0.17" stop-color="#4340D0"/>
<stop offset="0.46" stop-color="#2B82D9"/>
<stop offset="0.71" stop-color="#1AB2E0"/>
<stop offset="0.89" stop-color="#0FCFE4"/>
<stop offset="1" stop-color="#0CDBE6"/>
</linearGradient>
<linearGradient id="paint48_linear_1024_1028" x1="249.455" y1="77.734" x2="265.215" y2="77.734" gradientUnits="userSpaceOnUse">
<stop stop-color="#5217CB"/>
<stop offset="0.17" stop-color="#4340D0"/>
<stop offset="0.46" stop-color="#2B82D9"/>
<stop offset="0.71" stop-color="#1AB2E0"/>
<stop offset="0.89" stop-color="#0FCFE4"/>
<stop offset="1" stop-color="#0CDBE6"/>
</linearGradient>
<linearGradient id="paint49_linear_1024_1028" x1="245.816" y1="78.5152" x2="255.195" y2="78.5152" gradientUnits="userSpaceOnUse">
<stop stop-color="#5217CB"/>
<stop offset="0.17" stop-color="#4340D0"/>
<stop offset="0.46" stop-color="#2B82D9"/>
<stop offset="0.71" stop-color="#1AB2E0"/>
<stop offset="0.89" stop-color="#0FCFE4"/>
<stop offset="1" stop-color="#0CDBE6"/>
</linearGradient>
<linearGradient id="paint50_linear_1024_1028" x1="269.819" y1="59.2395" x2="274.152" y2="28.3273" gradientUnits="userSpaceOnUse">
<stop stop-color="#5217CB"/>
<stop offset="0.67" stop-color="#C90990"/>
<stop offset="1" stop-color="#FF0376"/>
</linearGradient>
<linearGradient id="paint51_linear_1024_1028" x1="269.846" y1="17.336" x2="275.87" y2="49.6419" gradientUnits="userSpaceOnUse">
<stop offset="0.01" stop-color="white"/>
<stop offset="1" stop-color="white" stop-opacity="0"/>
</linearGradient>
<linearGradient id="paint52_linear_1024_1028" x1="123.469" y1="108.586" x2="127.795" y2="77.6743" gradientUnits="userSpaceOnUse">
<stop stop-color="#5217CB"/>
<stop offset="0.67" stop-color="#C90990"/>
<stop offset="1" stop-color="#FF0376"/>
</linearGradient>
<linearGradient id="paint53_linear_1024_1028" x1="123.495" y1="66.6903" x2="129.519" y2="98.9961" gradientUnits="userSpaceOnUse">
<stop offset="0.01" stop-color="white"/>
<stop offset="1" stop-color="white" stop-opacity="0"/>
</linearGradient>
<linearGradient id="paint54_linear_1024_1028" x1="253.879" y1="98.388" x2="258.078" y2="153.076" gradientUnits="userSpaceOnUse">
<stop stop-color="#5217CB"/>
<stop offset="0.17" stop-color="#4340D0"/>
<stop offset="0.46" stop-color="#2B82D9"/>
<stop offset="0.71" stop-color="#1AB2E0"/>
<stop offset="0.89" stop-color="#0FCFE4"/>
<stop offset="1" stop-color="#0CDBE6"/>
</linearGradient>
<linearGradient id="paint55_linear_1024_1028" x1="253.933" y1="97.6288" x2="257.696" y2="159.625" gradientUnits="userSpaceOnUse">
<stop stop-color="#5217CB"/>
<stop offset="0.17" stop-color="#4340D0"/>
<stop offset="0.46" stop-color="#2B82D9"/>
<stop offset="0.71" stop-color="#1AB2E0"/>
<stop offset="0.89" stop-color="#0FCFE4"/>
<stop offset="1" stop-color="#0CDBE6"/>
</linearGradient>
<linearGradient id="paint56_linear_1024_1028" x1="238.293" y1="112.543" x2="244.924" y2="112.543" gradientUnits="userSpaceOnUse">
<stop stop-color="#5217CB"/>
<stop offset="0.17" stop-color="#4340D0"/>
<stop offset="0.46" stop-color="#2B82D9"/>
<stop offset="0.71" stop-color="#1AB2E0"/>
<stop offset="0.89" stop-color="#0FCFE4"/>
<stop offset="1" stop-color="#0CDBE6"/>
</linearGradient>
<linearGradient id="paint57_linear_1024_1028" x1="245.618" y1="125.126" x2="267.237" y2="125.126" gradientUnits="userSpaceOnUse">
<stop stop-color="#5217CB"/>
<stop offset="0.17" stop-color="#4340D0"/>
<stop offset="0.46" stop-color="#2B82D9"/>
<stop offset="0.71" stop-color="#1AB2E0"/>
<stop offset="0.89" stop-color="#0FCFE4"/>
<stop offset="1" stop-color="#0CDBE6"/>
</linearGradient>
<radialGradient id="paint58_radial_1024_1028" cx="0" cy="0" r="1" gradientUnits="userSpaceOnUse" gradientTransform="translate(286.502 137.069) rotate(-25.3) scale(11.4635 1.4999)">
<stop offset="0.01" stop-color="#0CDBE6"/>
<stop offset="1" stop-color="#0CDBE6" stop-opacity="0"/>
</radialGradient>
<radialGradient id="paint59_radial_1024_1028" cx="0" cy="0" r="1" gradientUnits="userSpaceOnUse" gradientTransform="translate(175.275 162.755) rotate(36.82) scale(11.4565 1.49898)">
<stop offset="0.01" stop-color="#0CDBE6"/>
<stop offset="1" stop-color="#0CDBE6" stop-opacity="0"/>
</radialGradient>
<radialGradient id="paint60_radial_1024_1028" cx="0" cy="0" r="1" gradientUnits="userSpaceOnUse" gradientTransform="translate(127.901 154.888) rotate(36.82) scale(11.4565 1.49898)">
<stop offset="0.01" stop-color="#0CDBE6"/>
<stop offset="1" stop-color="#0CDBE6" stop-opacity="0"/>
</radialGradient>
<linearGradient id="paint61_linear_1024_1028" x1="179.639" y1="98.3893" x2="178.318" y2="67.8734" gradientUnits="userSpaceOnUse">
<stop stop-color="#FF0376"/>
<stop offset="0.16" stop-color="#FF2973"/>
<stop offset="0.74" stop-color="#FFAF6B"/>
<stop offset="1" stop-color="#FFE568"/>
</linearGradient>
<linearGradient id="paint62_linear_1024_1028" x1="179.626" y1="95.9836" x2="178.397" y2="67.7862" gradientUnits="userSpaceOnUse">
<stop offset="0.01" stop-color="white"/>
<stop offset="1" stop-color="white" stop-opacity="0"/>
</linearGradient>
<linearGradient id="paint63_linear_1024_1028" x1="170.623" y1="76.4649" x2="182.935" y2="76.4649" gradientUnits="userSpaceOnUse">
<stop stop-color="#FF0376"/>
<stop offset="0.16" stop-color="#FF2973"/>
<stop offset="0.74" stop-color="#FFAF6B"/>
<stop offset="1" stop-color="#FFE568"/>
</linearGradient>
<linearGradient id="paint64_linear_1024_1028" x1="176.138" y1="74.2389" x2="182.77" y2="74.2389" gradientUnits="userSpaceOnUse">
<stop stop-color="#FF0376"/>
<stop offset="0.16" stop-color="#FF2973"/>
<stop offset="0.74" stop-color="#FFAF6B"/>
<stop offset="1" stop-color="#FFE568"/>
</linearGradient>
<linearGradient id="paint65_linear_1024_1028" x1="202.07" y1="112.682" x2="200.743" y2="82.1664" gradientUnits="userSpaceOnUse">
<stop stop-color="#5217CB"/>
<stop offset="0.67" stop-color="#C90990"/>
<stop offset="1" stop-color="#FF0376"/>
</linearGradient>
<linearGradient id="paint66_linear_1024_1028" x1="202.057" y1="110.279" x2="200.828" y2="82.0811" gradientUnits="userSpaceOnUse">
<stop offset="0.01" stop-color="white"/>
<stop offset="1" stop-color="white" stop-opacity="0"/>
</linearGradient>
<linearGradient id="paint67_linear_1024_1028" x1="199.897" y1="95.8987" x2="199.501" y2="86.8298" gradientUnits="userSpaceOnUse">
<stop stop-color="#5217CB"/>
<stop offset="0.67" stop-color="#C90990"/>
<stop offset="1" stop-color="#FF0376"/>
</linearGradient>
<linearGradient id="paint68_linear_1024_1028" x1="340.541" y1="146.997" x2="340.541" y2="195.967" gradientUnits="userSpaceOnUse">
<stop offset="0.01" stop-color="#0CDBE6"/>
<stop offset="1" stop-color="#0CDBE6" stop-opacity="0"/>
</linearGradient>
<linearGradient id="paint69_linear_1024_1028" x1="320.078" y1="179.473" x2="361.004" y2="179.473" gradientUnits="userSpaceOnUse">
<stop offset="0.01" stop-color="#0CDBE6"/>
<stop offset="1" stop-color="#0CDBE6" stop-opacity="0"/>
</linearGradient>
<linearGradient id="paint70_linear_1024_1028" x1="135.411" y1="23.4127" x2="135.411" y2="60.9829" gradientUnits="userSpaceOnUse">
<stop offset="0.01" stop-color="#0CDBE6"/>
<stop offset="1" stop-color="#0CDBE6" stop-opacity="0"/>
</linearGradient>
<linearGradient id="paint71_linear_1024_1028" x1="119.71" y1="49.3921" x2="151.105" y2="49.3921" gradientUnits="userSpaceOnUse">
<stop offset="0.01" stop-color="#0CDBE6"/>
<stop offset="1" stop-color="#0CDBE6" stop-opacity="0"/>
</linearGradient>
<linearGradient id="paint72_linear_1024_1028" x1="181.852" y1="14.43" x2="181.852" y2="41.1875" gradientUnits="userSpaceOnUse">
<stop offset="0.01" stop-color="#0CDBE6"/>
<stop offset="1" stop-color="#0CDBE6" stop-opacity="0"/>
</linearGradient>
<linearGradient id="paint73_linear_1024_1028" x1="170.676" y1="32.9315" x2="193.028" y2="32.9315" gradientUnits="userSpaceOnUse">
<stop offset="0.01" stop-color="#0CDBE6"/>
<stop offset="1" stop-color="#0CDBE6" stop-opacity="0"/>
</linearGradient>
<linearGradient id="paint74_linear_1024_1028" x1="348.936" y1="42.3038" x2="348.936" y2="69.0547" gradientUnits="userSpaceOnUse">
<stop offset="0.01" stop-color="#0CDBE6"/>
<stop offset="1" stop-color="#0CDBE6" stop-opacity="0"/>
</linearGradient>
<linearGradient id="paint75_linear_1024_1028" x1="337.76" y1="60.7987" x2="360.119" y2="60.7987" gradientUnits="userSpaceOnUse">
<stop offset="0.01" stop-color="#0CDBE6"/>
<stop offset="1" stop-color="#0CDBE6" stop-opacity="0"/>
</linearGradient>
<linearGradient id="paint76_linear_1024_1028" x1="250.202" y1="140.913" x2="250.202" y2="208.12" gradientUnits="userSpaceOnUse">
<stop offset="0.01" stop-color="#0CDBE6"/>
<stop offset="1" stop-color="#0CDBE6" stop-opacity="0"/>
</linearGradient>
<linearGradient id="paint77_linear_1024_1028" x1="221.998" y1="187.684" x2="278.406" y2="187.684" gradientUnits="userSpaceOnUse">
<stop offset="0.01" stop-color="#0CDBE6"/>
<stop offset="1" stop-color="#0CDBE6" stop-opacity="0"/>
</linearGradient>
<linearGradient id="paint78_linear_1024_1028" x1="96.9953" y1="158.211" x2="96.9953" y2="198.727" gradientUnits="userSpaceOnUse">
<stop offset="0.01" stop-color="#0CDBE6"/>
<stop offset="1" stop-color="#0CDBE6" stop-opacity="0"/>
</linearGradient>
<linearGradient id="paint79_linear_1024_1028" x1="79.9936" y1="186.41" x2="113.997" y2="186.41" gradientUnits="userSpaceOnUse">
<stop offset="0.01" stop-color="#0CDBE6"/>
<stop offset="1" stop-color="#0CDBE6" stop-opacity="0"/>
</linearGradient>
<linearGradient id="paint80_linear_1024_1028" x1="233.96" y1="150.536" x2="232.678" y2="121.13" gradientUnits="userSpaceOnUse">
<stop stop-color="#FF0376"/>
<stop offset="0.16" stop-color="#FF2973"/>
<stop offset="0.74" stop-color="#FFAF6B"/>
<stop offset="1" stop-color="#FFE568"/>
</linearGradient>
<linearGradient id="paint81_linear_1024_1028" x1="233.94" y1="148.218" x2="232.764" y2="121.051" gradientUnits="userSpaceOnUse">
<stop offset="0.01" stop-color="white"/>
<stop offset="1" stop-color="white" stop-opacity="0"/>
</linearGradient>
<linearGradient id="paint82_linear_1024_1028" x1="228.207" y1="128.296" x2="238.742" y2="128.296" gradientUnits="userSpaceOnUse">
<stop stop-color="#FF0376"/>
<stop offset="0.16" stop-color="#FF2973"/>
<stop offset="0.74" stop-color="#FFAF6B"/>
<stop offset="1" stop-color="#FFE568"/>
</linearGradient>
<linearGradient id="paint83_linear_1024_1028" x1="249.152" y1="188.476" x2="247.283" y2="145.555" gradientUnits="userSpaceOnUse">
<stop stop-color="#5217CB"/>
<stop offset="0.67" stop-color="#C90990"/>
<stop offset="1" stop-color="#FF0376"/>
</linearGradient>
<linearGradient id="paint84_linear_1024_1028" x1="249.041" y1="185.081" x2="247.317" y2="145.43" gradientUnits="userSpaceOnUse">
<stop offset="0.01" stop-color="white"/>
<stop offset="1" stop-color="white" stop-opacity="0"/>
</linearGradient>
<linearGradient id="paint85_linear_1024_1028" x1="98.0916" y1="116.546" x2="101.123" y2="159.982" gradientUnits="userSpaceOnUse">
<stop offset="0.01" stop-color="#0CDBE6"/>
<stop offset="1" stop-color="#0CDBE6" stop-opacity="0"/>
</linearGradient>
<linearGradient id="paint86_linear_1024_1028" x1="106.943" y1="149.096" x2="91.9818" y2="123.184" gradientUnits="userSpaceOnUse">
<stop offset="0.01" stop-color="#0CDBE6"/>
<stop offset="1" stop-color="#0CDBE6" stop-opacity="0"/>
</linearGradient>
<clipPath id="clip0_1024_1028">
<rect width="300" height="207.046" fill="white" transform="translate(75 12.957)"/>
</clipPath>
</defs>
</svg>
