<svg width="22" height="23" viewBox="0 0 22 23" fill="none" xmlns="http://www.w3.org/2000/svg">
<g id="last-will 1" clip-path="url(#clip0_1024_1320)">
<g id="Group">
<path id="Vector" d="M14.5944 15.0983H3.406C3.05005 15.0983 2.76147 14.8097 2.76147 14.4538C2.76147 14.0978 3.05005 13.8092 3.406 13.8092H14.1916L14.0718 13.426C13.8963 12.8643 13.8073 12.281 13.8073 11.6923C13.8073 9.45882 15.6243 7.64175 17.8578 7.64175V0.646484C17.8578 0.290531 17.5692 0.00195312 17.2133 0.00195312H0.644531C0.288578 0.00195312 0 0.290531 0 0.646484V21.3574C0 21.7134 0.288578 22.002 0.644531 22.002H12.4266V20.5754C12.4266 18.9012 13.6681 17.5178 15.2805 17.2936L14.5944 15.0983ZM3.406 4.14414H9.61929C9.97524 4.14414 10.2638 4.43272 10.2638 4.78867C10.2638 5.14463 9.97524 5.4332 9.61929 5.4332H3.406C3.05005 5.4332 2.76147 5.14463 2.76147 4.78867C2.76147 4.43272 3.05001 4.14414 3.406 4.14414ZM3.406 8.28633H11.6904C12.0463 8.28633 12.3349 8.57491 12.3349 8.93086C12.3349 9.28681 12.0463 9.57539 11.6904 9.57539H3.406C3.05005 9.57539 2.76147 9.28681 2.76147 8.93086C2.76147 8.57491 3.05001 8.28633 3.406 8.28633ZM3.406 11.0478H11.6904C12.0463 11.0478 12.3349 11.3364 12.3349 11.6923C12.3349 12.0483 12.0463 12.3369 11.6904 12.3369H3.406C3.05005 12.3369 2.76147 12.0483 2.76147 11.6923C2.76147 11.3364 3.05001 11.0478 3.406 11.0478ZM8.00392 18.3613C7.47635 18.889 6.97396 19.1486 6.47707 19.1486C5.39993 19.1489 4.84443 17.9528 4.48345 17.9528C4.37607 17.9528 4.1644 18.0587 3.86169 18.3613C3.60998 18.6131 3.20186 18.6131 2.95019 18.3613C2.69848 18.1096 2.69848 17.7016 2.95019 17.4498C3.47785 16.9222 3.98032 16.6626 4.47717 16.6626C5.55685 16.6626 6.10908 17.8585 6.47079 17.8585C6.57834 17.8585 6.78984 17.7524 7.09242 17.4498C7.34409 17.1981 7.75221 17.1981 8.00392 17.4498C8.25567 17.7016 8.25567 18.1096 8.00392 18.3613Z" fill="#58CC8C"/>
<path id="Vector_2" d="M15.0963 11.6931C15.0963 12.1506 15.1657 12.6056 15.3022 13.0424L16.6208 17.2619H19.0947L20.4133 13.0424C20.5498 12.6056 20.6192 12.1507 20.6192 11.6931C20.6192 10.168 19.3829 8.93164 17.8577 8.93164C16.3326 8.93164 15.0963 10.168 15.0963 11.6931Z" fill="#58CC8C"/>
<path id="Vector_3" d="M19.9747 18.5508H15.7408C14.6204 18.5508 13.7156 19.4576 13.7156 20.576V21.3581C13.7156 21.714 14.0042 22.0026 14.3601 22.0026H21.3554C21.7114 22.0026 22 21.714 22 21.3581V20.576C22 19.4556 21.0931 18.5508 19.9747 18.5508Z" fill="#58CC8C"/>
</g>
</g>
<defs>
<clipPath id="clip0_1024_1320">
<rect width="22" height="22" fill="white" transform="translate(0 0.00195312)"/>
</clipPath>
</defs>
</svg>
