<svg width="22" height="22" viewBox="0 0 22 22" fill="none" xmlns="http://www.w3.org/2000/svg">
<g id="shield 1" clip-path="url(#clip0_1014_60)">
<g id="Group">
<g id="Group_2">
<path id="Vector" d="M19.6887 5.04898L11.375 0.103061C11.1439 -0.0343535 10.8562 -0.0343535 10.6251 0.103061L2.31141 5.04898C2.08921 5.18119 1.953 5.4207 1.953 5.67924V8.50259C1.953 14.4492 5.38878 19.8805 10.7353 21.9505C10.9055 22.0164 11.0944 22.0165 11.2648 21.9505C16.5983 19.8857 20.047 14.4661 20.047 8.50259V5.67924C20.0471 5.42066 19.9109 5.18119 19.6887 5.04898ZM14.623 9.35213L10.0269 13.9483C9.74049 14.2347 9.27617 14.2347 8.98978 13.9483L7.37673 12.3353C7.09035 12.049 7.09035 11.5846 7.37673 11.2982C7.66312 11.0119 8.12748 11.0119 8.41383 11.2982L9.50829 12.3927L13.5859 8.31503C13.8723 8.02869 14.3366 8.02869 14.623 8.31503C14.9095 8.60146 14.9095 9.06578 14.623 9.35213Z" fill="#58CC8C"/>
</g>
</g>
</g>
<defs>
<clipPath id="clip0_1014_60">
<rect width="22" height="22" fill="white"/>
</clipPath>
</defs>
</svg>
