<svg width="18" height="18" viewBox="0 0 18 18" fill="none" xmlns="http://www.w3.org/2000/svg">
<g clip-path="url(#clip0_11_33)">
<path d="M15.1537 3.36855H0.0274922C0.0968906 2.81547 0.517641 2.37795 1.07909 2.30166L13.7317 0.565014C14.1085 0.51351 14.4423 0.610787 14.7246 0.855686C15.0095 1.10132 15.1537 1.41678 15.1537 1.79401V3.36855ZM7.31633 9.35024H13.6832V7.68338C13.6832 7.55597 13.7538 7.43926 13.8663 7.37977C13.9788 7.32025 14.115 7.32788 14.2203 7.39999L17.9824 9.97082V7.00325C17.9824 5.37755 16.66 4.05515 15.0343 4.05515H0.0175781V14.5004C0.0175781 16.126 1.34002 17.4485 2.96568 17.4485H15.0343C16.6599 17.4485 17.9824 16.126 17.9824 14.5004V11.5328L14.2203 14.1037C14.1623 14.1437 14.0944 14.1635 14.0265 14.1635C13.9716 14.1635 13.9166 14.1505 13.8663 14.1239C13.7538 14.0644 13.6832 13.9477 13.6832 13.8203V12.1538H7.31633C7.12677 12.1538 6.97303 12.0001 6.97303 11.8105V9.69351C6.97307 9.50356 7.12677 9.35024 7.31633 9.35024Z" fill="#58CC8C"/>
</g>
<defs>
<clipPath id="clip0_11_33">
<rect width="18" height="18" fill="white"/>
</clipPath>
</defs>
</svg>
