<svg width="30" height="30" viewBox="0 0 30 30" fill="none" xmlns="http://www.w3.org/2000/svg">
<g clip-path="url(#clip0_2157_27)">
<circle cx="14.8964" cy="14.9111" r="12.9209" fill="white"/>
<path fill-rule="evenodd" clip-rule="evenodd" d="M18.6683 17.589C18.5136 18.023 17.7711 18.4187 17.414 18.4721C17.0943 18.5199 16.6893 18.5396 16.244 18.399C15.974 18.3127 15.628 18.1984 15.1855 18.0071C13.3218 17.2027 12.104 15.3268 12.0111 15.203C11.9183 15.0793 11.2527 14.1962 11.2527 13.2821C11.2527 12.368 11.7327 11.918 11.9033 11.7324C12.073 11.5468 12.2746 11.4999 12.3983 11.4999C12.5221 11.4999 12.6458 11.5009 12.7546 11.5065C12.869 11.5121 13.0218 11.4634 13.1727 11.8252C13.3274 12.1974 13.6986 13.1115 13.7455 13.2043C13.7915 13.2971 13.8224 13.4059 13.7605 13.5296C13.6986 13.6534 13.6677 13.7312 13.5749 13.8399C13.4821 13.9477 13.3799 14.0818 13.2965 14.1652C13.2036 14.2571 13.1061 14.3584 13.2149 14.544C13.3236 14.7296 13.6958 15.338 14.248 15.8302C14.9577 16.463 15.5568 16.659 15.7424 16.7527C15.928 16.8455 16.0368 16.8296 16.1446 16.7059C16.2533 16.5821 16.6096 16.164 16.7333 15.9774C16.8571 15.7918 16.9808 15.8227 17.1515 15.8846C17.3211 15.9465 18.2352 16.3955 18.4208 16.4893C18.6065 16.5821 18.7302 16.628 18.7771 16.7059C18.823 16.7837 18.823 17.1549 18.6683 17.589ZM15.0336 8.75586C11.6249 8.75586 8.85177 11.5271 8.85083 14.933C8.85083 16.1002 9.17708 17.2374 9.79583 18.2209L9.94302 18.4543L9.31864 20.7343L11.6577 20.1212L11.8827 20.2543C12.8315 20.8177 13.919 21.1159 15.028 21.1159H15.0308C18.4368 21.1159 21.209 18.3446 21.2108 14.9377C21.2108 13.2868 20.5696 11.7352 19.4024 10.5671C18.2352 9.39992 16.6836 8.75586 15.0336 8.75586Z" fill="#67D449"/>
<path fill-rule="evenodd" clip-rule="evenodd" d="M15.0309 22.3706H15.0281C13.7831 22.3706 12.5606 22.0584 11.475 21.4659L7.53281 22.5L8.58844 18.6478C7.93781 17.5209 7.59469 16.2422 7.59563 14.9316C7.5975 10.8338 10.9322 7.5 15.0309 7.5C17.0194 7.5 18.8869 8.27437 20.2903 9.67969C21.6937 11.0841 22.4672 12.9516 22.4663 14.9381C22.4644 19.0359 19.1288 22.3706 15.0309 22.3706ZM15 0C6.71531 0 0 6.71531 0 15C0 23.2838 6.71531 30 15 30C23.2838 30 30 23.2838 30 15C30 6.71531 23.2838 0 15 0Z" fill="#67D449"/>
</g>
<defs>
<clipPath id="clip0_2157_27">
<rect width="30" height="30" fill="white"/>
</clipPath>
</defs>
</svg>
