<svg width="24" height="24" viewBox="0 0 24 24" fill="none" xmlns="http://www.w3.org/2000/svg">
<path d="M15.6181 11.1284C17.1538 10.0084 18.1538 8.19581 18.1538 6.15384C18.1538 2.76061 15.3932 0 12 0C8.60675 0 5.84615 2.76061 5.84615 6.15384C5.84615 8.19581 6.84613 10.0084 8.38185 11.1284C4.56435 12.5892 1.84616 16.2905 1.84616 20.6154C1.84616 22.4817 3.36449 24 5.23077 24H18.7692C20.6355 24 22.1538 22.4817 22.1538 20.6154C22.1538 16.2905 19.4356 12.5892 15.6181 11.1284ZM7.69232 6.15384C7.69232 3.77859 9.62474 1.84617 12 1.84617C14.3752 1.84617 16.3077 3.77859 16.3077 6.15384C16.3077 8.52909 14.3752 10.4616 12 10.4616C9.62474 10.4616 7.69232 8.52909 7.69232 6.15384ZM18.7692 22.1538H5.23077C4.38247 22.1538 3.69233 21.4637 3.69233 20.6153C3.69233 16.0344 7.41908 12.3076 12 12.3076C16.581 12.3076 20.3077 16.0344 20.3077 20.6153C20.3077 21.4637 19.6176 22.1538 18.7692 22.1538Z" fill="#1970AE"/>
</svg>
