<?xml version="1.0" encoding="UTF-8"?>
<svg xmlns="http://www.w3.org/2000/svg" xmlns:xlink="http://www.w3.org/1999/xlink" viewBox="0 0 260.52 266.83">
  <defs>
    <style>
      .cls-1, .cls-2 {
        stroke-width: .54px;
      }

      .cls-1, .cls-2, .cls-3, .cls-4, .cls-5, .cls-6, .cls-7, .cls-8, .cls-9, .cls-10, .cls-11, .cls-12, .cls-13, .cls-14, .cls-15, .cls-16, .cls-17 {
        stroke-miterlimit: 10;
      }

      .cls-1, .cls-2, .cls-3, .cls-4, .cls-5, .cls-6, .cls-7, .cls-8, .cls-9, .cls-10, .cls-11, .cls-12, .cls-13, .cls-14, .cls-16, .cls-17 {
        fill: none;
      }

      .cls-1, .cls-3, .cls-6, .cls-7, .cls-10, .cls-12, .cls-13, .cls-16 {
        stroke: #eab328;
      }

      .cls-2, .cls-4, .cls-5, .cls-8, .cls-9, .cls-11, .cls-14, .cls-17 {
        stroke: #fcc938;
      }

      .cls-18, .cls-19, .cls-20, .cls-21, .cls-22, .cls-23, .cls-24, .cls-25, .cls-26, .cls-27, .cls-28, .cls-29, .cls-30, .cls-31, .cls-32, .cls-33, .cls-34, .cls-35, .cls-36, .cls-37, .cls-38, .cls-39, .cls-40, .cls-41, .cls-42, .cls-43, .cls-44, .cls-45, .cls-46, .cls-47, .cls-48, .cls-49, .cls-50, .cls-51, .cls-52, .cls-53, .cls-54, .cls-55, .cls-56, .cls-57, .cls-58, .cls-59 {
        stroke-width: 0px;
      }

      .cls-18, .cls-60, .cls-24, .cls-25, .cls-47 {
        mix-blend-mode: multiply;
      }

      .cls-18, .cls-56 {
        fill: #fcc938;
      }

      .cls-19 {
        fill: url(#Degradado_sin_nombre_74);
      }

      .cls-20 {
        fill: url(#Degradado_sin_nombre_79);
      }

      .cls-21 {
        fill: url(#Degradado_sin_nombre_83);
      }

      .cls-22 {
        fill: url(#Degradado_sin_nombre_103);
      }

      .cls-22, .cls-23, .cls-61, .cls-48 {
        mix-blend-mode: lighten;
      }

      .cls-3, .cls-4 {
        stroke-width: .85px;
      }

      .cls-5, .cls-6 {
        stroke-width: .64px;
      }

      .cls-7, .cls-8 {
        stroke-width: .64px;
      }

      .cls-23 {
        fill: url(#Degradado_sin_nombre_95);
      }

      .cls-24 {
        fill: url(#Degradado_sin_nombre_114-2);
      }

      .cls-25 {
        fill: url(#Degradado_sin_nombre_79-16);
      }

      .cls-26 {
        fill: url(#Degradado_sin_nombre_79-2);
      }

      .cls-27 {
        fill: url(#Degradado_sin_nombre_79-3);
      }

      .cls-28 {
        fill: url(#Degradado_sin_nombre_79-7);
      }

      .cls-29 {
        fill: url(#Degradado_sin_nombre_79-4);
      }

      .cls-30 {
        fill: url(#Degradado_sin_nombre_79-9);
      }

      .cls-31 {
        fill: url(#Degradado_sin_nombre_79-6);
      }

      .cls-32 {
        fill: url(#Degradado_sin_nombre_79-5);
      }

      .cls-33 {
        fill: url(#Degradado_sin_nombre_79-8);
      }

      .cls-34 {
        fill: url(#Degradado_sin_nombre_113-5);
      }

      .cls-35 {
        fill: url(#Degradado_sin_nombre_113-6);
      }

      .cls-36 {
        fill: url(#Degradado_sin_nombre_113-3);
      }

      .cls-37 {
        fill: url(#Degradado_sin_nombre_113-4);
      }

      .cls-38 {
        fill: url(#Degradado_sin_nombre_113-2);
      }

      .cls-39 {
        fill: url(#Degradado_sin_nombre_112-2);
      }

      .cls-40 {
        fill: url(#Degradado_sin_nombre_79-11);
      }

      .cls-41 {
        fill: url(#Degradado_sin_nombre_79-12);
      }

      .cls-42 {
        fill: url(#Degradado_sin_nombre_79-15);
      }

      .cls-43 {
        fill: url(#Degradado_sin_nombre_79-14);
      }

      .cls-44 {
        fill: url(#Degradado_sin_nombre_79-10);
      }

      .cls-45 {
        fill: url(#Degradado_sin_nombre_79-17);
      }

      .cls-46 {
        fill: url(#Degradado_sin_nombre_79-18);
      }

      .cls-9, .cls-10 {
        stroke-width: .8px;
      }

      .cls-13, .cls-14 {
        stroke-width: .57px;
      }

      .cls-15 {
        fill: url(#Degradado_sin_nombre_79-13);
        stroke: url(#Degradado_sin_nombre_105);
        stroke-width: 3px;
      }

      .cls-47 {
        fill: url(#Degradado_sin_nombre_114);
      }

      .cls-62 {
        isolation: isolate;
      }

      .cls-48 {
        fill: url(#Degradado_sin_nombre_103-2);
      }

      .cls-49 {
        fill: url(#Degradado_sin_nombre_112);
      }

      .cls-50 {
        fill: url(#Degradado_sin_nombre_113);
      }

      .cls-51 {
        fill: url(#Degradado_sin_nombre_102);
      }

      .cls-16, .cls-17 {
        stroke-width: .69px;
      }

      .cls-52 {
        fill: #d8600e;
      }

      .cls-53 {
        fill: #fff;
      }

      .cls-54 {
        fill: #fcebe0;
      }

      .cls-55 {
        fill: #ffd257;
      }

      .cls-57 {
        fill: #fcd165;
      }

      .cls-58 {
        fill: #ed9d11;
      }

      .cls-59 {
        fill: #fc7b1a;
      }
    </style>
    <linearGradient id="Degradado_sin_nombre_79" data-name="Degradado sin nombre 79" x1="204.7" y1="52.18" x2="225.17" y2="52.18" gradientTransform="translate(51.02 -120.1) rotate(45)" gradientUnits="userSpaceOnUse">
      <stop offset="0" stop-color="#ffe08d" stop-opacity="0"/>
      <stop offset=".44" stop-color="#ffd973" stop-opacity=".47"/>
      <stop offset=".83" stop-color="#ffd45f" stop-opacity=".85"/>
      <stop offset="1" stop-color="#ffd257"/>
    </linearGradient>
    <linearGradient id="Degradado_sin_nombre_114" data-name="Degradado sin nombre 114" x1="157.21" y1="66.4" x2="181.75" y2="66.4" gradientUnits="userSpaceOnUse">
      <stop offset="0" stop-color="#ffd257"/>
      <stop offset=".17" stop-color="#ffd45f" stop-opacity=".85"/>
      <stop offset=".56" stop-color="#ffd973" stop-opacity=".47"/>
      <stop offset="1" stop-color="#ffe08d" stop-opacity="0"/>
    </linearGradient>
    <linearGradient id="Degradado_sin_nombre_79-2" data-name="Degradado sin nombre 79" x1="3.48" y1="113.82" x2="36.9" y2="113.82" gradientTransform="matrix(1,0,0,1,0,0)" xlink:href="#Degradado_sin_nombre_79"/>
    <linearGradient id="Degradado_sin_nombre_79-3" data-name="Degradado sin nombre 79" x1="254.87" y1="38.33" x2="276.13" y2="38.33" gradientTransform="translate(134.78 372.7) rotate(-72.93)" xlink:href="#Degradado_sin_nombre_79"/>
    <linearGradient id="Degradado_sin_nombre_79-4" data-name="Degradado sin nombre 79" x1="136.1" y1="-189.83" x2="157.35" y2="-189.83" gradientTransform="translate(209.7 297.44) rotate(162.59) scale(1 -1)" xlink:href="#Degradado_sin_nombre_79"/>
    <linearGradient id="Degradado_sin_nombre_79-5" data-name="Degradado sin nombre 79" x1="281.68" y1="24.87" x2="298.88" y2="24.87" gradientTransform="translate(50.24 -207.83) rotate(52.58)" xlink:href="#Degradado_sin_nombre_79"/>
    <linearGradient id="Degradado_sin_nombre_79-6" data-name="Degradado sin nombre 79" x1="200.18" y1="99.42" x2="223.49" y2="99.42" gradientTransform="matrix(1,0,0,1,0,0)" xlink:href="#Degradado_sin_nombre_79"/>
    <linearGradient id="Degradado_sin_nombre_79-7" data-name="Degradado sin nombre 79" x1="178.52" y1="71.17" x2="197.24" y2="71.17" gradientTransform="translate(162.92 -186.01) rotate(78.24)" xlink:href="#Degradado_sin_nombre_79"/>
    <linearGradient id="Degradado_sin_nombre_79-8" data-name="Degradado sin nombre 79" x1="-102" y1="-52.05" x2="-86.99" y2="-52.05" gradientTransform="translate(89.49 127.14) rotate(51.64)" xlink:href="#Degradado_sin_nombre_79"/>
    <linearGradient id="Degradado_sin_nombre_79-9" data-name="Degradado sin nombre 79" x1="135.53" y1="19.09" x2="153.73" y2="19.09" gradientTransform="translate(-35.71 -49.03) rotate(43.43)" xlink:href="#Degradado_sin_nombre_79"/>
    <linearGradient id="Degradado_sin_nombre_79-10" data-name="Degradado sin nombre 79" x1="130.68" y1="24.78" x2="121.69" y2="82.41" gradientTransform="matrix(1,0,0,1,0,0)" xlink:href="#Degradado_sin_nombre_79"/>
    <linearGradient id="Degradado_sin_nombre_79-11" data-name="Degradado sin nombre 79" x1="130.68" y1="24.78" x2="121.69" y2="82.41" gradientTransform="matrix(1,0,0,1,0,0)" xlink:href="#Degradado_sin_nombre_79"/>
    <linearGradient id="Degradado_sin_nombre_74" data-name="Degradado sin nombre 74" x1="187.63" y1="86.24" x2="126.05" y2="191.67" gradientUnits="userSpaceOnUse">
      <stop offset="0" stop-color="#ffe08d"/>
      <stop offset="1" stop-color="#ffd257"/>
    </linearGradient>
    <linearGradient id="Degradado_sin_nombre_83" data-name="Degradado sin nombre 83" x1="187" y1="85.62" x2="124.34" y2="192.89" gradientUnits="userSpaceOnUse">
      <stop offset="0" stop-color="#ffefc3"/>
      <stop offset="1" stop-color="#ffd257" stop-opacity="0"/>
    </linearGradient>
    <linearGradient id="Degradado_sin_nombre_95" data-name="Degradado sin nombre 95" x1="171.02" y1="85.43" x2="124.7" y2="204.79" gradientUnits="userSpaceOnUse">
      <stop offset="0" stop-color="#ffefc3"/>
      <stop offset=".05" stop-color="#ffecbb" stop-opacity=".93"/>
      <stop offset=".25" stop-color="#ffe49d" stop-opacity=".65"/>
      <stop offset=".45" stop-color="#ffde84" stop-opacity=".42"/>
      <stop offset=".63" stop-color="#ffd870" stop-opacity=".24"/>
      <stop offset=".78" stop-color="#ffd562" stop-opacity=".11"/>
      <stop offset=".91" stop-color="#ffd25a" stop-opacity=".03"/>
      <stop offset="1" stop-color="#ffd257" stop-opacity="0"/>
    </linearGradient>
    <linearGradient id="Degradado_sin_nombre_79-12" data-name="Degradado sin nombre 79" x1="132.96" y1="71.9" x2="122.41" y2="247.34" gradientTransform="matrix(1,0,0,1,0,0)" xlink:href="#Degradado_sin_nombre_79"/>
    <linearGradient id="Degradado_sin_nombre_79-13" data-name="Degradado sin nombre 79" x1="107.9" y1="180.95" x2="155.7" y2="180.95" gradientTransform="matrix(1,0,0,1,0,0)" xlink:href="#Degradado_sin_nombre_79"/>
    <linearGradient id="Degradado_sin_nombre_105" data-name="Degradado sin nombre 105" x1="106.4" y1="180.95" x2="157.2" y2="180.95" gradientUnits="userSpaceOnUse">
      <stop offset="0" stop-color="#ffe08d" stop-opacity=".4"/>
      <stop offset=".11" stop-color="#ffdc7e" stop-opacity=".56"/>
      <stop offset=".22" stop-color="#ffd972" stop-opacity=".69"/>
      <stop offset=".34" stop-color="#ffd668" stop-opacity=".81"/>
      <stop offset=".47" stop-color="#ffd460" stop-opacity=".89"/>
      <stop offset=".61" stop-color="#ffd35b" stop-opacity=".95"/>
      <stop offset=".77" stop-color="#ffd258" stop-opacity=".99"/>
      <stop offset="1" stop-color="#ffd257"/>
    </linearGradient>
    <linearGradient id="Degradado_sin_nombre_103" data-name="Degradado sin nombre 103" x1="112.24" y1="29.48" x2="107.01" y2="48.95" gradientUnits="userSpaceOnUse">
      <stop offset="0" stop-color="#ffefc3"/>
      <stop offset=".09" stop-color="#ffedbd" stop-opacity=".95"/>
      <stop offset=".25" stop-color="#ffe9b0" stop-opacity=".82"/>
      <stop offset=".46" stop-color="#ffe399" stop-opacity=".62"/>
      <stop offset=".72" stop-color="#ffdb7a" stop-opacity=".33"/>
      <stop offset="1" stop-color="#ffd257" stop-opacity="0"/>
    </linearGradient>
    <linearGradient id="Degradado_sin_nombre_103-2" data-name="Degradado sin nombre 103" x1="93.22" y1="32.5" x2="84.81" y2="63.83" gradientTransform="translate(224.65) rotate(-180) scale(1 -1)" xlink:href="#Degradado_sin_nombre_103"/>
    <linearGradient id="Degradado_sin_nombre_79-14" data-name="Degradado sin nombre 79" x1="130.31" y1="18.06" x2="120.6" y2="80.34" gradientTransform="matrix(1,0,0,1,0,0)" xlink:href="#Degradado_sin_nombre_79"/>
    <linearGradient id="Degradado_sin_nombre_102" data-name="Degradado sin nombre 102" x1="114.96" y1="46.53" x2="147.05" y2="46.53" gradientUnits="userSpaceOnUse">
      <stop offset="0" stop-color="#ffefc3"/>
      <stop offset="1" stop-color="#ffefc3"/>
    </linearGradient>
    <linearGradient id="Degradado_sin_nombre_113" data-name="Degradado sin nombre 113" x1="27.52" y1="76.95" x2="110.63" y2="76.95" gradientUnits="userSpaceOnUse">
      <stop offset="0" stop-color="#ec9751"/>
      <stop offset=".24" stop-color="#ec9852" stop-opacity=".99"/>
      <stop offset=".41" stop-color="#ed9d56" stop-opacity=".95"/>
      <stop offset=".56" stop-color="#efa65d" stop-opacity=".88"/>
      <stop offset=".69" stop-color="#f3b267" stop-opacity=".78"/>
      <stop offset=".82" stop-color="#f7c173" stop-opacity=".65"/>
      <stop offset=".94" stop-color="#fbd483" stop-opacity=".5"/>
      <stop offset="1" stop-color="#ffe08d" stop-opacity=".4"/>
    </linearGradient>
    <linearGradient id="Degradado_sin_nombre_112" data-name="Degradado sin nombre 112" x1="101.59" y1="73.68" x2="155.55" y2="73.68" gradientUnits="userSpaceOnUse">
      <stop offset="0" stop-color="#ffe08d" stop-opacity=".4"/>
      <stop offset=".06" stop-color="#fbd483" stop-opacity=".5"/>
      <stop offset=".18" stop-color="#f7c173" stop-opacity=".65"/>
      <stop offset=".31" stop-color="#f3b267" stop-opacity=".78"/>
      <stop offset=".44" stop-color="#efa65d" stop-opacity=".88"/>
      <stop offset=".59" stop-color="#ed9d56" stop-opacity=".95"/>
      <stop offset=".76" stop-color="#ec9852" stop-opacity=".99"/>
      <stop offset="1" stop-color="#ec9751"/>
    </linearGradient>
    <linearGradient id="Degradado_sin_nombre_112-2" data-name="Degradado sin nombre 112" x1="104.59" y1="73.63" x2="128.88" y2="73.63" xlink:href="#Degradado_sin_nombre_112"/>
    <linearGradient id="Degradado_sin_nombre_79-15" data-name="Degradado sin nombre 79" x1="52.35" y1="114.72" x2="118.6" y2="114.72" gradientTransform="matrix(1,0,0,1,0,0)" xlink:href="#Degradado_sin_nombre_79"/>
    <linearGradient id="Degradado_sin_nombre_113-2" data-name="Degradado sin nombre 113" x1="43.35" y1="110.21" x2="115.7" y2="110.21" xlink:href="#Degradado_sin_nombre_113"/>
    <linearGradient id="Degradado_sin_nombre_113-3" data-name="Degradado sin nombre 113" x1="101.59" y1="78.95" x2="155.55" y2="78.95" xlink:href="#Degradado_sin_nombre_113"/>
    <linearGradient id="Degradado_sin_nombre_113-4" data-name="Degradado sin nombre 113" x1="104.59" y1="78.9" x2="128.88" y2="78.9" xlink:href="#Degradado_sin_nombre_113"/>
    <linearGradient id="Degradado_sin_nombre_113-5" data-name="Degradado sin nombre 113" x1="27.52" y1="67.71" x2="110.63" y2="67.71" xlink:href="#Degradado_sin_nombre_113"/>
    <linearGradient id="Degradado_sin_nombre_113-6" data-name="Degradado sin nombre 113" x1="-44.56" y1="110.4" x2="38.54" y2="110.4" gradientTransform="translate(-70.9 157.83) rotate(-117.55)" xlink:href="#Degradado_sin_nombre_113"/>
    <linearGradient id="Degradado_sin_nombre_79-16" data-name="Degradado sin nombre 79" x1="42" y1="220.78" x2="42" y2="192.25" gradientTransform="matrix(1,0,0,1,0,0)" xlink:href="#Degradado_sin_nombre_79"/>
    <linearGradient id="Degradado_sin_nombre_79-17" data-name="Degradado sin nombre 79" x1="23.02" y1="210.11" x2="50.09" y2="210.11" gradientTransform="matrix(1,0,0,1,0,0)" xlink:href="#Degradado_sin_nombre_79"/>
    <linearGradient id="Degradado_sin_nombre_114-2" data-name="Degradado sin nombre 114" x1="195.66" y1="185.15" x2="211.4" y2="185.15" xlink:href="#Degradado_sin_nombre_114"/>
    <linearGradient id="Degradado_sin_nombre_79-18" data-name="Degradado sin nombre 79" x1="203.72" y1="182" x2="230.02" y2="182" gradientTransform="matrix(1,0,0,1,0,0)" xlink:href="#Degradado_sin_nombre_79"/>
  </defs>
  <g class="cls-62">
    <g id="Layer_2" data-name="Layer 2">
      <g id="Objects">
        <g>
          <g>
            <path class="cls-58" d="m177.36,76.24c-4.38,2.54-10.59.96-14.63-3.08-4.04-4.04-5.62-10.25-3.08-14.63,3.2-5.54,11.52-6.2,17.71,0s5.54,14.51,0,17.71Z"/>
            <g>
              <path class="cls-57" d="m176.15,77.44c-4.38,2.54-10.59.96-14.63-3.08s-5.62-10.25-3.08-14.63c3.2-5.54,11.52-6.2,17.71,0s5.54,14.51,0,17.71Z"/>
              <path class="cls-8" d="m176.15,77.44c-4.38,2.54-10.59.96-14.63-3.08s-5.62-10.25-3.08-14.63c3.2-5.54,11.52-6.2,17.71,0s5.54,14.51,0,17.71Z"/>
              <path class="cls-56" d="m174.9,76.19c-3.7,2.32-9.13,1.04-12.69-2.52-3.56-3.56-4.84-8.98-2.52-12.69,2.84-4.53,9.81-4.85,14.93.28s4.8,12.09.28,14.93Z"/>
              <path class="cls-7" d="m174.9,76.19c-3.7,2.32-9.13,1.04-12.69-2.52-3.56-3.56-4.84-8.98-2.52-12.69,2.84-4.53,9.81-4.85,14.93.28s4.8,12.09.28,14.93Z"/>
              <g class="cls-60">
                <path class="cls-20" d="m163.9,73.43c-3.68-3.68-4.89-9.33-2.31-13.25.63-.95,1.44-1.72,2.38-2.32-1.79.49-3.29,1.56-4.28,3.13-2.32,3.7-1.04,9.13,2.52,12.69,2.79,2.79,6.63,4.15,9.91,3.57-2.89-.16-5.91-1.5-8.22-3.81Z"/>
              </g>
              <path class="cls-18" d="m173.41,68.02l-5.55-5.55-.57.67,1.28,1.28c.95.95,1.13,2.34.48,3.18l-3.01-3.01-.43.5,2.95,2.95c-.81.47-1.97.24-2.79-.58l-1.18-1.18-.47.54h.01s-.04,5.83-.04,5.83l.83.83.12-5.74.24.24c1.17,1.17,2.84,1.47,3.96.74l1.55,1.55.5-.43-1.55-1.55c.48-.55.68-1.31.6-2.1l2.4,2.4.67-.57Z"/>
            </g>
          </g>
          <path class="cls-47" d="m177.36,58.52c-5.75-5.75-13.31-5.59-16.93-1.12-.78.64-1.46,1.41-1.99,2.32-2.54,4.38-.96,10.59,3.08,14.63,4.04,4.04,10.25,5.62,14.63,3.08.92-.53,1.68-1.21,2.32-1.99,4.47-3.62,4.63-11.19-1.12-16.93Z"/>
          <g>
            <path class="cls-58" d="m38.35,111.79c3.94,8.28-1.32,17.25-13.38,18.4-13.06,1.25-24.47-7.32-24.47-16.94v-3.01h37.85v1.55"/>
            <g>
              <path class="cls-57" d="m38.35,108.78c3.94,8.28-1.32,17.25-13.38,18.4-13.06,1.25-24.47-7.32-24.47-16.94,0-7.77,7.82-13.06,16.98-13.06,8.67,0,17.61,4.75,20.88,11.6Z"/>
              <path class="cls-11" d="m38.35,108.78c3.94,8.28-1.32,17.25-13.38,18.4-13.06,1.25-24.47-7.32-24.47-16.94,0-7.77,7.82-13.06,16.98-13.06,8.67,0,17.61,4.75,20.88,11.6Z"/>
              <path class="cls-56" d="m35.96,108.87c3.15,7.08-1.6,14.47-11.72,15.34-10.82.93-20.45-6.06-20.75-14.09-.25-6.7,6.36-11.4,14.37-11.44,7.62-.04,15.43,4.18,18.1,10.19Z"/>
              <path class="cls-12" d="m35.96,108.87c3.15,7.08-1.6,14.47-11.72,15.34-10.82.93-20.45-6.06-20.75-14.09-.25-6.7,6.36-11.4,14.37-11.44,7.62-.04,15.43,4.18,18.1,10.19Z"/>
              <g class="cls-60">
                <path class="cls-26" d="m25.29,120.43c-10.29.76-19.58-5.71-20.03-13.13-.09-1.43.19-2.76.73-3.96-1.64,1.84-2.6,4.15-2.5,6.78.3,8.03,9.92,15.02,20.75,14.09,8-.69,12.72-5.57,12.67-11.1-1.31,3.85-5.47,6.86-11.61,7.32Z"/>
              </g>
              <path class="cls-18" d="m24.02,103.53l-10.01.2.17.96,2.44-.06c1.79-.04,3.49.9,4.03,2.17l-6.05.18.16.87,6.07-.2c-.02,1.25-1.26,2.28-3.06,2.35l-2.6.1.2,1.13h.03s8.67,7.63,8.67,7.63l2.16-.15-8.76-7.57.54-.02c2.61-.11,4.35-1.67,4.2-3.51l3.08-.1-.26-.83-3.01.09c-.35-.89-1.11-1.66-2.07-2.21l4.38-.1-.29-.92Z"/>
            </g>
          </g>
          <g>
            <path class="cls-58" d="m251.52,118.74c5.77-.85,10.24,4.02,8.69,11.57-1.68,8.17-9.02,13.51-14.87,11.72l-1.83-.56,7.07-23.01.94.29"/>
            <g>
              <path class="cls-57" d="m249.69,118.18c5.77-.85,10.24,4.02,8.69,11.57-1.68,8.17-9.02,13.51-14.87,11.72-4.73-1.45-6.48-7.19-4.77-12.76,1.62-5.27,6.17-9.82,10.95-10.53Z"/>
              <path class="cls-5" d="m249.69,118.18c5.77-.85,10.24,4.02,8.69,11.57-1.68,8.17-9.02,13.51-14.87,11.72-4.73-1.45-6.48-7.19-4.77-12.76,1.62-5.27,6.17-9.82,10.95-10.53Z"/>
              <path class="cls-56" d="m249.3,119.65c4.89-.59,8.5,3.67,7.14,9.99-1.46,6.75-7.5,11.3-12.44,9.98-4.12-1.1-5.74-6-4.27-10.87,1.4-4.64,5.42-8.6,9.57-9.1Z"/>
              <path class="cls-6" d="m249.3,119.65c4.89-.59,8.5,3.67,7.14,9.99-1.46,6.75-7.5,11.3-12.44,9.98-4.12-1.1-5.74-6-4.27-10.87,1.4-4.64,5.42-8.6,9.57-9.1Z"/>
              <g class="cls-60">
                <path class="cls-27" d="m254.34,128.3c-1.46,6.4-7.13,10.84-11.72,9.73-.89-.21-1.64-.63-2.27-1.19.81,1.34,2.04,2.36,3.66,2.79,4.94,1.32,10.98-3.23,12.44-9.98,1.08-4.99-1.01-8.77-4.38-9.77,2.1,1.52,3.15,4.61,2.28,8.42Z"/>
              </g>
              <path class="cls-18" d="m243.83,125.92l-1.75,6.13.61.07.42-1.49c.31-1.09,1.2-1.96,2.07-2.04l-1.02,3.71.56.07,1.01-3.73c.76.24,1.15,1.19.86,2.3l-.42,1.6.72.09v-.02s6.26-3.84,6.26-3.84l.31-1.34-6.24,3.91.09-.34c.42-1.61-.2-2.96-1.35-3.21l.51-1.89h-.56s-.51,1.85-.51,1.85c-.61.05-1.22.36-1.73.85l.76-2.68h-.62Z"/>
            </g>
          </g>
          <g>
            <path class="cls-58" d="m1.49,162.43c-.82,5.77,4.08,10.21,11.62,8.62,8.16-1.73,13.46-9.1,11.63-14.93l-.57-1.83-22.97,7.2.3.94"/>
            <g>
              <path class="cls-57" d="m.92,160.6c-.82,5.78,4.08,10.21,11.62,8.62,8.16-1.73,13.46-9.1,11.63-14.93-1.48-4.72-7.23-6.44-12.79-4.69-5.26,1.65-9.79,6.23-10.46,11.01Z"/>
              <path class="cls-5" d="m.92,160.6c-.82,5.78,4.08,10.21,11.62,8.62,8.16-1.73,13.46-9.1,11.63-14.93-1.48-4.72-7.23-6.44-12.79-4.69-5.26,1.65-9.79,6.23-10.46,11.01Z"/>
              <path class="cls-56" d="m2.39,160.2c-.57,4.89,3.72,8.48,10.03,7.08,6.75-1.5,11.26-7.57,9.91-12.5-1.12-4.11-6.03-5.71-10.89-4.21-4.63,1.43-8.57,5.47-9.05,9.63Z"/>
              <path class="cls-6" d="m2.39,160.2c-.57,4.89,3.72,8.48,10.03,7.08,6.75-1.5,11.26-7.57,9.91-12.5-1.12-4.11-6.03-5.71-10.89-4.21-4.63,1.43-8.57,5.47-9.05,9.63Z"/>
              <g class="cls-60">
                <path class="cls-29" d="m11.06,165.18c6.39-1.5,10.8-7.19,9.66-11.78-.22-.89-.64-1.64-1.2-2.26,1.34.8,2.37,2.03,2.81,3.64,1.35,4.93-3.16,11-9.91,12.5-4.99,1.11-8.78-.96-9.8-4.33,1.53,2.09,4.63,3.12,8.44,2.23Z"/>
              </g>
              <path class="cls-18" d="m8.62,154.69l6.12-1.78.08.61-1.49.43c-1.09.31-1.95,1.21-2.03,2.08l3.71-1.04.07.56-3.72,1.03c.25.76,1.2,1.14,2.3.84l1.6-.43.09.72h-.02s-3.81,6.29-3.81,6.29l-1.34.32,3.87-6.26-.33.09c-1.61.43-2.96-.19-3.21-1.33l-1.89.52v-.56s1.85-.52,1.85-.52c.04-.61.35-1.22.84-1.73l-2.68.77v-.62Z"/>
            </g>
          </g>
          <g>
            <path class="cls-58" d="m215.45,45.28c-3.93,1.63-8.93-.37-11.85-4.19-2.92-3.81-3.54-9.16-.94-12.53,3.28-4.26,10.28-3.89,14.76,1.96,4.48,5.85,3,12.7-1.96,14.76Z"/>
            <g>
              <path class="cls-57" d="m214.31,46.15c-3.93,1.63-8.93-.37-11.85-4.19s-3.54-9.16-.94-12.53c3.28-4.26,10.28-3.89,14.76,1.96,4.48,5.85,3,12.7-1.96,14.76Z"/>
              <path class="cls-2" d="m214.31,46.15c-3.93,1.63-8.93-.37-11.85-4.19s-3.54-9.16-.94-12.53c3.28-4.26,10.28-3.89,14.76,1.96,4.48,5.85,3,12.7-1.96,14.76Z"/>
              <path class="cls-56" d="m213.4,44.96c-3.34,1.53-7.72-.15-10.29-3.51s-3.04-8.02-.69-10.85c2.87-3.46,8.71-2.95,12.41,1.89,3.7,4.84,2.66,10.61-1.43,12.47Z"/>
              <path class="cls-1" d="m213.4,44.96c-3.34,1.53-7.72-.15-10.29-3.51s-3.04-8.02-.69-10.85c2.87-3.46,8.71-2.95,12.41,1.89,3.7,4.84,2.66,10.61-1.43,12.47Z"/>
              <g class="cls-60">
                <path class="cls-32" d="m204.54,41.44c-2.66-3.47-3.04-8.32-.45-11.3.63-.72,1.39-1.28,2.24-1.67-1.55.21-2.91.93-3.91,2.13-2.35,2.83-1.88,7.49.69,10.85,2.02,2.63,5.06,4.19,7.86,4.07-2.39-.45-4.76-1.9-6.43-4.09Z"/>
              </g>
              <path class="cls-18" d="m213.07,38l-4.01-5.24-.55.49.93,1.21c.69.9.68,2.07.05,2.7l-2.18-2.84-.41.37,2.13,2.78c-.73.3-1.67-.01-2.26-.79l-.85-1.11-.45.4h0s-.68,4.86-.68,4.86l.6.78.74-4.77.17.23c.84,1.1,2.2,1.54,3.22,1.06l1.12,1.46.46-.3-1.12-1.47c.46-.41.71-1.01.74-1.68l1.74,2.27.62-.4Z"/>
            </g>
          </g>
          <g>
            <path class="cls-58" d="m229.58,99.35c0,7.57-9.4,15.24-13.74,7.56-5.9-2.16-11.53-7.81-13.66-13.69-1.89-5.22-5.94-7.39,2.88-12.46,1.27-.73,2.84-1.15,4.73-1.15,9.68,0,19.79,10.07,19.79,19.74Z"/>
            <g>
              <path class="cls-57" d="m226.95,101.79c0,7.57-6.73,10.12-13.74,7.56-5.9-2.16-11.53-7.81-13.66-13.69-2.52-6.96.06-13.61,7.61-13.61,9.68,0,19.79,10.07,19.79,19.74Z"/>
              <path class="cls-11" d="m226.95,101.79c0,7.57-6.73,10.12-13.74,7.56-5.9-2.16-11.53-7.81-13.66-13.69-2.52-6.96.06-13.61,7.61-13.61,9.68,0,19.79,10.07,19.79,19.74Z"/>
              <path class="cls-56" d="m224.22,101.18c.25,6.47-5.26,8.91-11.32,6.8-5.21-1.82-10.2-6.82-11.99-12.01-2.08-6.02.38-11.47,6.84-11.22,7.94.31,16.16,8.5,16.47,16.44Z"/>
              <path class="cls-12" d="m224.22,101.18c.25,6.47-5.26,8.91-11.32,6.8-5.21-1.82-10.2-6.82-11.99-12.01-2.08-6.02.38-11.47,6.84-11.22,7.94.31,16.16,8.5,16.47,16.44Z"/>
              <g class="cls-60">
                <path class="cls-31" d="m213.63,106.45c-5.48-1.78-10.69-7-12.54-12.56-.44-1.31-.67-2.57-.73-3.78-.35,1.72-.17,3.72.56,5.85,1.79,5.19,6.79,10.19,11.99,12.01,4.67,1.63,8.91.58,10.58-2.93-2.32,2.16-5.95,2.68-9.86,1.4Z"/>
              </g>
              <path class="cls-18" d="m213.61,92.54l-8.05-1.13.29,1.09,1.72.27c1.33.21,2.71,1.51,3.17,2.93l-4.24-.8.22.83,4.17.84c.02,1.16-.82,1.8-2.01,1.53l-1.63-.37.25.92h.02s5.45,6.71,5.45,6.71l1.33.42-5.51-6.82.34.08c1.71.41,2.92-.54,2.82-2.26l2.48.5-.15-.91-2.48-.47c-.28-1-.9-1.97-1.69-2.74l3.73.58-.2-1.2Z"/>
            </g>
          </g>
          <g>
            <path class="cls-58" d="m134.5,26.37c-5.95,1.24-13.52-4.9-8.19-9.56.73-4.99,4.25-10.35,8.53-12.98,3.79-2.34,4.84-5.88,10.27.23.78.88,1.37,2.05,1.68,3.53,1.58,7.61-4.68,17.21-12.29,18.79Z"/>
            <g>
              <path class="cls-57" d="m132.15,24.7c-5.95,1.24-9.06-3.63-8.19-9.56.73-4.99,4.25-10.35,8.53-12.98,5.06-3.12,10.72-2.18,11.95,3.75,1.58,7.61-4.68,17.21-12.29,18.79Z"/>
              <path class="cls-9" d="m132.15,24.7c-5.95,1.24-9.06-3.63-8.19-9.56.73-4.99,4.25-10.35,8.53-12.98,5.06-3.12,10.72-2.18,11.95,3.75,1.58,7.61-4.68,17.21-12.29,18.79Z"/>
              <path class="cls-56" d="m132.18,22.46c-5.05,1.26-7.87-2.68-7.2-7.79.58-4.39,3.7-9.14,7.48-11.4,4.39-2.62,9.09-1.58,9.94,3.54,1.06,6.3-4.04,14.1-10.23,15.64Z"/>
              <path class="cls-10" d="m132.18,22.46c-5.05,1.26-7.87-2.68-7.2-7.79.58-4.39,3.7-9.14,7.48-11.4,4.39-2.62,9.09-1.58,9.94,3.54,1.06,6.3-4.04,14.1-10.23,15.64Z"/>
              <g class="cls-60">
                <path class="cls-28" d="m126.3,14.99c.51-4.6,3.76-9.55,7.82-11.92.96-.56,1.91-.95,2.85-1.19-1.41,0-2.95.47-4.51,1.4-3.79,2.26-6.9,7.01-7.48,11.4-.52,3.94,1.01,7.1,4.04,7.84-2.08-1.47-3.08-4.24-2.72-7.52Z"/>
              </g>
              <path class="cls-18" d="m137.24,12.7l-.43-6.52-.81.41.07,1.39c.05,1.08-.74,2.38-1.79,2.97l-.06-3.47-.62.31.02,3.42c-.91.2-1.55-.35-1.53-1.33l.03-1.34-.68.35h0s-4.38,5.39-4.38,5.39l-.11,1.11,4.46-5.45v.28c-.05,1.41.89,2.21,2.23,1.85v2.03s.7-.27.7-.27l-.04-2.03c.74-.38,1.4-1.03,1.88-1.78l.15,3.03.91-.36Z"/>
            </g>
          </g>
          <g>
            <path class="cls-58" d="m75.67,28.74c-3.93,1.51-7.63,1.37-10.56-2.34-3.33-4.21-2.9-10.81,1.19-14.04,3.89-3.08,10.96-2.7,11.27,3.16,2.04,4.03,1.29,11.34-1.89,13.22Z"/>
            <g>
              <path class="cls-57" d="m77.38,27.35c-3.07,2.9-7.8,2.64-10.73-1.07-3.33-4.21-2.9-10.81,1.19-14.04,3.89-3.08,8.98-1.36,11.27,3.16,2.04,4.03,1.23,9.17-1.72,11.95Z"/>
              <path class="cls-14" d="m77.38,27.35c-3.07,2.9-7.8,2.64-10.73-1.07-3.33-4.21-2.9-10.81,1.19-14.04,3.89-3.08,8.98-1.36,11.27,3.16,2.04,4.03,1.23,9.17-1.72,11.95Z"/>
              <path class="cls-56" d="m76.83,26.48c-2.68,2.5-6.75,2.21-9.23-1.03-2.76-3.6-2.36-9.16,1.06-11.91,3.28-2.64,7.62-1.27,9.63,2.57,1.81,3.47,1.13,7.95-1.46,10.37Z"/>
              <path class="cls-13" d="m76.83,26.48c-2.68,2.5-6.75,2.21-9.23-1.03-2.76-3.6-2.36-9.16,1.06-11.91,3.28-2.64,7.62-1.27,9.63,2.57,1.81,3.47,1.13,7.95-1.46,10.37Z"/>
              <g class="cls-60">
                <path class="cls-33" d="m69.32,25.04c-2.61-3.56-2.16-9.01,1.15-11.71.7-.56,1.45-.93,2.22-1.13-1.39-.08-2.8.35-4.04,1.34-3.42,2.75-3.83,8.3-1.06,11.91,1.97,2.57,4.94,3.28,7.39,2.24-2.01.27-4.16-.59-5.67-2.64Z"/>
              </g>
              <path class="cls-18" d="m76.99,20.39l-2.48-4.33-.47.4.62,1.06c.45.77.36,1.79-.18,2.38l-1.53-2.52-.4.34,1.53,2.5c-.63.34-1.41.11-1.87-.6l-.67-1.05-.48.41h0s-1.39,5.27-1.39,5.27l.54.74,1.38-5.19.14.21c.66,1.02,1.81,1.3,2.68.75l.75,1.23.37-.33-.74-1.22c.38-.4.61-.94.67-1.52l1.07,1.84.43-.39Z"/>
            </g>
          </g>
          <g>
            <path class="cls-58" d="m62.38,73.18c-4.45,2.5-8.91,2.97-13.08-.98-4.72-4.47-5.35-12.46-1.01-17.06,4.13-4.37,12.69-5.14,14.07,1.84,3.14,4.49,3.51,13.38.02,16.19Z"/>
            <g>
              <path class="cls-57" d="m64.2,71.21c-3.18,4.01-8.9,4.52-13.06.57-4.72-4.47-5.35-12.46-1.01-17.06,4.13-4.37,10.54-3.19,14.07,1.84,3.14,4.48,3.06,10.79,0,14.64Z"/>
              <path class="cls-17" d="m64.2,71.21c-3.18,4.01-8.9,4.52-13.06.57-4.72-4.47-5.35-12.46-1.01-17.06,4.13-4.37,10.54-3.19,14.07,1.84,3.14,4.48,3.06,10.79,0,14.64Z"/>
              <path class="cls-56" d="m63.39,70.26c-2.78,3.47-7.72,3.82-11.26.36-3.94-3.85-4.41-10.58-.78-14.47,3.48-3.73,8.93-2.84,11.99,1.41,2.78,3.85,2.73,9.35.05,12.69Z"/>
              <path class="cls-16" d="m63.39,70.26c-2.78,3.47-7.72,3.82-11.26.36-3.94-3.85-4.41-10.58-.78-14.47,3.48-3.73,8.93-2.84,11.99,1.41,2.78,3.85,2.73,9.35.05,12.69Z"/>
              <g class="cls-60">
                <path class="cls-30" d="m54.13,69.84c-3.75-3.82-4.15-10.44-.64-14.24.74-.8,1.58-1.37,2.47-1.74-1.68.15-3.3.9-4.61,2.31-3.63,3.89-3.15,10.62.78,14.47,2.81,2.74,6.5,3.08,9.25,1.4-2.36.67-5.1,0-7.26-2.19Z"/>
              </g>
              <path class="cls-18" d="m62.52,62.94l-3.73-4.76-.49.56.93,1.17c.67.84.74,2.08.2,2.89l-2.27-2.76-.42.47,2.27,2.73c-.69.52-1.67.38-2.34-.4l-.98-1.14-.51.58h.01s-.75,6.56-.75,6.56l.77.8.76-6.46.2.23c.97,1.11,2.39,1.25,3.35.43l1.11,1.34.38-.46-1.09-1.33c.39-.54.56-1.23.54-1.94l1.6,2.02.45-.54Z"/>
            </g>
          </g>
        </g>
        <g>
          <g>
            <path class="cls-55" d="m180.25,38.7c-5.15-3.35-17.31-2.32-23.52-1.92-15.4.99-30.69,2.81-46.19,3.09-8.85.16-26.86-4.88-33.77.16-.89.65-2.66,2.43,0,5.04l34.63,32.31c.23.24.57.43.96.55.68.21,8.42,3.49,19.56,3.49,5.93,0,8.96-.93,13.64-3.75.18-.11.33-.23.45-.37l34.63-36.82c.5-.58.34-1.31-.38-1.78Z"/>
            <g class="cls-60">
              <path class="cls-44" d="m180.25,38.7c-1.94-1.27-4.89-1.91-8.13-2.19.16.32.14.67-.13.98l-26.42,30.76c-.1.12-.23.22-.38.31-3.91,2.35-8.95,3.13-13.91,3.13-25.07,0-34.11-18.61-46.06-30.37-1.55-1.52-1.29-2.71-.74-3.47-3.12.18-5.83.81-7.71,2.18-.89.65-2.66,2.43,0,5.04l34.63,32.31c.23.24.57.43.96.55.68.21,8.42,3.49,19.56,3.49,5.93,0,8.96-.93,13.64-3.75.18-.11.33-.23.45-.37l34.63-36.82c.5-.58.34-1.31-.38-1.78Z"/>
            </g>
            <g class="cls-60">
              <path class="cls-40" d="m180.25,38.7c-1.94-1.27-4.89-1.91-8.13-2.19.16.32.14.67-.13.98l-26.42,30.76c-.1.12-.23.22-.38.31-3.91,2.35-8.95,3.13-13.91,3.13-25.07,0-34.11-18.61-46.06-30.37-1.55-1.52-1.29-2.71-.74-3.47-3.12.18-5.83.81-7.71,2.18-.89.65-2.66,2.43,0,5.04l34.63,32.31c.23.24.57.43.96.55.68.21,8.42,3.49,19.56,3.49,5.93,0,8.96-.93,13.64-3.75.18-.11.33-.23.45-.37l34.63-36.82c.5-.58.34-1.31-.38-1.78Z"/>
            </g>
          </g>
          <path class="cls-19" d="m212.1,197.66c0,46.51-37.7,69.16-84.21,69.16s-84.21-22.66-84.21-69.16,37.7-124.84,84.21-124.84,84.21,78.33,84.21,124.84Z"/>
          <g class="cls-61">
            <path class="cls-21" d="m127.13,75.83c46.51,0,84.21,78.33,84.21,124.84,0,6.19-.67,12.06-1.94,17.59,1.76-6.4,2.69-13.28,2.69-20.6,0-46.51-37.7-124.84-84.21-124.84-37.82,0-69.82,51.81-80.46,96.17,11.33-43.66,42.73-93.16,79.7-93.16Z"/>
          </g>
          <path class="cls-23" d="m194.63,150.49c3.72,27.09-15.95,46.81-43.04,50.52-27.09,3.72-51.34-9.97-55.06-37.06-3.72-27.09,11.98-75.73,39.07-79.45,27.09-3.72,55.31,38.89,59.03,65.99Z"/>
          <g class="cls-60">
            <path class="cls-41" d="m142.96,254.54c-41.12,0-74.46-25.51-74.46-66.89s32.86-110.03,73.57-111.04c-4.64-1.63-9.41-2.52-14.29-2.52-45.62,0-82.6,77.24-82.6,123.1s36.98,68.12,82.6,68.12c34.31,0,63.73-9.97,76.21-37.41-13.46,17-35.78,26.62-61.03,26.62Z"/>
          </g>
          <path class="cls-15" d="m155.7,138.26h-47.79v6.23h11.23c8.33,0,15.21,6.29,16.16,14.37h-27.38v5.19h27.17c-1.53,7.4-8.09,12.99-15.94,12.99h-11.23v6.23h.12l28.37,40.35h8.77l-28.37-40.35h2.33c11.3,0,20.67-8.36,22.27-19.22h14.3v-5.19h-14.14c-.47-5.63-3.03-10.68-6.9-14.37h21.04v-6.23Z"/>
          <g>
            <path class="cls-55" d="m161.49,30.34c-3.31-4.01-11.13-2.78-15.13-2.3-9.9,1.19-19.74,3.36-29.71,3.7-5.7.19-17.28-5.83-21.72.19-.57.77-1.71,2.91,0,6.03l20.34,38.64c.15.29.36.52.62.66.44.25,7.35,1.92,14.52,1.92,3.81,0,7.7,1.14,10.71-2.22.12-.13.21-.28.29-.44l20.34-44.03c.32-.7.22-1.57-.25-2.13Z"/>
            <path class="cls-55" d="m103.84,32.35c-.18.34-.32.76-.4,1.28-.93,5.54,3.08,12.27,7.45,13.74,1.14.38,3.51.8,4.57-.05,1.27-1.02-.33-5.85-.92-7.35-2.01-5.05-6.07-7.84-10.7-7.62Z"/>
            <path class="cls-22" d="m113.8,43.06c-6.87,9.33-12.47-14.49-4.64-11.22,2.44,1.02,6.94,7.15,5.04,10.6-.12.22-.25.43-.39.62Z"/>
            <path class="cls-48" d="m124.72,43.56c.05-1.32.13-2.25.24-2.48,2.07-4.35,10.25-3.02,13.73-4.53,18.32-7.94-1.18,27.02-13.36,22.52-.61-.22-.79-10.62-.61-15.51Z"/>
            <g class="cls-60">
              <path class="cls-43" d="m161.49,30.34c-1.25-1.51-3.14-2.28-5.23-2.62.1.38.09.81-.08,1.18l-16.99,36.78c-.06.14-.15.26-.24.37-2.52,2.81-5.76,3.74-8.95,3.74-16.13,0-21.94-22.26-29.63-36.31-1-1.82-.83-3.24-.48-4.15-2.01.22-3.75.96-4.96,2.6-.57.77-1.71,2.91,0,6.03l20.34,38.64c.15.29.36.51.62.66.44.25,7.35,1.92,14.52,1.92,3.81,0,7.7,1.14,10.71-2.22.12-.13.21-.28.29-.44l20.34-44.03c.32-.7.22-1.57-.25-2.13Z"/>
            </g>
            <g class="cls-61">
              <path class="cls-51" d="m146.73,30.4c-4.69,1.79-9.49,3.03-14.34,4.1-1.22.25-2.43.51-3.66.73l-3.69.59c-1.24.19-2.48.33-3.75.44-.64.06-1.28.09-1.94.1-.34,0-.67,0-1.03-.01-.38-.03-.72-.04-1.3-.2-.13-.03-.45-.18-.42-.17-.04-.02-.07-.03-.06-.03.02,0,.03.03.34.03.14,0,.44-.06.72-.28.13-.09.25-.24.32-.35.06-.09.12-.24.14-.3.08-.33.04-.33.05-.36,0,0,0,.02,0,.06.01.08.04.21.07.34.13.53.32,1.14.49,1.73.35,1.19.69,2.4.99,3.62.58,2.44,1.08,4.9,1.46,7.36.75,4.94,1.14,9.9,1.15,14.87-1.03-4.86-2.02-9.69-3.24-14.44-.61-2.37-1.24-4.73-2-7.05-.37-1.16-.74-2.32-1.14-3.48-.2-.59-.4-1.15-.6-1.82-.05-.17-.1-.34-.15-.56-.02-.11-.05-.23-.06-.4,0-.19-.05-.35.08-.82.03-.1.11-.28.19-.4.09-.15.25-.32.4-.44.34-.26.72-.33.94-.34.47-.01.63.07.8.11.16.05.27.1.37.14.18.08,0-.01.01,0l.54.02c.25,0,.54,0,.82-.02.57-.03,1.16-.09,1.76-.15l3.61-.41,3.64-.48,3.66-.45c4.9-.58,9.81-1.14,14.82-1.27Z"/>
            </g>
          </g>
          <path class="cls-53" d="m155.7,138.26h-47.79v6.23h11.23c8.33,0,15.21,6.29,16.16,14.37h-27.38v5.19h27.17c-1.53,7.4-8.09,12.99-15.94,12.99h-11.23v6.23h.12l28.37,40.35h8.77l-28.37-40.35h2.33c11.3,0,20.67-8.36,22.27-19.22h14.3v-5.19h-14.14c-.47-5.63-3.03-10.68-6.9-14.37h21.04v-6.23Z"/>
          <g>
            <path class="cls-52" d="m55.67,89.66s-.08,0-.12,0c-7.33-.07-12.69-6.51-17.88-12.75-3.1-3.72-6.02-7.23-9.03-8.99-1.08-.63-1.44-2.01-.81-3.09.63-1.07,2.01-1.44,3.09-.81,3.69,2.16,6.86,5.97,10.22,10,4.53,5.44,9.22,11.07,14.46,11.12.03,0,.05,0,.08,0,4.86,0,8.57-4.04,12.51-8.31,3.08-3.35,6.26-6.8,10.25-8.46,10.48-4.35,21.79.9,30.88,5.12,1.13.52,1.64,1.88,1.12,3.01-.52,1.13-1.84,1.63-2.97,1.11l-.04-.02c-8.29-3.85-18.61-8.63-27.26-5.04-3.07,1.27-5.78,4.22-8.66,7.35-4.22,4.58-8.99,9.77-15.83,9.77Z"/>
            <g class="cls-60">
              <path class="cls-50" d="m108.21,75.35l-.04-.02c-8.29-3.85-18.61-8.63-27.26-5.04-3.07,1.27-5.78,4.22-8.66,7.35-4.22,4.58-8.99,9.77-15.83,9.77-.04,0-.08,0-.12,0-7.33-.07-12.69-6.51-17.88-12.75-3.1-3.72-6.02-7.23-9.03-8.99-.55-.32-.91-.84-1.05-1.42-.2.16-.37.36-.51.59-.63,1.08-.27,2.46.81,3.09,3.01,1.76,5.93,5.27,9.03,8.99,5.19,6.23,10.56,12.68,17.88,12.75.04,0,.08,0,.12,0,6.83,0,11.61-5.19,15.83-9.77,2.87-3.12,5.59-6.07,8.66-7.35,8.64-3.59,18.96,1.2,27.26,5.04l.04.02c1.13.53,2.45.02,2.97-1.11.22-.48.25-.99.13-1.46-.64.53-1.54.69-2.36.31Z"/>
            </g>
            <g>
              <g>
                <path class="cls-53" d="m104.59,73.04c13.98,1.63,34.02,1.5,47.96,0"/>
                <path class="cls-59" d="m128.16,77.23c-8.59,0-17.03-.4-23.91-1.2-1.65-.19-2.83-1.68-2.64-3.33.19-1.65,1.68-2.84,3.33-2.64,13.15,1.53,33.04,1.53,47.3,0,1.65-.18,3.13,1.02,3.31,2.67.18,1.65-1.02,3.13-2.67,3.31-7.43.8-16.15,1.2-24.72,1.2Z"/>
              </g>
              <g class="cls-60">
                <path class="cls-49" d="m130.42,74.22c-.52,0-1.03,0-1.54,0-8.59.02-17.21-.35-24.28-1.17h2.12c-.07,0-.14-.01-.21-.02-1.5-.17-2.6-1.42-2.65-2.89-1.18.3-2.1,1.29-2.25,2.56-.19,1.65.99,3.14,2.64,3.33,6.88.8,15.33,1.2,23.91,1.2s17.29-.4,24.72-1.2c1.58-.17,2.73-1.53,2.67-3.1-.14.03-.27.07-.41.09-7.43.8-16.15,1.2-24.72,1.2Z"/>
                <path class="cls-39" d="m128.88,74.21c-7.96-.04-15.73-.43-22.16-1.17h-2.12c7.07.82,15.69,1.19,24.28,1.17Z"/>
              </g>
            </g>
          </g>
          <g class="cls-60">
            <path class="cls-42" d="m54.83,150.94c-.11.01-.22.01-.33,0-1.24-.06-2.21-1.11-2.15-2.36.64-13.68,8.12-21.54,22.22-23.36,5.59-.72,9.51-2.05,11.81-6.45,1.64-3.14,1.85-6.79,2.08-10.66.21-3.61.43-7.35,1.85-10.92,4.19-10.54,15.84-14.99,25.2-18.57,1.16-.44,2.49.13,2.93,1.29.44,1.16-.12,2.46-1.28,2.9l-.04.02c-8.54,3.26-19.16,7.32-22.62,16.02-1.15,2.89-1.34,6.11-1.54,9.51-.24,4.17-.5,8.48-2.58,12.48-3.38,6.47-9.32,8.07-15.23,8.83-11.94,1.54-17.75,7.61-18.29,19.1-.05,1.13-.94,2.03-2.03,2.14Z"/>
          </g>
          <path class="cls-59" d="m45.47,143.31c-.11,0-.22,0-.32-.02-1.23-.18-2.09-1.32-1.91-2.55,1.95-13.56,10.15-20.66,24.36-21.12,5.63-.18,9.67-1.13,12.38-5.28,1.93-2.97,2.5-6.58,3.09-10.41.56-3.58,1.13-7.27,2.89-10.69,5.18-10.09,17.21-13.4,26.87-16.06,1.2-.33,2.47.37,2.8,1.57.33,1.2-.35,2.44-1.55,2.77h-.04c-8.81,2.44-19.78,5.46-24.05,13.79-1.42,2.77-1.92,5.95-2.44,9.32-.64,4.13-1.31,8.4-3.77,12.17-3.99,6.12-10.05,7.14-16.01,7.33-12.03.39-18.4,5.87-20.04,17.25-.16,1.12-1.13,1.93-2.23,1.93Z"/>
          <g class="cls-60">
            <path class="cls-38" d="m115.62,78.75c-.29-1.04-1.27-1.7-2.31-1.65.02.05.04.09.05.14.33,1.2-.35,2.44-1.55,2.77h-.04c-8.81,2.44-19.78,5.46-24.05,13.79-1.42,2.77-1.92,5.95-2.44,9.32-.64,4.13-1.31,8.4-3.77,12.18-3.99,6.12-10.05,7.14-16.01,7.33-12.03.39-18.4,5.87-20.04,17.25-.15,1.08-1.05,1.86-2.1,1.92.27.77.94,1.37,1.8,1.49.11.02.22.02.32.02,1.1,0,2.07-.81,2.23-1.93,1.64-11.38,8.01-16.87,20.04-17.25,5.96-.19,12.02-1.21,16.01-7.33,2.46-3.78,3.13-8.05,3.77-12.17.53-3.37,1.02-6.55,2.44-9.32,4.28-8.33,15.24-11.35,24.05-13.77h.04c1.2-.34,1.88-1.58,1.55-2.78Z"/>
          </g>
          <g>
            <g>
              <path class="cls-53" d="m104.59,78.31c13.98,1.63,34.02,1.5,47.96,0"/>
              <path class="cls-59" d="m128.16,82.5c-8.59,0-17.03-.4-23.91-1.2-1.65-.19-2.83-1.68-2.64-3.33.19-1.65,1.68-2.84,3.33-2.64,13.15,1.53,33.04,1.53,47.3,0,1.65-.18,3.13,1.02,3.31,2.67.18,1.65-1.02,3.13-2.67,3.31-7.43.8-16.15,1.2-24.72,1.2Z"/>
            </g>
            <g class="cls-60">
              <path class="cls-36" d="m130.42,79.49c-.52,0-1.03,0-1.54,0-8.59.02-17.21-.35-24.28-1.17h2.12c-.07,0-.14-.01-.21-.02-1.5-.17-2.6-1.42-2.65-2.89-1.18.3-2.1,1.29-2.25,2.56-.19,1.65.99,3.14,2.64,3.33,6.88.8,15.33,1.2,23.91,1.2s17.29-.4,24.72-1.2c1.58-.17,2.73-1.53,2.67-3.1-.14.03-.27.07-.41.09-7.43.8-16.15,1.2-24.72,1.2Z"/>
              <path class="cls-37" d="m128.88,79.48c-7.96-.04-15.73-.43-22.16-1.17h-2.12c7.07.82,15.69,1.19,24.28,1.17Z"/>
            </g>
          </g>
          <g>
            <g>
              <circle class="cls-54" cx="36.04" cy="70.27" r="6.02" transform="translate(-40.65 89.14) rotate(-76.67)"/>
              <path class="cls-53" d="m36.33,68.91c0,1.33-1.08,2.4-2.4,2.4s-2.4-1.08-2.4-2.4,1.08-2.4,2.4-2.4,2.4,1.08,2.4,2.4Z"/>
              <g class="cls-60">
                <path class="cls-54" d="m40.17,65.89c.25.66.39,1.37.39,2.12,0,3.33-2.7,6.02-6.02,6.02-1.6,0-3.05-.63-4.13-1.64.86,2.28,3.05,3.9,5.63,3.9,3.33,0,6.02-2.7,6.02-6.02,0-1.73-.73-3.28-1.9-4.38Z"/>
              </g>
            </g>
            <g>
              <path class="cls-52" d="m32.61,71.17c.78.04,1.5-.27,2.01-1.09.48-.76.68-1.69.67-2.6-1.4-1.36-2.84-2.55-4.38-3.45-1.08-.63-2.46-.27-3.09.81-.63,1.08-.27,2.46.81,3.09,1.33.78,2.65,1.91,3.97,3.25Z"/>
              <g class="cls-60">
                <path class="cls-34" d="m32.61,71.17c.75.04,1.44-.26,1.95-1-1.73-1.88-3.43-3.49-5.17-4.5-.55-.32-.91-.84-1.05-1.42-.2.16-.37.36-.51.59-.63,1.08-.27,2.46.81,3.09,1.33.78,2.65,1.91,3.97,3.25Z"/>
              </g>
            </g>
          </g>
          <g>
            <g>
              <path class="cls-54" d="m43.14,132.19c2.95-1.54,6.59-.4,8.13,2.55,1.54,2.95.4,6.59-2.55,8.13-2.95,1.54-6.59.4-8.13-2.55-1.54-2.95-.4-6.59,2.55-8.13Z"/>
              <path class="cls-53" d="m44.59,137.9c1.18-.61,2.63-.16,3.24,1.02s.16,2.63-1.02,3.24c-1.18.61-2.63.16-3.24-1.02-.61-1.18-.16-2.63,1.02-3.24Z"/>
              <g class="cls-60">
                <path class="cls-54" d="m40.14,135.9c.47-.53,1.04-.98,1.7-1.33,2.95-1.54,6.59-.4,8.13,2.55.74,1.42.85,2.99.45,4.42,1.62-1.82,2.05-4.51.85-6.8-1.54-2.95-5.18-4.09-8.13-2.55-1.53.8-2.57,2.17-3.01,3.71Z"/>
              </g>
            </g>
            <g>
              <path class="cls-52" d="m48.31,140.15c-.32-.71-.93-1.2-1.9-1.28-.9-.07-1.81.18-2.62.61-.56,1.88-.95,3.7-1.03,5.48-.06,1.25.9,2.3,2.14,2.36,1.24.06,2.3-.9,2.36-2.14.07-1.54.47-3.23,1.04-5.02Z"/>
              <g class="cls-60">
                <path class="cls-35" d="m48.31,140.15c-.31-.68-.89-1.16-1.79-1.26-.87,2.4-1.5,4.66-1.6,6.66-.03.64-.33,1.2-.77,1.59.24.1.49.17.76.18,1.24.06,2.3-.9,2.36-2.14.07-1.54.47-3.23,1.04-5.02Z"/>
              </g>
            </g>
          </g>
        </g>
        <g>
          <path class="cls-25" d="m27.23,215.41c-.97-1.29-1.69-2.72-2.1-4.25-.52-1.93-.52-3.89-.07-5.77.3-6.93,6.98-13.13,16.94-13.13s16.64,6.2,16.94,13.13c.46,1.88.45,3.84-.07,5.77-.67,2.52-2.19,4.77-4.27,6.57l-4.63,2.86c-2.41,1.03-2.41-2.26-5.25-2.26s-8.27,1.78-10.68.75h-.48l-6.32-3.67Z"/>
          <g>
            <path class="cls-58" d="m54.05,206.56c-1.73,6.47-9.01,10.8-16.56,10.8s-14.84-4.33-16.57-10.8c-2.18-8.17,4.98-16.57,16.57-16.57s18.74,8.39,16.56,16.57Z"/>
            <g>
              <path class="cls-57" d="m54.05,208.81c-1.73,6.47-9.01,10.8-16.56,10.8s-14.84-4.33-16.57-10.8c-2.18-8.17,4.98-16.57,16.57-16.57s18.74,8.39,16.56,16.57Z"/>
              <path class="cls-4" d="m54.05,208.81c-1.73,6.47-9.01,10.8-16.56,10.8s-14.84-4.33-16.57-10.8c-2.18-8.17,4.98-16.57,16.57-16.57s18.74,8.39,16.56,16.57Z"/>
              <path class="cls-56" d="m51.71,208.81c-1.29,5.64-7.57,9.51-14.22,9.51s-12.93-3.87-14.22-9.51c-1.58-6.89,4.63-13.71,14.22-13.71s15.8,6.82,14.22,13.71Z"/>
              <path class="cls-3" d="m51.71,208.81c-1.29,5.64-7.57,9.51-14.22,9.51s-12.93-3.87-14.22-9.51c-1.58-6.89,4.63-13.71,14.22-13.71s15.8,6.82,14.22,13.71Z"/>
              <g class="cls-60">
                <path class="cls-45" d="m38.84,216.52c-6.88,0-13.31-4.15-14.55-10.24-.3-1.48-.27-2.96.05-4.39-1.22,2.14-1.62,4.53-1.07,6.93,1.29,5.64,7.57,9.51,14.22,9.51,5.22,0,10.08-2.32,12.6-5.93-2.85,2.56-6.93,4.12-11.25,4.12Z"/>
              </g>
              <path class="cls-18" d="m42.68,202.57h-10.39l.09,1.16h2.4c1.78,0,3.24,1.13,3.42,2.52h-5.63l.07.87h5.51c-.32,1.2-1.61,2.07-3.15,2.07h-2.2l.07.95h.02l5.4,5.48h1.54l-5.25-5.48h.45c2.18,0,4.03-1.28,4.4-3.01h2.9l.07-.87h-2.91c-.07-.97-.58-1.86-1.4-2.52h4.5l.09-1.16Z"/>
            </g>
          </g>
        </g>
        <g>
          <path class="cls-24" d="m203.66,169.82c-5.39,1.13-8.01,7.59-8.01,13.75,0,9.14,6.34,16.9,15.75,16.9l-6.24-30.65"/>
          <g>
            <path class="cls-58" d="m232.22,185.2c-2.2,7.04-6.41,11.97-14.7,11.97-9.4,0-18-7.76-18-16.9s8.21-18,16.6-12.04c7.76,1.58,16.98,10.56,16.11,16.97Z"/>
            <g>
              <path class="cls-57" d="m232.17,181.33c.64,7.37-4.85,13.58-13.14,13.58-9.4,0-18-7.76-18-16.9s7.89-13.82,16.6-12.04c7.76,1.58,13.93,8.28,14.55,15.36Z"/>
              <path class="cls-11" d="m232.17,181.33c.64,7.37-4.85,13.58-13.14,13.58-9.4,0-18-7.76-18-16.9s7.89-13.82,16.6-12.04c7.76,1.58,13.93,8.28,14.55,15.36Z"/>
              <path class="cls-56" d="m230.38,181.14c.53,6.4-4.31,11.68-11.46,11.56-7.95-.12-15.14-6.72-15.2-14.41-.06-7.37,6.54-11.85,13.99-10.43,6.74,1.29,12.16,7.1,12.66,13.28Z"/>
              <path class="cls-12" d="m230.38,181.14c.53,6.4-4.31,11.68-11.46,11.56-7.95-.12-15.14-6.72-15.2-14.41-.06-7.37,6.54-11.85,13.99-10.43,6.74,1.29,12.16,7.1,12.66,13.28Z"/>
              <g class="cls-60">
                <path class="cls-46" d="m220.23,189.9c-7.73-.28-14.73-6.83-14.83-14.31-.02-1.57.3-3.01.86-4.29-1.61,1.82-2.57,4.23-2.55,7,.06,7.69,7.25,14.28,15.2,14.41,5.67.09,9.88-3.22,11.11-7.72-1.81,3.06-5.34,5.07-9.79,4.91Z"/>
              </g>
              <path class="cls-18" d="m222.18,174.32l-8.64-1.3.04,1.07,2.13.3c1.54.22,2.84,1.45,3.08,2.83l-5.13-.64.03.91,5.1.61c-.21,1.23-1.38,2.07-2.85,1.91l-2.16-.22.04,1.11h.02s5.72,7.63,5.72,7.63l1.61.07-5.63-7.53.45.04c2.12.2,3.76-1.06,3.94-2.87l2.5.3-.05-.86-2.47-.31c-.13-.95-.63-1.86-1.36-2.57l3.68.53-.06-1.01Z"/>
            </g>
          </g>
        </g>
      </g>
    </g>
  </g>
</svg>