<svg width="20" height="21" viewBox="0 0 20 21" fill="none" xmlns="http://www.w3.org/2000/svg">
<g id="papers 1">
<path id="Vector" d="M15.075 1.75H7.95621C6.79997 1.75 5.81246 2.49375 5.44995 3.52498H12.0437C14.2 3.52498 15.9562 5.28123 15.9562 7.43748V16.0687C16.9875 15.7062 17.7312 14.7188 17.7312 13.5625V4.40625C17.7312 2.94373 16.5375 1.75 15.075 1.75Z" fill="white"/>
<path id="Vector_2" d="M12.0462 4.77734H4.92645C3.46008 4.77734 2.26715 5.97058 2.26715 7.43665V16.5907C2.26715 18.0568 3.46008 19.25 4.92645 19.25H12.0462C13.5126 19.25 14.7055 18.0568 14.7055 16.5907V7.43665C14.7055 5.97058 13.5126 4.77734 12.0462 4.77734Z" fill="white"/>
</g>
</svg>
