<svg width="190" height="72" viewBox="0 0 190 72" fill="none" xmlns="http://www.w3.org/2000/svg">
<g id="Logo">
<path id="Vector" d="M172.728 1.66797V7.42517H180.221L158.327 29.3187L149.683 20.6748L132.396 37.9627L136.434 42.0008L149.683 28.7511L158.327 37.395L184.243 11.4795V18.972H190V1.66797H172.712H172.728Z" fill="#ED1C24"/>
<path id="Vector_2" d="M24.2738 34.6061C22.798 35.4818 21.0951 35.9035 19.1653 35.9035C17.0894 35.9035 15.2568 35.417 13.6351 34.4439C12.0296 33.4709 10.7646 32.0924 9.87265 30.3085C8.98069 28.5245 8.52661 26.4649 8.52661 24.1134C8.52661 21.7618 8.98069 19.6698 9.87265 17.9021C10.7808 16.1344 12.0296 14.7721 13.6351 13.7991C15.2568 12.8422 17.0894 12.3395 19.1653 12.3395C21.0951 12.3395 22.8142 12.7611 24.2738 13.6207C25.7495 14.464 26.901 15.7452 27.7119 17.4318H35.9179C34.734 13.8315 32.642 11.0097 29.6417 8.98248C26.6577 6.95529 23.171 5.93359 19.1977 5.93359C15.8082 5.93359 12.7431 6.69581 10.0024 8.25269C7.26164 9.79335 5.10472 11.9503 3.53163 14.7235C1.94232 17.4967 1.16388 20.6266 1.16388 24.1134C1.16388 27.6001 1.95853 30.7301 3.53163 33.4871C5.10472 36.2441 7.26164 38.3848 10.0024 39.9254C12.7269 41.4661 15.792 42.2445 19.1977 42.2445C23.2034 42.2445 26.6902 41.239 29.6579 39.2118C32.6257 37.1847 34.7178 34.3628 35.9017 30.7301H27.6956C26.8848 32.4329 25.7333 33.7141 24.2575 34.5737L24.2738 34.6061Z" fill="#ED1C24"/>
<path id="Vector_3" d="M69.1962 14.7545C67.5745 11.9976 65.3851 9.82443 62.6281 8.26755C59.8712 6.71067 56.8061 5.91602 53.4328 5.91602C50.0596 5.91602 47.0432 6.69445 44.27 8.26755C41.4806 9.82443 39.2912 11.9976 37.6532 14.7545C36.0153 17.5277 35.2044 20.6415 35.2044 24.0958C35.2044 27.5501 36.0153 30.7287 37.6532 33.4857C39.2912 36.2589 41.4806 38.432 44.27 39.9727C47.0594 41.5296 50.1083 42.3242 53.4328 42.3242C56.7574 42.3242 59.8225 41.5458 62.5957 39.9727C65.3851 38.4158 67.5745 36.2427 69.1962 33.4857C70.8018 30.7287 71.6126 27.5826 71.6126 24.0958C71.6126 20.609 70.8018 17.5277 69.1962 14.7545ZM62.9038 30.372C61.9795 32.1721 60.7145 33.5506 59.0765 34.5236C57.4386 35.4967 55.5573 35.9832 53.4328 35.9832C51.3084 35.9832 49.3947 35.4967 47.7567 34.5236C46.1025 33.5668 44.8214 32.1721 43.9132 30.372C42.9888 28.5718 42.5347 26.4798 42.5347 24.112C42.5347 21.7443 42.9888 19.6522 43.9132 17.8683C44.8376 16.0844 46.1025 14.7221 47.7567 13.7653C49.3947 12.8084 51.2921 12.3381 53.4328 12.3381C55.5736 12.3381 57.4548 12.8084 59.0765 13.7653C60.7145 14.7221 61.9795 16.0844 62.9038 17.8683C63.8282 19.6522 64.2823 21.728 64.2823 24.112C64.2823 26.496 63.8282 28.5718 62.9038 30.372Z" fill="#ED1C24"/>
<path id="Vector_4" d="M95.0955 26.3338C94.0413 24.9715 92.7764 23.9498 91.333 23.2849C89.8735 22.6038 87.9922 21.9226 85.6731 21.2415C83.9703 20.7388 82.6567 20.2847 81.7323 19.8955C80.8079 19.5062 80.0133 19.0035 79.3808 18.371C78.7483 17.7385 78.4402 16.9601 78.4402 16.0033C78.4402 14.641 78.8618 13.6031 79.6889 12.8895C80.5322 12.176 81.635 11.8192 83.0297 11.8192C84.619 11.8192 85.9164 12.2246 86.8732 13.0193C87.8301 13.8139 88.349 14.8194 88.4139 16.0519H96.2631C96.0199 12.8571 94.7549 10.3758 92.4682 8.5919C90.1816 6.80798 87.1976 5.91602 83.5324 5.91602C81.0836 5.91602 78.9105 6.33767 77.013 7.16476C75.1156 7.99185 73.6236 9.19194 72.5694 10.7488C71.5153 12.3057 70.9963 14.1383 70.9963 16.2465C70.9963 18.4845 71.5153 20.2847 72.5532 21.6145C73.5911 22.9606 74.8237 23.966 76.267 24.631C77.7104 25.2959 79.5754 25.9608 81.8945 26.6419C83.5811 27.1122 84.9271 27.5501 85.884 27.9393C86.857 28.3285 87.6517 28.8637 88.3004 29.5448C88.9491 30.226 89.2734 31.0855 89.2734 32.1396C89.2734 33.437 88.8031 34.4749 87.8463 35.2696C86.8894 36.0643 85.592 36.4697 83.9217 36.4697C82.2513 36.4697 81.0187 36.048 80.0781 35.2047C79.1537 34.3614 78.6348 33.1938 78.5375 31.7342H70.899C70.9315 33.9073 71.5315 35.7886 72.683 37.3779C73.8344 38.9672 75.4075 40.1997 77.4022 41.043C79.3808 41.8863 81.6188 42.308 84.1 42.308C86.7111 42.308 88.9653 41.8214 90.8789 40.8646C92.7764 39.8916 94.2197 38.5942 95.209 36.9724C96.182 35.3345 96.6848 33.583 96.6848 31.6693C96.6848 29.4638 96.1496 27.6798 95.1117 26.3176L95.0955 26.3338Z" fill="#ED1C24"/>
<path id="Vector_5" d="M128.455 6.41992L117.151 32.8544L105.848 6.41992H97.7389V41.9686H104.875V18.8425L114.459 41.9686H119.859L129.379 18.8425V41.9686H136.515V6.41992H128.471H128.455Z" fill="#ED1C24"/>
<path id="Vector_6" d="M173.101 23.0753C172.988 20.594 172.436 18.2911 171.463 16.1829L165.658 21.9887C165.658 21.9887 165.658 22.0374 165.658 22.0536C165.739 22.7023 165.787 23.3996 165.787 24.097C165.787 26.481 165.333 28.5568 164.409 30.3569C163.501 32.1571 162.219 33.5356 160.598 34.5086C158.96 35.4817 157.079 35.9682 154.954 35.9682C152.83 35.9682 150.916 35.4817 149.278 34.5086C148.532 34.0707 147.786 33.3896 147.186 32.7733L142.45 37.6061C143.488 38.5792 144.51 39.2603 145.775 39.9739C148.564 41.5308 151.613 42.3254 154.938 42.3254C158.262 42.3254 161.327 41.547 164.101 39.9739C166.89 38.417 169.079 36.2439 170.701 33.4869C172.307 30.7299 173.118 27.5837 173.118 24.097C173.118 23.7564 173.118 23.4159 173.085 23.0915L173.101 23.0753ZM144.04 24.0808C144.04 21.6968 144.494 19.621 145.418 17.837C146.343 16.0531 147.608 14.6909 149.262 13.734C150.9 12.7772 152.797 12.3069 154.938 12.3069C157.079 12.3069 158.96 12.7772 160.581 13.734C162.219 14.6909 163.484 16.0531 164.393 17.837C164.879 18.7777 165.203 19.3615 165.431 20.4805L170.863 15.0801C170.766 14.8855 170.798 14.9179 170.685 14.7233C169.063 11.9663 166.874 9.79318 164.117 8.2363C161.36 6.67942 158.295 5.88477 154.922 5.88477C151.548 5.88477 148.532 6.6632 145.759 8.2363C142.969 9.79318 140.764 11.9663 139.142 14.7233C137.504 17.4965 136.693 20.6102 136.693 24.0646C136.693 26.3837 137.163 28.8974 137.893 30.9083L144.088 24.7943C144.088 24.6322 144.04 24.2267 144.04 24.0808Z" fill="#ED1C24"/>
<path id="Vector_7" d="M62.4011 48.5195V52.7847H56.6277V70.3482H51.3083V52.7847H45.5349V48.5195H62.4011Z" fill="#FFC90A"/>
<path id="Vector_8" d="M82.4134 70.332L77.8725 62.0935H76.5913V70.332H71.272V48.5195H80.1916C81.9106 48.5195 83.3702 48.8277 84.5865 49.4277C85.8028 50.0278 86.711 50.8548 87.311 51.8928C87.9111 52.9469 88.2192 54.0983 88.2192 55.3957C88.2192 56.8391 87.8138 58.1365 86.9867 59.2879C86.1758 60.4232 84.9595 61.234 83.3702 61.7043L88.3976 70.3482H82.3972L82.4134 70.332ZM76.6075 58.3311H79.8997C80.8727 58.3311 81.6025 58.0878 82.089 57.6175C82.5755 57.1472 82.8188 56.4661 82.8188 55.5903C82.8188 54.7146 82.5755 54.1146 82.089 53.628C81.6025 53.1577 80.8727 52.9145 79.8997 52.9145H76.6075V58.3149V58.3311Z" fill="#FFC90A"/>
<path id="Vector_9" d="M111.345 66.4723H103.204L101.907 70.332H96.3441L104.242 48.5195H110.388L118.286 70.332H112.659L111.361 66.4723H111.345ZM109.983 62.3692L107.275 54.3903L104.599 62.3692H109.967H109.983Z" fill="#FFC90A"/>
<path id="Vector_10" d="M141.088 49.8812C142.807 50.7894 144.137 52.0706 145.078 53.7247C146.018 55.3789 146.489 57.2764 146.489 59.4333C146.489 61.5902 146.018 63.4552 145.078 65.1256C144.137 66.7798 142.791 68.061 141.072 68.9854C139.337 69.8936 137.342 70.3476 135.055 70.3476H126.882V48.5352H135.055C137.358 48.5352 139.369 48.9892 141.088 49.8974V49.8812ZM139.418 64.0877C140.537 62.9849 141.088 61.4443 141.088 59.4333C141.088 57.4223 140.521 55.8654 139.418 54.7464C138.299 53.6274 136.742 53.0598 134.731 53.0598H132.217V65.7419H134.731C136.742 65.7419 138.299 65.1905 139.418 64.0877Z" fill="#FFC90A"/>
<path id="Vector_11" d="M161.003 52.7691V57.1802H168.123V61.2833H161.003V66.0674H169.047V70.3164H155.684V48.5039H169.047V52.7691H161.003Z" fill="#FFC90A"/>
</g>
</svg>
