<svg width="34" height="28" viewBox="0 0 34 28" fill="none" xmlns="http://www.w3.org/2000/svg">
<path d="M17.0102 24.5993C17.0102 25.1983 16.6642 25.7424 16.1226 25.9964C15.9132 26.0954 15.6888 26.1433 15.4659 26.1433C15.1129 26.1433 14.7631 26.022 14.4806 25.7877L6.03966 18.7932H1.54399C0.691416 18.7939 0 18.1021 0 17.2495V11.0981C0 10.2451 0.691416 9.55369 1.54399 9.55369H6.04003L14.481 2.55913C14.9422 2.17688 15.5817 2.09538 16.1229 2.35119C16.6642 2.60518 17.0106 3.14968 17.0106 3.74828L17.0102 24.5993ZM22.9439 22.1867C22.9063 22.1892 22.8701 22.1907 22.8328 22.1907C22.425 22.1907 22.0318 22.0295 21.7412 21.7386L21.5348 21.5314C20.9932 20.9909 20.9296 20.1347 21.3857 19.52C22.5419 17.9611 23.1522 16.113 23.1522 14.1743C23.1522 12.0891 22.4593 10.1333 21.1481 8.51803C20.6489 7.90409 20.695 7.01241 21.2545 6.45328L21.4606 6.24681C21.769 5.93837 22.1823 5.77027 22.6296 5.79695C23.0652 5.81887 23.472 6.02389 23.7483 6.36155C25.5671 8.5871 26.5278 11.2892 26.5278 14.1747C26.5278 16.8622 25.6782 19.4203 24.0702 21.5713C23.8016 21.9298 23.3909 22.1549 22.9439 22.1867ZM29.3275 26.9582C29.0483 27.2882 28.6444 27.4863 28.2121 27.5046C28.1909 27.5053 28.1694 27.506 28.1474 27.506C27.7385 27.506 27.346 27.3445 27.0555 27.054L26.8527 26.8512C26.2859 26.2847 26.2475 25.3788 26.7628 24.7656C29.2529 21.804 30.6248 18.0429 30.6248 14.1743C30.6248 10.1505 29.1561 6.27677 26.4902 3.26699C25.9497 2.65597 25.9771 1.73104 26.5523 1.15364L26.7547 0.950819C27.0551 0.648964 27.4454 0.482688 27.8931 0.49694C28.3181 0.509 28.7201 0.696837 29.0026 1.01477C32.225 4.64288 34 9.31689 34 14.1743C34.0007 18.848 32.3413 23.3882 29.3275 26.9582Z" fill="white"/>
</svg>
