<svg width="30" height="30" viewBox="0 0 30 30" fill="none" xmlns="http://www.w3.org/2000/svg">
<path d="M15.0018 30C23.2727 30 30.0015 23.2709 30.0015 14.9999C30.0015 6.72906 23.2727 0 15.0018 0C6.73094 0 0.00201416 6.72906 0.00201416 14.9999C0.00201416 23.2709 6.73094 30 15.0018 30ZM15.0018 2.05338C22.1405 2.05338 27.9481 7.86116 27.9482 14.9999C27.9482 22.1387 22.1406 27.9465 15.0018 27.9466C7.86317 27.9465 2.05553 22.1387 2.05553 14.9998C2.05553 7.86129 7.86317 2.05338 15.0018 2.05338Z" fill="white"/>
<path d="M12.9857 21.4247C13.3867 21.8255 14.0368 21.8254 14.4376 21.4247C14.8387 21.0236 14.8387 20.3736 14.4375 19.9725L10.4922 16.0274L21.9168 16.0264C22.4838 16.0262 22.9434 15.5667 22.9434 14.9994C22.9432 14.4324 22.4837 13.973 21.9167 13.973L10.4917 13.9741L14.4379 10.0282C14.8388 9.6272 14.8388 8.97696 14.4379 8.57614C14.2373 8.37573 13.9746 8.27539 13.7118 8.27539C13.4491 8.27539 13.1864 8.37573 12.9859 8.57601L7.2872 14.2745C7.0946 14.467 6.98645 14.7281 6.98645 15.0005C6.98659 15.2729 7.09473 15.5338 7.28734 15.7267L12.9857 21.4247Z" fill="white"/>
</svg>
