<svg width="31" height="31" viewBox="0 0 31 31" fill="none" xmlns="http://www.w3.org/2000/svg">
<mask id="mask0_1252_4" style="mask-type:luminance" maskUnits="userSpaceOnUse" x="0" y="0" width="31" height="31">
<path d="M0.5 0.5H30.5V30.5H0.5V0.5Z" fill="white"/>
</mask>
<g mask="url(#mask0_1252_4)">
<path d="M5.5 14.8754V19.8754C5.5 20.9129 6.3375 21.7504 7.375 21.7504C8.4125 21.7504 9.25 20.9129 9.25 19.8754V14.8754C9.25 13.8379 8.4125 13.0004 7.375 13.0004C6.3375 13.0004 5.5 13.8379 5.5 14.8754ZM13 14.8754V19.8754C13 20.9129 13.8375 21.7504 14.875 21.7504C15.9125 21.7504 16.75 20.9129 16.75 19.8754V14.8754C16.75 13.8379 15.9125 13.0004 14.875 13.0004C13.8375 13.0004 13 13.8379 13 14.8754ZM4.875 28.0004H24.875C25.9125 28.0004 26.75 27.1629 26.75 26.1254C26.75 25.0879 25.9125 24.2504 24.875 24.2504H4.875C3.8375 24.2504 3 25.0879 3 26.1254C3 27.1629 3.8375 28.0004 4.875 28.0004ZM20.5 14.8754V19.8754C20.5 20.9129 21.3375 21.7504 22.375 21.7504C23.4125 21.7504 24.25 20.9129 24.25 19.8754V14.8754C24.25 13.8379 23.4125 13.0004 22.375 13.0004C21.3375 13.0004 20.5 13.8379 20.5 14.8754ZM13.7125 2.36289L3.8375 7.56289C3.325 7.82539 3 8.36289 3 8.93789C3 9.80039 3.7 10.5004 4.5625 10.5004H25.2C26.05 10.5004 26.75 9.80039 26.75 8.93789C26.75 8.36289 26.425 7.82539 25.9125 7.56289L16.0375 2.36289C15.3125 1.97539 14.4375 1.97539 13.7125 2.36289Z" fill="#54D6FF"/>
</g>
</svg>
