<svg width="30" height="17" viewBox="0 0 30 17" fill="none" xmlns="http://www.w3.org/2000/svg">
<path d="M15 16.0489C7.28756 16.0489 1.17658 9.23847 0.920196 8.94852C0.693268 8.69184 0.693268 8.30632 0.920196 8.04964C1.17658 7.75969 7.28756 0.949219 15 0.949219C22.7124 0.949219 28.8234 7.75969 29.0798 8.04964C29.3067 8.30632 29.3067 8.69184 29.0798 8.94852C28.8234 9.23847 22.7124 16.0489 15 16.0489ZM2.36643 8.49864C3.85155 9.992 9.00299 14.6918 15 14.6918C21.0078 14.6918 26.1505 9.99362 27.6336 8.49952C26.1485 7.00616 20.997 2.30636 15 2.30636C8.99224 2.30636 3.84949 7.00454 2.36643 8.49864Z" fill="#1970AE"/>
<path d="M15 13.5165C12.233 13.5165 9.98198 11.2655 9.98198 8.49849C9.98198 5.73148 12.233 3.48047 15 3.48047C17.767 3.48047 20.018 5.73148 20.018 8.49849C20.018 11.2655 17.767 13.5165 15 13.5165ZM15 4.83761C12.9814 4.83761 11.3391 6.47986 11.3391 8.49849C11.3391 10.5171 12.9814 12.1594 15 12.1594C17.0186 12.1594 18.6609 10.5171 18.6609 8.49849C18.6609 6.47986 17.0186 4.83761 15 4.83761Z" fill="#1970AE"/>
</svg>
