<svg width="17" height="31" viewBox="0 0 17 31" fill="none" xmlns="http://www.w3.org/2000/svg">
<path d="M14.0713 0.5H2.92883C2.20806 0.500729 1.51701 0.787354 1.00732 1.29698C0.497619 1.80661 0.210905 2.49763 0.210083 3.2184V27.7816C0.210905 28.5024 0.497619 29.1934 1.00732 29.703C1.51701 30.2126 2.20806 30.4993 2.92883 30.5H14.0713C14.792 30.4992 15.4829 30.2125 15.9926 29.7029C16.5022 29.1933 16.7889 28.5023 16.7897 27.7816V3.2184C16.7889 2.49768 16.5022 1.80671 15.9926 1.29709C15.4829 0.787465 14.792 0.500806 14.0713 0.5ZM15.8503 27.7816C15.8498 28.2533 15.6621 28.7055 15.3286 29.039C14.9951 29.3725 14.5429 29.5601 14.0713 29.5607H2.92883C2.45717 29.5601 2.00498 29.3725 1.67147 29.039C1.33795 28.7055 1.15032 28.2533 1.14975 27.7816V3.2184C1.15032 2.74673 1.33795 2.29455 1.67147 1.96103C2.00498 1.62751 2.45717 1.43989 2.92883 1.43932H14.0713C14.5429 1.43989 14.9951 1.62751 15.3286 1.96103C15.6621 2.29455 15.8498 2.74673 15.8503 3.2184V27.7816Z" fill="#54D6FF"/>
<path d="M9.20106 27.5859H7.79891C7.67526 27.5873 7.55714 27.6374 7.47019 27.7253C7.38324 27.8133 7.33447 27.9319 7.33447 28.0556C7.33447 28.1793 7.38324 28.2979 7.47019 28.3859C7.55714 28.4738 7.67526 28.5239 7.79891 28.5253H9.20106C9.32471 28.5239 9.44283 28.4738 9.52978 28.3859C9.61674 28.2979 9.6655 28.1793 9.6655 28.0556C9.6655 27.9319 9.61674 27.8133 9.52978 27.7253C9.44283 27.6374 9.32471 27.5873 9.20106 27.5859Z" fill="#54D6FF"/>
<path d="M5.61239 3.66783H11.3875C11.5112 3.66645 11.6293 3.61636 11.7162 3.52843C11.8032 3.44051 11.8519 3.32183 11.8519 3.19817C11.8519 3.07451 11.8032 2.95584 11.7162 2.86791C11.6293 2.77999 11.5112 2.7299 11.3875 2.72852H5.61239C5.48874 2.7299 5.37062 2.77999 5.28367 2.86791C5.19672 2.95584 5.14795 3.07451 5.14795 3.19817C5.14795 3.32183 5.19672 3.44051 5.28367 3.52843C5.37062 3.61636 5.48874 3.66645 5.61239 3.66783Z" fill="#54D6FF"/>
<path d="M8.0962 12.5809C8.09601 12.4238 8.03351 12.2732 7.92242 12.1621C7.81132 12.051 7.66069 11.9885 7.50358 11.9883H5.52047C5.36335 11.9885 5.21272 12.0509 5.10162 12.162C4.99052 12.2731 4.92803 12.4238 4.92786 12.5809V14.5641C4.92804 14.7212 4.99054 14.8718 5.10164 14.9829C5.21274 15.094 5.36336 15.1565 5.52047 15.1566H7.50358C7.66068 15.1564 7.8113 15.0939 7.9224 14.9829C8.03349 14.8718 8.09599 14.7212 8.0962 14.5641V12.5809ZM7.15682 14.217H5.86723V12.9279H7.15682V14.217Z" fill="#54D6FF"/>
<path d="M12.0721 12.5809C12.072 12.4238 12.0095 12.2731 11.8984 12.162C11.7873 12.0509 11.6367 11.9885 11.4795 11.9883H9.49643C9.33931 11.9885 9.18868 12.051 9.07759 12.1621C8.96649 12.2732 8.90399 12.4238 8.90381 12.5809V14.5641C8.90401 14.7212 8.96651 14.8718 9.07761 14.9829C9.1887 15.0939 9.33932 15.1564 9.49643 15.1566H11.4795C11.6366 15.1565 11.7873 15.094 11.8984 14.9829C12.0095 14.8718 12.072 14.7212 12.0721 14.5641V12.5809ZM11.1328 14.217H9.84318V12.9279H11.1328V14.217Z" fill="#54D6FF"/>
<path d="M10.3976 18.0724H9.84318V17.8603C9.84318 17.7357 9.7937 17.6163 9.70562 17.5282C9.61753 17.4401 9.49806 17.3906 9.3735 17.3906C9.24893 17.3906 9.12946 17.4401 9.04138 17.5282C8.95329 17.6163 8.90381 17.7357 8.90381 17.8603V18.3873C8.90399 18.5529 8.96985 18.7116 9.08692 18.8287C9.204 18.9458 9.36273 19.0116 9.5283 19.0118H10.3976C10.5222 19.0118 10.6416 18.9623 10.7297 18.8742C10.8178 18.7861 10.8673 18.6667 10.8673 18.5421C10.8673 18.4175 10.8178 18.2981 10.7297 18.21C10.6416 18.1219 10.5222 18.0724 10.3976 18.0724Z" fill="#54D6FF"/>
<path d="M7.50358 15.8438H5.52047C5.36335 15.8439 5.21272 15.9064 5.10162 16.0175C4.99052 16.1286 4.92803 16.2792 4.92786 16.4364V18.4195C4.92804 18.5766 4.99054 18.7273 5.10164 18.8383C5.21274 18.9494 5.36336 19.0119 5.52047 19.0121H7.50358C7.66068 19.0119 7.8113 18.9494 7.9224 18.8383C8.03349 18.7272 8.09599 18.5766 8.0962 18.4195V16.4364C8.09601 16.2793 8.03351 16.1286 7.92242 16.0175C7.81132 15.9064 7.66069 15.8439 7.50358 15.8438ZM7.15682 18.0724H5.86723V16.7834H7.15682V18.0724Z" fill="#54D6FF"/>
<path d="M11.6025 17.8976C11.7271 17.8976 11.8466 17.8481 11.9346 17.76C12.0227 17.672 12.0722 17.5525 12.0722 17.4279V16.4683C12.072 16.3027 12.0062 16.144 11.8891 16.0269C11.772 15.9098 11.6133 15.844 11.4477 15.8438H9.37349C9.31138 15.8431 9.24974 15.8547 9.19215 15.878C9.13456 15.9013 9.08216 15.9358 9.03799 15.9795C8.99381 16.0231 8.95875 16.0752 8.93482 16.1325C8.91088 16.1898 8.89856 16.2513 8.89856 16.3134C8.89856 16.3756 8.91088 16.4371 8.93482 16.4944C8.95875 16.5517 8.99381 16.6037 9.03799 16.6474C9.08216 16.6911 9.13456 16.7256 9.19215 16.7489C9.24974 16.7722 9.31138 16.7838 9.37349 16.7831H11.1328V17.4276C11.1327 17.4893 11.1449 17.5504 11.1685 17.6075C11.1921 17.6645 11.2266 17.7163 11.2703 17.7599C11.3139 17.8036 11.3657 17.8382 11.4227 17.8618C11.4797 17.8854 11.5408 17.8976 11.6025 17.8976Z" fill="#54D6FF"/>
<path d="M5.39747 19.9096H4.09001V18.542C4.09001 18.4174 4.04053 18.2979 3.95244 18.2098C3.86436 18.1218 3.74489 18.0723 3.62032 18.0723C3.49575 18.0723 3.37629 18.1218 3.2882 18.2098C3.20012 18.2979 3.15063 18.4174 3.15063 18.542V20.2245C3.15074 20.3902 3.21656 20.549 3.33365 20.6661C3.45073 20.7832 3.60951 20.8491 3.77513 20.8493H5.39747C5.52204 20.8493 5.64151 20.7998 5.72959 20.7117C5.81767 20.6237 5.86716 20.5042 5.86716 20.3796C5.86716 20.2551 5.81767 20.1356 5.72959 20.0475C5.64151 19.9594 5.52204 19.9099 5.39747 19.9099V19.9096Z" fill="#54D6FF"/>
<path d="M13.3796 18.0723C13.2551 18.0723 13.1356 18.1218 13.0475 18.2098C12.9594 18.2979 12.91 18.4174 12.91 18.542V19.9096H11.6025C11.4779 19.9096 11.3585 19.9591 11.2704 20.0472C11.1823 20.1353 11.1328 20.2548 11.1328 20.3793C11.1328 20.5039 11.1823 20.6234 11.2704 20.7115C11.3585 20.7995 11.4779 20.849 11.6025 20.849H13.2248C13.3904 20.8489 13.5492 20.7831 13.6663 20.6661C13.7834 20.5491 13.8494 20.3904 13.8496 20.2248V18.5422C13.8497 18.4805 13.8375 18.4194 13.8139 18.3624C13.7903 18.3053 13.7557 18.2535 13.712 18.2099C13.6684 18.1662 13.6166 18.1316 13.5595 18.108C13.5025 18.0844 13.4414 18.0722 13.3796 18.0723Z" fill="#54D6FF"/>
<path d="M13.2248 10.1504H11.6025C11.5404 10.1497 11.4787 10.1614 11.4212 10.1847C11.3636 10.2079 11.3112 10.2424 11.267 10.2861C11.2228 10.3298 11.1878 10.3818 11.1638 10.4391C11.1399 10.4965 11.1276 10.558 11.1276 10.6201C11.1276 10.6822 11.1399 10.7437 11.1638 10.801C11.1878 10.8584 11.2228 10.9104 11.267 10.954C11.3112 10.9977 11.3636 11.0322 11.4212 11.0555C11.4787 11.0788 11.5404 11.0904 11.6025 11.0897H12.91V12.4575C12.91 12.5821 12.9594 12.7015 13.0475 12.7896C13.1356 12.8777 13.2551 12.9272 13.3796 12.9272C13.5042 12.9272 13.6237 12.8777 13.7118 12.7896C13.7998 12.7015 13.8493 12.5821 13.8493 12.4575V10.7749C13.8491 10.6093 13.7833 10.4506 13.6662 10.3335C13.5491 10.2165 13.3904 10.1506 13.2248 10.1504Z" fill="#54D6FF"/>
<path d="M3.62032 12.9275C3.74489 12.9275 3.86436 12.878 3.95244 12.7899C4.04053 12.7018 4.09001 12.5824 4.09001 12.4578V11.0897H5.39747C5.45959 11.0904 5.52123 11.0788 5.57882 11.0555C5.63641 11.0322 5.6888 10.9977 5.73298 10.954C5.77715 10.9104 5.81221 10.8584 5.83615 10.801C5.86008 10.7437 5.8724 10.6822 5.8724 10.6201C5.8724 10.558 5.86008 10.4965 5.83615 10.4391C5.81221 10.3818 5.77715 10.3298 5.73298 10.2861C5.6888 10.2424 5.63641 10.2079 5.57882 10.1847C5.52123 10.1614 5.45959 10.1497 5.39747 10.1504H3.77513C3.60956 10.1506 3.45082 10.2165 3.33375 10.3335C3.21668 10.4506 3.15082 10.6093 3.15063 10.7749V12.4575C3.1506 12.5192 3.16273 12.5803 3.18632 12.6373C3.20991 12.6943 3.2445 12.7461 3.28812 12.7898C3.33173 12.8334 3.38352 12.868 3.44052 12.8917C3.49752 12.9153 3.55862 12.9275 3.62032 12.9275Z" fill="#54D6FF"/>
</svg>
