<svg width="27" height="27" viewBox="0 0 27 27" fill="none" xmlns="http://www.w3.org/2000/svg">
<g clip-path="url(#clip0_963_18505)">
<path d="M2.02344 2.02344H6.59375V0.5H0.5V6.59375H2.02344V2.02344Z" fill="white"/>
<path d="M20.4062 0.5V2.02344H24.9766V6.59375H26.5V0.5H20.4062Z" fill="white"/>
<path d="M24.9766 24.9766H20.4062V26.5H26.5V20.4062H24.9766V24.9766Z" fill="white"/>
<path d="M2.02344 20.4062H0.5V26.5H6.59375V24.9766H2.02344V20.4062Z" fill="white"/>
<path d="M3.59766 3.54688V11.1641H11.2148V6.59375H12.7383V5.07031H11.2148V3.54688H3.59766ZM9.69141 9.64062H5.12109V5.07031H9.69141V9.64062Z" fill="white"/>
<path d="M23.4023 23.3516V15.7344H20.3555V14.2109H18.832V15.7344H14.2617V17.2578H15.7852V18.7812H14.2617V20.3047H15.7852V23.3516H23.4023ZM17.3086 17.2578H21.8789V21.8281H17.3086V17.2578Z" fill="white"/>
<path d="M8.16797 14.2109H11.2148V12.6875H3.59766V14.2109H6.64453V15.7344H5.12109V17.2578H6.64453V20.3047H5.12109V21.8281H6.64453V23.3516H14.2617V21.8281H12.7383V20.3047H11.2148V21.8281H8.16797V20.3047H9.69141V18.7812H8.16797V14.2109Z" fill="white"/>
<path d="M6.64453 6.59375H8.16797V8.11719H6.64453V6.59375Z" fill="white"/>
<path d="M18.832 6.59375H20.3555V8.11719H18.832V6.59375Z" fill="white"/>
<path d="M20.3555 11.1641H23.4023V3.54688H15.7852V11.1641H18.832V12.6875H20.3555V11.1641ZM17.3086 9.64062V5.07031H21.8789V9.64062H17.3086Z" fill="white"/>
<path d="M23.4023 14.2109V12.6875C23.0338 12.6875 20.7266 12.6875 20.3555 12.6875V14.2109H23.4023Z" fill="white"/>
<path d="M18.832 18.7812H20.3555V20.3047H18.832V18.7812Z" fill="white"/>
<path d="M12.7383 17.2578H14.2617V18.7812H12.7383V17.2578Z" fill="white"/>
<path d="M9.69141 18.7812H11.2148C11.2148 18.4127 11.2148 16.1055 11.2148 15.7344H9.69141V18.7812Z" fill="white"/>
<path d="M11.2148 14.2109H12.7383V15.7344H11.2148V14.2109Z" fill="white"/>
<path d="M5.12109 17.2578H3.59766V20.3047H5.12109C5.12109 19.9361 5.12109 17.629 5.12109 17.2578Z" fill="white"/>
<path d="M3.59766 21.8281H5.12109V23.3516H3.59766V21.8281Z" fill="white"/>
<path d="M12.7383 3.54688H14.2617V5.07031H12.7383V3.54688Z" fill="white"/>
<path d="M12.7383 9.64062H14.2617C14.2617 9.27206 14.2617 6.96489 14.2617 6.59375H12.7383V9.64062Z" fill="white"/>
<path d="M14.2617 12.6875V11.1641H12.7383V14.2109H18.832V12.6875H14.2617Z" fill="white"/>
</g>
<defs>
<clipPath id="clip0_963_18505">
<rect width="26" height="26" fill="white" transform="translate(0.5 0.5)"/>
</clipPath>
</defs>
</svg>
