<svg width="80" height="80" viewBox="0 0 80 80" fill="none" xmlns="http://www.w3.org/2000/svg">
<g id="profile 2" clip-path="url(#clip0_1005_5281)">
<g id="Group">
<g id="Group_2">
<g id="Group_3">
<path id="Vector" d="M40.0039 75.5211L55.8522 71.5189C64.8983 64.0073 70.6602 52.6773 70.6602 40.0003C70.6602 20.4466 56.9553 4.09391 38.627 0.0234375C17.1714 0.747031 0 18.3683 0 40.0002C0 51.1114 4.53125 61.1636 11.8456 68.412L40.0039 75.5211Z" fill="#FBB040"/>
</g>
<g id="Group_4">
<path id="Vector_2" d="M69.8303 40C69.8303 53.1117 63.5208 64.7486 53.7733 72.0436L68.1531 68.4122C75.468 61.1638 80 51.1116 80 40C80 17.9086 62.0914 0 40 0C38.2775 0 36.5803 0.109062 34.9152 0.320312C54.6056 2.81844 69.8303 19.6313 69.8303 40Z" fill="#FBB040"/>
</g>
<g id="Group_5">
<g id="Group_6">
<g id="Group_7">
<path id="Vector_3" d="M49.9408 15.1483C49.9408 13.1053 48.2847 11.4492 46.2417 11.4492H33.4945C28.7928 11.4492 24.9813 15.2608 24.9813 19.9625V29.4145H55.0139V20.0966C55.0139 18.0536 53.3578 16.3975 51.3149 16.3975H51.1902C50.5002 16.3975 49.9408 15.8383 49.9408 15.1483Z" fill="#365E7D"/>
<path id="Vector_4" d="M51.3148 16.3977H51.1901C50.5001 16.3977 49.9408 15.8383 49.9408 15.1483C49.9408 13.1053 48.2847 11.4492 46.2417 11.4492H44.8441V29.4145H55.0137V20.0966C55.0139 18.0539 53.3576 16.3977 51.3148 16.3977Z" fill="#2B4D66"/>
<path id="Vector_5" d="M66.4133 58.1806C65.4353 57.2147 64.2256 56.4677 62.8524 56.033L51.9319 52.5755L40.0025 52.1562L28.0681 52.5755L17.1477 56.033C13.4533 57.2027 10.9425 60.6311 10.9425 64.5062V67.4897C17.9408 74.8847 27.7317 79.6097 38.6273 79.9772C50.8348 77.2658 60.9913 69.1059 66.4133 58.1806Z" fill="#4A80AA"/>
<path id="Vector_6" d="M69.0575 67.4894V64.5059C69.0575 61.7659 67.8013 59.2505 65.7599 57.5977C59.9613 69.4142 48.5064 77.952 34.9246 79.6784C36.5639 79.8861 38.2336 79.9969 39.9286 79.9998C41.5572 79.9973 43.1642 79.903 44.7449 79.7214C54.281 78.5945 62.7894 74.113 69.0575 67.4894Z" fill="#407093"/>
<path id="Vector_7" d="M40.9056 79.4016C43.3258 74.5968 49.6278 60.9537 47.8308 52.4315L40.0025 49.3848L32.1669 52.4316C30.3144 61.2168 37.0685 75.4437 39.3046 79.8207C39.8424 79.6916 40.3763 79.5518 40.9056 79.4016Z" fill="#E4F6FF"/>
<path id="Vector_8" d="M45.0308 75.5925L41.8567 63.1055H38.1431L34.9769 75.5584L38.8922 79.9173C39.8861 79.6897 40.8662 79.4258 41.8312 79.1272L45.0308 75.5925Z" fill="#D93131"/>
<path id="Vector_9" d="M38.9534 79.9847C39.2776 79.9931 39.6025 79.9989 39.9286 79.9995C40.3059 79.9989 40.682 79.9923 41.057 79.9819L43.0737 77.7539C41.4864 78.3108 39.8534 78.7705 38.1817 79.1256L38.9534 79.9847Z" fill="#D93131"/>
<g id="Group_8">
<g id="Group_9">
<g id="Group_10">
<g id="Group_11">
<g id="Group_12">
<g id="Group_13">
<g id="Group_14">
<g id="Group_15">
<path id="Vector_10" d="M46.6835 51.2779V44.2363H33.3116V51.2779C33.3116 54.9704 39.9975 59.0038 39.9975 59.0038C39.9975 59.0038 46.6835 54.9704 46.6835 51.2779Z" fill="#FFDDCE"/>
</g>
</g>
</g>
</g>
</g>
</g>
</g>
<path id="Vector_11" d="M55.0139 28.1748H52.4578C51.0363 28.1748 49.8839 27.0225 49.8839 25.6009V24.1923C49.8839 22.3406 48.0722 21.0314 46.3141 21.6125C42.2136 22.9678 37.7861 22.9681 33.6855 21.6134L33.6806 21.6118C31.9225 21.0311 30.1111 22.3403 30.1111 24.1918V25.6011C30.1111 27.0226 28.9588 28.175 27.5372 28.175H24.9813V32.384C24.9813 33.4595 25.8531 34.3315 26.9288 34.3315C27.2681 34.3315 27.5442 34.5973 27.5656 34.9361C27.9763 41.4467 33.3836 46.6008 39.9977 46.6008C46.6117 46.6008 52.0191 41.4467 52.4297 34.9361C52.4511 34.5975 52.7272 34.3315 53.0666 34.3315C54.142 34.3315 55.0141 33.4597 55.0141 32.384V28.1748H55.0139Z" fill="#FFDDCE"/>
<path id="Vector_12" d="M52.4578 28.1743C51.0363 28.1743 49.8839 27.022 49.8839 25.6004V24.1918C49.8839 22.3401 48.0722 21.0309 46.3141 21.612C45.8285 21.7724 45.338 21.9124 44.8442 22.0349V35.9368C44.7758 40.4599 42.2974 44.3965 38.6372 46.524C39.0842 46.5726 39.5377 46.5999 39.9975 46.5999C46.6116 46.5999 52.0189 41.4459 52.4296 34.9353C52.451 34.5967 52.7271 34.3307 53.0664 34.3307C54.1419 34.3307 55.0139 33.4589 55.0139 32.3832V28.1742L52.4578 28.1743Z" fill="#FFCBBE"/>
</g>
<g id="Group_16">
<path id="Vector_13" d="M33.3116 49.3848L28.0681 53.6452L33.5669 60.4441C34.2358 61.0954 35.2886 61.1354 36.0051 60.537L40.1403 57.0827L33.3116 49.3848Z" fill="#F4FBFF"/>
<path id="Vector_14" d="M46.6859 49.3848L40.1403 57.0827L44.0269 60.4059C44.7389 61.0146 45.7967 60.984 46.4724 60.3351L51.9317 53.6452L46.6859 49.3848Z" fill="#F4FBFF"/>
</g>
</g>
<path id="Vector_15" d="M33.3116 49.3848L25.6153 53.1659C25.0294 53.4537 24.7941 54.1665 25.0933 54.7466L26.6011 57.6701C26.9919 58.4276 26.8477 59.3507 26.2446 59.9529C25.9341 60.2627 25.5978 60.5984 25.3064 60.8893C24.7849 61.4099 24.5975 62.1791 24.8272 62.8795C26.6477 68.429 35.4092 76.9151 38.725 79.9854C38.948 79.9913 39.1714 79.9954 39.3953 79.9979C36.9908 75.3209 28.47 57.5518 33.3116 49.3848Z" fill="#365E7D"/>
<path id="Vector_16" d="M53.753 59.9527C53.1497 59.3505 53.0057 58.4274 53.3964 57.6699L54.9042 54.7465C55.2035 54.1663 54.9682 53.4535 54.3822 53.1657L46.686 49.3848C51.5263 57.5496 43.0114 75.3112 40.6042 79.9941C40.8305 79.9902 41.0563 79.9846 41.2816 79.9771C44.6042 76.8998 53.3516 68.424 55.1703 62.8796C55.4 62.1793 55.2127 61.4101 54.6911 60.8895C54.3997 60.5984 54.0635 60.2626 53.753 59.9527Z" fill="#365E7D"/>
<path id="Vector_17" d="M40.1403 57.082L36.0684 60.4827L38.1431 63.1047H41.8567L43.9315 60.328L40.1403 57.082Z" fill="#D93131"/>
</g>
</g>
</g>
</g>
</g>
<defs>
<clipPath id="clip0_1005_5281">
<rect width="80" height="80" fill="white"/>
</clipPath>
</defs>
</svg>
