<svg width="24" height="25" viewBox="0 0 24 25" fill="none" xmlns="http://www.w3.org/2000/svg">
<path d="M12.3281 22.625H2.89181C2.49154 22.625 2.25021 22.4016 2.14181 22.2685C1.95486 22.0385 1.88253 21.7393 1.94332 21.4473C2.91689 16.7708 7.04391 13.3558 11.8083 13.2451C11.8874 13.248 11.9669 13.25 12.0469 13.25C15.562 13.25 18.4219 10.3903 18.4219 6.875C18.4219 3.35974 15.562 0.5 12.0469 0.5C8.53164 0.5 5.6719 3.35974 5.6719 6.875C5.6719 8.9613 6.67934 10.8169 8.23336 11.9805C6.80971 12.4491 5.47359 13.178 4.30447 14.1397C2.16085 15.903 0.670372 18.3625 0.107689 21.0651C-0.0686418 21.912 0.142662 22.7817 0.687218 23.4515C1.22903 24.1179 2.03268 24.5 2.89181 24.5H12.3281C12.8458 24.5 13.2656 24.0803 13.2656 23.5625C13.2656 23.0447 12.8458 22.625 12.3281 22.625ZM7.5469 6.875C7.5469 4.39374 9.56545 2.375 12.0469 2.375C14.5282 2.375 16.5469 4.39374 16.5469 6.875C16.5469 9.32074 14.5857 11.317 12.1533 11.3737C12.1183 11.3697 12.083 11.3671 12.0469 11.3671C11.9737 11.3671 11.9006 11.3682 11.8275 11.3695C9.44771 11.2549 7.5469 9.28284 7.5469 6.875ZM24.0469 19.8116C24.0469 20.3294 23.627 20.7491 23.1094 20.7491H16.0781C15.5603 20.7491 15.1406 20.3294 15.1406 19.8116C15.1406 19.2939 15.5603 18.8741 16.0781 18.8741H23.1094C23.627 18.8741 24.0469 19.2939 24.0469 19.8116ZM16.0781 15.125H23.1094C23.627 15.125 24.0469 15.5447 24.0469 16.0625C24.0469 16.5803 23.627 17 23.1094 17H16.0781C15.5603 17 15.1406 16.5803 15.1406 16.0625C15.1406 15.5447 15.5603 15.125 16.0781 15.125ZM24.0469 23.5625C24.0469 24.0803 23.627 24.5 23.1094 24.5H16.0781C15.5603 24.5 15.1406 24.0803 15.1406 23.5625C15.1406 23.0447 15.5603 22.625 16.0781 22.625H23.1094C23.627 22.625 24.0469 23.0447 24.0469 23.5625Z" fill="#8BBCDF"/>
</svg>
