<svg width="28" height="25" viewBox="0 0 28 25" fill="none" xmlns="http://www.w3.org/2000/svg">
<path d="M27.2041 6.74914L22.0249 0.718047C21.9606 0.644086 21.8813 0.584775 21.7922 0.544125C21.7031 0.503475 21.6062 0.482433 21.5083 0.482422H6.49173C6.39378 0.482433 6.29697 0.503475 6.20786 0.544125C6.11874 0.584775 6.03939 0.644086 5.97517 0.718047L0.795949 6.74914C0.697716 6.87023 0.644104 7.02142 0.644104 7.17734C0.644104 7.33327 0.697716 7.48446 0.795949 7.60555L13.4834 24.2398C13.5478 24.3226 13.6303 24.3896 13.7245 24.4357C13.8188 24.4818 13.9223 24.5058 14.0272 24.5058C14.1321 24.5058 14.2356 24.4818 14.3299 24.4357C14.4241 24.3896 14.5066 24.3226 14.5709 24.2398L27.2584 7.61461C27.3516 7.4866 27.3971 7.33008 27.3872 7.17208C27.3773 7.01407 27.3125 6.86449 27.2041 6.74914ZM7.94173 7.87289L12.0561 20.1571L2.67189 7.87289H7.94173ZM18.6219 7.87289L14 21.6841L9.37814 7.87289H18.6219ZM9.98532 6.51352L14 2.17258L18.0147 6.51352H9.98532ZM20.0583 7.87289H25.3281L15.9439 20.1571L20.0583 7.87289ZM25.2058 6.51352H19.8634L15.5542 1.85086H21.1956L25.2058 6.51352ZM6.80439 1.85086H12.4458L8.13657 6.51352H2.79423L6.80439 1.85086Z" fill="#8BBCDF"/>
</svg>
