<svg width="18" height="15" viewBox="0 0 18 15" fill="none" xmlns="http://www.w3.org/2000/svg">
<path d="M1.49906 9.24106C1.68656 9.24106 1.87218 9.15731 1.99468 8.99731L2.26656 8.64418C2.67343 11.0579 4.36406 13.1229 6.76406 13.9561C7.50281 14.2123 8.26093 14.3354 9.00906 14.3354C11.2491 14.3354 13.4047 13.2304 14.6953 11.2848C14.8859 10.9973 14.8072 10.6092 14.5197 10.4186C14.2309 10.2267 13.8447 10.3067 13.6528 10.5942C12.2472 12.7154 9.58281 13.6129 7.17468 12.7754C5.17656 12.0817 3.78281 10.3423 3.48531 8.32231L4.02031 8.73418C4.29468 8.94356 4.68656 8.89356 4.89656 8.61981C5.10718 8.34606 5.05656 7.95418 4.78281 7.74356C4.78281 7.74356 3.30468 6.60543 3.30093 6.60293C2.99031 6.36356 2.54843 6.22918 2.26718 6.59606L1.00468 8.23543C0.794057 8.50918 0.844682 8.90106 1.11843 9.11168C1.23156 9.19856 1.36593 9.24106 1.49906 9.24106Z" fill="white"/>
<path d="M3.48031 4.58127C3.76719 4.7719 4.15531 4.69315 4.34719 4.40565C5.75281 2.28502 8.41969 1.38752 10.8253 2.2244C12.8234 2.91815 14.2172 4.65752 14.5147 6.67752L13.9797 6.26565C13.7053 6.05565 13.3134 6.10565 13.1034 6.38002C12.8928 6.65377 12.9434 7.04565 13.2172 7.25627C13.2172 7.25627 14.6953 8.39377 14.6991 8.3969C15.0153 8.64002 15.4472 8.77627 15.7328 8.40377L16.9953 6.7644C17.2059 6.49065 17.1553 6.09877 16.8816 5.88815C16.6078 5.67752 16.2153 5.72877 16.0053 6.00252L15.7334 6.35565C15.3266 3.9419 13.6359 1.8769 11.2359 1.04377C8.28594 0.0200207 5.02594 1.11815 3.30469 3.7144C3.11406 4.00252 3.19281 4.39002 3.48031 4.58127Z" fill="white"/>
</svg>
