<svg width="29" height="21" viewBox="0 0 29 21" fill="none" xmlns="http://www.w3.org/2000/svg">
<path d="M0.0693359 20.8279H23.4737V7.43164H0.0693359V20.8279ZM2.22246 11.2029C2.46932 11.2029 2.71375 11.1543 2.94181 11.0598C3.16987 10.9653 3.37708 10.8268 3.5516 10.6522C3.72613 10.4776 3.86455 10.2704 3.95896 10.0423C4.05337 9.8142 4.10192 9.56975 4.10184 9.32289H19.4406C19.4406 9.8215 19.6387 10.2997 19.9912 10.6523C20.3438 11.0048 20.822 11.2029 21.3206 11.2029V17.0516C20.822 17.0516 20.3438 17.2497 19.9912 17.6023C19.6387 17.9548 19.4406 18.433 19.4406 18.9316H4.10184C4.10192 18.6848 4.05337 18.4403 3.95896 18.2122C3.86455 17.9842 3.72613 17.7769 3.5516 17.6023C3.37708 17.4277 3.16987 17.2892 2.94181 17.1948C2.71375 17.1003 2.46932 17.0516 2.22246 17.0516V11.2029Z" fill="#54D6FF"/>
<path d="M11.7713 16.9505C13.3287 16.9505 14.5913 15.688 14.5913 14.1305C14.5913 12.5731 13.3287 11.3105 11.7713 11.3105C10.2139 11.3105 8.95129 12.5731 8.95129 14.1305C8.95129 15.688 10.2139 16.9505 11.7713 16.9505Z" fill="#54D6FF"/>
<path d="M1.29871 6.49336H24.4131V17.3059L26.3006 17.1059L24.9006 3.78711L1.29871 6.49336Z" fill="#54D6FF"/>
<path d="M26.2944 0.181641L2.56689 5.19039L25.7319 2.75664L26.8944 13.8066L28.8194 13.3441L26.2944 0.181641Z" fill="#54D6FF"/>
</svg>
