<svg width="22" height="22" viewBox="0 0 22 22" fill="none" xmlns="http://www.w3.org/2000/svg">
<g id="video-2 1" clip-path="url(#clip0_1014_89)">
<g id="Group">
<path id="Vector" d="M11.642 19.9402C11.6422 19.9402 11.6443 19.9396 11.6445 19.9396V4.4727C11.388 4.34155 8.61059 2.1272 4.54571 1.91219L3.86719 1.87695V17.3482L4.48087 17.3778C8.90321 17.5889 11.1164 19.6723 11.642 19.9402Z" fill="#58CC8C"/>
<path id="Vector_2" d="M12.9336 4.19901V19.6736C13.9009 19.5032 15.3372 19.3168 17.0595 19.3297C19.7659 19.3498 21.4775 19.8421 22 19.9265V4.46649C21.7879 4.44282 19.8589 3.87688 17.0595 3.84327C15.8382 3.82858 14.4395 3.92182 12.9336 4.19901ZM14.8672 15.3448V7.78042L20.5408 11.5626L14.8672 15.3448Z" fill="#58CC8C"/>
<path id="Vector_3" d="M16.1562 10.1895V12.9375L18.217 11.5635L16.1562 10.1895Z" fill="#58CC8C"/>
<path id="Vector_4" d="M8.16892 19.4458C7.20865 19.0639 5.95048 18.7394 4.41921 18.6665L2.57813 18.5778V4.08789C1.096 4.30819 0.303703 4.54628 0 4.61464V20.1237L0.800637 19.9229C3.19189 19.3258 5.72447 19.17 8.16892 19.4458Z" fill="#58CC8C"/>
</g>
</g>
<defs>
<clipPath id="clip0_1014_89">
<rect width="22" height="22" fill="white"/>
</clipPath>
</defs>
</svg>
