<svg width="28" height="23" viewBox="0 0 28 23" fill="none" xmlns="http://www.w3.org/2000/svg">
<path d="M27.4636 7.86519C27.1149 7.54335 26.659 7.32879 26.1494 7.32879C26.1762 7.32879 26.2031 7.32879 26.2299 7.32879V4.56634C26.2299 3.4399 25.7739 2.42075 25.023 1.66979C24.272 0.918829 23.2529 0.462891 22.1264 0.462891H4.10345C2.97701 0.462891 1.95785 0.918829 1.2069 1.66979C0.455939 2.42075 0 3.4399 0 4.56634V18.4322C0 19.5587 0.455939 20.5778 1.2069 21.3288C1.95785 22.0797 2.97701 22.5357 4.10345 22.5357H22.1264C23.2529 22.5357 24.272 22.0797 25.023 21.3288C25.7739 20.5778 26.2299 19.5587 26.2299 18.4322V15.643C26.2031 15.643 26.1762 15.643 26.1494 15.643C26.659 15.643 27.1149 15.4284 27.4636 15.1066C27.7854 14.7847 28 14.302 28 13.7924V9.17937C28 8.66979 27.7854 8.21385 27.4636 7.86519ZM24.7548 18.4054C24.7548 19.1296 24.4598 19.7732 23.977 20.256C23.4943 20.7388 22.8506 21.0338 22.1264 21.0338H4.10345C3.37931 21.0338 2.73563 20.7388 2.25287 20.256C1.77011 19.7732 1.4751 19.1296 1.4751 18.4054V4.56634C1.4751 3.8422 1.77011 3.19852 2.25287 2.71576C2.73563 2.23301 3.37931 1.93799 4.10345 1.93799H22.1264C22.8506 1.93799 23.4943 2.23301 23.977 2.71576C24.4598 3.19852 24.7548 3.8422 24.7548 4.56634V7.32879H16.4406C15.3142 7.32879 14.3218 7.78473 13.5709 8.50887C12.8467 9.23301 12.3908 10.2522 12.3908 11.3786V11.5663C12.3908 12.6928 12.8467 13.6851 13.5709 14.4361C14.295 15.1602 15.3142 15.6161 16.4406 15.6161H24.7548V18.4054ZM26.5249 13.7924C26.5249 13.8997 26.4713 14.007 26.4176 14.0606C26.3372 14.1411 26.2567 14.1679 26.1494 14.1679H16.4406C15.7433 14.1679 15.0728 13.8729 14.6169 13.4169C14.1609 12.961 13.8659 12.2905 13.8659 11.5932V11.4054C13.8659 10.6813 14.1609 10.0376 14.6169 9.58167C15.0996 9.09891 15.7433 8.83071 16.4406 8.83071H26.1494C26.2567 8.83071 26.364 8.88435 26.4176 8.93799C26.4981 9.01845 26.5249 9.09891 26.5249 9.20619V13.7924Z" fill="#8BBCDF"/>
<path d="M16.6284 10.2793C16.3065 10.2793 16.0115 10.4134 15.797 10.628C15.5824 10.8425 15.4483 11.1375 15.4483 11.4594C15.4483 11.7812 15.5824 12.0762 15.797 12.2908C16.0115 12.5054 16.3065 12.6394 16.6284 12.6394C16.9502 12.6394 17.2452 12.5054 17.4866 12.2908C17.7012 12.0762 17.8353 11.7812 17.8353 11.4326C17.8353 11.1107 17.7012 10.8157 17.4866 10.5743C17.2452 10.4134 16.9502 10.2793 16.6284 10.2793Z" fill="#8BBCDF"/>
</svg>
