<svg width="22" height="23" viewBox="0 0 22 23" fill="none" xmlns="http://www.w3.org/2000/svg">
<g id="customer-service 2" clip-path="url(#clip0_1024_1672)">
<g id="XMLID_2_">
<g id="Group">
<g id="Group_2">
<path id="Vector" d="M17.2095 14.433C16.3383 15.6297 14.927 16.409 13.3368 16.409H11.1057C10.3349 16.409 9.67856 15.9197 9.43002 15.2348C9.12323 15.1433 8.82238 15.0245 8.5288 14.8786C7.90709 14.5697 7.34258 14.1512 6.84564 13.6328C3.62223 14.341 1.20972 17.2132 1.20972 20.6493V21.0984C1.20972 21.7159 1.71024 22.2164 2.32765 22.2164H19.6725C20.2899 22.2164 20.7904 21.7159 20.7904 21.0984V20.6493C20.7904 17.9949 19.3506 15.6769 17.2095 14.433Z" fill="#58CC8C"/>
<path id="Vector_2" d="M5.65747 11.329C6.13794 11.329 6.55615 11.0627 6.77281 10.6697C6.77851 10.6853 6.7843 10.7007 6.79014 10.7162C6.79186 10.7208 6.79359 10.7255 6.79531 10.7301C7.30359 12.068 8.29258 13.1896 9.59669 13.6796C9.91209 13.1785 10.4698 12.8452 11.1057 12.8452H13.3369C13.5595 12.8452 13.7666 12.7824 13.9482 12.6809C14.2531 12.5103 14.5274 12.0777 14.669 11.8484C14.8956 11.4815 15.0712 11.0928 15.2269 10.669C15.3144 10.8279 15.4347 10.9662 15.5789 11.0745V11.6216C15.5789 12.8578 14.5731 13.8636 13.3369 13.8636H11.1057C10.6839 13.8636 10.3419 14.2055 10.3419 14.6273C10.3419 15.0492 10.6839 15.3911 11.1057 15.3911H13.3369C15.4154 15.3911 17.1064 13.7001 17.1064 11.6216V11.0745C17.4156 10.8422 17.6156 10.4725 17.6156 10.0561V7.75308V6.86995C17.6156 6.44495 17.4072 6.06891 17.0871 5.83769C16.8389 2.69674 14.2037 0.216797 11.0001 0.216797C7.79636 0.216797 5.1612 2.69674 4.913 5.83765C4.59295 6.06886 4.38452 6.44495 4.38452 6.8699V10.056C4.38452 10.761 4.95727 11.329 5.65747 11.329ZM11.0001 1.74436C13.3716 1.74436 15.3278 3.55675 15.5564 5.86923C15.4063 5.98731 15.2833 6.13821 15.1986 6.31137C14.4779 4.43112 12.8692 3.12203 11 3.12203C9.09056 3.12203 7.50757 4.47611 6.80421 6.30386C6.80325 6.30634 6.80234 6.30888 6.80139 6.31142C6.71667 6.13826 6.59372 5.98735 6.44363 5.86928C6.6724 3.55675 8.62847 1.74436 11.0001 1.74436Z" fill="#58CC8C"/>
</g>
</g>
</g>
</g>
<defs>
<clipPath id="clip0_1024_1672">
<rect width="22" height="22" fill="white" transform="translate(0 0.216797)"/>
</clipPath>
</defs>
</svg>
