<svg width="300" height="196" viewBox="0 0 300 196" fill="none" xmlns="http://www.w3.org/2000/svg">
<g clip-path="url(#clip0_1024_1578)">
<path d="M259.283 192.966H16.6111C16.6111 192.966 -13.6017 128.826 28.601 106.797C70.8065 84.769 82.3142 90.5999 81.3557 55.6146C80.3972 20.6292 111.143 17.5626 128.411 28.5768C145.675 39.591 150.898 49.1332 177.754 32.291C204.612 15.4459 242.978 18.0361 242.019 71.8121C241.061 125.585 254.967 123.643 265.999 132.067C277.03 140.488 290.937 169.645 259.283 192.969V192.966Z" fill="url(#paint0_linear_1024_1578)"/>
<path d="M221.691 190.27C221.691 192.906 219.634 195.043 217.095 195.043H175.075C172.536 195.043 170.479 192.906 170.479 190.27V109.536C170.479 106.9 172.536 104.764 175.075 104.764H217.095C219.634 104.764 221.691 106.9 221.691 109.536V190.27Z" fill="#2E3168"/>
<path d="M146.682 68.2099H143.433C140.161 68.2099 137.505 72.1238 137.505 76.9106C137.505 81.6974 140.158 85.5942 143.433 85.5942C143.998 85.5942 146.12 85.597 146.682 85.597C149.954 85.597 152.61 81.6888 152.61 76.902C152.61 72.1152 149.957 68.207 146.682 68.207V68.2099Z" fill="url(#paint1_linear_1024_1578)"/>
<path d="M165.924 95.0415L179.169 63.9929L164.198 51.461L136.182 46.5801C136.182 46.5801 126.143 70.2431 146.135 74.5279" fill="#2E3168"/>
<path d="M135.748 110.671C129.9 117.141 127.487 129.57 121.924 140.473C114.219 155.572 89.5288 175.338 76.532 178.382L81.3188 187.126C81.3188 187.126 119.879 183.049 134.345 163.551C145.353 148.714 156.245 111.381 148.617 105.507C146.839 104.138 140.834 105.042 135.748 110.668V110.671Z" fill="url(#paint2_linear_1024_1578)"/>
<path d="M76.5318 178.383L62.0373 181.224C62.0373 181.224 57.5614 182.123 57.0337 183.23C56.5059 184.336 54.238 190.872 54.238 190.872L85.1526 190.21" fill="url(#paint3_linear_1024_1578)"/>
<path d="M77.1824 185.848L75.2853 189.008L68.978 189.625" fill="white"/>
<path d="M77.1824 185.848L75.2853 189.008L68.978 189.625" stroke="black" stroke-miterlimit="10"/>
<path d="M200.592 192.229C200.592 192.229 183.1 136.878 188.26 115.084C188.26 115.084 186.54 105.045 170.479 104.76C170.479 104.76 166.631 104.669 165.136 104.349C161.177 103.505 145.019 105.074 145.019 105.074C145.019 105.074 136.792 114.342 132.861 127.045C125.861 149.658 129.21 192.377 129.21 192.377L142.823 192.326L164.96 192.24C165.014 192.811 165.031 193.091 165.031 193.091L200.592 192.229Z" fill="url(#paint4_linear_1024_1578)"/>
<path d="M163.955 83.3828L167.55 104.672C167.55 104.672 157.839 113.048 153.272 112.095C149.489 111.308 154.308 90.7855 154.308 90.7855L163.955 83.3828Z" fill="url(#paint5_linear_1024_1578)"/>
<g style="mix-blend-mode:multiply">
<path d="M152.642 100.059C152.642 100.059 163.311 101.149 164.957 86.6344L166.742 85.1339L159.163 84.7773L153.363 93.0901L152.639 100.062L152.642 100.059Z" fill="#CCCBCB"/>
</g>
<path d="M145.079 71.0477C145.079 71.0477 140.734 94.9618 150.645 97.3409C160.558 99.7201 163.727 87.4278 163.727 87.4278C163.727 87.4278 171.906 88.4177 170.865 77.9141C170.228 71.4927 163.727 73.5524 163.727 73.5524L163.43 66.7145C163.43 66.7145 157.16 63.4567 153.015 67.7614C148.87 72.0661 145.079 71.0506 145.079 71.0506V71.0477Z" fill="url(#paint6_linear_1024_1578)"/>
<path d="M158.378 87.1875L147.512 87.3045C147.512 87.3045 148.682 92.2111 152.887 92.2111" fill="white"/>
<path d="M167.903 70.5878C167.903 70.5878 176.045 52.8185 151.583 49.4066C151.583 49.4066 153.409 48.103 155.446 48.2684C157.483 48.4339 177.931 48.5052 171.364 70.3511" fill="url(#paint7_linear_1024_1578)"/>
<path d="M155.4 91.7126C155.292 91.7126 155.181 91.7126 155.066 91.7069L155.109 90.369C155.203 90.3719 155.297 90.3747 155.392 90.3747C160.792 90.3747 164.252 85.4224 164.289 85.3711L165.393 86.1271C165.233 86.3581 161.491 91.7126 155.4 91.7126Z" fill="#2E3168"/>
<path d="M157.639 91.0699C157.639 91.8972 156.712 92.5676 155.568 92.5676C154.424 92.5676 153.497 91.8972 153.497 91.0699C153.497 90.2426 154.424 89.5723 155.568 89.5723C156.712 89.5723 157.639 90.2426 157.639 91.0699Z" fill="#2E3168"/>
<path d="M170.577 70.0068H167.327C164.055 70.0068 161.399 73.9206 161.399 78.7075C161.399 83.4943 164.052 87.391 167.327 87.391C167.892 87.391 170.015 87.3939 170.577 87.3939C173.849 87.3939 176.504 83.4857 176.504 78.6989C176.504 73.9121 173.851 70.0039 170.577 70.0039V70.0068Z" fill="url(#paint8_linear_1024_1578)"/>
<path d="M174.465 78.2903C174.465 81.2828 173.495 83.7075 172.297 83.7075C171.099 83.7075 170.129 81.2828 170.129 78.2903C170.129 75.2978 171.099 72.873 172.297 72.873C173.495 72.873 174.465 75.2978 174.465 78.2903Z" fill="white"/>
<path d="M115.226 72.3405H122.269C125.01 72.3405 127.181 69.9614 127.181 67.22V42.9208C127.181 40.1794 125.013 37.8516 122.269 37.8516H60.457C57.7156 37.8516 54.9656 40.1794 54.9656 42.9208V67.22C54.9656 69.9614 57.7156 72.3405 60.457 72.3405H101.755C106.186 78.6279 114.535 81.3921 120.971 81.3921C121.162 81.3921 114.341 77.3727 115.226 72.3405Z" fill="#2E3168"/>
<path d="M78.5858 54.4846C78.5858 56.2961 77.1166 57.7681 75.3023 57.7681C73.488 57.7681 72.0217 56.2989 72.0217 54.4846C72.0217 52.6703 73.4909 51.2012 75.3023 51.2012C77.1138 51.2012 78.5858 52.6703 78.5858 54.4846Z" fill="white"/>
<path d="M93.24 54.4846C93.24 56.2961 91.7709 57.7681 89.9565 57.7681C88.1422 57.7681 86.6731 56.2989 86.6731 54.4846C86.6731 52.6703 88.1422 51.2012 89.9565 51.2012C91.7709 51.2012 93.24 52.6703 93.24 54.4846Z" fill="white"/>
<path d="M107.894 54.4846C107.894 56.2961 106.425 57.7681 104.611 57.7681C102.797 57.7681 101.327 56.2989 101.327 54.4846C101.327 52.6703 102.797 51.2012 104.611 51.2012C106.425 51.2012 107.894 52.6703 107.894 54.4846Z" fill="white"/>
<path d="M70.0506 112.759H65.6632C63.9544 112.759 62.6907 110.956 62.6907 109.247V94.1081C62.6907 92.3993 63.9544 91.0215 65.6632 91.0215H104.174C105.883 91.0215 107.601 92.3993 107.601 94.1081V109.247C107.601 110.956 105.883 112.759 104.174 112.759H78.4432C71.4798 112.759 77.693 118.732 68.1307 119.765C68.0509 119.774 69.3859 114.553 70.0506 112.759Z" fill="url(#paint9_linear_1024_1578)"/>
<path d="M92.8777 101.315C92.8777 102.445 93.7934 103.36 94.9231 103.36C96.0527 103.36 96.9684 102.445 96.9684 101.315C96.9684 100.185 96.0527 99.2695 94.9231 99.2695C93.7934 99.2695 92.8777 100.185 92.8777 101.315Z" fill="white"/>
<path d="M83.7493 101.315C83.7493 102.445 84.665 103.36 85.7946 103.36C86.9243 103.36 87.84 102.445 87.84 101.315C87.84 100.185 86.9243 99.2695 85.7946 99.2695C84.665 99.2695 83.7493 100.185 83.7493 101.315Z" fill="white"/>
<path d="M74.6177 101.315C74.6177 102.445 75.5334 103.36 76.663 103.36C77.7927 103.36 78.7084 102.445 78.7084 101.315C78.7084 100.185 77.7927 99.2695 76.663 99.2695C75.5334 99.2695 74.6177 100.185 74.6177 101.315Z" fill="white"/>
<g style="mix-blend-mode:multiply">
<path d="M227.896 40.6744C236.556 32.0137 236.556 17.9699 227.896 9.31198C219.235 0.651217 205.191 0.651217 196.53 9.31198C187.869 17.9727 187.869 32.0137 196.53 40.6744C205.191 49.3352 219.232 49.3352 227.893 40.6744H227.896ZM199.62 12.3986C206.575 5.44373 217.851 5.44373 224.806 12.3986C231.761 19.3534 231.761 30.6301 224.806 37.585C217.851 44.5398 206.575 44.5398 199.62 37.585C192.665 30.6301 192.665 19.3534 199.62 12.3986Z" fill="#D1E5F6"/>
</g>
<path d="M226.341 23.1335C226.341 32.9696 218.368 40.9429 208.531 40.9429C198.695 40.9429 190.722 32.9696 190.722 23.1335C190.722 13.2975 198.695 5.32422 208.531 5.32422C218.368 5.32422 226.341 13.2975 226.341 23.1335Z" fill="white"/>
<path d="M209.156 3.70898H207.907V10.6239H209.156V3.70898Z" fill="url(#paint10_linear_1024_1578)"/>
<path d="M209.156 35.6465H207.907V42.5614H209.156V35.6465Z" fill="url(#paint11_linear_1024_1578)"/>
<path d="M227.955 22.5098H221.041V23.7592H227.955V22.5098Z" fill="url(#paint12_linear_1024_1578)"/>
<path d="M196.02 22.5098H189.105V23.7592H196.02V22.5098Z" fill="url(#paint13_linear_1024_1578)"/>
<path d="M208.532 0.957031C196.282 0.957031 186.355 10.8872 186.355 23.1338C186.355 35.3804 196.282 45.3106 208.532 45.3106C220.781 45.3106 230.708 35.3804 230.708 23.1338C230.708 10.8872 220.778 0.957031 208.532 0.957031ZM208.532 40.9431C198.695 40.9431 190.722 32.9699 190.722 23.1338C190.722 13.2978 198.695 5.3245 208.532 5.3245C218.368 5.3245 226.341 13.2978 226.341 23.1338C226.341 32.9699 218.368 40.9431 208.532 40.9431Z" fill="url(#paint14_linear_1024_1578)"/>
<path d="M205.351 17.4375L209.593 23.1771V32.5482H208.5V23.5365L204.472 18.0851L205.351 17.4375Z" fill="#2E3168"/>
<path d="M208.939 23.8612C208.851 23.8612 208.765 23.8355 208.688 23.7756C208.509 23.6387 208.477 23.3791 208.614 23.2022L213.35 17.049C213.487 16.8693 213.743 16.835 213.923 16.9748C214.103 17.1118 214.134 17.3685 213.997 17.5482L209.262 23.7015C209.182 23.8042 209.059 23.8612 208.937 23.8612H208.939Z" fill="url(#paint15_linear_1024_1578)"/>
<path d="M149.863 177.208L135.714 176.443C135.714 176.443 120.035 183.136 119.08 183.9C118.124 184.665 117.36 189.637 117.36 189.637C117.36 189.637 116.213 189.828 119.271 190.019C122.329 190.21 133.229 190.975 133.229 190.975C133.229 190.975 145.276 187.341 147.187 187.15C149.099 186.958 157.129 187.15 157.129 187.15" fill="url(#paint16_linear_1024_1578)"/>
<path d="M182.367 107.801C182.367 107.801 198.681 110.351 200.341 128.451C201.768 144.044 207.901 185.428 203.885 188.871C199.868 192.314 148.919 189.607 148.919 189.607V175.295L183.488 174.722L178.784 128.26C178.784 128.26 167.992 108.965 182.367 107.801Z" fill="url(#paint17_linear_1024_1578)"/>
<path d="M165.236 13.9619C165.236 20.4546 159.973 25.7207 153.478 25.7207C146.982 25.7207 141.719 20.4575 141.719 13.9619C141.719 7.46633 146.982 2.20312 153.478 2.20312C159.973 2.20312 165.236 7.46633 165.236 13.9619Z" fill="url(#paint18_linear_1024_1578)"/>
<path d="M159.816 13.9617C159.816 10.4243 156.978 7.54883 153.44 7.54883C149.903 7.54883 147.053 10.4243 147.053 13.9617C147.053 15.7303 148.2 17.4163 149.099 18.6287V18.6372L149.264 18.7884C149.264 18.7884 149.264 18.7913 149.264 18.7941L150.006 19.4445V19.3561C151.038 20.0179 152.239 20.3774 153.477 20.3774C154.716 20.3774 155.917 20.0179 156.946 19.3561L156.952 19.4445L157.697 18.7941C157.697 18.7941 157.625 18.7941 157.625 18.7884L157.722 18.6372V18.6287C158.98 17.4191 159.816 15.7332 159.816 13.9617ZM148.035 13.9617C148.035 10.9606 150.476 8.51874 153.477 8.51874C156.479 8.51874 158.92 10.9606 158.92 13.9617C158.92 15.2283 158.478 16.4464 157.685 17.4134C157.685 17.4106 157.685 17.4077 157.682 17.402C157.66 17.3278 157.637 17.2565 157.611 17.1852C157.605 17.1652 157.597 17.1481 157.591 17.1281C157.571 17.0739 157.551 17.0226 157.528 16.9684C157.517 16.9427 157.508 16.9199 157.497 16.8942C157.477 16.8457 157.454 16.8001 157.431 16.7516C157.42 16.7288 157.408 16.706 157.397 16.6831C157.369 16.6289 157.34 16.5747 157.309 16.5205C157.3 16.5091 157.294 16.4949 157.289 16.4834C157.252 16.4178 157.212 16.3522 157.172 16.2895C157.16 16.2723 157.149 16.2552 157.135 16.2381C157.103 16.1925 157.075 16.1468 157.04 16.1012C157.026 16.0812 157.009 16.0584 156.995 16.0384C156.963 15.9956 156.932 15.9557 156.898 15.9129C156.884 15.8929 156.866 15.8758 156.852 15.8559C156.809 15.8017 156.764 15.7503 156.718 15.699C156.715 15.6932 156.71 15.6904 156.707 15.6847C156.655 15.6276 156.601 15.5763 156.55 15.5221C156.533 15.5078 156.518 15.4907 156.501 15.4764C156.461 15.4394 156.421 15.4023 156.382 15.368C156.362 15.3509 156.342 15.3338 156.324 15.3167C156.285 15.2825 156.242 15.2482 156.199 15.214C156.182 15.1997 156.165 15.1855 156.145 15.1712C156.085 15.1256 156.022 15.0828 155.962 15.0371C155.962 15.0371 155.956 15.0371 155.956 15.0343C155.897 14.9943 155.834 14.9544 155.771 14.9145C155.751 14.9031 155.731 14.8916 155.711 14.8802C155.665 14.8517 155.62 14.826 155.571 14.8004C155.549 14.7889 155.526 14.7747 155.503 14.7633C155.454 14.7376 155.403 14.7119 155.355 14.6891C155.335 14.6805 155.315 14.6691 155.295 14.6606C155.226 14.6292 155.155 14.5978 155.084 14.5721C155.084 14.5721 155.081 14.5721 155.078 14.5721C155.084 14.5664 155.089 14.5579 155.098 14.5493C155.123 14.5208 155.149 14.4923 155.175 14.4609C155.192 14.4381 155.212 14.4181 155.229 14.3953C155.252 14.3639 155.275 14.3325 155.297 14.3011C155.312 14.2783 155.329 14.2555 155.343 14.2327C155.363 14.1984 155.383 14.1642 155.403 14.13C155.417 14.1043 155.432 14.0815 155.443 14.0558C155.46 14.0187 155.477 13.9845 155.494 13.9474C155.506 13.9217 155.517 13.8961 155.529 13.8704C155.543 13.8333 155.554 13.7934 155.569 13.7563C155.577 13.7306 155.586 13.7049 155.594 13.6764C155.606 13.6365 155.617 13.5937 155.626 13.5537C155.631 13.5281 155.64 13.5024 155.646 13.4767C155.654 13.4311 155.66 13.3826 155.665 13.3369C155.665 13.3141 155.674 13.2913 155.674 13.2685C155.683 13.1971 155.685 13.1287 155.685 13.0545C155.685 11.8393 154.698 10.8522 153.483 10.8522C152.268 10.8522 151.281 11.8421 151.281 13.0545C151.281 13.1258 151.284 13.1971 151.292 13.2685C151.292 13.2913 151.298 13.3141 151.301 13.3369C151.307 13.3826 151.312 13.4282 151.321 13.4739C151.327 13.4995 151.332 13.5281 151.341 13.5537C151.349 13.5937 151.358 13.6365 151.369 13.6764C151.378 13.7049 151.389 13.7306 151.398 13.7591C151.409 13.7962 151.424 13.8333 151.438 13.8704C151.449 13.8989 151.461 13.9246 151.472 13.9503C151.486 13.9845 151.503 14.0216 151.521 14.0558C151.535 14.0815 151.549 14.1072 151.563 14.1328C151.583 14.1671 151.6 14.1984 151.62 14.2298C151.637 14.2555 151.655 14.2783 151.672 14.304C151.692 14.3354 151.715 14.3639 151.737 14.3953C151.757 14.4181 151.774 14.4409 151.794 14.4666C151.817 14.4951 151.84 14.5236 151.866 14.5493C151.871 14.5579 151.88 14.5664 151.886 14.5721C151.886 14.5721 151.883 14.5721 151.88 14.5721C151.809 14.6007 151.737 14.6292 151.669 14.6606C151.649 14.6691 151.629 14.6805 151.609 14.6891C151.56 14.7119 151.509 14.7376 151.461 14.7604C151.438 14.7718 151.415 14.7832 151.392 14.7975C151.344 14.8232 151.298 14.8489 151.252 14.8774C151.232 14.8888 151.212 14.9002 151.192 14.9116C151.13 14.9487 151.067 14.9886 151.004 15.0314C151.004 15.0314 151.004 15.0314 151.001 15.0314C150.939 15.0742 150.879 15.1199 150.816 15.1655C150.799 15.1769 150.782 15.1912 150.765 15.2054C150.722 15.2397 150.679 15.2739 150.636 15.3081C150.616 15.3253 150.599 15.3395 150.579 15.3566C150.536 15.3937 150.496 15.4308 150.456 15.4679C150.442 15.4822 150.425 15.4964 150.411 15.5107C150.357 15.5649 150.302 15.6191 150.251 15.6733C150.251 15.6761 150.245 15.679 150.243 15.6818C150.194 15.736 150.148 15.7902 150.1 15.8444C150.086 15.8616 150.071 15.8787 150.057 15.8986C150.023 15.9414 149.991 15.9842 149.957 16.027C149.943 16.047 149.926 16.067 149.912 16.0869C149.88 16.1326 149.846 16.1782 149.815 16.2267C149.803 16.2438 149.792 16.2609 149.78 16.278C149.74 16.3408 149.701 16.4064 149.661 16.472C149.655 16.4834 149.649 16.4949 149.641 16.5063C149.609 16.5605 149.581 16.6147 149.552 16.6717C149.541 16.6945 149.529 16.7174 149.518 16.7402C149.495 16.7858 149.472 16.8343 149.452 16.8828C149.441 16.9085 149.43 16.9313 149.421 16.957C149.398 17.0083 149.378 17.0597 149.358 17.1139C149.35 17.1339 149.344 17.1538 149.335 17.1738C149.31 17.2451 149.287 17.3164 149.264 17.3877C149.264 17.3934 149.264 17.3963 149.261 17.3992C148.468 16.4321 148.026 15.214 148.026 13.9474L148.035 13.9617ZM154.707 13.1743C154.707 13.1743 154.704 13.1971 154.701 13.2114C154.698 13.2371 154.696 13.2628 154.69 13.2884C154.69 13.3027 154.684 13.3141 154.681 13.3284C154.676 13.3512 154.673 13.374 154.664 13.3968C154.661 13.4111 154.656 13.4254 154.65 13.4368C154.644 13.4596 154.636 13.4796 154.63 13.5024C154.624 13.5166 154.619 13.5281 154.613 13.5423C154.604 13.5623 154.596 13.5823 154.587 13.6022C154.579 13.6136 154.573 13.6279 154.567 13.6393C154.556 13.6593 154.547 13.6793 154.536 13.6964C154.527 13.7078 154.519 13.722 154.513 13.7335C154.502 13.7534 154.49 13.7705 154.476 13.7877C154.467 13.7991 154.456 13.8105 154.447 13.8219C154.433 13.839 154.422 13.8561 154.407 13.8704C154.399 13.8818 154.387 13.8932 154.376 13.9046C154.362 13.9189 154.348 13.936 154.333 13.9503C154.322 13.9617 154.31 13.9702 154.299 13.9816C154.285 13.9959 154.268 14.0102 154.253 14.0216C154.242 14.0301 154.228 14.0415 154.213 14.0501C154.196 14.0615 154.182 14.0729 154.162 14.0843C154.148 14.0929 154.134 14.1014 154.119 14.11C154.102 14.1214 154.085 14.13 154.068 14.1414C154.054 14.1499 154.037 14.1557 154.022 14.1642C154.005 14.1728 153.988 14.1813 153.968 14.1899C153.951 14.1956 153.937 14.2013 153.92 14.2099C153.9 14.2156 153.883 14.2241 153.863 14.2298C153.845 14.2355 153.828 14.2412 153.811 14.2441C153.791 14.2498 153.774 14.2555 153.754 14.2583C153.737 14.2612 153.717 14.284 153.7 14.2869C153.686 14.2869 153.669 14.3125 153.654 14.3125H153.643C153.589 14.3125 153.537 14.3068 153.483 14.3068C153.429 14.3068 153.375 14.3125 153.323 14.3125H153.312C153.298 14.3125 153.281 14.2897 153.266 14.2869C153.249 14.2869 153.232 14.2726 153.212 14.2669C153.192 14.2612 153.172 14.2526 153.152 14.2469C153.135 14.2412 153.118 14.2355 153.101 14.2298C153.081 14.2241 153.064 14.2156 153.044 14.2099C153.027 14.2041 153.012 14.1984 152.995 14.1899C152.975 14.1813 152.958 14.1728 152.941 14.1642C152.927 14.1585 152.91 14.1499 152.896 14.1414C152.878 14.1328 152.861 14.1214 152.844 14.11C152.83 14.1014 152.816 14.0929 152.801 14.0843C152.784 14.0729 152.767 14.0615 152.753 14.0501C152.739 14.0415 152.727 14.0301 152.713 14.0216C152.696 14.0102 152.682 13.9959 152.667 13.9816C152.656 13.9702 152.642 13.9588 152.63 13.9503C152.616 13.936 152.602 13.9217 152.587 13.9075C152.576 13.8961 152.565 13.8846 152.556 13.8732C152.542 13.859 152.53 13.8419 152.516 13.8276C152.508 13.8162 152.496 13.8019 152.488 13.7905C152.476 13.7734 152.465 13.7563 152.453 13.7392C152.445 13.7249 152.436 13.7135 152.428 13.6992C152.416 13.6821 152.408 13.6621 152.396 13.645C152.388 13.6308 152.382 13.6193 152.373 13.6051C152.365 13.5851 152.356 13.5651 152.348 13.5452C152.342 13.5309 152.334 13.5166 152.328 13.5024C152.319 13.4824 152.314 13.4596 152.308 13.4396C152.302 13.4254 152.296 13.4111 152.294 13.3968C152.288 13.3769 152.282 13.354 152.276 13.3312C152.274 13.317 152.268 13.3027 152.265 13.2884C152.262 13.2628 152.257 13.2371 152.254 13.2143C152.254 13.2029 152.251 13.1886 152.248 13.1772C152.245 13.1401 152.242 13.1002 152.242 13.0631C152.242 12.3841 152.796 11.8307 153.475 11.8307C154.154 11.8307 154.707 12.3841 154.707 13.0631C154.707 13.103 154.707 13.1401 154.701 13.1772L154.707 13.1743ZM150.091 18.2207C150.091 18.2065 150.094 18.1922 150.097 18.1779C150.103 18.1294 150.114 18.0809 150.123 18.0353C150.134 17.9811 150.143 17.9269 150.154 17.8727C150.166 17.8271 150.18 17.7786 150.191 17.7329C150.205 17.6816 150.223 17.6274 150.237 17.576C150.251 17.5304 150.268 17.4876 150.285 17.4419C150.305 17.3906 150.325 17.3421 150.345 17.2936C150.365 17.2508 150.385 17.208 150.405 17.1652C150.428 17.1167 150.454 17.0682 150.479 17.0226C150.502 16.9827 150.525 16.9399 150.548 16.9028C150.576 16.8571 150.605 16.8115 150.633 16.7687C150.659 16.7316 150.685 16.6917 150.713 16.6546C150.745 16.6118 150.779 16.569 150.81 16.5262C150.839 16.492 150.867 16.4549 150.899 16.4207C150.936 16.3807 150.97 16.3408 151.007 16.3009C151.038 16.2695 151.07 16.2353 151.104 16.2039C151.144 16.1668 151.184 16.1326 151.224 16.0955C151.258 16.067 151.292 16.0356 151.327 16.007C151.369 15.9728 151.415 15.9386 151.458 15.9072C151.495 15.8815 151.529 15.853 151.566 15.8302C151.612 15.7988 151.66 15.7703 151.709 15.7417C151.746 15.7189 151.783 15.6961 151.82 15.6733C151.871 15.6448 151.926 15.6191 151.977 15.5934C152.014 15.5734 152.051 15.5563 152.088 15.5392C152.148 15.5135 152.208 15.4907 152.271 15.4679C152.305 15.4536 152.336 15.4394 152.371 15.4279C152.468 15.3966 152.565 15.368 152.664 15.3424C152.682 15.3367 152.702 15.3367 152.719 15.331C152.801 15.3138 152.884 15.2967 152.97 15.2825C153.01 15.2768 153.047 15.2539 153.087 15.2511C153.149 15.2425 153.212 15.214 153.275 15.214H153.283C153.346 15.214 153.409 15.2226 153.472 15.2226C153.535 15.2226 153.597 15.214 153.66 15.214H153.669C153.731 15.214 153.794 15.2454 153.857 15.2511C153.897 15.2568 153.937 15.2682 153.977 15.2739C154.059 15.2853 154.142 15.3081 154.225 15.3281C154.245 15.3338 154.265 15.3395 154.288 15.3424C154.385 15.3652 154.482 15.3937 154.573 15.4251C154.61 15.4365 154.644 15.4536 154.678 15.465C154.738 15.4879 154.798 15.5107 154.855 15.5364C154.895 15.5535 154.932 15.5734 154.969 15.5934C155.021 15.6191 155.072 15.6448 155.123 15.6704C155.163 15.6932 155.201 15.7161 155.24 15.7389C155.286 15.7674 155.335 15.7959 155.38 15.8273C155.417 15.853 155.454 15.8815 155.491 15.9072C155.534 15.9386 155.577 15.97 155.62 16.0042C155.657 16.0327 155.691 16.0641 155.725 16.0955C155.765 16.1297 155.805 16.1668 155.842 16.201C155.877 16.2324 155.908 16.2666 155.942 16.3009C155.979 16.338 156.014 16.3779 156.048 16.415C156.079 16.4521 156.108 16.4863 156.139 16.5234C156.17 16.5633 156.205 16.6061 156.233 16.646C156.262 16.6831 156.287 16.7231 156.316 16.763C156.344 16.8058 156.373 16.8486 156.399 16.8942C156.424 16.937 156.447 16.977 156.47 17.0197C156.496 17.0654 156.518 17.111 156.541 17.1595C156.561 17.2023 156.581 17.248 156.601 17.2908C156.624 17.3392 156.641 17.3877 156.661 17.4362C156.678 17.4819 156.695 17.5275 156.712 17.5732C156.73 17.6245 156.744 17.6759 156.758 17.7272C156.772 17.7729 156.784 17.8214 156.795 17.8698C156.807 17.9241 156.818 17.9783 156.827 18.0325C156.835 18.0809 156.844 18.1266 156.852 18.1751C156.852 18.1894 156.852 18.2036 156.858 18.2179C155.897 18.9824 154.704 19.4017 153.469 19.4017C152.234 19.4017 151.041 18.9824 150.08 18.2179L150.091 18.2207Z" fill="white"/>
<path d="M25.62 190.727H298.089C299.144 190.727 300 191.582 300 192.638V193.305C300 194.361 299.144 195.217 298.089 195.217H25.62C24.5645 195.217 23.7087 194.361 23.7087 193.305V192.638C23.7087 191.582 24.5645 190.727 25.62 190.727Z" fill="#2E3168"/>
<path d="M267.927 184.847C267.927 184.847 268.424 178.808 267.696 171.477C266.966 164.145 267.736 163.575 272.049 156.38C276.36 149.18 274.768 145.78 277.355 140.214C279.94 134.652 278.808 136.218 284.048 131.904C289.288 127.591 295.236 128.339 297.073 122.502C297.073 122.502 295.239 134.555 293.359 142.071C291.479 149.585 291.14 152.857 287.097 156.192C283.061 159.53 281.834 161.347 280.77 169.722C279.706 178.101 273.467 185.161 271.331 186.365C269.197 187.569 267.925 184.845 267.925 184.845L267.927 184.847Z" fill="url(#paint19_linear_1024_1578)"/>
<path d="M269.468 183.435L275.767 163.024C275.767 163.024 278.343 152.974 277.201 150.572C276.06 148.173 270.292 140.499 269.362 137.059C268.432 133.616 268.755 129.343 268.974 124.239C269.194 119.133 264.062 106.983 263.859 105.314C263.654 103.646 262.79 117.293 259.914 122.134C257.036 126.972 253.65 127.648 254.731 133.014C255.815 138.383 251.844 143.272 251.051 147.18C250.261 151.086 248.994 158.691 252.723 168.393C256.454 178.092 260.12 189.223 264.182 190.587C268.244 191.953 269.359 185.312 269.468 183.438V183.435Z" fill="#2E3168"/>
<path d="M260.062 187.084C260.062 187.084 264.361 179.778 262.302 175.556C260.239 171.334 255.866 172.164 255.609 164.231C255.353 156.3 257.466 155.171 255.37 151.225C253.27 147.277 246.364 141.258 237.175 142.605C227.944 143.957 222.33 158.123 222.33 158.123C222.33 158.123 230.135 148.721 234.311 151.813C238.487 154.908 238.094 155.419 238.011 158.508C237.928 161.604 242.852 166.487 245.816 168.852C248.78 171.22 246.321 172.923 246.766 179.467C247.208 186.014 254.497 189.451 260.062 187.081V187.084Z" fill="url(#paint20_linear_1024_1578)"/>
<path d="M265.066 184.308C265.066 184.268 265.009 180.349 264.322 176.82C263.862 174.455 263.357 168.69 262.867 163.11C262.601 160.092 262.328 156.971 262.065 154.435C261.731 151.203 261.48 149.349 261.238 147.56C260.935 145.318 260.647 143.204 260.228 138.66C259.466 130.401 263.865 123.515 264.053 123.227L264.712 123.654C264.667 123.723 260.274 130.606 261.012 138.588C261.429 143.115 261.717 145.224 262.019 147.454C262.262 149.252 262.516 151.112 262.85 154.355C263.112 156.9 263.386 160.023 263.651 163.044C264.139 168.601 264.641 174.35 265.095 176.672C265.796 180.275 265.853 184.263 265.853 184.303L265.069 184.314L265.066 184.308Z" fill="#F1F1F1"/>
<path d="M270.757 182.516L269.99 182.348C271.037 177.59 278.708 153.858 281.027 150.8C283.24 147.882 288.949 134.628 289.006 134.494L289.727 134.805C289.494 135.353 283.922 148.281 281.654 151.274C279.501 154.115 271.947 177.108 270.757 182.519V182.516Z" fill="white"/>
<path d="M280.237 185.158H248.081V190.727H280.237V185.158Z" fill="#2E3168"/>
<path d="M18.6252 82.2692L0.108398 63.9008L18.6252 45.5352L37.1391 63.9008L18.6252 82.2692Z" fill="#4A1449"/>
<path d="M32.1014 82.5955H4.27344V47.3848H27.2804L32.1014 52.1288V82.5955Z" fill="url(#paint21_linear_1024_1578)"/>
<path d="M0 85.5313H37.0307V74.7168H0.108402L0 85.5313Z" fill="url(#paint22_linear_1024_1578)"/>
<path d="M13.7214 71.9184L0 63.9023V85.5314L18.5168 74.7169L13.7214 71.9184Z" fill="#FDB73F"/>
<path d="M23.3065 71.9184L18.5168 74.7169L37.0308 85.5314V63.9023L23.3065 71.9184Z" fill="url(#paint23_linear_1024_1578)"/>
<path d="M27.2803 47.3477L32.1013 52.1288H27.2803V47.3477Z" fill="white"/>
<path d="M28.4841 57.9257H9.25695C8.89466 57.9257 8.60083 57.6347 8.60083 57.2724C8.60083 56.9101 8.89466 56.6191 9.25695 56.6191H28.4841C28.8463 56.6191 29.1402 56.9101 29.1402 57.2724C29.1402 57.6347 28.8463 57.9257 28.4841 57.9257Z" fill="white"/>
<path d="M28.4841 61.8358H9.25695C8.89466 61.8358 8.60083 61.5449 8.60083 61.1826C8.60083 60.8203 8.89466 60.5293 9.25695 60.5293H28.4841C28.8463 60.5293 29.1402 60.8203 29.1402 61.1826C29.1402 61.5449 28.8463 61.8358 28.4841 61.8358Z" fill="white"/>
<path d="M28.4841 65.7499H9.25695C8.89466 65.7499 8.60083 65.4561 8.60083 65.0966C8.60083 64.7372 8.89466 64.4434 9.25695 64.4434H28.4841C28.8463 64.4434 29.1402 64.7343 29.1402 65.0966C29.1402 65.4589 28.8463 65.7499 28.4841 65.7499Z" fill="white"/>
<path d="M121.005 171.653C121.208 172.691 120.529 173.547 119.493 173.547H28.2017C27.1634 173.547 26.1592 172.688 25.9595 171.653L15.8097 119.368C15.6071 118.33 16.2861 117.426 17.3216 117.426H108.613C109.652 117.426 110.656 118.33 110.858 119.368L121.008 171.653H121.005Z" fill="white"/>
<path d="M113.491 171.887C113.694 172.925 113.015 174.017 111.979 174.017H20.6877C19.6494 174.017 18.6452 172.925 18.4427 171.887L8.29282 119.668C8.09028 118.63 8.76922 117.791 9.80475 117.791H101.096C102.135 117.791 103.139 118.633 103.342 119.668L113.491 171.887Z" fill="url(#paint24_linear_1024_1578)"/>
<path d="M77.0624 163.837C77.1281 164.179 76.9055 164.479 76.5661 164.479H46.5957C46.2534 164.479 45.9254 164.176 45.8597 163.837L42.4907 146.49C42.4251 146.147 42.6476 145.854 42.9871 145.854H72.9574C73.2997 145.854 73.6278 146.147 73.6963 146.49L77.0653 163.837H77.0624Z" fill="#204182"/>
<path d="M143.219 184.576H38.5713V188.986H143.219V184.576Z" fill="#5785C4"/>
<path d="M142.974 187.518H38.3286V191.928H142.974V187.518Z" fill="#204182"/>
<path d="M60.765 191.288L68.6641 162.256H63.5293L55.6045 191.313" fill="#5785C4"/>
<path d="M51.2514 163.845L43.7146 191.436H57.6043L65.5063 162.37L51.7449 162.15L51.2514 163.845Z" fill="#204182"/>
<path d="M286.572 83.5936V80.1047H283.78C283.549 78.938 283.089 77.8539 282.45 76.8983L284.424 74.9242L281.957 72.4567L279.983 74.4307C279.027 73.7917 277.943 73.3324 276.776 73.1014V70.3086H273.287V73.1014C272.121 73.3324 271.037 73.7917 270.081 74.4307L268.107 72.4567L265.639 74.9242L267.613 76.8983C266.977 77.8539 266.518 78.938 266.287 80.1047H263.494V83.5936H266.287C266.518 84.7603 266.977 85.8443 267.616 86.8L265.642 88.774L268.11 91.2416L270.084 89.2676C271.04 89.9066 272.124 90.3658 273.29 90.5969V93.3897H276.779V90.5969C277.946 90.3658 279.03 89.9066 279.986 89.2676L281.96 91.2416L284.427 88.774L282.453 86.8C283.092 85.8443 283.549 84.7603 283.782 83.5936H286.575H286.572ZM275.033 86.7943C272.303 86.7943 270.09 84.5806 270.09 81.8506C270.09 79.1205 272.303 76.9069 275.033 76.9069C277.763 76.9069 279.98 79.1205 279.98 81.8506C279.98 84.5806 277.766 86.7943 275.033 86.7943Z" fill="url(#paint25_linear_1024_1578)"/>
<path d="M277.258 81.8472C277.258 83.0739 276.263 84.0695 275.036 84.0695C273.81 84.0695 272.814 83.0739 272.814 81.8472C272.814 80.6206 273.81 79.625 275.036 79.625C276.263 79.625 277.258 80.6206 277.258 81.8472Z" fill="#2E3168"/>
<path d="M204.065 70.6658L197.844 76.8867L204.065 83.1076L210.286 76.8867L204.065 70.6658Z" fill="url(#paint26_linear_1024_1578)"/>
<path d="M258.91 57.0801H189.727C188.903 57.0801 188.235 57.748 188.235 58.572V75.865C188.235 76.689 188.903 77.357 189.727 77.357H258.91C259.734 77.357 260.402 76.689 260.402 75.865V58.572C260.402 57.748 259.734 57.0801 258.91 57.0801Z" fill="white"/>
<path d="M200.23 62.1777L201.822 65.4013L205.379 65.9205L202.806 68.4308L203.414 71.9739L200.23 70.3022L197.046 71.9739L197.654 68.4308L195.078 65.9205L198.638 65.4013L200.23 62.1777Z" fill="url(#paint27_linear_1024_1578)"/>
<path d="M212.183 62.1777L213.775 65.4013L217.335 65.9205L214.759 68.4308L215.367 71.9739L212.183 70.3022L208.999 71.9739L209.607 68.4308L207.031 65.9205L210.591 65.4013L212.183 62.1777Z" fill="url(#paint28_linear_1024_1578)"/>
<path d="M224.136 62.1777L225.73 65.4013L229.288 65.9205L226.712 68.4308L227.319 71.9739L224.136 70.3022L220.955 71.9739L221.563 68.4308L218.987 65.9205L222.544 65.4013L224.136 62.1777Z" fill="url(#paint29_linear_1024_1578)"/>
<path d="M236.091 62.1777L237.683 65.4013L241.24 65.9205L238.667 68.4308L239.275 71.9739L236.091 70.3022L232.908 71.9739L233.515 68.4308L230.939 65.9205L234.499 65.4013L236.091 62.1777Z" fill="url(#paint30_linear_1024_1578)"/>
<path d="M248.044 62.1777L249.636 65.4013L253.196 65.9205L250.62 68.4308L251.228 71.9739L248.044 70.3022L244.86 71.9739L245.468 68.4308L242.892 65.9205L246.452 65.4013L248.044 62.1777Z" fill="url(#paint31_linear_1024_1578)"/>
</g>
<defs>
<linearGradient id="paint0_linear_1024_1578" x1="6.13606" y1="107.939" x2="278.756" y2="107.939" gradientUnits="userSpaceOnUse">
<stop stop-color="white"/>
<stop offset="1" stop-color="#97CBEE"/>
</linearGradient>
<linearGradient id="paint1_linear_1024_1578" x1="137.505" y1="76.9049" x2="152.61" y2="76.9049" gradientUnits="userSpaceOnUse">
<stop offset="0.52" stop-color="#B25884"/>
<stop offset="1" stop-color="#7B2D8C"/>
</linearGradient>
<linearGradient id="paint2_linear_1024_1578" x1="76.532" y1="146.036" x2="151.167" y2="146.036" gradientUnits="userSpaceOnUse">
<stop stop-color="#FDB73F"/>
<stop offset="1" stop-color="#F15F5D"/>
</linearGradient>
<linearGradient id="paint3_linear_1024_1578" x1="54.238" y1="184.627" x2="85.1555" y2="184.627" gradientUnits="userSpaceOnUse">
<stop offset="0.3" stop-color="#FFDA8B"/>
<stop offset="0.43" stop-color="#FCC784"/>
<stop offset="0.71" stop-color="#F79671"/>
<stop offset="1" stop-color="#F15F5D"/>
</linearGradient>
<linearGradient id="paint4_linear_1024_1578" x1="131.537" y1="130.919" x2="175.86" y2="165.662" gradientUnits="userSpaceOnUse">
<stop offset="0.52" stop-color="#B25884"/>
<stop offset="1" stop-color="#7B2D8C"/>
</linearGradient>
<linearGradient id="paint5_linear_1024_1578" x1="151.948" y1="98.1169" x2="171.384" y2="97.187" gradientUnits="userSpaceOnUse">
<stop offset="0.3" stop-color="#FFDA8B"/>
<stop offset="0.43" stop-color="#FCC784"/>
<stop offset="0.71" stop-color="#F79671"/>
<stop offset="1" stop-color="#F15F5D"/>
</linearGradient>
<linearGradient id="paint6_linear_1024_1578" x1="137.488" y1="80.8067" x2="180.567" y2="82.6496" gradientUnits="userSpaceOnUse">
<stop offset="0.44" stop-color="#FFDA8B"/>
<stop offset="0.55" stop-color="#FCC784"/>
<stop offset="0.77" stop-color="#F79671"/>
<stop offset="1" stop-color="#F15F5D"/>
</linearGradient>
<linearGradient id="paint7_linear_1024_1578" x1="151.583" y1="59.4196" x2="172.659" y2="59.4196" gradientUnits="userSpaceOnUse">
<stop offset="0.52" stop-color="#B25884"/>
<stop offset="1" stop-color="#7B2D8C"/>
</linearGradient>
<linearGradient id="paint8_linear_1024_1578" x1="161.399" y1="78.6989" x2="176.504" y2="78.6989" gradientUnits="userSpaceOnUse">
<stop offset="0.52" stop-color="#B25884"/>
<stop offset="1" stop-color="#7B2D8C"/>
</linearGradient>
<linearGradient id="paint9_linear_1024_1578" x1="62.6907" y1="105.396" x2="107.601" y2="105.396" gradientUnits="userSpaceOnUse">
<stop offset="0.52" stop-color="#B25884"/>
<stop offset="1" stop-color="#7B2D8C"/>
</linearGradient>
<linearGradient id="paint10_linear_1024_1578" x1="207.907" y1="7.16644" x2="209.156" y2="7.16644" gradientUnits="userSpaceOnUse">
<stop stop-color="white"/>
<stop offset="1" stop-color="#97CBEE"/>
</linearGradient>
<linearGradient id="paint11_linear_1024_1578" x1="207.907" y1="39.1039" x2="209.156" y2="39.1039" gradientUnits="userSpaceOnUse">
<stop stop-color="white"/>
<stop offset="1" stop-color="#97CBEE"/>
</linearGradient>
<linearGradient id="paint12_linear_1024_1578" x1="221.041" y1="23.1345" x2="227.955" y2="23.1345" gradientUnits="userSpaceOnUse">
<stop stop-color="white"/>
<stop offset="1" stop-color="#97CBEE"/>
</linearGradient>
<linearGradient id="paint13_linear_1024_1578" x1="189.105" y1="23.1345" x2="196.02" y2="23.1345" gradientUnits="userSpaceOnUse">
<stop stop-color="white"/>
<stop offset="1" stop-color="#97CBEE"/>
</linearGradient>
<linearGradient id="paint14_linear_1024_1578" x1="208.532" y1="45.3106" x2="208.532" y2="0.957031" gradientUnits="userSpaceOnUse">
<stop stop-color="#3F8CCB"/>
<stop offset="1" stop-color="#97CBEE"/>
</linearGradient>
<linearGradient id="paint15_linear_1024_1578" x1="208.532" y1="20.3752" x2="214.086" y2="20.3752" gradientUnits="userSpaceOnUse">
<stop offset="0.1" stop-color="#F6895D"/>
<stop offset="0.95" stop-color="#F16680"/>
</linearGradient>
<linearGradient id="paint16_linear_1024_1578" x1="117.148" y1="183.709" x2="157.129" y2="183.709" gradientUnits="userSpaceOnUse">
<stop offset="0.3" stop-color="#FFDA8B"/>
<stop offset="0.43" stop-color="#FCC784"/>
<stop offset="0.71" stop-color="#F79671"/>
<stop offset="1" stop-color="#F15F5D"/>
</linearGradient>
<linearGradient id="paint17_linear_1024_1578" x1="148.919" y1="149.208" x2="205.225" y2="149.208" gradientUnits="userSpaceOnUse">
<stop stop-color="#FDB73F"/>
<stop offset="1" stop-color="#F15F5D"/>
</linearGradient>
<linearGradient id="paint18_linear_1024_1578" x1="141.719" y1="13.9619" x2="165.236" y2="13.9619" gradientUnits="userSpaceOnUse">
<stop stop-color="#FDB73F"/>
<stop offset="1" stop-color="#F15F5D"/>
</linearGradient>
<linearGradient id="paint19_linear_1024_1578" x1="267.454" y1="154.589" x2="297.073" y2="154.589" gradientUnits="userSpaceOnUse">
<stop stop-color="#3F8CCB"/>
<stop offset="1" stop-color="#97CBEE"/>
</linearGradient>
<linearGradient id="paint20_linear_1024_1578" x1="222.333" y1="165.124" x2="262.861" y2="165.124" gradientUnits="userSpaceOnUse">
<stop stop-color="#3F8CCB"/>
<stop offset="1" stop-color="#97CBEE"/>
</linearGradient>
<linearGradient id="paint21_linear_1024_1578" x1="4.27344" y1="64.9887" x2="32.1014" y2="64.9887" gradientUnits="userSpaceOnUse">
<stop stop-color="white"/>
<stop offset="1" stop-color="#97CBEE"/>
</linearGradient>
<linearGradient id="paint22_linear_1024_1578" x1="0" y1="80.1226" x2="37.0307" y2="80.1226" gradientUnits="userSpaceOnUse">
<stop offset="0.1" stop-color="#F6895D"/>
<stop offset="0.95" stop-color="#F16680"/>
</linearGradient>
<linearGradient id="paint23_linear_1024_1578" x1="18.5168" y1="74.7169" x2="37.0308" y2="74.7169" gradientUnits="userSpaceOnUse">
<stop stop-color="#FDB73F"/>
<stop offset="1" stop-color="#F15F5D"/>
</linearGradient>
<linearGradient id="paint24_linear_1024_1578" x1="8.25859" y1="145.904" x2="113.528" y2="145.904" gradientUnits="userSpaceOnUse">
<stop stop-color="#3F8CCB"/>
<stop offset="1" stop-color="#97CBEE"/>
</linearGradient>
<linearGradient id="paint25_linear_1024_1578" x1="270.07" y1="81.8477" x2="293.145" y2="81.8477" gradientUnits="userSpaceOnUse">
<stop offset="0.52" stop-color="#B25884"/>
<stop offset="1" stop-color="#7B2D8C"/>
</linearGradient>
<linearGradient id="paint26_linear_1024_1578" x1="197.844" y1="76.8841" x2="210.287" y2="76.8841" gradientUnits="userSpaceOnUse">
<stop stop-color="#3F8CCB"/>
<stop offset="1" stop-color="#97CBEE"/>
</linearGradient>
<linearGradient id="paint27_linear_1024_1578" x1="195.078" y1="67.0758" x2="205.379" y2="67.0758" gradientUnits="userSpaceOnUse">
<stop stop-color="#3F8CCB"/>
<stop offset="1" stop-color="#97CBEE"/>
</linearGradient>
<linearGradient id="paint28_linear_1024_1578" x1="207.031" y1="67.0758" x2="217.335" y2="67.0758" gradientUnits="userSpaceOnUse">
<stop stop-color="#3F8CCB"/>
<stop offset="1" stop-color="#97CBEE"/>
</linearGradient>
<linearGradient id="paint29_linear_1024_1578" x1="218.987" y1="67.0758" x2="229.288" y2="67.0758" gradientUnits="userSpaceOnUse">
<stop stop-color="#3F8CCB"/>
<stop offset="1" stop-color="#97CBEE"/>
</linearGradient>
<linearGradient id="paint30_linear_1024_1578" x1="230.939" y1="67.0758" x2="241.24" y2="67.0758" gradientUnits="userSpaceOnUse">
<stop stop-color="#3F8CCB"/>
<stop offset="1" stop-color="#97CBEE"/>
</linearGradient>
<linearGradient id="paint31_linear_1024_1578" x1="242.892" y1="67.0758" x2="253.196" y2="67.0758" gradientUnits="userSpaceOnUse">
<stop stop-color="#3F8CCB"/>
<stop offset="1" stop-color="#97CBEE"/>
</linearGradient>
<clipPath id="clip0_1024_1578">
<rect width="300" height="194.259" fill="white" transform="translate(0 0.957031)"/>
</clipPath>
</defs>
</svg>
