<svg width="27" height="26" viewBox="0 0 27 26" fill="none" xmlns="http://www.w3.org/2000/svg">
<path d="M14.0625 7.75C14.0625 7.43934 13.8107 7.1875 13.5 7.1875C13.1894 7.1875 12.9375 7.43934 12.9375 7.75V12.4375H8.25C7.93934 12.4375 7.6875 12.6894 7.6875 13C7.6875 13.3107 7.93934 13.5625 8.25 13.5625H12.9375V18.25C12.9375 18.5607 13.1894 18.8125 13.5 18.8125C13.8107 18.8125 14.0625 18.5607 14.0625 18.25V13.5625H18.75C19.0607 13.5625 19.3125 13.3107 19.3125 13C19.3125 12.6894 19.0607 12.4375 18.75 12.4375H14.0625V7.75Z" fill="white"/>
<rect x="1" y="0.5" width="25" height="25" rx="12.5" stroke="white"/>
</svg>
