<svg width="22" height="22" viewBox="0 0 22 22" fill="none" xmlns="http://www.w3.org/2000/svg">
<g id="bank-account 1">
<g id="Group">
<path id="Vector" d="M17.9474 20.8416C18.2674 20.8416 18.5264 20.5827 18.5264 20.2626V17.3679H21.4211C21.7411 17.3679 22.0001 17.109 22.0001 16.789C22.0001 16.4689 21.7411 16.21 21.4211 16.21H18.5264V13.3153C18.5264 12.9953 18.2674 12.7363 17.9474 12.7363C17.6274 12.7363 17.3685 12.9953 17.3685 13.3153V16.21H14.4737C14.1537 16.21 13.8948 16.4689 13.8948 16.789C13.8948 17.109 14.1537 17.3679 14.4737 17.3679H17.3685V20.2626C17.3685 20.5826 17.6274 20.8416 17.9474 20.8416Z" fill="white"/>
<path id="Vector_2" d="M2.89472 17.3687H12.1579C12.4779 17.3687 12.7368 17.1098 12.7368 16.7898C12.7368 16.4697 12.4779 16.2108 12.1579 16.2108H2.89472C1.93699 16.2108 1.15788 15.4317 1.15788 14.474V8.10556H20.8421V14.474C20.8421 14.794 21.101 15.053 21.421 15.053C21.7411 15.053 22 14.794 22 14.474V4.05292C22 2.45685 20.7013 1.1582 19.1053 1.1582H2.89472C1.29869 1.15816 0 2.45685 0 4.05292V14.474C0 16.07 1.29869 17.3687 2.89472 17.3687ZM2.89472 2.31608H19.1052C20.063 2.31608 20.8421 3.09519 20.8421 4.05292V6.94764H1.15788V4.05292C1.15788 3.09515 1.93699 2.31608 2.89472 2.31608Z" fill="white"/>
<path id="Vector_3" d="M5.21055 11.5801C4.89056 11.5801 4.63159 11.839 4.63159 12.159C4.63159 12.4791 4.89052 12.738 5.21055 12.738H7.52635C7.84634 12.738 8.10531 12.4791 8.10531 12.159C8.10531 11.839 7.84639 11.5801 7.52635 11.5801H5.21055Z" fill="white"/>
</g>
</g>
</svg>
