<svg width="200" height="62" viewBox="0 0 200 62" fill="none" xmlns="http://www.w3.org/2000/svg">
<path d="M0 10C0 4.47715 4.47715 0 10 0H190C195.523 0 200 4.47715 200 10V52C200 57.5228 195.523 62 190 62H10C4.47716 62 0 57.5228 0 52V10Z" fill="url(#paint0_radial_1951_3474)"/>
<g filter="url(#filter0_d_1951_3474)">
<path d="M63.4514 30.764C65.3234 31.364 66.5234 32.804 66.5234 34.916C66.5234 37.82 64.2194 39.5 59.8034 39.5H51.1154V22.7H59.3234C63.5234 22.7 65.6834 24.452 65.6834 27.068C65.6834 28.748 64.8194 30.044 63.4514 30.764ZM58.8434 25.628H54.9794V29.588H58.8434C60.7394 29.588 61.7714 28.916 61.7714 27.596C61.7714 26.276 60.7394 25.628 58.8434 25.628ZM59.5154 36.572C61.5314 36.572 62.6114 35.948 62.6114 34.508C62.6114 33.092 61.5314 32.42 59.5154 32.42H54.9794V36.572H59.5154ZM73.3309 36.38H82.4749V39.5H69.4669V22.7H82.1629V25.82H73.3309V29.468H81.1309V32.492H73.3309V36.38ZM89.0485 39.5V25.868H83.6725V22.7H98.3125V25.868H92.9365V39.5H89.0485ZM112.113 39.5L110.625 35.9H102.825L101.337 39.5H97.3527L104.841 22.7H108.681L116.193 39.5H112.113ZM104.073 32.948H109.401L106.737 26.516L104.073 32.948Z" fill="url(#paint1_linear_1951_3474)"/>
</g>
<g filter="url(#filter1_d_1951_3474)">
<path d="M138.25 25.3352C138.835 25.2865 139.371 25.0794 139.907 24.848C140.747 24.4826 141.502 24.0076 142.172 23.3986C143.707 21.9978 144.596 20.2804 144.876 18.2219C145.059 16.8578 144.913 15.5423 144.328 14.2999C143.597 12.7286 142.379 11.7542 140.711 11.2914C140.662 11.2792 140.625 11.2548 140.577 11.2305C142.075 11.4375 143.451 11.9491 144.73 12.753C145.522 13.2524 146.253 13.8005 146.886 14.4826C147.873 15.5423 148.543 16.7847 148.798 18.2341C149.042 19.5618 149.066 20.8772 148.616 22.1683C148.104 23.6665 147.166 24.8358 145.875 25.7737C145.071 26.3584 144.17 26.7116 143.208 27.1014C144.06 27.3328 144.828 27.6007 145.546 27.9905C147.995 29.3182 149.736 31.2426 150.565 33.9223C151.088 35.6154 151.052 37.345 150.686 39.0867C150.406 40.4266 149.858 41.6568 149.079 42.7774C147.532 45.0063 145.4 46.2487 142.708 46.5532C142.526 46.5776 142.355 46.5532 142.172 46.5654C142.294 46.2975 142.526 46.4436 142.708 46.4314C142.976 46.4193 143.074 46.3462 142.928 46.0904C142.854 45.9686 142.842 45.859 142.964 45.7493C143.074 45.6397 143.183 45.6519 143.305 45.7493C143.342 45.7859 143.39 45.7981 143.439 45.8102C143.926 46.0173 143.841 45.9929 143.963 45.5057C144.146 44.7749 143.719 44.2755 143.439 43.7152C143.074 42.9479 142.696 42.1927 142.343 41.4132C142.197 41.0965 142.221 40.7433 142.319 40.4022C142.647 40.0124 143.025 39.6714 143.269 39.2085C144.267 37.2597 144.17 35.25 143.476 33.2646C142.794 31.3279 141.417 29.915 139.761 28.7457C138.275 27.686 136.643 26.8821 135.059 25.993C134.876 25.8955 134.669 25.8346 134.535 25.6154C135.79 25.5545 137.02 25.6763 138.214 25.3596C138.214 25.3596 138.238 25.3596 138.25 25.3596V25.3352Z" fill="url(#paint2_linear_1951_3474)"/>
<path d="M138.604 25.2015C138.482 25.2381 138.36 25.2868 138.25 25.3355C138.835 25.2868 139.371 25.0797 139.907 24.8483C140.747 24.4829 141.502 24.0079 142.172 23.3989C143.707 21.9981 144.596 20.2807 144.876 18.2222C145.059 16.8581 144.913 15.5426 144.328 14.3002C143.597 12.7289 142.379 11.7545 140.711 11.2917C140.662 11.2795 140.625 11.2551 140.577 11.2308C139.054 10.9263 137.532 10.9506 136.009 11.1577C134.45 11.3648 132.976 11.8641 131.6 12.6071C130.358 13.2771 129.164 14.0322 128.299 15.2015C126.509 17.6011 126.119 20.4025 126.046 23.2892C126.034 23.3623 126.034 23.4476 126.034 23.5207C126.034 28.1248 126.034 32.7289 126.034 37.3331C126.034 37.9177 126.034 38.5024 126.119 39.087C126.167 40.975 126.362 42.8629 126.825 44.7021C127.081 45.7009 127.459 46.651 128.019 47.528C129.139 49.2697 130.833 50.2198 132.684 50.9628C132.867 51.0359 132.915 50.9872 132.903 50.8045C132.903 50.6583 132.903 50.5243 132.903 50.3782C132.879 47.8934 132.854 45.4086 132.83 42.9238C132.83 42.802 132.781 42.6559 132.915 42.5097C135.351 45.3842 138.396 46.7972 142.172 46.5292C142.294 46.2612 142.526 46.4074 142.708 46.3952C142.976 46.383 143.074 46.3099 142.928 46.0542C142.854 45.9324 142.842 45.8227 142.964 45.7131C143.074 45.6035 143.183 45.6157 143.305 45.7131C143.342 45.7496 143.39 45.7618 143.439 45.774C143.926 45.9811 143.841 45.9567 143.963 45.4695C144.146 44.7387 143.719 44.2393 143.439 43.679C143.074 42.9116 142.696 42.1565 142.343 41.3769C142.197 41.0602 142.221 40.707 142.319 40.366C140.15 42.1321 137.105 41.4744 135.096 39.4403C133.951 38.2831 133.366 36.8824 133.11 35.299C132.794 33.3136 132.818 31.316 132.83 29.3185C132.842 26.9677 132.781 24.6047 132.891 22.2539C132.952 20.975 133.074 19.7082 133.671 18.5755C134.292 17.4183 135.266 16.5779 136.594 16.3099C138.165 15.9811 139.627 16.2369 140.906 17.2478C142.976 18.88 143.013 22.0712 141.003 23.8861C140.309 24.5073 139.505 24.9336 138.604 25.1894V25.2015Z" fill="url(#paint3_linear_1951_3474)"/>
</g>
<path d="M10 1H190C194.971 1 199 5.02944 199 10V52C199 56.9706 194.971 61 190 61H10C5.02944 61 1 56.9706 1 52V10C1 5.02944 5.02944 1 10 1Z" stroke="white" stroke-opacity="0.2" stroke-width="2"/>
<defs>
<filter id="filter0_d_1951_3474" x="47.1154" y="20.6992" width="73.0773" height="24.8008" filterUnits="userSpaceOnUse" color-interpolation-filters="sRGB">
<feFlood flood-opacity="0" result="BackgroundImageFix"/>
<feColorMatrix in="SourceAlpha" type="matrix" values="0 0 0 0 0 0 0 0 0 0 0 0 0 0 0 0 0 0 127 0" result="hardAlpha"/>
<feOffset dy="2"/>
<feGaussianBlur stdDeviation="2"/>
<feComposite in2="hardAlpha" operator="out"/>
<feColorMatrix type="matrix" values="0 0 0 0 0 0 0 0 0 0 0 0 0 0 0 0 0 0 0.25 0"/>
<feBlend mode="normal" in2="BackgroundImageFix" result="effect1_dropShadow_1951_3474"/>
<feBlend mode="normal" in="SourceGraphic" in2="effect1_dropShadow_1951_3474" result="shape"/>
</filter>
<filter id="filter1_d_1951_3474" x="122.034" y="9" width="32.933" height="48" filterUnits="userSpaceOnUse" color-interpolation-filters="sRGB">
<feFlood flood-opacity="0" result="BackgroundImageFix"/>
<feColorMatrix in="SourceAlpha" type="matrix" values="0 0 0 0 0 0 0 0 0 0 0 0 0 0 0 0 0 0 127 0" result="hardAlpha"/>
<feOffset dy="2"/>
<feGaussianBlur stdDeviation="2"/>
<feComposite in2="hardAlpha" operator="out"/>
<feColorMatrix type="matrix" values="0 0 0 0 0 0 0 0 0 0 0 0 0 0 0 0 0 0 0.3 0"/>
<feBlend mode="normal" in2="BackgroundImageFix" result="effect1_dropShadow_1951_3474"/>
<feBlend mode="normal" in="SourceGraphic" in2="effect1_dropShadow_1951_3474" result="shape"/>
</filter>
<radialGradient id="paint0_radial_1951_3474" cx="0" cy="0" r="1" gradientUnits="userSpaceOnUse" gradientTransform="translate(100 31) rotate(90) scale(31 100)">
<stop offset="0.296875" stop-color="#26CF67"/>
<stop offset="1" stop-color="#0E9133"/>
</radialGradient>
<linearGradient id="paint1_linear_1951_3474" x1="65.9795" y1="19.8999" x2="110.661" y2="33.9511" gradientUnits="userSpaceOnUse">
<stop stop-color="#FFF84B"/>
<stop offset="0.317708" stop-color="white"/>
<stop offset="0.692708" stop-color="#FFF618"/>
<stop offset="1" stop-color="white"/>
</linearGradient>
<linearGradient id="paint2_linear_1951_3474" x1="142.745" y1="46.5411" x2="142.745" y2="11.2305" gradientUnits="userSpaceOnUse">
<stop offset="0.29" stop-color="#ED2024"/>
<stop offset="0.567708" stop-color="#F9E214"/>
</linearGradient>
<linearGradient id="paint3_linear_1951_3474" x1="125.997" y1="47.9299" x2="145.364" y2="14.3733" gradientUnits="userSpaceOnUse">
<stop stop-color="#FFF626"/>
<stop offset="0.223958" stop-color="#ED2125"/>
<stop offset="0.520833" stop-color="#ED2125"/>
<stop offset="0.6875" stop-color="#ECC024"/>
<stop offset="0.833333" stop-color="#D22026"/>
<stop offset="1" stop-color="#971B1E"/>
</linearGradient>
</defs>
</svg>
