<svg width="400" height="201" viewBox="0 0 400 201" fill="none" xmlns="http://www.w3.org/2000/svg">
<g clip-path="url(#clip0_953_78)">
<rect y="0.5" width="400" height="200" rx="20" fill="url(#paint0_linear_953_78)"/>
<g filter="url(#filter0_f_953_78)">
<circle cx="105.942" cy="58.4424" r="27.9424" fill="#1C9FB0"/>
</g>
<g filter="url(#filter1_f_953_78)">
<circle cx="257.255" cy="89.7546" r="69.2546" fill="#14A1A3"/>
</g>
<path d="M38.728 50.14V44.908H41.68V51.604C39.928 53.02 37.48 53.74 35.104 53.74C29.896 53.74 26.056 50.116 26.056 45.1C26.056 40.084 29.896 36.46 35.152 36.46C37.96 36.46 40.312 37.396 41.896 39.196L39.928 41.116C38.608 39.796 37.096 39.196 35.296 39.196C31.72 39.196 29.2 41.62 29.2 45.1C29.2 48.508 31.72 51.004 35.272 51.004C36.472 51.004 37.648 50.764 38.728 50.14ZM48.3631 42.556C49.2271 41.212 50.7871 40.54 52.9231 40.54V43.396C52.6591 43.348 52.4431 43.324 52.2271 43.324C49.9471 43.324 48.5071 44.668 48.5071 47.284V53.5H45.5071V40.684H48.3631V42.556ZM61.1108 53.668C57.1748 53.668 54.2948 50.932 54.2948 47.092C54.2948 43.252 57.1748 40.54 61.1108 40.54C65.0948 40.54 67.9508 43.252 67.9508 47.092C67.9508 50.932 65.0948 53.668 61.1108 53.668ZM61.1108 51.1C63.2948 51.1 64.9268 49.54 64.9268 47.092C64.9268 44.644 63.2948 43.084 61.1108 43.084C58.9508 43.084 57.3188 44.644 57.3188 47.092C57.3188 49.54 58.9508 51.1 61.1108 51.1ZM87.796 40.684H90.46L85.732 53.5H82.852L79.54 44.668L76.18 53.5H73.3L68.596 40.684H71.428L74.812 50.14L78.34 40.684H80.86L84.316 50.188L87.796 40.684ZM108.564 40.684H111.564V53.5H108.708V51.868C107.748 53.044 106.236 53.668 104.58 53.668C101.292 53.668 99.0595 51.868 99.0595 48.004V40.684H102.06V47.596C102.06 49.924 103.164 51.028 105.06 51.028C107.148 51.028 108.564 49.732 108.564 47.164V40.684ZM122.595 40.54C126.339 40.54 129.099 43.132 129.099 47.092C129.099 51.076 126.339 53.668 122.595 53.668C120.963 53.668 119.523 53.116 118.491 51.94V58.156H115.491V40.684H118.347V42.364C119.355 41.14 120.843 40.54 122.595 40.54ZM122.259 51.1C124.419 51.1 126.051 49.54 126.051 47.092C126.051 44.644 124.419 43.084 122.259 43.084C120.099 43.084 118.443 44.644 118.443 47.092C118.443 49.54 120.099 51.1 122.259 51.1Z" fill="white"/>
<path d="M33.764 71.7H34.786V81.5H33.764V76.978H27.632V81.5H26.596V71.7H27.632V76.068H33.764V71.7ZM40.3507 74.08C42.2547 74.08 43.3327 75.032 43.3327 76.936V81.5H42.3807V80.352C41.9327 81.108 41.0647 81.57 39.8467 81.57C38.1807 81.57 37.1587 80.702 37.1587 79.428C37.1587 78.294 37.8867 77.342 40.0007 77.342H42.3387V76.894C42.3387 75.634 41.6247 74.948 40.2527 74.948C39.3007 74.948 38.4047 75.284 37.8027 75.816L37.3547 75.074C38.0967 74.444 39.1887 74.08 40.3507 74.08ZM40.0007 80.786C41.1207 80.786 41.9467 80.254 42.3387 79.288V78.084H40.0287C38.6007 78.084 38.1387 78.644 38.1387 79.4C38.1387 80.254 38.8247 80.786 40.0007 80.786ZM51.1038 74.136H52.0838L48.8078 81.5H47.7858L44.5238 74.136H45.5598L48.3178 80.408L51.1038 74.136ZM53.9877 72.526C53.5817 72.526 53.2597 72.204 53.2597 71.812C53.2597 71.434 53.5817 71.112 53.9877 71.112C54.3937 71.112 54.7157 71.42 54.7157 71.798C54.7157 72.204 54.4077 72.526 53.9877 72.526ZM53.4837 81.5V74.136H54.4777V81.5H53.4837ZM60.9954 74.08C62.7874 74.08 64.0194 75.116 64.0194 77.23V81.5H63.0254V77.328C63.0254 75.774 62.2134 74.976 60.8134 74.976C59.2314 74.976 58.2374 75.956 58.2374 77.636V81.5H57.2434V74.136H58.1954V75.494C58.7274 74.598 59.7214 74.08 60.9954 74.08ZM72.6114 74.136H73.5634V80.604C73.5634 83.138 72.3174 84.286 69.8814 84.286C68.5374 84.286 67.2214 83.88 66.4514 83.152L66.9554 82.396C67.6554 83.026 68.7194 83.404 69.8534 83.404C71.7154 83.404 72.5694 82.55 72.5694 80.73V79.792C71.9534 80.73 70.9034 81.22 69.6994 81.22C67.5994 81.22 66.0034 79.75 66.0034 77.636C66.0034 75.522 67.5994 74.08 69.6994 74.08C70.9314 74.08 71.9954 74.584 72.6114 75.55V74.136ZM69.7974 80.338C71.4214 80.338 72.5974 79.232 72.5974 77.636C72.5974 76.04 71.4214 74.948 69.7974 74.948C68.1734 74.948 67.0114 76.04 67.0114 77.636C67.0114 79.232 68.1734 80.338 69.7974 80.338ZM82.4431 71.882C81.5891 71.882 81.1411 72.358 81.1411 73.268V74.136H83.4091V74.976H81.1691V81.5H80.1751V74.976H78.8591V74.136H80.1751V73.226C80.1751 71.91 80.9591 71.042 82.4011 71.042C82.9471 71.042 83.5071 71.196 83.8711 71.504L83.5351 72.246C83.2551 72.008 82.8631 71.882 82.4431 71.882ZM90.3932 74.136H91.3872V81.5H90.4352V80.156C89.9172 81.052 88.9652 81.57 87.7892 81.57C85.9132 81.57 84.6812 80.52 84.6812 78.406V74.136H85.6752V78.308C85.6752 79.876 86.4872 80.674 87.8872 80.674C89.4272 80.674 90.3932 79.68 90.3932 78V74.136ZM97.9232 74.08C99.7152 74.08 100.947 75.116 100.947 77.23V81.5H99.9532V77.328C99.9532 75.774 99.1412 74.976 97.7412 74.976C96.1592 74.976 95.1652 75.956 95.1652 77.636V81.5H94.1712V74.136H95.1232V75.494C95.6552 74.598 96.6492 74.08 97.9232 74.08ZM109.886 74.08C111.79 74.08 112.868 75.032 112.868 76.936V81.5H111.916V80.352C111.468 81.108 110.6 81.57 109.382 81.57C107.716 81.57 106.694 80.702 106.694 79.428C106.694 78.294 107.422 77.342 109.536 77.342H111.874V76.894C111.874 75.634 111.16 74.948 109.788 74.948C108.836 74.948 107.94 75.284 107.338 75.816L106.89 75.074C107.632 74.444 108.724 74.08 109.886 74.08ZM109.536 80.786C110.656 80.786 111.482 80.254 111.874 79.288V78.084H109.564C108.136 78.084 107.674 78.644 107.674 79.4C107.674 80.254 108.36 80.786 109.536 80.786ZM119.32 74.08C121.112 74.08 122.344 75.116 122.344 77.23V81.5H121.35V77.328C121.35 75.774 120.538 74.976 119.138 74.976C117.556 74.976 116.562 75.956 116.562 77.636V81.5H115.568V74.136H116.52V75.494C117.052 74.598 118.046 74.08 119.32 74.08ZM130.796 71.112H131.79V81.5H130.838V80.044C130.236 81.038 129.214 81.57 127.996 81.57C125.896 81.57 124.328 80.044 124.328 77.818C124.328 75.592 125.896 74.08 127.996 74.08C129.172 74.08 130.18 74.584 130.796 75.536V71.112ZM128.08 80.688C129.634 80.688 130.81 79.54 130.81 77.818C130.81 76.096 129.634 74.948 128.08 74.948C126.512 74.948 125.336 76.096 125.336 77.818C125.336 79.54 126.512 80.688 128.08 80.688ZM142.016 74.08C144.116 74.08 145.684 75.592 145.684 77.818C145.684 80.058 144.116 81.57 142.016 81.57C140.84 81.57 139.832 81.066 139.216 80.114V84.216H138.222V74.136H139.174V75.592C139.776 74.612 140.798 74.08 142.016 74.08ZM141.946 80.688C143.5 80.688 144.69 79.54 144.69 77.818C144.69 76.11 143.5 74.948 141.946 74.948C140.378 74.948 139.202 76.11 139.202 77.818C139.202 79.54 140.378 80.688 141.946 80.688ZM147.71 81.5V71.112H148.704V81.5H147.71ZM154.046 74.08C155.95 74.08 157.028 75.032 157.028 76.936V81.5H156.076V80.352C155.628 81.108 154.76 81.57 153.542 81.57C151.876 81.57 150.854 80.702 150.854 79.428C150.854 78.294 151.582 77.342 153.696 77.342H156.034V76.894C156.034 75.634 155.32 74.948 153.948 74.948C152.996 74.948 152.1 75.284 151.498 75.816L151.05 75.074C151.792 74.444 152.884 74.08 154.046 74.08ZM153.696 80.786C154.816 80.786 155.642 80.254 156.034 79.288V78.084H153.724C152.296 78.084 151.834 78.644 151.834 79.4C151.834 80.254 152.52 80.786 153.696 80.786ZM164.799 74.136H165.779L162.097 82.382C161.481 83.824 160.697 84.286 159.647 84.286C158.961 84.286 158.303 84.062 157.855 83.614L158.317 82.872C158.681 83.236 159.129 83.432 159.661 83.432C160.319 83.432 160.767 83.124 161.187 82.2L161.509 81.486L158.219 74.136H159.255L162.027 80.394L164.799 74.136ZM167.683 72.526C167.277 72.526 166.955 72.204 166.955 71.812C166.955 71.434 167.277 71.112 167.683 71.112C168.089 71.112 168.411 71.42 168.411 71.798C168.411 72.204 168.103 72.526 167.683 72.526ZM167.179 81.5V74.136H168.173V81.5H167.179ZM174.691 74.08C176.483 74.08 177.715 75.116 177.715 77.23V81.5H176.721V77.328C176.721 75.774 175.909 74.976 174.509 74.976C172.927 74.976 171.933 75.956 171.933 77.636V81.5H170.939V74.136H171.891V75.494C172.423 74.598 173.417 74.08 174.691 74.08ZM186.307 74.136H187.259V80.604C187.259 83.138 186.013 84.286 183.577 84.286C182.233 84.286 180.917 83.88 180.147 83.152L180.651 82.396C181.351 83.026 182.415 83.404 183.549 83.404C185.411 83.404 186.265 82.55 186.265 80.73V79.792C185.649 80.73 184.599 81.22 183.395 81.22C181.295 81.22 179.699 79.75 179.699 77.636C179.699 75.522 181.295 74.08 183.395 74.08C184.627 74.08 185.691 74.584 186.307 75.55V74.136ZM183.493 80.338C185.117 80.338 186.293 79.232 186.293 77.636C186.293 76.04 185.117 74.948 183.493 74.948C181.869 74.948 180.707 76.04 180.707 77.636C180.707 79.232 181.869 80.338 183.493 80.338ZM32.252 94.136H33.204V100.604C33.204 103.138 31.958 104.286 29.522 104.286C28.178 104.286 26.862 103.88 26.092 103.152L26.596 102.396C27.296 103.026 28.36 103.404 29.494 103.404C31.356 103.404 32.21 102.55 32.21 100.73V99.792C31.594 100.73 30.544 101.22 29.34 101.22C27.24 101.22 25.644 99.75 25.644 97.636C25.644 95.522 27.24 94.08 29.34 94.08C30.572 94.08 31.636 94.584 32.252 95.55V94.136ZM29.438 100.338C31.062 100.338 32.238 99.232 32.238 97.636C32.238 96.04 31.062 94.948 29.438 94.948C27.814 94.948 26.652 96.04 26.652 97.636C26.652 99.232 27.814 100.338 29.438 100.338ZM38.5597 94.08C40.4637 94.08 41.5417 95.032 41.5417 96.936V101.5H40.5897V100.352C40.1417 101.108 39.2737 101.57 38.0557 101.57C36.3897 101.57 35.3677 100.702 35.3677 99.428C35.3677 98.294 36.0957 97.342 38.2097 97.342H40.5477V96.894C40.5477 95.634 39.8337 94.948 38.4617 94.948C37.5097 94.948 36.6137 95.284 36.0117 95.816L35.5637 95.074C36.3057 94.444 37.3977 94.08 38.5597 94.08ZM38.2097 100.786C39.3297 100.786 40.1557 100.254 40.5477 99.288V98.084H38.2377C36.8097 98.084 36.3477 98.644 36.3477 99.4C36.3477 100.254 37.0337 100.786 38.2097 100.786ZM53.4255 94.08C55.2175 94.08 56.3935 95.116 56.3935 97.23V101.5H55.3995V97.328C55.3995 95.774 54.6155 94.976 53.2855 94.976C51.7735 94.976 50.8215 95.956 50.8215 97.636V101.5H49.8275V97.328C49.8275 95.774 49.0435 94.976 47.6995 94.976C46.2015 94.976 45.2355 95.956 45.2355 97.636V101.5H44.2415V94.136H45.1935V95.48C45.7115 94.598 46.6635 94.08 47.8955 94.08C49.1135 94.08 50.0655 94.598 50.5135 95.634C51.0455 94.682 52.0955 94.08 53.4255 94.08ZM65.5425 97.818C65.5425 97.902 65.5285 98.014 65.5285 98.126H59.3685C59.4805 99.666 60.6565 100.688 62.2665 100.688C63.1625 100.688 63.9605 100.366 64.5205 99.722L65.0805 100.366C64.4225 101.15 63.4005 101.57 62.2385 101.57C59.9425 101.57 58.3745 100.002 58.3745 97.818C58.3745 95.634 59.9005 94.08 61.9725 94.08C64.0445 94.08 65.5425 95.606 65.5425 97.818ZM61.9725 94.934C60.5445 94.934 59.4945 95.942 59.3685 97.384H64.5905C64.4645 95.942 63.4145 94.934 61.9725 94.934ZM69.5397 101.57C68.3217 101.57 67.1457 101.178 66.5437 100.66L66.9917 99.876C67.5797 100.338 68.5737 100.702 69.6097 100.702C71.0097 100.702 71.5837 100.226 71.5837 99.498C71.5837 97.58 66.8097 99.092 66.8097 96.18C66.8097 94.976 67.8457 94.08 69.7217 94.08C70.6737 94.08 71.7097 94.346 72.3257 94.766L71.8917 95.564C71.2477 95.116 70.4777 94.934 69.7217 94.934C68.3917 94.934 67.8037 95.452 67.8037 96.152C67.8037 98.14 72.5777 96.642 72.5777 99.47C72.5777 100.744 71.4577 101.57 69.5397 101.57ZM87.9774 94.136H88.8874L86.1014 101.5H85.1634L82.8394 95.466L80.5154 101.5H79.5774L76.8054 94.136H77.7574L80.0674 100.394L82.4334 94.136H83.2874L85.6394 100.394L87.9774 94.136ZM90.888 92.526C90.482 92.526 90.16 92.204 90.16 91.812C90.16 91.434 90.482 91.112 90.888 91.112C91.294 91.112 91.616 91.42 91.616 91.798C91.616 92.204 91.308 92.526 90.888 92.526ZM90.384 101.5V94.136H91.378V101.5H90.384ZM97.6718 100.338L98.0218 101.052C97.6298 101.402 97.0418 101.57 96.4678 101.57C95.0818 101.57 94.3118 100.786 94.3118 99.428V94.976H92.9958V94.136H94.3118V92.526H95.3058V94.136H97.5458V94.976H95.3058V99.372C95.3058 100.24 95.7538 100.716 96.5798 100.716C96.9858 100.716 97.3918 100.59 97.6718 100.338ZM103.583 94.08C105.375 94.08 106.607 95.116 106.607 97.23V101.5H105.613V97.328C105.613 95.774 104.801 94.976 103.401 94.976C101.819 94.976 100.825 95.956 100.825 97.636V101.5H99.8313V91.112H100.825V95.424C101.371 94.57 102.337 94.08 103.583 94.08ZM115.406 91.882C114.552 91.882 114.104 92.358 114.104 93.268V94.136H116.372V94.976H114.132V101.5H113.138V94.976H111.822V94.136H113.138V93.226C113.138 91.91 113.922 91.042 115.364 91.042C115.91 91.042 116.47 91.196 116.834 91.504L116.498 92.246C116.218 92.008 115.826 91.882 115.406 91.882ZM119.787 95.578C120.249 94.598 121.187 94.08 122.545 94.08V95.046C122.461 95.046 122.377 95.032 122.307 95.032C120.767 95.032 119.829 96.012 119.829 97.748V101.5H118.835V94.136H119.787V95.578ZM124.849 92.526C124.443 92.526 124.121 92.204 124.121 91.812C124.121 91.434 124.443 91.112 124.849 91.112C125.255 91.112 125.577 91.42 125.577 91.798C125.577 92.204 125.269 92.526 124.849 92.526ZM124.345 101.5V94.136H125.339V101.5H124.345ZM134.531 97.818C134.531 97.902 134.517 98.014 134.517 98.126H128.357C128.469 99.666 129.645 100.688 131.255 100.688C132.151 100.688 132.949 100.366 133.509 99.722L134.069 100.366C133.411 101.15 132.389 101.57 131.227 101.57C128.931 101.57 127.363 100.002 127.363 97.818C127.363 95.634 128.889 94.08 130.961 94.08C133.033 94.08 134.531 95.606 134.531 97.818ZM130.961 94.934C129.533 94.934 128.483 95.942 128.357 97.384H133.579C133.453 95.942 132.403 94.934 130.961 94.934ZM140.306 94.08C142.098 94.08 143.33 95.116 143.33 97.23V101.5H142.336V97.328C142.336 95.774 141.524 94.976 140.124 94.976C138.542 94.976 137.548 95.956 137.548 97.636V101.5H136.554V94.136H137.506V95.494C138.038 94.598 139.032 94.08 140.306 94.08ZM151.782 91.112H152.776V101.5H151.824V100.044C151.222 101.038 150.2 101.57 148.982 101.57C146.882 101.57 145.314 100.044 145.314 97.818C145.314 95.592 146.882 94.08 148.982 94.08C150.158 94.08 151.166 94.584 151.782 95.536V91.112ZM149.066 100.688C150.62 100.688 151.796 99.54 151.796 97.818C151.796 96.096 150.62 94.948 149.066 94.948C147.498 94.948 146.322 96.096 146.322 97.818C146.322 99.54 147.498 100.688 149.066 100.688ZM157.518 101.57C156.3 101.57 155.124 101.178 154.522 100.66L154.97 99.876C155.558 100.338 156.552 100.702 157.588 100.702C158.988 100.702 159.562 100.226 159.562 99.498C159.562 97.58 154.788 99.092 154.788 96.18C154.788 94.976 155.824 94.08 157.7 94.08C158.652 94.08 159.688 94.346 160.304 94.766L159.87 95.564C159.226 95.116 158.456 94.934 157.7 94.934C156.37 94.934 155.782 95.452 155.782 96.152C155.782 98.14 160.556 96.642 160.556 99.47C160.556 100.744 159.436 101.57 157.518 101.57ZM166.562 92.526C166.156 92.526 165.834 92.204 165.834 91.812C165.834 91.434 166.156 91.112 166.562 91.112C166.968 91.112 167.29 91.42 167.29 91.798C167.29 92.204 166.982 92.526 166.562 92.526ZM166.058 101.5V94.136H167.052V101.5H166.058ZM171.792 101.57C170.574 101.57 169.398 101.178 168.796 100.66L169.244 99.876C169.832 100.338 170.826 100.702 171.862 100.702C173.262 100.702 173.836 100.226 173.836 99.498C173.836 97.58 169.062 99.092 169.062 96.18C169.062 94.976 170.098 94.08 171.974 94.08C172.926 94.08 173.962 94.346 174.578 94.766L174.144 95.564C173.5 95.116 172.73 94.934 171.974 94.934C170.644 94.934 170.056 95.452 170.056 96.152C170.056 98.14 174.83 96.642 174.83 99.47C174.83 100.744 173.71 101.57 171.792 101.57ZM32.812 117.818C32.812 117.902 32.798 118.014 32.798 118.126H26.638C26.75 119.666 27.926 120.688 29.536 120.688C30.432 120.688 31.23 120.366 31.79 119.722L32.35 120.366C31.692 121.15 30.67 121.57 29.508 121.57C27.212 121.57 25.644 120.002 25.644 117.818C25.644 115.634 27.17 114.08 29.242 114.08C31.314 114.08 32.812 115.606 32.812 117.818ZM29.242 114.934C27.814 114.934 26.764 115.942 26.638 117.384H31.86C31.734 115.942 30.684 114.934 29.242 114.934ZM36.8092 121.57C35.5912 121.57 34.4152 121.178 33.8132 120.66L34.2612 119.876C34.8492 120.338 35.8432 120.702 36.8792 120.702C38.2792 120.702 38.8532 120.226 38.8532 119.498C38.8532 117.58 34.0792 119.092 34.0792 116.18C34.0792 114.976 35.1152 114.08 36.9912 114.08C37.9432 114.08 38.9792 114.346 39.5952 114.766L39.1612 115.564C38.5172 115.116 37.7472 114.934 36.9912 114.934C35.6612 114.934 35.0732 115.452 35.0732 116.152C35.0732 118.14 39.8472 116.642 39.8472 119.47C39.8472 120.744 38.7272 121.57 36.8092 121.57ZM43.6588 121.57C42.4408 121.57 41.2648 121.178 40.6628 120.66L41.1108 119.876C41.6988 120.338 42.6928 120.702 43.7288 120.702C45.1288 120.702 45.7028 120.226 45.7028 119.498C45.7028 117.58 40.9288 119.092 40.9288 116.18C40.9288 114.976 41.9648 114.08 43.8408 114.08C44.7928 114.08 45.8288 114.346 46.4448 114.766L46.0108 115.564C45.3668 115.116 44.5968 114.934 43.8408 114.934C42.5108 114.934 41.9228 115.452 41.9228 116.152C41.9228 118.14 46.6968 116.642 46.6968 119.47C46.6968 120.744 45.5768 121.57 43.6588 121.57ZM54.9604 117.818C54.9604 117.902 54.9464 118.014 54.9464 118.126H48.7864C48.8984 119.666 50.0744 120.688 51.6844 120.688C52.5804 120.688 53.3784 120.366 53.9384 119.722L54.4984 120.366C53.8404 121.15 52.8184 121.57 51.6564 121.57C49.3604 121.57 47.7924 120.002 47.7924 117.818C47.7924 115.634 49.3184 114.08 51.3904 114.08C53.4624 114.08 54.9604 115.606 54.9604 117.818ZM51.3904 114.934C49.9624 114.934 48.9124 115.942 48.7864 117.384H54.0084C53.8824 115.942 52.8324 114.934 51.3904 114.934ZM60.7357 114.08C62.5277 114.08 63.7597 115.116 63.7597 117.23V121.5H62.7657V117.328C62.7657 115.774 61.9537 114.976 60.5537 114.976C58.9717 114.976 57.9777 115.956 57.9777 117.636V121.5H56.9837V114.136H57.9357V115.494C58.4677 114.598 59.4617 114.08 60.7357 114.08ZM69.9863 120.338L70.3363 121.052C69.9443 121.402 69.3563 121.57 68.7823 121.57C67.3963 121.57 66.6263 120.786 66.6263 119.428V114.976H65.3103V114.136H66.6263V112.526H67.6203V114.136H69.8603V114.976H67.6203V119.372C67.6203 120.24 68.0683 120.716 68.8943 120.716C69.3003 120.716 69.7063 120.59 69.9863 120.338ZM72.6498 112.526C72.2438 112.526 71.9218 112.204 71.9218 111.812C71.9218 111.434 72.2438 111.112 72.6498 111.112C73.0558 111.112 73.3778 111.42 73.3778 111.798C73.3778 112.204 73.0698 112.526 72.6498 112.526ZM72.1458 121.5V114.136H73.1398V121.5H72.1458ZM78.4815 114.08C80.3855 114.08 81.4635 115.032 81.4635 116.936V121.5H80.5115V120.352C80.0635 121.108 79.1955 121.57 77.9775 121.57C76.3115 121.57 75.2895 120.702 75.2895 119.428C75.2895 118.294 76.0175 117.342 78.1315 117.342H80.4695V116.894C80.4695 115.634 79.7555 114.948 78.3835 114.948C77.4315 114.948 76.5355 115.284 75.9335 115.816L75.4855 115.074C76.2275 114.444 77.3195 114.08 78.4815 114.08ZM78.1315 120.786C79.2515 120.786 80.0775 120.254 80.4695 119.288V118.084H78.1595C76.7315 118.084 76.2695 118.644 76.2695 119.4C76.2695 120.254 76.9555 120.786 78.1315 120.786ZM84.1633 121.5V111.112H85.1573V121.5H84.1633ZM95.1152 120.338L95.4652 121.052C95.0732 121.402 94.4852 121.57 93.9112 121.57C92.5252 121.57 91.7552 120.786 91.7552 119.428V114.976H90.4392V114.136H91.7552V112.526H92.7492V114.136H94.9892V114.976H92.7492V119.372C92.7492 120.24 93.1972 120.716 94.0232 120.716C94.4292 120.716 94.8352 120.59 95.1152 120.338ZM100.025 121.57C97.8689 121.57 96.2729 120.002 96.2729 117.818C96.2729 115.634 97.8689 114.08 100.025 114.08C102.181 114.08 103.763 115.634 103.763 117.818C103.763 120.002 102.181 121.57 100.025 121.57ZM100.025 120.688C101.593 120.688 102.755 119.54 102.755 117.818C102.755 116.096 101.593 114.948 100.025 114.948C98.4569 114.948 97.2809 116.096 97.2809 117.818C97.2809 119.54 98.4569 120.688 100.025 120.688ZM109.456 121.5V111.112H110.45V121.5H109.456ZM113.72 112.526C113.314 112.526 112.992 112.204 112.992 111.812C112.992 111.434 113.314 111.112 113.72 111.112C114.126 111.112 114.448 111.42 114.448 111.798C114.448 112.204 114.14 112.526 113.72 112.526ZM113.216 121.5V114.136H114.21V121.5H113.216ZM122.184 114.136H123.164L119.888 121.5H118.866L115.604 114.136H116.64L119.398 120.408L122.184 114.136ZM125.068 112.526C124.662 112.526 124.34 112.204 124.34 111.812C124.34 111.434 124.662 111.112 125.068 111.112C125.474 111.112 125.796 111.42 125.796 111.798C125.796 112.204 125.488 112.526 125.068 112.526ZM124.564 121.5V114.136H125.558V121.5H124.564ZM132.076 114.08C133.868 114.08 135.1 115.116 135.1 117.23V121.5H134.106V117.328C134.106 115.774 133.294 114.976 131.894 114.976C130.312 114.976 129.318 115.956 129.318 117.636V121.5H128.324V114.136H129.276V115.494C129.808 114.598 130.802 114.08 132.076 114.08ZM143.691 114.136H144.643V120.604C144.643 123.138 143.397 124.286 140.961 124.286C139.617 124.286 138.301 123.88 137.531 123.152L138.035 122.396C138.735 123.026 139.799 123.404 140.933 123.404C142.795 123.404 143.649 122.55 143.649 120.73V119.792C143.033 120.73 141.983 121.22 140.779 121.22C138.679 121.22 137.083 119.75 137.083 117.636C137.083 115.522 138.679 114.08 140.779 114.08C142.011 114.08 143.075 114.584 143.691 115.55V114.136ZM140.877 120.338C142.501 120.338 143.677 119.232 143.677 117.636C143.677 116.04 142.501 114.948 140.877 114.948C139.253 114.948 138.091 116.04 138.091 117.636C138.091 119.232 139.253 120.338 140.877 120.338ZM153.663 114.08C155.567 114.08 156.645 115.032 156.645 116.936V121.5H155.693V120.352C155.245 121.108 154.377 121.57 153.159 121.57C151.493 121.57 150.471 120.702 150.471 119.428C150.471 118.294 151.199 117.342 153.313 117.342H155.651V116.894C155.651 115.634 154.937 114.948 153.565 114.948C152.613 114.948 151.717 115.284 151.115 115.816L150.667 115.074C151.409 114.444 152.501 114.08 153.663 114.08ZM153.313 120.786C154.433 120.786 155.259 120.254 155.651 119.288V118.084H153.341C151.913 118.084 151.451 118.644 151.451 119.4C151.451 120.254 152.137 120.786 153.313 120.786ZM30.138 134.08C31.93 134.08 33.162 135.116 33.162 137.23V141.5H32.168V137.328C32.168 135.774 31.356 134.976 29.956 134.976C28.374 134.976 27.38 135.956 27.38 137.636V141.5H26.386V131.112H27.38V135.424C27.926 134.57 28.892 134.08 30.138 134.08ZM38.4366 134.08C40.3406 134.08 41.4186 135.032 41.4186 136.936V141.5H40.4666V140.352C40.0186 141.108 39.1506 141.57 37.9326 141.57C36.2666 141.57 35.2446 140.702 35.2446 139.428C35.2446 138.294 35.9726 137.342 38.0866 137.342H40.4246V136.894C40.4246 135.634 39.7106 134.948 38.3386 134.948C37.3866 134.948 36.4906 135.284 35.8886 135.816L35.4406 135.074C36.1826 134.444 37.2746 134.08 38.4366 134.08ZM38.0866 140.786C39.2066 140.786 40.0326 140.254 40.4246 139.288V138.084H38.1146C36.6866 138.084 36.2246 138.644 36.2246 139.4C36.2246 140.254 36.9106 140.786 38.0866 140.786ZM47.9124 134.08C50.0124 134.08 51.5804 135.592 51.5804 137.818C51.5804 140.058 50.0124 141.57 47.9124 141.57C46.7364 141.57 45.7284 141.066 45.1124 140.114V144.216H44.1184V134.136H45.0704V135.592C45.6724 134.612 46.6944 134.08 47.9124 134.08ZM47.8424 140.688C49.3964 140.688 50.5864 139.54 50.5864 137.818C50.5864 136.11 49.3964 134.948 47.8424 134.948C46.2744 134.948 45.0984 136.11 45.0984 137.818C45.0984 139.54 46.2744 140.688 47.8424 140.688ZM57.4007 134.08C59.5007 134.08 61.0687 135.592 61.0687 137.818C61.0687 140.058 59.5007 141.57 57.4007 141.57C56.2247 141.57 55.2167 141.066 54.6007 140.114V144.216H53.6067V134.136H54.5587V135.592C55.1607 134.612 56.1827 134.08 57.4007 134.08ZM57.3307 140.688C58.8847 140.688 60.0747 139.54 60.0747 137.818C60.0747 136.11 58.8847 134.948 57.3307 134.948C55.7627 134.948 54.5867 136.11 54.5867 137.818C54.5867 139.54 55.7627 140.688 57.3307 140.688ZM68.0979 134.136H69.0779L65.3959 142.382C64.7799 143.824 63.9959 144.286 62.9459 144.286C62.2599 144.286 61.6019 144.062 61.1539 143.614L61.6159 142.872C61.9799 143.236 62.4279 143.432 62.9599 143.432C63.6179 143.432 64.0659 143.124 64.4859 142.2L64.8079 141.486L61.5179 134.136H62.5539L65.3259 140.394L68.0979 134.136ZM74.1419 141.5V131.112H75.1359V141.5H74.1419ZM78.4056 132.526C77.9996 132.526 77.6776 132.204 77.6776 131.812C77.6776 131.434 77.9996 131.112 78.4056 131.112C78.8116 131.112 79.1336 131.42 79.1336 131.798C79.1336 132.204 78.8256 132.526 78.4056 132.526ZM77.9016 141.5V134.136H78.8956V141.5H77.9016ZM84.0974 131.882C83.2434 131.882 82.7954 132.358 82.7954 133.268V134.136H85.0634V134.976H82.8234V141.5H81.8294V134.976H80.5134V134.136H81.8294V133.226C81.8294 131.91 82.6134 131.042 84.0554 131.042C84.6014 131.042 85.1614 131.196 85.5254 131.504L85.1894 132.246C84.9094 132.008 84.5174 131.882 84.0974 131.882ZM92.7085 137.818C92.7085 137.902 92.6945 138.014 92.6945 138.126H86.5345C86.6465 139.666 87.8225 140.688 89.4325 140.688C90.3285 140.688 91.1265 140.366 91.6865 139.722L92.2465 140.366C91.5885 141.15 90.5665 141.57 89.4045 141.57C87.1085 141.57 85.5405 140.002 85.5405 137.818C85.5405 135.634 87.0665 134.08 89.1385 134.08C91.2105 134.08 92.7085 135.606 92.7085 137.818ZM89.1385 134.934C87.7105 134.934 86.6605 135.942 86.5345 137.384H91.7565C91.6305 135.942 90.5805 134.934 89.1385 134.934ZM94.8297 141.57C94.4237 141.57 94.0877 141.234 94.0877 140.8C94.0877 140.366 94.4237 140.044 94.8297 140.044C95.2357 140.044 95.5857 140.366 95.5857 140.8C95.5857 141.234 95.2357 141.57 94.8297 141.57Z" fill="#99EDFF"/>
<ellipse cx="264.643" cy="139.591" rx="57.7546" ry="4.69434" transform="rotate(-10.5 264.643 139.591)" fill="#045A55"/>
<g clip-path="url(#clip1_953_78)">
<g clip-path="url(#clip2_953_78)">
<path d="M281.538 75.3925V133.859L287.352 135.223V76.747L296.659 75.632L290.844 74.4434L281.538 75.3925Z" fill="url(#paint1_linear_953_78)"/>
<path d="M287.352 76.7458V135.222L296.659 133.858V75.6309L287.352 76.7458Z" fill="url(#paint2_linear_953_78)"/>
<path d="M281.538 75.3925L287.352 76.747L296.659 75.632L290.844 74.4434L281.538 75.3925Z" fill="#EFD9DC"/>
<path d="M268.692 86.3929V136.382L274.507 137.543V87.554L283.813 86.5956L277.999 85.582L268.692 86.3929Z" fill="url(#paint3_linear_953_78)"/>
<path d="M274.507 87.554V137.543L283.814 136.382V86.5957L274.507 87.554Z" fill="url(#paint4_linear_953_78)"/>
<path d="M268.692 86.3929L274.507 87.554L283.813 86.5956L277.999 85.582L268.692 86.3929Z" fill="#FAF3D9"/>
<path d="M255.912 98.0218V138.713L261.717 139.874V99.1829L271.024 98.2245L265.209 97.2109L255.912 98.0218Z" fill="url(#paint5_linear_953_78)"/>
<path d="M261.717 99.1829V139.874L271.024 138.713V98.2246L261.717 99.1829Z" fill="url(#paint6_linear_953_78)"/>
<path d="M255.912 98.0229L261.717 99.184L271.024 98.2256L265.348 97.2305L255.912 98.0229Z" fill="#FDFADA"/>
<path d="M243.122 109.291V141.036L248.927 142.197V110.452L258.234 109.503L252.42 108.48L243.122 109.291Z" fill="url(#paint7_linear_953_78)"/>
<path d="M248.927 110.453V142.197L258.234 141.036V109.504L248.927 110.453Z" fill="url(#paint8_linear_953_78)"/>
<path d="M243.122 109.293L248.927 110.454L258.234 109.505L252.558 108.51L243.122 109.293Z" fill="#FDFCEE"/>
<path d="M230.332 122.718V143.183L236.147 144.519V124.063L245.444 122.957L239.63 121.787L230.332 122.718Z" fill="url(#paint9_linear_953_78)"/>
<path d="M236.146 124.063V144.519L245.444 143.183V122.957L236.146 124.063Z" fill="url(#paint10_linear_953_78)"/>
<path d="M230.332 122.717L236.147 124.063L245.444 122.957L239.768 121.814L230.332 122.717Z" fill="#F4F6D7"/>
<path d="M216.381 133.711V144.52L222.196 145.69V134.872L231.493 133.914L225.679 132.9L216.381 133.711Z" fill="url(#paint11_linear_953_78)"/>
<path d="M222.196 134.872V145.69L231.493 144.52V133.914L222.196 134.872Z" fill="url(#paint12_linear_953_78)"/>
<path d="M216.381 133.71L222.196 134.871L231.493 133.913L225.817 132.918L216.381 133.71Z" fill="#F6F7DC"/>
<path d="M273.429 79.0132L276.728 64.9609L273.429 78.9947V79.0132Z" fill="#CE6E1F"/>
<path d="M211 115.788C226.342 112.582 259.736 100.667 271.475 76.608L271.401 71.8164C262.685 96.3087 221.274 113.641 211 115.788Z" fill="#BF574C"/>
<path d="M268.978 70.8301L268.711 70.9038L268.978 70.8301Z" fill="#CE6E1F"/>
<path d="M272.995 72.2679L274.82 64.5L264.757 72.2863L268.978 70.8304L268.757 71.2819C252.318 104.132 210.382 115.954 211 115.788C221.265 113.641 262.675 96.3087 271.401 71.8164L271.475 76.608L271.503 78.5522L272.479 74.378L272.977 72.2679H272.995Z" fill="url(#paint13_linear_953_78)"/>
<path d="M272.996 72.2679L272.498 74.3872L271.521 78.5522L273.355 79.2986L273.429 78.9945L276.727 64.9607L274.82 64.5L272.996 72.2679Z" fill="#BF574C"/>
<path d="M268.978 70.8301L264.758 72.286L266.38 72.8481L268.213 72.3228L268.978 70.8301Z" fill="#BF574C"/>
</g>
</g>
<g clip-path="url(#clip3_953_78)">
<rect x="292.849" y="30.3496" width="50" height="50" rx="25" transform="rotate(-30 292.849 30.3496)" fill="url(#paint14_radial_953_78)"/>
<g clip-path="url(#clip4_953_78)">
<g filter="url(#filter2_d_953_78)">
<path d="M339.094 37.7257C338.834 37.6559 338.562 37.6381 338.295 37.6732C338.028 37.7084 337.771 37.7958 337.537 37.9305C337.304 38.0652 337.1 38.2445 336.936 38.4582C336.772 38.672 336.651 38.9159 336.582 39.1762L336.194 40.6257L335.265 41.023L333.124 39.8424C332.768 39.6462 332.461 39.3729 332.225 39.0424C331.988 38.712 331.829 38.3328 331.759 37.9328L330.189 29.0623C330.095 28.5263 329.791 28.05 329.345 27.738C328.899 27.4261 328.347 27.304 327.811 27.3988C327.275 27.4936 326.799 27.7974 326.487 28.2434C326.175 28.6893 326.053 29.241 326.148 29.7769L326.506 31.8065C326.519 31.8829 326.509 31.9612 326.478 32.0322C326.447 32.1032 326.397 32.164 326.333 32.2073C326.269 32.2506 326.194 32.2746 326.116 32.2766C326.039 32.2786 325.963 32.2584 325.896 32.2185C325.622 32.0493 325.344 31.8933 325.062 31.7505C323.895 31.1632 322.721 30.8371 321.571 30.7814C320.279 30.7181 319.088 30.9961 318.03 31.6069C316.972 32.2178 316.135 33.1106 315.544 34.2612C315.018 35.2844 314.713 36.4645 314.638 37.7693C314.492 40.2571 315.204 42.9954 316.64 45.4823C318.075 47.9691 320.091 49.955 322.315 51.0739C323.483 51.6616 324.657 51.9878 325.807 52.0434C327.098 52.1064 328.289 51.8284 329.348 51.2173C330.406 50.6062 331.242 49.7136 331.834 48.5637C332.36 47.5405 332.665 46.3604 332.74 45.0551C332.754 44.8142 332.76 44.5707 332.757 44.3245L334.115 45.0736C335.154 45.6461 336.409 45.6931 337.562 45.2026C337.718 45.1356 337.871 45.0593 338.019 44.9741C338.961 44.4299 339.663 43.5412 339.936 42.5192L340.546 40.2367C340.616 39.9765 340.634 39.7051 340.598 39.438C340.563 39.171 340.475 38.9135 340.34 38.6803C340.205 38.4471 340.026 38.2428 339.812 38.079C339.598 37.9152 339.354 37.7952 339.094 37.7257ZM327.297 47.6641C325.643 48.619 322.319 47.1155 320.192 43.4315C318.065 39.7475 318.424 36.1166 320.077 35.1623C321.73 34.2079 325.054 35.7121 327.181 39.3961C329.308 43.0801 328.949 46.7105 327.296 47.6646L327.297 47.6641Z" fill="white"/>
</g>
</g>
</g>
<g clip-path="url(#clip5_953_78)">
<rect x="257.681" y="2.2207" width="30" height="30" rx="15" transform="rotate(9.5 257.681 2.2207)" fill="url(#paint15_radial_953_78)"/>
<g clip-path="url(#clip6_953_78)">
<path d="M273.825 14.8072L273.578 16.2866L275.501 16.6085L268.938 21.2895L267.091 18.699L261.91 22.3946L262.772 23.6035L266.744 20.7702L268.592 23.3607L276.363 17.8174L276.041 19.7406L277.521 19.9882L278.264 15.5499L273.825 14.8072Z" fill="white"/>
</g>
</g>
<g clip-path="url(#clip7_953_78)">
<rect x="367.535" y="54.3223" width="40" height="40" rx="20" transform="rotate(40 367.535 54.3223)" fill="url(#paint16_radial_953_78)"/>
<g clip-path="url(#clip8_953_78)">
<g clip-path="url(#clip9_953_78)">
<g filter="url(#filter3_d_953_78)">
<path d="M374.27 83.1716C375.281 82.9411 376.213 82.3886 376.905 81.5637C378.622 79.5179 378.354 76.4571 376.308 74.7405C373.899 72.7189 370.294 73.0343 368.273 75.4435L359.962 85.3478C359.477 85.9262 359.552 86.7886 360.131 87.2739C360.709 87.7593 361.571 87.6838 362.057 87.1054L363.874 84.9391C364.197 85.9014 364.779 86.7892 365.612 87.488L366.509 88.2408C368.555 89.9576 371.616 89.6898 373.333 87.6438C374.411 86.3587 374.707 84.6731 374.27 83.1716ZM368.267 86.1462L367.369 85.3933C366.115 84.3409 365.951 82.4643 367.004 81.21L370.367 77.2011C371.42 75.9469 373.296 75.7827 374.551 76.8351C375.441 77.5826 375.558 78.9153 374.811 79.8061C374.278 80.4413 373.418 80.7056 372.62 80.4794L371.901 80.2756C371.281 80.0997 370.622 80.3811 370.32 80.9508C370.018 81.5206 370.155 82.2238 370.649 82.6382L370.979 82.9144C371.87 83.6621 371.986 84.9952 371.239 85.8862C370.491 86.7772 369.158 86.8938 368.267 86.1462Z" fill="white"/>
</g>
</g>
</g>
</g>
</g>
<defs>
<filter id="filter0_f_953_78" x="18" y="-29.5" width="175.885" height="175.885" filterUnits="userSpaceOnUse" color-interpolation-filters="sRGB">
<feFlood flood-opacity="0" result="BackgroundImageFix"/>
<feBlend mode="normal" in="SourceGraphic" in2="BackgroundImageFix" result="shape"/>
<feGaussianBlur stdDeviation="30" result="effect1_foregroundBlur_953_78"/>
</filter>
<filter id="filter1_f_953_78" x="128" y="-39.5" width="258.509" height="258.51" filterUnits="userSpaceOnUse" color-interpolation-filters="sRGB">
<feFlood flood-opacity="0" result="BackgroundImageFix"/>
<feBlend mode="normal" in="SourceGraphic" in2="BackgroundImageFix" result="shape"/>
<feGaussianBlur stdDeviation="30" result="effect1_foregroundBlur_953_78"/>
</filter>
<filter id="filter2_d_953_78" x="309.619" y="24.3672" width="35.9971" height="34.6855" filterUnits="userSpaceOnUse" color-interpolation-filters="sRGB">
<feFlood flood-opacity="0" result="BackgroundImageFix"/>
<feColorMatrix in="SourceAlpha" type="matrix" values="0 0 0 0 0 0 0 0 0 0 0 0 0 0 0 0 0 0 127 0" result="hardAlpha"/>
<feOffset dy="2"/>
<feGaussianBlur stdDeviation="2.5"/>
<feComposite in2="hardAlpha" operator="out"/>
<feColorMatrix type="matrix" values="0 0 0 0 0.0123611 0 0 0 0 0.370833 0 0 0 0 0.0482083 0 0 0 0.2 0"/>
<feBlend mode="normal" in2="BackgroundImageFix" result="effect1_dropShadow_953_78"/>
<feBlend mode="normal" in="SourceGraphic" in2="effect1_dropShadow_953_78" result="shape"/>
</filter>
<filter id="filter3_d_953_78" x="355.642" y="71.4082" width="26.394" height="23.9629" filterUnits="userSpaceOnUse" color-interpolation-filters="sRGB">
<feFlood flood-opacity="0" result="BackgroundImageFix"/>
<feColorMatrix in="SourceAlpha" type="matrix" values="0 0 0 0 0 0 0 0 0 0 0 0 0 0 0 0 0 0 127 0" result="hardAlpha"/>
<feOffset dy="2"/>
<feGaussianBlur stdDeviation="2"/>
<feComposite in2="hardAlpha" operator="out"/>
<feColorMatrix type="matrix" values="0 0 0 0 0.0342882 0 0 0 0 0.0991615 0 0 0 0 0.329167 0 0 0 0.25 0"/>
<feBlend mode="normal" in2="BackgroundImageFix" result="effect1_dropShadow_953_78"/>
<feBlend mode="normal" in="SourceGraphic" in2="effect1_dropShadow_953_78" result="shape"/>
</filter>
<linearGradient id="paint0_linear_953_78" x1="200" y1="0.5" x2="200" y2="200.5" gradientUnits="userSpaceOnUse">
<stop stop-color="#003C65"/>
<stop offset="1" stop-color="#016A57"/>
</linearGradient>
<linearGradient id="paint1_linear_953_78" x1="296.659" y1="104.833" x2="281.538" y2="104.833" gradientUnits="userSpaceOnUse">
<stop stop-color="#C95C39"/>
<stop offset="1" stop-color="#C34233"/>
</linearGradient>
<linearGradient id="paint2_linear_953_78" x1="305.403" y1="86.7713" x2="290.54" y2="107.329" gradientUnits="userSpaceOnUse">
<stop stop-color="#C75323"/>
<stop offset="1" stop-color="#B32C1C"/>
</linearGradient>
<linearGradient id="paint3_linear_953_78" x1="283.813" y1="111.567" x2="268.692" y2="111.567" gradientUnits="userSpaceOnUse">
<stop stop-color="#E3B150"/>
<stop offset="1" stop-color="#D99443"/>
</linearGradient>
<linearGradient id="paint4_linear_953_78" x1="290.817" y1="95.8563" x2="277.889" y2="113.723" gradientUnits="userSpaceOnUse">
<stop stop-color="#DCA747"/>
<stop offset="1" stop-color="#C27E29"/>
</linearGradient>
<linearGradient id="paint5_linear_953_78" x1="271.024" y1="118.543" x2="255.912" y2="118.543" gradientUnits="userSpaceOnUse">
<stop stop-color="#F9E95B"/>
<stop offset="1" stop-color="#F5E05C"/>
</linearGradient>
<linearGradient id="paint6_linear_953_78" x1="276.138" y1="105.44" x2="265.301" y2="120.432" gradientUnits="userSpaceOnUse">
<stop stop-color="#EDDD57"/>
<stop offset="1" stop-color="#D1BD4A"/>
</linearGradient>
<linearGradient id="paint7_linear_953_78" x1="258.234" y1="125.343" x2="243.122" y2="125.343" gradientUnits="userSpaceOnUse">
<stop stop-color="#FBF8CA"/>
<stop offset="1" stop-color="#F4EC6D"/>
</linearGradient>
<linearGradient id="paint8_linear_953_78" x1="261.533" y1="114.747" x2="252.696" y2="126.966" gradientUnits="userSpaceOnUse">
<stop stop-color="#F3F2BD"/>
<stop offset="1" stop-color="#D8D354"/>
</linearGradient>
<linearGradient id="paint9_linear_953_78" x1="245.444" y1="133.158" x2="230.332" y2="133.158" gradientUnits="userSpaceOnUse">
<stop stop-color="#A5CAC1"/>
<stop offset="1" stop-color="#C8D46F"/>
</linearGradient>
<linearGradient id="paint10_linear_953_78" x1="246.476" y1="125.758" x2="240.136" y2="134.531" gradientUnits="userSpaceOnUse">
<stop stop-color="#E2E9B9"/>
<stop offset="1" stop-color="#A6C15F"/>
</linearGradient>
<linearGradient id="paint11_linear_953_78" x1="231.493" y1="139.295" x2="216.381" y2="139.295" gradientUnits="userSpaceOnUse">
<stop stop-color="#E9F0DC"/>
<stop offset="1" stop-color="#AEC774"/>
</linearGradient>
<linearGradient id="paint12_linear_953_78" x1="230.544" y1="134.578" x2="226.398" y2="140.309" gradientUnits="userSpaceOnUse">
<stop stop-color="#D4E3C8"/>
<stop offset="1" stop-color="#8AB462"/>
</linearGradient>
<linearGradient id="paint13_linear_953_78" x1="279.031" y1="62.4359" x2="197.896" y2="137.056" gradientUnits="userSpaceOnUse">
<stop stop-color="#C12F21"/>
<stop offset="0.08" stop-color="#C23224"/>
<stop offset="0.14" stop-color="#C53D30"/>
<stop offset="0.21" stop-color="#CA5044"/>
<stop offset="0.28" stop-color="#D26A5F"/>
<stop offset="0.35" stop-color="#DC8B83"/>
<stop offset="0.42" stop-color="#E8B4AF"/>
<stop offset="0.48" stop-color="#F6E3E1"/>
<stop offset="0.52" stop-color="white"/>
<stop offset="1" stop-color="#C02721"/>
</linearGradient>
<radialGradient id="paint14_radial_953_78" cx="0" cy="0" r="1" gradientUnits="userSpaceOnUse" gradientTransform="translate(338.822 55.3496) rotate(129.993) scale(32.6318)">
<stop stop-color="#D0FFEE"/>
<stop offset="0.677083" stop-color="#33BB6A"/>
<stop offset="1" stop-color="#008235"/>
</radialGradient>
<radialGradient id="paint15_radial_953_78" cx="0" cy="0" r="1" gradientUnits="userSpaceOnUse" gradientTransform="translate(285.265 17.2207) rotate(129.993) scale(19.5791)">
<stop stop-color="#FEFFD0"/>
<stop offset="0.677083" stop-color="#F8A72E"/>
<stop offset="1" stop-color="#BD7202"/>
</radialGradient>
<radialGradient id="paint16_radial_953_78" cx="0" cy="0" r="1" gradientUnits="userSpaceOnUse" gradientTransform="translate(367.535 71.7832) rotate(48.4158) scale(30.1332)">
<stop stop-color="#C9EDFF"/>
<stop offset="0.677083" stop-color="#337ABB"/>
<stop offset="1" stop-color="#002482"/>
</radialGradient>
<clipPath id="clip0_953_78">
<rect y="0.5" width="400" height="200" rx="20" fill="white"/>
</clipPath>
<clipPath id="clip1_953_78">
<rect x="211" y="64.5" width="105" height="91.0584" rx="45.5292" fill="white"/>
</clipPath>
<clipPath id="clip2_953_78">
<rect width="105" height="91.0584" fill="white" transform="translate(211 64.5)"/>
</clipPath>
<clipPath id="clip3_953_78">
<rect x="292.849" y="30.3496" width="50" height="50" rx="25" transform="rotate(-30 292.849 30.3496)" fill="white"/>
</clipPath>
<clipPath id="clip4_953_78">
<rect width="33.9264" height="32.6421" fill="white" transform="translate(304.149 33.8477) rotate(-30)"/>
</clipPath>
<clipPath id="clip5_953_78">
<rect x="257.681" y="2.2207" width="30" height="30" rx="15" transform="rotate(9.5 257.681 2.2207)" fill="white"/>
</clipPath>
<clipPath id="clip6_953_78">
<rect width="15" height="15" fill="white" transform="translate(263.841 10.8555) rotate(9.5)"/>
</clipPath>
<clipPath id="clip7_953_78">
<rect x="367.535" y="54.3223" width="40" height="40" rx="20" transform="rotate(40 367.535 54.3223)" fill="white"/>
</clipPath>
<clipPath id="clip8_953_78">
<rect width="31.7188" height="40" fill="white" transform="translate(370.707 56.9844) rotate(40)"/>
</clipPath>
<clipPath id="clip9_953_78">
<rect width="21.7188" height="30" fill="white" transform="translate(371.323 64.0293) rotate(40)"/>
</clipPath>
</defs>
</svg>
