<svg width="410" height="60" viewBox="0 0 410 60" fill="none" xmlns="http://www.w3.org/2000/svg">
<g clip-path="url(#clip0_1005_5506)">
<rect width="410" height="60" fill="url(#paint0_linear_1005_5506)"/>
<g opacity="0.5">
<path d="M440.815 -132.908H-46.3919V191.888H440.815V-132.908Z" fill="url(#paint1_radial_1005_5506)"/>
<mask id="mask0_1005_5506" style="mask-type:luminance" maskUnits="userSpaceOnUse" x="-47" y="-133" width="488" height="325">
<path d="M440.815 -132.908H-46.3919V191.888H440.815V-132.908Z" fill="white"/>
</mask>
<g mask="url(#mask0_1005_5506)">
<path d="M96.8752 75.0118L24.0335 67.2702L30.3206 56.1738L-34.8733 59.857L17.7464 66.1441L9.04288 81.5336L96.8752 75.0118Z" fill="url(#paint2_radial_1005_5506)"/>
<g style="mix-blend-mode:overlay" opacity="0.29">
<path d="M3.24834 1.91306C4.10346 1.91306 4.79666 1.21984 4.79666 0.364724C4.79666 -0.490394 4.10346 -1.18359 3.24834 -1.18359C2.39322 -1.18359 1.70001 -0.490394 1.70001 0.364724C1.70001 1.21984 2.39322 1.91306 3.24834 1.91306Z" fill="white"/>
<path d="M11.5999 0.858606C12.5198 0.858606 13.2656 0.112864 13.2656 -0.807034C13.2656 -1.72693 12.5198 -2.47266 11.5999 -2.47266C10.68 -2.47266 9.93433 -1.72693 9.93433 -0.807034C9.93433 0.112864 10.68 0.858606 11.5999 0.858606Z" fill="white"/>
<path d="M3.24834 12.165C4.10346 12.165 4.79666 11.4718 4.79666 10.6167C4.79666 9.76156 4.10346 9.06836 3.24834 9.06836C2.39322 9.06836 1.70001 9.76156 1.70001 10.6167C1.70001 11.4718 2.39322 12.165 3.24834 12.165Z" fill="white"/>
<path d="M11.5999 11.1105C12.5198 11.1105 13.2656 10.3648 13.2656 9.44492C13.2656 8.52502 12.5198 7.7793 11.5999 7.7793C10.68 7.7793 9.93433 8.52502 9.93433 9.44492C9.93433 10.3648 10.68 11.1105 11.5999 11.1105Z" fill="white"/>
<path d="M19.9749 10.0541C20.9596 10.0541 21.7579 9.25589 21.7579 8.27121C21.7579 7.28653 20.9596 6.48828 19.9749 6.48828C18.9903 6.48828 18.192 7.28653 18.192 8.27121C18.192 9.25589 18.9903 10.0541 19.9749 10.0541Z" fill="white"/>
<path d="M28.3266 8.97427C29.376 8.97427 30.2268 8.1235 30.2268 7.07404C30.2268 6.02458 29.376 5.17383 28.3266 5.17383C27.2771 5.17383 26.4263 6.02458 26.4263 7.07404C26.4263 8.1235 27.2771 8.97427 28.3266 8.97427Z" fill="white"/>
<path d="M36.7016 7.9198C37.8158 7.9198 38.7191 7.01653 38.7191 5.90228C38.7191 4.78804 37.8158 3.88477 36.7016 3.88477C35.5874 3.88477 34.6841 4.78804 34.6841 5.90228C34.6841 7.01653 35.5874 7.9198 36.7016 7.9198Z" fill="white"/>
<path d="M45.0532 6.81641C46.2063 6.81641 47.1411 5.88163 47.1411 4.72852C47.1411 3.57541 46.2063 2.64062 45.0532 2.64062C43.9001 2.64062 42.9653 3.57541 42.9653 4.72852C42.9653 5.88163 43.9001 6.81641 45.0532 6.81641Z" fill="white"/>
<path d="M53.4282 5.73651C54.6331 5.73651 55.6099 4.75972 55.6099 3.55478C55.6099 2.34984 54.6331 1.37305 53.4282 1.37305C52.2233 1.37305 51.2465 2.34984 51.2465 3.55478C51.2465 4.75972 52.2233 5.73651 53.4282 5.73651Z" fill="white"/>
<path d="M61.7798 4.65857C63.0365 4.65857 64.0554 3.63976 64.0554 2.383C64.0554 1.12623 63.0365 0.107422 61.7798 0.107422C60.523 0.107422 59.5042 1.12623 59.5042 2.383C59.5042 3.63976 60.523 4.65857 61.7798 4.65857Z" fill="white"/>
<path d="M70.1548 3.55518C71.4504 3.55518 72.5007 2.50486 72.5007 1.20923C72.5007 -0.0864015 71.4504 -1.13672 70.1548 -1.13672C68.8592 -1.13672 67.8088 -0.0864015 67.8088 1.20923C67.8088 2.50486 68.8592 3.55518 70.1548 3.55518Z" fill="white"/>
<path d="M78.5064 2.47723C79.8538 2.47723 80.9462 1.3849 80.9462 0.0374455C80.9462 -1.31001 79.8538 -2.40234 78.5064 -2.40234C77.1589 -2.40234 76.0666 -1.31001 76.0666 0.0374455C76.0666 1.3849 77.1589 2.47723 78.5064 2.47723Z" fill="white"/>
<path d="M86.8815 1.35037C88.2548 1.35037 89.3682 0.237024 89.3682 -1.13635C89.3682 -2.50972 88.2548 -3.62305 86.8815 -3.62305C85.5081 -3.62305 84.3948 -2.50972 84.3948 -1.13635C84.3948 0.237024 85.5081 1.35037 86.8815 1.35037Z" fill="white"/>
<path d="M95.233 0.246983C96.6452 0.246983 97.7901 -0.897873 97.7901 -2.31011C97.7901 -3.72235 96.6452 -4.86719 95.233 -4.86719C93.8207 -4.86719 92.6759 -3.72235 92.6759 -2.31011C92.6759 -0.897873 93.8207 0.246983 95.233 0.246983Z" fill="white"/>
<path d="M3.24834 22.417C4.10346 22.417 4.79666 21.7238 4.79666 20.8686C4.79666 20.0135 4.10346 19.3203 3.24834 19.3203C2.39322 19.3203 1.70001 20.0135 1.70001 20.8686C1.70001 21.7238 2.39322 22.417 3.24834 22.417Z" fill="white"/>
<path d="M11.5999 21.3605C12.5198 21.3605 13.2656 20.6148 13.2656 19.6949C13.2656 18.775 12.5198 18.0293 11.5999 18.0293C10.68 18.0293 9.93433 18.775 9.93433 19.6949C9.93433 20.6148 10.68 21.3605 11.5999 21.3605Z" fill="white"/>
<path d="M19.9749 20.3061C20.9596 20.3061 21.7579 19.5078 21.7579 18.5232C21.7579 17.5385 20.9596 16.7402 19.9749 16.7402C18.9903 16.7402 18.192 17.5385 18.192 18.5232C18.192 19.5078 18.9903 20.3061 19.9749 20.3061Z" fill="white"/>
<path d="M28.3266 19.2497C29.376 19.2497 30.2268 18.3989 30.2268 17.3494C30.2268 16.3 29.376 15.4492 28.3266 15.4492C27.2771 15.4492 26.4263 16.3 26.4263 17.3494C26.4263 18.3989 27.2771 19.2497 28.3266 19.2497Z" fill="white"/>
<path d="M36.7016 18.1718C37.8158 18.1718 38.7191 17.2685 38.7191 16.1542C38.7191 15.04 37.8158 14.1367 36.7016 14.1367C35.5874 14.1367 34.6841 15.04 34.6841 16.1542C34.6841 17.2685 35.5874 18.1718 36.7016 18.1718Z" fill="white"/>
<path d="M45.0532 17.0684C46.2063 17.0684 47.1411 16.1336 47.1411 14.9805C47.1411 13.8274 46.2063 12.8926 45.0532 12.8926C43.9001 12.8926 42.9653 13.8274 42.9653 14.9805C42.9653 16.1336 43.9001 17.0684 45.0532 17.0684Z" fill="white"/>
<path d="M53.4282 15.9885C54.6331 15.9885 55.6099 15.0117 55.6099 13.8067C55.6099 12.6018 54.6331 11.625 53.4282 11.625C52.2233 11.625 51.2465 12.6018 51.2465 13.8067C51.2465 15.0117 52.2233 15.9885 53.4282 15.9885Z" fill="white"/>
<path d="M61.7798 14.9105C63.0365 14.9105 64.0554 13.8917 64.0554 12.6349C64.0554 11.3782 63.0365 10.3594 61.7798 10.3594C60.523 10.3594 59.5042 11.3782 59.5042 12.6349C59.5042 13.8917 60.523 14.9105 61.7798 14.9105Z" fill="white"/>
<path d="M70.1548 13.8071C71.4504 13.8071 72.5007 12.7568 72.5007 11.4612C72.5007 10.1656 71.4504 9.11523 70.1548 9.11523C68.8592 9.11523 67.8088 10.1656 67.8088 11.4612C67.8088 12.7568 68.8592 13.8071 70.1548 13.8071Z" fill="white"/>
<path d="M78.5064 12.7292C79.8538 12.7292 80.9462 11.6369 80.9462 10.2894C80.9462 8.94194 79.8538 7.84961 78.5064 7.84961C77.1589 7.84961 76.0666 8.94194 76.0666 10.2894C76.0666 11.6369 77.1589 12.7292 78.5064 12.7292Z" fill="white"/>
<path d="M86.8815 11.6023C88.2548 11.6023 89.3682 10.489 89.3682 9.11561C89.3682 7.74224 88.2548 6.62891 86.8815 6.62891C85.5081 6.62891 84.3948 7.74224 84.3948 9.11561C84.3948 10.489 85.5081 11.6023 86.8815 11.6023Z" fill="white"/>
<path d="M95.233 10.4989C96.6452 10.4989 97.7901 9.3541 97.7901 7.94186C97.7901 6.52962 96.6452 5.38477 95.233 5.38477C93.8207 5.38477 92.6759 6.52962 92.6759 7.94186C92.6759 9.3541 93.8207 10.4989 95.233 10.4989Z" fill="white"/>
<path d="M103.608 9.37403C105.046 9.37403 106.212 8.20817 106.212 6.77002C106.212 5.33187 105.046 4.16602 103.608 4.16602C102.17 4.16602 101.004 5.33187 101.004 6.77002C101.004 8.20817 102.17 9.37403 103.608 9.37403Z" fill="white"/>
<path d="M111.96 8.24715C113.424 8.24715 114.611 7.06029 114.611 5.59623C114.611 4.13216 113.424 2.94531 111.96 2.94531C110.496 2.94531 109.309 4.13216 109.309 5.59623C109.309 7.06029 110.496 8.24715 111.96 8.24715Z" fill="white"/>
<path d="M120.335 7.09882C121.825 7.09882 123.033 5.89095 123.033 4.40097C123.033 2.91099 121.825 1.70312 120.335 1.70312C118.845 1.70312 117.637 2.91099 117.637 4.40097C117.637 5.89095 118.845 7.09882 120.335 7.09882Z" fill="white"/>
<path d="M128.686 5.99537C127.161 5.99537 125.942 4.75202 125.942 3.25062C125.942 1.74921 127.185 0.505859 128.686 0.505859C130.188 0.505859 131.431 1.74921 131.431 3.25062C131.431 4.75202 130.188 5.99537 128.686 5.99537Z" fill="white"/>
<path d="M137.061 4.84507C138.603 4.84507 139.853 3.59519 139.853 2.05339C139.853 0.511584 138.603 -0.738281 137.061 -0.738281C135.52 -0.738281 134.27 0.511584 134.27 2.05339C134.27 3.59519 135.52 4.84507 137.061 4.84507Z" fill="white"/>
<path d="M145.413 3.69669C146.968 3.69669 148.228 2.4363 148.228 0.881538C148.228 -0.67322 146.968 -1.93359 145.413 -1.93359C143.858 -1.93359 142.598 -0.67322 142.598 0.881538C142.598 2.4363 143.858 3.69669 145.413 3.69669Z" fill="white"/>
<path d="M153.764 2.54633C152.193 2.54633 150.926 1.27952 150.926 -0.292263C150.926 -1.86405 152.193 -3.13086 153.764 -3.13086C155.336 -3.13086 156.603 -1.86405 156.603 -0.292263C156.603 1.27952 155.336 2.54633 153.764 2.54633Z" fill="white"/>
<path d="M162.14 1.37449C160.568 1.37449 159.277 0.107697 159.277 -1.48755C159.277 -3.08279 160.544 -4.34961 162.14 -4.34961C163.735 -4.34961 165.002 -3.08279 165.002 -1.48755C165.002 0.107697 163.735 1.37449 162.14 1.37449Z" fill="white"/>
<path d="M170.491 0.224123C168.896 0.224123 167.629 -1.06615 167.629 -2.63794C167.629 -4.20973 168.919 -5.5 170.491 -5.5C172.063 -5.5 173.353 -4.20973 173.353 -2.63794C173.353 -1.06615 172.063 0.224123 170.491 0.224123Z" fill="white"/>
<path d="M3.24834 32.6689C4.10346 32.6689 4.79666 31.9757 4.79666 31.1206C4.79666 30.2655 4.10346 29.5723 3.24834 29.5723C2.39322 29.5723 1.70001 30.2655 1.70001 31.1206C1.70001 31.9757 2.39322 32.6689 3.24834 32.6689Z" fill="white"/>
<path d="M11.5999 31.6125C12.5198 31.6125 13.2656 30.8668 13.2656 29.9469C13.2656 29.027 12.5198 28.2812 11.5999 28.2812C10.68 28.2812 9.93433 29.027 9.93433 29.9469C9.93433 30.8668 10.68 31.6125 11.5999 31.6125Z" fill="white"/>
<path d="M19.9749 30.558C20.9596 30.558 21.7579 29.7598 21.7579 28.7751C21.7579 27.7904 20.9596 26.9922 19.9749 26.9922C18.9903 26.9922 18.192 27.7904 18.192 28.7751C18.192 29.7598 18.9903 30.558 19.9749 30.558Z" fill="white"/>
<path d="M28.3266 29.5016C29.376 29.5016 30.2268 28.6508 30.2268 27.6014C30.2268 26.5519 29.376 25.7012 28.3266 25.7012C27.2771 25.7012 26.4263 26.5519 26.4263 27.6014C26.4263 28.6508 27.2771 29.5016 28.3266 29.5016Z" fill="white"/>
<path d="M36.7016 28.4471C37.8158 28.4471 38.7191 27.5439 38.7191 26.4296C38.7191 25.3154 37.8158 24.4121 36.7016 24.4121C35.5874 24.4121 34.6841 25.3154 34.6841 26.4296C34.6841 27.5439 35.5874 28.4471 36.7016 28.4471Z" fill="white"/>
<path d="M45.0532 27.3203C46.2063 27.3203 47.1411 26.3855 47.1411 25.2324C47.1411 24.0793 46.2063 23.1445 45.0532 23.1445C43.9001 23.1445 42.9653 24.0793 42.9653 25.2324C42.9653 26.3855 43.9001 27.3203 45.0532 27.3203Z" fill="white"/>
<path d="M53.4282 26.2404C54.6331 26.2404 55.6099 25.2636 55.6099 24.0587C55.6099 22.8537 54.6331 21.877 53.4282 21.877C52.2233 21.877 51.2465 22.8537 51.2465 24.0587C51.2465 25.2636 52.2233 26.2404 53.4282 26.2404Z" fill="white"/>
<path d="M61.7798 25.1625C63.0365 25.1625 64.0554 24.1437 64.0554 22.8869C64.0554 21.6301 63.0365 20.6113 61.7798 20.6113C60.523 20.6113 59.5042 21.6301 59.5042 22.8869C59.5042 24.1437 60.523 25.1625 61.7798 25.1625Z" fill="white"/>
<path d="M70.1548 24.0591C71.4504 24.0591 72.5007 23.0088 72.5007 21.7131C72.5007 20.4175 71.4504 19.3672 70.1548 19.3672C68.8592 19.3672 67.8088 20.4175 67.8088 21.7131C67.8088 23.0088 68.8592 24.0591 70.1548 24.0591Z" fill="white"/>
<path d="M78.5064 22.9811C79.8538 22.9811 80.9462 21.8888 80.9462 20.5414C80.9462 19.1939 79.8538 18.1016 78.5064 18.1016C77.1589 18.1016 76.0666 19.1939 76.0666 20.5414C76.0666 21.8888 77.1589 22.9811 78.5064 22.9811Z" fill="white"/>
<path d="M86.8815 21.8543C88.2548 21.8543 89.3682 20.7409 89.3682 19.3676C89.3682 17.9942 88.2548 16.8809 86.8815 16.8809C85.5081 16.8809 84.3948 17.9942 84.3948 19.3676C84.3948 20.7409 85.5081 21.8543 86.8815 21.8543Z" fill="white"/>
<path d="M95.233 20.7509C96.6452 20.7509 97.7901 19.6061 97.7901 18.1938C97.7901 16.7816 96.6452 15.6367 95.233 15.6367C93.8207 15.6367 92.6759 16.7816 92.6759 18.1938C92.6759 19.6061 93.8207 20.7509 95.233 20.7509Z" fill="white"/>
<path d="M103.608 19.626C105.046 19.626 106.212 18.4601 106.212 17.022C106.212 15.5838 105.046 14.418 103.608 14.418C102.17 14.418 101.004 15.5838 101.004 17.022C101.004 18.4601 102.17 19.626 103.608 19.626Z" fill="white"/>
<path d="M111.96 18.4991C113.424 18.4991 114.611 17.3123 114.611 15.8482C114.611 14.3841 113.424 13.1973 111.96 13.1973C110.496 13.1973 109.309 14.3841 109.309 15.8482C109.309 17.3123 110.496 18.4991 111.96 18.4991Z" fill="white"/>
<path d="M120.335 17.3742C121.825 17.3742 123.033 16.1663 123.033 14.6764C123.033 13.1864 121.825 11.9785 120.335 11.9785C118.845 11.9785 117.637 13.1864 117.637 14.6764C117.637 16.1663 118.845 17.3742 120.335 17.3742Z" fill="white"/>
<path d="M128.686 16.2473C127.161 16.2473 125.942 15.004 125.942 13.5026C125.942 12.0012 127.185 10.7578 128.686 10.7578C130.188 10.7578 131.431 12.0012 131.431 13.5026C131.431 15.004 130.188 16.2473 128.686 16.2473Z" fill="white"/>
<path d="M137.061 15.097C138.603 15.097 139.853 13.8472 139.853 12.3054C139.853 10.7636 138.603 9.51367 137.061 9.51367C135.52 9.51367 134.27 10.7636 134.27 12.3054C134.27 13.8472 135.52 15.097 137.061 15.097Z" fill="white"/>
<path d="M145.413 13.9486C146.968 13.9486 148.228 12.6883 148.228 11.1335C148.228 9.57875 146.968 8.31836 145.413 8.31836C143.858 8.31836 142.598 9.57875 142.598 11.1335C142.598 12.6883 143.858 13.9486 145.413 13.9486Z" fill="white"/>
<path d="M153.764 12.7983C152.193 12.7983 150.926 11.5315 150.926 9.95969C150.926 8.3879 152.193 7.12109 153.764 7.12109C155.336 7.12109 156.603 8.3879 156.603 9.95969C156.603 11.5315 155.336 12.7983 153.764 12.7983Z" fill="white"/>
<path d="M162.14 11.6499C160.568 11.6499 159.277 10.3831 159.277 8.78784C159.277 7.1926 160.544 5.92578 162.14 5.92578C163.735 5.92578 165.002 7.1926 165.002 8.78784C165.002 10.3831 163.735 11.6499 162.14 11.6499Z" fill="white"/>
<path d="M170.491 10.4761C172.072 10.4761 173.353 9.19469 173.353 7.61401C173.353 6.03334 172.072 4.75195 170.491 4.75195C168.91 4.75195 167.629 6.03334 167.629 7.61401C167.629 9.19469 168.91 10.4761 170.491 10.4761Z" fill="white"/>
<path d="M178.866 9.32767C180.46 9.32767 181.752 8.03579 181.752 6.44217C181.752 4.84854 180.46 3.55664 178.866 3.55664C177.272 3.55664 175.981 4.84854 175.981 6.44217C175.981 8.03579 177.272 9.32767 178.866 9.32767Z" fill="white"/>
<path d="M187.218 8.17732C188.824 8.17732 190.127 6.87493 190.127 5.26835C190.127 3.66176 188.824 2.35938 187.218 2.35938C185.611 2.35938 184.309 3.66176 184.309 5.26835C184.309 6.87493 185.611 8.17732 187.218 8.17732Z" fill="white"/>
<path d="M195.593 7.00349C197.199 7.00349 198.502 5.7011 198.502 4.09452C198.502 2.48794 197.199 1.18555 195.593 1.18555C193.986 1.18555 192.684 2.48794 192.684 4.09452C192.684 5.7011 193.986 7.00349 195.593 7.00349Z" fill="white"/>
<path d="M206.752 3.6561C207.164 2.10332 206.24 0.510317 204.687 0.0980245C203.134 -0.314268 201.541 0.610277 201.129 2.16306C200.717 3.71584 201.641 5.30884 203.194 5.72113C204.747 6.13342 206.34 5.20888 206.752 3.6561Z" fill="white"/>
<path d="M212.319 4.61088C213.913 4.61088 215.205 3.31898 215.205 1.72535C215.205 0.131724 213.913 -1.16016 212.319 -1.16016C210.726 -1.16016 209.434 0.131724 209.434 1.72535C209.434 3.31898 210.726 4.61088 212.319 4.61088Z" fill="white"/>
<path d="M220.671 3.439C222.265 3.439 223.556 2.1471 223.556 0.553477C223.556 -1.04015 222.265 -2.33203 220.671 -2.33203C219.077 -2.33203 217.785 -1.04015 217.785 0.553477C217.785 2.1471 219.077 3.439 220.671 3.439Z" fill="white"/>
<path d="M229.046 2.2417C230.627 2.2417 231.908 0.96031 231.908 -0.620361C231.908 -2.20103 230.627 -3.48242 229.046 -3.48242C227.465 -3.48242 226.184 -2.20103 226.184 -0.620361C226.184 0.96031 227.465 2.2417 229.046 2.2417Z" fill="white"/>
<path d="M237.398 1.04633C235.826 1.04633 234.559 -0.220477 234.559 -1.79226C234.559 -3.36405 235.826 -4.63086 237.398 -4.63086C238.969 -4.63086 240.236 -3.36405 240.236 -1.79226C240.236 -0.220477 238.969 1.04633 237.398 1.04633Z" fill="white"/>
<path d="M3.24834 42.9209C4.10346 42.9209 4.79666 42.2277 4.79666 41.3726C4.79666 40.5174 4.10346 39.8242 3.24834 39.8242C2.39322 39.8242 1.70001 40.5174 1.70001 41.3726C1.70001 42.2277 2.39322 42.9209 3.24834 42.9209Z" fill="white"/>
<path d="M11.5999 41.8644C12.5198 41.8644 13.2656 41.1187 13.2656 40.1988C13.2656 39.2789 12.5198 38.5332 11.5999 38.5332C10.68 38.5332 9.93433 39.2789 9.93433 40.1988C9.93433 41.1187 10.68 41.8644 11.5999 41.8644Z" fill="white"/>
<path d="M19.9749 40.81C20.9596 40.81 21.7579 40.0117 21.7579 39.0271C21.7579 38.0424 20.9596 37.2441 19.9749 37.2441C18.9903 37.2441 18.192 38.0424 18.192 39.0271C18.192 40.0117 18.9903 40.81 19.9749 40.81Z" fill="white"/>
<path d="M28.3266 39.7536C29.376 39.7536 30.2268 38.9028 30.2268 37.8533C30.2268 36.8039 29.376 35.9531 28.3266 35.9531C27.2771 35.9531 26.4263 36.8039 26.4263 37.8533C26.4263 38.9028 27.2771 39.7536 28.3266 39.7536Z" fill="white"/>
<path d="M36.7016 38.6971C37.8158 38.6971 38.7191 37.7939 38.7191 36.6796C38.7191 35.5654 37.8158 34.6621 36.7016 34.6621C35.5874 34.6621 34.6841 35.5654 34.6841 36.6796C34.6841 37.7939 35.5874 38.6971 36.7016 38.6971Z" fill="white"/>
<path d="M45.0532 37.5957C46.2063 37.5957 47.1411 36.6609 47.1411 35.5078C47.1411 34.3547 46.2063 33.4199 45.0532 33.4199C43.9001 33.4199 42.9653 34.3547 42.9653 35.5078C42.9653 36.6609 43.9001 37.5957 45.0532 37.5957Z" fill="white"/>
<path d="M53.4282 36.5158C54.6331 36.5158 55.6099 35.539 55.6099 34.3341C55.6099 33.1291 54.6331 32.1523 53.4282 32.1523C52.2233 32.1523 51.2465 33.1291 51.2465 34.3341C51.2465 35.539 52.2233 36.5158 53.4282 36.5158Z" fill="white"/>
<path d="M61.7798 35.4144C63.0365 35.4144 64.0554 34.3956 64.0554 33.1389C64.0554 31.8821 63.0365 30.8633 61.7798 30.8633C60.523 30.8633 59.5042 31.8821 59.5042 33.1389C59.5042 34.3956 60.523 35.4144 61.7798 35.4144Z" fill="white"/>
<path d="M70.1548 34.311C71.4504 34.311 72.5007 33.2607 72.5007 31.9651C72.5007 30.6695 71.4504 29.6191 70.1548 29.6191C68.8592 29.6191 67.8088 30.6695 67.8088 31.9651C67.8088 33.2607 68.8592 34.311 70.1548 34.311Z" fill="white"/>
<path d="M78.5064 33.2311C79.8538 33.2311 80.9462 32.1388 80.9462 30.7914C80.9462 29.4439 79.8538 28.3516 78.5064 28.3516C77.1589 28.3516 76.0666 29.4439 76.0666 30.7914C76.0666 32.1388 77.1589 33.2311 78.5064 33.2311Z" fill="white"/>
<path d="M86.8815 32.1062C88.2548 32.1062 89.3682 30.9929 89.3682 29.6195C89.3682 28.2461 88.2548 27.1328 86.8815 27.1328C85.5081 27.1328 84.3948 28.2461 84.3948 29.6195C84.3948 30.9929 85.5081 32.1062 86.8815 32.1062Z" fill="white"/>
<path d="M95.233 31.0028C96.6452 31.0028 97.7901 29.858 97.7901 28.4457C97.7901 27.0335 96.6452 25.8887 95.233 25.8887C93.8207 25.8887 92.6759 27.0335 92.6759 28.4457C92.6759 29.858 93.8207 31.0028 95.233 31.0028Z" fill="white"/>
<path d="M103.608 29.8779C105.046 29.8779 106.212 28.7121 106.212 27.2739C106.212 25.8358 105.046 24.6699 103.608 24.6699C102.17 24.6699 101.004 25.8358 101.004 27.2739C101.004 28.7121 102.17 29.8779 103.608 29.8779Z" fill="white"/>
<path d="M111.96 28.7511C113.424 28.7511 114.611 27.5642 114.611 26.1001C114.611 24.6361 113.424 23.4492 111.96 23.4492C110.496 23.4492 109.309 24.6361 109.309 26.1001C109.309 27.5642 110.496 28.7511 111.96 28.7511Z" fill="white"/>
<path d="M120.335 27.6242C121.825 27.6242 123.033 26.4163 123.033 24.9264C123.033 23.4364 121.825 22.2285 120.335 22.2285C118.845 22.2285 117.637 23.4364 117.637 24.9264C117.637 26.4163 118.845 27.6242 120.335 27.6242Z" fill="white"/>
<path d="M128.686 26.4993C127.161 26.4993 125.942 25.2559 125.942 23.7545C125.942 22.2531 127.185 21.0098 128.686 21.0098C130.188 21.0098 131.431 22.2531 131.431 23.7545C131.431 25.2559 130.188 26.4993 128.686 26.4993Z" fill="white"/>
<path d="M137.061 25.3724C138.603 25.3724 139.853 24.1225 139.853 22.5807C139.853 21.0389 138.603 19.7891 137.061 19.7891C135.52 19.7891 134.27 21.0389 134.27 22.5807C134.27 24.1225 135.52 25.3724 137.061 25.3724Z" fill="white"/>
<path d="M145.413 24.2006C146.968 24.2006 148.228 22.9402 148.228 21.3855C148.228 19.8307 146.968 18.5703 145.413 18.5703C143.858 18.5703 142.598 19.8307 142.598 21.3855C142.598 22.9402 143.858 24.2006 145.413 24.2006Z" fill="white"/>
<path d="M153.764 23.0503C152.193 23.0503 150.926 21.7834 150.926 20.2117C150.926 18.6399 152.193 17.373 153.764 17.373C155.336 17.373 156.603 18.6399 156.603 20.2117C156.603 21.7834 155.336 23.0503 153.764 23.0503Z" fill="white"/>
<path d="M162.14 21.9018C160.568 21.9018 159.277 20.635 159.277 19.0398C159.277 17.4445 160.544 16.1777 162.14 16.1777C163.735 16.1777 165.002 17.4445 165.002 19.0398C165.002 20.635 163.735 21.9018 162.14 21.9018Z" fill="white"/>
<path d="M170.491 20.728C168.896 20.728 167.629 19.4378 167.629 17.866C167.629 16.2942 168.919 15.0039 170.491 15.0039C172.063 15.0039 173.353 16.2942 173.353 17.866C173.353 19.4378 172.063 20.728 170.491 20.728Z" fill="white"/>
<path d="M178.866 19.5777C180.46 19.5777 181.752 18.2858 181.752 16.6922C181.752 15.0985 180.46 13.8066 178.866 13.8066C177.272 13.8066 175.981 15.0985 175.981 16.6922C175.981 18.2858 177.272 19.5777 178.866 19.5777Z" fill="white"/>
<path d="M187.218 18.4293C188.824 18.4293 190.127 17.1269 190.127 15.5203C190.127 13.9137 188.824 12.6113 187.218 12.6113C185.611 12.6113 184.309 13.9137 184.309 15.5203C184.309 17.1269 185.611 18.4293 187.218 18.4293Z" fill="white"/>
<path d="M195.593 17.2555C197.199 17.2555 198.502 15.9531 198.502 14.3465C198.502 12.7399 197.199 11.4375 195.593 11.4375C193.986 11.4375 192.684 12.7399 192.684 14.3465C192.684 15.9531 193.986 17.2555 195.593 17.2555Z" fill="white"/>
<path d="M203.944 16.0836C205.551 16.0836 206.853 14.7812 206.853 13.1746C206.853 11.568 205.551 10.2656 203.944 10.2656C202.338 10.2656 201.035 11.568 201.035 13.1746C201.035 14.7812 202.338 16.0836 203.944 16.0836Z" fill="white"/>
<path d="M215.132 12.6365C215.498 11.0854 214.537 9.53135 212.986 9.16528C211.435 8.79921 209.881 9.75978 209.515 11.3108C209.149 12.8618 210.109 14.4159 211.66 14.782C213.211 15.148 214.766 14.1875 215.132 12.6365Z" fill="white"/>
<path d="M223.486 11.488C223.852 9.93701 222.891 8.38292 221.34 8.01684C219.789 7.65077 218.235 8.61134 217.869 10.1624C217.503 11.7134 218.464 13.2675 220.015 13.6335C221.566 13.9996 223.12 13.039 223.486 11.488Z" fill="white"/>
<path d="M229.046 12.4937C230.627 12.4937 231.908 11.2123 231.908 9.63159C231.908 8.05092 230.627 6.76953 229.046 6.76953C227.465 6.76953 226.184 8.05092 226.184 9.63159C226.184 11.2123 227.465 12.4937 229.046 12.4937Z" fill="white"/>
<path d="M237.398 11.2983C235.826 11.2983 234.559 10.0315 234.559 8.45969C234.559 6.8879 235.826 5.62109 237.398 5.62109C238.969 5.62109 240.236 6.8879 240.236 8.45969C240.236 10.0315 238.969 11.2983 237.398 11.2983Z" fill="white"/>
<path d="M245.773 10.1244C244.201 10.1244 242.957 8.85762 242.957 7.30929C242.957 5.76096 244.224 4.49414 245.773 4.49414C247.321 4.49414 248.588 5.76096 248.588 7.30929C248.588 8.85762 247.321 10.1244 245.773 10.1244Z" fill="white"/>
<path d="M254.124 8.92716C252.576 8.92716 251.309 7.66035 251.309 6.11203C251.309 4.5637 252.576 3.29688 254.124 3.29688C255.673 3.29688 256.939 4.5637 256.939 6.11203C256.939 7.66035 255.673 8.92716 254.124 8.92716Z" fill="white"/>
<path d="M262.499 7.73179C264.041 7.73179 265.291 6.48193 265.291 4.94012C265.291 3.39832 264.041 2.14844 262.499 2.14844C260.957 2.14844 259.708 3.39832 259.708 4.94012C259.708 6.48193 260.957 7.73179 262.499 7.73179Z" fill="white"/>
<path d="M270.851 6.48752C269.349 6.48752 268.13 5.26764 268.13 3.76623C268.13 2.26482 269.349 1.04492 270.851 1.04492C272.352 1.04492 273.572 2.26482 273.572 3.76623C273.572 5.26764 272.352 6.48752 270.851 6.48752Z" fill="white"/>
<path d="M279.226 5.26868C280.703 5.26868 281.9 4.07132 281.9 2.5943C281.9 1.11728 280.703 -0.0800781 279.226 -0.0800781C277.749 -0.0800781 276.551 1.11728 276.551 2.5943C276.551 4.07132 277.749 5.26868 279.226 5.26868Z" fill="white"/>
<path d="M287.577 4.04789C289.029 4.04789 290.205 2.87155 290.205 1.42044C290.205 -0.0306695 289.029 -1.20703 287.577 -1.20703C286.126 -1.20703 284.95 -0.0306695 284.95 1.42044C284.95 2.87155 286.126 4.04789 287.577 4.04789Z" fill="white"/>
<path d="M295.952 2.80561C294.521 2.80561 293.372 1.6561 293.372 0.225072C293.372 -1.20596 294.521 -2.35547 295.952 -2.35547C297.383 -2.35547 298.533 -1.20596 298.533 0.225072C298.533 1.6561 297.383 2.80561 295.952 2.80561Z" fill="white"/>
<path d="M304.304 1.60827C305.703 1.60827 306.838 0.473927 306.838 -0.925355C306.838 -2.32464 305.703 -3.45898 304.304 -3.45898C302.905 -3.45898 301.77 -2.32464 301.77 -0.925355C301.77 0.473927 302.905 1.60827 304.304 1.60827Z" fill="white"/>
<path d="M312.679 0.342524C314.039 0.342524 315.142 -0.760317 315.142 -2.12073C315.142 -3.48114 314.039 -4.58398 312.679 -4.58398C311.319 -4.58398 310.216 -3.48114 310.216 -2.12073C310.216 -0.760317 311.319 0.342524 312.679 0.342524Z" fill="white"/>
<path d="M3.24834 53.1728C4.10346 53.1728 4.79666 52.4796 4.79666 51.6245C4.79666 50.7694 4.10346 50.0762 3.24834 50.0762C2.39322 50.0762 1.70001 50.7694 1.70001 51.6245C1.70001 52.4796 2.39322 53.1728 3.24834 53.1728Z" fill="white"/>
<path d="M11.5999 52.1164C12.5198 52.1164 13.2656 51.3707 13.2656 50.4508C13.2656 49.5309 12.5198 48.7852 11.5999 48.7852C10.68 48.7852 9.93433 49.5309 9.93433 50.4508C9.93433 51.3707 10.68 52.1164 11.5999 52.1164Z" fill="white"/>
<path d="M19.9749 51.0619C20.9596 51.0619 21.7579 50.2637 21.7579 49.279C21.7579 48.2943 20.9596 47.4961 19.9749 47.4961C18.9903 47.4961 18.192 48.2943 18.192 49.279C18.192 50.2637 18.9903 51.0619 19.9749 51.0619Z" fill="white"/>
<path d="M28.3266 50.0055C29.376 50.0055 30.2268 49.1548 30.2268 48.1053C30.2268 47.0558 29.376 46.2051 28.3266 46.2051C27.2771 46.2051 26.4263 47.0558 26.4263 48.1053C26.4263 49.1548 27.2771 50.0055 28.3266 50.0055Z" fill="white"/>
<path d="M36.7016 48.9491C37.8158 48.9491 38.7191 48.0458 38.7191 46.9316C38.7191 45.8173 37.8158 44.9141 36.7016 44.9141C35.5874 44.9141 34.6841 45.8173 34.6841 46.9316C34.6841 48.0458 35.5874 48.9491 36.7016 48.9491Z" fill="white"/>
<path d="M45.0532 47.8477C46.2063 47.8477 47.1411 46.9129 47.1411 45.7598C47.1411 44.6067 46.2063 43.6719 45.0532 43.6719C43.9001 43.6719 42.9653 44.6067 42.9653 45.7598C42.9653 46.9129 43.9001 47.8477 45.0532 47.8477Z" fill="white"/>
<path d="M53.4282 46.7678C54.6331 46.7678 55.6099 45.791 55.6099 44.586C55.6099 43.3811 54.6331 42.4043 53.4282 42.4043C52.2233 42.4043 51.2465 43.3811 51.2465 44.586C51.2465 45.791 52.2233 46.7678 53.4282 46.7678Z" fill="white"/>
<path d="M61.7798 45.6898C63.0365 45.6898 64.0554 44.671 64.0554 43.4142C64.0554 42.1575 63.0365 41.1387 61.7798 41.1387C60.523 41.1387 59.5042 42.1575 59.5042 43.4142C59.5042 44.671 60.523 45.6898 61.7798 45.6898Z" fill="white"/>
<path d="M70.1548 44.563C71.4504 44.563 72.5007 43.5127 72.5007 42.217C72.5007 40.9214 71.4504 39.8711 70.1548 39.8711C68.8592 39.8711 67.8088 40.9214 67.8088 42.217C67.8088 43.5127 68.8592 44.563 70.1548 44.563Z" fill="white"/>
<path d="M78.5064 43.4831C79.8538 43.4831 80.9462 42.3908 80.9462 41.0433C80.9462 39.6958 79.8538 38.6035 78.5064 38.6035C77.1589 38.6035 76.0666 39.6958 76.0666 41.0433C76.0666 42.3908 77.1589 43.4831 78.5064 43.4831Z" fill="white"/>
<path d="M86.8815 42.3582C88.2548 42.3582 89.3682 41.2448 89.3682 39.8715C89.3682 38.4981 88.2548 37.3848 86.8815 37.3848C85.5081 37.3848 84.3948 38.4981 84.3948 39.8715C84.3948 41.2448 85.5081 42.3582 86.8815 42.3582Z" fill="white"/>
<path d="M95.233 41.2548C96.6452 41.2548 97.7901 40.11 97.7901 38.6977C97.7901 37.2855 96.6452 36.1406 95.233 36.1406C93.8207 36.1406 92.6759 37.2855 92.6759 38.6977C92.6759 40.11 93.8207 41.2548 95.233 41.2548Z" fill="white"/>
<path d="M103.608 40.1299C105.046 40.1299 106.212 38.964 106.212 37.5259C106.212 36.0877 105.046 34.9219 103.608 34.9219C102.17 34.9219 101.004 36.0877 101.004 37.5259C101.004 38.964 102.17 40.1299 103.608 40.1299Z" fill="white"/>
<path d="M111.96 39.003C113.424 39.003 114.611 37.8162 114.611 36.3521C114.611 34.888 113.424 33.7012 111.96 33.7012C110.496 33.7012 109.309 34.888 109.309 36.3521C109.309 37.8162 110.496 39.003 111.96 39.003Z" fill="white"/>
<path d="M120.335 37.8762C121.825 37.8762 123.033 36.6683 123.033 35.1783C123.033 33.6883 121.825 32.4805 120.335 32.4805C118.845 32.4805 117.637 33.6883 117.637 35.1783C117.637 36.6683 118.845 37.8762 120.335 37.8762Z" fill="white"/>
<path d="M128.686 36.7512C127.161 36.7512 125.942 35.5079 125.942 34.0065C125.942 32.5051 127.185 31.2617 128.686 31.2617C130.188 31.2617 131.431 32.5051 131.431 34.0065C131.431 35.5079 130.188 36.7512 128.686 36.7512Z" fill="white"/>
<path d="M137.061 35.6244C135.513 35.6244 134.27 34.381 134.27 32.8327C134.27 31.2844 135.513 30.041 137.061 30.041C138.61 30.041 139.853 31.2844 139.853 32.8327C139.853 34.381 138.61 35.6244 137.061 35.6244Z" fill="white"/>
<path d="M145.413 34.476C146.968 34.476 148.228 33.2156 148.228 31.6609C148.228 30.1061 146.968 28.8457 145.413 28.8457C143.858 28.8457 142.598 30.1061 142.598 31.6609C142.598 33.2156 143.858 34.476 145.413 34.476Z" fill="white"/>
<path d="M153.764 33.3022C155.332 33.3022 156.603 32.0313 156.603 30.4636C156.603 28.8959 155.332 27.625 153.764 27.625C152.197 27.625 150.926 28.8959 150.926 30.4636C150.926 32.0313 152.197 33.3022 153.764 33.3022Z" fill="white"/>
<path d="M162.14 32.1538C160.568 32.1538 159.277 30.887 159.277 29.2917C159.277 27.6965 160.544 26.4297 162.14 26.4297C163.735 26.4297 165.002 27.6965 165.002 29.2917C165.002 30.887 163.735 32.1538 162.14 32.1538Z" fill="white"/>
<path d="M170.491 30.98C168.896 30.98 167.629 29.6897 167.629 28.1179C167.629 26.5461 168.919 25.2559 170.491 25.2559C172.063 25.2559 173.353 26.5461 173.353 28.1179C173.353 29.6897 172.063 30.98 170.491 30.98Z" fill="white"/>
<path d="M178.866 29.8296C180.46 29.8296 181.752 28.5377 181.752 26.9441C181.752 25.3505 180.46 24.0586 178.866 24.0586C177.272 24.0586 175.981 25.3505 175.981 26.9441C175.981 28.5377 177.272 29.8296 178.866 29.8296Z" fill="white"/>
<path d="M190.041 26.4427C190.41 24.8791 189.442 23.3124 187.878 22.9433C186.315 22.5743 184.748 23.5427 184.379 25.1063C184.01 26.6699 184.978 28.2367 186.542 28.6057C188.106 28.9748 189.672 28.0064 190.041 26.4427Z" fill="white"/>
<path d="M195.593 27.5074C197.199 27.5074 198.502 26.205 198.502 24.5984C198.502 22.9918 197.199 21.6895 195.593 21.6895C193.986 21.6895 192.684 22.9918 192.684 24.5984C192.684 26.205 193.986 27.5074 195.593 27.5074Z" fill="white"/>
<path d="M203.944 26.3355C205.551 26.3355 206.853 25.0331 206.853 23.4266C206.853 21.82 205.551 20.5176 203.944 20.5176C202.338 20.5176 201.035 21.82 201.035 23.4266C201.035 25.0331 202.338 26.3355 203.944 26.3355Z" fill="white"/>
<path d="M212.319 25.1382C213.913 25.1382 215.205 23.8463 215.205 22.2527C215.205 20.6591 213.913 19.3672 212.319 19.3672C210.726 19.3672 209.434 20.6591 209.434 22.2527C209.434 23.8463 210.726 25.1382 212.319 25.1382Z" fill="white"/>
<path d="M220.671 23.9663C222.265 23.9663 223.556 22.6744 223.556 21.0808C223.556 19.4872 222.265 18.1953 220.671 18.1953C219.077 18.1953 217.785 19.4872 217.785 21.0808C217.785 22.6744 219.077 23.9663 220.671 23.9663Z" fill="white"/>
<path d="M229.046 22.7456C227.474 22.7456 226.184 21.4553 226.184 19.8835C226.184 18.3117 227.474 17.0215 229.046 17.0215C230.618 17.0215 231.908 18.3117 231.908 19.8835C231.908 21.4553 230.618 22.7456 229.046 22.7456Z" fill="white"/>
<path d="M237.398 21.5717C235.826 21.5717 234.559 20.3049 234.559 18.7331C234.559 17.1613 235.826 15.8945 237.398 15.8945C238.969 15.8945 240.236 17.1613 240.236 18.7331C240.236 20.3049 238.969 21.5717 237.398 21.5717Z" fill="white"/>
<path d="M245.773 20.3764C244.201 20.3764 242.957 19.1096 242.957 17.5612C242.957 16.0129 244.224 14.7461 245.773 14.7461C247.321 14.7461 248.588 16.0129 248.588 17.5612C248.588 19.1096 247.321 20.3764 245.773 20.3764Z" fill="white"/>
<path d="M254.124 19.1791C255.679 19.1791 256.939 17.9187 256.939 16.364C256.939 14.8092 255.679 13.5488 254.124 13.5488C252.569 13.5488 251.309 14.8092 251.309 16.364C251.309 17.9187 252.569 19.1791 254.124 19.1791Z" fill="white"/>
<path d="M262.499 17.9837C264.041 17.9837 265.291 16.7339 265.291 15.1921C265.291 13.6503 264.041 12.4004 262.499 12.4004C260.957 12.4004 259.708 13.6503 259.708 15.1921C259.708 16.7339 260.957 17.9837 262.499 17.9837Z" fill="white"/>
<path d="M270.851 16.7395C269.349 16.7395 268.13 15.5196 268.13 14.0182C268.13 12.5168 269.349 11.2969 270.851 11.2969C272.352 11.2969 273.572 12.5168 273.572 14.0182C273.572 15.5196 272.352 16.7395 270.851 16.7395Z" fill="white"/>
<path d="M279.226 15.5207C277.748 15.5207 276.551 14.3242 276.551 12.8463C276.551 11.3683 277.748 10.1719 279.226 10.1719C280.704 10.1719 281.9 11.3683 281.9 12.8463C281.9 14.3242 280.704 15.5207 279.226 15.5207Z" fill="white"/>
<path d="M287.577 14.2998C286.123 14.2998 284.95 13.1269 284.95 11.6724C284.95 10.2179 286.123 9.04492 287.577 9.04492C289.032 9.04492 290.205 10.2179 290.205 11.6724C290.205 13.1269 289.032 14.2998 287.577 14.2998Z" fill="white"/>
<path d="M295.952 13.0576C294.521 13.0576 293.372 11.9081 293.372 10.477C293.372 9.046 294.521 7.89648 295.952 7.89648C297.383 7.89648 298.533 9.046 298.533 10.477C298.533 11.9081 297.383 13.0576 295.952 13.0576Z" fill="white"/>
<path d="M304.304 11.8602C305.703 11.8602 306.838 10.7259 306.838 9.32658C306.838 7.9273 305.703 6.79297 304.304 6.79297C302.905 6.79297 301.77 7.9273 301.77 9.32658C301.77 10.7259 302.905 11.8602 304.304 11.8602Z" fill="white"/>
<path d="M312.679 10.6179C314.039 10.6179 315.142 9.51506 315.142 8.15464C315.142 6.79423 314.039 5.69141 312.679 5.69141C311.319 5.69141 310.216 6.79423 310.216 8.15464C310.216 9.51506 311.319 10.6179 312.679 10.6179Z" fill="white"/>
<path d="M321.031 9.35019C322.352 9.35019 323.424 8.27888 323.424 6.95733C323.424 5.63579 322.352 4.56445 321.031 4.56445C319.709 4.56445 318.638 5.63579 318.638 6.95733C318.638 8.27888 319.709 9.35019 321.031 9.35019Z" fill="white"/>
<path d="M329.406 8.10782C328.139 8.10782 327.107 7.0756 327.107 5.80879C327.107 4.54197 328.139 3.50977 329.406 3.50977C330.672 3.50977 331.705 4.54197 331.705 5.80879C331.705 7.0756 330.672 8.10782 329.406 8.10782Z" fill="white"/>
<path d="M337.757 6.84012C338.988 6.84012 339.986 5.84233 339.986 4.61148C339.986 3.38062 338.988 2.38281 337.757 2.38281C336.526 2.38281 335.529 3.38062 335.529 4.61148C335.529 5.84233 336.526 6.84012 337.757 6.84012Z" fill="white"/>
<path d="M346.132 5.57236C347.311 5.57236 348.267 4.61658 348.267 3.43756C348.267 2.25853 347.311 1.30273 346.132 1.30273C344.953 1.30273 343.997 2.25853 343.997 3.43756C343.997 4.61658 344.953 5.57236 346.132 5.57236Z" fill="white"/>
<path d="M354.484 4.30656C355.611 4.30656 356.525 3.39279 356.525 2.26559C356.525 1.13839 355.611 0.224609 354.484 0.224609C353.357 0.224609 352.443 1.13839 352.443 2.26559C352.443 3.39279 353.357 4.30656 354.484 4.30656Z" fill="white"/>
<path d="M362.835 3.0388C361.756 3.0388 360.888 2.17081 360.888 1.09167C360.888 0.0125368 361.756 -0.855469 362.835 -0.855469C363.915 -0.855469 364.783 0.0125368 364.783 1.09167C364.783 2.17081 363.915 3.0388 362.835 3.0388Z" fill="white"/>
<path d="M371.21 1.74952C370.202 1.74952 369.381 0.928439 369.381 -0.0803188C369.381 -1.08908 370.202 -1.91016 371.21 -1.91016C372.219 -1.91016 373.04 -1.08908 373.04 -0.0803188C373.04 0.928439 372.219 1.74952 371.21 1.74952Z" fill="white"/>
<path d="M379.562 0.458287C378.624 0.458287 377.85 -0.315866 377.85 -1.25425C377.85 -2.19263 378.624 -2.9668 379.562 -2.9668C380.5 -2.9668 381.275 -2.19263 381.275 -1.25425C381.275 -0.315866 380.5 0.458287 379.562 0.458287Z" fill="white"/>
<path d="M11.5999 62.3684C12.5198 62.3684 13.2656 61.6226 13.2656 60.7027C13.2656 59.7828 12.5198 59.0371 11.5999 59.0371C10.68 59.0371 9.93433 59.7828 9.93433 60.7027C9.93433 61.6226 10.68 62.3684 11.5999 62.3684Z" fill="white"/>
<path d="M19.9749 61.3139C20.9596 61.3139 21.7579 60.5156 21.7579 59.531C21.7579 58.5463 20.9596 57.748 19.9749 57.748C18.9903 57.748 18.192 58.5463 18.192 59.531C18.192 60.5156 18.9903 61.3139 19.9749 61.3139Z" fill="white"/>
<path d="M28.3266 60.2575C29.376 60.2575 30.2268 59.4067 30.2268 58.3572C30.2268 57.3078 29.376 56.457 28.3266 56.457C27.2771 56.457 26.4263 57.3078 26.4263 58.3572C26.4263 59.4067 27.2771 60.2575 28.3266 60.2575Z" fill="white"/>
<path d="M36.7016 59.2011C37.8158 59.2011 38.7191 58.2978 38.7191 57.1835C38.7191 56.0693 37.8158 55.166 36.7016 55.166C35.5874 55.166 34.6841 56.0693 34.6841 57.1835C34.6841 58.2978 35.5874 59.2011 36.7016 59.2011Z" fill="white"/>
<path d="M45.0532 58.0996C46.2063 58.0996 47.1411 57.1648 47.1411 56.0117C47.1411 54.8586 46.2063 53.9238 45.0532 53.9238C43.9001 53.9238 42.9653 54.8586 42.9653 56.0117C42.9653 57.1648 43.9001 58.0996 45.0532 58.0996Z" fill="white"/>
<path d="M53.4282 57.0197C54.6331 57.0197 55.6099 56.0429 55.6099 54.838C55.6099 53.633 54.6331 52.6562 53.4282 52.6562C52.2233 52.6562 51.2465 53.633 51.2465 54.838C51.2465 56.0429 52.2233 57.0197 53.4282 57.0197Z" fill="white"/>
<path d="M61.7798 55.9398C63.0365 55.9398 64.0554 54.921 64.0554 53.6642C64.0554 52.4075 63.0365 51.3887 61.7798 51.3887C60.523 51.3887 59.5042 52.4075 59.5042 53.6642C59.5042 54.921 60.523 55.9398 61.7798 55.9398Z" fill="white"/>
<path d="M70.1548 54.8384C71.4504 54.8384 72.5007 53.7881 72.5007 52.4924C72.5007 51.1968 71.4504 50.1465 70.1548 50.1465C68.8592 50.1465 67.8088 51.1968 67.8088 52.4924C67.8088 53.7881 68.8592 54.8384 70.1548 54.8384Z" fill="white"/>
<path d="M78.5064 53.735C79.8538 53.735 80.9462 52.6427 80.9462 51.2953C80.9462 49.9478 79.8538 48.8555 78.5064 48.8555C77.1589 48.8555 76.0666 49.9478 76.0666 51.2953C76.0666 52.6427 77.1589 53.735 78.5064 53.735Z" fill="white"/>
<path d="M86.8815 52.6101C88.2548 52.6101 89.3682 51.4968 89.3682 50.1234C89.3682 48.7501 88.2548 47.6367 86.8815 47.6367C85.5081 47.6367 84.3948 48.7501 84.3948 50.1234C84.3948 51.4968 85.5081 52.6101 86.8815 52.6101Z" fill="white"/>
<path d="M95.233 51.5067C96.6452 51.5067 97.7901 50.3619 97.7901 48.9497C97.7901 47.5374 96.6452 46.3926 95.233 46.3926C93.8207 46.3926 92.6759 47.5374 92.6759 48.9497C92.6759 50.3619 93.8207 51.5067 95.233 51.5067Z" fill="white"/>
<path d="M103.608 50.3818C105.046 50.3818 106.212 49.216 106.212 47.7778C106.212 46.3397 105.046 45.1738 103.608 45.1738C102.17 45.1738 101.004 46.3397 101.004 47.7778C101.004 49.216 102.17 50.3818 103.608 50.3818Z" fill="white"/>
<path d="M111.96 49.255C113.424 49.255 114.611 48.0681 114.611 46.6041C114.611 45.14 113.424 43.9531 111.96 43.9531C110.496 43.9531 109.309 45.14 109.309 46.6041C109.309 48.0681 110.496 49.255 111.96 49.255Z" fill="white"/>
<path d="M120.335 48.1281C121.825 48.1281 123.033 46.9202 123.033 45.4303C123.033 43.9403 121.825 42.7324 120.335 42.7324C118.845 42.7324 117.637 43.9403 117.637 45.4303C117.637 46.9202 118.845 48.1281 120.335 48.1281Z" fill="white"/>
<path d="M128.686 47.0032C127.161 47.0032 125.942 45.7599 125.942 44.2584C125.942 42.757 127.185 41.5137 128.686 41.5137C130.188 41.5137 131.431 42.757 131.431 44.2584C131.431 45.7599 130.188 47.0032 128.686 47.0032Z" fill="white"/>
<path d="M137.061 45.8763C135.513 45.8763 134.27 44.633 134.27 43.0847C134.27 41.5363 135.513 40.293 137.061 40.293C138.61 40.293 139.853 41.5363 139.853 43.0847C139.853 44.633 138.61 45.8763 137.061 45.8763Z" fill="white"/>
<path d="M145.413 44.7279C146.968 44.7279 148.228 43.4676 148.228 41.9128C148.228 40.358 146.968 39.0977 145.413 39.0977C143.858 39.0977 142.598 40.358 142.598 41.9128C142.598 43.4676 143.858 44.7279 145.413 44.7279Z" fill="white"/>
<path d="M153.764 43.5776C155.332 43.5776 156.603 42.3067 156.603 40.739C156.603 39.1713 155.332 37.9004 153.764 37.9004C152.197 37.9004 150.926 39.1713 150.926 40.739C150.926 42.3067 152.197 43.5776 153.764 43.5776Z" fill="white"/>
<path d="M162.14 42.4038C160.568 42.4038 159.277 41.137 159.277 39.5417C159.277 37.9465 160.544 36.6797 162.14 36.6797C163.735 36.6797 165.002 37.9465 165.002 39.5417C165.002 41.137 163.735 42.4038 162.14 42.4038Z" fill="white"/>
<path d="M170.491 41.2554C168.896 41.2554 167.629 39.9651 167.629 38.3933C167.629 36.8215 168.919 35.5312 170.491 35.5312C172.063 35.5312 173.353 36.8215 173.353 38.3933C173.353 39.9651 172.063 41.2554 170.491 41.2554Z" fill="white"/>
<path d="M178.866 40.0816C180.46 40.0816 181.752 38.7897 181.752 37.1961C181.752 35.6024 180.46 34.3105 178.866 34.3105C177.272 34.3105 175.981 35.6024 175.981 37.1961C175.981 38.7897 177.272 40.0816 178.866 40.0816Z" fill="white"/>
<path d="M190.049 36.6791C190.418 35.1154 189.449 33.5487 187.886 33.1797C186.322 32.8106 184.755 33.779 184.386 35.3426C184.017 36.9062 184.986 38.473 186.549 38.842C188.113 39.2111 189.68 38.2427 190.049 36.6791Z" fill="white"/>
<path d="M195.593 37.7594C197.199 37.7594 198.502 36.457 198.502 34.8504C198.502 33.2438 197.199 31.9414 195.593 31.9414C193.986 31.9414 192.684 33.2438 192.684 34.8504C192.684 36.457 193.986 37.7594 195.593 37.7594Z" fill="white"/>
<path d="M203.944 36.5875C205.551 36.5875 206.853 35.2851 206.853 33.6785C206.853 32.0719 205.551 30.7695 203.944 30.7695C202.338 30.7695 201.035 32.0719 201.035 33.6785C201.035 35.2851 202.338 36.5875 203.944 36.5875Z" fill="white"/>
<path d="M212.319 35.3902C213.913 35.3902 215.205 34.0983 215.205 32.5047C215.205 30.911 213.913 29.6191 212.319 29.6191C210.726 29.6191 209.434 30.911 209.434 32.5047C209.434 34.0983 210.726 35.3902 212.319 35.3902Z" fill="white"/>
<path d="M220.671 34.2163C222.265 34.2163 223.556 32.9245 223.556 31.3308C223.556 29.7372 222.265 28.4453 220.671 28.4453C219.077 28.4453 217.785 29.7372 217.785 31.3308C217.785 32.9245 219.077 34.2163 220.671 34.2163Z" fill="white"/>
<path d="M229.046 33.021C227.474 33.021 226.184 31.7307 226.184 30.1589C226.184 28.5871 227.474 27.2969 229.046 27.2969C230.618 27.2969 231.908 28.5871 231.908 30.1589C231.908 31.7307 230.618 33.021 229.046 33.021Z" fill="white"/>
<path d="M237.398 31.8237C235.826 31.8237 234.559 30.5569 234.559 28.9851C234.559 27.4133 235.826 26.1465 237.398 26.1465C238.969 26.1465 240.236 27.4133 240.236 28.9851C240.236 30.5569 238.969 31.8237 237.398 31.8237Z" fill="white"/>
<path d="M245.773 30.6283C244.201 30.6283 242.957 29.3615 242.957 27.8132C242.957 26.2649 244.224 24.998 245.773 24.998C247.321 24.998 248.588 26.2649 248.588 27.8132C248.588 29.3615 247.321 30.6283 245.773 30.6283Z" fill="white"/>
<path d="M254.124 29.431C255.679 29.431 256.939 28.1707 256.939 26.6159C256.939 25.0612 255.679 23.8008 254.124 23.8008C252.569 23.8008 251.309 25.0612 251.309 26.6159C251.309 28.1707 252.569 29.431 254.124 29.431Z" fill="white"/>
<path d="M262.499 28.2357C264.041 28.2357 265.291 26.9858 265.291 25.444C265.291 23.9022 264.041 22.6523 262.499 22.6523C260.957 22.6523 259.708 23.9022 259.708 25.444C259.708 26.9858 260.957 28.2357 262.499 28.2357Z" fill="white"/>
<path d="M270.851 26.9914C269.349 26.9914 268.13 25.7715 268.13 24.2701C268.13 22.7687 269.349 21.5488 270.851 21.5488C272.352 21.5488 273.572 22.7687 273.572 24.2701C273.572 25.7715 272.352 26.9914 270.851 26.9914Z" fill="white"/>
<path d="M279.226 25.7726C277.748 25.7726 276.551 24.5762 276.551 23.0982C276.551 21.6203 277.748 20.4238 279.226 20.4238C280.704 20.4238 281.9 21.6203 281.9 23.0982C281.9 24.5762 280.704 25.7726 279.226 25.7726Z" fill="white"/>
<path d="M287.577 24.5518C286.123 24.5518 284.95 23.3788 284.95 21.9243C284.95 20.4699 286.123 19.2969 287.577 19.2969C289.032 19.2969 290.205 20.4699 290.205 21.9243C290.205 23.3788 289.032 24.5518 287.577 24.5518Z" fill="white"/>
<path d="M295.952 23.333C294.521 23.333 293.372 22.1834 293.372 20.7524C293.372 19.3214 294.521 18.1719 295.952 18.1719C297.383 18.1719 298.533 19.3214 298.533 20.7524C298.533 22.1834 297.383 23.333 295.952 23.333Z" fill="white"/>
<path d="M304.304 22.1122C305.703 22.1122 306.838 20.9778 306.838 19.5786C306.838 18.1793 305.703 17.0449 304.304 17.0449C302.905 17.0449 301.77 18.1793 301.77 19.5786C301.77 20.9778 302.905 22.1122 304.304 22.1122Z" fill="white"/>
<path d="M312.679 20.8679C314.039 20.8679 315.142 19.7651 315.142 18.4047C315.142 17.0442 314.039 15.9414 312.679 15.9414C311.319 15.9414 310.216 17.0442 310.216 18.4047C310.216 19.7651 311.319 20.8679 312.679 20.8679Z" fill="white"/>
<path d="M321.031 19.6256C322.352 19.6256 323.424 18.5542 323.424 17.2327C323.424 15.9112 322.352 14.8398 321.031 14.8398C319.709 14.8398 318.638 15.9112 318.638 17.2327C318.638 18.5542 319.709 19.6256 321.031 19.6256Z" fill="white"/>
<path d="M329.406 18.3578C328.139 18.3578 327.107 17.3256 327.107 16.0588C327.107 14.792 328.139 13.7598 329.406 13.7598C330.672 13.7598 331.705 14.792 331.705 16.0588C331.705 17.3256 330.672 18.3578 329.406 18.3578Z" fill="white"/>
<path d="M337.757 17.0921C338.988 17.0921 339.986 16.0943 339.986 14.8634C339.986 13.6326 338.988 12.6348 337.757 12.6348C336.526 12.6348 335.529 13.6326 335.529 14.8634C335.529 16.0943 336.526 17.0921 337.757 17.0921Z" fill="white"/>
<path d="M346.132 15.8243C347.311 15.8243 348.267 14.8685 348.267 13.6895C348.267 12.5105 347.311 11.5547 346.132 11.5547C344.953 11.5547 343.997 12.5105 343.997 13.6895C343.997 14.8685 344.953 15.8243 346.132 15.8243Z" fill="white"/>
<path d="M354.484 14.5585C355.611 14.5585 356.525 13.6447 356.525 12.5175C356.525 11.3903 355.611 10.4766 354.484 10.4766C353.357 10.4766 352.443 11.3903 352.443 12.5175C352.443 13.6447 353.357 14.5585 354.484 14.5585Z" fill="white"/>
<path d="M362.835 13.2908C361.756 13.2908 360.888 12.4227 360.888 11.3436C360.888 10.2645 361.756 9.39648 362.835 9.39648C363.915 9.39648 364.783 10.2645 364.783 11.3436C364.783 12.4227 363.915 13.2908 362.835 13.2908Z" fill="white"/>
<path d="M371.21 12.0015C370.202 12.0015 369.381 11.1804 369.381 10.1716C369.381 9.16288 370.202 8.3418 371.21 8.3418C372.219 8.3418 373.04 9.16288 373.04 10.1716C373.04 11.1804 372.219 12.0015 371.21 12.0015Z" fill="white"/>
<path d="M379.562 10.7102C378.624 10.7102 377.85 9.93607 377.85 8.99769C377.85 8.05931 378.624 7.28516 379.562 7.28516C380.5 7.28516 381.275 8.05931 381.275 8.99769C381.275 9.93607 380.5 10.7102 379.562 10.7102Z" fill="white"/>
<path d="M387.937 9.42096C388.818 9.42096 389.532 8.70674 389.532 7.82572C389.532 6.94469 388.818 6.23047 387.937 6.23047C387.056 6.23047 386.342 6.94469 386.342 7.82572C386.342 8.70674 387.056 9.42096 387.937 9.42096Z" fill="white"/>
<path d="M396.289 8.12973C397.105 8.12973 397.767 7.46802 397.767 6.65177C397.767 5.83552 397.105 5.17383 396.289 5.17383C395.472 5.17383 394.811 5.83552 394.811 6.65177C394.811 7.46802 395.472 8.12973 396.289 8.12973Z" fill="white"/>
<path d="M404.664 6.81696C405.402 6.81696 406.001 6.21828 406.001 5.47977C406.001 4.74126 405.402 4.14258 404.664 4.14258C403.925 4.14258 403.327 4.74126 403.327 5.47977C403.327 6.21828 403.925 6.81696 404.664 6.81696Z" fill="white"/>
<path d="M78.5064 64.0104C79.8538 64.0104 80.9462 62.9181 80.9462 61.5706C80.9462 60.2232 79.8538 59.1309 78.5064 59.1309C77.1589 59.1309 76.0666 60.2232 76.0666 61.5706C76.0666 62.9181 77.1589 64.0104 78.5064 64.0104Z" fill="white"/>
<path d="M86.8815 62.8621C88.2548 62.8621 89.3682 61.7487 89.3682 60.3754C89.3682 59.002 88.2548 57.8887 86.8815 57.8887C85.5081 57.8887 84.3948 59.002 84.3948 60.3754C84.3948 61.7487 85.5081 62.8621 86.8815 62.8621Z" fill="white"/>
<path d="M95.233 61.7587C96.6452 61.7587 97.7901 60.6138 97.7901 59.2016C97.7901 57.7894 96.6452 56.6445 95.233 56.6445C93.8207 56.6445 92.6759 57.7894 92.6759 59.2016C92.6759 60.6138 93.8207 61.7587 95.233 61.7587Z" fill="white"/>
<path d="M103.608 60.6318C105.046 60.6318 106.212 59.466 106.212 58.0278C106.212 56.5897 105.046 55.4238 103.608 55.4238C102.17 55.4238 101.004 56.5897 101.004 58.0278C101.004 59.466 102.17 60.6318 103.608 60.6318Z" fill="white"/>
<path d="M111.96 59.5069C113.424 59.5069 114.611 58.3201 114.611 56.856C114.611 55.3919 113.424 54.2051 111.96 54.2051C110.496 54.2051 109.309 55.3919 109.309 56.856C109.309 58.3201 110.496 59.5069 111.96 59.5069Z" fill="white"/>
<path d="M120.335 58.3801C121.825 58.3801 123.033 57.1722 123.033 55.6822C123.033 54.1922 121.825 52.9844 120.335 52.9844C118.845 52.9844 117.637 54.1922 117.637 55.6822C117.637 57.1722 118.845 58.3801 120.335 58.3801Z" fill="white"/>
<path d="M128.686 57.2551C127.161 57.2551 125.942 56.0118 125.942 54.5104C125.942 53.009 127.185 51.7656 128.686 51.7656C130.188 51.7656 131.431 53.009 131.431 54.5104C131.431 56.0118 130.188 57.2551 128.686 57.2551Z" fill="white"/>
<path d="M137.061 56.1283C135.513 56.1283 134.27 54.8849 134.27 53.3366C134.27 51.7883 135.513 50.5449 137.061 50.5449C138.61 50.5449 139.853 51.7883 139.853 53.3366C139.853 54.8849 138.61 56.1283 137.061 56.1283Z" fill="white"/>
<path d="M145.413 54.9799C146.968 54.9799 148.228 53.7195 148.228 52.1647C148.228 50.61 146.968 49.3496 145.413 49.3496C143.858 49.3496 142.598 50.61 142.598 52.1647C142.598 53.7195 143.858 54.9799 145.413 54.9799Z" fill="white"/>
<path d="M153.764 53.8295C155.332 53.8295 156.603 52.5587 156.603 50.9909C156.603 49.4232 155.332 48.1523 153.764 48.1523C152.197 48.1523 150.926 49.4232 150.926 50.9909C150.926 52.5587 152.197 53.8295 153.764 53.8295Z" fill="white"/>
<path d="M162.14 52.6557C160.568 52.6557 159.277 51.3889 159.277 49.7937C159.277 48.1984 160.544 46.9316 162.14 46.9316C163.735 46.9316 165.002 48.1984 165.002 49.7937C165.002 51.3889 163.735 52.6557 162.14 52.6557Z" fill="white"/>
<path d="M170.491 51.5073C168.896 51.5073 167.629 50.2171 167.629 48.6453C167.629 47.0735 168.919 45.7832 170.491 45.7832C172.063 45.7832 173.353 47.0735 173.353 48.6453C173.353 50.2171 172.063 51.5073 170.491 51.5073Z" fill="white"/>
<path d="M178.866 50.3335C180.46 50.3335 181.752 49.0416 181.752 47.448C181.752 45.8544 180.46 44.5625 178.866 44.5625C177.272 44.5625 175.981 45.8544 175.981 47.448C175.981 49.0416 177.272 50.3335 178.866 50.3335Z" fill="white"/>
<path d="M190.033 46.9408C190.402 45.3772 189.433 43.8104 187.87 43.4414C186.306 43.0723 184.739 44.0407 184.37 45.6043C184.001 47.168 184.97 48.7347 186.533 49.1038C188.097 49.4728 189.664 48.5044 190.033 46.9408Z" fill="white"/>
<path d="M195.593 48.0113C197.199 48.0113 198.502 46.7089 198.502 45.1023C198.502 43.4957 197.199 42.1934 195.593 42.1934C193.986 42.1934 192.684 43.4957 192.684 45.1023C192.684 46.7089 193.986 48.0113 195.593 48.0113Z" fill="white"/>
<path d="M203.944 46.8394C205.551 46.8394 206.853 45.537 206.853 43.9305C206.853 42.3239 205.551 41.0215 203.944 41.0215C202.338 41.0215 201.035 42.3239 201.035 43.9305C201.035 45.537 202.338 46.8394 203.944 46.8394Z" fill="white"/>
<path d="M212.319 45.6421C213.913 45.6421 215.205 44.3502 215.205 42.7566C215.205 41.163 213.913 39.8711 212.319 39.8711C210.726 39.8711 209.434 41.163 209.434 42.7566C209.434 44.3502 210.726 45.6421 212.319 45.6421Z" fill="white"/>
<path d="M220.671 44.4683C222.265 44.4683 223.556 43.1764 223.556 41.5828C223.556 39.9891 222.265 38.6973 220.671 38.6973C219.077 38.6973 217.785 39.9891 217.785 41.5828C217.785 43.1764 219.077 44.4683 220.671 44.4683Z" fill="white"/>
<path d="M229.046 43.2729C227.474 43.2729 226.184 41.9827 226.184 40.4109C226.184 38.8391 227.474 37.5488 229.046 37.5488C230.618 37.5488 231.908 38.8391 231.908 40.4109C231.908 41.9827 230.618 43.2729 229.046 43.2729Z" fill="white"/>
<path d="M237.398 42.0756C235.826 42.0756 234.559 40.8088 234.559 39.237C234.559 37.6652 235.826 36.3984 237.398 36.3984C238.969 36.3984 240.236 37.6652 240.236 39.237C240.236 40.8088 238.969 42.0756 237.398 42.0756Z" fill="white"/>
<path d="M245.773 40.8803C244.201 40.8803 242.957 39.6135 242.957 38.0651C242.957 36.5168 244.224 35.25 245.773 35.25C247.321 35.25 248.588 36.5168 248.588 38.0651C248.588 39.6135 247.321 40.8803 245.773 40.8803Z" fill="white"/>
<path d="M254.124 39.683C255.679 39.683 256.939 38.4226 256.939 36.8679C256.939 35.3131 255.679 34.0527 254.124 34.0527C252.569 34.0527 251.309 35.3131 251.309 36.8679C251.309 38.4226 252.569 39.683 254.124 39.683Z" fill="white"/>
<path d="M262.499 38.4876C264.041 38.4876 265.291 37.2378 265.291 35.696C265.291 34.1542 264.041 32.9043 262.499 32.9043C260.957 32.9043 259.708 34.1542 259.708 35.696C259.708 37.2378 260.957 38.4876 262.499 38.4876Z" fill="white"/>
<path d="M270.851 37.2668C269.349 37.2668 268.13 36.0469 268.13 34.5455C268.13 33.0441 269.349 31.8242 270.851 31.8242C272.352 31.8242 273.572 33.0441 273.572 34.5455C273.572 36.0469 272.352 37.2668 270.851 37.2668Z" fill="white"/>
<path d="M279.226 36.0245C277.748 36.0245 276.551 34.8281 276.551 33.3502C276.551 31.8722 277.748 30.6758 279.226 30.6758C280.704 30.6758 281.9 31.8722 281.9 33.3502C281.9 34.8281 280.704 36.0245 279.226 36.0245Z" fill="white"/>
<path d="M287.577 34.8037C286.123 34.8037 284.95 33.6308 284.95 32.1763C284.95 30.7218 286.123 29.5488 287.577 29.5488C289.032 29.5488 290.205 30.7218 290.205 32.1763C290.205 33.6308 289.032 34.8037 287.577 34.8037Z" fill="white"/>
<path d="M295.952 33.583C294.521 33.583 293.372 32.4334 293.372 31.0024C293.372 29.5714 294.521 28.4219 295.952 28.4219C297.383 28.4219 298.533 29.5714 298.533 31.0024C298.533 32.4334 297.383 33.583 295.952 33.583Z" fill="white"/>
<path d="M304.304 32.3641C305.703 32.3641 306.838 31.2298 306.838 29.8305C306.838 28.4312 305.703 27.2969 304.304 27.2969C302.905 27.2969 301.77 28.4312 301.77 29.8305C301.77 31.2298 302.905 32.3641 304.304 32.3641Z" fill="white"/>
<path d="M312.679 31.1198C314.039 31.1198 315.142 30.017 315.142 28.6566C315.142 27.2962 314.039 26.1934 312.679 26.1934C311.319 26.1934 310.216 27.2962 310.216 28.6566C310.216 30.017 311.319 31.1198 312.679 31.1198Z" fill="white"/>
<path d="M321.031 29.8775C322.352 29.8775 323.424 28.8062 323.424 27.4847C323.424 26.1631 322.352 25.0918 321.031 25.0918C319.709 25.0918 318.638 26.1631 318.638 27.4847C318.638 28.8062 319.709 29.8775 321.031 29.8775Z" fill="white"/>
<path d="M329.406 28.6098C328.139 28.6098 327.107 27.5776 327.107 26.3108C327.107 25.0439 328.139 24.0117 329.406 24.0117C330.672 24.0117 331.705 25.0439 331.705 26.3108C331.705 27.5776 330.672 28.6098 329.406 28.6098Z" fill="white"/>
<path d="M337.757 27.344C338.988 27.344 339.986 26.3462 339.986 25.1154C339.986 23.8845 338.988 22.8867 337.757 22.8867C336.526 22.8867 335.529 23.8845 335.529 25.1154C335.529 26.3462 336.526 27.344 337.757 27.344Z" fill="white"/>
<path d="M346.132 26.0763C347.311 26.0763 348.267 25.1205 348.267 23.9415C348.267 22.7624 347.311 21.8066 346.132 21.8066C344.953 21.8066 343.997 22.7624 343.997 23.9415C343.997 25.1205 344.953 26.0763 346.132 26.0763Z" fill="white"/>
<path d="M354.484 24.8105C355.611 24.8105 356.525 23.8967 356.525 22.7695C356.525 21.6423 355.611 20.7285 354.484 20.7285C353.357 20.7285 352.443 21.6423 352.443 22.7695C352.443 23.8967 353.357 24.8105 354.484 24.8105Z" fill="white"/>
<path d="M362.835 23.5427C361.756 23.5427 360.888 22.6747 360.888 21.5956C360.888 20.5164 361.756 19.6484 362.835 19.6484C363.915 19.6484 364.783 20.5164 364.783 21.5956C364.783 22.6747 363.915 23.5427 362.835 23.5427Z" fill="white"/>
<path d="M371.21 22.2534C370.202 22.2534 369.381 21.4323 369.381 20.4236C369.381 19.4148 370.202 18.5938 371.21 18.5938C372.219 18.5938 373.04 19.4148 373.04 20.4236C373.04 21.4323 372.219 22.2534 371.21 22.2534Z" fill="white"/>
<path d="M379.562 20.9622C378.624 20.9622 377.85 20.188 377.85 19.2497C377.85 18.3113 378.624 17.5371 379.562 17.5371C380.5 17.5371 381.275 18.3113 381.275 19.2497C381.275 20.188 380.5 20.9622 379.562 20.9622Z" fill="white"/>
<path d="M387.937 19.6729C388.818 19.6729 389.532 18.9587 389.532 18.0777C389.532 17.1966 388.818 16.4824 387.937 16.4824C387.056 16.4824 386.342 17.1966 386.342 18.0777C386.342 18.9587 387.056 19.6729 387.937 19.6729Z" fill="white"/>
<path d="M396.289 18.3817C397.105 18.3817 397.767 17.72 397.767 16.9037C397.767 16.0875 397.105 15.4258 396.289 15.4258C395.472 15.4258 394.811 16.0875 394.811 16.9037C394.811 17.72 395.472 18.3817 396.289 18.3817Z" fill="white"/>
<path d="M404.664 17.0689C405.402 17.0689 406.001 16.4702 406.001 15.7317C406.001 14.9932 405.402 14.3945 404.664 14.3945C403.925 14.3945 403.327 14.9932 403.327 15.7317C403.327 16.4702 403.925 17.0689 404.664 17.0689Z" fill="white"/>
<path d="M145.413 65.2299C146.968 65.2299 148.228 63.9695 148.228 62.4148C148.228 60.86 146.968 59.5996 145.413 59.5996C143.858 59.5996 142.598 60.86 142.598 62.4148C142.598 63.9695 143.858 65.2299 145.413 65.2299Z" fill="white"/>
<path d="M153.764 64.0581C152.193 64.0581 150.926 62.7912 150.926 61.2195C150.926 59.6477 152.193 58.3809 153.764 58.3809C155.336 58.3809 156.603 59.6477 156.603 61.2195C156.603 62.7912 155.336 64.0581 153.764 64.0581Z" fill="white"/>
<path d="M162.14 62.9077C160.568 62.9077 159.277 61.6409 159.277 60.0457C159.277 58.4504 160.544 57.1836 162.14 57.1836C163.735 57.1836 165.002 58.4504 165.002 60.0457C165.002 61.6409 163.735 62.9077 162.14 62.9077Z" fill="white"/>
<path d="M170.491 61.7593C172.072 61.7593 173.353 60.4779 173.353 58.8972C173.353 57.3165 172.072 56.0352 170.491 56.0352C168.91 56.0352 167.629 57.3165 167.629 58.8972C167.629 60.4779 168.91 61.7593 170.491 61.7593Z" fill="white"/>
<path d="M178.866 60.5855C180.46 60.5855 181.752 59.2936 181.752 57.7C181.752 56.1063 180.46 54.8145 178.866 54.8145C177.272 54.8145 175.981 56.1063 175.981 57.7C175.981 59.2936 177.272 60.5855 178.866 60.5855Z" fill="white"/>
<path d="M187.218 59.4371C188.824 59.4371 190.127 58.1347 190.127 56.5281C190.127 54.9215 188.824 53.6191 187.218 53.6191C185.611 53.6191 184.309 54.9215 184.309 56.5281C184.309 58.1347 185.611 59.4371 187.218 59.4371Z" fill="white"/>
<path d="M195.593 58.2633C197.199 58.2633 198.502 56.9609 198.502 55.3543C198.502 53.7477 197.199 52.4453 195.593 52.4453C193.986 52.4453 192.684 53.7477 192.684 55.3543C192.684 56.9609 193.986 58.2633 195.593 58.2633Z" fill="white"/>
<path d="M203.944 57.0894C205.551 57.0894 206.853 55.787 206.853 54.1805C206.853 52.5739 205.551 51.2715 203.944 51.2715C202.338 51.2715 201.035 52.5739 201.035 54.1805C201.035 55.787 202.338 57.0894 203.944 57.0894Z" fill="white"/>
<path d="M215.149 53.5488C215.45 51.984 214.426 50.4711 212.861 50.1698C211.296 49.8684 209.783 50.8927 209.482 52.4576C209.181 54.0224 210.205 55.5353 211.77 55.8367C213.335 56.138 214.848 55.1137 215.149 53.5488Z" fill="white"/>
<path d="M220.671 54.7203C222.265 54.7203 223.556 53.4284 223.556 51.8347C223.556 50.2411 222.265 48.9492 220.671 48.9492C219.077 48.9492 217.785 50.2411 217.785 51.8347C217.785 53.4284 219.077 54.7203 220.671 54.7203Z" fill="white"/>
<path d="M229.046 53.5249C230.627 53.5249 231.908 52.2435 231.908 50.6628C231.908 49.0822 230.627 47.8008 229.046 47.8008C227.465 47.8008 226.184 49.0822 226.184 50.6628C226.184 52.2435 227.465 53.5249 229.046 53.5249Z" fill="white"/>
<path d="M237.398 52.3276C235.826 52.3276 234.559 51.0608 234.559 49.489C234.559 47.9172 235.826 46.6504 237.398 46.6504C238.969 46.6504 240.236 47.9172 240.236 49.489C240.236 51.0608 238.969 52.3276 237.398 52.3276Z" fill="white"/>
<path d="M245.773 51.1322C244.201 51.1322 242.957 49.8654 242.957 48.3171C242.957 46.7688 244.224 45.502 245.773 45.502C247.321 45.502 248.588 46.7688 248.588 48.3171C248.588 49.8654 247.321 51.1322 245.773 51.1322Z" fill="white"/>
<path d="M254.124 49.935C252.576 49.935 251.309 48.6681 251.309 47.1198C251.309 45.5715 252.576 44.3047 254.124 44.3047C255.673 44.3047 256.939 45.5715 256.939 47.1198C256.939 48.6681 255.673 49.935 254.124 49.935Z" fill="white"/>
<path d="M262.499 48.7396C264.041 48.7396 265.291 47.4897 265.291 45.9479C265.291 44.4061 264.041 43.1562 262.499 43.1562C260.957 43.1562 259.708 44.4061 259.708 45.9479C259.708 47.4897 260.957 48.7396 262.499 48.7396Z" fill="white"/>
<path d="M270.851 47.5188C269.349 47.5188 268.13 46.2989 268.13 44.7975C268.13 43.2961 269.349 42.0762 270.851 42.0762C272.352 42.0762 273.572 43.2961 273.572 44.7975C273.572 46.2989 272.352 47.5188 270.851 47.5188Z" fill="white"/>
<path d="M279.226 46.2745C280.703 46.2745 281.9 45.0772 281.9 43.6002C281.9 42.1231 280.703 40.9258 279.226 40.9258C277.749 40.9258 276.551 42.1231 276.551 43.6002C276.551 45.0772 277.749 46.2745 279.226 46.2745Z" fill="white"/>
<path d="M287.577 45.0557C286.123 45.0557 284.95 43.8827 284.95 42.4282C284.95 40.9737 286.123 39.8008 287.577 39.8008C289.032 39.8008 290.205 40.9737 290.205 42.4282C290.205 43.8827 289.032 45.0557 287.577 45.0557Z" fill="white"/>
<path d="M295.952 43.8349C294.521 43.8349 293.372 42.6854 293.372 41.2544C293.372 39.8233 294.521 38.6738 295.952 38.6738C297.383 38.6738 298.533 39.8233 298.533 41.2544C298.533 42.6854 297.383 43.8349 295.952 43.8349Z" fill="white"/>
<path d="M304.304 42.6161C305.703 42.6161 306.838 41.4817 306.838 40.0824C306.838 38.6832 305.703 37.5488 304.304 37.5488C302.905 37.5488 301.77 38.6832 301.77 40.0824C301.77 41.4817 302.905 42.6161 304.304 42.6161Z" fill="white"/>
<path d="M312.679 41.3718C314.039 41.3718 315.142 40.269 315.142 38.9085C315.142 37.5481 314.039 36.4453 312.679 36.4453C311.319 36.4453 310.216 37.5481 310.216 38.9085C310.216 40.269 311.319 41.3718 312.679 41.3718Z" fill="white"/>
<path d="M321.031 40.1295C322.352 40.1295 323.424 39.0582 323.424 37.7366C323.424 36.4151 322.352 35.3438 321.031 35.3438C319.709 35.3438 318.638 36.4151 318.638 37.7366C318.638 39.0582 319.709 40.1295 321.031 40.1295Z" fill="white"/>
<path d="M329.406 38.8617C328.139 38.8617 327.107 37.8295 327.107 36.5627C327.107 35.2959 328.139 34.2637 329.406 34.2637C330.672 34.2637 331.705 35.2959 331.705 36.5627C331.705 37.8295 330.672 38.8617 329.406 38.8617Z" fill="white"/>
<path d="M337.757 37.596C336.537 37.596 335.529 36.6107 335.529 35.3673C335.529 34.124 336.514 33.1387 337.757 33.1387C339.001 33.1387 339.986 34.124 339.986 35.3673C339.986 36.6107 339.001 37.596 337.757 37.596Z" fill="white"/>
<path d="M346.132 36.3282C344.959 36.3282 343.997 35.3664 343.997 34.1934C343.997 33.0204 344.959 32.0586 346.132 32.0586C347.305 32.0586 348.267 33.0204 348.267 34.1934C348.267 35.3664 347.305 36.3282 346.132 36.3282Z" fill="white"/>
<path d="M354.484 35.0624C355.611 35.0624 356.525 34.1487 356.525 33.0215C356.525 31.8943 355.611 30.9805 354.484 30.9805C353.357 30.9805 352.443 31.8943 352.443 33.0215C352.443 34.1487 353.357 35.0624 354.484 35.0624Z" fill="white"/>
<path d="M362.835 33.7947C361.756 33.7947 360.888 32.9267 360.888 31.8475C360.888 30.7684 361.756 29.9004 362.835 29.9004C363.915 29.9004 364.783 30.7684 364.783 31.8475C364.783 32.9267 363.915 33.7947 362.835 33.7947Z" fill="white"/>
<path d="M371.21 32.5054C370.202 32.5054 369.381 31.6843 369.381 30.6756C369.381 29.6668 370.202 28.8457 371.21 28.8457C372.219 28.8457 373.04 29.6668 373.04 30.6756C373.04 31.6843 372.219 32.5054 371.21 32.5054Z" fill="white"/>
<path d="M379.562 31.2141C378.624 31.2141 377.85 30.44 377.85 29.5016C377.85 28.5632 378.624 27.7891 379.562 27.7891C380.5 27.7891 381.275 28.5632 381.275 29.5016C381.275 30.44 380.5 31.2141 379.562 31.2141Z" fill="white"/>
<path d="M387.937 29.9249C388.818 29.9249 389.532 29.2107 389.532 28.3296C389.532 27.4486 388.818 26.7344 387.937 26.7344C387.056 26.7344 386.342 27.4486 386.342 28.3296C386.342 29.2107 387.056 29.9249 387.937 29.9249Z" fill="white"/>
<path d="M396.289 28.6336C397.105 28.6336 397.767 27.9719 397.767 27.1557C397.767 26.3394 397.105 25.6777 396.289 25.6777C395.472 25.6777 394.811 26.3394 394.811 27.1557C394.811 27.9719 395.472 28.6336 396.289 28.6336Z" fill="white"/>
<path d="M404.664 27.3209C405.402 27.3209 406.001 26.7222 406.001 25.9837C406.001 25.2452 405.402 24.6465 404.664 24.6465C403.925 24.6465 403.327 25.2452 403.327 25.9837C403.327 26.7222 403.925 27.3209 404.664 27.3209Z" fill="white"/>
<path d="M220.671 64.9722C222.265 64.9722 223.556 63.6803 223.556 62.0867C223.556 60.4931 222.265 59.2012 220.671 59.2012C219.077 59.2012 217.785 60.4931 217.785 62.0867C217.785 63.6803 219.077 64.9722 220.671 64.9722Z" fill="white"/>
<path d="M229.046 63.7769C227.474 63.7769 226.184 62.4866 226.184 60.9148C226.184 59.343 227.474 58.0527 229.046 58.0527C230.618 58.0527 231.908 59.343 231.908 60.9148C231.908 62.4866 230.618 63.7769 229.046 63.7769Z" fill="white"/>
<path d="M237.398 62.5795C235.826 62.5795 234.559 61.3127 234.559 59.7409C234.559 58.1692 235.826 56.9023 237.398 56.9023C238.969 56.9023 240.236 58.1692 240.236 59.7409C240.236 61.3127 238.969 62.5795 237.398 62.5795Z" fill="white"/>
<path d="M245.773 61.3842C244.201 61.3842 242.957 60.1174 242.957 58.5691C242.957 57.0207 244.224 55.7539 245.773 55.7539C247.321 55.7539 248.588 57.0207 248.588 58.5691C248.588 60.1174 247.321 61.3842 245.773 61.3842Z" fill="white"/>
<path d="M254.124 60.2104C255.679 60.2104 256.939 58.95 256.939 57.3952C256.939 55.8405 255.679 54.5801 254.124 54.5801C252.569 54.5801 251.309 55.8405 251.309 57.3952C251.309 58.95 252.569 60.2104 254.124 60.2104Z" fill="white"/>
<path d="M262.499 59.013C264.041 59.013 265.291 57.7632 265.291 56.2214C265.291 54.6796 264.041 53.4297 262.499 53.4297C260.957 53.4297 259.708 54.6796 259.708 56.2214C259.708 57.7632 260.957 59.013 262.499 59.013Z" fill="white"/>
<path d="M270.851 57.7707C269.349 57.7707 268.13 56.5508 268.13 55.0494C268.13 53.548 269.349 52.3281 270.851 52.3281C272.352 52.3281 273.572 53.548 273.572 55.0494C273.572 56.5508 272.352 57.7707 270.851 57.7707Z" fill="white"/>
<path d="M279.226 56.5265C277.748 56.5265 276.551 55.3301 276.551 53.8521C276.551 52.3742 277.748 51.1777 279.226 51.1777C280.704 51.1777 281.9 52.3742 281.9 53.8521C281.9 55.3301 280.704 56.5265 279.226 56.5265Z" fill="white"/>
<path d="M287.577 55.3077C286.123 55.3077 284.95 54.1347 284.95 52.6802C284.95 51.2257 286.123 50.0527 287.577 50.0527C289.032 50.0527 290.205 51.2257 290.205 52.6802C290.205 54.1347 289.032 55.3077 287.577 55.3077Z" fill="white"/>
<path d="M295.952 54.0869C294.521 54.0869 293.372 52.9374 293.372 51.5063C293.372 50.0753 294.521 48.9258 295.952 48.9258C297.383 48.9258 298.533 50.0753 298.533 51.5063C298.533 52.9374 297.383 54.0869 295.952 54.0869Z" fill="white"/>
<path d="M304.304 52.868C305.703 52.868 306.838 51.7337 306.838 50.3344C306.838 48.9351 305.703 47.8008 304.304 47.8008C302.905 47.8008 301.77 48.9351 301.77 50.3344C301.77 51.7337 302.905 52.868 304.304 52.868Z" fill="white"/>
<path d="M312.679 51.6238C314.039 51.6238 315.142 50.5209 315.142 49.1605C315.142 47.8001 314.039 46.6973 312.679 46.6973C311.319 46.6973 310.216 47.8001 310.216 49.1605C310.216 50.5209 311.319 51.6238 312.679 51.6238Z" fill="white"/>
<path d="M321.031 50.3814C322.352 50.3814 323.424 49.3101 323.424 47.9886C323.424 46.667 322.352 45.5957 321.031 45.5957C319.709 45.5957 318.638 46.667 318.638 47.9886C318.638 49.3101 319.709 50.3814 321.031 50.3814Z" fill="white"/>
<path d="M329.406 49.1137C328.139 49.1137 327.107 48.0815 327.107 46.8147C327.107 45.5479 328.139 44.5156 329.406 44.5156C330.672 44.5156 331.705 45.5479 331.705 46.8147C331.705 48.0815 330.672 49.1137 329.406 49.1137Z" fill="white"/>
<path d="M337.757 47.8479C336.537 47.8479 335.529 46.8626 335.529 45.6193C335.529 44.3759 336.514 43.3906 337.757 43.3906C339.001 43.3906 339.986 44.3759 339.986 45.6193C339.986 46.8626 339.001 47.8479 337.757 47.8479Z" fill="white"/>
<path d="M346.132 46.6036C344.959 46.6036 343.997 45.6418 343.997 44.4688C343.997 43.2958 344.959 42.334 346.132 42.334C347.305 42.334 348.267 43.2958 348.267 44.4688C348.267 45.6418 347.305 46.6036 346.132 46.6036Z" fill="white"/>
<path d="M354.484 45.3144C355.611 45.3144 356.525 44.4006 356.525 43.2734C356.525 42.1462 355.611 41.2324 354.484 41.2324C353.357 41.2324 352.443 42.1462 352.443 43.2734C352.443 44.4006 353.357 45.3144 354.484 45.3144Z" fill="white"/>
<path d="M362.835 44.0701C361.756 44.0701 360.888 43.2021 360.888 42.1229C360.888 41.0438 361.756 40.1758 362.835 40.1758C363.915 40.1758 364.783 41.0438 364.783 42.1229C364.783 43.2021 363.915 44.0701 362.835 44.0701Z" fill="white"/>
<path d="M371.21 42.7573C372.221 42.7573 373.04 41.9381 373.04 40.9275C373.04 39.9169 372.221 39.0977 371.21 39.0977C370.2 39.0977 369.381 39.9169 369.381 40.9275C369.381 41.9381 370.2 42.7573 371.21 42.7573Z" fill="white"/>
<path d="M379.562 41.4661C380.508 41.4661 381.275 40.6994 381.275 39.7535C381.275 38.8077 380.508 38.041 379.562 38.041C378.616 38.041 377.85 38.8077 377.85 39.7535C377.85 40.6994 378.616 41.4661 379.562 41.4661Z" fill="white"/>
<path d="M387.937 40.1768C387.046 40.1768 386.342 39.4496 386.342 38.5816C386.342 37.7136 387.069 36.9863 387.937 36.9863C388.805 36.9863 389.532 37.7136 389.532 38.5816C389.532 39.4496 388.805 40.1768 387.937 40.1768Z" fill="white"/>
<path d="M396.289 38.8856C395.468 38.8856 394.811 38.2287 394.811 37.4076C394.811 36.5865 395.468 35.9297 396.289 35.9297C397.11 35.9297 397.767 36.5865 397.767 37.4076C397.767 38.2287 397.11 38.8856 396.289 38.8856Z" fill="white"/>
<path d="M404.664 37.5728C405.402 37.5728 406.001 36.9741 406.001 36.2356C406.001 35.4971 405.402 34.8984 404.664 34.8984C403.925 34.8984 403.327 35.4971 403.327 36.2356C403.327 36.9741 403.925 37.5728 404.664 37.5728Z" fill="white"/>
<path d="M295.952 64.3388C294.521 64.3388 293.372 63.1893 293.372 61.7583C293.372 60.3273 294.521 59.1777 295.952 59.1777C297.383 59.1777 298.533 60.3273 298.533 61.7583C298.533 63.1893 297.383 64.3388 295.952 64.3388Z" fill="white"/>
<path d="M304.304 63.12C305.703 63.12 306.838 61.9856 306.838 60.5864C306.838 59.1871 305.703 58.0527 304.304 58.0527C302.905 58.0527 301.77 59.1871 301.77 60.5864C301.77 61.9856 302.905 63.12 304.304 63.12Z" fill="white"/>
<path d="M312.679 61.8757C314.039 61.8757 315.142 60.7729 315.142 59.4125C315.142 58.0521 314.039 56.9492 312.679 56.9492C311.319 56.9492 310.216 58.0521 310.216 59.4125C310.216 60.7729 311.319 61.8757 312.679 61.8757Z" fill="white"/>
<path d="M321.031 60.6334C322.352 60.6334 323.424 59.5621 323.424 58.2405C323.424 56.919 322.352 55.8477 321.031 55.8477C319.709 55.8477 318.638 56.919 318.638 58.2405C318.638 59.5621 319.709 60.6334 321.031 60.6334Z" fill="white"/>
<path d="M329.406 59.3656C328.139 59.3656 327.107 58.3334 327.107 57.0666C327.107 55.7998 328.139 54.7676 329.406 54.7676C330.672 54.7676 331.705 55.7998 331.705 57.0666C331.705 58.3334 330.672 59.3656 329.406 59.3656Z" fill="white"/>
<path d="M337.757 58.0999C336.537 58.0999 335.529 57.1146 335.529 55.8712C335.529 54.6279 336.514 53.6426 337.757 53.6426C339.001 53.6426 339.986 54.6279 339.986 55.8712C339.986 57.1146 339.001 58.0999 337.757 58.0999Z" fill="white"/>
<path d="M346.132 56.8556C344.959 56.8556 343.997 55.8937 343.997 54.7208C343.997 53.5478 344.959 52.5859 346.132 52.5859C347.305 52.5859 348.267 53.5478 348.267 54.7208C348.267 55.8937 347.305 56.8556 346.132 56.8556Z" fill="white"/>
<path d="M354.484 55.5898C355.611 55.5898 356.525 54.676 356.525 53.5488C356.525 52.4216 355.611 51.5078 354.484 51.5078C353.357 51.5078 352.443 52.4216 352.443 53.5488C352.443 54.676 353.357 55.5898 354.484 55.5898Z" fill="white"/>
<path d="M362.835 54.322C361.756 54.322 360.888 53.454 360.888 52.3749C360.888 51.2957 361.756 50.4277 362.835 50.4277C363.915 50.4277 364.783 51.2957 364.783 52.3749C364.783 53.454 363.915 54.322 362.835 54.322Z" fill="white"/>
<path d="M371.21 53.0327C370.202 53.0327 369.381 52.2117 369.381 51.2029C369.381 50.1941 370.202 49.373 371.21 49.373C372.219 49.373 373.04 50.1941 373.04 51.2029C373.04 52.2117 372.219 53.0327 371.21 53.0327Z" fill="white"/>
<path d="M379.562 51.7181C378.624 51.7181 377.85 50.9439 377.85 50.0055C377.85 49.0671 378.624 48.293 379.562 48.293C380.5 48.293 381.275 49.0671 381.275 50.0055C381.275 50.9439 380.5 51.7181 379.562 51.7181Z" fill="white"/>
<path d="M387.937 50.4288C388.818 50.4288 389.532 49.7146 389.532 48.8335C389.532 47.9525 388.818 47.2383 387.937 47.2383C387.056 47.2383 386.342 47.9525 386.342 48.8335C386.342 49.7146 387.056 50.4288 387.937 50.4288Z" fill="white"/>
<path d="M396.289 49.1375C397.105 49.1375 397.767 48.4758 397.767 47.6596C397.767 46.8433 397.105 46.1816 396.289 46.1816C395.472 46.1816 394.811 46.8433 394.811 47.6596C394.811 48.4758 395.472 49.1375 396.289 49.1375Z" fill="white"/>
<path d="M404.664 47.8248C405.402 47.8248 406.001 47.2261 406.001 46.4876C406.001 45.7491 405.402 45.1504 404.664 45.1504C403.925 45.1504 403.327 45.7491 403.327 46.4876C403.327 47.2261 403.925 47.8248 404.664 47.8248Z" fill="white"/>
<path d="M371.21 63.2827C370.202 63.2827 369.381 62.4616 369.381 61.4529C369.381 60.4441 370.202 59.623 371.21 59.623C372.219 59.623 373.04 60.4441 373.04 61.4529C373.04 62.4616 372.219 63.2827 371.21 63.2827Z" fill="white"/>
<path d="M379.562 61.9934C378.624 61.9934 377.85 61.2193 377.85 60.2809C377.85 59.3425 378.624 58.5684 379.562 58.5684C380.5 58.5684 381.275 59.3425 381.275 60.2809C381.275 61.2193 380.5 61.9934 379.562 61.9934Z" fill="white"/>
<path d="M387.937 60.6788C388.818 60.6788 389.532 59.9646 389.532 59.0835C389.532 58.2025 388.818 57.4883 387.937 57.4883C387.056 57.4883 386.342 58.2025 386.342 59.0835C386.342 59.9646 387.056 60.6788 387.937 60.6788Z" fill="white"/>
<path d="M396.289 59.3895C397.105 59.3895 397.767 58.7278 397.767 57.9116C397.767 57.0953 397.105 56.4336 396.289 56.4336C395.472 56.4336 394.811 57.0953 394.811 57.9116C394.811 58.7278 395.472 59.3895 396.289 59.3895Z" fill="white"/>
<path d="M404.664 58.0748C405.402 58.0748 406.001 57.4761 406.001 56.7376C406.001 55.9991 405.402 55.4004 404.664 55.4004C403.925 55.4004 403.327 55.9991 403.327 56.7376C403.327 57.4761 403.925 58.0748 404.664 58.0748Z" fill="white"/>
</g>
<g style="mix-blend-mode:screen">
<g style="mix-blend-mode:screen">
<path d="M114.423 29.5016L-21.1495 35.3665C-24.3869 35.5072 -27.1317 32.9971 -27.2724 29.7596C-27.4132 26.5222 -24.903 23.7775 -21.6656 23.6367C-21.5014 23.6367 -21.3137 23.6367 -21.1495 23.6367L114.423 29.5016Z" fill="url(#paint3_linear_1005_5506)"/>
</g>
<g style="mix-blend-mode:screen">
<path d="M265.15 29.5014L400.723 23.6365C403.96 23.4957 406.705 26.0059 406.845 29.2433C406.986 32.4807 404.476 35.2255 401.239 35.3662C401.074 35.3662 400.887 35.3662 400.723 35.3662L265.15 29.5014Z" fill="url(#paint4_linear_1005_5506)"/>
</g>
<g style="mix-blend-mode:screen">
<path d="M68.8177 11.812L13.6409 10.1464C10.3801 10.0526 7.82297 7.33124 7.91681 4.07037C8.01065 0.809505 10.7319 -1.74759 13.9928 -1.65375C14.4151 -1.65375 14.8374 -1.58335 15.2362 -1.48951L68.8177 11.812Z" fill="url(#paint5_linear_1005_5506)"/>
</g>
</g>
<path d="M292.692 32.7621L410.622 -44.7011L390.095 -58.1903L505 -109.332L420.452 -52.1847L448.861 -33.5109L292.692 32.7621Z" fill="url(#paint6_radial_1005_5506)"/>
<g style="mix-blend-mode:screen" opacity="0.5">
<g style="mix-blend-mode:screen">
<path d="M220.671 52.2109L279.015 102.273C281.478 104.385 281.759 108.091 279.648 110.578C277.537 113.041 273.83 113.323 271.343 111.212C271.132 111.024 270.898 110.789 270.71 110.578L220.647 52.2344L220.671 52.2109Z" fill="url(#paint7_linear_1005_5506)"/>
</g>
<g style="mix-blend-mode:screen">
<path d="M230.618 34.9902L306.181 49.1598C309.371 49.7697 311.483 52.8429 310.873 56.0334C310.263 59.2239 307.19 61.3352 303.999 60.7253C303.718 60.6784 303.413 60.5845 303.131 60.4907L230.594 34.9902H230.618Z" fill="url(#paint8_linear_1005_5506)"/>
</g>
<g style="mix-blend-mode:screen">
<path d="M140.932 42.0996L68.3954 67.6001C65.3222 68.6792 61.9674 67.0605 60.8883 64.0108C59.8092 60.9376 61.4279 57.5829 64.4776 56.5037C64.7591 56.4099 65.0641 56.3161 65.3456 56.2691L140.909 42.0996H140.932Z" fill="url(#paint9_linear_1005_5506)"/>
</g>
<g style="mix-blend-mode:screen">
<path d="M248.165 6.86248L320.702 -18.638C323.775 -19.7171 327.13 -18.0984 328.209 -15.0487C329.288 -11.9755 327.67 -8.62078 324.62 -7.54164C324.338 -7.44781 324.033 -7.35397 323.752 -7.30705L248.189 6.86248H248.165Z" fill="url(#paint10_linear_1005_5506)"/>
</g>
<g style="mix-blend-mode:screen">
<path d="M144.944 5.7369L114.071 -0.902125C110.857 -1.60591 108.793 -4.77295 109.496 -7.9869C110.2 -11.2009 113.367 -13.2653 116.581 -12.5615C117.332 -12.3973 118.036 -12.0923 118.622 -11.6935L144.944 5.76036V5.7369Z" fill="url(#paint11_linear_1005_5506)"/>
</g>
<g style="mix-blend-mode:screen">
<path d="M261.045 53.5L291.917 60.1391C295.131 60.8429 297.196 64.0099 296.492 67.2238C295.788 70.4378 292.621 72.5022 289.407 71.7984C288.657 71.6342 287.953 71.3292 287.366 70.9304L261.045 53.4766V53.5Z" fill="url(#paint12_linear_1005_5506)"/>
</g>
<g style="mix-blend-mode:screen">
<path d="M120.827 34.1932L90.7757 43.882C87.6322 44.8908 84.2775 43.1782 83.2687 40.0347C82.2599 36.8911 83.9725 33.5364 87.116 32.5276C87.8433 32.293 88.594 32.1992 89.3212 32.2461L120.851 34.1932H120.827Z" fill="url(#paint13_linear_1005_5506)"/>
</g>
<path fill-rule="evenodd" clip-rule="evenodd" d="M482.498 51.7685C476.538 55.1925 468.931 53.1385 465.506 47.1785C462.081 41.2185 464.136 33.6115 470.096 30.1865L515.891 3.74653C521.851 0.321526 529.458 2.37653 532.883 8.33653C536.307 14.2955 534.253 21.9035 528.293 25.3285L482.498 51.7685ZM433.905 -9.30247C430.453 -3.34247 422.823 -1.30946 416.864 -4.76147C410.904 -8.21347 408.871 -15.8425 412.323 -21.8025L438.138 -66.5145C441.59 -72.4735 449.219 -74.5065 455.179 -71.0555C461.139 -67.6035 463.172 -59.9735 459.72 -54.0145L433.905 -9.30247ZM498.662 127.753C491.785 127.753 486.211 122.178 486.211 115.302C486.211 108.426 491.786 102.851 498.662 102.851H550.292C557.168 102.851 562.743 108.425 562.743 115.302C562.743 122.179 557.168 127.753 550.292 127.753H498.662Z" fill="#FD5BA6"/>
<path fill-rule="evenodd" clip-rule="evenodd" d="M300.355 86.1586L373.614 43.8627C396.882 30.4287 426.91 38.4747 440.343 61.7427C453.776 85.0107 445.731 115.039 422.463 128.472L349.204 170.769L300.355 86.1596V86.1586Z" fill="#FD5BA6"/>
<path fill-rule="evenodd" clip-rule="evenodd" d="M300.355 86.1588L373.615 43.8618C377.573 41.5768 381.727 39.9138 385.962 38.8418L432.985 120.289C429.938 123.42 426.422 126.186 422.464 128.471L349.204 170.768L300.355 86.1588Z" fill="#FF3C98"/>
<path fill-rule="evenodd" clip-rule="evenodd" d="M325.973 -21.961L455.648 202.643C460.69 211.376 460.598 221.421 455.398 230.06C450.197 238.7 441.364 243.482 431.287 243.114C377.925 241.162 312.35 226.657 249.69 262.834L170.866 126.308C233.526 90.131 253.753 26.089 278.743 -21.1C283.463 -30.011 292.022 -35.269 302.103 -35.454C312.186 -35.638 320.931 -30.694 325.973 -21.961Z" fill="#FDC72E"/>
<path fill-rule="evenodd" clip-rule="evenodd" d="M325.973 -21.9611L455.648 202.643C455.779 202.871 455.907 203.099 456.031 203.328C450.956 207.921 444.345 210.327 437.088 210.062C383.726 208.109 318.151 193.605 255.491 229.782L236.828 240.557L170.867 126.309C233.527 90.1319 253.754 26.0899 278.744 -21.0981C283.464 -30.0101 292.023 -35.2681 302.105 -35.4521C312.188 -35.6361 320.932 -30.6931 325.974 -21.9601L325.973 -21.9611Z" fill="#FCDB35"/>
</g>
</g>
</g>
</g>
<defs>
<linearGradient id="paint0_linear_1005_5506" x1="79.8421" y1="1.8339e-05" x2="385.022" y2="60.8128" gradientUnits="userSpaceOnUse">
<stop stop-color="#4F0CC0"/>
<stop offset="1" stop-color="#FB5B5B"/>
</linearGradient>
<radialGradient id="paint1_radial_1005_5506" cx="0" cy="0" r="1" gradientUnits="userSpaceOnUse" gradientTransform="translate(423.924 -133.565) scale(434.024 434.024)">
<stop stop-color="#FBB120"/>
<stop offset="0.55" stop-color="#EF2E79"/>
<stop offset="0.69" stop-color="#C52284"/>
<stop offset="1" stop-color="#5D05A1"/>
</radialGradient>
<radialGradient id="paint2_radial_1005_5506" cx="0" cy="0" r="1" gradientUnits="userSpaceOnUse" gradientTransform="translate(69.531 41.9411) rotate(12.11) scale(106.53 106.53)">
<stop stop-color="#5D05A1"/>
<stop offset="0.31" stop-color="#C52284"/>
<stop offset="0.45" stop-color="#EF2E79"/>
<stop offset="0.99" stop-color="#FBB120"/>
</radialGradient>
<linearGradient id="paint3_linear_1005_5506" x1="120.288" y1="29.5016" x2="-27.0144" y2="29.5016" gradientUnits="userSpaceOnUse">
<stop stop-opacity="0"/>
<stop offset="0.18" stop-color="#030303" stop-opacity="0.01"/>
<stop offset="0.31" stop-color="#0C0C0C" stop-opacity="0.05"/>
<stop offset="0.43" stop-color="#1C1C1C" stop-opacity="0.11"/>
<stop offset="0.54" stop-color="#333333" stop-opacity="0.2"/>
<stop offset="0.64" stop-color="#515151" stop-opacity="0.32"/>
<stop offset="0.74" stop-color="#757575" stop-opacity="0.46"/>
<stop offset="0.83" stop-color="#A0A0A0" stop-opacity="0.63"/>
<stop offset="0.92" stop-color="#D0D0D0" stop-opacity="0.82"/>
<stop offset="1" stop-color="white"/>
</linearGradient>
<linearGradient id="paint4_linear_1005_5506" x1="259.285" y1="29.5014" x2="406.587" y2="29.5014" gradientUnits="userSpaceOnUse">
<stop stop-opacity="0"/>
<stop offset="0.18" stop-color="#030303" stop-opacity="0.01"/>
<stop offset="0.31" stop-color="#0C0C0C" stop-opacity="0.05"/>
<stop offset="0.43" stop-color="#1C1C1C" stop-opacity="0.11"/>
<stop offset="0.54" stop-color="#333333" stop-opacity="0.2"/>
<stop offset="0.64" stop-color="#515151" stop-opacity="0.32"/>
<stop offset="0.74" stop-color="#757575" stop-opacity="0.46"/>
<stop offset="0.83" stop-color="#A0A0A0" stop-opacity="0.63"/>
<stop offset="0.92" stop-color="#D0D0D0" stop-opacity="0.82"/>
<stop offset="1" stop-color="white"/>
</linearGradient>
<linearGradient id="paint5_linear_1005_5506" x1="74.6356" y1="12.6331" x2="8.64405" y2="3.53082" gradientUnits="userSpaceOnUse">
<stop stop-opacity="0"/>
<stop offset="0.18" stop-color="#030303" stop-opacity="0.01"/>
<stop offset="0.31" stop-color="#0C0C0C" stop-opacity="0.05"/>
<stop offset="0.43" stop-color="#1C1C1C" stop-opacity="0.11"/>
<stop offset="0.54" stop-color="#333333" stop-opacity="0.2"/>
<stop offset="0.64" stop-color="#515151" stop-opacity="0.32"/>
<stop offset="0.74" stop-color="#757575" stop-opacity="0.46"/>
<stop offset="0.83" stop-color="#A0A0A0" stop-opacity="0.63"/>
<stop offset="0.92" stop-color="#D0D0D0" stop-opacity="0.82"/>
<stop offset="1" stop-color="white"/>
</linearGradient>
<radialGradient id="paint6_radial_1005_5506" cx="0" cy="0" r="1" gradientUnits="userSpaceOnUse" gradientTransform="translate(475.934 -73.5094) scale(125.719 125.719)">
<stop stop-color="#5D05A1"/>
<stop offset="0.31" stop-color="#C52284"/>
<stop offset="0.45" stop-color="#EF2E79"/>
<stop offset="0.99" stop-color="#FBB120"/>
</radialGradient>
<linearGradient id="paint7_linear_1005_5506" x1="216.519" y1="48.0821" x2="279.038" y2="110.578" gradientUnits="userSpaceOnUse">
<stop stop-opacity="0"/>
<stop offset="0.18" stop-color="#030303" stop-opacity="0.01"/>
<stop offset="0.31" stop-color="#0C0C0C" stop-opacity="0.05"/>
<stop offset="0.43" stop-color="#1C1C1C" stop-opacity="0.11"/>
<stop offset="0.54" stop-color="#333333" stop-opacity="0.2"/>
<stop offset="0.64" stop-color="#515151" stop-opacity="0.32"/>
<stop offset="0.74" stop-color="#757575" stop-opacity="0.46"/>
<stop offset="0.83" stop-color="#A0A0A0" stop-opacity="0.63"/>
<stop offset="0.92" stop-color="#D0D0D0" stop-opacity="0.82"/>
<stop offset="1" stop-color="white"/>
</linearGradient>
<linearGradient id="paint8_linear_1005_5506" x1="224.964" y1="33.4888" x2="310.333" y2="56.3618" gradientUnits="userSpaceOnUse">
<stop stop-opacity="0"/>
<stop offset="0.18" stop-color="#030303" stop-opacity="0.01"/>
<stop offset="0.31" stop-color="#0C0C0C" stop-opacity="0.05"/>
<stop offset="0.43" stop-color="#1C1C1C" stop-opacity="0.11"/>
<stop offset="0.54" stop-color="#333333" stop-opacity="0.2"/>
<stop offset="0.64" stop-color="#515151" stop-opacity="0.32"/>
<stop offset="0.74" stop-color="#757575" stop-opacity="0.46"/>
<stop offset="0.83" stop-color="#A0A0A0" stop-opacity="0.63"/>
<stop offset="0.92" stop-color="#D0D0D0" stop-opacity="0.82"/>
<stop offset="1" stop-color="white"/>
</linearGradient>
<linearGradient id="paint9_linear_1005_5506" x1="146.609" y1="40.5982" x2="61.2402" y2="63.4712" gradientUnits="userSpaceOnUse">
<stop stop-opacity="0"/>
<stop offset="0.18" stop-color="#030303" stop-opacity="0.01"/>
<stop offset="0.31" stop-color="#0C0C0C" stop-opacity="0.05"/>
<stop offset="0.43" stop-color="#1C1C1C" stop-opacity="0.11"/>
<stop offset="0.54" stop-color="#333333" stop-opacity="0.2"/>
<stop offset="0.64" stop-color="#515151" stop-opacity="0.32"/>
<stop offset="0.74" stop-color="#757575" stop-opacity="0.46"/>
<stop offset="0.83" stop-color="#A0A0A0" stop-opacity="0.63"/>
<stop offset="0.92" stop-color="#D0D0D0" stop-opacity="0.82"/>
<stop offset="1" stop-color="white"/>
</linearGradient>
<linearGradient id="paint10_linear_1005_5506" x1="242.512" y1="8.38735" x2="327.881" y2="-14.4856" gradientUnits="userSpaceOnUse">
<stop stop-opacity="0"/>
<stop offset="0.18" stop-color="#030303" stop-opacity="0.01"/>
<stop offset="0.31" stop-color="#0C0C0C" stop-opacity="0.05"/>
<stop offset="0.43" stop-color="#1C1C1C" stop-opacity="0.11"/>
<stop offset="0.54" stop-color="#333333" stop-opacity="0.2"/>
<stop offset="0.64" stop-color="#515151" stop-opacity="0.32"/>
<stop offset="0.74" stop-color="#757575" stop-opacity="0.46"/>
<stop offset="0.83" stop-color="#A0A0A0" stop-opacity="0.63"/>
<stop offset="0.92" stop-color="#D0D0D0" stop-opacity="0.82"/>
<stop offset="1" stop-color="white"/>
</linearGradient>
<linearGradient id="paint11_linear_1005_5506" x1="150.339" y1="8.01247" x2="110.927" y2="-8.57339" gradientUnits="userSpaceOnUse">
<stop stop-opacity="0"/>
<stop offset="0.18" stop-color="#030303" stop-opacity="0.01"/>
<stop offset="0.31" stop-color="#0C0C0C" stop-opacity="0.05"/>
<stop offset="0.43" stop-color="#1C1C1C" stop-opacity="0.11"/>
<stop offset="0.54" stop-color="#333333" stop-opacity="0.2"/>
<stop offset="0.64" stop-color="#515151" stop-opacity="0.32"/>
<stop offset="0.74" stop-color="#757575" stop-opacity="0.46"/>
<stop offset="0.83" stop-color="#A0A0A0" stop-opacity="0.63"/>
<stop offset="0.92" stop-color="#D0D0D0" stop-opacity="0.82"/>
<stop offset="1" stop-color="white"/>
</linearGradient>
<linearGradient id="paint12_linear_1005_5506" x1="255.626" y1="51.2245" x2="295.038" y2="67.8103" gradientUnits="userSpaceOnUse">
<stop stop-opacity="0"/>
<stop offset="0.18" stop-color="#030303" stop-opacity="0.01"/>
<stop offset="0.31" stop-color="#0C0C0C" stop-opacity="0.05"/>
<stop offset="0.43" stop-color="#1C1C1C" stop-opacity="0.11"/>
<stop offset="0.54" stop-color="#333333" stop-opacity="0.2"/>
<stop offset="0.64" stop-color="#515151" stop-opacity="0.32"/>
<stop offset="0.74" stop-color="#757575" stop-opacity="0.46"/>
<stop offset="0.83" stop-color="#A0A0A0" stop-opacity="0.63"/>
<stop offset="0.92" stop-color="#D0D0D0" stop-opacity="0.82"/>
<stop offset="1" stop-color="white"/>
</linearGradient>
<linearGradient id="paint13_linear_1005_5506" x1="126.645" y1="33.466" x2="84.2071" y2="38.7913" gradientUnits="userSpaceOnUse">
<stop stop-opacity="0"/>
<stop offset="0.18" stop-color="#030303" stop-opacity="0.01"/>
<stop offset="0.31" stop-color="#0C0C0C" stop-opacity="0.05"/>
<stop offset="0.43" stop-color="#1C1C1C" stop-opacity="0.11"/>
<stop offset="0.54" stop-color="#333333" stop-opacity="0.2"/>
<stop offset="0.64" stop-color="#515151" stop-opacity="0.32"/>
<stop offset="0.74" stop-color="#757575" stop-opacity="0.46"/>
<stop offset="0.83" stop-color="#A0A0A0" stop-opacity="0.63"/>
<stop offset="0.92" stop-color="#D0D0D0" stop-opacity="0.82"/>
<stop offset="1" stop-color="white"/>
</linearGradient>
<clipPath id="clip0_1005_5506">
<rect width="410" height="60" fill="white"/>
</clipPath>
</defs>
</svg>
