<svg width="22" height="22" viewBox="0 0 22 22" fill="none" xmlns="http://www.w3.org/2000/svg">
<path d="M1.57779 20.4223C1.64164 20.4863 1.71746 20.537 1.80092 20.5716C1.88438 20.6062 1.97385 20.624 2.06419 20.624C2.15454 20.624 2.24401 20.6062 2.32747 20.5716C2.41093 20.537 2.48675 20.4863 2.5506 20.4223L11 11.973L19.4528 20.4223C19.5818 20.5513 19.7568 20.6238 19.9392 20.6238C20.1216 20.6238 20.2966 20.5513 20.4256 20.4223C20.5546 20.2933 20.6271 20.1184 20.6271 19.9359C20.6271 19.7535 20.5546 19.5785 20.4256 19.4495L11.9728 11.0001L20.4222 2.54734C20.5512 2.41833 20.6236 2.24337 20.6236 2.06093C20.6236 1.87849 20.5512 1.70353 20.4222 1.57452C20.2932 1.44552 20.1182 1.37305 19.9358 1.37305C19.7533 1.37305 19.5784 1.44552 19.4494 1.57452L11 10.0273L2.54716 1.57796C2.41564 1.46533 2.24647 1.40648 2.07344 1.41316C1.90041 1.41984 1.73628 1.49157 1.61384 1.61401C1.4914 1.73645 1.41967 1.90058 1.41299 2.07361C1.4063 2.24664 1.46516 2.41582 1.57779 2.54734L10.0272 11.0001L1.57779 19.453C1.44974 19.5818 1.37787 19.756 1.37787 19.9376C1.37787 20.1193 1.44974 20.2935 1.57779 20.4223Z" fill="white"/>
</svg>
