<svg width="22" height="22" viewBox="0 0 22 22" fill="none" xmlns="http://www.w3.org/2000/svg">
<g id="customer-service 1">
<g id="XMLID_2_">
<g id="Group">
<g id="Group_2">
<path id="Vector" d="M17.2095 14.2162C16.3382 15.4129 14.9269 16.1922 13.3368 16.1922H11.1056C10.3349 16.1922 9.6785 15.7029 9.42996 15.018C9.12317 14.9265 8.82232 14.8077 8.52874 14.6618C7.90703 14.3529 7.34252 13.9344 6.84558 13.416C3.62217 14.1242 1.20966 16.9964 1.20966 20.4325V20.8817C1.20966 21.4991 1.71018 21.9996 2.32758 21.9996H19.6724C20.2898 21.9996 20.7903 21.4991 20.7903 20.8817V20.4325C20.7903 17.7781 19.3505 15.4601 17.2095 14.2162Z" fill="#58CC8C"/>
<path id="Vector_2" d="M5.65741 11.1122C6.13788 11.1122 6.55609 10.8459 6.77275 10.4529C6.77845 10.4685 6.78424 10.4839 6.79008 10.4994C6.7918 10.504 6.79353 10.5087 6.79525 10.5133C7.30353 11.8512 8.29252 12.9728 9.59663 13.4628C9.91203 12.9617 10.4697 12.6284 11.1057 12.6284H13.3368C13.5594 12.6284 13.7665 12.5656 13.9481 12.4641C14.2531 12.2935 14.5273 11.8609 14.6689 11.6316C14.8956 11.2647 15.0712 10.876 15.2269 10.4522C15.3143 10.6111 15.4347 10.7494 15.5788 10.8577V11.4048C15.5788 12.641 14.5731 13.6468 13.3368 13.6468H11.1056C10.6838 13.6468 10.3419 13.9888 10.3419 14.4105C10.3419 14.8324 10.6838 15.1743 11.1056 15.1743H13.3368C15.4153 15.1743 17.1063 13.4833 17.1063 11.4048V10.8577C17.4155 10.6254 17.6155 10.2557 17.6155 9.83928V7.53628V6.65315C17.6155 6.22815 17.4071 5.85211 17.0871 5.6209C16.8388 2.47995 14.2036 0 11 0C7.7963 0 5.16114 2.47995 4.91294 5.62085C4.59289 5.85206 4.38446 6.22815 4.38446 6.65311V9.83919C4.38446 10.5442 4.95721 11.1122 5.65741 11.1122ZM11 1.52757C13.3716 1.52757 15.3277 3.33995 15.5563 5.65244C15.4062 5.77051 15.2833 5.92141 15.1986 6.09457C14.4779 4.21432 12.8691 2.90524 10.9999 2.90524C9.0905 2.90524 7.50751 4.25931 6.80415 6.08706C6.80319 6.08955 6.80228 6.09208 6.80133 6.09462C6.71661 5.92146 6.59366 5.77056 6.44357 5.65248C6.67234 3.33995 8.62841 1.52757 11 1.52757Z" fill="#58CC8C"/>
</g>
</g>
</g>
</g>
</svg>
