<svg width="30" height="30" viewBox="0 0 30 30" fill="none" xmlns="http://www.w3.org/2000/svg">
<path fill-rule="evenodd" clip-rule="evenodd" d="M25.5812 13.0836V23.048C28.0669 22.7499 30 20.6299 30 18.0655C30 15.5011 28.0669 13.381 25.5812 13.0836ZM20.4186 26.6755H15.7874C14.9388 26.6755 14.2474 27.3661 14.2474 28.2155C14.2474 29.0643 14.9388 29.7548 15.7874 29.7548H20.4186C20.6943 29.7548 20.9187 29.5311 20.9187 29.2549V28.693C23.373 28.4699 25.3331 26.5112 25.5587 24.0574L24.5501 24.0854C24.3207 25.9742 22.8117 27.4736 20.9187 27.688V27.1754C20.9187 26.8999 20.6943 26.6755 20.4186 26.6755ZM4.4185 23.048V13.0836C1.93348 13.381 0 15.5011 0 18.0654C0 20.6298 1.93348 22.7499 4.4185 23.048ZM7.27939 23.0855V13.0461H5.41863V23.0855H7.27939ZM25.5707 12.0748C26.1126 12.128 26.6332 12.2535 27.1239 12.4404V12.3698C27.1239 5.68477 21.685 0.246094 15 0.246094C8.31498 0.246094 2.87672 5.68477 2.87672 12.3698V12.4404C3.3668 12.2535 3.88799 12.128 4.42992 12.0748C4.54623 9.43606 5.63484 6.96539 7.52666 5.07358C9.53039 3.06979 12.1851 1.96606 15 1.96606C17.8155 1.96606 20.4693 3.06979 22.4736 5.07358C24.3649 6.96539 25.4544 9.43606 25.5707 12.0748ZM24.5811 23.0855V13.0461H22.7205V23.0855H24.5811Z" fill="white"/>
</svg>
