<svg width="41" height="42" viewBox="0 0 41 42" fill="none" xmlns="http://www.w3.org/2000/svg">
<g id="Layer_1" filter="url(#filter0_d_1833_7494)">
<path id="Vector" d="M15.6258 36.9211C15.4226 36.657 15.2804 36.3522 15.1991 36.0271C15.2804 35.9256 15.321 35.824 15.2804 35.7021C15.0772 34.6456 15.0163 33.5687 15.0772 32.5122C15.1585 30.9071 15.4836 29.363 16.2963 27.9611C16.4385 27.7173 16.4995 27.4329 16.723 27.25C16.8855 27.2703 16.8245 27.3922 16.8042 27.4735C16.8042 27.6563 16.8855 27.7376 17.0074 27.8189C17.4747 28.1846 18.0436 28.4284 18.4093 28.916C18.5515 29.0989 18.8157 29.1192 19.0188 29.1802C19.3236 29.2817 19.5471 29.4036 19.7503 29.6678C19.8925 29.8506 20.0753 29.9725 20.2988 30.0741C20.5223 30.1554 20.7255 30.2976 20.888 30.4602C20.9896 30.5617 21.1115 30.6227 21.2334 30.6836C21.4976 30.7649 21.7007 30.9478 21.8226 31.2119C21.8836 31.476 21.782 31.7198 21.7414 31.984C21.5788 33.0202 21.335 34.0157 20.9083 34.991C20.4817 35.9459 19.8925 36.7789 19.0798 37.4494C18.1249 38.2417 16.601 38.0183 15.9103 37.1852C15.829 37.0836 15.768 36.9617 15.6258 36.9617V36.9211Z" fill="#C32126"/>
<path id="Vector_2" d="M15.118 2.38186C17.9015 3.17424 19.6285 5.06376 20.7256 7.64408C21.5789 9.65551 22.1682 11.7279 22.6151 13.8612C22.6151 13.9019 22.6151 13.9628 22.6151 14.0034C22.6761 14.1457 22.6558 14.2676 22.5948 14.3895C22.412 14.7755 22.2291 15.1412 22.0259 15.5273C21.965 15.6288 21.9243 15.7711 21.7618 15.7304C21.6196 15.5882 21.6399 15.4053 21.5993 15.2225C21.518 14.8974 21.4977 14.5317 21.3555 14.2066C21.2742 14.0238 21.2539 13.8409 21.2336 13.658C21.2336 13.4752 21.2336 13.2923 21.1116 13.1298C20.9491 12.5 20.8069 11.8904 20.624 11.2606C20.1974 9.77741 19.7097 8.33487 19.0393 6.95329C18.8767 6.62821 18.6329 6.34376 18.4907 5.99836C18.3688 5.63265 18.125 5.36852 17.9015 5.06376C17.8405 4.98249 17.7593 4.92154 17.7186 4.81995C17.4139 4.39329 17.0482 3.98694 16.6418 3.64154C16.5402 3.56027 16.4386 3.479 16.337 3.39773C16.012 3.05233 15.5853 2.82884 15.1993 2.56471C15.1383 2.52408 15.057 2.48344 15.0164 2.42249C14.9961 2.36154 15.0164 2.32091 15.0774 2.34122L15.118 2.38186Z" fill="#AC1E23"/>
<path id="Vector_3" d="M22.1278 33.9966C21.6605 35.1141 21.1728 36.2112 20.2992 37.0849C19.8928 37.4709 19.4865 37.8366 18.9379 37.9789C18.877 37.796 19.0192 37.735 19.1411 37.6538C19.9132 37.1865 20.482 36.516 20.9087 35.7236C21.3354 34.9516 21.6198 34.1185 21.823 33.2449C22.0465 32.3509 22.1481 31.4366 22.2903 30.5224C22.3106 30.3801 22.2903 30.2582 22.1887 30.1363C22.1074 30.0347 21.9855 29.9331 21.9449 29.8112C21.9652 29.1408 22.0262 28.4906 22.0059 27.8201C22.0059 27.556 22.0059 27.2919 21.9449 27.0278C21.9449 26.9058 21.9449 26.7839 21.9855 26.6824C22.1887 26.6011 22.3919 26.5604 22.5951 26.4995C22.7373 26.4792 22.7576 26.337 22.8186 26.2354C23.4281 25.1179 24.0173 24.0005 24.6268 22.883C25.5411 21.1966 26.4147 19.49 27.329 17.8239C27.8776 16.8284 28.4059 15.8125 28.9341 14.7966C29.3811 13.923 29.8484 13.09 30.3157 12.2163C30.397 12.0538 30.4782 11.8912 30.397 11.7084C30.336 11.5865 30.397 11.4646 30.5392 11.4239C30.7424 11.3833 30.8236 11.2208 30.9049 11.0582C31.4738 9.90014 32.063 8.78268 32.6319 7.62458C33.1195 6.62903 33.6274 5.63347 34.1354 4.63792C34.2776 4.35347 34.3589 4.04871 34.5214 3.76427C34.5824 3.66268 34.562 3.58141 34.5214 3.47982C34.5214 3.17506 34.7449 2.97189 34.8668 2.70776C35.0293 2.38268 35.2122 2.03728 35.3951 1.73252C35.4763 1.65125 35.5576 1.56998 35.6795 1.52935C35.8014 1.52935 35.8217 1.5903 35.8014 1.69189C35.8624 1.63093 35.8827 1.52935 35.9233 1.46839C35.964 1.40744 36.0249 1.34649 36.0859 1.32617C36.3297 1.32617 36.4109 1.40744 36.289 1.63093C36.1468 1.89506 36.0046 2.1795 35.8624 2.44363C35.0497 3.98776 34.2167 5.53188 33.4243 7.09633C33.4243 7.13696 33.3836 7.15728 33.3633 7.19792C33.2617 7.21823 33.3633 7.34014 33.282 7.38077C33.1601 7.48236 33.0992 7.58395 33.0586 7.72617C33.0586 7.74649 33.0382 7.7668 33.0179 7.80744C32.9367 8.03093 32.7741 8.21379 32.7132 8.4576C32.449 9.12807 32.0427 9.69696 31.7379 10.3471C31.5957 10.6316 31.4332 10.8957 31.2909 11.1801C31.2909 11.2005 31.2706 11.2208 31.2503 11.2614C31.1284 11.4646 30.9659 11.6678 30.9252 11.9116C30.5392 12.7039 30.1125 13.476 29.6859 14.2481C29.4217 14.7357 29.1779 15.2436 28.8732 15.7312C28.5481 16.2392 28.284 16.8081 27.9995 17.3363C27.3493 18.5757 26.6586 19.7947 26.0287 21.0544C25.9881 21.1154 25.9474 21.1763 25.9068 21.217C25.6427 21.5827 25.5005 22.0093 25.2567 22.3751C24.9519 22.8627 24.7284 23.3909 24.4236 23.8785C24.1798 24.2849 23.9767 24.6912 23.7938 25.1179C23.5906 25.5649 23.3468 25.9712 23.0827 26.3776C22.9201 26.6417 22.8389 26.9058 22.8998 27.1903C23.0014 27.617 22.8592 28.0233 22.7982 28.45C22.7373 28.8563 22.7982 29.2424 22.7982 29.6487C22.7982 29.9738 22.7373 30.2989 22.717 30.6239C22.717 30.8677 22.6357 31.0912 22.717 31.335C22.6357 32.1274 22.4935 32.9198 22.209 33.6716C22.1684 33.7528 22.1074 33.8341 22.1278 33.956V33.9966Z" fill="#C32126"/>
<path id="Vector_4" d="M10.5059 1.54822C11.4608 1.42632 12.4157 1.54822 13.3503 1.77171C13.8786 1.89362 14.3662 2.09679 14.8741 2.27965C14.8944 2.3406 14.9147 2.42187 14.9757 2.44219C15.6055 2.76727 16.0932 3.27521 16.6214 3.72219C17.0887 4.16917 17.4951 4.69743 17.9014 5.20537C18.1452 5.51013 18.3281 5.85552 18.5516 6.1806C18.6125 6.30251 18.6735 6.42441 18.7344 6.54632C18.8157 6.70886 18.897 6.8714 18.9986 7.03394C19.5674 8.23267 20.0144 9.47203 20.4208 10.7317C20.563 11.199 20.7255 11.6663 20.8474 12.1539C20.9897 12.865 21.1928 13.5762 21.3554 14.2873C21.4773 14.8155 21.5992 15.3438 21.7008 15.8923C21.7008 15.9939 21.7211 16.0955 21.8024 16.1768C21.8836 16.2581 21.9852 16.1565 22.0665 16.2174C21.9649 16.6441 21.9243 17.1114 21.5586 17.4162C21.4163 17.3552 21.3757 17.2333 21.457 17.1114C21.5382 16.9692 21.4976 16.8879 21.4163 16.8066C21.2741 16.6644 21.2944 16.4816 21.2132 16.319C21.0913 15.6079 20.949 14.9171 20.7865 14.2263C20.7865 14.1654 20.7865 14.1044 20.7255 14.0638C20.4817 13.0885 20.2582 12.093 19.9535 11.1381C19.8316 10.6504 19.6487 10.1831 19.4862 9.71584C19.3846 9.28917 19.1814 8.88282 19.0798 8.59838C19.2424 8.94378 19.4049 9.4314 19.5674 9.91902C19.7503 10.305 19.8316 10.7317 19.9738 11.1381C20.116 11.7679 20.3598 12.3571 20.4817 12.987C20.563 13.373 20.624 13.7793 20.7662 14.1654C20.9084 14.8358 21.0913 15.5063 21.1725 16.1971C21.1725 16.2377 21.1725 16.2987 21.1725 16.3393C21.1725 16.4206 21.1725 16.5425 21.0506 16.5628C20.9084 16.5628 20.9084 16.4612 20.8881 16.3597C20.8068 16.0143 20.7662 15.6485 20.6849 15.2828C20.5224 14.6936 20.4411 14.1044 20.2989 13.5152C19.9128 11.9101 19.4252 10.366 18.7751 8.86251C18.3687 7.86695 17.9421 6.89171 17.3325 5.99775C17.1903 5.79457 17.0278 5.61171 16.8855 5.40854C16.8043 5.246 16.662 5.10378 16.5401 4.96156C15.8494 4.18949 15.1586 3.43775 14.2036 2.99076C14.1021 2.95013 13.9801 2.92981 13.9801 2.78759C14.0005 2.76727 14.0208 2.74695 14.0614 2.74695C14.5084 2.8079 14.8538 3.09235 15.1992 3.33616C15.4024 3.47838 15.6055 3.6206 15.7884 3.76283C15.5852 3.57997 15.382 3.39711 15.1382 3.27521C14.8335 3.07203 14.5084 2.88917 14.163 2.74695C13.9192 2.58441 13.6347 2.5641 13.3706 2.44219C13.1878 2.36092 13.0049 2.36092 12.8017 2.29997C12.9236 2.3406 13.0659 2.36092 13.1878 2.40156C13.3503 2.48283 13.5332 2.48283 13.6754 2.62505C13.6754 2.86886 13.5128 2.86886 13.3503 2.8079C12.944 2.66568 12.5173 2.58441 12.0906 2.50314C11.9484 2.46251 11.8062 2.48283 11.664 2.48283C11.542 2.48283 11.4201 2.48283 11.3389 2.38124C11.4608 2.17806 11.664 2.2187 11.8671 2.23902C11.989 2.23902 12.0906 2.29997 12.1922 2.3406C12.1922 2.32029 12.1719 2.3406 12.1719 2.3406C11.8265 1.85298 11.217 1.97489 10.7497 1.7514C10.6684 1.71076 10.5668 1.7514 10.5059 1.64981V1.54822Z" fill="#E22C2A"/>
<path id="Vector_5" d="M14.9757 30.5829C15.0773 29.4857 15.4634 28.4698 15.951 27.4743C16.5605 26.2755 17.17 25.0565 17.7795 23.8578C17.8608 23.7155 17.8608 23.5733 17.8405 23.4311C17.5154 20.5663 17.17 17.7219 16.5402 14.8978C16.1745 13.2317 15.8088 11.5657 15.1992 9.96063C14.6913 8.59936 13.9192 7.42095 12.7408 6.56761C12.4157 6.3238 12.0703 6.10031 11.6437 6.05968C11.1357 6.05968 10.6481 5.99872 10.1605 6.12063C9.79479 5.97841 9.53066 6.24253 9.30717 6.40507C8.45384 6.99428 7.76304 7.72571 7.37701 8.72126C7.33637 8.82285 7.31606 8.90412 7.31606 9.00571C7.31606 9.04634 7.31606 9.08698 7.29574 9.12761C6.21891 9.5746 5.32495 8.72126 5.14209 7.92888C5.30463 7.84761 5.32495 7.98983 5.3859 8.0711C5.56876 8.31491 5.69066 8.57904 5.95479 8.74158C6.09701 8.82285 6.23923 8.8838 6.40177 8.90412C6.70653 8.94476 6.95034 8.72126 6.88939 8.4165C6.84876 8.19301 6.93003 8.0711 7.07225 7.92888C7.49891 7.50222 7.86463 7.0146 8.31161 6.60825C8.59606 6.3238 8.92114 6.10031 9.26653 5.89714C10.2011 5.36888 11.1561 5.40952 12.1313 5.81587C12.6189 6.01904 13.0253 6.3238 13.4113 6.6692C13.6348 6.87237 13.9395 6.97396 14.1021 7.25841C14.6507 8.23364 15.3008 9.14793 15.6259 10.2451C16.0119 11.4641 16.2761 12.7035 16.6418 13.9225C16.7434 14.2476 16.7637 14.593 16.8856 14.8978C17.0278 15.0806 16.9059 15.3041 16.9668 15.5073C17.1497 16.2997 17.3122 17.0921 17.4138 17.9048C17.5764 19.1238 17.7795 20.3429 17.9015 21.5619C17.9421 21.9682 18.003 22.3543 18.0843 22.7606C18.2265 23.4514 18.2875 24.1625 17.7795 24.7924C17.5357 25.0971 17.3732 25.4832 17.2107 25.8286C16.8246 26.6819 16.2964 27.4743 15.9103 28.3479C15.6462 28.9778 15.3821 29.5873 15.2602 30.2578C15.2399 30.4 15.2399 30.6235 14.9961 30.6032L14.9757 30.5829Z" fill="#CB2127"/>
<path id="Vector_6" d="M33.2821 7.27774C33.5259 6.60726 33.9323 5.99774 34.2573 5.34758C34.684 4.49425 35.131 3.64091 35.5983 2.8079C35.8015 2.42187 36.0046 2.05615 36.2078 1.69044C36.2485 1.60917 36.3094 1.5279 36.2485 1.44663C36.2078 1.36536 36.1469 1.44663 36.0859 1.44663C35.6999 1.48726 35.2935 1.44663 34.8872 1.48726C34.745 1.5279 34.6231 1.5279 34.4808 1.5279C32.8554 1.5279 31.2504 1.62949 29.625 1.58885C29.4421 1.58885 29.3405 1.71076 29.2796 1.87329C28.9545 2.52345 28.6091 3.15329 28.3043 3.80345C28.1012 4.23012 27.837 4.63647 27.6339 5.06314C27.2072 5.93679 26.7399 6.79012 26.3132 7.66377C25.6224 9.06567 24.891 10.4269 24.1799 11.8288C23.5704 13.0276 22.9405 14.2263 22.3513 15.4454C22.2497 15.6688 22.1075 15.8517 22.0059 16.0752C21.945 16.1768 21.884 16.2987 21.7418 16.1565C21.7012 16.0142 21.6808 15.8923 21.7824 15.7704C22.1075 15.3844 22.2497 14.8968 22.4935 14.4701C22.5748 14.3279 22.6358 14.1857 22.6358 14.0231C22.8186 14.1247 22.778 13.9419 22.7983 13.8809C23.4078 12.7025 24.0173 11.5038 24.6065 10.305C24.8707 9.77679 25.1348 9.24853 25.4192 8.72028C26.6586 6.3025 27.9386 3.90504 29.0967 1.44663C29.2389 1.16218 29.4015 1.04028 29.7266 1.04028C31.4739 1.04028 33.2415 0.938692 34.9888 0.918374C35.517 0.918374 36.0656 0.857422 36.5939 0.857422C36.9189 0.857422 36.9392 0.877739 36.797 1.16218C36.2688 2.15774 35.7202 3.15329 35.1716 4.14885C34.7246 4.94123 34.298 5.75393 33.8713 6.54631C33.7494 6.7698 33.6072 6.99329 33.4446 7.19647C33.404 7.2371 33.3431 7.27774 33.2821 7.25742V7.27774Z" fill="#D62E2B"/>
<path id="Vector_7" d="M16.7637 14.9176C16.7231 14.7551 16.6012 14.5926 16.7231 14.4097C16.7231 14.4097 16.7231 14.3488 16.7231 14.3284C16.337 13.6783 16.3167 12.9265 16.0932 12.2357C15.8291 11.3418 15.6056 10.4275 15.2399 9.55383C14.9758 8.90368 14.5897 8.31447 14.2037 7.72526C14.1021 7.56272 14.0412 7.40018 13.9396 7.23764C13.7567 6.93288 13.4316 6.87193 13.1878 6.64844C12.6596 6.16082 12.0501 5.81542 11.3186 5.6732C10.3637 5.47003 9.51037 5.6732 8.75862 6.28272C8.18973 6.72971 7.6818 7.27828 7.23481 7.84717C7.19418 7.90812 7.13323 7.98939 7.07227 8.00971C6.88942 8.1113 6.8691 8.21288 6.93005 8.41606C7.03164 8.72082 6.66592 9.0459 6.34084 9.00526C5.79227 8.92399 5.50783 8.51764 5.2437 8.09098C5.20307 8.03003 5.20307 7.92844 5.08116 7.94876C4.81704 7.11574 4.95926 6.32336 5.32497 5.57161C5.38592 5.51066 5.44688 5.47003 5.52815 5.47003C5.62973 5.47003 5.67037 5.53098 5.67037 5.61225C5.62973 5.87637 5.46719 6.09987 5.40624 6.36399C5.26402 6.89225 5.18275 7.44082 5.44688 7.94876C5.50783 8.05034 5.56878 8.15193 5.65005 8.2332C6.01577 8.55828 6.30021 8.51764 6.54402 8.1113C6.8691 7.56272 7.2145 7.03447 7.64116 6.56717C7.78338 6.38431 7.98656 6.28272 8.12878 6.07955C9.12434 5.16526 10.2418 4.79955 11.5624 5.22622C12.3954 5.51066 13.0659 6.0186 13.6754 6.64844C14.7726 7.72526 15.4431 9.08653 15.8901 10.5291C16.2964 11.8497 16.6621 13.1907 16.9059 14.5519C16.9059 14.6738 16.9872 14.7754 16.9059 14.8973C16.845 14.938 16.784 14.9176 16.7231 14.8973L16.7637 14.9176Z" fill="#B72025"/>
<path id="Vector_8" d="M16.7639 14.9176C16.7639 14.9176 16.8858 14.9176 16.9265 14.9176C17.0687 14.9989 17.089 15.1614 17.1296 15.3036C17.1906 15.6084 17.2515 15.8928 17.3125 16.1976C17.5969 17.6604 17.8001 19.1233 18.0033 20.6065C18.1049 21.3379 18.1862 22.0896 18.2674 22.8211C18.2674 22.9836 18.2471 23.1462 18.2877 23.3087C18.2877 23.3493 18.2877 23.4103 18.3081 23.4509C18.3081 23.5931 18.3081 23.7557 18.3487 23.8979C18.3487 23.9182 18.3487 23.9589 18.3487 23.9792C18.3487 24.4058 18.0642 24.7309 17.8814 25.0966C17.5563 25.7468 17.2109 26.3969 16.8858 27.0674C16.8452 27.1487 16.8249 27.23 16.7233 27.2706C16.0325 28.4693 15.4636 29.7087 15.2808 31.0903C15.1588 31.903 15.0979 32.7157 15.1182 33.5284C15.1385 34.2801 15.1792 35.0522 15.362 35.7836C15.4027 35.9868 15.362 36.0477 15.1588 36.0274C14.8947 35.4179 14.8541 34.7881 14.7931 34.1379C14.6712 32.9392 14.6915 31.7608 14.9354 30.5823C15.0776 30.5417 15.0979 30.4198 15.1182 30.2979C15.2808 29.2211 15.7481 28.2458 16.2763 27.2909C16.7233 26.4782 17.1093 25.6452 17.5563 24.8325C17.6782 24.609 17.8611 24.4465 17.922 24.1823C18.0033 23.8369 17.983 23.5119 17.9627 23.1665C17.9627 22.8211 17.8001 22.5366 17.8001 22.2116C17.7595 20.9519 17.475 19.7125 17.3328 18.4528C17.2109 17.3963 16.9874 16.3398 16.7639 15.3036C16.7233 15.1614 16.9265 15.0192 16.7233 14.877L16.7639 14.9176Z" fill="#C12026"/>
<path id="Vector_9" d="M10.0998 6.07948C10.6281 5.95758 11.136 5.85599 11.6643 6.07948C10.8719 6.689 10.2014 7.42043 9.75442 8.3144C9.65283 8.49726 9.51061 8.63948 9.30743 8.68011C8.63696 8.84265 7.96648 8.98488 7.31632 9.14742C7.31632 9.1271 7.27569 9.08646 7.25537 9.06615C7.82426 8.13154 8.37283 7.19694 9.2668 6.50615C9.51061 6.30297 9.75442 6.05916 10.1201 6.07948H10.0998Z" fill="#831618"/>
<path id="Vector_10" d="M22.1277 33.9967C22.1074 33.6513 22.2903 33.3669 22.3512 33.0418C22.4731 32.4932 22.5747 31.9243 22.6763 31.3554C22.595 30.9491 22.7373 30.5834 22.7779 30.1973C22.9201 29.1205 23.0014 28.0437 22.9201 26.9465C22.9201 26.8653 22.8998 26.784 22.9201 26.7027C23.2249 26.1542 23.4687 25.5853 23.8547 25.0977C23.9766 25.504 23.9969 25.9104 23.9563 26.3167C23.8344 28.2875 23.5703 30.2177 22.9404 32.0869C22.7169 32.737 22.4122 33.3669 22.1074 33.9967H22.1277Z" fill="#871719"/>
<path id="Vector_11" d="M21.9652 29.8711C22.209 29.9524 22.4122 30.2571 22.3716 30.4806C22.1887 31.659 22.0465 32.8374 21.7011 33.9752C21.3354 35.1943 20.7868 36.332 19.8522 37.226C19.649 37.4292 19.3849 37.5714 19.1411 37.7339C19.0395 37.7949 18.9582 37.8559 18.9379 37.9778C18.0439 38.4247 16.1951 37.9371 15.6465 36.9213C15.6871 36.7384 15.7887 36.7993 15.8497 36.9009C16.2357 37.5511 16.8859 37.7746 17.5766 37.8559C18.1455 37.9168 18.6332 37.6933 19.0801 37.3479C20.3601 36.332 20.9697 34.9505 21.376 33.4267C21.5792 32.6952 21.7214 31.9435 21.8027 31.1917C21.7417 31.0901 21.7011 30.9886 21.7417 30.887C21.8433 30.5619 21.7824 30.1962 21.9855 29.8914L21.9652 29.8711Z" fill="#AD1F23"/>
<path id="Vector_12" d="M5.69099 5.61232C5.69099 5.61232 5.65035 5.49041 5.56908 5.49041C5.50813 5.38883 5.56908 5.26692 5.56908 5.16534C6.54432 3.13359 8.06813 1.81296 10.3843 1.54883C10.425 1.54883 10.4656 1.54883 10.5062 1.54883C11.0142 1.56915 11.4611 1.81296 11.9691 1.87391C12.03 1.87391 12.1316 1.91454 12.1113 1.99581C12.0504 2.19899 12.1926 2.19899 12.3145 2.23962C11.9894 2.30057 11.6643 2.13803 11.3596 2.25994C11.1767 2.40216 10.9735 2.34121 10.7907 2.34121C9.73416 2.34121 8.75892 2.58502 7.86496 3.15391C7.39765 3.45867 6.97099 3.8447 6.62559 4.29168C6.524 4.39327 6.44273 4.51518 6.36146 4.61676C6.30051 4.69803 6.25988 4.7793 6.21924 4.86057C6.09734 5.06375 5.97543 5.26692 5.85353 5.49041C5.83321 5.55137 5.81289 5.63264 5.7113 5.61232H5.69099Z" fill="#D42027"/>
<path id="Vector_13" d="M33.404 7.21757C34.6027 5.16551 35.6796 3.03218 36.858 0.91916C36.5126 0.91916 36.1875 0.91916 35.8624 0.91916C34.9888 0.939478 34.1151 0.980113 33.2415 1.00043C32.0427 1.04107 30.844 1.06138 29.6453 1.0817C29.4015 1.0817 29.2796 1.16297 29.178 1.38646C27.9996 3.7636 26.8211 6.16107 25.5615 8.49757C25.5208 8.57884 25.5005 8.66011 25.3989 8.70075C25.3989 8.57884 25.4802 8.47726 25.5208 8.37567C26.1913 7.07535 26.8618 5.79535 27.5119 4.49503C28.0605 3.41821 28.5684 2.34138 29.0967 1.26456C29.178 1.0817 29.2999 1.02075 29.5031 1.02075C30.5189 1.02075 31.5551 1.00043 32.571 0.959795C33.9729 0.898843 35.3138 0.837891 36.6751 0.837891C36.9325 0.837891 37.007 0.953023 36.8986 1.18329C36.411 2.21948 35.8218 3.21503 35.2732 4.23091C34.6231 5.47027 33.9323 6.68932 33.2618 7.90837C32.6319 9.04614 32.0021 10.2042 31.3723 11.342C31.291 11.3014 31.2504 11.2404 31.2707 11.1592C31.677 10.3871 32.1037 9.61503 32.51 8.84297C32.6116 8.63979 32.7132 8.43662 32.7945 8.23345C32.8148 8.17249 32.8351 8.13186 32.8758 8.09122C33.0586 7.80678 33.2008 7.50202 33.404 7.23789V7.21757Z" fill="#EBBDBC"/>
<path id="Vector_14" d="M23.875 25.0968C23.6312 25.5438 23.3671 25.9908 23.1233 26.4377C23.0217 26.6206 23.0217 26.8035 23.0217 27.0269C23.0827 27.86 23.0827 28.693 22.9404 29.5057C22.8592 30.1152 22.7576 30.7247 22.6763 31.3342C22.4935 31.1108 22.656 30.8669 22.6763 30.6231C22.6763 30.3387 22.7779 30.0542 22.7576 29.7698C22.6966 29.2415 22.7373 28.7336 22.7373 28.2054C22.7373 28.0428 22.9404 27.9412 22.8998 27.7381C22.8185 27.4333 22.8592 27.1082 22.8185 26.7831C22.8185 26.7222 22.7779 26.6815 22.8185 26.6206C23.2452 26.0923 23.5093 25.4625 23.8344 24.8733C24.0173 24.5279 24.1392 24.1419 24.4236 23.8574C24.4846 23.8574 24.5049 23.8574 24.4846 23.9184C24.2814 24.3044 24.0985 24.6701 23.8954 25.0562L23.875 25.0968Z" fill="#CF3231"/>
<path id="Vector_15" d="M25.8458 21.2357C26.2318 20.5043 26.6179 19.7932 27.0039 19.0617C27.5728 18.0052 28.1417 16.9284 28.6903 15.8719C28.7106 15.8313 28.7715 15.7906 28.8122 15.75C28.8934 15.8313 28.8122 15.9125 28.8122 15.9938C27.9182 17.6395 27.0445 19.2649 26.1506 20.9106C26.0693 21.0732 25.9677 21.2154 25.8864 21.3576C25.8255 21.3373 25.8052 21.2967 25.8255 21.2357H25.8458Z" fill="#DA6565"/>
<path id="Vector_16" d="M28.8323 15.9944C28.69 15.9335 28.8323 15.8319 28.8323 15.7506C29.4824 14.5316 30.1529 13.2922 30.803 12.0732C30.8234 12.0325 30.8437 11.9919 30.864 11.9309C30.9656 11.7074 31.0875 11.4839 31.2297 11.2808C31.2297 11.2808 31.2297 11.1182 31.3516 11.1589C31.3516 11.2198 31.3923 11.2808 31.4126 11.3417C30.5796 12.8655 29.7465 14.4097 28.9338 15.9335C28.9338 15.9538 28.8932 15.9741 28.8729 15.9944H28.8323Z" fill="#E99393"/>
<path id="Vector_17" d="M25.8459 21.2371C25.8459 21.2371 25.8865 21.3184 25.9068 21.359C25.4801 22.1717 25.0332 22.9844 24.6065 23.7768C24.5659 23.8377 24.5659 23.9393 24.4643 23.9597C24.4643 23.9597 24.4236 23.919 24.4033 23.8987C24.6268 23.3095 24.9722 22.8016 25.2567 22.253C25.3989 21.9889 25.5614 21.7451 25.6427 21.4606C25.6833 21.3793 25.724 21.2574 25.8459 21.2168V21.2371Z" fill="#CF3F3E"/>
<path id="Vector_18" d="M16.581 3.76326C16.2559 3.64135 16.0934 3.33659 15.8293 3.13342C15.5245 2.90992 15.2604 2.68643 14.9353 2.50358C14.8337 2.44262 14.6915 2.40199 14.854 2.25977C14.9556 2.25977 15.0369 2.3004 15.0978 2.36135C15.0166 2.48326 15.1588 2.46294 15.1791 2.48326C15.5855 2.7677 16.0528 2.99119 16.3982 3.39754C16.3778 3.56008 16.642 3.56008 16.581 3.76326Z" fill="#E05151"/>
<path id="Vector_19" d="M5.54858 5.16602C5.60953 5.2676 5.62985 5.36919 5.54858 5.49109C5.50794 5.55205 5.44699 5.55205 5.36572 5.55205C5.38604 5.40982 5.44699 5.28792 5.52826 5.16602H5.54858Z" fill="#CF2627"/>
<path id="Vector_20" d="M20.7662 12.1753C20.2583 10.428 19.6691 8.70104 18.9173 7.03501C18.8361 6.87247 18.7954 6.68962 18.6735 6.56771C18.5922 6.46612 18.511 6.34422 18.4907 6.22231C18.4907 6.16136 18.4297 6.10041 18.4094 6.03946C18.3891 5.97851 18.3078 5.89724 18.4094 5.8566C18.4907 5.79565 18.5313 5.91755 18.5719 5.95819C19.791 7.98993 20.4411 10.2452 21.0507 12.5004C21.1116 12.7036 21.0913 12.9271 21.1929 13.1302C21.2538 13.2928 21.2538 13.4756 21.3148 13.6585C21.3148 13.8414 21.3554 14.0242 21.4164 14.2071C21.457 14.2883 21.4773 14.3696 21.3757 14.4712C21.1522 13.6991 20.9897 12.9271 20.7662 12.1753Z" fill="#FADAD8"/>
<path id="Vector_21" d="M20.7664 12.1758C20.9899 12.6431 21.0509 13.151 21.1931 13.6386C21.2743 13.8824 21.315 14.1466 21.4166 14.3904C21.4166 14.3294 21.4166 14.2685 21.4166 14.2278C21.5994 14.6139 21.5994 15.0405 21.7213 15.4469C21.7416 15.5485 21.762 15.6501 21.7823 15.772C21.7823 15.9142 21.7823 16.0564 21.7823 16.1986C21.7823 16.219 21.7823 16.2393 21.7823 16.2596C21.7416 16.2596 21.6807 16.4018 21.6604 16.2596C21.4369 14.878 21.0509 13.5574 20.7461 12.1961L20.7664 12.1758Z" fill="#F69E9E"/>
<path id="Vector_22" d="M16.5808 3.76415C16.5808 3.62193 16.2963 3.60161 16.3979 3.39844C16.9262 3.80479 17.4138 4.25177 17.7795 4.82066C17.7795 4.86129 17.6982 4.82066 17.7185 4.84098C17.7795 4.96288 17.942 5.04415 17.8608 5.22701C17.6576 5.1051 17.5966 4.88161 17.4341 4.69875C17.1496 4.39399 16.8855 4.06891 16.6011 3.74383L16.5808 3.76415Z" fill="#ED7575"/>
<path id="Vector_23" d="M17.8404 5.24584C17.7998 5.04266 17.6372 4.90044 17.5356 4.69727C17.6575 4.69727 17.6779 4.81917 17.7591 4.81917C18.0436 5.16457 18.3687 5.50996 18.5312 5.95695C18.4906 5.93663 18.4296 5.896 18.3687 5.87568C18.3687 6.0179 18.4906 6.09917 18.4499 6.22108C18.2264 5.896 18.0233 5.57092 17.7998 5.24584H17.8404Z" fill="#F8AEAE"/>
<path id="Vector_24" d="M21.3148 13.6591C21.2132 13.4966 21.1929 13.3137 21.1929 13.1309C21.2945 13.2934 21.3148 13.4763 21.3148 13.6591Z" fill="#F69E9E"/>
<path id="Vector_25" d="M22.0869 26.6609C22.1682 26.478 22.2495 26.3155 22.3307 26.1326C22.4323 25.6653 22.7371 25.2996 22.9402 24.8932C23.1434 24.4869 23.3466 24.1009 23.5701 23.7148C23.9764 22.9631 24.4031 22.2317 24.7891 21.4596C25.1955 20.7282 25.6018 19.9967 25.9879 19.245C26.4755 18.3917 26.9225 17.518 27.3898 16.6647C27.7961 15.8926 28.2431 15.1205 28.6291 14.3485C28.6698 14.2469 28.7307 14.1656 28.7714 14.064C29.0761 13.5764 29.2793 13.0075 29.6653 12.5605C29.9498 12.5605 30.0107 12.6215 29.8685 12.8856C29.4418 13.739 29.0152 14.5923 28.5885 15.4456C27.6742 17.2336 26.7193 19.0215 25.7847 20.7891C25.1549 22.0082 24.5047 23.2069 23.8545 24.4056C23.5091 25.0558 23.1434 25.6856 22.8183 26.3358C22.7777 26.4374 22.7371 26.539 22.6355 26.5999C22.4933 26.6202 22.3307 26.6405 22.2088 26.7218C22.1275 26.7828 22.1072 26.7218 22.1072 26.6609H22.0869Z" fill="#B01F24"/>
<path id="Vector_26" d="M22.615 26.6013C23.3465 25.2197 24.0982 23.8585 24.8296 22.4769C25.3376 21.5016 25.8658 20.5264 26.3738 19.5309C27.0036 18.3321 27.6335 17.1334 28.243 15.9143C28.7712 14.8985 29.2589 13.8623 29.7871 12.8464C29.8684 12.6839 29.9293 12.562 29.6652 12.5823C29.6449 12.5823 29.6246 12.5416 29.6246 12.5213C29.6246 12.4604 29.6449 12.4197 29.6855 12.3791C29.7668 12.2369 29.8277 12.0947 29.909 11.9524C30.2138 11.282 30.6608 10.6724 30.9655 10.002C31.3109 9.35181 31.6563 8.72197 32.0017 8.07181C32.0627 7.97022 32.1033 7.86863 32.2049 7.828C32.9363 6.48705 33.6677 5.14609 34.3992 3.78483C34.4398 3.70356 34.5008 3.62229 34.5617 3.54102C34.6836 3.60197 34.6836 3.68324 34.643 3.80514C34.2976 4.49594 33.9725 5.18673 33.6271 5.87752C33.1192 6.91371 32.6112 7.92959 32.083 8.96578C31.697 9.73784 31.2906 10.4896 30.9046 11.2616C30.803 11.4851 30.5795 11.4648 30.4576 11.5867C30.356 11.7086 30.5998 11.8915 30.4576 12.0947C29.7058 13.4356 28.9947 14.8172 28.2633 16.1785C27.8773 16.9099 27.4709 17.6616 27.0849 18.3931C26.455 19.5715 25.8455 20.7296 25.2157 21.908C24.4233 23.3912 23.6309 24.8743 22.8385 26.3575C22.7776 26.4591 22.7573 26.6013 22.5947 26.6013H22.615Z" fill="#BD2026"/>
<path id="Vector_27" d="M35.456 1.79274C35.456 1.79274 35.3748 1.73178 35.3341 1.73178C33.7697 1.7521 32.1849 1.79274 30.6205 1.81305C30.6002 1.81305 30.5595 1.83337 30.5392 1.85369C30.2344 2.01623 29.9094 1.97559 29.5843 1.87401C29.5233 1.79274 29.5233 1.73178 29.5843 1.65051C29.6656 1.58956 29.7468 1.58956 29.8281 1.58956C31.4535 1.58956 33.0586 1.46766 34.6637 1.50829C34.8871 1.54893 35.0903 1.52861 35.3138 1.54893C35.4357 1.54893 35.5576 1.54893 35.6389 1.6302C35.5576 1.69115 35.4967 1.7521 35.4154 1.81305L35.456 1.79274Z" fill="#E34C4C"/>
<path id="Vector_28" d="M31.3314 11.1601C31.3314 11.1601 31.2501 11.2414 31.2095 11.282C31.2095 11.2007 31.2298 11.1398 31.2704 11.0585C31.6971 10.2661 32.1238 9.49406 32.5504 8.70168C32.5911 8.64072 32.6114 8.55945 32.6317 8.47818C32.713 8.41723 32.6926 8.23438 32.8552 8.23438C32.5707 8.90485 32.1847 9.51438 31.8393 10.1645C31.6768 10.4896 31.4939 10.835 31.3111 11.1601H31.3314Z" fill="#D53B3A"/>
<path id="Vector_29" d="M34.8665 1.40676C35.2729 1.38644 35.6792 1.30517 36.0856 1.4474C36.0449 1.48803 36.0043 1.52867 35.9637 1.5693C35.5979 1.65057 35.2322 1.5693 34.8462 1.58962C34.7852 1.4474 34.9072 1.48803 34.9681 1.48803C35.2322 1.48803 35.4964 1.48803 35.7605 1.48803C35.4557 1.4474 35.151 1.54898 34.8665 1.42708V1.40676Z" fill="#E34C4C"/>
<path id="Vector_30" d="M34.826 1.54885C35.212 1.54885 35.5778 1.54885 35.9638 1.54885C35.9028 1.69107 35.8622 1.8333 35.72 1.93488C35.5574 1.8333 35.8825 1.69107 35.659 1.6098C35.3339 1.56917 35.0089 1.67076 34.7041 1.54885C34.7447 1.52853 34.7854 1.50822 34.826 1.54885Z" fill="#D62E2B"/>
<path id="Vector_31" d="M33.4036 7.2168C33.3021 7.54188 33.1395 7.82632 32.916 8.11076C32.8348 7.98886 32.916 7.90759 32.977 7.82632C33.0583 7.6841 33.1192 7.54188 33.2208 7.39965C33.2208 7.35902 33.2614 7.31838 33.2817 7.27775C33.3224 7.27775 33.363 7.23711 33.4036 7.2168Z" fill="#D53B3A"/>
<path id="Vector_32" d="M32.9973 7.82617C32.9973 7.82617 32.9566 8.02935 32.9363 8.11062C32.916 8.15125 32.8957 8.19189 32.8753 8.23252C32.7941 8.31379 32.7128 8.39506 32.6519 8.47633C32.7331 8.23252 32.855 8.02935 33.0176 7.82617H32.9973Z" fill="#D62E2B"/>
<path id="Vector_33" d="M31.2095 11.2812C31.1282 11.5251 31.0063 11.7486 30.8438 11.9314C30.8844 11.6673 31.0063 11.4641 31.2095 11.2812Z" fill="#D53B3A"/>
<path id="Vector_34" d="M33.2209 7.40039C33.1802 7.56293 33.1396 7.72547 32.9771 7.82706C32.9771 7.6442 33.0583 7.50198 33.2209 7.40039Z" fill="#D62E2B"/>
<path id="Vector_35" d="M22.8995 15.1417C22.6354 15.6293 22.3916 16.1373 22.1274 16.6249C21.9649 16.6249 22.0665 16.5233 22.0868 16.4624C22.1681 15.9747 22.4728 15.5684 22.676 15.1214C22.676 15.0808 22.737 15.0605 22.7166 14.9995C22.6557 14.9995 22.7166 14.9589 22.7166 14.9995C22.7166 14.9995 22.737 14.9995 22.7166 15.0198C22.5541 15.3652 22.3509 15.6903 22.1884 16.0357C22.1681 16.0967 22.1274 16.1373 22.0665 16.1576C22.0665 16.1779 22.0258 16.1982 22.0055 16.2186C21.9243 16.2186 21.843 16.4624 21.7617 16.2186C21.7617 16.2186 21.7617 16.1779 21.7617 16.1576C22.0055 15.9951 22.0868 15.7106 22.2087 15.4871C22.676 14.6541 23.0824 13.7805 23.5293 12.9271C24.1592 11.6878 24.789 10.4484 25.4392 9.20903C25.9674 8.19316 26.4144 7.13665 26.9833 6.12078C27.3897 5.38935 27.7147 4.61729 28.1414 3.88586C28.5478 3.19507 28.8728 2.44332 29.2589 1.73221C29.3198 1.63062 29.3401 1.46808 29.523 1.54935C29.5839 1.54935 29.6043 1.61031 29.5839 1.67126C29.5839 1.73221 29.5839 1.79316 29.5839 1.85412C29.6449 1.9557 29.5839 2.05729 29.5433 2.13856C28.7916 3.54046 28.1211 4.96269 27.3897 6.38491C27.3287 6.4865 27.3084 6.6084 27.1865 6.64903C27.0036 6.93348 26.8614 7.23824 26.7192 7.56332C26.6176 7.94935 26.3738 8.27443 26.2316 8.66046C26.0081 9.08713 25.7846 9.53411 25.5814 9.96078C25.3985 10.3062 25.2157 10.6719 25.0531 11.0376C24.7281 11.6878 24.3624 12.3379 24.0373 13.0084C23.7325 13.6179 23.4278 14.2274 23.123 14.837C23.062 14.9386 23.0417 15.0605 22.9198 15.1214L22.8995 15.1417Z" fill="#D71F27"/>
<path id="Vector_36" d="M19.9945 11.0992C20.157 11.7087 20.3805 12.2979 20.5024 12.9277C20.5634 13.2935 20.6853 13.6592 20.7665 14.0249C20.8275 14.1062 20.8478 14.2077 20.7665 14.2484C20.6853 14.289 20.7056 14.1671 20.6853 14.1265C20.5227 13.4763 20.3399 12.8058 20.1773 12.1557C20.0961 11.8103 19.9335 11.4649 19.8929 11.0992C19.8726 11.0585 19.8522 10.9976 19.9132 10.9773C19.9945 10.9569 19.9741 11.0585 20.0148 11.0992H19.9945Z" fill="#F9BEBC"/>
<path id="Vector_37" d="M20.6646 14.125L20.7458 14.186C20.8068 14.1453 20.7458 14.0641 20.7661 14.0234C20.9693 14.5517 21.0099 15.1206 21.1319 15.6692C21.1725 15.8926 21.2131 16.1161 21.2538 16.3396C21.2538 16.4006 21.2538 16.4615 21.2538 16.5225C21.0912 16.4412 21.2131 16.238 21.0912 16.1568C20.949 15.4863 20.8068 14.8158 20.6849 14.125H20.6646Z" fill="#F37E7D"/>
<path id="Vector_38" d="M19.466 9.89924C19.2628 9.35067 19.0596 8.78178 18.8564 8.23321C18.8768 8.23321 18.9174 8.23321 18.9377 8.21289C19.1612 8.70051 19.405 9.14749 19.5269 9.67575C19.466 9.7367 19.5472 9.83829 19.466 9.89924Z" fill="#EB5755"/>
<path id="Vector_39" d="M19.466 9.89927C19.466 9.89927 19.4254 9.73673 19.527 9.67578C19.7098 10.1431 19.913 10.6104 19.9943 11.098C19.9537 11.098 19.8927 10.9355 19.8724 11.098C19.6895 10.712 19.6286 10.2853 19.466 9.89927Z" fill="#F48989"/>
<path id="Vector_40" d="M14.0415 2.74732V2.70669C14.0618 2.56446 14.1431 2.6051 14.2244 2.64573C14.5698 2.76764 14.8948 2.97081 15.1793 3.17399C15.2402 3.21462 15.3215 3.23494 15.3012 3.33653C15.3012 3.37716 15.2402 3.37716 15.1793 3.33653C14.8136 3.13335 14.4682 2.84891 14.0415 2.74732Z" fill="#F8B4B4"/>
<path id="Vector_41" d="M15.1587 3.33637C15.3415 3.27542 15.1384 3.21446 15.1587 3.17383C15.5041 3.31605 15.7276 3.58018 15.9511 3.8443C15.6463 3.7224 15.4025 3.53954 15.1587 3.33637Z" fill="#F37C7B"/>
<path id="Vector_42" d="M14.2039 2.64578C14.2039 2.64578 14.0616 2.64578 14.021 2.70674C13.8991 2.6661 13.7975 2.62547 13.6756 2.58483C13.5131 2.52388 13.3505 2.46293 13.188 2.40198C13.188 2.25975 13.2896 2.32071 13.3708 2.34102C13.6553 2.44261 13.9601 2.46293 14.2039 2.64578Z" fill="#F37878"/>
<path id="Vector_43" d="M13.371 2.32104C13.371 2.32104 13.2288 2.32104 13.1881 2.38199C12.9646 2.38199 12.7818 2.30072 12.5786 2.17882C12.8427 2.1585 13.1069 2.19913 13.3507 2.32104H13.371Z" fill="#D53635"/>
<path id="Vector_44" d="M18.6738 6.56836C18.8567 6.66995 18.8973 6.8528 18.9176 7.03566C18.7957 6.89344 18.7348 6.7309 18.6738 6.56836Z" fill="#F8AEAE"/>
<path id="Vector_45" d="M10.0996 6.079C9.44947 6.30249 9.00248 6.79011 8.5555 7.27773C8.10851 7.76535 7.80375 8.35456 7.41772 8.90313C7.37709 8.96408 7.31613 9.02503 7.23486 9.06567C7.23486 8.53741 7.55994 8.13106 7.84439 7.72472C8.2101 7.2371 8.63677 6.79011 9.12439 6.44472C9.32756 6.30249 9.55105 6.18059 9.77455 6.05868C9.85582 6.01805 9.97772 5.99773 10.0793 6.09932L10.0996 6.079Z" fill="#D94141"/>
<path id="Vector_46" d="M29.5839 1.67038C29.5839 1.67038 29.5433 1.58911 29.5229 1.54847C29.6245 1.4672 29.7261 1.50784 29.848 1.50784C31.4328 1.48752 33.0379 1.4672 34.6226 1.42657C34.7039 1.42657 34.8055 1.42657 34.8868 1.40625C35.2118 1.48752 35.5369 1.40625 35.8823 1.4672C35.5166 1.54847 35.1712 1.42657 34.8461 1.54847C34.8055 1.54847 34.7649 1.54847 34.7242 1.54847C33.3629 1.52815 32.0017 1.62974 30.6404 1.65006C30.295 1.65006 29.9496 1.65006 29.6042 1.67038H29.5839Z" fill="#F8AFB0"/>
<path id="Vector_47" d="M18.2065 22.8426C18.3488 22.9645 18.5723 22.9239 18.6738 23.127C18.5316 23.2083 18.2675 23.0051 18.2675 23.3099C18.1659 23.1677 18.2269 22.9848 18.2065 22.8223V22.8426Z" fill="#CD2B2C"/>
<path id="Vector_48" d="M18.2672 23.4316C18.4095 23.4316 18.5923 23.4316 18.3892 23.6348C18.3079 23.7161 18.3282 23.8177 18.3282 23.9193C18.2063 23.777 18.2876 23.5942 18.2672 23.4316Z" fill="#CD2B2C"/>
<path id="Vector_49" d="M6.52359 4.2918C6.52359 4.2918 6.56423 4.35275 6.58455 4.39339C6.66582 4.47466 6.72677 4.53561 6.6455 4.6372C6.56423 4.7591 6.48296 4.67783 6.38137 4.6372C6.34074 4.6372 6.32042 4.59656 6.27979 4.57625C6.36106 4.47466 6.44232 4.37307 6.52359 4.27148V4.2918Z" fill="#CF2627"/>
<path id="Vector_50" d="M21.2541 18.3308C21.1322 17.9447 21.1526 17.5993 21.0713 17.2742C21.0713 17.2336 21.0713 17.1727 21.1322 17.1523C21.1729 17.1523 21.2135 17.1523 21.2135 17.2133C21.3151 17.5587 21.4776 17.9041 21.2338 18.3308H21.2541Z" fill="#D02327"/>
<path id="Vector_51" d="M22.0871 16.1565C22.3106 15.7502 22.5341 15.3438 22.7575 14.9375C22.7372 15.2219 22.5747 15.4658 22.4528 15.7096C22.3106 15.994 22.1277 16.2785 22.148 16.6238C22.1277 16.6645 22.1074 16.7051 22.0667 16.7661C21.9245 16.5426 22.1887 16.3394 22.0667 16.1362L22.0871 16.1565Z" fill="#E22C2A"/>
<path id="Vector_52" d="M35.0698 1.65074C33.6679 1.63042 32.2457 1.75233 30.8438 1.71169C30.7422 1.71169 30.6406 1.71169 30.5594 1.77265C30.5594 1.81328 30.5391 1.8336 30.5594 1.85392C30.2546 1.85392 29.9295 1.85392 29.6248 1.85392C29.4419 2.23995 29.2387 2.60566 29.0559 2.99169C28.4464 4.21074 27.8368 5.42979 27.2273 6.64884C26.9225 6.89264 26.76 7.21772 26.7397 7.60376C26.5365 7.92884 26.374 8.29455 26.2114 8.63995C25.9676 9.06661 25.7441 9.5136 25.541 9.96058C25.3378 10.306 25.1549 10.6514 25.0127 11.0171C24.6673 11.6672 24.3016 12.3174 24.0171 13.0082C23.6108 13.699 23.2654 14.4101 22.9403 15.1415C22.7981 15.1415 22.7778 15.2634 22.7371 15.365C22.534 15.7714 22.3105 16.1777 22.1276 16.5841V16.6044C22.1276 16.6044 22.1276 16.5638 22.1276 16.5434C22.1276 16.4012 22.3105 16.259 22.1276 16.1371C22.087 16.1371 22.0464 16.1574 22.0667 16.2184C21.8635 16.6044 21.8432 17.0514 21.5994 17.4171C21.5181 17.3155 21.3962 17.2139 21.5994 17.092C21.6806 17.0514 21.6806 16.9295 21.6197 16.8888C21.3962 16.7669 21.3759 16.5231 21.2946 16.3403C21.2337 16.3809 21.2946 16.4419 21.254 16.4622C21.193 16.3809 21.2946 16.2184 21.1118 16.1574C21.1118 16.259 21.1321 16.3809 21.0305 16.5231C20.8883 16.0761 20.9086 15.6088 20.746 15.2025C20.6445 14.7149 20.5632 14.2272 20.4413 13.7396C20.1975 12.6831 19.9537 11.6266 19.5676 10.6107C19.2019 9.61518 18.8159 8.63995 18.3892 7.66471C18.0235 6.81138 17.5562 6.01899 16.9264 5.30788C16.5606 4.71868 16.0324 4.27169 15.5448 3.76376C15.1181 3.31677 14.5289 3.05265 14.0006 2.74788H14.0616C14.0616 2.74788 14.0616 2.68693 14.0616 2.66661C13.96 2.58534 13.8381 2.52439 13.6959 2.58534C13.6146 2.70725 13.5333 2.74788 13.3708 2.68693C12.9848 2.54471 12.5581 2.44312 12.1314 2.40249C12.0298 2.3009 11.9079 2.36185 11.8064 2.34153C11.6641 2.32122 11.5016 2.40249 11.3594 2.28058C10.8108 2.28058 10.2419 2.23995 9.71366 2.34153C8.41334 2.60566 7.33651 3.21519 6.54413 4.29201C6.58477 4.49519 6.5035 4.59677 6.30032 4.59677C6.30032 4.59677 6.19874 4.73899 6.17842 4.84058C5.97524 5.06407 5.85334 5.34852 5.71112 5.61264C5.60953 5.89709 5.46731 6.16122 5.38604 6.44566C5.24382 6.99423 5.18286 7.56312 5.50794 8.09137C5.85334 8.66026 6.38159 8.7009 6.72699 8.13201C6.88953 7.8882 7.01144 7.62407 7.17397 7.40058C7.47874 6.93328 7.86477 6.54725 8.2508 6.16122C8.57588 5.81582 8.98223 5.59233 9.4089 5.38915C10.1403 5.04376 10.9124 5.08439 11.6641 5.3282C11.786 5.38915 11.9079 5.42979 12.0502 5.49074C12.7003 5.77518 13.2083 6.22217 13.6959 6.70979C14.7727 7.82725 15.4432 9.14788 15.8902 10.6107C16.3168 12.033 16.7029 13.4755 16.967 14.9384C17.1295 15.3447 17.1498 15.7714 17.2718 16.198C17.2718 16.2387 17.2718 16.2996 17.2718 16.3403C17.4952 17.478 17.6781 18.6361 17.8203 19.7942C17.9422 20.8304 18.0845 21.8463 18.2267 22.8825C18.2876 23.0044 18.4095 23.045 18.5111 23.106C18.3486 23.1331 18.2741 23.2211 18.2876 23.3701C18.2876 23.3701 18.2876 23.4514 18.2876 23.492C18.3486 23.553 18.3892 23.5936 18.3486 23.6952C18.3079 23.7765 18.2876 23.878 18.3486 23.9796C18.3486 23.9796 18.3486 24.0203 18.3486 24.0406C18.3486 24.1828 18.3079 24.3047 18.247 24.4266C17.7797 25.3815 17.2311 26.3161 16.8045 27.3117C16.8045 27.5352 16.6419 27.7993 16.9264 27.9212C17.2514 28.0634 17.4343 28.3885 17.8 28.4495C17.8406 28.4495 17.8813 28.5104 17.9016 28.5511C18.0235 28.7949 18.3892 28.8152 18.4298 29.1403C18.4298 29.1403 18.4705 29.1809 18.5111 29.1809C18.7956 29.1809 19.0191 29.4044 19.2832 29.4247C19.4254 29.4247 19.527 29.5466 19.6286 29.6685C19.7708 29.8717 19.9333 30.0545 20.1771 30.1765C20.7664 30.4812 21.3352 30.8063 21.8229 31.2736C21.8229 30.8266 22.0057 30.3999 22.0057 29.9733C22.0057 29.9326 22.0464 29.892 22.0464 29.8717C22.1276 28.9777 22.1886 28.1041 22.0667 27.2101C22.0667 27.0679 22.0057 26.9053 22.1073 26.7631C22.3105 26.6412 22.3714 26.438 22.3918 26.2145C22.3918 26.2145 22.3918 26.2145 22.3918 26.1942C22.8184 25.4018 23.2451 24.6298 23.6718 23.8374C24.0781 23.0857 24.5251 22.3542 24.8705 21.5822C25.2971 20.8507 25.7035 20.1396 26.0692 19.3676C26.5772 18.5345 27.0241 17.6609 27.4711 16.7872C27.8368 16.0965 28.2229 15.4057 28.5886 14.7149C28.6902 14.532 28.8324 14.3695 28.8527 14.1663C29.1371 13.6787 29.4216 13.1707 29.706 12.6831C29.706 12.6628 29.706 12.6425 29.706 12.6222C29.7264 12.5815 29.7467 12.5409 29.767 12.5206C29.8686 12.3987 29.9498 12.2565 29.9905 12.0939C30.3359 11.4438 30.7422 10.7936 31.0673 10.1231C31.4533 9.39169 31.8597 8.66026 32.2457 7.92884C32.3879 7.8882 32.4286 7.7663 32.4692 7.66471C33.1397 6.4863 33.7492 5.28757 34.3994 4.10915C34.4806 3.96693 34.5822 3.82471 34.5822 3.64185C34.8667 3.05265 35.1714 2.48376 35.4965 1.91487C35.4152 1.71169 35.2527 1.77265 35.1105 1.77265L35.0698 1.65074ZM30.7422 1.93519C30.7422 1.93519 30.7829 1.89455 30.8235 1.89455C30.8235 1.89455 30.8438 1.89455 30.8641 1.89455C30.8235 1.89455 30.7829 1.89455 30.7625 1.91487L30.7422 1.93519Z" fill="url(#paint0_linear_1833_7494)"/>
</g>
<defs>
<filter id="filter0_d_1833_7494" x="0.945312" y="0.837891" width="40.0547" height="45.3223" filterUnits="userSpaceOnUse" color-interpolation-filters="sRGB">
<feFlood flood-opacity="0" result="BackgroundImageFix"/>
<feColorMatrix in="SourceAlpha" type="matrix" values="0 0 0 0 0 0 0 0 0 0 0 0 0 0 0 0 0 0 127 0" result="hardAlpha"/>
<feOffset dy="4"/>
<feGaussianBlur stdDeviation="2"/>
<feComposite in2="hardAlpha" operator="out"/>
<feColorMatrix type="matrix" values="0 0 0 0 0 0 0 0 0 0 0 0 0 0 0 0 0 0 0.25 0"/>
<feBlend mode="normal" in2="BackgroundImageFix" result="effect1_dropShadow_1833_7494"/>
<feBlend mode="normal" in="SourceGraphic" in2="effect1_dropShadow_1833_7494" result="shape"/>
</filter>
<linearGradient id="paint0_linear_1833_7494" x1="8.41334" y1="22.7606" x2="32.5911" y2="1.28502" gradientUnits="userSpaceOnUse">
<stop offset="0.02" stop-color="#C32126"/>
<stop offset="0.47" stop-color="#CF272B"/>
<stop offset="1" stop-color="#FBD2D3"/>
</linearGradient>
</defs>
</svg>
