<svg width="20" height="20" viewBox="0 0 20 20" fill="none" xmlns="http://www.w3.org/2000/svg">
<rect width="20" height="20" rx="10" fill="url(#paint0_radial_1871_14217)"/>
<path d="M8.48875 14.8997C8.43161 14.8254 8.39161 14.7397 8.36875 14.6483C8.39161 14.6197 8.40304 14.5911 8.39161 14.5568C8.33447 14.2597 8.31732 13.9568 8.33447 13.6597C8.35732 13.2083 8.44875 12.774 8.67732 12.3797C8.71732 12.3111 8.73447 12.2311 8.79732 12.1797C8.84304 12.1854 8.8259 12.2197 8.82018 12.2425C8.82018 12.294 8.84304 12.3168 8.87732 12.3397C9.00875 12.4425 9.16875 12.5111 9.27161 12.6483C9.31161 12.6997 9.3859 12.7054 9.44304 12.7225C9.52875 12.7511 9.59161 12.7854 9.64875 12.8597C9.68875 12.9111 9.74018 12.9454 9.80304 12.974C9.8659 12.9968 9.92304 13.0368 9.96875 13.0825C9.99732 13.1111 10.0316 13.1283 10.0659 13.1454C10.1402 13.1683 10.1973 13.2197 10.2316 13.294C10.2488 13.3683 10.2202 13.4368 10.2088 13.5111C10.163 13.8025 10.0945 14.0825 9.97447 14.3568C9.85447 14.6254 9.68875 14.8597 9.46018 15.0483C9.19161 15.2711 8.76304 15.2083 8.56875 14.974C8.5459 14.9454 8.52875 14.9111 8.48875 14.9111V14.8997Z" fill="#C32126"/>
<path d="M8.34566 5.18674C9.12851 5.4096 9.61423 5.94103 9.9228 6.66674C10.1628 7.23246 10.3285 7.81531 10.4542 8.41531C10.4542 8.42674 10.4542 8.44388 10.4542 8.45531C10.4714 8.49531 10.4657 8.5296 10.4485 8.56388C10.3971 8.67246 10.3457 8.77531 10.2885 8.88388C10.2714 8.91246 10.2599 8.95246 10.2142 8.94103C10.1742 8.90103 10.1799 8.8496 10.1685 8.79817C10.1457 8.70674 10.1399 8.60388 10.0999 8.51246C10.0771 8.46103 10.0714 8.4096 10.0657 8.35817C10.0657 8.30674 10.0657 8.25531 10.0314 8.2096C9.98566 8.03246 9.94566 7.86103 9.89423 7.68389C9.77423 7.26674 9.63708 6.86103 9.44851 6.47246C9.4028 6.38103 9.33423 6.30103 9.29423 6.20389C9.25994 6.10103 9.19137 6.02674 9.12851 5.94103C9.11137 5.91817 9.08851 5.90103 9.07708 5.87246C8.99137 5.75246 8.88851 5.63817 8.77423 5.54103C8.74566 5.51817 8.71708 5.49531 8.68851 5.47246C8.59708 5.37531 8.47708 5.31246 8.36851 5.23817C8.35137 5.22674 8.32851 5.21531 8.31708 5.19817C8.31137 5.18103 8.31708 5.1696 8.33423 5.17531L8.34566 5.18674Z" fill="#AC1E23"/>
<path d="M10.3173 14.0772C10.1858 14.3915 10.0487 14.7001 9.80297 14.9458C9.68869 15.0544 9.5744 15.1572 9.42012 15.1972C9.40297 15.1458 9.44297 15.1287 9.47726 15.1058C9.6944 14.9744 9.8544 14.7858 9.9744 14.563C10.0944 14.3458 10.1744 14.1115 10.2315 13.8658C10.2944 13.6144 10.323 13.3572 10.363 13.1001C10.3687 13.0601 10.363 13.0258 10.3344 12.9915C10.3115 12.963 10.2773 12.9344 10.2658 12.9001C10.2715 12.7115 10.2887 12.5287 10.283 12.3401C10.283 12.2658 10.283 12.1915 10.2658 12.1172C10.2658 12.083 10.2658 12.0487 10.2773 12.0201C10.3344 11.9972 10.3915 11.9858 10.4487 11.9687C10.4887 11.963 10.4944 11.923 10.5115 11.8944C10.683 11.5801 10.8487 11.2658 11.0201 10.9515C11.2773 10.4772 11.523 9.99724 11.7801 9.52867C11.9344 9.24867 12.083 8.96296 12.2315 8.67724C12.3573 8.43153 12.4887 8.19724 12.6201 7.95153C12.643 7.90581 12.6658 7.8601 12.643 7.80867C12.6258 7.77438 12.643 7.7401 12.683 7.72867C12.7401 7.71724 12.763 7.67153 12.7858 7.62581C12.9458 7.3001 13.1115 6.98581 13.2715 6.6601C13.4087 6.3801 13.5515 6.1001 13.6944 5.8201C13.7344 5.7401 13.7573 5.65439 13.803 5.57439C13.8201 5.54581 13.8144 5.52296 13.803 5.49439C13.803 5.40867 13.8658 5.35153 13.9001 5.27724C13.9458 5.18581 13.9973 5.08867 14.0487 5.00296C14.0715 4.9801 14.0944 4.95724 14.1287 4.94581C14.163 4.94581 14.1687 4.96296 14.163 4.99153C14.1801 4.97439 14.1858 4.94581 14.1973 4.92867C14.2087 4.91153 14.2258 4.89439 14.243 4.88867C14.3115 4.88867 14.3344 4.91153 14.3001 4.97439C14.2601 5.04867 14.2201 5.12867 14.1801 5.20296C13.9515 5.63724 13.7173 6.07153 13.4944 6.51153C13.4944 6.52296 13.483 6.52867 13.4773 6.5401C13.4487 6.54581 13.4773 6.5801 13.4544 6.59153C13.4201 6.6201 13.403 6.64867 13.3915 6.68867C13.3915 6.69439 13.3858 6.7001 13.3801 6.71153C13.3573 6.77439 13.3115 6.82581 13.2944 6.89439C13.2201 7.08296 13.1058 7.24296 13.0201 7.42581C12.9801 7.50581 12.9344 7.5801 12.8944 7.6601C12.8944 7.66581 12.8887 7.67153 12.883 7.68296C12.8487 7.7401 12.803 7.79724 12.7915 7.86581C12.683 8.08867 12.563 8.30581 12.443 8.52296C12.3687 8.6601 12.3001 8.80296 12.2144 8.9401C12.123 9.08296 12.0487 9.24296 11.9687 9.39153C11.7858 9.7401 11.5915 10.083 11.4144 10.4372C11.403 10.4544 11.3915 10.4715 11.3801 10.483C11.3058 10.5858 11.2658 10.7058 11.1973 10.8087C11.1115 10.9458 11.0487 11.0944 10.963 11.2315C10.8944 11.3458 10.8373 11.4601 10.7858 11.5801C10.7287 11.7058 10.6601 11.8201 10.5858 11.9344C10.5401 12.0087 10.5173 12.083 10.5344 12.163C10.563 12.283 10.523 12.3972 10.5058 12.5172C10.4887 12.6315 10.5058 12.7401 10.5058 12.8544C10.5058 12.9458 10.4887 13.0372 10.483 13.1287C10.483 13.1972 10.4601 13.2601 10.483 13.3287C10.4601 13.5515 10.4201 13.7744 10.3401 13.9858C10.3287 14.0087 10.3115 14.0315 10.3173 14.0658V14.0772Z" fill="#C32126"/>
<path d="M7.04834 4.95106C7.31691 4.91678 7.58548 4.95106 7.84834 5.01392C7.99691 5.04821 8.13405 5.10535 8.27691 5.15678C8.28263 5.17392 8.28834 5.19678 8.30548 5.20249C8.48263 5.29392 8.61977 5.43678 8.76834 5.56249C8.89977 5.68821 9.01405 5.83678 9.12834 5.97963C9.19691 6.06535 9.24834 6.16249 9.3112 6.25392C9.32834 6.28821 9.34548 6.32249 9.36263 6.35678C9.38548 6.40249 9.40834 6.44821 9.43691 6.49392C9.59691 6.83106 9.72263 7.17963 9.83691 7.53392C9.87691 7.66535 9.92263 7.79678 9.95691 7.93392C9.99691 8.13392 10.0541 8.33392 10.0998 8.53392C10.1341 8.68249 10.1683 8.83106 10.1969 8.98535C10.1969 9.01392 10.2026 9.04249 10.2255 9.06535C10.2483 9.0882 10.2769 9.05963 10.2998 9.07678C10.2712 9.19678 10.2598 9.3282 10.1569 9.41392C10.1169 9.39678 10.1055 9.36249 10.1283 9.32821C10.1512 9.28821 10.1398 9.26535 10.1169 9.24249C10.0769 9.20249 10.0826 9.15106 10.0598 9.10535C10.0255 8.90535 9.98548 8.71106 9.93977 8.51678C9.93977 8.49963 9.93977 8.48249 9.92263 8.47106C9.85405 8.19678 9.7912 7.91678 9.70548 7.64821C9.6712 7.51106 9.61977 7.37963 9.57405 7.24821C9.54548 7.12821 9.48834 7.01392 9.45977 6.93392C9.50548 7.03106 9.5512 7.16821 9.59691 7.30535C9.64834 7.41392 9.6712 7.53392 9.7112 7.64821C9.7512 7.82535 9.81977 7.99106 9.85405 8.16821C9.87691 8.27678 9.89405 8.39106 9.93405 8.49963C9.97405 8.6882 10.0255 8.87678 10.0483 9.07106C10.0483 9.08249 10.0483 9.09963 10.0483 9.11106C10.0483 9.13392 10.0483 9.1682 10.0141 9.17392C9.97405 9.17392 9.97405 9.14535 9.96834 9.11678C9.94548 9.01963 9.93405 8.91678 9.9112 8.81392C9.86548 8.64821 9.84263 8.48249 9.80263 8.31678C9.69405 7.86535 9.55691 7.43106 9.37405 7.00821C9.25977 6.72821 9.13977 6.45392 8.96834 6.20249C8.92834 6.14535 8.88263 6.09392 8.84263 6.03678C8.81977 5.99106 8.77977 5.95106 8.74548 5.91106C8.5512 5.69392 8.35691 5.48249 8.08834 5.35678C8.05977 5.34535 8.02548 5.33963 8.02548 5.29963C8.0312 5.29392 8.03691 5.28821 8.04834 5.28821C8.17405 5.30535 8.2712 5.38535 8.36834 5.45392C8.42548 5.49392 8.48263 5.53392 8.53405 5.57392C8.47691 5.52249 8.41977 5.47106 8.3512 5.43678C8.26548 5.37963 8.17405 5.32821 8.07691 5.28821C8.00834 5.24249 7.92834 5.23678 7.85405 5.20249C7.80263 5.17963 7.7512 5.17963 7.69405 5.16249C7.72834 5.17392 7.76834 5.17963 7.80263 5.19106C7.84834 5.21392 7.89977 5.21392 7.93977 5.25392C7.93977 5.32249 7.89405 5.32249 7.84834 5.30535C7.73405 5.26535 7.61405 5.24249 7.49405 5.21963C7.45405 5.20821 7.41405 5.21392 7.37405 5.21392C7.33977 5.21392 7.30548 5.21392 7.28263 5.18535C7.31691 5.12821 7.37405 5.13963 7.4312 5.14535C7.46548 5.14535 7.49405 5.16249 7.52263 5.17392C7.52263 5.16821 7.51691 5.17392 7.51691 5.17392C7.41977 5.03678 7.24834 5.07106 7.11691 5.00821C7.09405 4.99678 7.06548 5.00821 7.04834 4.97963V4.95106Z" fill="#E22C2A"/>
<path d="M8.30575 13.1174C8.33432 12.8088 8.4429 12.5231 8.58004 12.2431C8.75147 11.9059 8.9229 11.5631 9.09432 11.2259C9.11718 11.1859 9.11718 11.1459 9.11147 11.1059C9.02004 10.3002 8.9229 9.50021 8.74575 8.70593C8.6429 8.23736 8.54004 7.76879 8.36861 7.31736C8.22575 6.9345 8.00861 6.60307 7.67718 6.36307C7.58575 6.2945 7.48861 6.23164 7.36861 6.22021C7.22575 6.22021 7.08861 6.20307 6.95147 6.23736C6.84861 6.19736 6.77432 6.27164 6.71147 6.31736C6.47147 6.48307 6.27718 6.68879 6.16861 6.96879C6.15718 6.99736 6.15147 7.02021 6.15147 7.04879C6.15147 7.06021 6.15147 7.07164 6.14575 7.08307C5.8429 7.20879 5.59147 6.96879 5.54004 6.74593C5.58575 6.72307 5.59147 6.76307 5.60861 6.78593C5.66004 6.8545 5.69432 6.92879 5.76861 6.9745C5.80861 6.99736 5.84861 7.0145 5.89432 7.02021C5.98004 7.03164 6.04861 6.96879 6.03147 6.88307C6.02004 6.82021 6.0429 6.78593 6.0829 6.74593C6.2029 6.62593 6.30575 6.48879 6.43147 6.3745C6.51147 6.2945 6.6029 6.23164 6.70004 6.1745C6.9629 6.02593 7.23147 6.03736 7.50575 6.15164C7.6429 6.20879 7.75718 6.2945 7.86575 6.39164C7.92861 6.44879 8.01432 6.47736 8.06004 6.55736C8.21432 6.83164 8.39718 7.08879 8.48861 7.39736C8.59718 7.74021 8.67147 8.08879 8.77432 8.43164C8.8029 8.52307 8.80861 8.62021 8.8429 8.70593C8.8829 8.75736 8.84861 8.82021 8.86575 8.87736C8.91718 9.10021 8.9629 9.32307 8.99147 9.55164C9.03718 9.8945 9.09432 10.2374 9.12861 10.5802C9.14004 10.6945 9.15718 10.8031 9.18004 10.9174C9.22004 11.1116 9.23718 11.3116 9.09432 11.4888C9.02575 11.5745 8.98004 11.6831 8.93432 11.7802C8.82575 12.0202 8.67718 12.2431 8.56861 12.4888C8.49432 12.6659 8.42004 12.8374 8.38575 13.0259C8.38004 13.0659 8.38004 13.1288 8.31147 13.1231L8.30575 13.1174Z" fill="#CB2127"/>
<path d="M13.4543 6.56353C13.5229 6.37496 13.6372 6.20353 13.7286 6.02067C13.8486 5.78067 13.9743 5.54067 14.1057 5.30638C14.1629 5.19781 14.22 5.09496 14.2772 4.9921C14.2886 4.96924 14.3057 4.94638 14.2886 4.92353C14.2772 4.90067 14.26 4.92353 14.2429 4.92353C14.1343 4.93496 14.02 4.92353 13.9057 4.93496C13.8657 4.94638 13.8314 4.94638 13.7914 4.94638C13.3343 4.94638 12.8829 4.97496 12.4257 4.96353C12.3743 4.96353 12.3457 4.99781 12.3286 5.04353C12.2372 5.22638 12.14 5.40353 12.0543 5.58638C11.9972 5.70638 11.9229 5.82067 11.8657 5.94067C11.7457 6.18638 11.6143 6.42638 11.4943 6.6721C11.3 7.06638 11.0943 7.44924 10.8943 7.84353C10.7229 8.18067 10.5457 8.51781 10.38 8.86067C10.3514 8.92353 10.3114 8.97496 10.2829 9.03781C10.2657 9.06638 10.2486 9.10067 10.2086 9.06067C10.1972 9.02067 10.1914 8.98638 10.22 8.9521C10.3114 8.84353 10.3514 8.70638 10.42 8.58638C10.4429 8.54638 10.46 8.50638 10.46 8.46067C10.5114 8.48924 10.5 8.43781 10.5057 8.42067C10.6772 8.08924 10.8486 7.7521 11.0143 7.41495C11.0886 7.26638 11.1629 7.11781 11.2429 6.96924C11.5914 6.28924 11.9514 5.61496 12.2772 4.92353C12.3172 4.84353 12.3629 4.80924 12.4543 4.80924C12.9457 4.80924 13.4429 4.78067 13.9343 4.77496C14.0829 4.77496 14.2372 4.75781 14.3857 4.75781C14.4772 4.75781 14.4829 4.76353 14.4429 4.84353C14.2943 5.12353 14.14 5.40353 13.9857 5.68353C13.86 5.90638 13.74 6.13496 13.62 6.35781C13.5857 6.42067 13.5457 6.48353 13.5 6.54067C13.4886 6.5521 13.4714 6.56353 13.4543 6.55781V6.56353Z" fill="#D62E2B"/>
<path d="M8.80879 8.71115C8.79736 8.66544 8.76307 8.61972 8.79736 8.56829C8.79736 8.56829 8.79736 8.55115 8.79736 8.54544C8.68879 8.36258 8.68307 8.15115 8.62021 7.95687C8.54593 7.70544 8.48307 7.44829 8.38021 7.20258C8.30593 7.01972 8.19736 6.85401 8.08879 6.68829C8.06021 6.64258 8.04307 6.59687 8.0145 6.55115C7.96307 6.46544 7.87164 6.44829 7.80307 6.38544C7.6545 6.24829 7.48307 6.15115 7.27736 6.11115C7.00879 6.05401 6.76879 6.11115 6.55736 6.28258C6.39736 6.40829 6.2545 6.56258 6.12879 6.72258C6.11736 6.73972 6.10021 6.76258 6.08307 6.76829C6.03164 6.79687 6.02593 6.82544 6.04307 6.88258C6.07164 6.96829 5.96879 7.05972 5.87736 7.04829C5.72307 7.02544 5.64307 6.91115 5.56879 6.79115C5.55736 6.77401 5.55736 6.74544 5.52307 6.75115C5.44879 6.51687 5.48879 6.29401 5.59164 6.08258C5.60879 6.06544 5.62593 6.05401 5.64879 6.05401C5.67736 6.05401 5.68879 6.07115 5.68879 6.09401C5.67736 6.16829 5.63164 6.23115 5.6145 6.30544C5.5745 6.45401 5.55164 6.60829 5.62593 6.75115C5.64307 6.77972 5.66021 6.80829 5.68307 6.83115C5.78593 6.92258 5.86593 6.91115 5.9345 6.79687C6.02593 6.64258 6.12307 6.49401 6.24307 6.36258C6.28307 6.31115 6.34021 6.28258 6.38021 6.22544C6.66021 5.96829 6.9745 5.86544 7.34593 5.98544C7.58021 6.06544 7.76879 6.20829 7.94021 6.38544C8.24879 6.68829 8.43736 7.07115 8.56307 7.47687C8.67736 7.84829 8.78021 8.22544 8.84879 8.60829C8.84879 8.64258 8.87164 8.67115 8.84879 8.70544C8.83164 8.71687 8.8145 8.71115 8.79736 8.70544L8.80879 8.71115Z" fill="#B72025"/>
<path d="M8.80868 8.7126C8.80868 8.7126 8.84297 8.7126 8.8544 8.7126C8.8944 8.73546 8.90011 8.78117 8.91154 8.82117C8.92868 8.90689 8.94582 8.98689 8.96297 9.0726C9.04297 9.48403 9.10011 9.89546 9.15725 10.3126C9.18582 10.5183 9.20868 10.7297 9.23154 10.9355C9.23154 10.9812 9.22582 11.0269 9.23725 11.0726C9.23725 11.084 9.23725 11.1012 9.24297 11.1126C9.24297 11.1526 9.24297 11.1983 9.2544 11.2383C9.2544 11.244 9.2544 11.2555 9.2544 11.2612C9.2544 11.3812 9.1744 11.4726 9.12297 11.5755C9.03154 11.7583 8.9344 11.9412 8.84297 12.1297C8.83154 12.1526 8.82582 12.1755 8.79725 12.1869C8.60297 12.524 8.44297 12.8726 8.39154 13.2612C8.35725 13.4897 8.34011 13.7183 8.34582 13.9469C8.35154 14.1583 8.36297 14.3755 8.4144 14.5812C8.42582 14.6383 8.4144 14.6555 8.35725 14.6497C8.28297 14.4783 8.27154 14.3012 8.2544 14.1183C8.22011 13.7812 8.22582 13.4497 8.2944 13.1183C8.3344 13.1069 8.34011 13.0726 8.34582 13.0383C8.39154 12.7355 8.52297 12.4612 8.67154 12.1926C8.79725 11.964 8.90582 11.7297 9.03154 11.5012C9.06582 11.4383 9.11725 11.3926 9.1344 11.3183C9.15725 11.2212 9.15154 11.1297 9.14582 11.0326C9.14582 10.9355 9.10011 10.8555 9.10011 10.764C9.08868 10.4097 9.00868 10.0612 8.96868 9.70689C8.9344 9.40974 8.87154 9.1126 8.80868 8.82117C8.79725 8.78117 8.8544 8.74117 8.79725 8.70117L8.80868 8.7126Z" fill="#C12026"/>
<path d="M6.93428 6.22664C7.08285 6.19235 7.22571 6.16378 7.37428 6.22664C7.15142 6.39807 6.96285 6.60378 6.83713 6.85521C6.80856 6.90664 6.76856 6.94664 6.71142 6.95807C6.52285 7.00378 6.33428 7.04378 6.15142 7.0895C6.15142 7.08378 6.13999 7.07235 6.13428 7.06664C6.29428 6.80378 6.44856 6.54092 6.69999 6.34664C6.76856 6.2895 6.83713 6.22092 6.93999 6.22664H6.93428Z" fill="#831618"/>
<path d="M10.3172 14.0771C10.3115 13.9799 10.363 13.8999 10.3801 13.8085C10.4144 13.6542 10.443 13.4942 10.4715 13.3342C10.4487 13.2199 10.4887 13.1171 10.5001 13.0085C10.5401 12.7056 10.563 12.4028 10.5401 12.0942C10.5401 12.0714 10.5344 12.0485 10.5401 12.0256C10.6258 11.8714 10.6944 11.7114 10.803 11.5742C10.8372 11.6885 10.843 11.8028 10.8315 11.9171C10.7972 12.4714 10.723 13.0142 10.5458 13.5399C10.483 13.7228 10.3972 13.8999 10.3115 14.0771H10.3172Z" fill="#871719"/>
<path d="M10.2713 12.918C10.3399 12.9408 10.397 13.0265 10.3856 13.0894C10.3341 13.4208 10.2941 13.7523 10.197 14.0723C10.0941 14.4151 9.93986 14.7351 9.677 14.9865C9.61986 15.0437 9.54557 15.0837 9.477 15.1294C9.44843 15.1465 9.42557 15.1637 9.41986 15.198C9.16843 15.3237 8.64843 15.1865 8.49414 14.9008C8.50557 14.8494 8.53414 14.8665 8.55128 14.8951C8.65986 15.078 8.84271 15.1408 9.037 15.1637C9.197 15.1808 9.33414 15.118 9.45985 15.0208C9.81985 14.7351 9.99128 14.3465 10.1056 13.918C10.1627 13.7123 10.2027 13.5008 10.2256 13.2894C10.2084 13.2608 10.197 13.2323 10.2084 13.2037C10.237 13.1123 10.2199 13.0094 10.277 12.9237L10.2713 12.918Z" fill="#AD1F23"/>
<path d="M5.69425 6.09403C5.69425 6.09403 5.68282 6.05974 5.65996 6.05974C5.64282 6.03117 5.65996 5.99689 5.65996 5.96831C5.93425 5.39689 6.36282 5.02546 7.01425 4.95117C7.02568 4.95117 7.03711 4.95117 7.04853 4.95117C7.19139 4.95689 7.31711 5.02546 7.45996 5.0426C7.47711 5.0426 7.50568 5.05403 7.49996 5.07689C7.48282 5.13403 7.52282 5.13403 7.55711 5.14546C7.46568 5.1626 7.37425 5.11689 7.28853 5.15117C7.23711 5.19117 7.17996 5.17403 7.12853 5.17403C6.83139 5.17403 6.55711 5.2426 6.30568 5.4026C6.17425 5.48831 6.05425 5.59689 5.95711 5.7226C5.92853 5.75117 5.90568 5.78546 5.88282 5.81403C5.86568 5.83689 5.85425 5.85974 5.84282 5.8826C5.80853 5.93974 5.77425 5.99689 5.73996 6.05974C5.73425 6.07689 5.72853 6.09974 5.69996 6.09403H5.69425Z" fill="#D42027"/>
<path d="M13.4887 6.54624C13.8259 5.9691 14.1287 5.3691 14.4602 4.77481C14.363 4.77481 14.2716 4.77481 14.1802 4.77481C13.9344 4.78052 13.6887 4.79195 13.443 4.79767C13.1059 4.8091 12.7687 4.81481 12.4316 4.82052C12.363 4.82052 12.3287 4.84338 12.3002 4.90624C11.9687 5.57481 11.6373 6.2491 11.283 6.90624C11.2716 6.9291 11.2659 6.95195 11.2373 6.96338C11.2373 6.9291 11.2602 6.90052 11.2716 6.87195C11.4602 6.50624 11.6487 6.14624 11.8316 5.78052C11.9859 5.47767 12.1287 5.17481 12.2773 4.87195C12.3002 4.82052 12.3344 4.80338 12.3916 4.80338C12.6773 4.80338 12.9687 4.79767 13.2544 4.78624C13.6487 4.7691 14.0259 4.75195 14.4087 4.75195C14.4811 4.75195 14.5021 4.78433 14.4716 4.8491C14.3344 5.14052 14.1687 5.42052 14.0144 5.70624C13.8316 6.05481 13.6373 6.39767 13.4487 6.74052C13.2716 7.06052 13.0944 7.38624 12.9173 7.70624C12.8944 7.69481 12.883 7.67767 12.8887 7.65481C13.003 7.43767 13.123 7.22052 13.2373 7.00338C13.2659 6.94624 13.2944 6.8891 13.3173 6.83195C13.323 6.81481 13.3287 6.80338 13.3402 6.79195C13.3916 6.71195 13.4316 6.62624 13.4887 6.55195V6.54624Z" fill="#EBBDBC"/>
<path d="M10.8086 11.5751C10.74 11.7008 10.6657 11.8266 10.5972 11.9523C10.5686 12.0037 10.5686 12.0551 10.5686 12.118C10.5857 12.3523 10.5857 12.5866 10.5457 12.8151C10.5229 12.9866 10.4943 13.158 10.4714 13.3294C10.42 13.2666 10.4657 13.198 10.4714 13.1294C10.4714 13.0494 10.5 12.9694 10.4943 12.8894C10.4772 12.7408 10.4886 12.598 10.4886 12.4494C10.4886 12.4037 10.5457 12.3751 10.5343 12.318C10.5114 12.2323 10.5229 12.1408 10.5114 12.0494C10.5114 12.0323 10.5 12.0208 10.5114 12.0037C10.6314 11.8551 10.7057 11.678 10.7972 11.5123C10.8486 11.4151 10.8829 11.3066 10.9629 11.2266C10.98 11.2266 10.9857 11.2266 10.98 11.2437C10.9229 11.3523 10.8714 11.4551 10.8143 11.5637L10.8086 11.5751Z" fill="#CF3231"/>
<path d="M11.3628 10.4882C11.4714 10.2825 11.58 10.0825 11.6886 9.87674C11.8486 9.5796 12.0086 9.27674 12.1628 8.9796C12.1686 8.96817 12.1857 8.95674 12.1971 8.94531C12.22 8.96817 12.1971 8.99103 12.1971 9.01388C11.9457 9.47674 11.7 9.93388 11.4486 10.3967C11.4257 10.4425 11.3971 10.4825 11.3743 10.5225C11.3571 10.5167 11.3514 10.5053 11.3571 10.4882H11.3628Z" fill="#DA6565"/>
<path d="M12.2028 9.01418C12.1628 8.99703 12.2028 8.96846 12.2028 8.94561C12.3857 8.60275 12.5743 8.25418 12.7571 7.91132C12.7628 7.89989 12.7686 7.88846 12.7743 7.87132C12.8028 7.80846 12.8371 7.74561 12.8771 7.68846C12.8771 7.68846 12.8771 7.64275 12.9114 7.65418C12.9114 7.67132 12.9228 7.68846 12.9286 7.70561C12.6943 8.13418 12.46 8.56846 12.2314 8.99703C12.2314 9.00275 12.22 9.00846 12.2143 9.01418H12.2028Z" fill="#E99393"/>
<path d="M11.3627 10.4881C11.3627 10.4881 11.3742 10.511 11.3799 10.5224C11.2599 10.751 11.1342 10.9796 11.0142 11.2024C11.0027 11.2196 11.0027 11.2481 10.9742 11.2539C10.9742 11.2539 10.9627 11.2424 10.957 11.2367C11.0199 11.071 11.117 10.9281 11.197 10.7739C11.237 10.6996 11.2827 10.631 11.3056 10.551C11.317 10.5281 11.3285 10.4939 11.3627 10.4824V10.4881Z" fill="#CF3F3E"/>
<path d="M8.75695 5.5752C8.66552 5.54092 8.61981 5.4552 8.54552 5.39806C8.45981 5.3352 8.38552 5.27234 8.29409 5.22092C8.26552 5.20377 8.22552 5.19234 8.27123 5.15234C8.29981 5.15234 8.32266 5.16377 8.33981 5.18092C8.31695 5.2152 8.35695 5.20949 8.36266 5.2152C8.47695 5.2952 8.60838 5.35806 8.70552 5.47234C8.69981 5.51806 8.77409 5.51806 8.75695 5.5752Z" fill="#E05151"/>
<path d="M5.65446 5.96875C5.6716 5.99732 5.67731 6.02589 5.65446 6.06018C5.64303 6.07732 5.62588 6.07732 5.60303 6.07732C5.60874 6.03732 5.62588 6.00304 5.64874 5.96875H5.65446Z" fill="#CF2627"/>
<path d="M9.93425 7.94006C9.79139 7.44863 9.62568 6.96292 9.41425 6.49434C9.39139 6.44863 9.37996 6.3972 9.34568 6.36292C9.32282 6.33434 9.29996 6.30006 9.29425 6.26577C9.29425 6.24863 9.2771 6.23149 9.27139 6.21434C9.26568 6.1972 9.24282 6.17434 9.27139 6.16292C9.29425 6.14577 9.30568 6.18006 9.3171 6.19149C9.65996 6.76292 9.84282 7.3972 10.0142 8.03149C10.0314 8.08863 10.0257 8.15149 10.0542 8.20863C10.0714 8.25434 10.0714 8.30577 10.0885 8.3572C10.0885 8.40863 10.1 8.46006 10.1171 8.51149C10.1285 8.53434 10.1342 8.5572 10.1057 8.58577C10.0428 8.36863 9.99711 8.15149 9.93425 7.94006Z" fill="#FADAD8"/>
<path d="M9.93443 7.94141C9.99728 8.07283 10.0144 8.21569 10.0544 8.35283C10.0773 8.42141 10.0887 8.49569 10.1173 8.56426C10.1173 8.54712 10.1173 8.52998 10.1173 8.51855C10.1687 8.62712 10.1687 8.74712 10.203 8.86141C10.2087 8.88998 10.2144 8.91855 10.2201 8.95283C10.2201 8.99283 10.2201 9.03283 10.2201 9.07283C10.2201 9.07855 10.2201 9.08426 10.2201 9.08998C10.2087 9.08998 10.1916 9.12998 10.1859 9.08998C10.123 8.70141 10.0144 8.32998 9.92871 7.94712L9.93443 7.94141Z" fill="#F69E9E"/>
<path d="M8.7573 5.57551C8.7573 5.53551 8.6773 5.5298 8.70587 5.47266C8.85444 5.58694 8.99159 5.71266 9.09444 5.87266C9.09444 5.88408 9.07159 5.87266 9.0773 5.87837C9.09444 5.91266 9.14016 5.93551 9.1173 5.98694C9.06016 5.95266 9.04302 5.8898 8.9973 5.83837C8.9173 5.75266 8.84302 5.66123 8.76302 5.5698L8.7573 5.57551Z" fill="#ED7575"/>
<path d="M9.11159 5.99218C9.10016 5.93503 9.05445 5.89503 9.02588 5.83789C9.06016 5.83789 9.06588 5.87218 9.08874 5.87218C9.16874 5.96932 9.26016 6.06646 9.30588 6.19218C9.29445 6.18646 9.27731 6.17503 9.26016 6.16932C9.26016 6.20932 9.29445 6.23218 9.28302 6.26646C9.22016 6.17503 9.16302 6.0836 9.10016 5.99218H9.11159Z" fill="#F8AEAE"/>
<path d="M10.0885 8.35756C10.0599 8.31184 10.0542 8.26041 10.0542 8.20898C10.0828 8.2547 10.0885 8.30613 10.0885 8.35756Z" fill="#F69E9E"/>
<path d="M10.3057 12.0145C10.3285 11.9631 10.3514 11.9174 10.3742 11.866C10.4028 11.7345 10.4885 11.6317 10.5457 11.5174C10.6028 11.4031 10.66 11.2945 10.7228 11.186C10.8371 10.9745 10.9571 10.7688 11.0657 10.5517C11.1799 10.346 11.2942 10.1403 11.4028 9.92883C11.5399 9.68883 11.6657 9.44311 11.7971 9.20311C11.9114 8.98597 12.0371 8.76883 12.1457 8.55169C12.1571 8.52311 12.1742 8.50026 12.1857 8.47169C12.2714 8.33454 12.3285 8.17454 12.4371 8.04883C12.5171 8.04883 12.5342 8.06597 12.4942 8.14026C12.3742 8.38026 12.2542 8.62026 12.1342 8.86026C11.8771 9.36311 11.6085 9.86597 11.3457 10.3631C11.1685 10.706 10.9857 11.0431 10.8028 11.3803C10.7057 11.5631 10.6028 11.7403 10.5114 11.9231C10.5 11.9517 10.4885 11.9803 10.46 11.9974C10.42 12.0031 10.3742 12.0088 10.34 12.0317C10.3171 12.0488 10.3114 12.0317 10.3114 12.0145H10.3057Z" fill="#B01F24"/>
<path d="M10.4544 11.9974C10.6602 11.6089 10.8716 11.226 11.0773 10.8374C11.2202 10.5631 11.3687 10.2889 11.5116 10.0089C11.6887 9.67172 11.8659 9.33457 12.0373 8.99172C12.1859 8.706 12.323 8.41458 12.4716 8.12886C12.4944 8.08315 12.5116 8.04886 12.4373 8.05458C12.4316 8.05458 12.4259 8.04315 12.4259 8.03743C12.4259 8.02029 12.4316 8.00886 12.443 7.99743C12.4659 7.95743 12.483 7.91743 12.5059 7.87743C12.5916 7.68886 12.7173 7.51743 12.803 7.32886C12.9002 7.146 12.9973 6.96886 13.0944 6.786C13.1116 6.75743 13.123 6.72886 13.1516 6.71743C13.3573 6.34029 13.563 5.96315 13.7687 5.58029C13.7802 5.55743 13.7973 5.53458 13.8144 5.51172C13.8487 5.52886 13.8487 5.55172 13.8373 5.586C13.7402 5.78029 13.6487 5.97458 13.5516 6.16886C13.4087 6.46029 13.2659 6.746 13.1173 7.03743C13.0087 7.25458 12.8944 7.466 12.7859 7.68315C12.7573 7.746 12.6944 7.74029 12.6602 7.77458C12.6316 7.80886 12.7002 7.86029 12.6602 7.91743C12.4487 8.29458 12.2487 8.68315 12.043 9.066C11.9344 9.27172 11.8202 9.48315 11.7116 9.68886C11.5344 10.0203 11.363 10.346 11.1859 10.6774C10.963 11.0946 10.7402 11.5117 10.5173 11.9289C10.5002 11.9574 10.4944 11.9974 10.4487 11.9974H10.4544Z" fill="#BD2026"/>
<path d="M14.0657 5.01983C14.0657 5.01983 14.0428 5.00269 14.0314 5.00269C13.5914 5.0084 13.1457 5.01983 12.7057 5.02555C12.6999 5.02555 12.6885 5.03126 12.6828 5.03698C12.5971 5.08269 12.5057 5.07126 12.4142 5.04269C12.3971 5.01983 12.3971 5.00269 12.4142 4.97983C12.4371 4.96269 12.4599 4.96269 12.4828 4.96269C12.9399 4.96269 13.3914 4.9284 13.8428 4.93983C13.9057 4.95126 13.9628 4.94555 14.0257 4.95126C14.0599 4.95126 14.0942 4.95126 14.1171 4.97412C14.0942 4.99126 14.0771 5.0084 14.0542 5.02555L14.0657 5.01983Z" fill="#E34C4C"/>
<path d="M12.9059 7.65489C12.9059 7.65489 12.883 7.67775 12.8716 7.68917C12.8716 7.66632 12.8773 7.64917 12.8887 7.62632C13.0087 7.40346 13.1287 7.18632 13.2487 6.96346C13.2602 6.94632 13.2659 6.92346 13.2716 6.9006C13.2944 6.88346 13.2887 6.83203 13.3344 6.83203C13.2544 7.0206 13.1459 7.19203 13.0487 7.37489C13.003 7.46632 12.9516 7.56346 12.9002 7.65489H12.9059Z" fill="#D53B3A"/>
<path d="M13.9 4.91207C14.0143 4.90636 14.1286 4.8835 14.2429 4.9235C14.2315 4.93493 14.22 4.94636 14.2086 4.95778C14.1057 4.98064 14.0029 4.95778 13.8943 4.9635C13.8772 4.9235 13.9115 4.93493 13.9286 4.93493C14.0029 4.93493 14.0772 4.93493 14.1515 4.93493C14.0657 4.9235 13.98 4.95207 13.9 4.91778V4.91207Z" fill="#E34C4C"/>
<path d="M13.8888 4.95191C13.9973 4.95191 14.1002 4.95191 14.2088 4.95191C14.1916 4.99191 14.1802 5.03191 14.1402 5.06048C14.0945 5.03191 14.1859 4.99191 14.1231 4.96905C14.0316 4.95763 13.9402 4.9862 13.8545 4.95191C13.8659 4.9462 13.8773 4.94048 13.8888 4.95191Z" fill="#D62E2B"/>
<path d="M13.4886 6.54688C13.46 6.6383 13.4143 6.7183 13.3514 6.7983C13.3286 6.76402 13.3514 6.74116 13.3686 6.7183C13.3914 6.6783 13.4086 6.6383 13.4371 6.5983C13.4371 6.58687 13.4486 6.57545 13.4543 6.56402C13.4657 6.56402 13.4771 6.55259 13.4886 6.54688Z" fill="#D53B3A"/>
<path d="M13.3745 6.7168C13.3745 6.7168 13.3631 6.77394 13.3573 6.7968C13.3516 6.80823 13.3459 6.81965 13.3402 6.83108C13.3173 6.85394 13.2945 6.8768 13.2773 6.89965C13.3002 6.83108 13.3345 6.77394 13.3802 6.7168H13.3745Z" fill="#D62E2B"/>
<path d="M12.8714 7.68945C12.8486 7.75802 12.8143 7.82088 12.7686 7.87231C12.78 7.79802 12.8143 7.74088 12.8714 7.68945Z" fill="#D53B3A"/>
<path d="M13.4372 6.59766C13.4258 6.64337 13.4144 6.68908 13.3687 6.71766C13.3687 6.66623 13.3915 6.62623 13.4372 6.59766Z" fill="#D62E2B"/>
<path d="M10.5344 8.77436C10.4601 8.9115 10.3915 9.05436 10.3172 9.1915C10.2715 9.1915 10.3001 9.16293 10.3058 9.14579C10.3286 9.00864 10.4144 8.89436 10.4715 8.76864C10.4715 8.75722 10.4886 8.7515 10.4829 8.73436C10.4658 8.73436 10.4829 8.72293 10.4829 8.73436C10.4829 8.73436 10.4886 8.73436 10.4829 8.74007C10.4372 8.83722 10.3801 8.92864 10.3344 9.02579C10.3286 9.04293 10.3172 9.05436 10.3001 9.06007C10.3001 9.06579 10.2886 9.0715 10.2829 9.07722C10.2601 9.07722 10.2372 9.14579 10.2144 9.07722C10.2144 9.07722 10.2144 9.06579 10.2144 9.06007C10.2829 9.01436 10.3058 8.93436 10.3401 8.8715C10.4715 8.63722 10.5858 8.3915 10.7115 8.1515C10.8886 7.80293 11.0658 7.45436 11.2486 7.10579C11.3972 6.82007 11.5229 6.52293 11.6829 6.23722C11.7972 6.0315 11.8886 5.81436 12.0086 5.60865C12.1229 5.41436 12.2144 5.20293 12.3229 5.00293C12.3401 4.97436 12.3458 4.92865 12.3972 4.9515C12.4144 4.9515 12.4201 4.96865 12.4144 4.98579C12.4144 5.00293 12.4144 5.02007 12.4144 5.03722C12.4315 5.06579 12.4144 5.09436 12.4029 5.11722C12.1915 5.5115 12.0029 5.9115 11.7972 6.3115C11.7801 6.34007 11.7744 6.37436 11.7401 6.38579C11.6886 6.46579 11.6486 6.5515 11.6086 6.64293C11.5801 6.7515 11.5115 6.84293 11.4715 6.9515C11.4086 7.0715 11.3458 7.19722 11.2886 7.31722C11.2372 7.41436 11.1858 7.51722 11.1401 7.62007C11.0486 7.80293 10.9458 7.98579 10.8544 8.17436C10.7686 8.34579 10.6829 8.51722 10.5972 8.68864C10.5801 8.71722 10.5744 8.7515 10.5401 8.76864L10.5344 8.77436Z" fill="#D71F27"/>
<path d="M9.7169 7.63855C9.76262 7.80998 9.82547 7.97569 9.85976 8.15283C9.8769 8.25569 9.91119 8.35855 9.93405 8.46141C9.95119 8.48426 9.9569 8.51283 9.93405 8.52426C9.91119 8.53569 9.9169 8.50141 9.91119 8.48998C9.86547 8.30712 9.81405 8.11855 9.76833 7.93569C9.74547 7.83855 9.69976 7.74141 9.68833 7.63855C9.68262 7.62712 9.6769 7.60998 9.69405 7.60426C9.7169 7.59855 9.71119 7.62712 9.72262 7.63855H9.7169Z" fill="#F9BEBC"/>
<path d="M9.90576 8.48951L9.92862 8.50665C9.94576 8.49522 9.92862 8.47237 9.93433 8.46094C9.99148 8.60951 10.0029 8.76951 10.0372 8.92379C10.0486 8.98665 10.06 9.04951 10.0715 9.11237C10.0715 9.12951 10.0715 9.14665 10.0715 9.16379C10.0258 9.14094 10.06 9.08379 10.0258 9.06094C9.98576 8.87237 9.94576 8.68379 9.91148 8.48951H9.90576Z" fill="#F37E7D"/>
<path d="M9.5684 7.30046C9.51126 7.14617 9.45412 6.98617 9.39697 6.83189C9.40269 6.83189 9.41412 6.83189 9.41983 6.82617C9.48269 6.96331 9.55126 7.08903 9.58554 7.2376C9.5684 7.25474 9.59126 7.28331 9.5684 7.30046Z" fill="#EB5755"/>
<path d="M9.56866 7.30114C9.56866 7.30114 9.55724 7.25542 9.58581 7.23828C9.63724 7.36971 9.69438 7.50114 9.71724 7.63828C9.70581 7.63828 9.68866 7.59257 9.68295 7.63828C9.63152 7.52971 9.61438 7.40971 9.56866 7.30114Z" fill="#F48989"/>
<path d="M8.04297 5.28935V5.27792C8.04868 5.23792 8.07154 5.24935 8.0944 5.26077C8.19154 5.29506 8.28297 5.3522 8.36297 5.40935C8.38011 5.42077 8.40297 5.42649 8.39725 5.45506C8.39725 5.46649 8.38011 5.46649 8.36297 5.45506C8.26011 5.39792 8.16297 5.31792 8.04297 5.28935Z" fill="#F8B4B4"/>
<path d="M8.35734 5.45392C8.40877 5.43677 8.35163 5.41963 8.35734 5.4082C8.45448 5.4482 8.51734 5.52249 8.5802 5.59677C8.49448 5.56249 8.42591 5.51106 8.35734 5.45392Z" fill="#F37C7B"/>
<path d="M8.08845 5.2603C8.08845 5.2603 8.04845 5.2603 8.03702 5.27744C8.00273 5.26602 7.97416 5.25459 7.93988 5.24316C7.89416 5.22602 7.84845 5.20887 7.80273 5.19173C7.80273 5.15173 7.83131 5.16887 7.85416 5.17459C7.93416 5.20316 8.01988 5.20887 8.08845 5.2603Z" fill="#F37878"/>
<path d="M7.8542 5.16836C7.8542 5.16836 7.8142 5.16836 7.80278 5.1855C7.73992 5.1855 7.68849 5.16264 7.63135 5.12836C7.70563 5.12264 7.77992 5.13407 7.84849 5.16836H7.8542Z" fill="#D53635"/>
<path d="M9.3457 6.36328C9.39713 6.39185 9.40856 6.44328 9.41427 6.49471C9.37999 6.45471 9.36285 6.409 9.3457 6.36328Z" fill="#F8AEAE"/>
<path d="M6.93413 6.22602C6.75128 6.28887 6.62556 6.42602 6.49985 6.56316C6.37413 6.7003 6.28842 6.86602 6.17985 7.0203C6.16842 7.03744 6.15128 7.05459 6.12842 7.06602C6.12842 6.91744 6.21985 6.80316 6.29985 6.68887C6.4027 6.55173 6.5227 6.42602 6.65985 6.32887C6.71699 6.28887 6.77985 6.25459 6.8427 6.2203C6.86556 6.20887 6.89985 6.20316 6.92842 6.23173L6.93413 6.22602Z" fill="#D94141"/>
<path d="M12.4141 4.9864C12.4141 4.9864 12.4027 4.96354 12.397 4.95211C12.4255 4.92925 12.4541 4.94068 12.4884 4.94068C12.9341 4.93497 13.3855 4.92925 13.8313 4.91782C13.8541 4.91782 13.8827 4.91782 13.9055 4.91211C13.997 4.93497 14.0884 4.91211 14.1855 4.92925C14.0827 4.95211 13.9855 4.91782 13.8941 4.95211C13.8827 4.95211 13.8713 4.95211 13.8598 4.95211C13.477 4.9464 13.0941 4.97497 12.7113 4.98068C12.6141 4.98068 12.517 4.98068 12.4198 4.9864H12.4141Z" fill="#F8AFB0"/>
<path d="M9.21436 10.9413C9.25436 10.9755 9.31721 10.9641 9.34578 11.0213C9.30578 11.0441 9.2315 10.987 9.2315 11.0727C9.20293 11.0327 9.22007 10.9813 9.21436 10.9355V10.9413Z" fill="#CD2B2C"/>
<path d="M9.23125 11.1055C9.27125 11.1055 9.32267 11.1055 9.26553 11.1626C9.24267 11.1855 9.24839 11.214 9.24839 11.2426C9.2141 11.2026 9.23696 11.1512 9.23125 11.1055Z" fill="#CD2B2C"/>
<path d="M5.92843 5.72251C5.92843 5.72251 5.93986 5.73965 5.94558 5.75108C5.96843 5.77394 5.98558 5.79108 5.96272 5.81965C5.93986 5.85394 5.91701 5.83108 5.88843 5.81965C5.87701 5.81965 5.87129 5.80823 5.85986 5.80251C5.88272 5.77394 5.90558 5.74537 5.92843 5.7168V5.72251Z" fill="#CF2627"/>
<path d="M10.0714 9.67127C10.0372 9.5627 10.0429 9.46556 10.02 9.37413C10.02 9.3627 10.02 9.34556 10.0372 9.33984C10.0486 9.33984 10.06 9.33984 10.06 9.35699C10.0886 9.45413 10.1343 9.55127 10.0657 9.67127H10.0714Z" fill="#D02327"/>
<path d="M10.3055 9.05965C10.3684 8.94537 10.4312 8.83108 10.4941 8.7168C10.4884 8.7968 10.4426 8.86537 10.4084 8.93394C10.3684 9.01394 10.3169 9.09394 10.3226 9.19108C10.3169 9.20251 10.3112 9.21394 10.2998 9.23108C10.2598 9.16823 10.3341 9.11108 10.2998 9.05394L10.3055 9.05965Z" fill="#E22C2A"/>
<path d="M13.9571 4.98112C13.5628 4.9754 13.1628 5.00969 12.7685 4.99826C12.74 4.99826 12.7114 4.99826 12.6885 5.0154C12.6885 5.02683 12.6828 5.03255 12.6885 5.03826C12.6028 5.03826 12.5114 5.03826 12.4257 5.03826C12.3742 5.14683 12.3171 5.24969 12.2657 5.35826C12.0942 5.70112 11.9228 6.04397 11.7514 6.38683C11.6657 6.4554 11.62 6.54683 11.6142 6.6554C11.5571 6.74683 11.5114 6.84969 11.4657 6.94683C11.3971 7.06683 11.3342 7.19254 11.2771 7.31826C11.22 7.4154 11.1685 7.51254 11.1285 7.6154C11.0314 7.79826 10.9285 7.98112 10.8485 8.1754C10.7342 8.36969 10.6371 8.56969 10.5457 8.7754C10.5057 8.7754 10.5 8.80969 10.4885 8.83826C10.4314 8.95254 10.3685 9.06683 10.3171 9.18112V9.18683C10.3171 9.18683 10.3171 9.1754 10.3171 9.16969C10.3171 9.12969 10.3685 9.08969 10.3171 9.0554C10.3057 9.0554 10.2942 9.06112 10.3 9.07826C10.2428 9.18683 10.2371 9.31254 10.1685 9.4154C10.1457 9.38683 10.1114 9.35826 10.1685 9.32397C10.1914 9.31254 10.1914 9.27826 10.1742 9.26683C10.1114 9.23254 10.1057 9.16397 10.0828 9.11254C10.0657 9.12397 10.0828 9.14112 10.0714 9.14683C10.0542 9.12397 10.0828 9.07826 10.0314 9.06112C10.0314 9.08969 10.0371 9.12397 10.0085 9.16397C9.96853 9.03826 9.97424 8.90683 9.92853 8.79254C9.89996 8.6554 9.8771 8.51826 9.84281 8.38112C9.77424 8.08397 9.70567 7.78683 9.5971 7.50112C9.49424 7.22112 9.38567 6.94683 9.26567 6.67254C9.16281 6.43254 9.03138 6.20969 8.85424 6.00969C8.75138 5.84397 8.60281 5.71826 8.46567 5.5754C8.34567 5.44969 8.17996 5.3754 8.03138 5.28969H8.04853C8.04853 5.28969 8.04853 5.27255 8.04853 5.26683C8.01996 5.24397 7.98567 5.22683 7.94567 5.24397C7.92281 5.27826 7.89996 5.28969 7.85424 5.27255C7.74567 5.23255 7.62567 5.20397 7.50567 5.19255C7.4771 5.16397 7.44281 5.18112 7.41424 5.1754C7.37424 5.16969 7.32853 5.19255 7.28853 5.15826C7.13424 5.15826 6.97424 5.14683 6.82567 5.1754C6.45996 5.24969 6.1571 5.42112 5.93424 5.72397C5.94567 5.78112 5.92281 5.80969 5.86567 5.80969C5.86567 5.80969 5.8371 5.84969 5.83138 5.87826C5.77424 5.94112 5.73996 6.02112 5.69996 6.0954C5.67138 6.1754 5.63138 6.24969 5.60853 6.32969C5.56853 6.48397 5.55138 6.64397 5.64281 6.79254C5.73996 6.95254 5.88853 6.96397 5.98567 6.80397C6.03138 6.7354 6.06567 6.66112 6.11138 6.59826C6.1971 6.46683 6.30567 6.35826 6.41424 6.24969C6.50567 6.15254 6.61996 6.08969 6.73996 6.03254C6.94567 5.9354 7.16281 5.94683 7.37424 6.0154C7.40853 6.03255 7.44281 6.04397 7.48281 6.06112C7.66567 6.14112 7.80853 6.26683 7.94567 6.40397C8.24853 6.71826 8.4371 7.08969 8.56281 7.50112C8.68281 7.90112 8.79138 8.30683 8.86567 8.71826C8.91138 8.83254 8.9171 8.95254 8.95138 9.07254C8.95138 9.08397 8.95138 9.10112 8.95138 9.11254C9.01424 9.43254 9.06567 9.75826 9.10567 10.084C9.13996 10.3754 9.17996 10.6611 9.21996 10.9525C9.2371 10.9868 9.27138 10.9983 9.29996 11.0154C9.25424 11.023 9.23329 11.0478 9.2371 11.0897C9.2371 11.0897 9.2371 11.1125 9.2371 11.124C9.25424 11.1411 9.26567 11.1525 9.25424 11.1811C9.24281 11.204 9.2371 11.2325 9.25424 11.2611C9.25424 11.2611 9.25424 11.2725 9.25424 11.2783C9.25424 11.3183 9.24281 11.3525 9.22567 11.3868C9.09424 11.6554 8.93996 11.9183 8.81996 12.1983C8.81996 12.2611 8.77424 12.3354 8.85424 12.3697C8.94567 12.4097 8.9971 12.5011 9.09996 12.5183C9.11138 12.5183 9.12281 12.5354 9.12853 12.5468C9.16281 12.6154 9.26567 12.6211 9.2771 12.7125C9.2771 12.7125 9.28853 12.724 9.29996 12.724C9.37996 12.724 9.44281 12.7868 9.5171 12.7925C9.5571 12.7925 9.58567 12.8268 9.61424 12.8611C9.65424 12.9183 9.69996 12.9697 9.76853 13.004C9.93424 13.0897 10.0942 13.1811 10.2314 13.3125C10.2314 13.1868 10.2828 13.0668 10.2828 12.9468C10.2828 12.9354 10.2942 12.924 10.2942 12.9183C10.3171 12.6668 10.3342 12.4211 10.3 12.1697C10.3 12.1297 10.2828 12.084 10.3114 12.044C10.3685 12.0097 10.3857 11.9525 10.3914 11.8897C10.3914 11.8897 10.3914 11.8897 10.3914 11.884C10.5114 11.6611 10.6314 11.444 10.7514 11.2211C10.8657 11.0097 10.9914 10.804 11.0885 10.5868C11.2085 10.3811 11.3228 10.1811 11.4257 9.96397C11.5685 9.72969 11.6942 9.48397 11.82 9.23826C11.9228 9.04397 12.0314 8.84969 12.1342 8.6554C12.1628 8.60397 12.2028 8.55826 12.2085 8.50112C12.2885 8.36397 12.3685 8.22112 12.4485 8.08397C12.4485 8.07826 12.4485 8.07254 12.4485 8.06683C12.4542 8.0554 12.46 8.04397 12.4657 8.03826C12.4942 8.00397 12.5171 7.96397 12.5285 7.91826C12.6257 7.7354 12.74 7.55254 12.8314 7.36397C12.94 7.15826 13.0542 6.95254 13.1628 6.74683C13.2028 6.7354 13.2142 6.70112 13.2257 6.67254C13.4142 6.34112 13.5857 6.00397 13.7685 5.67255C13.7914 5.63255 13.82 5.59255 13.82 5.54112C13.9 5.3754 13.9857 5.2154 14.0771 5.0554C14.0542 4.99826 14.0085 5.0154 13.9685 5.0154L13.9571 4.98112ZM12.74 5.06112C12.74 5.06112 12.7514 5.04969 12.7628 5.04969C12.7628 5.04969 12.7685 5.04969 12.7742 5.04969C12.7628 5.04969 12.7514 5.04969 12.7457 5.0554L12.74 5.06112Z" fill="url(#paint1_linear_1871_14217)"/>
<defs>
<radialGradient id="paint0_radial_1871_14217" cx="0" cy="0" r="1" gradientUnits="userSpaceOnUse" gradientTransform="translate(2.17433e-07 8.73048) rotate(13.811) scale(19.3986)">
<stop stop-color="#F2420A"/>
<stop offset="0.479167" stop-color="#FFEA28"/>
<stop offset="1" stop-color="#ED5805"/>
</radialGradient>
<linearGradient id="paint1_linear_1871_14217" x1="6.45996" y1="10.9183" x2="13.26" y2="4.87826" gradientUnits="userSpaceOnUse">
<stop offset="0.02" stop-color="#C32126"/>
<stop offset="0.47" stop-color="#CF272B"/>
<stop offset="1" stop-color="#FBD2D3"/>
</linearGradient>
</defs>
</svg>
