<svg width="50" height="50" viewBox="0 0 50 50" fill="none" xmlns="http://www.w3.org/2000/svg">
<g id="gift-box 1" clip-path="url(#clip0_1033_5803)">
<g id="Group">
<path id="Vector" d="M42.2591 50.0007H31.1719C30.3629 50.0007 29.707 49.3448 29.707 48.5358V23.4316C29.707 22.6227 30.3629 21.9668 31.1719 21.9668H45.3971C45.8173 21.9668 46.2171 22.1473 46.4952 22.4622C46.7733 22.7772 46.9027 23.1965 46.8506 23.6134L43.7126 48.7175C43.6211 49.4506 42.9979 50.0007 42.2591 50.0007Z" fill="#C1126B"/>
<path id="Vector_2" d="M18.8281 50.0008H7.7409C7.00223 50.0008 6.37899 49.4507 6.28738 48.7176L3.1494 23.6134C3.09725 23.1965 3.22664 22.7772 3.50477 22.4622C3.78289 22.1473 4.1827 21.9668 4.60291 21.9668H18.8281C19.6371 21.9668 20.2929 22.6227 20.2929 23.4316V48.5359C20.2929 49.3449 19.6371 50.0008 18.8281 50.0008Z" fill="#E20059"/>
<path id="Vector_3" d="M31.1719 50.0007H18.8281V24.8965C18.8281 24.0875 19.484 23.4316 20.293 23.4316H29.707C30.516 23.4316 31.1719 24.0875 31.1719 24.8965V50.0007Z" fill="#FFB543"/>
<path id="Vector_4" d="M29.707 23.4316H25V50.0007H31.1719V24.8965C31.1719 24.0875 30.516 23.4316 29.707 23.4316Z" fill="#FF9743"/>
<g id="Group_2">
<path id="Vector_5" d="M28.138 15.4818C27.329 15.4818 26.6731 14.826 26.6731 14.017C26.6731 13.208 27.329 12.5521 28.138 12.5521C34.4515 12.5521 37.7443 9.01367 37.7443 5.93975C37.7443 4.05498 36.4994 2.92969 34.4139 2.92969C30.6175 2.92969 27.513 10.0454 26.4208 14.3729C26.2572 15.0243 25.6715 15.4813 25 15.4814C24.9997 15.4814 24.9995 15.4814 24.9992 15.4814C24.3273 15.4812 23.7417 15.024 23.5788 14.3723C22.9411 11.8412 19.9287 2.92969 15.5859 2.92969C13.5006 2.92969 12.2556 4.05488 12.2556 5.93975C12.2556 9.01006 15.5393 12.5521 21.8619 12.5521C22.6709 12.5521 23.3267 13.208 23.3267 14.017C23.3267 14.826 22.6709 15.4818 21.8619 15.4818C12.9718 15.4818 9.32587 9.83809 9.32587 5.93975C9.32596 2.91777 11.4009 0 15.5859 0C18.5376 0 22.0563 2.11543 25 9.40996C27.9461 2.10967 31.4665 0 34.414 0C38.5929 0 40.6741 2.90967 40.6741 5.93975C40.674 9.81826 37.0375 15.4818 28.138 15.4818Z" fill="#FFB543"/>
</g>
<g id="Group_3">
<path id="Vector_6" d="M25 9.40996C27.9461 2.10967 31.4665 0 34.4141 0C38.5929 0 40.6741 2.90967 40.6741 5.93975C40.6741 9.81826 37.0376 15.4818 28.1381 15.4818C27.3291 15.4818 26.6733 14.826 26.6733 14.017C26.6733 13.208 27.3291 12.5521 28.1381 12.5521C34.4517 12.5521 37.7444 9.01367 37.7444 5.93975C37.7444 4.05498 36.4995 2.92969 34.4141 2.92969C30.6176 2.92969 27.5131 10.0454 26.4209 14.3729C26.2573 15.0243 25.6716 15.4813 25.0001 15.4814C24.9998 15.4814 24.9996 15.4814 24.9993 15.4814L25 9.40996Z" fill="#FF9743"/>
</g>
<path id="Vector_7" d="M18.8281 24.8966H2.64161C1.90294 24.8966 1.27969 24.3465 1.18809 23.6134L0.0113339 14.1993C-0.0408145 13.7824 0.08858 13.3632 0.366705 13.0481C0.64483 12.7332 1.04463 12.5527 1.46485 12.5527H18.8281C19.6371 12.5527 20.293 13.2086 20.293 14.0176V23.4316C20.293 24.2407 19.6371 24.8966 18.8281 24.8966Z" fill="#FF405C"/>
<path id="Vector_8" d="M47.3584 24.8965H31.1719C30.3629 24.8965 29.707 24.2406 29.707 23.4316V14.0176C29.707 13.2086 30.3629 12.5527 31.1719 12.5527H48.5352C48.9554 12.5527 49.3552 12.7332 49.6333 13.0481C49.9114 13.3632 50.0408 13.7824 49.9887 14.1993L48.8119 23.6134C48.7204 24.3464 48.0972 24.8965 47.3584 24.8965Z" fill="#E20059"/>
<path id="Vector_9" d="M18.8281 12.5527H31.1719V24.8965H18.8281V12.5527Z" fill="#FFDB5C"/>
<path id="Vector_10" d="M25 12.5527H31.1719V24.8965H25V12.5527Z" fill="#FFB543"/>
</g>
</g>
<defs>
<clipPath id="clip0_1033_5803">
<rect width="50" height="50" fill="white"/>
</clipPath>
</defs>
</svg>
