<svg width="20" height="20" viewBox="0 0 20 20" fill="none" xmlns="http://www.w3.org/2000/svg">
<g clip-path="url(#clip0_969_25983)">
<rect width="20" height="20" rx="10" fill="url(#paint0_radial_969_25983)"/>
<g filter="url(#filter0_d_969_25983)">
<path d="M12.2117 8.66774C12.5856 8.17421 12.8 7.56353 12.8 6.92033C12.8 5.32512 11.5022 4.02734 9.90702 4.02734C8.02838 4.02734 6.5 5.55572 6.5 7.43436L6.5 15.1573C6.5 15.6084 6.86563 15.974 7.31667 15.974C7.7677 15.974 8.13333 15.6084 8.13333 15.1573V13.4682C8.65031 13.7847 9.25772 13.9673 9.90702 13.9673H10.6067C12.2021 13.9673 13.5 12.6694 13.5 11.074C13.5 10.0719 12.9879 9.18721 12.2117 8.66774ZM10.6067 12.334H9.90702C8.929 12.334 8.13333 11.5383 8.13333 10.5603V7.43436C8.13333 6.45634 8.929 5.66068 9.90702 5.66068C10.6016 5.66068 11.1667 6.22576 11.1667 6.92033C11.1667 7.41567 10.8747 7.86677 10.4227 8.06959L10.0156 8.25226C9.66426 8.40995 9.4708 8.79168 9.55142 9.16831C9.63203 9.54493 9.96486 9.81401 10.35 9.81401H10.6067C11.3014 9.81401 11.8667 10.3793 11.8667 11.074C11.8667 11.7688 11.3014 12.334 10.6067 12.334Z" fill="white"/>
</g>
</g>
<defs>
<filter id="filter0_d_969_25983" x="2.5" y="2.02734" width="15" height="19.9473" filterUnits="userSpaceOnUse" color-interpolation-filters="sRGB">
<feFlood flood-opacity="0" result="BackgroundImageFix"/>
<feColorMatrix in="SourceAlpha" type="matrix" values="0 0 0 0 0 0 0 0 0 0 0 0 0 0 0 0 0 0 127 0" result="hardAlpha"/>
<feOffset dy="2"/>
<feGaussianBlur stdDeviation="2"/>
<feComposite in2="hardAlpha" operator="out"/>
<feColorMatrix type="matrix" values="0 0 0 0 0.0342882 0 0 0 0 0.0991615 0 0 0 0 0.329167 0 0 0 0.25 0"/>
<feBlend mode="normal" in2="BackgroundImageFix" result="effect1_dropShadow_969_25983"/>
<feBlend mode="normal" in="SourceGraphic" in2="effect1_dropShadow_969_25983" result="shape"/>
</filter>
<radialGradient id="paint0_radial_969_25983" cx="0" cy="0" r="1" gradientUnits="userSpaceOnUse" gradientTransform="translate(-2.26749e-08 8.73048) rotate(48.4158) scale(15.0666)">
<stop stop-color="#27D168"/>
<stop offset="0.677083" stop-color="#139E3E"/>
<stop offset="1" stop-color="#0D9132"/>
</radialGradient>
<clipPath id="clip0_969_25983">
<rect width="20" height="20" rx="10" fill="white"/>
</clipPath>
</defs>
</svg>
