<svg width="18" height="14" viewBox="0 0 18 14" fill="none" xmlns="http://www.w3.org/2000/svg">
<g clip-path="url(#clip0_883_159)">
<path d="M14.4688 13.9355H3.53125C3.20766 13.9355 2.94531 13.6732 2.94531 13.3496V10.6152H15.0547V13.3496C15.0547 13.6732 14.7923 13.9355 14.4688 13.9355Z" fill="#FFDD54"/>
<path d="M9 10.6152V13.9355H14.4688C14.7923 13.9355 15.0547 13.6732 15.0547 13.3496V10.6152H9Z" fill="#FF936B"/>
<path d="M1.63678 4.85039L2.94533 11.0051H15.0547L16.3633 4.85039L14.7574 3.86844L11.8996 6.20668L10.0969 3.05078H7.90319L6.10045 6.20668L3.24268 3.86844L1.63678 4.85039Z" fill="#FFF47D"/>
<path d="M16.3632 4.85039L14.7573 3.86844L11.8996 6.20668L10.0968 3.05078H9V11.0051H15.0547L16.3632 4.85039Z" fill="#FFDD54"/>
<path d="M9 3.70117C8.13844 3.70117 7.4375 3.00023 7.4375 2.13867C7.4375 1.27711 8.13844 0.576172 9 0.576172C9.86156 0.576172 10.5625 1.27711 10.5625 2.13867C10.5625 3.00023 9.86156 3.70117 9 3.70117Z" fill="#FFDD54"/>
<path d="M9 0.576172V3.70117C9.86156 3.70117 10.5625 3.00023 10.5625 2.13867C10.5625 1.27711 9.86156 0.576172 9 0.576172Z" fill="#FF936B"/>
<path d="M1.96875 5.14648C1.10719 5.14648 0.40625 4.44555 0.40625 3.58398C0.40625 2.72242 1.10719 2.02148 1.96875 2.02148C2.83031 2.02148 3.53125 2.72242 3.53125 3.58398C3.53125 4.44555 2.83031 5.14648 1.96875 5.14648Z" fill="#FFDD54"/>
<path d="M16.0312 5.14648C15.1697 5.14648 14.4688 4.44555 14.4688 3.58398C14.4688 2.72242 15.1697 2.02148 16.0312 2.02148C16.8928 2.02148 17.5938 2.72242 17.5938 3.58398C17.5938 4.44555 16.8928 5.14648 16.0312 5.14648Z" fill="#FF936B"/>
</g>
<defs>
<clipPath id="clip0_883_159">
<rect width="18" height="14" fill="white"/>
</clipPath>
</defs>
</svg>
