<svg width="21" height="20" viewBox="0 0 21 20" fill="none" xmlns="http://www.w3.org/2000/svg">
<g id="next-2 1">
<path id="Vector" d="M19.4227 9.41101L13.5893 3.57768C13.4322 3.42588 13.2217 3.34188 13.0032 3.34378C12.7847 3.34568 12.5757 3.43332 12.4211 3.58783C12.2666 3.74233 12.179 3.95134 12.1771 4.16984C12.1752 4.38834 12.2592 4.59884 12.411 4.75601L16.8218 9.16684H2.16683C1.94582 9.16684 1.73385 9.25464 1.57757 9.41092C1.42129 9.5672 1.3335 9.77916 1.3335 10.0002C1.3335 10.2212 1.42129 10.4332 1.57757 10.5894C1.73385 10.7457 1.94582 10.8335 2.16683 10.8335H16.8218L12.411 15.2443C12.3314 15.3212 12.2679 15.4132 12.2242 15.5148C12.1806 15.6165 12.1576 15.7259 12.1566 15.8365C12.1557 15.9472 12.1767 16.0569 12.2186 16.1593C12.2605 16.2617 12.3224 16.3548 12.4007 16.433C12.4789 16.5113 12.572 16.5731 12.6744 16.615C12.7768 16.6569 12.8865 16.678 12.9972 16.6771C13.1078 16.6761 13.2172 16.6531 13.3188 16.6094C13.4205 16.5658 13.5125 16.5023 13.5893 16.4227L19.4227 10.5893C19.5789 10.4331 19.6667 10.2211 19.6667 10.0002C19.6667 9.77921 19.5789 9.56728 19.4227 9.41101Z" fill="white"/>
</g>
</svg>
