<svg width="20" height="20" viewBox="0 0 20 20" fill="none" xmlns="http://www.w3.org/2000/svg">
<g id="money-4 1">
<g id="Group">
<path id="Vector" d="M19.6094 3.53516H0.390625C0.21875 3.53516 0.078125 3.67578 0.078125 3.84766V16.1539C0.078125 16.3258 0.21875 16.4664 0.390625 16.4664H19.6094C19.7812 16.4664 19.9219 16.3258 19.9219 16.1539V3.84766C19.9219 3.67422 19.7812 3.53516 19.6094 3.53516ZM19.2969 15.8414H0.703125V4.16016H19.2969V15.8414Z" fill="#41BCD7"/>
<path id="Vector_2" d="M1.95312 13.0891C2.64219 13.0891 3.20312 13.65 3.20312 14.3391C3.20312 14.5109 3.34375 14.6516 3.51562 14.6516H16.4844C16.6562 14.6516 16.7969 14.5109 16.7969 14.3391C16.7969 13.65 17.3578 13.0891 18.0469 13.0891C18.2188 13.0891 18.3594 12.9484 18.3594 12.7766V7.22656C18.3594 7.05469 18.2188 6.91406 18.0469 6.91406C17.3578 6.91406 16.7969 6.35312 16.7969 5.66406C16.7969 5.49219 16.6562 5.35156 16.4844 5.35156H3.51562C3.34375 5.35156 3.20312 5.49219 3.20312 5.66406C3.20312 6.35312 2.64219 6.91406 1.95312 6.91406C1.78125 6.91406 1.64062 7.05469 1.64062 7.22656V12.775C1.64062 12.9484 1.78125 13.0891 1.95312 13.0891ZM2.26562 7.51406C3.05 7.38125 3.67031 6.76094 3.80156 5.97812H16.1969C16.3281 6.7625 16.95 7.38281 17.7328 7.51406V12.4891C16.9484 12.6219 16.3281 13.2422 16.1969 14.025H3.80156C3.66875 13.2406 3.04844 12.6203 2.26562 12.4891V7.51406Z" fill="#41BCD7"/>
<path id="Vector_3" d="M9.99998 12.9094C11.6031 12.9094 12.9078 11.6047 12.9078 10.0016C12.9078 8.39844 11.6031 7.09375 9.99998 7.09375C8.39685 7.09375 7.09216 8.39844 7.09216 10.0016C7.09216 11.6047 8.39685 12.9094 9.99998 12.9094ZM9.99998 7.71875C11.2578 7.71875 12.2828 8.74219 12.2828 10.0016C12.2828 11.2609 11.2578 12.2844 9.99998 12.2844C8.74216 12.2844 7.71716 11.2609 7.71716 10.0016C7.71716 8.74219 8.74216 7.71875 9.99998 7.71875Z" fill="#41BCD7"/>
<path id="Vector_4" d="M4.82341 11.2789C5.5281 11.2789 6.10154 10.7055 6.10154 10.0008C6.10154 9.29609 5.5281 8.72266 4.82341 8.72266C4.11873 8.72266 3.54529 9.29609 3.54529 10.0008C3.54529 10.7055 4.11873 11.2789 4.82341 11.2789ZM4.82341 9.34766C5.18279 9.34766 5.47654 9.63984 5.47654 10.0008C5.47654 10.3617 5.18435 10.6539 4.82341 10.6539C4.46404 10.6539 4.17029 10.3617 4.17029 10.0008C4.17029 9.63984 4.46404 9.34766 4.82341 9.34766Z" fill="#41BCD7"/>
<path id="Vector_5" d="M15.1766 11.2789C15.8813 11.2789 16.4531 10.7055 16.4531 10.0008C16.4531 9.29609 15.8797 8.72266 15.1766 8.72266C14.4734 8.72266 13.8984 9.29609 13.8984 10.0008C13.8984 10.7055 14.4719 11.2789 15.1766 11.2789ZM15.1766 9.34766C15.5359 9.34766 15.8281 9.63984 15.8281 10.0008C15.8281 10.3617 15.5359 10.6539 15.1766 10.6539C14.8172 10.6539 14.5234 10.3617 14.5234 10.0008C14.5234 9.63984 14.8172 9.34766 15.1766 9.34766Z" fill="#41BCD7"/>
</g>
</g>
</svg>
