<svg width="30" height="24" viewBox="0 0 30 24" fill="none" xmlns="http://www.w3.org/2000/svg">
<g id="Sound OFF" clip-path="url(#clip0_2087_65)">
<g id="Group">
<path id="Vector" fill-rule="evenodd" clip-rule="evenodd" d="M14.9508 0.229065C15.586 0.492191 16.0002 1.11208 16.0002 1.79966V22.1996C16.0002 22.8873 15.586 23.5071 14.9508 23.7702C14.3155 24.0334 13.5843 23.8879 13.0981 23.4017L6.79604 17.0996H2.4002C1.46132 17.0996 0.700195 16.3385 0.700195 15.3996V8.59966C0.700195 7.66077 1.46132 6.89966 2.4002 6.89966H6.79604L13.0981 0.597574C13.5843 0.111374 14.3155 -0.034061 14.9508 0.229065Z" fill="white"/>
<path id="Vector_2" fill-rule="evenodd" clip-rule="evenodd" d="M19.8983 7.3983C20.5621 6.73442 21.6386 6.73442 22.3024 7.3983L24.5003 9.59623L26.6983 7.3983C27.3621 6.73442 28.4386 6.73442 29.1024 7.3983C29.7663 8.0622 29.7663 9.13858 29.1024 9.80248L26.9045 12.0004L29.1024 14.1983C29.7663 14.8622 29.7663 15.9386 29.1024 16.6025C28.4386 17.2663 27.3621 17.2663 26.6983 16.6025L24.5003 14.4045L22.3024 16.6025C21.6386 17.2663 20.5621 17.2663 19.8983 16.6025C19.2344 15.9386 19.2344 14.8622 19.8983 14.1983L22.0962 12.0004L19.8983 9.80248C19.2344 9.13858 19.2344 8.0622 19.8983 7.3983Z" fill="white"/>
</g>
</g>
<defs>
<clipPath id="clip0_2087_65">
<rect width="30" height="24" fill="white"/>
</clipPath>
</defs>
</svg>
