<svg width="26" height="26" viewBox="0 0 26 26" fill="none" xmlns="http://www.w3.org/2000/svg">
<g id="notification-bell 1">
<path id="Vector" fill-rule="evenodd" clip-rule="evenodd" d="M19.8505 10.6421C19.3938 10.7672 18.913 10.834 18.4166 10.834C15.4251 10.834 13 8.40886 13 5.41732C13 5.04661 13.0372 4.68462 13.1082 4.33484C13.0721 4.33428 13.0361 4.33398 13 4.33398C9.50184 4.33398 6.55828 7.03242 6.15292 10.6109L5.7793 13.909C5.68646 14.7286 5.35431 15.4998 4.82676 16.1207C3.70724 17.4384 4.61586 19.5007 6.31596 19.5007H19.684C21.3841 19.5007 22.2927 17.4384 21.1732 16.1207C20.6456 15.4998 20.3135 14.7286 20.2206 13.909L19.8505 10.6421ZM16.2198 21.7448C15.7242 22.9665 14.4695 23.834 13 23.834C11.5304 23.834 10.2757 22.9665 9.78019 21.7448C9.75955 21.6939 9.74998 21.6392 9.74998 21.5842C9.74998 21.3309 9.95528 21.1257 10.2085 21.1257H15.7914C16.0447 21.1257 16.25 21.3309 16.25 21.5842C16.25 21.6392 16.2404 21.6939 16.2198 21.7448Z" fill="#47BC7B"/>
<circle id="Ellipse 30" cx="17.7469" cy="5.79102" r="3" fill="#DA2E35"/>
</g>
</svg>
