<svg width="31" height="31" viewBox="0 0 31 31" fill="none" xmlns="http://www.w3.org/2000/svg">
<g id="qr-code-scan 1" clip-path="url(#clip0_963_18620)">
<g id="Group 13">
<path id="Vector" d="M21.0713 0.5H9.92883C9.20806 0.500729 8.51701 0.787354 8.00732 1.29698C7.49762 1.80661 7.21091 2.49763 7.21008 3.2184V27.7816C7.21091 28.5024 7.49762 29.1934 8.00732 29.703C8.51701 30.2126 9.20806 30.4993 9.92883 30.5H21.0713C21.792 30.4992 22.4829 30.2125 22.9926 29.7029C23.5022 29.1933 23.7889 28.5023 23.7897 27.7816V3.2184C23.7889 2.49768 23.5022 1.80671 22.9926 1.29709C22.4829 0.787465 21.792 0.500806 21.0713 0.5ZM22.8503 27.7816C22.8498 28.2533 22.6621 28.7055 22.3286 29.039C21.9951 29.3725 21.5429 29.5601 21.0713 29.5607H9.92883C9.45717 29.5601 9.00498 29.3725 8.67147 29.039C8.33795 28.7055 8.15032 28.2533 8.14975 27.7816V3.2184C8.15032 2.74673 8.33795 2.29455 8.67147 1.96103C9.00498 1.62751 9.45717 1.43989 9.92883 1.43932H21.0713C21.5429 1.43989 21.9951 1.62751 22.3286 1.96103C22.6621 2.29455 22.8498 2.74673 22.8503 3.2184V27.7816Z" fill="#54D6FF"/>
<path id="Vector_2" d="M16.2011 27.5859H14.7989C14.6753 27.5873 14.5571 27.6374 14.4702 27.7253C14.3832 27.8133 14.3345 27.9319 14.3345 28.0556C14.3345 28.1793 14.3832 28.2979 14.4702 28.3859C14.5571 28.4738 14.6753 28.5239 14.7989 28.5253H16.2011C16.3247 28.5239 16.4428 28.4738 16.5298 28.3859C16.6167 28.2979 16.6655 28.1793 16.6655 28.0556C16.6655 27.9319 16.6167 27.8133 16.5298 27.7253C16.4428 27.6374 16.3247 27.5873 16.2011 27.5859Z" fill="#54D6FF"/>
<path id="Vector_3" d="M12.6124 3.66783H18.3875C18.5112 3.66645 18.6293 3.61636 18.7162 3.52843C18.8032 3.44051 18.8519 3.32183 18.8519 3.19817C18.8519 3.07451 18.8032 2.95584 18.7162 2.86791C18.6293 2.77999 18.5112 2.7299 18.3875 2.72852H12.6124C12.4887 2.7299 12.3706 2.77999 12.2837 2.86791C12.1967 2.95584 12.1479 3.07451 12.1479 3.19817C12.1479 3.32183 12.1967 3.44051 12.2837 3.52843C12.3706 3.61636 12.4887 3.66645 12.6124 3.66783Z" fill="#54D6FF"/>
<path id="Vector_4" d="M15.0962 12.5809C15.096 12.4238 15.0335 12.2732 14.9224 12.1621C14.8113 12.051 14.6607 11.9885 14.5036 11.9883H12.5205C12.3634 11.9885 12.2127 12.0509 12.1016 12.162C11.9905 12.2731 11.928 12.4238 11.9279 12.5809V14.5641C11.928 14.7212 11.9905 14.8718 12.1016 14.9829C12.2127 15.094 12.3634 15.1565 12.5205 15.1566H14.5036C14.6607 15.1564 14.8113 15.0939 14.9224 14.9829C15.0335 14.8718 15.096 14.7212 15.0962 14.5641V12.5809ZM14.1568 14.217H12.8672V12.9279H14.1568V14.217Z" fill="#54D6FF"/>
<path id="Vector_5" d="M19.0721 12.5809C19.072 12.4238 19.0095 12.2731 18.8984 12.162C18.7873 12.0509 18.6367 11.9885 18.4795 11.9883H16.4964C16.3393 11.9885 16.1887 12.051 16.0776 12.1621C15.9665 12.2732 15.904 12.4238 15.9038 12.5809V14.5641C15.904 14.7212 15.9665 14.8718 16.0776 14.9829C16.1887 15.0939 16.3393 15.1564 16.4964 15.1566H18.4795C18.6366 15.1565 18.7873 15.094 18.8984 14.9829C19.0095 14.8718 19.072 14.7212 19.0721 14.5641V12.5809ZM18.1328 14.217H16.8432V12.9279H18.1328V14.217Z" fill="#54D6FF"/>
<path id="Vector_6" d="M17.3976 18.0724H16.8432V17.8603C16.8432 17.7357 16.7937 17.6163 16.7056 17.5282C16.6175 17.4401 16.4981 17.3906 16.3735 17.3906C16.2489 17.3906 16.1295 17.4401 16.0414 17.5282C15.9533 17.6163 15.9038 17.7357 15.9038 17.8603V18.3873C15.904 18.5529 15.9698 18.7116 16.0869 18.8287C16.204 18.9458 16.3627 19.0116 16.5283 19.0118H17.3976C17.5222 19.0118 17.6416 18.9623 17.7297 18.8742C17.8178 18.7861 17.8673 18.6667 17.8673 18.5421C17.8673 18.4175 17.8178 18.2981 17.7297 18.21C17.6416 18.1219 17.5222 18.0724 17.3976 18.0724Z" fill="#54D6FF"/>
<path id="Vector_7" d="M14.5036 15.8438H12.5205C12.3634 15.8439 12.2127 15.9064 12.1016 16.0175C11.9905 16.1286 11.928 16.2792 11.9279 16.4364V18.4195C11.928 18.5766 11.9905 18.7273 12.1016 18.8383C12.2127 18.9494 12.3634 19.0119 12.5205 19.0121H14.5036C14.6607 19.0119 14.8113 18.9494 14.9224 18.8383C15.0335 18.7272 15.096 18.5766 15.0962 18.4195V16.4364C15.096 16.2793 15.0335 16.1286 14.9224 16.0175C14.8113 15.9064 14.6607 15.8439 14.5036 15.8438ZM14.1568 18.0724H12.8672V16.7834H14.1568V18.0724Z" fill="#54D6FF"/>
<path id="Vector_8" d="M18.6025 17.8976C18.7271 17.8976 18.8466 17.8481 18.9346 17.76C19.0227 17.672 19.0722 17.5525 19.0722 17.4279V16.4683C19.072 16.3027 19.0062 16.144 18.8891 16.0269C18.772 15.9098 18.6133 15.844 18.4477 15.8438H16.3735C16.3114 15.8431 16.2497 15.8547 16.1921 15.878C16.1346 15.9013 16.0822 15.9358 16.038 15.9795C15.9938 16.0231 15.9587 16.0752 15.9348 16.1325C15.9109 16.1898 15.8986 16.2513 15.8986 16.3134C15.8986 16.3756 15.9109 16.4371 15.9348 16.4944C15.9587 16.5517 15.9938 16.6037 16.038 16.6474C16.0822 16.6911 16.1346 16.7256 16.1921 16.7489C16.2497 16.7722 16.3114 16.7838 16.3735 16.7831H18.1328V17.4276C18.1327 17.4893 18.1449 17.5504 18.1685 17.6075C18.1921 17.6645 18.2266 17.7163 18.2703 17.7599C18.3139 17.8036 18.3657 17.8382 18.4227 17.8618C18.4797 17.8854 18.5408 17.8976 18.6025 17.8976Z" fill="#54D6FF"/>
<path id="Vector_9" d="M12.3975 19.9096H11.09V18.542C11.09 18.4174 11.0405 18.2979 10.9524 18.2098C10.8644 18.1218 10.7449 18.0723 10.6203 18.0723C10.4958 18.0723 10.3763 18.1218 10.2882 18.2098C10.2001 18.2979 10.1506 18.4174 10.1506 18.542V20.2245C10.1507 20.3902 10.2166 20.549 10.3336 20.6661C10.4507 20.7832 10.6095 20.8491 10.7751 20.8493H12.3975C12.522 20.8493 12.6415 20.7998 12.7296 20.7117C12.8177 20.6237 12.8672 20.5042 12.8672 20.3796C12.8672 20.2551 12.8177 20.1356 12.7296 20.0475C12.6415 19.9594 12.522 19.9099 12.3975 19.9099V19.9096Z" fill="#54D6FF"/>
<path id="Vector_10" d="M20.3796 18.0723C20.2551 18.0723 20.1356 18.1218 20.0475 18.2098C19.9594 18.2979 19.91 18.4174 19.91 18.542V19.9096H18.6025C18.4779 19.9096 18.3585 19.9591 18.2704 20.0472C18.1823 20.1353 18.1328 20.2548 18.1328 20.3793C18.1328 20.5039 18.1823 20.6234 18.2704 20.7115C18.3585 20.7995 18.4779 20.849 18.6025 20.849H20.2248C20.3904 20.8489 20.5492 20.7831 20.6663 20.6661C20.7834 20.5491 20.8494 20.3904 20.8496 20.2248V18.5422C20.8497 18.4805 20.8375 18.4194 20.8139 18.3624C20.7903 18.3053 20.7557 18.2535 20.712 18.2099C20.6684 18.1662 20.6166 18.1316 20.5595 18.108C20.5025 18.0844 20.4414 18.0722 20.3796 18.0723Z" fill="#54D6FF"/>
<path id="Vector_11" d="M20.2248 10.1504H18.6025C18.5404 10.1497 18.4787 10.1614 18.4212 10.1847C18.3636 10.2079 18.3112 10.2424 18.267 10.2861C18.2228 10.3298 18.1878 10.3818 18.1638 10.4391C18.1399 10.4965 18.1276 10.558 18.1276 10.6201C18.1276 10.6822 18.1399 10.7437 18.1638 10.801C18.1878 10.8584 18.2228 10.9104 18.267 10.954C18.3112 10.9977 18.3636 11.0322 18.4212 11.0555C18.4787 11.0788 18.5404 11.0904 18.6025 11.0897H19.91V12.4575C19.91 12.5821 19.9594 12.7015 20.0475 12.7896C20.1356 12.8777 20.2551 12.9272 20.3796 12.9272C20.5042 12.9272 20.6237 12.8777 20.7118 12.7896C20.7998 12.7015 20.8493 12.5821 20.8493 12.4575V10.7749C20.8491 10.6093 20.7833 10.4506 20.6662 10.3335C20.5491 10.2165 20.3904 10.1506 20.2248 10.1504Z" fill="#54D6FF"/>
<path id="Vector_12" d="M10.6203 12.9275C10.7449 12.9275 10.8644 12.878 10.9524 12.7899C11.0405 12.7018 11.09 12.5824 11.09 12.4578V11.0897H12.3975C12.4596 11.0904 12.5212 11.0788 12.5788 11.0555C12.6364 11.0322 12.6888 10.9977 12.733 10.954C12.7771 10.9104 12.8122 10.8584 12.8361 10.801C12.8601 10.7437 12.8724 10.6822 12.8724 10.6201C12.8724 10.558 12.8601 10.4965 12.8361 10.4391C12.8122 10.3818 12.7771 10.3298 12.733 10.2861C12.6888 10.2424 12.6364 10.2079 12.5788 10.1847C12.5212 10.1614 12.4596 10.1497 12.3975 10.1504H10.7751C10.6096 10.1506 10.4508 10.2165 10.3338 10.3335C10.2167 10.4506 10.1508 10.6093 10.1506 10.7749V12.4575C10.1506 12.5192 10.1627 12.5803 10.1863 12.6373C10.2099 12.6943 10.2445 12.7461 10.2881 12.7898C10.3317 12.8334 10.3835 12.868 10.4405 12.8917C10.4975 12.9153 10.5586 12.9275 10.6203 12.9275Z" fill="#54D6FF"/>
</g>
</g>
<defs>
<clipPath id="clip0_963_18620">
<rect width="30" height="30" fill="white" transform="translate(0.5 0.5)"/>
</clipPath>
</defs>
</svg>
