<svg width="21" height="21" viewBox="0 0 21 21" fill="none" xmlns="http://www.w3.org/2000/svg">
<g id="turn 1" clip-path="url(#clip0_663_1257)">
<path id="Vector" d="M10.5 20.5C16.0228 20.5 20.5 16.0228 20.5 10.5C20.5 4.97715 16.0228 0.5 10.5 0.5C4.97715 0.5 0.5 4.97715 0.5 10.5C0.5 16.0228 4.97715 20.5 10.5 20.5Z" fill="#0CB0FF"/>
<g id="Group">
<path id="Vector_2" fill-rule="evenodd" clip-rule="evenodd" d="M14.156 6.84437C14.7632 7.45063 15.21 8.19846 15.4562 9.02046C15.7023 9.84246 15.74 10.7128 15.5659 11.553C15.3918 12.3932 15.0114 13.1769 14.4589 13.8334C13.9064 14.4899 13.1993 14.9987 12.4012 15.3137C11.6031 15.6288 10.7391 15.7404 9.88714 15.6383C9.03517 15.5362 8.222 15.2238 7.5209 14.7291C6.81981 14.2344 6.25283 13.573 5.87107 12.8046C5.48931 12.0361 5.30476 11.1847 5.33407 10.3272L5.34555 9.98179L4.65544 9.95882L4.64395 10.3035C4.60087 11.6055 4.99309 12.8846 5.75858 13.9387C6.52407 14.9927 7.61912 15.7614 8.87053 16.1233C10.1219 16.4851 11.4583 16.4194 12.6682 15.9366C13.878 15.4537 14.8924 14.5813 15.5508 13.4572C16.2092 12.3332 16.474 11.0217 16.3034 9.73024C16.1328 8.43879 15.5365 7.24107 14.6089 6.32654C13.6812 5.412 12.4751 4.83286 11.1813 4.68072C9.88757 4.52857 8.58001 4.81211 7.46548 5.48648C7.43619 5.50547 7.40209 5.51569 7.36719 5.51595C7.33229 5.5162 7.29804 5.50647 7.26848 5.48791C7.23893 5.46935 7.21529 5.44272 7.20036 5.41117C7.18543 5.37962 7.17984 5.34446 7.18423 5.30984L7.24204 4.85398L6.5568 4.76714L6.29657 6.81999L8.10126 7.04409L8.18622 6.35992L8.02567 6.33999V6.33956C7.9874 6.33488 7.95158 6.31825 7.9233 6.29204C7.89502 6.26583 7.87573 6.23136 7.86817 6.19355C7.86061 6.15575 7.86516 6.11652 7.88118 6.08144C7.89719 6.04637 7.92386 6.01724 7.95739 5.9982C8.94126 5.44309 10.0798 5.22531 11.1991 5.3781C12.3184 5.5309 13.3569 6.04587 14.1559 6.84437H14.156Z" fill="white"/>
</g>
</g>
<defs>
<clipPath id="clip0_663_1257">
<rect width="20" height="20" fill="white" transform="translate(0.5 0.5)"/>
</clipPath>
</defs>
</svg>
