<svg width="32" height="32" viewBox="0 0 32 32" fill="none" xmlns="http://www.w3.org/2000/svg">
<g id="smartphone 1">
<g id="Group">
<path id="Vector" d="M23.25 1.3125H8.75C8.36889 1.31296 8.00353 1.46456 7.73405 1.73405C7.46456 2.00353 7.31296 2.36889 7.3125 2.75V29.25C7.31296 29.6311 7.46456 29.9965 7.73405 30.266C8.00353 30.5354 8.36889 30.687 8.75 30.6875H23.25C23.6311 30.687 23.9965 30.5354 24.266 30.266C24.5354 29.9965 24.687 29.6311 24.6875 29.25V2.75C24.687 2.36889 24.5354 2.00353 24.266 1.73405C23.9965 1.46456 23.6311 1.31296 23.25 1.3125ZM19.0165 2.1875L18.8542 3.8125H13.1458L12.9835 2.1875H19.0165ZM23.8125 29.25C23.8123 29.3991 23.753 29.5421 23.6475 29.6475C23.5421 29.753 23.3991 29.8123 23.25 29.8125H8.75C8.60088 29.8123 8.45792 29.753 8.35247 29.6475C8.24703 29.5421 8.1877 29.3991 8.1875 29.25V2.75C8.1877 2.60088 8.24703 2.45792 8.35247 2.35247C8.45792 2.24703 8.60088 2.1877 8.75 2.1875H12.104L12.3147 4.2935C12.3255 4.40145 12.376 4.50154 12.4565 4.57435C12.5369 4.64715 12.6415 4.68748 12.75 4.6875H19.25C19.3585 4.68748 19.4631 4.64715 19.5435 4.57435C19.624 4.50154 19.6745 4.40145 19.6852 4.2935L19.896 2.1875H23.25C23.3991 2.1877 23.5421 2.24703 23.6475 2.35247C23.753 2.45792 23.8123 2.60088 23.8125 2.75V29.25Z" fill="#576FAD"/>
<path id="Vector_2" d="M17.419 27.3125H14.581C14.465 27.3125 14.3537 27.3586 14.2716 27.4406C14.1896 27.5227 14.1435 27.634 14.1435 27.75C14.1435 27.866 14.1896 27.9773 14.2716 28.0594C14.3537 28.1414 14.465 28.1875 14.581 28.1875H17.419C17.535 28.1875 17.6463 28.1414 17.7284 28.0594C17.8104 27.9773 17.8565 27.866 17.8565 27.75C17.8565 27.634 17.8104 27.5227 17.7284 27.4406C17.6463 27.3586 17.535 27.3125 17.419 27.3125Z" fill="#576FAD"/>
</g>
</g>
</svg>
