<svg width="20" height="20" viewBox="0 0 20 20" fill="none" xmlns="http://www.w3.org/2000/svg">
<g id="wallet 2" clip-path="url(#clip0_983_281)">
<g id="Group">
<g id="Group_2">
<g id="Group_3">
<path id="Vector" d="M19.136 7.53471C18.8994 7.31632 18.59 7.17072 18.2443 7.17072C18.2625 7.17072 18.2807 7.17072 18.2989 7.17072V5.2962C18.2989 4.53183 17.9895 3.84026 17.4799 3.33068C16.9703 2.82111 16.2787 2.51172 15.5144 2.51172H3.28448C2.52011 2.51172 1.82854 2.82111 1.31897 3.33068C0.809387 3.84026 0.5 4.53183 0.5 5.2962V14.7052C0.5 15.4696 0.809387 16.1611 1.31897 16.6707C1.82854 17.1803 2.52011 17.4897 3.28448 17.4897H15.5144C16.2787 17.4897 16.9703 17.1803 17.4799 16.6707C17.9895 16.1611 18.2989 15.4696 18.2989 14.7052V12.8125C18.2807 12.8125 18.2625 12.8125 18.2443 12.8125C18.59 12.8125 18.8994 12.6669 19.136 12.4485C19.3544 12.2301 19.5 11.9025 19.5 11.5567V8.42647C19.5 8.08068 19.3544 7.7713 19.136 7.53471ZM17.2979 14.687C17.2979 15.1784 17.0977 15.6152 16.7701 15.9428C16.4425 16.2703 16.0057 16.4705 15.5144 16.4705H3.28448C2.7931 16.4705 2.35632 16.2703 2.02874 15.9428C1.70115 15.6152 1.50096 15.1784 1.50096 14.687V5.2962C1.50096 4.80482 1.70115 4.36804 2.02874 4.04045C2.35632 3.71287 2.7931 3.51268 3.28448 3.51268H15.5144C16.0057 3.51268 16.4425 3.71287 16.7701 4.04045C17.0977 4.36804 17.2979 4.80482 17.2979 5.2962V7.17072H11.6561C10.8918 7.17072 10.2184 7.48011 9.70881 7.97149C9.21743 8.46287 8.90805 9.15444 8.90805 9.91881V10.0462C8.90805 10.8106 9.21743 11.4839 9.70881 11.9935C10.2002 12.4849 10.8918 12.7943 11.6561 12.7943H17.2979V14.687ZM18.499 11.5567C18.499 11.6295 18.4626 11.7023 18.4262 11.7387C18.3716 11.7933 18.317 11.8115 18.2443 11.8115H11.6561C11.183 11.8115 10.728 11.6113 10.4186 11.3019C10.1092 10.9926 9.909 10.5376 9.909 10.0644V9.93701C9.909 9.44563 10.1092 9.00884 10.4186 8.69946C10.7462 8.37187 11.183 8.18988 11.6561 8.18988H18.2443C18.317 8.18988 18.3898 8.22628 18.4262 8.26268C18.4808 8.31727 18.499 8.37187 18.499 8.44467V11.5567Z" fill="#41BCD7"/>
<path id="Vector_2" d="M11.7836 9.17188C11.5652 9.17188 11.365 9.26287 11.2194 9.40846C11.0738 9.55406 10.9828 9.75425 10.9828 9.97264C10.9828 10.191 11.0738 10.3912 11.2194 10.5368C11.365 10.6824 11.5652 10.7734 11.7836 10.7734C12.0019 10.7734 12.2021 10.6824 12.3659 10.5368C12.5115 10.3912 12.6025 10.191 12.6025 9.95444C12.6025 9.73605 12.5115 9.53586 12.3659 9.37207C12.2021 9.26287 12.0019 9.17188 11.7836 9.17188Z" fill="#41BCD7"/>
</g>
</g>
</g>
</g>
<defs>
<clipPath id="clip0_983_281">
<rect width="19" height="19" fill="white" transform="translate(0.5 0.5)"/>
</clipPath>
</defs>
</svg>
