<svg width="22" height="22" viewBox="0 0 22 22" fill="none" xmlns="http://www.w3.org/2000/svg">
<g id="wallet-3 1">
<path id="Vector" fill-rule="evenodd" clip-rule="evenodd" d="M16.4999 2.75C18.5249 2.75 20.1666 4.39162 20.1666 6.41667V12.8333C20.1666 13.3396 19.7562 13.75 19.2499 13.75H16.4999C14.4749 13.75 12.8333 15.3917 12.8333 17.4167V18.3333C12.8333 18.8396 12.4229 19.25 11.9166 19.25H5.49992C3.47487 19.25 1.83325 17.6083 1.83325 15.5833V14.2083H5.49992C7.27184 14.2083 8.70825 12.7719 8.70825 11C8.70825 9.22808 7.27184 7.79167 5.49992 7.79167H1.83325V6.41667C1.83325 4.39162 3.47487 2.75 5.49992 2.75H16.4999ZM7.33325 11C7.33325 9.98745 6.51244 9.16667 5.49992 9.16667H1.83325V12.8333H5.49992C6.51244 12.8333 7.33325 12.0126 7.33325 11ZM18.2268 16.0694L18.8866 16.7292H15.5833C15.2036 16.7292 14.8958 17.037 14.8958 17.4167C14.8958 17.7964 15.2036 18.1042 15.5833 18.1042H18.8866L18.2268 18.7639C17.9583 19.0324 17.9583 19.4676 18.2268 19.7361C18.4953 20.0046 18.9306 20.0046 19.199 19.7361L20.3842 18.551C21.0107 17.9245 21.0107 16.9088 20.3842 16.2824L19.199 15.0972C18.9306 14.8287 18.4953 14.8287 18.2268 15.0972C17.9583 15.3657 17.9583 15.801 18.2268 16.0694Z" fill="#FF5057"/>
</g>
</svg>
