<svg width="22" height="22" viewBox="0 0 22 22" fill="none" xmlns="http://www.w3.org/2000/svg">
<g id="wallet-2 1">
<path id="Vector" fill-rule="evenodd" clip-rule="evenodd" d="M16.5 2.75C18.525 2.75 20.1667 4.39162 20.1667 6.41667V12.8333C20.1667 13.3396 19.7563 13.75 19.25 13.75H16.5C14.475 13.75 12.8333 15.3917 12.8333 17.4167V18.3333C12.8333 18.8396 12.4229 19.25 11.9167 19.25H5.5C3.47495 19.25 1.83333 17.6083 1.83333 15.5833V14.2083H5.5C7.27192 14.2083 8.70833 12.7719 8.70833 11C8.70833 9.22808 7.27192 7.79167 5.5 7.79167H1.83333V6.41667C1.83333 4.39162 3.47495 2.75 5.5 2.75H16.5ZM7.33333 11C7.33333 9.98745 6.51252 9.16667 5.5 9.16667H1.83333V12.8333H5.5C6.51252 12.8333 7.33333 12.0126 7.33333 11ZM17.5231 16.0694L16.8634 16.7292H20.1667C20.5464 16.7292 20.8542 17.037 20.8542 17.4167C20.8542 17.7964 20.5464 18.1042 20.1667 18.1042H16.8634L17.5231 18.7639C17.7916 19.0324 17.7916 19.4676 17.5231 19.7361C17.2546 20.0046 16.8194 20.0046 16.5509 19.7361L15.3657 18.551C14.7392 17.9245 14.7392 16.9088 15.3657 16.2824L16.5509 15.0972C16.8194 14.8287 17.2546 14.8287 17.5231 15.0972C17.7916 15.3657 17.7916 15.801 17.5231 16.0694Z" fill="#58CC8C"/>
</g>
</svg>
