<svg width="22" height="22" viewBox="0 0 22 22" fill="none" xmlns="http://www.w3.org/2000/svg">
<g id="wallet-2 1">
<path id="Vector" fill-rule="evenodd" clip-rule="evenodd" d="M16.4999 2.75C18.5249 2.75 20.1666 4.39162 20.1666 6.41667V12.8333C20.1666 13.3396 19.7562 13.75 19.2499 13.75H16.4999C14.4749 13.75 12.8333 15.3917 12.8333 17.4167V18.3333C12.8333 18.8396 12.4229 19.25 11.9166 19.25H5.49992C3.47487 19.25 1.83325 17.6083 1.83325 15.5833V14.2083H5.49992C7.27184 14.2083 8.70825 12.7719 8.70825 11C8.70825 9.22808 7.27184 7.79167 5.49992 7.79167H1.83325V6.41667C1.83325 4.39162 3.47487 2.75 5.49992 2.75H16.4999ZM7.33325 11C7.33325 9.98745 6.51244 9.16667 5.49992 9.16667H1.83325V12.8333H5.49992C6.51244 12.8333 7.33325 12.0126 7.33325 11ZM17.523 16.0694L16.8633 16.7292H20.1666C20.5463 16.7292 20.8541 17.037 20.8541 17.4167C20.8541 17.7964 20.5463 18.1042 20.1666 18.1042H16.8633L17.523 18.7639C17.7915 19.0324 17.7915 19.4676 17.523 19.7361C17.2545 20.0046 16.8193 20.0046 16.5508 19.7361L15.3656 18.551C14.7391 17.9245 14.7391 16.9088 15.3656 16.2824L16.5508 15.0972C16.8193 14.8287 17.2545 14.8287 17.523 15.0972C17.7915 15.3657 17.7915 15.801 17.523 16.0694Z" fill="#58CC8C"/>
</g>
</svg>
