<svg width="20" height="20" viewBox="0 0 20 20" fill="none" xmlns="http://www.w3.org/2000/svg">
<g id="withdraw 1">
<g id="Layer_14">
<path id="Vector" d="M15.3758 12.6004C15.0883 12.6004 14.855 12.8338 14.855 13.1213V16.2592C14.855 16.6612 14.5279 16.9883 14.1258 16.9883H3.19747C2.79539 16.9883 2.4683 16.6612 2.4683 16.2592V4.91542C2.69122 5.00375 2.93705 5.05625 3.19747 5.05625H14.1262C14.5283 5.05625 14.8554 5.38333 14.8554 5.78542V7.86C14.8554 8.1475 15.0887 8.38083 15.3762 8.38083C15.6637 8.38083 15.8971 8.1475 15.8971 7.86V5.78542C15.8971 4.80917 15.1029 4.01458 14.1262 4.01458H13.965V3.5125C13.965 2.66167 13.1708 1.96875 12.1941 1.96875H3.19747C2.22122 1.96875 1.42664 2.66125 1.42664 3.5125C1.42664 3.55583 1.43747 3.59667 1.44122 3.63875C1.43747 3.66375 1.42664 3.68583 1.42664 3.71167V16.2596C1.42664 17.2362 2.22122 18.0304 3.19747 18.0304H14.1262C15.1029 18.0304 15.8971 17.2362 15.8971 16.2596V13.1217C15.8966 12.8338 15.6637 12.6004 15.3758 12.6004ZM3.19747 3.01083H12.1941C12.5829 3.01083 12.9233 3.24542 12.9233 3.51292V4.015H3.19747C2.80914 4.015 2.4683 3.78042 2.4683 3.51292C2.4683 3.24542 2.80914 3.01083 3.19747 3.01083ZM19.5475 9.05542L17.0546 7.96042C16.7904 7.84458 16.4841 7.96417 16.3683 8.22792C16.2529 8.49125 16.3725 8.79833 16.6358 8.91417L17.8033 9.42667C15.8966 10.0179 12.1637 11.0271 9.88039 10.6679C9.59622 10.6213 9.32955 10.8171 9.28497 11.1012C9.24039 11.3854 9.43414 11.6521 9.71872 11.6967C10.1004 11.7571 10.5133 11.7838 10.9471 11.7838C13.5262 11.7838 16.8258 10.8379 18.4208 10.3271L17.7671 11.8158C17.6516 12.0796 17.7712 12.3867 18.0346 12.5021C18.1029 12.5321 18.1737 12.5458 18.2437 12.5458C18.4441 12.5458 18.635 12.4296 18.7212 12.2346L19.8162 9.74125C19.9304 9.47875 19.8108 9.17125 19.5475 9.05542Z" fill="#41BCD7"/>
</g>
</g>
</svg>
