<svg width="22" height="22" viewBox="0 0 22 22" fill="none" xmlns="http://www.w3.org/2000/svg">
<g id="wallet-3 1">
<path id="Vector" fill-rule="evenodd" clip-rule="evenodd" d="M16.5 2.75C18.525 2.75 20.1667 4.39162 20.1667 6.41667V12.8333C20.1667 13.3396 19.7563 13.75 19.25 13.75H16.5C14.475 13.75 12.8333 15.3917 12.8333 17.4167V18.3333C12.8333 18.8396 12.4229 19.25 11.9167 19.25H5.5C3.47495 19.25 1.83333 17.6083 1.83333 15.5833V14.2083H5.5C7.27192 14.2083 8.70833 12.7719 8.70833 11C8.70833 9.22808 7.27192 7.79167 5.5 7.79167H1.83333V6.41667C1.83333 4.39162 3.47495 2.75 5.5 2.75H16.5ZM7.33333 11C7.33333 9.98745 6.51252 9.16667 5.5 9.16667H1.83333V12.8333H5.5C6.51252 12.8333 7.33333 12.0126 7.33333 11ZM18.2269 16.0694L18.8866 16.7292H15.5833C15.2036 16.7292 14.8958 17.037 14.8958 17.4167C14.8958 17.7964 15.2036 18.1042 15.5833 18.1042H18.8866L18.2269 18.7639C17.9584 19.0324 17.9584 19.4676 18.2269 19.7361C18.4954 20.0046 18.9306 20.0046 19.1991 19.7361L20.3843 18.551C21.0108 17.9245 21.0108 16.9088 20.3843 16.2824L19.1991 15.0972C18.9306 14.8287 18.4954 14.8287 18.2269 15.0972C17.9584 15.3657 17.9584 15.801 18.2269 16.0694Z" fill="#FF5057"/>
</g>
</svg>
