<svg width="200" height="63" viewBox="0 0 200 63" fill="none" xmlns="http://www.w3.org/2000/svg">
<path d="M0 10C0 4.47716 4.47715 0 10 0H190C195.523 0 200 4.47715 200 10V52.4671C200 57.9899 195.523 62.4671 190 62.4671H10C4.47716 62.4671 0 57.9899 0 52.4671V10Z" fill="url(#paint0_radial_1066_3474)"/>
<g filter="url(#filter0_d_1066_3474)">
<path d="M40.5635 39.7344L39.0755 36.1344H31.2755L29.7875 39.7344H25.8035L33.2915 22.9344H37.1315L44.6435 39.7344H40.5635ZM32.5235 33.1824H37.8515L35.1875 26.7504L32.5235 33.1824ZM46.3865 39.7344V22.9344H50.2745V36.5664H58.6985V39.7344H46.3865ZM68.1429 22.9344C72.6309 22.9344 75.4389 25.2624 75.4389 29.0304C75.4389 32.7744 72.6309 35.1024 68.1429 35.1024H64.7589V39.7344H60.8709V22.9344H68.1429ZM67.9269 31.9344C70.3029 31.9344 71.5029 30.8544 71.5029 29.0304C71.5029 27.1824 70.3029 26.1024 67.9269 26.1024H64.7589V31.9344H67.9269ZM89.7347 22.9344H93.6227V39.7344H89.7347V32.8464H82.1027V39.7344H78.2147V22.9344H82.1027V29.5584H89.7347V22.9344ZM110.149 39.7344L108.661 36.1344H100.861L99.3735 39.7344H95.3895L102.877 22.9344H106.717L114.229 39.7344H110.149ZM102.109 33.1824H107.437L104.773 26.7504L102.109 33.1824Z" fill="url(#paint1_linear_1066_3474)"/>
</g>
<g filter="url(#filter1_d_1066_3474)">
<path d="M169.599 47.9909C168.886 48.05 168.181 48.0342 167.523 47.9633C163.54 47.5378 160.719 44.189 159.497 40.5762C158.82 41.5966 158.118 42.613 157.37 43.6098C156.893 44.252 156.409 44.8981 155.892 45.5285C155.786 45.6625 155.676 45.7964 155.562 45.9304C157.197 48.5385 159.639 50.4848 163.284 51.0442C165.324 51.3594 167.444 51.0954 169.359 50.3311C170.304 49.9529 171.187 49.4486 172.006 48.8458C172.558 48.44 173.44 47.7624 174.004 47.065C172.514 47.5457 171.037 47.8806 169.603 47.9869L169.599 47.9909Z" fill="url(#paint2_linear_1066_3474)"/>
<path d="M170.095 10L159.429 16.7686L162.81 18.3051C162.053 19.9322 161.293 21.5515 160.509 23.155C159.855 24.4985 159.185 25.8301 158.5 27.146C158.322 27.4888 158.145 27.8276 157.968 28.1703C157.46 29.1474 156.951 30.1166 156.423 31.0779C155.301 33.1187 154.119 35.2856 152.771 37.3422C150.825 40.3049 148.516 43.0234 145.483 44.7333C142.547 46.388 138.753 46.845 135.83 45.1666C132.792 43.4213 131.295 39.7534 131.138 36.2548C130.953 32.0865 132.41 27.867 135.133 24.7073C137.221 22.2843 140.14 20.4483 143.331 20.212C144.911 20.0938 146.562 20.3853 147.886 21.2599C149.639 22.4143 150.632 24.4354 151.223 26.4487C152.023 29.1711 152.235 32.0195 152.499 34.8483C153.76 32.8902 154.879 30.8455 155.947 28.915C156.502 27.9064 157.042 26.882 157.574 25.8537C156.841 22.5089 155.411 19.3019 152.917 16.9971C149.663 13.991 144.88 12.9115 140.534 13.7467C136.185 14.582 132.292 17.1901 129.444 20.5823C126.473 24.1202 124.562 28.5525 124.101 33.1503C123.621 37.9529 124.787 42.9997 127.761 46.8017C133.214 53.7751 142.607 53.9642 149.604 49.2561C151.073 48.2673 152.369 47.1011 153.543 45.864C153.961 45.4188 154.375 44.9499 154.761 44.489C154.911 44.3117 155.056 44.1344 155.194 43.9571C155.71 43.3268 156.195 42.6846 156.672 42.0384C157.491 40.9432 158.255 39.8322 158.992 38.7093C159.118 38.5163 159.248 38.3232 159.374 38.1302C160.229 36.8143 161.053 35.4866 161.837 34.1391C162.617 32.7917 163.373 31.4404 164.098 30.0733C164.819 28.7062 165.516 27.3272 166.198 25.9483C167.021 24.2857 167.817 22.6074 168.597 20.9329L172.041 22.497L170.095 10Z" fill="url(#paint3_linear_1066_3474)"/>
<path d="M170.096 10L159.431 16.7686L162.811 18.3051C162.055 19.9322 161.294 21.5515 160.51 23.155C159.856 24.4985 159.187 25.8301 158.501 27.146C158.324 27.4888 158.146 27.8276 157.969 28.1704C157.461 29.1474 156.953 30.1166 156.425 31.0779C155.302 33.1187 154.12 35.2856 152.773 37.3422C150.826 40.3049 148.518 43.0234 145.484 44.7333C142.549 46.388 138.755 46.845 135.831 45.1666C132.794 43.4213 131.297 39.7534 131.139 36.2548C130.954 32.0865 132.412 27.867 135.134 24.7073C137.222 22.2843 140.142 20.4483 143.333 20.212C144.913 20.0938 146.563 20.3853 147.887 21.2599C148.064 21.3781 148.234 21.5121 148.395 21.646C147.454 20.7281 146.351 20.011 145.098 19.558C138.739 17.2453 131.001 22.4734 127.814 31.2355C125.253 38.2799 126.396 45.537 130.245 49.3153C135.776 53.7318 143.581 53.3181 149.609 49.2601C151.078 48.2712 152.375 47.105 153.549 45.8679C153.966 45.4227 154.38 44.9539 154.766 44.4929C154.916 44.3157 155.062 44.1384 155.199 43.9611C155.716 43.3307 156.2 42.6885 156.677 42.0424C157.496 40.9471 158.261 39.8361 158.997 38.7133C159.123 38.5202 159.253 38.3272 159.38 38.1341C160.234 36.8182 161.058 35.4905 161.842 34.1431C162.622 32.7957 163.378 31.4443 164.103 30.0772C164.824 28.7101 165.522 27.3312 166.203 25.9522C167.027 24.2897 167.823 22.6113 168.603 20.9369L172.046 22.501L170.096 10Z" fill="url(#paint4_linear_1066_3474)"/>
</g>
<path d="M1 10C1 5.02945 5.02944 1 10 1H190C194.971 1 199 5.02944 199 10V52.4671C199 57.4376 194.971 61.4671 190 61.4671H10C5.02944 61.4671 1 57.4377 1 52.4671V10Z" stroke="white" stroke-opacity="0.2" stroke-width="2"/>
<defs>
<filter id="filter0_d_1066_3474" x="21.8037" y="20.9336" width="96.4258" height="24.8008" filterUnits="userSpaceOnUse" color-interpolation-filters="sRGB">
<feFlood flood-opacity="0" result="BackgroundImageFix"/>
<feColorMatrix in="SourceAlpha" type="matrix" values="0 0 0 0 0 0 0 0 0 0 0 0 0 0 0 0 0 0 127 0" result="hardAlpha"/>
<feOffset dy="2"/>
<feGaussianBlur stdDeviation="2"/>
<feComposite in2="hardAlpha" operator="out"/>
<feColorMatrix type="matrix" values="0 0 0 0 0 0 0 0 0 0 0 0 0 0 0 0 0 0 0.25 0"/>
<feBlend mode="normal" in2="BackgroundImageFix" result="effect1_dropShadow_1066_3474"/>
<feBlend mode="normal" in="SourceGraphic" in2="effect1_dropShadow_1066_3474" result="shape"/>
</filter>
<filter id="filter1_d_1066_3474" x="119.997" y="8" width="58.0073" height="50.4688" filterUnits="userSpaceOnUse" color-interpolation-filters="sRGB">
<feFlood flood-opacity="0" result="BackgroundImageFix"/>
<feColorMatrix in="SourceAlpha" type="matrix" values="0 0 0 0 0 0 0 0 0 0 0 0 0 0 0 0 0 0 127 0" result="hardAlpha"/>
<feOffset dy="2"/>
<feGaussianBlur stdDeviation="2"/>
<feComposite in2="hardAlpha" operator="out"/>
<feColorMatrix type="matrix" values="0 0 0 0 0 0 0 0 0 0 0 0 0 0 0 0 0 0 0.25 0"/>
<feBlend mode="normal" in2="BackgroundImageFix" result="effect1_dropShadow_1066_3474"/>
<feBlend mode="normal" in="SourceGraphic" in2="effect1_dropShadow_1066_3474" result="shape"/>
</filter>
<radialGradient id="paint0_radial_1066_3474" cx="0" cy="0" r="1" gradientUnits="userSpaceOnUse" gradientTransform="translate(100 31.2335) rotate(90) scale(31.2335 100)">
<stop offset="0.296875" stop-color="#D75D15"/>
<stop offset="1" stop-color="#A92A0E"/>
</radialGradient>
<linearGradient id="paint1_linear_1066_3474" x1="48.2574" y1="20.1342" x2="103.348" y2="42.8892" gradientUnits="userSpaceOnUse">
<stop stop-color="#FFEEB4"/>
<stop offset="0.265625" stop-color="#F2A736"/>
<stop offset="0.692708" stop-color="#FFF9C7"/>
<stop offset="1" stop-color="#C48D02"/>
</linearGradient>
<linearGradient id="paint2_linear_1066_3474" x1="158.489" y1="36.069" x2="168.074" y2="51.9622" gradientUnits="userSpaceOnUse">
<stop stop-color="#DB8C17"/>
<stop offset="0.2" stop-color="#B3840B"/>
<stop offset="0.46" stop-color="#B67A08"/>
<stop offset="0.74" stop-color="#FCEB4F"/>
<stop offset="1" stop-color="#E5D438"/>
</linearGradient>
<linearGradient id="paint3_linear_1066_3474" x1="148.02" y1="31.2079" x2="148.02" y2="15.1848" gradientUnits="userSpaceOnUse">
<stop stop-color="#DEBA3B"/>
<stop offset="0.354167" stop-color="#B9612F"/>
<stop offset="1" stop-color="#F9EA63"/>
</linearGradient>
<linearGradient id="paint4_linear_1066_3474" x1="156.496" y1="16.2406" x2="133.121" y2="52.0928" gradientUnits="userSpaceOnUse">
<stop stop-color="#FFFBA3"/>
<stop offset="0.703125" stop-color="#DBAD0C"/>
<stop offset="1" stop-color="#E07901"/>
</linearGradient>
</defs>
</svg>
