<svg width="50" height="40" viewBox="0 0 50 40" fill="none" xmlns="http://www.w3.org/2000/svg">
<g id="Isolation_Mode" filter="url(#filter0_d_1833_7449)">
<path id="Vector" d="M41.4795 30.9064C40.909 30.9536 40.3449 30.941 39.8185 30.8843C36.632 30.5439 34.3753 27.8648 33.3982 24.9746C32.8561 25.7909 32.2951 26.6041 31.6962 27.4015C31.3148 27.9153 30.9272 28.4322 30.5143 28.9365C30.4292 29.0436 30.3409 29.1508 30.2495 29.258C31.5575 31.3445 33.5117 32.9015 36.4271 33.349C38.0598 33.6012 39.7555 33.39 41.2873 32.7786C42.0437 32.476 42.7497 32.0726 43.4053 31.5903C43.8465 31.2657 44.5526 30.7236 45.0033 30.1657C43.8119 30.5502 42.6299 30.8181 41.4827 30.9032L41.4795 30.9064Z" fill="url(#paint0_linear_1833_7449)"/>
<path id="Vector_2" d="M41.8754 0.513672L33.3434 5.92853L36.0477 7.15775C35.4425 8.45946 34.8342 9.75486 34.207 11.0377C33.6838 12.1124 33.148 13.1778 32.5996 14.2305C32.4577 14.5047 32.3159 14.7757 32.1741 15.0499C31.7675 15.8316 31.3609 16.607 30.9385 17.376C30.0403 19.0087 29.0947 20.7422 28.0168 22.3874C26.4598 24.7576 24.6128 26.9324 22.1859 28.3003C19.8378 29.624 16.8025 29.9897 14.4639 28.647C12.0338 27.2507 10.8361 24.3164 10.71 21.5175C10.5619 18.1829 11.7281 14.8073 13.906 12.2795C15.5765 10.3411 17.912 8.87235 20.465 8.68324C21.7289 8.58868 23.0495 8.82192 24.1085 9.52162C25.5111 10.4451 26.3053 12.062 26.7781 13.6726C27.4179 15.8505 27.5881 18.1293 27.7993 20.3923C28.8079 18.8258 29.703 17.19 30.5572 15.6456C31.0016 14.8388 31.4334 14.0193 31.8589 13.1967C31.2726 10.5208 30.1285 7.95516 28.1334 6.11134C25.53 3.70648 21.7036 2.84288 18.2272 3.51107C14.7475 4.17926 11.6335 6.26578 9.35474 8.97951C6.97825 11.8099 5.44961 15.3557 5.08085 19.0339C4.69632 22.876 5.62927 26.9135 8.0089 29.955C12.3711 35.5337 19.885 35.685 25.4827 31.9186C26.6583 31.1275 27.6953 30.1945 28.6345 29.2049C28.9686 28.8487 29.2996 28.4736 29.6085 28.1049C29.7282 27.963 29.8449 27.8212 29.9552 27.6794C30.3681 27.1751 30.7557 26.6613 31.1371 26.1444C31.7927 25.2682 32.4041 24.3794 32.9935 23.4811C33.0944 23.3267 33.1984 23.1722 33.2993 23.0178C33.9832 21.9651 34.642 20.9029 35.2692 19.825C35.8932 18.7471 36.4984 17.666 37.0783 16.5723C37.6551 15.4786 38.213 14.3755 38.7583 13.2723C39.417 11.9422 40.0537 10.5996 40.6777 9.26002L43.4324 10.5113L41.8754 0.513672Z" fill="url(#paint1_linear_1833_7449)"/>
<path id="Vector_3" d="M41.8767 0.513672L33.3446 5.92853L36.0489 7.15775C35.4438 8.45946 34.8354 9.75486 34.2082 11.0377C33.685 12.1124 33.1492 13.1778 32.6008 14.2305C32.459 14.5047 32.3171 14.7757 32.1753 15.05C31.7687 15.8316 31.3621 16.607 30.9398 17.376C30.0415 19.0087 29.0959 20.7422 28.018 22.3874C26.461 24.7576 24.614 26.9324 22.1871 28.3003C19.839 29.6241 16.8038 29.9897 14.4651 28.647C12.035 27.2507 10.8373 24.3164 10.7113 21.5175C10.5631 18.1829 11.7293 14.8073 13.9072 12.2795C15.5777 10.3411 17.9132 8.87235 20.4662 8.68324C21.7301 8.58868 23.0507 8.82192 24.1097 9.52163C24.2516 9.61618 24.3871 9.72335 24.5163 9.83051C23.763 9.09613 22.8805 8.5225 21.8782 8.16003C16.7912 6.3099 10.601 10.4924 8.05111 17.5021C6.00242 23.1376 6.91645 28.9433 9.9958 31.9659C14.421 35.4991 20.6648 35.1681 25.4871 31.9218C26.6627 31.1306 27.6997 30.1977 28.6389 29.208C28.973 28.8519 29.304 28.4768 29.6128 28.108C29.7326 27.9662 29.8492 27.8244 29.9596 27.6825C30.3724 27.1782 30.7601 26.6645 31.1415 26.1476C31.7971 25.2714 32.4085 24.3826 32.9979 23.4843C33.0988 23.3298 33.2028 23.1754 33.3037 23.021C33.9876 21.9682 34.6463 20.9061 35.2736 19.8281C35.8976 18.7502 36.5028 17.6691 37.0827 16.5754C37.6595 15.4818 38.2174 14.3786 38.7626 13.2755C39.4214 11.9454 40.058 10.6027 40.6821 9.26318L43.4368 10.5145L41.8767 0.513672Z" fill="url(#paint2_linear_1833_7449)"/>
</g>
<defs>
<filter id="filter0_d_1833_7449" x="0.99707" y="0.513672" width="48.0063" height="41.9746" filterUnits="userSpaceOnUse" color-interpolation-filters="sRGB">
<feFlood flood-opacity="0" result="BackgroundImageFix"/>
<feColorMatrix in="SourceAlpha" type="matrix" values="0 0 0 0 0 0 0 0 0 0 0 0 0 0 0 0 0 0 127 0" result="hardAlpha"/>
<feOffset dy="4"/>
<feGaussianBlur stdDeviation="2"/>
<feComposite in2="hardAlpha" operator="out"/>
<feColorMatrix type="matrix" values="0 0 0 0 0 0 0 0 0 0 0 0 0 0 0 0 0 0 0.25 0"/>
<feBlend mode="normal" in2="BackgroundImageFix" result="effect1_dropShadow_1833_7449"/>
<feBlend mode="normal" in="SourceGraphic" in2="effect1_dropShadow_1833_7449" result="shape"/>
</filter>
<linearGradient id="paint0_linear_1833_7449" x1="32.5913" y1="21.3689" x2="40.2598" y2="34.0834" gradientUnits="userSpaceOnUse">
<stop stop-color="#DB8C17"/>
<stop offset="0.2" stop-color="#B3840B"/>
<stop offset="0.46" stop-color="#B67A08"/>
<stop offset="0.74" stop-color="#FCEB4F"/>
<stop offset="1" stop-color="#E5D438"/>
</linearGradient>
<linearGradient id="paint1_linear_1833_7449" x1="24.2157" y1="17.48" x2="24.2157" y2="4.66149" gradientUnits="userSpaceOnUse">
<stop stop-color="#DEBA3B"/>
<stop offset="0.354167" stop-color="#B9612F"/>
<stop offset="1" stop-color="#F9EA63"/>
</linearGradient>
<linearGradient id="paint2_linear_1833_7449" x1="30.9965" y1="5.50618" x2="12.2966" y2="34.1879" gradientUnits="userSpaceOnUse">
<stop stop-color="#FFFBA3"/>
<stop offset="0.703125" stop-color="#DBAD0C"/>
<stop offset="1" stop-color="#E07901"/>
</linearGradient>
</defs>
</svg>
