<svg width="180" height="120" viewBox="0 0 180 120" fill="none" xmlns="http://www.w3.org/2000/svg">
<rect width="180" height="120" rx="10" fill="url(#paint0_radial_1018_3414)"/>
<g filter="url(#filter0_d_1018_3414)">
<path d="M110.599 59.7565C109.886 59.8156 109.181 59.7998 108.523 59.7289C104.54 59.3034 101.719 55.9546 100.497 52.3418C99.8197 53.3622 99.1185 54.3787 98.3699 55.3754C97.8932 56.0176 97.4086 56.6638 96.8925 57.2941C96.7861 57.4281 96.6758 57.562 96.5615 57.696C98.1965 60.3041 100.639 62.2504 104.284 62.8098C106.324 63.125 108.444 62.8611 110.359 62.0967C111.304 61.7185 112.187 61.2142 113.006 60.6114C113.558 60.2056 114.44 59.528 115.004 58.8306C113.514 59.3113 112.037 59.6462 110.603 59.7526L110.599 59.7565Z" fill="url(#paint1_linear_1018_3414)"/>
<path d="M111.095 21.7656L100.429 28.5342L103.81 30.0707C103.053 31.6979 102.293 33.3171 101.509 34.9206C100.855 36.2641 100.185 37.5957 99.4997 38.9116C99.3224 39.2544 99.1451 39.5932 98.9678 39.936C98.4596 40.913 97.9514 41.8822 97.4234 42.8435C96.3006 44.8844 95.1186 47.0512 93.7712 49.1078C91.825 52.0706 89.5162 54.789 86.4826 56.4989C83.5474 58.1536 79.7534 58.6106 76.8301 56.9323C73.7925 55.1869 72.2954 51.519 72.1378 48.0204C71.9526 43.8521 73.4103 39.6326 76.1327 36.4729C78.2208 34.0499 81.1402 32.214 84.3315 31.9776C85.9113 31.8594 87.5621 32.1509 88.8859 33.0256C90.6391 34.1799 91.6319 36.201 92.2229 38.2143C93.0227 40.9367 93.2354 43.7852 93.4994 46.6139C94.7601 44.6559 95.879 42.6111 96.9467 40.6806C97.5022 39.672 98.042 38.6477 98.5738 37.6194C97.841 34.2745 96.4109 31.0675 93.917 28.7627C90.6627 25.7566 85.8798 24.6771 81.5342 25.5124C77.1847 26.3476 73.2921 28.9558 70.4437 32.3479C67.4731 35.8859 65.5623 40.3181 65.1013 44.9159C64.6206 49.7185 65.7868 54.7654 68.7614 58.5673C74.2141 65.5407 83.6065 65.7298 90.6036 61.0218C92.0732 60.0329 93.3694 58.8667 94.5434 57.6296C94.961 57.1844 95.3747 56.7156 95.7608 56.2546C95.9105 56.0773 96.0563 55.9 96.1942 55.7227C96.7103 55.0924 97.1949 54.4502 97.6716 53.8041C98.4911 52.7088 99.2554 51.5978 99.9922 50.4749C100.118 50.2819 100.248 50.0888 100.374 49.8958C101.229 48.5799 102.053 47.2522 102.837 45.9048C103.617 44.5574 104.373 43.206 105.098 41.8389C105.819 40.4718 106.516 39.0929 107.198 37.7139C108.021 36.0513 108.817 34.373 109.597 32.6986L113.041 34.2627L111.095 21.7656Z" fill="url(#paint2_linear_1018_3414)"/>
<path d="M111.096 21.7656L100.431 28.5342L103.811 30.0707C103.055 31.6979 102.294 33.3171 101.51 34.9206C100.856 36.2641 100.187 37.5957 99.501 38.9116C99.3237 39.2544 99.1464 39.5932 98.9691 39.936C98.4609 40.913 97.9526 41.8822 97.4247 42.8436C96.3019 44.8844 95.1199 47.0513 93.7725 49.1078C91.8263 52.0706 89.5175 54.789 86.4839 56.4989C83.5487 58.1536 79.7547 58.6106 76.8314 56.9323C73.7938 55.1869 72.2967 51.519 72.1391 48.0204C71.9539 43.8521 73.4116 39.6326 76.134 36.4729C78.2221 34.0499 81.1415 32.214 84.3328 31.9776C85.9126 31.8594 87.5634 32.1509 88.8872 33.0256C89.0645 33.1438 89.2339 33.2777 89.3954 33.4117C88.4538 32.4937 87.3506 31.7767 86.0978 31.3236C79.739 29.0109 72.0012 34.239 68.8139 43.0011C66.253 50.0455 67.3956 57.3026 71.2447 61.0809C76.7762 65.4974 84.581 65.0837 90.6089 61.0257C92.0784 60.0368 93.3746 58.8707 94.5487 57.6336C94.9663 57.1884 95.38 56.7195 95.7661 56.2586C95.9158 56.0813 96.0615 55.904 96.1994 55.7267C96.7155 55.0963 97.2001 54.4541 97.6769 53.808C98.4963 52.7127 99.2607 51.6017 99.9974 50.4789C100.123 50.2858 100.253 50.0928 100.38 49.8997C101.234 48.5838 102.058 47.2561 102.842 45.9087C103.622 44.5613 104.378 43.21 105.103 41.8428C105.824 40.4757 106.522 39.0968 107.203 37.7179C108.027 36.0553 108.823 34.3769 109.603 32.7025L113.046 34.2666L111.096 21.7656Z" fill="url(#paint3_linear_1018_3414)"/>
</g>
<g filter="url(#filter1_d_1018_3414)">
<path d="M60.5635 101L59.0755 97.4H51.2755L49.7875 101H45.8035L53.2915 84.2H57.1315L64.6435 101H60.5635ZM52.5235 94.448H57.8515L55.1875 88.016L52.5235 94.448ZM66.3865 101V84.2H70.2745V97.832H78.6985V101H66.3865ZM88.1429 84.2C92.6309 84.2 95.4389 86.528 95.4389 90.296C95.4389 94.04 92.6309 96.368 88.1429 96.368H84.7589V101H80.8709V84.2H88.1429ZM87.9269 93.2C90.3029 93.2 91.5029 92.12 91.5029 90.296C91.5029 88.448 90.3029 87.368 87.9269 87.368H84.7589V93.2H87.9269ZM109.735 84.2H113.623V101H109.735V94.112H102.103V101H98.2147V84.2H102.103V90.824H109.735V84.2ZM130.149 101L128.661 97.4H120.861L119.373 101H115.389L122.877 84.2H126.717L134.229 101H130.149ZM122.109 94.448H127.437L124.773 88.016L122.109 94.448Z" fill="white"/>
</g>
<rect x="1" y="1" width="178" height="118" rx="9" stroke="white" stroke-opacity="0.2" stroke-width="2"/>
<defs>
<filter id="filter0_d_1018_3414" x="60.9966" y="21.7656" width="58.0073" height="50.4688" filterUnits="userSpaceOnUse" color-interpolation-filters="sRGB">
<feFlood flood-opacity="0" result="BackgroundImageFix"/>
<feColorMatrix in="SourceAlpha" type="matrix" values="0 0 0 0 0 0 0 0 0 0 0 0 0 0 0 0 0 0 127 0" result="hardAlpha"/>
<feOffset dy="4"/>
<feGaussianBlur stdDeviation="2"/>
<feComposite in2="hardAlpha" operator="out"/>
<feColorMatrix type="matrix" values="0 0 0 0 0 0 0 0 0 0 0 0 0 0 0 0 0 0 0.25 0"/>
<feBlend mode="normal" in2="BackgroundImageFix" result="effect1_dropShadow_1018_3414"/>
<feBlend mode="normal" in="SourceGraphic" in2="effect1_dropShadow_1018_3414" result="shape"/>
</filter>
<filter id="filter1_d_1018_3414" x="41.8037" y="82.1992" width="96.4258" height="24.8008" filterUnits="userSpaceOnUse" color-interpolation-filters="sRGB">
<feFlood flood-opacity="0" result="BackgroundImageFix"/>
<feColorMatrix in="SourceAlpha" type="matrix" values="0 0 0 0 0 0 0 0 0 0 0 0 0 0 0 0 0 0 127 0" result="hardAlpha"/>
<feOffset dy="2"/>
<feGaussianBlur stdDeviation="2"/>
<feComposite in2="hardAlpha" operator="out"/>
<feColorMatrix type="matrix" values="0 0 0 0 0 0 0 0 0 0 0 0 0 0 0 0 0 0 0.25 0"/>
<feBlend mode="normal" in2="BackgroundImageFix" result="effect1_dropShadow_1018_3414"/>
<feBlend mode="normal" in="SourceGraphic" in2="effect1_dropShadow_1018_3414" result="shape"/>
</filter>
<radialGradient id="paint0_radial_1018_3414" cx="0" cy="0" r="1" gradientUnits="userSpaceOnUse" gradientTransform="translate(90 60) rotate(90) scale(60 90)">
<stop stop-color="#E66D16"/>
<stop offset="1" stop-color="#A9290D"/>
</radialGradient>
<linearGradient id="paint1_linear_1018_3414" x1="99.4888" y1="47.8347" x2="109.074" y2="63.7278" gradientUnits="userSpaceOnUse">
<stop stop-color="#DB8C17"/>
<stop offset="0.2" stop-color="#B3840B"/>
<stop offset="0.46" stop-color="#B67A08"/>
<stop offset="0.74" stop-color="#FCEB4F"/>
<stop offset="1" stop-color="#E5D438"/>
</linearGradient>
<linearGradient id="paint2_linear_1018_3414" x1="89.0198" y1="42.9736" x2="89.0198" y2="26.9504" gradientUnits="userSpaceOnUse">
<stop stop-color="#DEBA3B"/>
<stop offset="0.354167" stop-color="#B9612F"/>
<stop offset="1" stop-color="#F9EA63"/>
</linearGradient>
<linearGradient id="paint3_linear_1018_3414" x1="97.4956" y1="28.0063" x2="74.1208" y2="63.8584" gradientUnits="userSpaceOnUse">
<stop stop-color="#FFFBA3"/>
<stop offset="0.703125" stop-color="#DBAD0C"/>
<stop offset="1" stop-color="#E07901"/>
</linearGradient>
</defs>
</svg>
