<svg width="32" height="41" viewBox="0 0 32 41" fill="none" xmlns="http://www.w3.org/2000/svg">
<g id="Beta" filter="url(#filter0_d_1833_7491)">
<path id="Vector" d="M15.7697 13.2749C16.3091 13.23 16.8034 13.0389 17.2978 12.8255C18.0731 12.4884 18.7697 12.0502 19.3877 11.4884C20.8034 10.1963 21.6237 8.61198 21.8821 6.71311C22.0506 5.45468 21.9158 4.2412 21.3765 3.09513C20.7023 1.64569 19.5787 0.746818 18.0394 0.319852C17.9945 0.308616 17.9608 0.286144 17.9158 0.263672C19.2978 0.454683 20.5675 0.926593 21.7473 1.66817C22.4776 2.12884 23.1518 2.63446 23.736 3.26367C24.6461 4.2412 25.2641 5.38727 25.5001 6.72434C25.7248 7.94906 25.7473 9.16255 25.3315 10.3536C24.8596 11.7356 23.9945 12.8142 22.8034 13.6794C22.0619 14.2187 21.2304 14.5446 20.3428 14.9041C21.1293 15.1176 21.8372 15.3648 22.5001 15.7243C24.7585 16.9491 26.3652 18.7243 27.1293 21.1963C27.6124 22.758 27.5787 24.3536 27.2417 25.9603C26.9832 27.1962 26.4776 28.3311 25.7585 29.3648C24.3315 31.421 22.3652 32.567 19.8821 32.8479C19.7136 32.8704 19.5563 32.8479 19.3877 32.8592C19.5001 32.612 19.7136 32.7468 19.8821 32.7356C20.1293 32.7243 20.2192 32.6569 20.0843 32.421C20.0169 32.3086 20.0057 32.2075 20.1181 32.1064C20.2192 32.0052 20.3203 32.0165 20.4327 32.1064C20.4664 32.1401 20.5113 32.1513 20.5563 32.1625C21.0057 32.3535 20.927 32.3311 21.0394 31.8816C21.2079 31.2075 20.8147 30.7468 20.5563 30.23C20.2192 29.5221 19.8709 28.8255 19.545 28.1064C19.4102 27.8142 19.4327 27.4884 19.5225 27.1738C19.8259 26.8142 20.1742 26.4996 20.399 26.0727C21.3203 24.2749 21.2304 22.421 20.59 20.5895C19.9608 18.803 18.6911 17.4996 17.163 16.421C15.7922 15.4434 14.2866 14.7019 12.8259 13.8816C12.6574 13.7918 12.4664 13.7356 12.3428 13.5333C13.5001 13.4772 14.6349 13.5895 15.736 13.2974C15.736 13.2974 15.7585 13.2974 15.7697 13.2974V13.2749Z" fill="url(#paint0_linear_1833_7491)"/>
<path id="Vector_2" d="M16.0955 13.1514C15.9831 13.1852 15.8708 13.2301 15.7697 13.275C16.309 13.2301 16.8034 13.0391 17.2978 12.8256C18.073 12.4885 18.7697 12.0503 19.3876 11.4885C20.8034 10.1964 21.6236 8.61212 21.882 6.71325C22.0506 5.45482 21.9157 4.24134 21.3764 3.09527C20.7022 1.64583 19.5787 0.746958 18.0393 0.319991C17.9944 0.308755 17.9607 0.286284 17.9157 0.263812C16.5112 -0.0170872 15.1067 0.00538469 13.7022 0.196396C12.264 0.387407 10.9045 0.848081 9.63483 1.53347C8.48876 2.15145 7.38764 2.84808 6.58989 3.92673C4.9382 6.14021 4.57865 8.72448 4.51124 11.3874C4.5 11.4548 4.5 11.5335 4.5 11.6009C4.5 15.8481 4.5 20.0953 4.5 24.3425C4.5 24.8818 4.5 25.4211 4.57865 25.9604C4.6236 27.702 4.80337 29.4436 5.23034 31.1402C5.46629 32.0616 5.81461 32.938 6.33146 33.7469C7.36517 35.3537 8.92697 36.2301 10.6348 36.9155C10.8034 36.9829 10.8483 36.938 10.8371 36.7694C10.8371 36.6346 10.8371 36.511 10.8371 36.3762C10.8146 34.084 10.7921 31.7919 10.7697 29.4998C10.7697 29.3874 10.7247 29.2526 10.8483 29.1177C13.0955 31.7694 15.9045 33.0728 19.3876 32.8256C19.5 32.5784 19.7135 32.7132 19.882 32.702C20.1292 32.6908 20.2191 32.6234 20.0843 32.3874C20.0169 32.275 20.0056 32.1739 20.118 32.0728C20.2191 31.9717 20.3202 31.9829 20.4326 32.0728C20.4663 32.1065 20.5112 32.1177 20.5562 32.129C21.0056 32.32 20.927 32.2975 21.0393 31.8481C21.2079 31.1739 20.8146 30.7132 20.5562 30.1964C20.2191 29.4885 19.8708 28.7919 19.5449 28.0728C19.4101 27.7807 19.4326 27.4548 19.5225 27.1402C17.5225 28.7694 14.7135 28.1627 12.8596 26.2863C11.8034 25.2189 11.264 23.9267 11.0281 22.4661C10.736 20.6346 10.7584 18.7919 10.7697 16.9492C10.7809 14.7807 10.7247 12.6009 10.8258 10.4323C10.882 9.25257 10.9944 8.08403 11.5449 7.03909C12.118 5.97168 13.0169 5.19639 14.2416 4.9492C15.691 4.64583 17.0393 4.88179 18.2191 5.81437C20.1292 7.31999 20.1629 10.2638 18.309 11.938C17.6685 12.511 16.927 12.9043 16.0955 13.1402V13.1514Z" fill="url(#paint1_linear_1833_7491)"/>
</g>
<defs>
<filter id="filter0_d_1833_7491" x="0.5" y="0.0507812" width="31" height="44.8984" filterUnits="userSpaceOnUse" color-interpolation-filters="sRGB">
<feFlood flood-opacity="0" result="BackgroundImageFix"/>
<feColorMatrix in="SourceAlpha" type="matrix" values="0 0 0 0 0 0 0 0 0 0 0 0 0 0 0 0 0 0 127 0" result="hardAlpha"/>
<feOffset dy="4"/>
<feGaussianBlur stdDeviation="2"/>
<feComposite in2="hardAlpha" operator="out"/>
<feColorMatrix type="matrix" values="0 0 0 0 0 0 0 0 0 0 0 0 0 0 0 0 0 0 0.25 0"/>
<feBlend mode="normal" in2="BackgroundImageFix" result="effect1_dropShadow_1833_7491"/>
<feBlend mode="normal" in="SourceGraphic" in2="effect1_dropShadow_1833_7491" result="shape"/>
</filter>
<linearGradient id="paint0_linear_1833_7491" x1="19.9158" y1="32.8367" x2="19.9158" y2="0.263672" gradientUnits="userSpaceOnUse">
<stop offset="0.29" stop-color="#ED2024"/>
<stop offset="0.567708" stop-color="#F9E214"/>
</linearGradient>
<linearGradient id="paint1_linear_1833_7491" x1="4.46629" y1="34.1177" x2="22.3315" y2="3.16268" gradientUnits="userSpaceOnUse">
<stop stop-color="#FFF626"/>
<stop offset="0.223958" stop-color="#ED2125"/>
<stop offset="0.520833" stop-color="#ED2125"/>
<stop offset="0.6875" stop-color="#ECC024"/>
<stop offset="0.833333" stop-color="#D22026"/>
<stop offset="1" stop-color="#C44044"/>
</linearGradient>
</defs>
</svg>
