<svg width="28" height="28" viewBox="0 0 28 28" fill="none" xmlns="http://www.w3.org/2000/svg">
<g id="wallet 1">
<g id="Group">
<g id="Group_2">
<g id="Group_3">
<path id="Vector" d="M27.4636 10.3652C27.1149 10.0434 26.659 9.82879 26.1494 9.82879C26.1762 9.82879 26.2031 9.82879 26.2299 9.82879V7.06634C26.2299 5.9399 25.7739 4.92075 25.023 4.16979C24.272 3.41883 23.2529 2.96289 22.1264 2.96289H4.10345C2.97701 2.96289 1.95785 3.41883 1.2069 4.16979C0.455939 4.92075 0 5.9399 0 7.06634V20.9322C0 22.0587 0.455939 23.0778 1.2069 23.8288C1.95785 24.5797 2.97701 25.0357 4.10345 25.0357H22.1264C23.2529 25.0357 24.272 24.5797 25.023 23.8288C25.7739 23.0778 26.2299 22.0587 26.2299 20.9322V18.143C26.2031 18.143 26.1762 18.143 26.1494 18.143C26.659 18.143 27.1149 17.9284 27.4636 17.6066C27.7854 17.2847 28 16.802 28 16.2924V11.6794C28 11.1698 27.7854 10.7138 27.4636 10.3652ZM24.7548 20.9054C24.7548 21.6296 24.4598 22.2732 23.977 22.756C23.4943 23.2388 22.8506 23.5338 22.1264 23.5338H4.10345C3.37931 23.5338 2.73563 23.2388 2.25287 22.756C1.77011 22.2732 1.4751 21.6296 1.4751 20.9054V7.06634C1.4751 6.3422 1.77011 5.69852 2.25287 5.21576C2.73563 4.73301 3.37931 4.43799 4.10345 4.43799H22.1264C22.8506 4.43799 23.4943 4.73301 23.977 5.21576C24.4598 5.69852 24.7548 6.3422 24.7548 7.06634V9.82879H16.4406C15.3142 9.82879 14.3218 10.2847 13.5709 11.0089C12.8467 11.733 12.3908 12.7522 12.3908 13.8786V14.0663C12.3908 15.1928 12.8467 16.1851 13.5709 16.9361C14.295 17.6602 15.3142 18.1161 16.4406 18.1161H24.7548V20.9054ZM26.5249 16.2924C26.5249 16.3997 26.4713 16.507 26.4176 16.5606C26.3372 16.6411 26.2567 16.6679 26.1494 16.6679H16.4406C15.7433 16.6679 15.0728 16.3729 14.6169 15.9169C14.1609 15.461 13.8659 14.7905 13.8659 14.0932V13.9054C13.8659 13.1813 14.1609 12.5376 14.6169 12.0817C15.0996 11.5989 15.7433 11.3307 16.4406 11.3307H26.1494C26.2567 11.3307 26.364 11.3843 26.4176 11.438C26.4981 11.5184 26.5249 11.5989 26.5249 11.7062V16.2924Z" fill="#8BBCDF"/>
<path id="Vector_2" d="M16.6283 12.7793C16.3065 12.7793 16.0115 12.9134 15.7969 13.128C15.5823 13.3425 15.4482 13.6375 15.4482 13.9594C15.4482 14.2812 15.5823 14.5762 15.7969 14.7908C16.0115 15.0054 16.3065 15.1394 16.6283 15.1394C16.9502 15.1394 17.2452 15.0054 17.4866 14.7908C17.7011 14.5762 17.8352 14.2812 17.8352 13.9326C17.8352 13.6107 17.7011 13.3157 17.4866 13.0743C17.2452 12.9134 16.9502 12.7793 16.6283 12.7793Z" fill="#8BBCDF"/>
</g>
</g>
</g>
</g>
</svg>
